<?xml version="1.0" encoding="utf-8"?>
<!-- Generator: Adobe Illustrator 16.0.0, SVG Export Plug-In . SVG Version: 6.00 Build 0)  -->
<!DOCTYPE svg PUBLIC "-//W3C//DTD SVG 1.1//EN" "http://www.w3.org/Graphics/SVG/1.1/DTD/svg11.dtd">
<svg version="1.1" id="Layer_1" xmlns="http://www.w3.org/2000/svg" xmlns:xlink="http://www.w3.org/1999/xlink" x="0px" y="0px"
	 width="960px" height="268.5px" viewBox="0 0 960 268.5" enable-background="new 0 0 960 268.5" xml:space="preserve">
<g id="RO" display="none">
	<g display="inline">
		<path fill="none" d="M404.835,108.036c0.092-0.041,0.224,0.019,0.354,0.09l-0.433,0.223
			C404.747,108.21,404.747,108.079,404.835,108.036L404.835,108.036z"/>
		<path fill="none" d="M405.943,107.732c0.021-0.128,0.028-0.263,0.23-0.229c0.015-0.002,0.055,0.022,0.109,0.052L405.943,107.732z"
			/>
		<path fill="#002B7F" d="M473.831,80.15c0.063-0.037,0.142-0.07,0.222-0.104c0.428-0.517-0.024-0.527-0.268-0.895
			c-0.183-0.27,0.226-0.515,0.079-0.867c-0.047-0.11-0.044-0.172-0.011-0.208"/>
		<path fill="#002B7F" d="M502.354,81.8c0.077,0.046,0.16,0.072,0.253,0.062c0.311-0.032,0.401-0.511,0.655-0.646
			c0.078,0.096,0.327,0.322,0.448,0.411c0.175,0.132,0.424,0.042,0.555,0.133c0.515,0.347,0.478-0.054,1.021,0.115
			c0.516,0.162-0.037,0.313,0.088,0.556c0.2,0.385,0.488-0.222,0.681-0.322c0.188,0.213,0.678,0.498,0.925,0.731
			c0.395,0.369,0.548,0.593,0.623,1.133c-0.017,0.2-0.188,0.434-0.083,0.52c0.229,0.185,0.057,0.107,0.105,0.308
			c-0.033,0.03-0.004,0.087-0.015,0.099c0.084,0.169,0.269,0.127,0.302,0.351c0.024,0.146-0.001,0.293,0.105,0.417
			c0.25,0.276,0.632,0.437,0.861,0.699c0.082-0.021,0.299-0.156,0.284-0.269c0.384-0.197,0.614-0.222,1.025-0.322
			c0.173,0.197,1.318,0.86,1.59,0.941l0.99,0.916c0.023-0.011,0.051,0.002,0.066,0.002c0.116,0.223-0.093,0.328,0.216,0.482
			c0.232,0.151,1.718,0.847,1.253,1.352c0.005,0.02,0.021,0.083,0.014,0.099c0.187,0.091,0.229,0.571,0.479,0.673
			c0.296,0.134,0.509-0.01,0.754,0.053c0.328,0.082,1.058,0.867,1.259,1.139c0.347,0.474,0.398,0.283,0.854,0.172
			c0.5-0.122,0.979-0.158,1.438,0.192c0.099,0.188,0.359,0.288,0.55,0.332c0.254,0.06,0.298,0.264,0.509,0.342
			c0.456,0.177,0.618-0.432,0.802,0.3c0.062,0.25-0.198,0.415-0.212,0.468c-0.072,0.042,0.228,0.773,0.356,0.877
			c0.211,0.167,0.681,0.41,0.351,0.703c0.145,0.282,0.41,0.216,0.643,0.096c0.202-0.103,0.481,0.276,0.677,0.296
			c0.275,0.028,1.247-0.446,1.077,0.336c0.002,0.074,0.043,0.281-0.021,0.338l-0.061,0.171c0.021,0.042,0.057,0.291,0.145,0.27
			c0.082,0.091,0.261-0.028,0.38,0.124c0.126,0.171,0.109,0.291,0.296,0.408c0.211,0.137,0.958-0.241,0.999-0.196
			c0.142-0.037,0.394,0.206,0.626,0.156c0.238,0.273,0.524,0.425,0.621,0.87c0.066,0.314,0.657,0.599,0.955,0.579
			c0.041-0.001,0.283,0.035,0.284,0.03c0.346,0.107,0.001,0.445-0.021,0.592c-0.407,0.694-0.569,1.241,0.36,1.419
			c0.248,0.051,0.305,0.205,0.476,0.363c0.354,0.327,0.354-0.33,0.554-0.381c0.202-0.049,0.38,0.076,0.563-0.091
			c0.09-0.082,0.425-0.388,0.457-0.061c0.026,0.269-0.027,0.394-0.098,0.623c-0.239,0.763,0.684,0.386,1.145,0.836
			c0.277,0.279,0.535-0.159,0.604-0.38c-0.157-0.078,0.055-0.349,0.237-0.341c0.336,0.01,0.324,0.116,0.626-0.081
			c0.313-0.208,0.813,0.297,1.021,0.496c0.424,0.414,0.091,0.221,0.14,0.56c-0.117,0.056,0.01,0.181,0.061,0.245
			c0.263,0.122,0.81,0.591,1.028,0.585c0.394-0.016,0.202,0.158,0.457,0.357c0.588,0.463,0.567,0.402,0.682,1.127
			c0.064,0.406-0.302,0.593-0.301,0.602c-0.017,0.013-0.034,0.038-0.043,0.061c0.063,0.281-0.104,0.608,0.077,0.96
			c0.136,0.266,0.743,0.346,0.88,0.603c0.131,0.259,0.152,0.422,0.43,0.124c0.226-0.245,0.56-0.397,0.842-0.585
			c0.021-0.012,0.129-0.099,0.177-0.092c0.04,0.043,0.133,0.105,0.167,0.177c0.105-0.025,0.182-0.104,0.282-0.101
			c0,0,0.13,0.146,0.151,0.16c0.411,0.184,0.438,0.868,0.705,1.175c0.313,0.363,0.694,0.163,0.864,0.601
			c0.114,0.284,0.133,0.611,0.533,0.521c0.348-0.07,0.264-0.5,0.669-0.561c0.487-0.078,0.736,0.815,1.195,0.958
			c0.522,0.167,1.304,0.276,1.303-0.499c-0.006-0.486-0.024-0.47,0.5-0.607c0.678-0.174,0.579-0.321,0.974-0.672
			c-0.041-0.075-0.041-0.204-0.081-0.279c0.31-0.275,0.589,0.012,0.788,0.203c0.191-0.092,0.318-0.504,0.277-0.738
			c0.29-0.497,0.154-0.474,0.76-0.608c0.332-0.079,0.738-0.082,1.035-0.24c0.093-0.046,0.414-0.248,0.49-0.241
			c0.228,0.016,0.514,0.251,0.735,0.349c0.201,0.095,0.322,0.585,0.353,0.792c0.099,0.652,0.175,0.733,0.763,0.433
			c0.188-0.1,0.341,0.349,0.464,0.459l0.746,0.585c0.24-0.054,0.474,0.2,0.67,0.097c0.171-0.09,0.225-0.431,0.496-0.294
			c0.112,0.062,0.608,0.561,0.749,0.262c0.109-0.249,0.165-0.42,0.183-0.695c0.04-0.556,0.872-1.586,1.243-2.029
			c0.088-0.109,0.178-0.222,0.271-0.328l0.341,0.303c0.36,0.152,0.562,0.578,1.044,0.531c0.397-0.04,0.532-0.321,0.708-0.676
			c0.141-0.29,0.267-0.26,0.489-0.449c0.161-0.141,0.623-0.151,0.426-0.568c0.188-0.098,0.654,0.047,0.863,0.074
			c0.335,0.034,0.342-0.307,0.675-0.188l0.923,0.549l-0.113,0.274c0.587,0.022,0.06,0.756-0.022,1.008
			c-0.084,0.282-0.054,0.748-0.201,0.994c-0.374,0.612,0.078,0.709,0.115,1.282c0.024,0.349-0.032,0.339,0.192,0.564
			c0.214,0.216,0.019,0.487-0.086,0.719l-0.213,0.83l-0.946,0.379l-0.496,0.693l0.292,2.08l-0.741,0.227l-0.233-0.197l-0.324,0.109
			l0.242,1.185l-0.281,0.156l-0.623,1.822c0.098,0.062,0.188,0.101,0.263,0.216c0.07,0.122,0.082,0.171,0.086,0.314
			c0.013,0.187,0.236,0.429-0.029,0.513c-0.249,0.088-0.332,0.237-0.221,0.507c0.041,0.169,0.159,0.301,0.213,0.458
			c0.05,0.149,0.02,0.669-0.125,0.743c-0.196,0.119-0.5,0.128-0.722,0.207c-0.325,0.097-0.465,0.346-0.724,0.018
			c-0.171-0.208-0.317-0.426-0.507-0.606l-0.559,0.695l0.438,0.631c0.75,0.11,0.439,0.762,0.866,1.139
			c0.344,0.305,0.324,0.351,0.393,0.786c0.076,0.537,0.68,0.66,0.974,1.001c0.209,0.245,0.563,0.224,0.706,0.502
			c0.099,0.188,0.255,0.683,0.287,0.89c-0.231,0.124-0.33,0.084-0.536,0.273c0.04,0.181-0.009,0.486,0.021,0.702
			c0.104,0.275-0.032,0.641,0.188,0.847c0.154,0.148,0.706,0.301,0.916,0.326c0.112-0.028,0.328-0.038,0.445-0.025
			c0.096,0.005,0.237-0.037,0.28,0.084c0.033,0.078-0.029,0.149-0.033,0.225c-0.008,0.11,0.241,0.096,0.17,0.28
			c-0.06,0.15-0.39,0.317-0.541,0.331c-0.502-0.055-0.938,0.694-1.02,1.113c-0.087,0.444,0.471,0.624,0.436,1.011
			c-0.03,0.32-0.366,0.491-0.581,0.68c-0.15,0.138-0.255,0.802-0.127,0.95c0.183,0.216,0.003,0.3-0.117,0.485
			c-0.071,0.102-0.072,0.528-0.104,0.678c0.028-0.039-0.077,0.369-0.126,0.491c-0.045,0.119,0.031,0.231-0.115,0.308
			c-0.423,0.223,0.222,0.926-0.547,0.904c-0.102-0.003-0.634,0.077-0.562,0.214c0.048,0.088,0.232,0.237,0.188,0.358
			c-0.015,0.039-0.222,0.06-0.264,0.154c0.002-0.002-0.016,0.496-0.042,0.607l-0.888,0.289c-0.589,0.188-0.483-0.587-1.137-0.193
			c-0.148,0.094,0.331,1,0.306,1.293c-0.032,0.393-0.16,0.351,0.064,0.709c0.266,0.42-0.563,0.851-0.713,1.121
			c-0.389,0.691-0.399,0.33-1.038,0.463c-0.219,0.268-0.613,1.173-0.92,1.156c-0.195,0.441-0.403,0.15-0.62,0.197
			c-0.015-0.015-0.027,0.008-0.046-0.008c-0.055,0.031-0.176,0.325-0.162,0.382c-0.128,0.109-0.154,0.556-0.118,0.696
			c-0.346,0.301-0.742,0.676-0.62,1.182c-0.471,0.424-0.737,0.918-0.19,1.469c0.301,0.307,0.596,0.016,0.925-0.047
			c0.242-0.045,0.81,0.377,0.624,0.545c0.016,0.058-0.069,0.142-0.063,0.219c-0.076,0.08,0.401,0.332,0.503,0.334
			c0.263,0.064,0.662,0.277,0.644,0.568c-0.063,0.696,1.902-0.434,2.223-0.064c-0.151,0.158-0.388,0.869-0.499,1.119
			c-0.136,0.304,0.331,0.484,0.176,0.701c-0.186,0.256-0.135,0.512-0.459,0.648c-0.428,0.186-0.595,0.825-0.929,1.158
			c-0.245,0.253-0.609,0.449-0.532,0.834c0.087,0.402,0.106,0.295,0.059,0.714c-0.063,0.506,0.875,0.134,1.146,0.175
			c0.625,0.096,0.813-0.053,1.403-0.363c0.309-0.272,0.947-0.518,1.333-0.595c0.422-0.085,0.811,0.253,1.003,0.616l0.271,0.385
			c-0.265,0.262-0.341,0.732-0.303,1.051c0.156,1.158-1.545,1.379-2.297,1.916c-1.006,0.729-1.371,1.369-1.027,2.478
			c0.105,0.319,1.237,1.487,0.129,1.741c-0.931,0.218-0.602,0.572-1.102,1.066c-0.381,0.367-0.977,0.201-1.415,0.398
			c-0.275,0.123-0.389,0.598-0.598,0.65c-1.21,0.324-1.242,1.166-2.242,1.699c-0.298,0.157-0.744,0.447-0.815,0.772
			c-0.072,0.325,0.093,0.616,0.052,0.917c-0.029,0.191-0.178,0.367-0.15,0.554c0.042,0.308,0.278,0.5,0.369,0.791
			c0.054,0.179,0.085,0.347,0.01,0.539c-0.063,0.153-0.321,0.425-0.28,0.565c0.258,0.869-0.341,2.338-1.333,2.427
			c-0.467,0.046-0.996-0.798-1.352-1.06c-0.423-0.307-1.13-0.791-1.585-1.015c-0.593-0.291-0.772-0.274-1.186-0.907
			c-0.222-0.342-0.93-0.369-1.281-0.681c-0.395-0.353-0.731,0.104-1.02,0.271c-0.795,0.476-1.301-0.686-2.155-0.363
			c-0.813,0.311-1.175,2.324-1.394,3.119c-0.142,0.529-0.171,0.873-0.544,1.271c-0.281,0.3-0.938,0.233-1.123,0.646
			c-0.081,0.164-0.038,0.349-0.175,0.494c-0.387,0.41-0.551,1.33-0.584,1.905c-0.021,0.476,0.601,0.813,1.03,0.733
			c0.375-0.063,0.78-0.244,0.935-0.653c0.18-0.517,0.796-1.257,1.293-1.446c0.617-0.236,1.024,0.734,1.406,1.045
			c0.971,0.772,1.272-0.637,2.054-0.422c0.696,0.193,0.544,0.971,0.278,1.703c-0.164,0.452,0.264,0.98,0.404,1.393
			c0.161,0.445,0.051,1.85-0.083,2.289c-0.304,0.967-0.974,0.957-1.68,1.596c-0.121,0.109-0.169,0.441-0.166,0.621
			c0.004,0.062,0.336,0.73,0.494,0.912c0.268,0.308,0.392,0.553,0.4,0.765c0.025,0.401-0.358,0.662-0.924,0.958
			c-0.372,0.195-0.296,1.242-0.547,1.656c-0.567,0.953-1.147,1.283-1.507,2.418c-0.274,0.877-1.487,1.06-2.031,1.816
			c-0.336,0.465,0.157,1.287,0.571,1.535c0.301,0.178,0.418,0.348,0.796,0.381c0.282,0.022,0.775-0.279,1.049-0.381
			c0.021-0.006,0.097,0.002,0.122-0.002c1.126-0.247,1.723-0.217,2.468,0.721c0.334,0.418,1.53,1.205,1.582,1.65
			c0.199,1.745-0.68,2.253-1.889,3.273c-1.103,0.918-2.496,1.718-3.983,1.635c-0.295-0.021-0.755-0.035-1.103,0.05
			c-0.399,0.092-0.673,0.194-1.119,0.171c-0.167-0.006-0.383,0.092-0.619,0.225c0,0-34.167-65.716-51.259-98.59"/>
		<path fill="#FCD116" d="M406.296,107.561c0.191,0.111,0.53,0.317,0.486,0.121c0.002-0.006,0.01-0.005,0.017-0.01
			c0,0,0.006,0.001,0.008,0.005c0.289,0.546,0.465,0.259,0.717-0.063c0.274-0.343,0.515,0.438,0.648,0.472
			c0.18,0.041,0.178-0.168,0.348-0.254c0.172-0.089,0.437,0.011,0.629-0.035c0.354-0.085,0.662-0.46,0.913-0.703
			c0.153-0.14,0.496,0.212,0.543,0.174c0.189-0.159,0.463,0.129,0.535-0.012c0.164-0.322,0.24-0.303,0.628-0.131
			c0.328,0.148,0.448,0.029,0.345-0.348c-0.091-0.354,0.401,0.176,0.551,0.085c0.079-0.049,0.144-0.375,0.261-0.288
			c0.17,0.123,0.272,0.205,0.36,0.082l0.144,0.364c0.115,0.226,0.084,0.345,0.338,0.472c0.192,0.099,0.37,0.034,0.56,0.094
			c0.113,0.037,0.216,0.11,0.327,0.132c0.193,0.04,0.335,0.268,0.457,0.406c0.629,0.934,1.149,0.873,2.071,1.105
			c0.779,0.193,0.954,1.121,1.642,1.297c0.192,0.051,1.346-0.047,1.313-0.235l0.012-0.007c0.001-0.015,0.004-0.002,0.003-0.021
			c0.164-0.083,0.36,0.2,0.6-0.041l0.694-0.699l2.064-0.405c0.146-0.076,0.179-0.157,0.266-0.267
			c0.085-0.104,0.149-0.258,0.261-0.327c0.076-0.045,0.047-0.063,0.158-0.048c0.343-0.179,0.502,0.233,0.874,0.177
			c0.296-0.043,0.354-0.476,0.619-0.617c0.722-0.372,1.198,0.305,1.896,0c1.395-0.614,2.283-1.836,3.908-1.843l1.041-0.5
			l3.378-1.068l1.109-0.501l0.727,0.103c0.767,0.19,0.708-0.296,1.143-0.277c0.407,0.021,0.491,0.577,0.702,0.84
			c0.174,0.209,0.387,0.007,0.602,0.101c0.295,0.129,0.24,0.16,0.596,0.432l0.727,0.555c0.182,0.14,0.054,0.392,0.421,0.311
			c0.267-0.056,0.325-0.224,0.626-0.069c0.25,0.125,0.479,0.346,0.672,0.516c0.165,0.144,0.78,0.05,1.024,0.058
			c0.383-0.006,0.238-0.506,0.689,0.006c0.3,0.333,0.439-0.264,0.673-0.311c0.286-0.062,0.353,0.264,0.505-0.094
			c0.163-0.378,0.513-0.366,0.869-0.529c0.225-0.106,1.242-0.352,1.109-0.611c-0.168-0.32-0.317-1.208-0.063-1.51
			c0.334-0.387-0.022-1.326-0.148-1.763c-0.102-0.343,0.866-0.254,0.58-0.809c0.094-0.083,0.161-0.132,0.296-0.204
			c0.433,0.414,0.326-0.467,0.665-0.514c0.742-0.097,0.104-0.383,0.49-0.766c0.161-0.167,0.415-0.683,0.119-0.864
			c-0.212-0.188-0.416-0.57-0.362-0.849c0.063-0.291,0.251-0.454,0.188-0.729c-0.044-0.185,0.095-0.286,0.06-0.412
			c-0.039-0.154-0.231-0.421-0.078-0.562c0.229-0.218,0.669,0.108,0.554-0.354c-0.088-0.344,0.052-0.954,0.534-0.682
			c0.27,0.143,0.316-0.28,0.649-0.173c0.371,0.218,1.271-0.917,1.548-1.167c0.131-0.115,0.357,0.01,0.556-0.093
			c0.105,0.118,0.523,0.133,0.685,0.184c0.293,0.09,0.363,0.478,0.63,0.521c0.727,0.118,0.697-0.491,1.287-0.44
			c0.449,0.037,0.705,0.047,1.115-0.168c0.466-0.242,0.875,0.332,1.075-0.406c0.216-0.807,0.241-0.744,1.099-0.94
			c1.278-0.302,0.216-1.196,0.864-1.748c0.166-0.38,0.702-0.237,0.75-0.558c0.049-0.331,0.206-0.661,0.577-0.609
			c0.433,0.071,0.19-0.096,0.316-0.313c0.147-0.247,0.516,0.077,0.71,0.137c0.623,0.199,0.61-0.267,1.095-0.357
			c0.278-0.055,0.576,0.078,0.823-0.025c0.313-0.132,0.205-1.324,0.16-1.632c-0.05-0.382,1.463-1.541,1.951-1.53
			c0.653,0.016,0.817-0.217,1.205-0.608c0.25-0.563,0.478-0.86,1.029-1.098c0.662-0.286,0.795-0.898,1.362-0.34
			c0.15,0.148,0.783,0.67,0.928,0.539c0.3-0.288,0.837-0.616,0.893-1.044c0.039-0.322,0.45-0.255,0.425-0.524
			c-0.053-0.55,0.318-0.368,0.464-0.631c0.229-0.406,0.07-0.441,0.43-0.82c0.401-0.42-0.562-0.415,0.111-0.765
			c-0.047-0.188,0.03-0.293,0.158-0.376l60.765,116.86c-0.445,0.25-0.945,0.65-1.272,0.797c-0.479,0.228-1.002,0.326-1.324,0.776
			c-0.435,0.587-0.896,0.71-1.133,1.45c-0.237,0.768-0.808,1.425-1.533,1.79c-0.632,0.325-1.496-0.005-2.036,0.464
			c-0.57,0.484-0.6,0.971-0.953,1.605c-0.415,0.724-1.277,1.631-2.018,1.988c-0.525,0.252-0.98,0.459-1.365,0.887
			c-0.322,0.353-0.507,0.906-0.928,1.125c-0.244,0.119-0.295,0.75-0.511,0.965c-0.282,0.293-1.22,1.434-1.556,1.513
			c-0.723,0.173-1.446,0.345-2.174,0.51c-1.06,0.253-1,0.759-2.243,0.665c-0.892-0.063-1.395-0.042-2.309-0.107
			c-0.898-0.063-1.753,1.09-2.313,1.592c-0.731,0.658-0.906,2.959-1.891,2.875c-0.502-0.042-1.619-0.206-2.04,0.047
			c-0.199,0.119-0.211,0.438-0.446,0.554c-0.337,0.179-0.686,0.337-1.064,0.386c-1.045,0.133-1.505,0.453-1.964,1.39
			c-0.271,0.542-0.74,1.231-1.354,1.411c-0.458,0.137-0.928-0.037-1.372,0.094c-0.361,0.109-1.144,0.855-1.409,1.156
			c-0.335,0.377-0.298,1.238-0.773,1.65c-0.573,0.5-0.279,1.912-1.631,1.842c-0.852-0.051-1.365-0.278-2.184,0.145
			c-0.343,0.18-0.796,0.842-1.162,0.813c-0.807-0.074-1.523-0.57-2.408-0.353c-0.846,0.196-1.143,0.873-2.187,0.646
			c-0.689-0.15-1.306-0.773-2.029-0.727c-1.32,0.084-1.505-0.257-2.535-0.975c-0.922-0.635-2.155-0.83-3.265-0.937
			c-0.41-0.038-0.619,0.255-1.086-0.09c-0.61-0.442-1.091-0.917-1.879-0.992c-0.683-0.065-0.973,0.39-1.543,0.562
			c-0.949,0.275-2.011-0.254-2.932-0.166c-0.906,0.094-1.443,1.01-2.307,1.213c-0.486,0.119-2.087,0.402-2.556,0.64
			c-0.724,0.38-0.96,0.89-1.936,0.89c-0.013-0.002-0.032-0.008-0.043,0l-61.001-117.33c0.005-0.014,0.005-0.029,0.008-0.044
			l0.34-0.178C406.287,107.558,406.289,107.557,406.296,107.561L406.296,107.561z"/>
		<path fill="#CE1126" d="M465.623,225.188c-0.717,0.375-0.951,0.529-1.794,0.496c-0.578-0.025-1.529-0.248-2.088-0.074
			c-0.2,0.058-0.411,0.025-0.618,0.027c-0.36-0.009-0.677,0.365-0.975,0.545c-0.546,0.334-1.891,0.256-2.19,0.639
			c-0.154,0.186-0.239,0.424-0.427,0.584c-0.333,0.298-0.815,0.135-1.104,0.572c-0.34,0.498-0.791,0.978-1.335,1.262
			c-0.302,0.152-0.659,0.123-1.024,0.113l-0.022,0.652l0.275,0.232l-0.074,0.502l0.097,0.355l-1.035,1.202l-0.119,1.67l-1.714,0.429
			l-2.36,1.561l-1.155-0.561l-0.323,0.682l0.258,2.193l-0.195,0.416l-0.005,0.035c-0.263,0.135-0.098,0.027-0.815,0.178
			l-1.615,0.713l-2.012-0.448l-0.293,0.915l0.587,1.396l0.066,1.448l0.359,1.563l-0.248,0.266l-3.189,4.415l-2.179,1.272
			l-1.507,1.398l-2.685,1.242l0,0c-0.104-0.098-0.198-0.189-0.277-0.374c-0.147-0.281-0.479-0.606-0.517-0.88
			c-0.054-0.396-0.444-0.217-0.59-0.506c-0.122-0.233-0.106-0.482-0.206-0.719c-0.102-0.233-0.553-0.262-0.735-0.476
			c-0.127-0.149-0.027-0.388-0.134-0.483c-0.369-0.342-0.603-0.67-1.09-0.82c-0.331-0.107-0.215-0.385-0.409-0.577
			c-0.111-0.103-0.28-0.103-0.314-0.243c-0.159-0.051-0.272-0.145-0.396-0.208c0.033-0.218-0.541-0.06-0.605-0.467
			c-0.054-0.332-0.202-0.604-0.183-0.952c0.012-0.253-0.152-0.52-0.228-0.77c-0.092-0.303,0.046-0.688-0.098-0.965
			c-0.167-0.32-0.954-0.019-1.055-0.43c0.095-0.09,0.415-0.165,0.387-0.283c-0.037-0.195-0.262-0.265-0.424-0.179
			c-0.081-0.076-0.02-0.167-0.066-0.285c-0.007-0.108-0.022-0.403-0.099-0.47c-0.146-0.115-0.412-0.021-0.47-0.258
			c-0.104-0.408-0.144-0.785-0.269-1.209c-0.077-0.248-0.397-0.399-0.23-0.68c0.188-0.291,0.086-0.767-0.052-1.101
			c-0.073-0.298-0.239-0.563-0.394-0.819c-0.074-0.113-0.57-0.525-0.57-0.58c-0.144-0.076-0.209-0.349-0.378-0.425
			c-0.13-0.062-0.139,0.015-0.257,0.079c-0.182,0.094-0.954-0.51-0.854,0.088c-0.017,0.008-0.026-0.001-0.042,0.004
			c-0.125-0.133-0.276-0.344-0.446-0.455c-0.112-0.066-0.258-0.173-0.35-0.271c-0.125-0.118-0.352-0.138-0.481-0.244l-1.956-0.892
			c-0.237-0.116-1.623-0.854-1.781-0.811c-0.217-0.247-0.746-0.384-1.006-0.624c-0.131-0.123-0.613-0.534-0.755-0.603
			c0.051-0.797,1.283-0.282,1.781-0.031c0.327,0.164,0.657,0.311,0.968,0.533c0.107,0.078,0.742,0.648,0.805,0.632
			c0.031,0.032,0.11,0.054,0.133,0.011c0.365-0.009-0.366-0.833-0.431-0.959c-0.218-0.421-0.7-0.535-0.975-0.929
			c-0.04-0.147-0.197-0.722-0.292-0.712c-0.266,0.037-0.557-0.018-0.609-0.326c0.582-0.307,0.031-0.4-0.323-0.318
			c-0.472,0.12-1.521-0.589-2.015-0.679l-1.392-0.269c-0.54-0.102-0.38,0.31-0.582,0.578c-0.023,0.021-0.536,0.033-0.585-0.062
			c-0.156-0.294,0.073-0.431,0.29-0.543c0.479-0.251,0.412-0.97,1.149-1.149c0.093,0.184-0.525,0.438-0.373,0.725
			c0.094,0.184,1.123,0.346,1.364,0.363c0.257,0.019,0.702,0.271,0.917,0.047c0.164-0.174,1.255-0.123,0.645-0.805
			c-0.152-0.176,0.05-0.426-0.148-0.507c-0.114-0.034-0.799,0.125-0.668-0.149c0.101,0.018,0.451-0.191,0.501-0.273
			c0.071-0.109-0.387-0.413-0.476-0.471c-0.104-0.063-0.571-0.184-0.574-0.187c-0.498,0.263-0.902,0.074-1.433,0.081
			c-0.316,0.006-1.556,0.833-1.488,0.234c0.015-0.174,0.195-0.564,0.143-0.715c-0.081-0.252-0.47-0.032-0.559-0.396
			c0.043-0.022,0.575,0.437,0.556,0.077c-0.04-0.594-0.948-0.27-1.277-0.387c-0.263-0.092-0.198-0.28-0.004-0.381
			c0.324-0.162,0.231-0.586,0.157-0.883c-0.003-0.197,0.12-0.402,0.169-0.584c0.018-0.076,0.159-0.455,0.198-0.459
			c0.022-0.105,0.139-0.223,0.09-0.343c-0.099-0.229-0.408-0.243-0.317-0.537c0.144-0.46-0.241-0.53-0.344-0.942
			c-0.091-0.352-0.569-0.844-0.966-0.644c-0.093-0.103-0.507,0.026-0.533-0.144c-0.018-0.196-0.261-0.393-0.339-0.543
			c-0.013-0.002-0.013-0.002-0.022,0.002c0,0.017-0.028,0.041,0.004,0.054c-0.086,0.263,0.191,0.638-0.219,0.783
			c-0.221,0.075-0.613-0.128-0.857-0.104c-0.263,0.027-1.192,0.467-1.423,0.651c-0.626,0.513-1.105,1.133-0.362,1.729
			c0.263,0.205,0.673-0.133,0.993-0.074c0.354,0.07,0.611,0.566,0.77,0.869c0.281,0.314,0.149,1.313,0.646,1.556
			c-0.059,0.375,0.009,0.923-0.452,0.919c-0.333-0.003-0.4,0.049-0.471-0.34c-0.034-0.156-0.15-0.727-0.425-0.584
			c0.081,0.494-0.261,0.979-0.129,1.541c0.074,0.306,0.581,0.632,0.521,1.002c0.03,0.007,0.036,0.138,0.083,0.13
			c0.047,0.098,0.829-0.073,1.028-0.013c0.186,0.063,0.308,0.184,0.488,0.24c0.217,0.072,0.396-0.008,0.613-0.01
			c0.398,0.055,1.65-0.57,1.788-0.027c0.076,0.305-0.272,0.543,0.012,0.897c0.151,0.192,0.333,0.331,0.454,0.562
			c-0.01,0.006-0.012,0.008-0.009,0.021c-0.082,0.043-2.079-0.932-2.427-1.005c-1.033-0.22-2.308-0.029-3.363,0.142l-1.929,0.422
			l-3.146,1.157l-1.702,0.668c-0.644,0.243-1.796,0.081-0.529,0.775c0.629,0.35,1.36,0.183,1.992,0.083
			c0.051,0.318-1.523,0.295-1.751,0.223c-0.321-0.105-1.231-0.771-1.353-0.707c-0.188-0.214-0.384-0.262-0.548-0.576l-3.021-4.535
			c-0.305-0.736-0.935-1.375-1.481-1.906c-0.217-0.213-0.477-0.442-0.786-0.536c-0.164-0.052-0.736-0.24-0.812-0.384
			c0.005-0.01,0.003-0.01-0.004-0.021v-0.016c0.181-0.09,0.636-0.063,0.908-0.191c0.456-0.205,0.373-0.41,0.277-0.816
			c-0.036-0.151-0.211-0.938-0.373-0.901c-0.133-0.144-0.716,0.528-0.829,0.588c0.01-0.246,0.067-0.498,0.019-0.743
			c-0.056-0.294-0.105-0.529-0.331-0.74c-0.167-0.153-0.36-0.22-0.517-0.393c-0.411-0.473-0.52-1.305-0.631-1.902
			c-0.116-0.613,0.327-1.084,0.521-1.643c0.214-0.592,0.304-1.184,0.738-1.667c0.325-0.356,0.708-0.606,1.022-0.979
			c0.276-0.33,0.431-1.067,0.896-1.057c0.346,0.012,1.205-0.561,1.346-0.842c0.393-0.823,0.977,0.248,1.516-0.283
			c0.297-0.294,0.666-0.663,1.128-0.387c0.482,0.291,0.646-0.213,1.302,0.214c0.554,0.364,1.689-0.179,2.1-0.185
			c0.866-0.006,1.755,0.192,2.589-0.03c0.943-0.249,1.008,1.583,1.725,0.999c0.446-0.363,0.306-1.463,0.848-1.743
			c0.459-0.241,0.485-0.991,0.783-1.052c0.351-0.063,0.631,0.166,0.568,0.52c-0.203,1.162,1.596-0.406,1.221,0.967
			c-0.068,0.252-0.423,0.733-0.235,0.94c0.208,0.226,1.081-0.104,1.376-0.171c0.693-0.172,0.828-0.555,1.218-1.105
			c0.52-0.705,1.54-0.641,1.936-1.289c0.521-0.869,1.104-1.748,1.744-2.535c0.612-0.736,1.441-1.236,1.333-2.308
			c-0.054-0.53,0.025-1.239-0.006-1.708c-0.033-0.4-0.472-0.841-0.509-1.302c-0.051-0.565,0.245-0.802,0.567-1.14
			c0.171-0.187,0.309-0.404,0.516-0.543c0.026-0.142,0.129-0.291,0.163-0.43c0.037-0.132,0.003-0.314,0.041-0.453
			c0.03-0.111,0.075-0.216,0.114-0.316c0.115-0.291-0.159-0.342-0.292-0.549c-0.092-0.137,0.025-0.287-0.04-0.412
			c-0.093-0.176-0.283-0.332-0.317-0.531c-0.025-0.146-0.05-0.277-0.061-0.424c-0.03-0.456,0.308-0.321,0.515-0.672
			c0.168-0.295,0.141-0.784,0.054-1.154c-0.055-0.227-0.686-0.184-0.875-0.381c-0.01-0.01-0.045-0.002-0.055,0.013
			c-0.699,1.416-1.937-2.079-2.149-2.292c-0.324-0.333-0.093-0.598-0.226-1.031c-0.149-0.49-0.472-0.472,0.03-0.848
			c0.335-0.25-0.12-1.053-0.285-1.325c-0.175-0.28-0.132-0.649-0.294-0.87c-0.25-0.341-0.813-0.021-0.705-0.742
			c0.063-0.408,0.05-0.402-0.258-0.688c-0.29-0.273-0.388-0.381-0.441-0.803c-0.064-0.551-0.258-0.975-0.256-1.545
			c0-0.282-0.437-1.131-0.577-1.402c-0.161-0.307-0.53-0.279-0.441-0.703c0.128-0.636-0.61-0.199-0.723-0.677
			c-0.039-0.164-0.325-0.335-0.484-0.347c-0.048-0.006,0.036-0.014-0.046-0.086c-0.281-0.263-0.637-0.309-0.629-0.729
			c0.01-0.422-0.275-0.535-0.613-0.732c-0.243-0.139-0.039-0.396-0.12-0.58c-0.2-0.472,0.015-0.393,0.001-0.769
			c-0.006-0.204-0.186-0.446-0.28-0.629c-0.313-0.604-0.791-0.011-0.974-0.815c-0.108-0.48-0.581-0.328-0.871-0.416
			c-0.301-0.099-0.611,0.113-0.931-0.095c-0.345-0.228-0.178-0.659-0.257-1.005c-0.069-0.275-0.333-0.279-0.521-0.396
			c-0.299-0.18-0.487-0.506-0.736-0.638c-0.175-0.101-0.348,0.036-0.459-0.032c-0.171-0.102-0.144-0.373-0.234-0.543
			c-0.111-0.221-0.407-0.041-0.51-0.041c-0.307-0.009-0.514-0.502-0.434-0.627c0.189-0.295-0.101-0.359-0.166-0.477
			c-0.082-0.159,0.253-0.264,0.128-0.498c-0.303-0.587,0.208-0.749,0.027-1.167c-0.119-0.271-0.495-0.244-0.467-0.574
			c0.041-0.571-0.541-0.405-0.68-0.772c-0.056-0.146-0.038-0.493-0.202-0.57c-0.297-0.137-0.341,0.089-0.538-0.354
			c-0.132-0.295-0.291-0.36-0.486-0.582c-0.088-0.094-0.15-0.865-0.218-1.029c-0.208-0.491-0.456-0.77-0.185-1.229
			c0.278-0.462-0.292-0.623-0.035-0.974c0.174-0.242-0.255-0.472-0.122-0.653c0.071-0.097,0.218-0.173,0.148-0.31
			c-0.077-0.151-0.223-0.296-0.28-0.458c-0.055-0.182,0.189-0.266,0.046-0.46c-0.203-0.276-0.216-0.261-0.186-0.604
			c0.026-0.296,0.332-0.525,0.407-0.849c0.086-0.351,0.183-0.815-0.172-1.029c-0.456-0.274-0.216-0.36-0.223-0.784
			c-0.007-0.287-0.374-0.177-0.444-0.35c-0.121-0.303,0.445-0.584,0.23-0.805c-0.428-0.432-0.716-0.115-0.534-0.859
			c0.044-0.169-0.303-0.229-0.312-0.432c-0.016-0.266,0.284-0.438,0.033-0.692c-0.349-0.356-0.424-0.123-0.347-0.671
			c0.03-0.223,0.684-0.777,0.55-0.91c-0.277-0.271-0.739-0.447,0.066-0.594c0.394-0.076,0.263-0.295,0.428-0.577
			c0.121-0.212,0.637-0.601,0.588-0.802c-0.164-0.715,0.253-0.521,0.473-1.135c0.183-0.502,0.124-1.443,0.599-1.773
			c0.491-0.344-0.557-0.387-0.215-0.688c0.285-0.25,1.037-0.441,0.856-0.918c-0.108-0.287-0.551-0.106-0.587-0.34
			c-0.036-0.262-0.189-0.351-0.229-0.557c-0.033-0.159,0.222-0.221,0.251-0.34c0.003-0.01-0.432-0.727-0.34-0.885
			c0.172-0.299-0.035-0.598,0.182-0.809c0.204-0.201,0.167-0.265,0.022-0.535c-0.146-0.289-0.346-0.429-0.335-0.777
			c0.026-0.646,0.194-0.698,0.794-0.705c0.396-0.008,0.177-0.35,0.211-0.592c0.057-0.351,0.577-0.103,0.537-0.422
			c-0.072-0.623,0.771-0.732,0.536-0.959c-0.105-0.104-0.394-0.078-0.454-0.192c-0.104-0.202,0.102-0.353-0.01-0.579
			c-0.157-0.299-0.361-0.467,0.065-0.654c0.418-0.189,0.101-0.839-0.285-0.896c-0.811-0.119,0.054-0.848-0.169-1.271
			c-0.158-0.31-0.518-0.372-0.588-0.508c-0.037-0.063,0.161-0.749,0.197-0.812c0.131-0.213,0.623-0.436,0.829-0.516
			c0.166-0.061,0.04-0.377,0.24-0.459c0.351-0.146,0.077-0.371,0.173-0.654c0.118-0.354-0.333-0.877-0.232-1.031
			c0.228-0.346,0.067-0.53,0.228-0.92c0.078-0.192-0.407-0.33-0.403-0.558c0.007-0.316,0.449-0.495,0.574-0.789
			c0.226-0.519-0.072-0.831,0.363-1.325c0.494-0.559,0.014-1.047,0.339-1.578c0.114-0.191-0.316-0.462-0.243-0.675
			c0.088-0.258,0.213-0.349,0.196-0.591c-0.001-0.064-0.189-0.134-0.149-0.184c0.166-0.206,0.192-0.537,0.016-0.734
			c-0.28-0.316-0.3,0.246-0.511,0.257c-0.166,0.012-0.118-0.229-0.132-0.335c-0.036-0.245-0.426-0.019-0.383-0.271
			c0.028-0.159,0.088-0.134,0.025-0.256c-0.002-0.002,0.02-0.079,0.025-0.081c0.046-0.049,0.141-0.058,0.141-0.136
			c0.001-0.42-0.106-0.352,0.102-0.856c0.1-0.253-0.048-0.448,0.012-0.747c0.084-0.433-0.205-0.068-0.275-0.655
			c-0.022-0.197-0.537-0.055-0.494-0.256c0.023-0.114,0.175-0.142,0.262-0.211l0.333-0.312l-0.105-0.329l-0.581-1.588l-0.62,0.06
			l0.071,0.981l-0.51-0.203l-0.039-0.543l-0.13-0.221l0.234-0.126l-0.166-0.994l0.735-0.054l0.236-0.233l-0.025-0.123l0.109-0.542
			c0.042-0.126,0.163-0.253,0.12-0.375c-0.037-0.125-0.19-0.177-0.307-0.238c-0.358-0.185-0.399-0.54,0.06-0.571
			c0.728-0.044-0.071-0.431,0.016-0.63c0.106-0.239,0.573-0.093,0.656-0.239c0.173-0.295-0.536-0.487-0.52-0.716
			c0.009-0.146,0.258-0.227,0.269-0.352c0.011-0.168-0.115-0.286-0.093-0.462c0.024-0.159,0.334-0.378,0.353-0.528
			c0.031-0.297-0.139-0.407-0.012-0.686c0.145-0.326-0.185-0.327-0.32-0.566c-0.104-0.176-0.352-0.714-0.341-0.833
			c0.021-0.254,0.415-0.218,0.529-0.19c0.435,0.1,0.234-0.027,0.484-0.25c0.212-0.187,0.748-0.425,0.398-0.821
			c-0.327-0.369-0.55,0.357-0.848,0.281c-0.157-0.042,0.009-0.413,0.08-0.477c0.176-0.181,0.657-0.195,0.759-0.35
			c0.259-0.386-0.549-0.538-0.652-0.713c-0.257-0.416,0.278-0.985,0.66-0.427c0.196,0.291,0.617,0.125,0.4-0.118
			c-0.202-0.222-0.577-0.217-0.165-0.476c0.231-0.144,0.295-0.483,0.319-0.713c0.037-0.334-0.187-0.698,0.339-0.611
			c0.324,0.052,0.143-0.159,0.113-0.39c-0.054-0.457,0.034-0.691,0.543-0.634c0.319,0.033,0.361-0.114,0.636-0.17
			c0.387-0.084,0.137-0.754,0.429-0.553c0.347,0.24,0.3-0.007,0.287-0.248l0.433-0.226c0.28,0.147,0.568,0.355,0.504-0.207
			c-0.002-0.045,0.167,0.003,0.188-0.03c0.025-0.03,0.035-0.065,0.046-0.105L466.934,225.1
			C466.565,225.102,465.932,225.033,465.623,225.188L465.623,225.188z"/>
	</g>
</g>
<g id="Layer_4" display="none">
	<polygon display="inline" fill="#002B7F" points="521.938,142.037 506.382,185.58 459.778,114.53 518.33,76.565 	"/>
	<polygon display="inline" fill="#CEBF0B" points="511.6,179.615 472.122,203.459 433.003,143.822 464.996,108.565 	"/>
	<polygon display="inline" fill="#EF3818" points="481.555,208.546 458.669,225.078 429.872,246.129 414.5,178.5 434.516,138.279 	
		"/>
</g>
<g id="Layer_7">
	<path display="none" fill="#385D14" d="M436.6,375.648c0,0.051,0.053,0.051,0.053,0.051c0-1.051,0-2.1,0-3.1
		C436.6,373.6,436.6,374.6,436.6,375.648z M445.95,331.148c8.35-16.049,19.6-21.35,21.25-22.049
		C465.6,309.75,454.35,314.801,445.95,331.148z M465.2,276.05c-16.603,12.95-12.8,13.2-12.8,13.2
		c6.947,3.398,26.35,1.449,26.35,1.449c1.2-2.301,39.55-41.75,39.55-41.75C492.3,256.25,465.2,276.05,465.2,276.05z"/>
	<path display="none" fill="#4E9A06" d="M540.6,250.05c0,0-6.5,35.55-9.85,46.899c0,0-6.45,22.852-19.8,35.551
		c0,0-22.7,19.197-39.4,26.35c-0.05,0-0.55,0.201-3.8,1.5c0,0-9.3-16.25-2.2-27.5c0,0,5-11.35,13.2-17.949c0,0,3.1-4.648,11-4.398
		l16.35-1.75c0,0,6.65-3.9,8.65-10.352c0,0,4.45-8.351-6.9-6.898l-9.647-0.051L525.1,258.7c0,0,5.2-9.802,0-12.101
		c0,0,5.803-6.399,1.303-8.701c0,0,11.35-11.299,18.897-52.647c0.2-0.25,0.353-0.5,0.5-0.801
		C545.8,184.449,548.3,202.449,540.6,250.05z"/>
	<path display="none" fill="#385D14" d="M545.25,185.199c-7.55,41.398-18.9,52.648-18.9,52.648c-1.35-0.699-3.647-1.05-7.35-0.699
		c0,0-9.5-0.25-22.5,5.602c-33.75,15.1-47.75,23.85-61.2,43.5c0,0-8,17.398,4.95,21.25l27.1,1.447c0,0-0.05,0.053-0.197,0.104
		c-1.603,0.646-12.853,5.699-21.25,22.049c-0.103,0.201-0.2,0.35-0.303,0.551c-4.75,9.299-8.55,22.102-9,39.602
		c0,0.447-0.05,0.85-0.05,1.301c-0.05,1-0.05,2-0.05,3.049c-1.1-2.049-28.95-54.65-3-103.148c0,0,18.4-27.551,55.25-44.898
		C488.85,227.6,532.25,204.6,545.25,185.199z"/>
	<path fill="#222222" d="M81.598,195.75c-40.75,0-61-26.9-61-68.2c0-42.7,21.45-68.4,63.35-68.4c16.2,0,29.25,3.9,39.15,12.102
		c9.35,8.398,14.6,19.898,16,34.3h-16.35c-5.85,0-10.15-2.75-12.65-8c-4.5-9.55-13.25-14.4-26.1-14.4
		c-25.15,0-36.25,17.75-36.25,44.45c0,25.9,10.7,44.25,35.45,44.25c16.95,0,26.7-9.35,29.6-23.949h26.3
		C136.598,178.398,115.148,195.75,81.598,195.75z"/>
	<path fill="#33EC00" d="M602.198,59.149c15.399,0,28.85,3.9,39.95,11.7c10.147,8.2,15.8,19.7,16.75,34.7h-16.75
		c-4.853,0-8.75-2.352-11.9-6.801c-5.25-10.699-14.398-16-27.3-16c-22.8,0-34.5,14.399-34.7,43.45c-0.2,29.05,11.7,44.65,36.05,46.4
		c18.302,0,29.052-12.301,31.95-28.25h-16c-7.6,0-13.648-6.051-13.648-13.65V122.3h54v71.5h-6.802c-6.448,0-12.647-4.3-13.25-10.353
		l-1.147-6.449c-9.353,12.102-18.9,18.699-38,18.699c-38,0-61-29.449-61-68.197C539.798,88.399,562.998,57.6,602.198,59.149z"/>
	<g>
		<path fill="#222222" d="M156.398,122.1h7.5v26.8h29.45v-26.8h14.85v71.7h-14.85v-31.75h-29.45v31.75h-14.85v-64
			C149.048,125.699,152.298,122.1,156.398,122.1z"/>
		<path fill="#222222" d="M215.398,129.8c0-4.95,2.45-7.602,7.4-7.7h44.5v12.45h-37.45v15.397h27.95v4.75
			c0.1,4.951-2.45,7.4-7.6,7.4h-20.35v18.551h37.45v13.199h-51.9V129.8L215.398,129.8z"/>
		<path fill="#222222" d="M306.848,194.85c-22.05,0-33-14.55-33-36.899c0-23.101,11.6-36.999,34.3-36.999
			c8.75,0,15.8,2.101,21.2,6.551c5.05,4.55,7.9,10.75,8.65,18.551h-8.85c-3.15,0-5.5-1.5-6.85-4.301
			c-2.45-5.15-7.15-7.801-14.15-7.801c-13.6,0-19.6,9.602-19.6,24.051c0,14.051,5.8,23.948,19.2,23.948
			c9.2,0,14.45-5.05,16.05-12.948h14.25C336.548,185.5,324.948,194.85,306.848,194.85z"/>
		<path fill="#222222" d="M352.398,122.1h7.3v29.55l27.95-29.55h18.55l-28.6,29.1l31.1,42.603h-17.95l-18.1-25.301
			c-3.15-4.199-6.1-5.9-8.85-4.949c-2.75,0.949-4.1,2.75-4.1,5.147v25.1h-14.65v-64C344.998,125.699,348.248,122.1,352.398,122.1z"
			/>
	</g>
	<g>
		<path fill="#33EC00" d="M720.849,159.697c3.051,1.053,5.398,2.75,6.851,4.951c1.25,2.449,1.899,6,2.2,10.649l0.647,14.05
			c0.103,2.2,0.95,3.801,2.302,4.75h-16.149c-0.75-1.351-1.05-2.851-1.15-4.3c-0.3-1.051-0.55-5.149-0.647-12.149
			c-0.551-8.648-2.103-11.398-10.75-11.398h-15.603v27.85H673.9v-64c0-4.1,3.25-7.7,7.397-7.7h27.2
			c14.852,0,23.102,5.7,23.102,20.45C731.599,151.898,727.698,157.8,720.849,159.697z M706.748,134.8h-18.149v18.897h17.301
			c6.949,0,10.85-2.549,10.85-9.5C716.748,137.648,713.248,134.8,706.748,134.8z"/>
		<path fill="#33EC00" d="M740.248,130.05c0-4.95,2.45-7.602,7.4-7.7h44.5v12.45h-37.45v15.397h27.95v4.75
			c0.1,4.951-2.45,7.4-7.603,7.4h-20.349v18.551h37.45v13.199h-51.9L740.248,130.05L740.248,130.05z"/>
		<path fill="#33EC00" d="M799.748,130.05c0-4.95,2.45-7.602,7.4-7.7h44.5v12.45h-37.45v15.397h27.95v4.75
			c0.1,4.951-2.45,7.4-7.603,7.4h-20.349v18.551h37.45v13.199h-51.9L799.748,130.05L799.748,130.05z"/>
		<path fill="#33EC00" d="M866.398,122.35h7.897l29.2,49.25v-49.25h14.45v71.7h-15.249l-29.2-49.25v49.25h-14.45v-64
			C859.048,125.949,862.298,122.35,866.398,122.35z"/>
	</g>
	<g display="none">
		<path display="inline" fill="#5FD93E" d="M196.981,288.486c-1.35,15.609-8.277,35.346-18.053,54.725
			c0.192,0.348,0.363,0.777,0.562,1.322c0.982,2.705-1.965,6.393-1.965,6.393s1.965,0.49,1.965,6.145
			c0,5.652-27.526,40.555-27.526,40.555c16.223-2.457,16.223,2.457,15.729,6.15c-0.491,3.697,0,11.547-19.908,12.775
			c-19.909,1.229-29.985,21.279-31.214,31.109c-1.229,9.832,2.758,15.346,2.758,15.346h-0.001
			c18.338-10,40.426-21.148,54.148-38.139c23.303-28.852,23.579-137.27,23.579-137.27L196.981,288.486z"/>
	</g>
	<g display="none">
		
			<linearGradient id="SVGID_1_" gradientUnits="userSpaceOnUse" x1="106.6802" y1="322.583" x2="-45.7908" y2="584.4834" gradientTransform="matrix(1 0 0 1 118.3203 -34.1992)">
			<stop  offset="0" style="stop-color:#000000"/>
			<stop  offset="0.0625" style="stop-color:#000000;stop-opacity:0.8743"/>
			<stop  offset="0.4975" style="stop-color:#000000;stop-opacity:0"/>
			<stop  offset="1" style="stop-color:#000000"/>
		</linearGradient>
		<path display="inline" fill="url(#SVGID_1_)" d="M196.981,288.486c-1.35,15.609-8.277,35.346-18.053,54.725
			c0.192,0.348,0.363,0.777,0.562,1.322c0.982,2.705-1.965,6.393-1.965,6.393s1.965,0.49,1.965,6.145
			c0,5.652-27.526,40.555-27.526,40.555c16.223-2.457,16.223,2.457,15.729,6.15c-0.491,3.697,0,11.547-19.908,12.775
			c-19.909,1.229-29.985,21.279-31.214,31.109c-1.229,9.832,2.758,15.346,2.758,15.346h-0.001
			c18.338-10,40.426-21.148,54.148-38.139c23.303-28.852,23.579-137.27,23.579-137.27L196.981,288.486z"/>
	</g>
	<g display="none">
		<path display="inline" fill="#3E9A00" d="M90.522,480.602c-0.002-1.457-0.004-3.432-0.005-6.045
			c-0.017-48.174,29.249-59.234,29.249-59.234l-8.357-0.248c-10.078-0.488-22.366,3.195-24.579-11.299
			c0.738-21.373,16.222-31.713,41.416-46.461c25.193-14.746,37.727-15.484,43.872-15.484c4.906,0,6.051,0.008,6.813,1.385
			c9.953-19.729,16.955-39.826,18.125-55.564c0,0-15.321,25.244-68.691,51.32c-53.368,26.076-73.342,77.953-37.833,145.086
			C90.53,484.057,90.483,482.791,90.522,480.602z"/>
		<path display="inline" fill="#3E9A00" d="M171.154,353.719c0,0-34.472,37.77-38.624,42.955c0,0-21.866,1.582-25.815-1.594
			C106.714,395.08,122.33,371.406,171.154,353.719z"/>
	</g>
	<g display="none">
		
			<linearGradient id="SVGID_2_" gradientUnits="userSpaceOnUse" x1="107.0674" y1="277.7959" x2="-117.78" y2="582.2158" gradientTransform="matrix(1 0 0 1 118.3203 -34.1992)">
			<stop  offset="0" style="stop-color:#000000"/>
			<stop  offset="0.0197" style="stop-color:#000000;stop-opacity:0.9603"/>
			<stop  offset="0.4975" style="stop-color:#000000;stop-opacity:0"/>
			<stop  offset="1" style="stop-color:#000000"/>
		</linearGradient>
		<path display="inline" fill="url(#SVGID_2_)" d="M90.522,480.602c-0.002-1.457-0.004-3.432-0.005-6.045
			c-0.017-48.174,29.249-59.234,29.249-59.234l-8.357-0.248c-10.078-0.488-22.366,3.195-24.579-11.299
			c0.738-21.373,16.222-31.713,41.416-46.461c25.193-14.746,37.727-15.484,43.872-15.484c4.906,0,6.051,0.008,6.813,1.385
			c9.953-19.729,16.955-39.826,18.125-55.564c0,0-15.321,25.244-68.691,51.32c-53.368,26.076-73.342,77.953-37.833,145.086
			C90.53,484.057,90.483,482.791,90.522,480.602z"/>
		
			<linearGradient id="SVGID_3_" gradientUnits="userSpaceOnUse" x1="113.6357" y1="282.6455" x2="-111.2127" y2="587.0668" gradientTransform="matrix(1 0 0 1 118.3203 -34.1992)">
			<stop  offset="0" style="stop-color:#000000"/>
			<stop  offset="0.0197" style="stop-color:#000000;stop-opacity:0.9603"/>
			<stop  offset="0.4975" style="stop-color:#000000;stop-opacity:0"/>
			<stop  offset="1" style="stop-color:#000000"/>
		</linearGradient>
		<path display="inline" fill="url(#SVGID_3_)" d="M171.154,353.719c0,0-34.472,37.77-38.624,42.955c0,0-21.866,1.582-25.815-1.594
			C106.714,395.08,122.33,371.406,171.154,353.719z"/>
	</g>
	<g>
		<path fill="#33EC00" d="M536.322,50.56c-1.351,15.609-8.277,35.346-18.053,54.724c0.19,0.348,0.362,0.777,0.561,1.323
			c0.982,2.704-1.965,6.391-1.965,6.391s1.965,0.492,1.965,6.145c0,5.653-27.525,40.554-27.525,40.554
			c16.224-2.456,16.224,2.459,15.729,6.152c-0.49,3.695,0,11.545-19.908,12.773c-19.909,1.229-29.985,21.279-31.213,31.111
			c-1.229,9.83,2.758,15.345,2.758,15.345h-0.001c18.338-10,40.425-21.149,54.148-38.14c23.303-28.851,23.58-137.269,23.58-137.269
			L536.322,50.56z"/>
	</g>
	<g>
		
			<linearGradient id="SVGID_4_" gradientUnits="userSpaceOnUse" x1="446.022" y1="84.6572" x2="293.5504" y2="346.5587" gradientTransform="matrix(1 0 0 1 118.3203 -34.1992)">
			<stop  offset="0" style="stop-color:#000000"/>
			<stop  offset="0.4975" style="stop-color:#000000;stop-opacity:0"/>
			<stop  offset="1" style="stop-color:#000000"/>
		</linearGradient>
		<path fill="url(#SVGID_4_)" d="M536.322,50.56c-1.351,15.609-8.277,35.346-18.053,54.724c0.19,0.348,0.362,0.777,0.561,1.323
			c0.982,2.704-1.965,6.391-1.965,6.391s1.965,0.492,1.965,6.145c0,5.653-27.525,40.554-27.525,40.554
			c16.224-2.456,16.224,2.459,15.729,6.152c-0.49,3.695,0,11.545-19.908,12.773c-19.909,1.229-29.985,21.279-31.213,31.111
			c-1.229,9.83,2.758,15.345,2.758,15.345h-0.001c18.338-10,40.425-21.149,54.148-38.14c23.303-28.851,23.58-137.269,23.58-137.269
			L536.322,50.56z"/>
	</g>
	<g>
		<path fill="#3E9A00" d="M429.863,242.674c-0.002-1.455-0.004-3.432-0.005-6.045c-0.018-48.174,29.249-59.234,29.249-59.234
			l-8.357-0.248c-10.078-0.488-22.366,3.195-24.579-11.297c0.738-21.373,16.222-31.713,41.416-46.461
			c25.193-14.747,37.726-15.484,43.873-15.484c4.906,0,6.051,0.006,6.813,1.383c9.952-19.728,16.954-39.826,18.125-55.563
			c0,0-15.322,25.244-68.692,51.32c-53.368,26.076-73.342,77.952-37.833,145.086C429.871,246.129,429.824,244.865,429.863,242.674z"
			/>
		<path fill="#3E9A00" d="M510.494,115.791c0,0-34.471,37.771-38.624,42.956c0,0-21.866,1.582-25.815-1.593
			C446.055,157.154,461.67,133.481,510.494,115.791z"/>
	</g>
	<g>
		
			<linearGradient id="SVGID_5_" gradientUnits="userSpaceOnUse" x1="446.4087" y1="39.8687" x2="221.5623" y2="344.2871" gradientTransform="matrix(1 0 0 1 118.3203 -34.1992)">
			<stop  offset="0" style="stop-color:#000000"/>
			<stop  offset="0.0651" style="stop-color:#000000;stop-opacity:0.8679"/>
			<stop  offset="0.4926" style="stop-color:#000000;stop-opacity:0"/>
			<stop  offset="1" style="stop-color:#000000"/>
		</linearGradient>
		<path fill="url(#SVGID_5_)" d="M429.863,242.674c-0.002-1.455-0.004-3.432-0.005-6.045c-0.018-48.174,29.249-59.234,29.249-59.234
			l-8.357-0.248c-10.078-0.488-22.366,3.195-24.579-11.297c0.738-21.373,16.222-31.713,41.416-46.461
			c25.193-14.747,37.726-15.484,43.873-15.484c4.906,0,6.051,0.006,6.813,1.383c9.952-19.728,16.954-39.826,18.125-55.563
			c0,0-15.322,25.244-68.692,51.32c-53.368,26.076-73.342,77.952-37.833,145.086C429.871,246.129,429.824,244.865,429.863,242.674z"
			/>
		
			<linearGradient id="SVGID_6_" gradientUnits="userSpaceOnUse" x1="452.9771" y1="44.7168" x2="228.1259" y2="349.1418" gradientTransform="matrix(1 0 0 1 118.3203 -34.1992)">
			<stop  offset="0" style="stop-color:#000000"/>
			<stop  offset="0.0197" style="stop-color:#000000;stop-opacity:0.9603"/>
			<stop  offset="0.4975" style="stop-color:#000000;stop-opacity:0"/>
			<stop  offset="1" style="stop-color:#000000"/>
		</linearGradient>
		<path fill="url(#SVGID_6_)" d="M510.494,115.791c0,0-34.471,37.771-38.624,42.956c0,0-21.866,1.582-25.815-1.593
			C446.055,157.154,461.67,133.481,510.494,115.791z"/>
	</g>
</g>
<g id="Drapel" display="none">
	<g display="inline">
		<g id="dreapta_1_">
			<g id="Red_3_">
				<path fill="#C12E2F" d="M555.271,465.471l9.883,16.623c0,0-16.923-6.205-34.231-10.492c-7.121-4.83-3.667-9.775-2.404-10.139
					c1.258-0.365,7.584-0.873,7.584-0.873L555.271,465.471z"/>
				<path fill="#C12E2F" d="M532.069,495.195l-0.163-13.861l-76.9,20.346l0.178,13.586
					C455.184,515.266,520.154,514.865,532.069,495.195z"/>
				<g>
					
						<linearGradient id="SVGID_7_" gradientUnits="userSpaceOnUse" x1="395.3325" y1="5.4868" x2="411.884" y2="4.748" gradientTransform="matrix(0.9128 -0.012 -0.0131 -0.9999 163.8264 480.6432)">
						<stop  offset="0" style="stop-color:#000000"/>
						<stop  offset="1" style="stop-color:#000000;stop-opacity:0"/>
					</linearGradient>
					<path fill="url(#SVGID_7_)" d="M555.271,465.471l9.883,16.623c0,0-16.923-6.205-34.231-10.492
						c-7.121-4.83-3.667-9.775-2.404-10.139c1.258-0.365,7.584-0.873,7.584-0.873L555.271,465.471z"/>
					
						<linearGradient id="SVGID_8_" gradientUnits="userSpaceOnUse" x1="409.5469" y1="-1.9761" x2="382.2988" y2="-14.188" gradientTransform="matrix(0.9128 -0.012 -0.0131 -0.9999 163.8264 480.6432)">
						<stop  offset="0" style="stop-color:#000000"/>
						<stop  offset="1" style="stop-color:#000000;stop-opacity:0"/>
					</linearGradient>
					<path fill="url(#SVGID_8_)" d="M532.069,495.195l-0.163-13.861l-76.9,20.346l0.178,13.586
						C455.184,515.266,520.154,514.865,532.069,495.195z"/>
				</g>
			</g>
			<g id="yellow_3_">
				<path fill="#E0DB51" d="M555.126,452.381c0,0-3.404,5.176-3.39,6.371c0.017,1.195,3.563,6.758,3.563,6.758
					s-28.004-8.385-39.873,0.521l-0.479-13.328l12.838-9.398l20.775,3.965L555.126,452.381z"/>
				
					<linearGradient id="SVGID_9_" gradientUnits="userSpaceOnUse" x1="374.6802" y1="21.2695" x2="413.0683" y2="21.2695" gradientTransform="matrix(0.9128 -0.012 -0.0131 -0.9999 163.8264 480.6432)">
					<stop  offset="0" style="stop-color:#000000;stop-opacity:0"/>
					<stop  offset="0.4778" style="stop-color:#000000"/>
					<stop  offset="1" style="stop-color:#000000;stop-opacity:0"/>
				</linearGradient>
				<path fill="url(#SVGID_9_)" d="M555.126,452.381c0,0-3.404,5.176-3.39,6.371c0.017,1.195,3.563,6.758,3.563,6.758
					s-28.004-8.385-39.873,0.521l-0.479-13.328l12.838-9.398l20.775,3.965L555.126,452.381z"/>
				<path fill="#E0DB51" d="M531.891,481.611l-0.165-13.859l-76.908,19.521l0.188,14.406
					C455.006,501.68,519.974,501.281,531.891,481.611z"/>
				
					<linearGradient id="SVGID_10_" gradientUnits="userSpaceOnUse" x1="404.7246" y1="6.1958" x2="382.4274" y2="-2.1754" gradientTransform="matrix(0.9128 -0.012 -0.0131 -0.9999 163.8264 480.6432)">
					<stop  offset="0" style="stop-color:#000000"/>
					<stop  offset="1" style="stop-color:#000000;stop-opacity:0"/>
				</linearGradient>
				<path fill="url(#SVGID_10_)" d="M531.891,481.611l-0.165-13.859l-76.908,19.521l0.188,14.406
					C455.006,501.68,519.974,501.281,531.891,481.611z"/>
			</g>
			<g id="blue_3_">
				<path fill="#1323BA" d="M553.836,454.434l10.799-10c0,0-23.172-7.084-37.281-6.807c-14.111,0.277-12.689,6.275-12.677,7.277
					c0.015,1.004,0.478,13.311,0.478,13.311s10.896-0.604,10.322,1.32c-0.572,1.922-17.151,13.537-70.839,14.152l0.18,13.584
					c0,0,62.946,2.047,76.919-17.424c0,0-0.006-17.369-0.709-19.822c-0.703-2.455-5.995-4.436,0.072-3.146
					C537.165,448.166,553.836,454.434,553.836,454.434z"/>
				
					<linearGradient id="SVGID_11_" gradientUnits="userSpaceOnUse" x1="416.792" y1="31.0469" x2="373.4651" y2="9.6344" gradientTransform="matrix(0.9128 -0.012 -0.0131 -0.9999 163.8264 480.6432)">
					<stop  offset="0" style="stop-color:#000000;stop-opacity:0"/>
					<stop  offset="0.4778" style="stop-color:#000000;stop-opacity:0.8"/>
					<stop  offset="1" style="stop-color:#000000;stop-opacity:0"/>
				</linearGradient>
				<path fill="url(#SVGID_11_)" d="M553.836,454.434l5.881-9.115c0,0-18.254-7.969-32.364-7.691s-12.688,6.277-12.676,7.279
					c0.015,1.002,0.478,13.309,0.478,13.309s10.896-0.602,10.322,1.32c-0.572,1.924-17.151,13.539-70.839,14.154l0.179,13.584
					c0,0,62.947,2.045,76.92-17.426c0,0-0.006-17.369-0.709-19.822s-5.995-4.434,0.072-3.146
					C537.165,448.166,553.836,454.434,553.836,454.434z"/>
				
					<linearGradient id="SVGID_12_" gradientUnits="userSpaceOnUse" x1="393.2305" y1="30.9585" x2="385.6108" y2="23.8553" gradientTransform="matrix(0.9128 -0.012 -0.0131 -0.9999 163.8264 480.6432)">
					<stop  offset="0" style="stop-color:#000000"/>
					<stop  offset="1" style="stop-color:#000000;stop-opacity:0"/>
				</linearGradient>
				<path opacity="0.4" fill="url(#SVGID_12_)" enable-background="new    " d="M517.762,442.197c2.386-1.74,2.695-3.795,4.15-3.814
					c0.447-0.004,0.746-0.184,0.965-0.42c-9.307,1.322-8.212,6.063-8.2,6.943c0.003,0.232,0.032,1.082,0.071,2.244
					c0.479,0.482,1.182,1.02,2.476,1.141c1.907,0.184,12.489-0.096,12.489-0.096l0.031-0.018c-1.122-1.105-2.311-1.824-0.834-1.686
					C526.13,445.934,515.689,443.711,517.762,442.197z"/>
			</g>
		</g>
		<g id="stanga_1_">
			<g id="Red_2_">
				<path fill="#C12E2F" d="M354.744,468.105l-9.442,16.877c0,0,16.753-6.646,33.943-11.387c6.991-5.018,3.409-9.869,2.14-10.199
					c-1.268-0.332-7.606-0.672-7.606-0.672L354.744,468.105z"/>
				<path fill="#C12E2F" d="M378.722,497.211l-0.202-13.861l77.408,18.318l0.18,13.582
					C456.105,515.25,391.149,516.561,378.722,497.211z"/>
				<g>
					
						<linearGradient id="SVGID_13_" gradientUnits="userSpaceOnUse" x1="800.0566" y1="5.4912" x2="816.608" y2="4.7525" gradientTransform="matrix(-0.9128 0.012 -0.0131 -0.9999 1115.8672 468.1332)">
						<stop  offset="0" style="stop-color:#000000"/>
						<stop  offset="1" style="stop-color:#000000;stop-opacity:0"/>
					</linearGradient>
					<path fill="url(#SVGID_13_)" d="M354.744,468.105l-9.442,16.877c0,0,16.753-6.646,33.943-11.387
						c6.991-5.018,3.409-9.869,2.14-10.199c-1.268-0.332-7.606-0.672-7.606-0.672L354.744,468.105z"/>
					
						<linearGradient id="SVGID_14_" gradientUnits="userSpaceOnUse" x1="814.2637" y1="-1.9639" x2="787.0161" y2="-14.1756" gradientTransform="matrix(-0.9128 0.012 -0.0131 -0.9999 1115.8672 468.1332)">
						<stop  offset="0" style="stop-color:#000000"/>
						<stop  offset="1" style="stop-color:#000000;stop-opacity:0"/>
					</linearGradient>
					<path fill="url(#SVGID_14_)" d="M378.722,497.211l-0.202-13.861l77.408,18.318l0.18,13.582
						C456.105,515.25,391.149,516.561,378.722,497.211z"/>
				</g>
			</g>
			<g id="yellow_2_">
				<path fill="#E0DB51" d="M354.545,455.018c0,0,3.54,5.084,3.555,6.279c0.016,1.193-3.382,6.848-3.382,6.848
					s27.773-9.117,39.875-0.523l0.126-13.338l-13.081-9.061l-20.665,4.512L354.545,455.018z"/>
				
					<linearGradient id="SVGID_15_" gradientUnits="userSpaceOnUse" x1="779.4072" y1="21.2783" x2="817.7944" y2="21.2783" gradientTransform="matrix(-0.9128 0.012 -0.0131 -0.9999 1115.8672 468.1332)">
					<stop  offset="0" style="stop-color:#000000;stop-opacity:0"/>
					<stop  offset="0.4778" style="stop-color:#000000"/>
					<stop  offset="1" style="stop-color:#000000;stop-opacity:0"/>
				</linearGradient>
				<path fill="url(#SVGID_15_)" d="M354.545,455.018c0,0,3.54,5.084,3.555,6.279c0.016,1.193-3.382,6.848-3.382,6.848
					s27.773-9.117,39.875-0.523l0.126-13.338l-13.081-9.061l-20.665,4.512L354.545,455.018z"/>
				<path fill="#E0DB51" d="M378.543,483.623l-0.203-13.855l77.397,17.494l0.188,14.406
					C455.927,501.668,390.972,502.975,378.543,483.623z"/>
				
					<linearGradient id="SVGID_16_" gradientUnits="userSpaceOnUse" x1="809.4453" y1="6.209" x2="787.1481" y2="-2.1622" gradientTransform="matrix(-0.9128 0.012 -0.0131 -0.9999 1115.8672 468.1332)">
					<stop  offset="0" style="stop-color:#000000"/>
					<stop  offset="1" style="stop-color:#000000;stop-opacity:0"/>
				</linearGradient>
				<path fill="url(#SVGID_16_)" d="M378.543,483.623l-0.203-13.855l77.397,17.494l0.188,14.406
					C455.927,501.668,390.972,502.975,378.543,483.623z"/>
			</g>
			<g id="blue_2_">
				<path fill="#1323BA" d="M355.89,457.035l-11.058-9.717c0,0,22.976-7.688,37.089-7.783c14.114-0.094,12.851,5.943,12.863,6.945
					c0.015,1.004-0.125,13.314-0.125,13.314s-10.907-0.313-10.287,1.592c0.624,1.91,17.5,13.086,71.187,12.289l0.179,13.584
					c0,0-62.872,3.697-77.349-15.398c0,0-0.453-17.361,0.188-19.834c0.639-2.471,5.875-4.588-0.153-3.145
					C372.392,450.332,355.89,457.035,355.89,457.035z"/>
				
					<linearGradient id="SVGID_17_" gradientUnits="userSpaceOnUse" x1="821.5088" y1="31.0605" x2="778.1829" y2="9.6485" gradientTransform="matrix(-0.9128 0.012 -0.0131 -0.9999 1115.8672 468.1332)">
					<stop  offset="0" style="stop-color:#000000;stop-opacity:0"/>
					<stop  offset="0.4778" style="stop-color:#000000;stop-opacity:0.8"/>
					<stop  offset="1" style="stop-color:#000000;stop-opacity:0"/>
				</linearGradient>
				<path fill="url(#SVGID_17_)" d="M355.89,457.035l-6.118-8.959c0,0,18.036-8.443,32.149-8.541
					c14.114-0.094,12.851,5.943,12.863,6.945c0.015,1.004-0.125,13.314-0.125,13.314s-10.907-0.313-10.287,1.592
					c0.624,1.91,17.5,13.086,71.187,12.289l0.179,13.584c0,0-62.872,3.697-77.349-15.398c0,0-0.453-17.361,0.188-19.834
					c0.639-2.471,5.875-4.588-0.153-3.145C372.392,450.332,355.89,457.035,355.89,457.035z"/>
				
					<linearGradient id="SVGID_18_" gradientUnits="userSpaceOnUse" x1="797.9434" y1="30.9692" x2="790.3254" y2="23.8678" gradientTransform="matrix(-0.9128 0.012 -0.0131 -0.9999 1115.8672 468.1332)">
					<stop  offset="0" style="stop-color:#000000"/>
					<stop  offset="1" style="stop-color:#000000;stop-opacity:0"/>
				</linearGradient>
				<path opacity="0.4" fill="url(#SVGID_18_)" enable-background="new    " d="M391.631,443.855
					c-2.431-1.68-2.793-3.725-4.25-3.705c-0.447,0.004-0.75-0.164-0.976-0.395c9.337,1.08,8.368,5.846,8.379,6.727
					c0.003,0.234-0.002,1.084-0.011,2.244c-0.468,0.494-1.156,1.049-2.447,1.207c-1.9,0.229-12.488,0.232-12.488,0.232l-0.031-0.02
					c1.093-1.133,2.261-1.885,0.79-1.705C383.365,447.811,393.742,445.313,391.631,443.855z"/>
			</g>
		</g>
	</g>
</g>
</svg>
