<?xml version="1.0" encoding="utf-8"?>
<!-- Generator: Adobe Illustrator 16.0.0, SVG Export Plug-In . SVG Version: 6.00 Build 0)  -->
<!DOCTYPE svg PUBLIC "-//W3C//DTD SVG 1.1//EN" "http://www.w3.org/Graphics/SVG/1.1/DTD/svg11.dtd">
<svg version="1.1" id="Layer_1" xmlns="http://www.w3.org/2000/svg" xmlns:xlink="http://www.w3.org/1999/xlink" x="0px" y="0px"
	 width="960px" height="268.5px" viewBox="0 0 960 268.5" enable-background="new 0 0 960 268.5" xml:space="preserve">
<g id="Layer_4" display="none">
	<polygon display="inline" fill="#002B7F" points="549.969,133.672 528.97,187.899 466.063,99.416 548.5,52.137 	"/>
	<polygon display="inline" fill="#CEBF0B" points="535.094,178.77 481.805,208.463 429,134.194 472.186,90.287 	"/>
	<polygon display="inline" fill="#EF3818" points="495.458,216.499 464.566,237.089 430.369,263.305 409,179.825 431.962,128.994 	
		"/>
</g>
<g id="Layer_7">
	<g>
		<path fill="#222222" d="M66.4,105.076c12.85,0,21.6,4.85,26.1,14.4c2.5,5.25,6.8,8,12.65,8h16.35
			c-1.4-14.403-6.65-25.903-16-34.301c-9.9-8.202-22.95-12.102-39.15-12.102c-41.9,0-63.35,25.7-63.35,68.4
			c0,41.299,20.25,68.199,61,68.199c33.55,0,55-17.352,57.5-47.848H95.2c-2.9,14.6-12.65,23.949-29.6,23.949
			c-24.75,0-35.45-18.35-35.45-44.25C30.15,122.827,41.25,105.076,66.4,105.076z"/>
		<path fill="#222222" d="M175.75,170.824H146.3v-26.801h-7.5c-4.1,0-7.35,3.6-7.35,7.701v64h14.85v-31.75h29.45v31.75h14.85
			v-71.701h-14.85V170.824z"/>
		<path fill="#222222" d="M197.8,151.725v64.047h51.9v-13.199h-37.45v-18.551h20.35c5.15,0,7.7-2.449,7.6-7.4v-4.75h-27.95v-15.396
			h37.45v-12.451h-44.5C200.25,144.121,197.8,146.773,197.8,151.725z"/>
		<path fill="#222222" d="M290.15,203.875c-13.4,0-19.2-9.896-19.2-23.947c0-14.449,6-24.051,19.6-24.051c7,0,11.7,2.65,14.15,7.801
			c1.35,2.801,3.7,4.301,6.85,4.301h8.85c-0.75-7.801-3.6-14.002-8.65-18.551c-5.4-4.451-12.45-6.551-21.2-6.551
			c-22.7,0-34.3,13.896-34.3,36.998c0,22.35,10.95,36.898,33,36.898c18.1,0,29.7-9.35,31.2-25.846H306.2
			C304.6,198.824,299.35,203.875,290.15,203.875z"/>
		<path fill="#222222" d="M360,173.125l28.6-29.102h-18.55l-27.95,29.551v-29.551h-7.3c-4.15,0-7.4,3.6-7.35,7.701v64h14.65v-25.1
			c0-2.398,1.35-4.199,4.1-5.148c2.75-0.951,5.7,0.75,8.85,4.949l18.1,25.301h17.95L360,173.125z"/>
	</g>
	<g>
		<path fill="#33EC00" d="M640.772,152.676c0,7.6,6.049,13.65,13.648,13.65h16c-2.898,15.949-13.648,28.25-31.95,28.25
			c-24.35-1.75-36.25-17.35-36.05-46.4c0.2-29.05,11.9-43.449,34.7-43.449c12.901,0,22.05,5.301,27.3,16
			c3.15,4.449,7.047,6.801,11.9,6.801h16.75c-0.95-15-6.604-26.5-16.75-34.7c-11.101-7.8-24.552-11.7-39.95-11.7
			c-39.2-1.549-62.4,29.25-61.797,68.351c0,38.748,23,68.197,61,68.197c19.1,0,28.646-6.598,38-18.699l1.146,6.449
			c0.604,6.053,6.802,10.354,13.25,10.354h6.802v-71.5h-54V152.676z"/>
		<path fill="#33EC00" d="M764.72,211.326l-0.646-14.051c-0.302-4.648-0.95-8.199-2.2-10.648c-1.453-2.201-3.8-3.898-6.852-4.951
			c6.85-1.896,10.75-7.799,10.75-16.848c0-14.75-8.25-20.449-23.102-20.449h-27.2c-4.146,0-7.396,3.6-7.396,7.699v64h14.649v-27.85
			h15.604c8.646,0,10.198,2.75,10.75,11.398c0.097,7,0.347,11.098,0.646,12.148c0.101,1.449,0.4,2.949,1.15,4.301h16.148
			C765.67,215.127,764.823,213.525,764.72,211.326z M740.073,175.676h-17.302v-18.896h18.149c6.5,0,10,2.848,10.002,9.396
			C750.923,173.127,747.021,175.676,740.073,175.676z"/>
		<path fill="#33EC00" d="M774.421,152.029l-0.002,64.047h51.9v-13.199h-37.45v-18.551h20.349c5.153,0,7.703-2.449,7.604-7.4v-4.75
			h-27.95v-15.396h37.45v-12.451h-44.5C776.871,144.426,774.421,147.078,774.421,152.029z"/>
		<path fill="#33EC00" d="M833.921,152.029l-0.002,64.047h51.9v-13.199h-37.45v-18.551h20.349c5.153,0,7.703-2.449,7.604-7.4v-4.75
			h-27.95v-15.396h37.45v-12.451h-44.5C836.371,144.426,833.921,147.078,833.921,152.029z"/>
		<path fill="#33EC00" d="M937.668,144.328v49.25l-29.2-49.25h-7.896c-4.101,0-7.351,3.6-7.353,7.701v64h14.45v-49.25l29.2,49.25
			h15.249v-71.701H937.668z"/>
	</g>
	<g>
		<path fill="#33EC00" d="M569.785,7.167c-1.771,20.443-10.841,46.292-23.644,71.672c0.248,0.455,0.473,1.017,0.734,1.732
			c1.286,3.542-2.574,8.371-2.574,8.371s2.574,0.644,2.574,8.048c0,7.403-36.051,53.114-36.051,53.114
			c21.25-3.217,21.25,3.221,20.602,8.059c-0.643,4.838,0,15.119-26.073,16.727c-26.075,1.609-39.272,27.869-40.88,40.744
			c-1.61,12.875,3.612,20.1,3.612,20.1h-0.001c24.017-13.098,52.944-27.697,70.918-49.953C569.521,147.994,569.885,6,569.885,6
			L569.785,7.167z"/>
	</g>
	<g>
		
			<linearGradient id="SVGID_1_" gradientUnits="userSpaceOnUse" x1="429" y1="210.666" x2="229.3102" y2="-132.3423" gradientTransform="matrix(1 0 0 -1 177.4805 217.7012)">
			<stop  offset="0" style="stop-color:#000000"/>
			<stop  offset="0.0625" style="stop-color:#000000;stop-opacity:0.8743"/>
			<stop  offset="0.4975" style="stop-color:#000000;stop-opacity:0"/>
			<stop  offset="1" style="stop-color:#000000"/>
		</linearGradient>
		<path fill="url(#SVGID_1_)" d="M569.785,7.167c-1.771,20.443-10.841,46.292-23.644,71.672c0.248,0.455,0.473,1.017,0.734,1.733
			c1.286,3.541-2.574,8.37-2.574,8.37s2.574,0.644,2.574,8.047c0,7.404-36.051,53.114-36.051,53.114
			c21.25-3.217,21.25,3.221,20.602,8.059c-0.643,4.838,0,15.119-26.073,16.727c-26.075,1.609-39.272,27.869-40.88,40.744
			c-1.61,12.875,3.612,20.1,3.612,20.1h-0.001c24.017-13.098,52.944-27.697,70.918-49.953C569.521,147.994,569.885,6,569.885,6
			L569.785,7.167z"/>
	</g>
	<g>
		<path fill="#5FEE3E" d="M430.356,258.777c-0.003-1.906-0.005-4.494-0.006-7.918c-0.024-63.092,38.307-77.578,38.307-77.578
			l-10.946-0.324c-13.199-0.639-29.293,4.184-32.191-14.795c0.967-27.994,21.246-41.534,54.242-60.85
			c32.995-19.314,49.408-20.28,57.46-20.28c6.426,0,7.925,0.008,8.924,1.812c13.033-25.838,22.203-52.16,23.738-72.771
			c0,0-20.067,33.063-89.966,67.213c-69.896,34.152-96.056,102.094-49.55,190.018C430.366,263.303,430.305,261.646,430.356,258.777z
			"/>
		<path fill="#5FEE3E" d="M535.958,92.6c0,0-45.146,49.469-50.586,56.258c0,0-28.638,2.072-33.81-2.084
			C451.562,146.773,472.014,115.769,535.958,92.6z"/>
	</g>
	<g>
		
			<linearGradient id="SVGID_2_" gradientUnits="userSpaceOnUse" x1="429.5073" y1="269.3252" x2="135.029" y2="-129.3674" gradientTransform="matrix(1 0 0 -1 177.4805 217.7012)">
			<stop  offset="0" style="stop-color:#000000"/>
			<stop  offset="0.4975" style="stop-color:#000000;stop-opacity:0.1"/>
			<stop  offset="1" style="stop-color:#000000"/>
		</linearGradient>
		<path fill="url(#SVGID_2_)" d="M430.356,258.777c-0.003-1.906-0.005-4.494-0.006-7.918c-0.024-63.092,38.307-77.578,38.307-77.578
			l-10.946-0.324c-13.199-0.639-29.293,4.184-32.191-14.795c0.967-27.994,21.246-41.534,54.242-60.85
			c32.995-19.314,49.408-20.28,57.46-20.28c6.426,0,7.925,0.008,8.924,1.812c13.033-25.838,22.203-52.16,23.738-72.771
			c0,0-20.067,33.063-89.966,67.213c-69.896,34.152-96.056,102.094-49.55,190.018C430.366,263.303,430.305,261.646,430.356,258.777z
			"/>
		
			<linearGradient id="SVGID_3_" gradientUnits="userSpaceOnUse" x1="438.1133" y1="262.9805" x2="143.6212" y2="-135.7309" gradientTransform="matrix(1 0 0 -1 177.4805 217.7012)">
			<stop  offset="0" style="stop-color:#000000"/>
			<stop  offset="0.0197" style="stop-color:#000000;stop-opacity:0.9603"/>
			<stop  offset="0.4975" style="stop-color:#000000;stop-opacity:0"/>
			<stop  offset="1" style="stop-color:#000000"/>
		</linearGradient>
		<path fill="url(#SVGID_3_)" d="M535.958,92.6c0,0-45.146,49.469-50.586,56.258c0,0-28.638,2.072-33.81-2.084
			C451.562,146.773,472.014,115.769,535.958,92.6z"/>
	</g>
</g>
</svg>
