<?xml version="1.0" encoding="utf-8"?>
<!-- Generator: Adobe Illustrator 16.0.0, SVG Export Plug-In . SVG Version: 6.00 Build 0)  -->
<!DOCTYPE svg PUBLIC "-//W3C//DTD SVG 1.1//EN" "http://www.w3.org/Graphics/SVG/1.1/DTD/svg11.dtd">
<svg version="1.1" id="Layer_1" xmlns="http://www.w3.org/2000/svg" xmlns:xlink="http://www.w3.org/1999/xlink" x="0px" y="0px"
	 width="960px" height="268.5px" viewBox="0 0 960 268.5" enable-background="new 0 0 960 268.5" xml:space="preserve">
<g id="Check_Green">
	<g id="Layer_4" display="none">
		<polygon display="inline" fill="#002B7F" points="549.969,133.672 528.97,187.898 466.063,99.416 548.5,52.137 		"/>
		<polygon display="inline" fill="#CEBF0B" points="535.094,178.77 481.805,208.463 429,134.194 472.186,90.287 		"/>
		<polygon display="inline" fill="#EF3818" points="495.458,216.499 464.566,237.089 430.369,263.305 409,179.825 431.962,128.994 
					"/>
	</g>
	<g id="Layer_7">
		<g>
			<path fill="#222222" d="M66.442,105.014c12.85,0,21.6,4.85,26.1,14.4c2.5,5.25,6.8,8,12.65,8h16.35
				c-1.4-14.403-6.65-25.903-16-34.301c-9.9-8.202-22.95-12.102-39.15-12.102c-41.9,0-63.35,25.7-63.35,68.4
				c0,41.299,20.25,68.198,61,68.198c33.55,0,55-17.353,57.5-47.848h-26.3c-2.9,14.6-12.65,23.948-29.6,23.948
				c-24.75,0-35.45-18.353-35.45-44.25C30.192,122.765,41.292,105.014,66.442,105.014z"/>
			<path fill="#222222" d="M175.792,170.762h-29.45v-26.801h-7.5c-4.1,0-7.35,3.6-7.35,7.701v64h14.85v-31.75h29.45v31.75h14.85
				v-71.701h-14.85V170.762z"/>
			<path fill="#222222" d="M197.842,151.662v64.047h51.9V202.51h-37.45v-18.551h20.35c5.15,0,7.7-2.449,7.6-7.398v-4.75h-27.95
				v-15.396h37.45v-12.451h-44.5C200.292,144.059,197.842,146.711,197.842,151.662z"/>
			<path fill="#222222" d="M290.192,203.813c-13.4,0-19.2-9.896-19.2-23.945c0-14.449,6-24.053,19.6-24.053
				c7,0,11.7,2.65,14.15,7.803c1.35,2.801,3.7,4.301,6.85,4.301h8.85c-0.75-7.801-3.6-14.002-8.65-18.551
				c-5.4-4.451-12.45-6.553-21.2-6.553c-22.7,0-34.3,13.896-34.3,36.998c0,22.352,10.95,36.898,33,36.898
				c18.1,0,29.7-9.352,31.2-25.846h-14.25C304.642,198.762,299.392,203.813,290.192,203.813z"/>
			<path fill="#222222" d="M360.042,173.063l28.6-29.102h-18.55l-27.95,29.551v-29.551h-7.3c-4.15,0-7.4,3.6-7.35,7.701v64h14.65
				v-25.102c0-2.396,1.35-4.199,4.1-5.146c2.75-0.951,5.7,0.75,8.85,4.947l18.1,25.303h17.95L360.042,173.063z"/>
		</g>
		<g>
			<path fill="#33EC00" d="M640.813,152.613c0,7.6,6.052,13.65,13.648,13.65h16c-2.898,15.947-13.648,28.25-31.95,28.25
				c-24.35-1.75-36.25-17.352-36.05-46.4c0.2-29.05,11.9-43.449,34.7-43.449c12.901,0,22.05,5.301,27.3,16
				c3.15,4.449,7.047,6.801,11.9,6.801h16.75c-0.95-15-6.604-26.5-16.75-34.7c-11.104-7.8-24.555-11.7-39.95-11.7
				c-39.2-1.549-62.4,29.25-61.797,68.351c0,38.748,23,68.197,61,68.197c19.1,0,28.646-6.598,38-18.699l1.146,6.449
				c0.604,6.053,6.803,10.354,13.25,10.354h6.803v-71.5h-54V152.613L640.813,152.613z"/>
			<path fill="#33EC00" d="M764.762,211.264l-0.646-14.051c-0.303-4.648-0.95-8.199-2.2-10.648c-1.453-2.201-3.8-3.896-6.854-4.951
				c6.852-1.895,10.75-7.799,10.75-16.848c0-14.75-8.25-20.449-23.103-20.449h-27.2c-4.146,0-7.396,3.602-7.396,7.699v64h14.646
				v-27.85h15.604c8.646,0,10.197,2.75,10.75,11.396c0.097,7,0.347,11.1,0.646,12.146c0.104,1.449,0.4,2.949,1.15,4.303h16.146
				C765.712,215.064,764.865,213.463,764.762,211.264z M740.115,175.613h-17.303v-18.896h18.147c6.5,0,10,2.85,10.002,9.396
				C750.965,173.064,747.063,175.613,740.115,175.613z"/>
			<path fill="#33EC00" d="M774.463,151.967l-0.002,64.047h51.9v-13.199h-37.45v-18.551h20.349c5.153,0,7.703-2.449,7.604-7.4v-4.75
				h-27.95v-15.395h37.45v-12.451h-44.5C776.913,144.363,774.463,147.016,774.463,151.967z"/>
			<path fill="#33EC00" d="M833.963,151.967l-0.002,64.047h51.9v-13.199h-37.45v-18.551h20.349c5.153,0,7.703-2.449,7.604-7.4v-4.75
				h-27.95v-15.395h37.45v-12.451h-44.5C836.413,144.363,833.963,147.016,833.963,151.967z"/>
			<path fill="#33EC00" d="M937.71,144.266v49.25l-29.2-49.25h-7.896c-4.104,0-7.354,3.602-7.354,7.701v64h14.45v-49.25l29.2,49.25
				h15.249v-71.701H937.71L937.71,144.266z"/>
		</g>
	</g>
</g>
<g id="Frunza_1_">
	<g id="Frunza">
		<path fill="#5FEE3E" d="M570.066,5.634c0,0-17.328,27.432-68.362,55.852c-50.604,28.181-61.075,28.554-84.902,72.388
			c-13.136,24.166-17.341,71.483,13.749,128.992c-4.09-75.509,38.289-90.023,38.289-90.023s-17.532-0.136-26.699-0.136
			s-22.166-8-13.973-29.122c8.195-21.122,26.024-30.691,46.14-43.377c20.13-12.695,52.5-27.5,66.167-25.833
			s4.188,14.212,4.188,14.212s2.813-0.045,2.574,8.048c-0.24,8.093-36.053,53.114-36.053,53.114
			c24.543-3.46,20.957,5.126,20.457,9.46s-1.833,10-13.666,13.5s-22.834-0.667-37,12.833s-15.834,26.333-16.45,34.833
			c-0.615,8.5,3.922,15.005,3.922,15.005c22.657-12.444,52.843-26.214,75.02-55.942C565.642,149.71,570.158,30.895,570.066,5.634z"
			/>
		<path fill="#5FEE3E" d="M531.307,91.791c0,0-45.666,12.417-79.562,54.544c0,0,5.393,4.696,34.312,2.651L531.307,91.791z"/>
		
			<linearGradient id="SVGID_1_" gradientUnits="userSpaceOnUse" x1="456.3521" y1="384.4199" x2="265.2074" y2="541.1404" gradientTransform="matrix(1 0 0 1 118.3203 -325.6992)">
			<stop  offset="0" style="stop-color:#000000"/>
			<stop  offset="0.4778" style="stop-color:#000000;stop-opacity:0"/>
		</linearGradient>
		<path fill="url(#SVGID_1_)" d="M531.307,91.791c0,0-45.666,12.417-79.562,54.544c0,0,5.393,4.696,34.312,2.651L531.307,91.791z"/>
		
			<linearGradient id="SVGID_2_" gradientUnits="userSpaceOnUse" x1="490.2383" y1="273.8633" x2="218.084" y2="714.9926" gradientTransform="matrix(1 0 0 1 118.3203 -325.6992)">
			<stop  offset="0" style="stop-color:#000000"/>
			<stop  offset="0.4877" style="stop-color:#000000;stop-opacity:0"/>
			<stop  offset="1" style="stop-color:#000000"/>
		</linearGradient>
		<path fill="url(#SVGID_2_)" d="M570.066,5.634c0,0-17.328,27.432-68.362,55.852c-50.604,28.181-61.075,28.554-84.902,72.388
			c-13.136,24.166-17.341,71.483,13.749,128.992c-4.09-75.509,38.289-90.023,38.289-90.023s-17.532-0.136-26.699-0.136
			s-22.166-8-13.973-29.122c8.195-21.122,26.024-30.691,46.14-43.377c20.13-12.695,52.5-27.5,66.167-25.833
			s4.188,14.212,4.188,14.212s2.813-0.045,2.574,8.048c-0.24,8.093-36.053,53.114-36.053,53.114
			c24.543-3.46,20.957,5.126,20.457,9.46s-1.833,10-13.666,13.5s-22.834-0.667-37,12.833s-15.834,26.333-16.45,34.833
			c-0.615,8.5,3.922,15.005,3.922,15.005c22.657-12.444,52.843-26.214,75.02-55.942C565.642,149.71,570.158,30.895,570.066,5.634z"
			/>
		<path fill="#33EC00" d="M543.464,179.438c22.177-29.729,26.694-148.542,26.604-173.801c0,0-0.013,0.017-0.016,0.021
			c-4.074,17.339-15.097,50.732-29.408,68.745c13.406,1.753,4.018,14.186,4.018,14.186s2.813-0.045,2.574,8.048
			c-0.24,8.093-36.053,53.114-36.053,53.114c24.543-3.46,20.957,5.126,20.457,9.46s-1.833,10-13.666,13.5s-22.834-0.667-37,12.833
			s-15.834,26.333-16.449,34.833c-0.616,8.5,3.921,15.005,3.921,15.005C491.104,222.934,521.287,209.165,543.464,179.438z"/>
		
			<linearGradient id="SVGID_3_" gradientUnits="userSpaceOnUse" x1="496.334" y1="340.3955" x2="255.1657" y2="664.6816" gradientTransform="matrix(1 0 0 1 118.3203 -325.6992)">
			<stop  offset="0" style="stop-color:#000000;stop-opacity:0.2"/>
			<stop  offset="0.4877" style="stop-color:#000000;stop-opacity:0"/>
			<stop  offset="0.9373" style="stop-color:#000000;stop-opacity:0.8777"/>
			<stop  offset="1" style="stop-color:#000000"/>
		</linearGradient>
		<path fill="url(#SVGID_3_)" d="M543.464,179.438c22.177-29.729,26.694-148.542,26.604-173.801c0,0-0.013,0.017-0.016,0.021
			c-4.074,17.339-15.097,50.732-29.408,68.745c13.406,1.753,4.018,14.186,4.018,14.186s2.813-0.045,2.574,8.048
			c-0.24,8.093-36.053,53.114-36.053,53.114c24.543-3.46,20.957,5.126,20.457,9.46s-1.833,10-13.666,13.5s-22.834-0.667-37,12.833
			s-15.834,26.333-16.449,34.833c-0.616,8.5,3.921,15.005,3.921,15.005C491.104,222.934,521.287,209.165,543.464,179.438z"/>
	</g>
</g>
<g id="De_tinut" display="none">
	<path id="frunza__x21_" display="inline" fill="#43FC06" d="M416.661,134.25c-13.136,24.166-17.341,71.484,13.749,128.992
		c0,0,15.233-15.042,37.894-27.487c22.659-12.444,52.845-26.214,75.021-55.942c22.177-29.728,26.692-148.542,26.602-173.801
		c0,0-17.328,27.432-68.36,55.852C450.959,90.042,440.489,90.416,416.661,134.25z"/>
	
		<linearGradient id="_x34___x21__1_" gradientUnits="userSpaceOnUse" x1="265.3237" y1="643.1475" x2="420.1823" y2="377.3993" gradientTransform="matrix(1 0 0 1 118.3203 -325.6992)">
		<stop  offset="0" style="stop-color:#000000"/>
		<stop  offset="0.4975" style="stop-color:#000000;stop-opacity:0.1"/>
		<stop  offset="1" style="stop-color:#000000;stop-opacity:0.8"/>
	</linearGradient>
	<path id="_x34___x21_" display="inline" fill="url(#_x34___x21__1_)" d="M544.52,88.962c0,0,9.481-12.546-4.186-14.212
		s-46.037,13.138-66.167,25.833c-20.115,12.686-37.945,22.255-46.139,43.377c-8.194,21.122,4.805,29.122,13.972,29.122
		s26.699,0.136,26.699,0.136s-42.379,14.517-38.289,90.023l14.423,0.841l29.333-23.833l-5.863-4.495c0,0-4.537-6.505-3.92-15.005
		s2.285-21.333,16.451-34.833s25.167-9.333,37-12.833s13.166-9.166,13.666-13.5s4.086-12.92-20.457-9.46
		c0,0,35.813-45.021,36.051-53.114C547.334,88.916,544.52,88.962,544.52,88.962z M485.414,148.795
		c-28.919,2.045-33.812-2.084-33.812-2.084C485.5,104.583,536,92.538,536,92.538L485.414,148.795z"/>
</g>
</svg>
