<?xml version="1.0" encoding="utf-8"?>
<!-- Generator: Adobe Illustrator 22.0.1, SVG Export Plug-In . SVG Version: 6.00 Build 0)  -->
<svg version="1.1" id="Layer_1" xmlns="http://www.w3.org/2000/svg" xmlns:xlink="http://www.w3.org/1999/xlink" x="0px" y="0px"
	 viewBox="0 0 196 268.5" style="enable-background:new 0 0 196 268.5;" xml:space="preserve">
<style type="text/css">
	.st0{fill:#5FEE3E;}
	.st1{fill:url(#SVGID_1_);}
	.st2{fill:url(#SVGID_2_);}
	.st3{fill:#33EC00;}
	.st4{fill:url(#SVGID_3_);}
	.st5{display:none;}
	.st6{display:inline;fill:#43FC06;}
	.st7{display:inline;fill:url(#_x34___x21__1_);}
</style>
<g id="Frunza_1_">
	<g id="Frunza">
		<path class="st0" d="M174.1,5.6c0,0-17.3,27.4-68.4,55.9C55.1,89.7,44.6,90,20.8,133.9C7.7,158,3.5,205.4,34.6,262.9
			c-4.1-75.5,38.3-90,38.3-90s-17.5-0.1-26.7-0.1s-22.2-8-14-29.1c8.2-21.1,26-30.7,46.1-43.4c20.1-12.7,52.5-27.5,66.2-25.8
			s4.2,14.2,4.2,14.2s2.8,0,2.6,8c-0.2,8.1-36.1,53.1-36.1,53.1c24.5-3.5,21,5.1,20.5,9.5s-1.8,10-13.7,13.5s-22.8-0.7-37,12.8
			s-15.8,26.3-16.5,34.8c-0.6,8.5,3.9,15,3.9,15c22.7-12.4,52.8-26.2,75-55.9C169.6,149.7,174.2,30.9,174.1,5.6z"/>
		<path class="st0" d="M135.3,91.8c0,0-45.7,12.4-79.6,54.5c0,0,5.4,4.7,34.3,2.7L135.3,91.8z"/>
		
			<linearGradient id="SVGID_1_" gradientUnits="userSpaceOnUse" x1="60.3526" y1="-114.4205" x2="-130.7921" y2="-271.141" gradientTransform="matrix(1 0 0 -1 118.3203 -55.6992)">
			<stop  offset="0" style="stop-color:#000000"/>
			<stop  offset="0.4778" style="stop-color:#000000;stop-opacity:0"/>
		</linearGradient>
		<path class="st1" d="M135.3,91.8c0,0-45.7,12.4-79.6,54.5c0,0,5.4,4.7,34.3,2.7L135.3,91.8z"/>
		
			<linearGradient id="SVGID_2_" gradientUnits="userSpaceOnUse" x1="94.2392" y1="-3.8638" x2="-177.9151" y2="-444.9932" gradientTransform="matrix(1 0 0 -1 118.3203 -55.6992)">
			<stop  offset="0" style="stop-color:#000000"/>
			<stop  offset="0.4877" style="stop-color:#000000;stop-opacity:0"/>
			<stop  offset="1" style="stop-color:#000000"/>
		</linearGradient>
		<path class="st2" d="M174.1,5.6c0,0-17.3,27.4-68.4,55.9C55.1,89.7,44.6,90,20.8,133.9C7.7,158,3.5,205.4,34.6,262.9
			c-4.1-75.5,38.3-90,38.3-90s-17.5-0.1-26.7-0.1s-22.2-8-14-29.1c8.2-21.1,26-30.7,46.1-43.4c20.1-12.7,52.5-27.5,66.2-25.8
			s4.2,14.2,4.2,14.2s2.8,0,2.6,8c-0.2,8.1-36.1,53.1-36.1,53.1c24.5-3.5,21,5.1,20.5,9.5s-1.8,10-13.7,13.5s-22.8-0.7-37,12.8
			s-15.8,26.3-16.5,34.8c-0.6,8.5,3.9,15,3.9,15c22.7-12.4,52.8-26.2,75-55.9C169.6,149.7,174.2,30.9,174.1,5.6z"/>
		<path class="st3" d="M147.5,179.4c22.2-29.7,26.7-148.5,26.6-173.8c0,0,0,0,0,0C170,23,159,56.4,144.6,74.4
			c13.4,1.8,4,14.2,4,14.2s2.8,0,2.6,8c-0.2,8.1-36.1,53.1-36.1,53.1c24.5-3.5,21,5.1,20.5,9.5s-1.8,10-13.7,13.5s-22.8-0.7-37,12.8
			s-15.8,26.3-16.4,34.8c-0.6,8.5,3.9,15,3.9,15C95.1,222.9,125.3,209.2,147.5,179.4z"/>
		
			<linearGradient id="SVGID_3_" gradientUnits="userSpaceOnUse" x1="100.3348" y1="-70.3961" x2="-140.8335" y2="-394.6821" gradientTransform="matrix(1 0 0 -1 118.3203 -55.6992)">
			<stop  offset="0" style="stop-color:#000000;stop-opacity:0.2"/>
			<stop  offset="0.4877" style="stop-color:#000000;stop-opacity:0"/>
			<stop  offset="0.9373" style="stop-color:#000000;stop-opacity:0.8777"/>
			<stop  offset="1" style="stop-color:#000000"/>
		</linearGradient>
		<path class="st4" d="M147.5,179.4c22.2-29.7,26.7-148.5,26.6-173.8c0,0,0,0,0,0C170,23,159,56.4,144.6,74.4
			c13.4,1.8,4,14.2,4,14.2s2.8,0,2.6,8c-0.2,8.1-36.1,53.1-36.1,53.1c24.5-3.5,21,5.1,20.5,9.5s-1.8,10-13.7,13.5s-22.8-0.7-37,12.8
			s-15.8,26.3-16.4,34.8c-0.6,8.5,3.9,15,3.9,15C95.1,222.9,125.3,209.2,147.5,179.4z"/>
	</g>
</g>
<g id="De_tinut" class="st5">
	<path id="frunza__x21_" class="st6" d="M20.7,134.3c-13.1,24.2-17.3,71.5,13.7,129c0,0,15.2-15,37.9-27.5
		c22.7-12.4,52.8-26.2,75-55.9C169.5,150.1,174,31.3,173.9,6c0,0-17.3,27.4-68.4,55.9C55,90,44.5,90.4,20.7,134.3z"/>
	
		<linearGradient id="_x34___x21__1_" gradientUnits="userSpaceOnUse" x1="-130.6774" y1="-373.1469" x2="24.1812" y2="-107.3986" gradientTransform="matrix(1 0 0 -1 118.3203 -55.6992)">
		<stop  offset="0" style="stop-color:#000000"/>
		<stop  offset="0.4975" style="stop-color:#000000;stop-opacity:0.1"/>
		<stop  offset="1" style="stop-color:#000000;stop-opacity:0.8"/>
	</linearGradient>
	<path id="_x34___x21_" class="st7" d="M148.5,89c0,0,9.5-12.5-4.2-14.2s-46,13.1-66.2,25.8C58.1,113.3,40.2,122.8,32,144
		s4.8,29.1,14,29.1s26.7,0.1,26.7,0.1s-42.4,14.5-38.3,90l14.4,0.8l29.3-23.8l-5.9-4.5c0,0-4.5-6.5-3.9-15s2.3-21.3,16.5-34.8
		s25.2-9.3,37-12.8s13.2-9.2,13.7-13.5s4.1-12.9-20.5-9.5c0,0,35.8-45,36.1-53.1C151.3,88.9,148.5,89,148.5,89z M89.4,148.8
		c-28.9,2-33.8-2.1-33.8-2.1C89.5,104.6,140,92.5,140,92.5L89.4,148.8z"/>
</g>
</svg>
