<?xml version="1.0" encoding="utf-8"?>
<!-- Generator: Adobe Illustrator 22.0.1, SVG Export Plug-In . SVG Version: 6.00 Build 0)  -->
<svg version="1.1" id="Layer_1" xmlns="http://www.w3.org/2000/svg" xmlns:xlink="http://www.w3.org/1999/xlink" x="0px" y="0px"
	 viewBox="0 0 1430.2 346.3" style="enable-background:new 0 0 1430.2 346.3;" xml:space="preserve">
<style type="text/css">
	.st0{fill:#05FC9D;}
	.st1{display:none;}
	.st2{display:inline;fill:#002B7F;}
	.st3{display:inline;fill:#CEBF0B;}
	.st4{display:inline;fill:#EF3818;}
	.st5{fill:#222222;}
	.st6{fill:#33EC00;}
	.st7{fill:#5FEE3E;}
	.st8{fill:url(#SVGID_1_);}
	.st9{fill:url(#SVGID_2_);}
	.st10{fill:url(#SVGID_3_);}
</style>
<g>
	<polygon id="Bucata_BG" class="st0" points="629.6,0 1199.7,0 1080.1,346.3 484.4,346.3 	"/>
	<g id="LOGO">
		<g id="Check_Green">
			<g id="Layer_4" class="st1">
				<polygon class="st2" points="696.8,138.8 675.8,192.9 613.1,104.6 695.3,57.5 				"/>
				<polygon class="st3" points="681.9,183.8 628.8,213.4 576.1,139.3 619.2,95.4 				"/>
				<polygon class="st4" points="642.4,221.4 611.6,241.9 577.4,268.1 556.1,184.8 579.1,134.2 				"/>
			</g>
			<g id="Layer_7">
				<g>
					<path class="st5" d="M214.4,110.2c13.7,0,23,4.8,27.8,14.4c2.6,5.2,7.2,8,13.5,8h17.4c-1.5-14.4-7.1-25.8-17-34.2
						c-10.6-8.2-24.5-12.1-41.8-12.1c-44.7,0-67.6,25.6-67.6,68.2c0,41.2,21.6,68,65.1,68c35.8,0,58.7-17.3,61.3-47.7h-28.1
						c-3.1,14.6-13.5,23.9-31.6,23.9c-26.4,0-37.8-18.3-37.8-44.2C175.8,127.9,187.6,110.2,214.4,110.2z"/>
					<path class="st5" d="M331.1,175.8h-31.4v-26.7h-8c-4.4,0-7.8,3.6-7.8,7.7v63.8h15.8v-31.7h31.4v31.7h15.8v-71.5h-15.8V175.8z"
						/>
					<path class="st5" d="M354.6,156.7v63.9H410v-13.2h-40V189h21.7c5.5,0,8.2-2.5,8.1-7.4v-4.7h-29.8v-15.4h40v-12.4h-47.4
						C357.2,149.1,354.6,151.8,354.6,156.7z"/>
					<path class="st5" d="M453.1,208.8c-14.3,0-20.5-9.9-20.5-23.9c0-14.4,6.4-24,20.9-24c7.5,0,12.5,2.6,15.1,7.8
						c1.4,2.8,3.9,4.3,7.3,4.3h9.4c-0.8-7.8-3.8-13.9-9.2-18.5c-5.7-4.5-13.3-6.5-22.6-6.5c-24.2,0-36.6,13.9-36.6,36.9
						c0,22.3,11.7,36.8,35.2,36.8c19.3,0,31.7-9.4,33.3-25.8h-15.2C468.6,203.7,462.9,208.8,453.1,208.8z"/>
					<path class="st5" d="M527.6,178.1l30.5-29h-19.8l-29.8,29.5v-29.5h-7.8c-4.5,0-7.9,3.6-7.8,7.7v63.8h15.6v-25
						c0-2.4,1.4-4.2,4.4-5.2c2.9-1,6.1,0.8,9.4,4.9l19.4,25.3h19.2L527.6,178.1z"/>
				</g>
				<g>
					<path class="st6" d="M771.8,157.7c0,7.6,6.4,13.6,14.5,13.6h17c-3.1,15.9-14.5,28.2-33.9,28.2c-25.8-1.7-38.4-17.3-38.2-46.3
						s12.6-43.4,36.8-43.4c13.7,0,23.4,5.3,28.9,15.9c3.4,4.5,7.5,6.8,12.6,6.8h17.8c-1-15-7-26.5-17.8-34.6
						c-11.7-7.8-26-11.7-42.3-11.7c-41.6-1.5-66.2,29.2-65.5,68.2c0,38.7,24.4,68,64.7,68c20.3,0,30.3-6.6,40.3-18.7l1.2,6.5
						c0.6,6.1,7.2,10.3,14.1,10.3h7.2v-71.3h-57.3L771.8,157.7L771.8,157.7z"/>
					<path class="st6" d="M903.2,216.2l-0.7-14c-0.3-4.6-1-8.2-2.3-10.7c-1.5-2.2-4-3.9-7.3-5c7.3-1.9,11.4-7.8,11.4-16.8
						c0-14.7-8.7-20.4-24.5-20.4h-28.9c-4.4,0-7.8,3.6-7.8,7.7v63.8h15.5v-27.8h16.5c9.2,0,10.8,2.8,11.4,11.4
						c0.1,7,0.4,11.1,0.7,12.1c0.1,1.4,0.5,3,1.2,4.3h17.1C904.2,220,903.3,218.4,903.2,216.2z M877,180.6h-18.3v-18.8h19.2
						c6.9,0,10.6,2.8,10.6,9.4C888.5,178.1,884.4,180.6,877,180.6z"/>
					<path class="st6" d="M913.4,157.1V221h55v-13.2h-39.7v-18.5h21.6c5.5,0,8.1-2.5,8.1-7.4v-4.7h-29.6v-15.4h39.7v-12.4h-47.2
						C916.1,149.5,913.4,152.1,913.4,157.1z"/>
					<path class="st6" d="M976.5,157.1V221h55v-13.2h-39.7v-18.5h21.6c5.5,0,8.1-2.5,8.1-7.4v-4.7h-29.6v-15.4h39.7v-12.4h-47.2
						C979.1,149.5,976.5,152.1,976.5,157.1z"/>
					<path class="st6" d="M1086.5,149.4v49.1l-30.9-49.1h-8.4c-4.3,0-7.8,3.6-7.8,7.7v63.8h15.3v-49.1l30.9,49.1h16.1v-71.5H1086.5
						L1086.5,149.4z"/>
				</g>
			</g>
		</g>
		<g id="Frunza_1_">
			<g id="Frunza">
				<path class="st7" d="M696.5,79.4c0,0-14.1,20.8-55.5,42.1c-41.1,21.2-49.6,21.5-69,54.7c-10.7,18.3-14.3,54.2,10.8,97.9
					c-3.1-57.3,31.2-68.2,31.2-68.2s-14.2-0.1-21.6-0.2c-7.4,0-17.9-6.1-11.2-22.1s21.2-23.2,37.5-32.8
					c16.3-9.6,42.6-20.7,53.6-19.4c11,1.3,3.4,10.8,3.4,10.8s2.3,0,2.1,6.1s-29.4,40.2-29.4,40.2c19.9-2.6,17,3.9,16.5,7.2
					c-0.4,3.3-1.5,7.6-11.1,10.2c-9.6,2.6-18.5-0.6-30,9.6c-11.5,10.2-12.9,19.9-13.4,26.4c-0.5,6.5,3.2,11.4,3.2,11.4
					c18.4-9.4,42.9-19.8,60.9-42.2C692.5,188.8,696.5,98.6,696.5,79.4z"/>
				<path class="st7" d="M664.8,144.7c0,0-37.1,9.3-64.6,41.2c0,0,4.3,3.6,27.8,2.1L664.8,144.7z"/>
				
					<linearGradient id="SVGID_1_" gradientUnits="userSpaceOnUse" x1="585.9597" y1="-105.2345" x2="440.5823" y2="-224.43" gradientTransform="matrix(1.065 3.964543e-03 3.714482e-03 -0.9978 76.3865 12.4063)">
					<stop  offset="0" style="stop-color:#000000"/>
					<stop  offset="0.4778" style="stop-color:#000000;stop-opacity:0"/>
				</linearGradient>
				<path class="st8" d="M664.8,144.7c0,0-37.1,9.3-64.6,41.2c0,0,4.3,3.6,27.8,2.1L664.8,144.7z"/>
				
					<linearGradient id="SVGID_2_" gradientUnits="userSpaceOnUse" x1="611.7003" y1="-21.1215" x2="404.7102" y2="-356.6275" gradientTransform="matrix(1.065 3.964543e-03 3.714482e-03 -0.9978 76.3865 12.4063)">
					<stop  offset="0" style="stop-color:#000000"/>
					<stop  offset="0.4877" style="stop-color:#000000;stop-opacity:0"/>
					<stop  offset="1" style="stop-color:#000000"/>
				</linearGradient>
				<path class="st9" d="M696.5,79.4c0,0-14.1,20.8-55.5,42.1c-41.1,21.2-49.6,21.5-69,54.7c-10.7,18.3-14.3,54.2,10.8,97.9
					c-3.1-57.3,31.2-68.2,31.2-68.2s-14.2-0.1-21.6-0.2c-7.4,0-17.9-6.1-11.2-22.1s21.2-23.2,37.5-32.8
					c16.3-9.6,42.6-20.7,53.6-19.4c11,1.3,3.4,10.8,3.4,10.8s2.3,0,2.1,6.1s-29.4,40.2-29.4,40.2c19.9-2.6,17,3.9,16.5,7.2
					c-0.4,3.3-1.5,7.6-11.1,10.2c-9.6,2.6-18.5-0.6-30,9.6c-11.5,10.2-12.9,19.9-13.4,26.4c-0.5,6.5,3.2,11.4,3.2,11.4
					c18.4-9.4,42.9-19.8,60.9-42.2C692.5,188.8,696.5,98.6,696.5,79.4z"/>
				<path class="st6" d="M674.4,211.2c18.1-22.5,22-112.6,22-131.8l0,0c-3.4,13.2-12.4,38.5-24,52.1c10.8,1.4,3.2,10.8,3.2,10.8
					s2.3,0,2.1,6.1c-0.2,6.1-29.4,40.2-29.4,40.2c19.9-2.6,17,3.9,16.5,7.2c-0.4,3.3-1.5,7.6-11.1,10.2c-9.6,2.6-18.5-0.6-30,9.6
					c-11.5,10.2-12.9,19.9-13.4,26.4s3.2,11.4,3.2,11.4C631.9,244.1,656.4,233.8,674.4,211.2z"/>
				
					<linearGradient id="SVGID_3_" gradientUnits="userSpaceOnUse" x1="616.3368" y1="-71.7213" x2="432.9134" y2="-318.3607" gradientTransform="matrix(1.065 3.964543e-03 3.714482e-03 -0.9978 76.3865 12.4063)">
					<stop  offset="0" style="stop-color:#000000;stop-opacity:0.2"/>
					<stop  offset="0.4877" style="stop-color:#000000;stop-opacity:0"/>
					<stop  offset="0.9373" style="stop-color:#000000;stop-opacity:0.8777"/>
					<stop  offset="1" style="stop-color:#000000"/>
				</linearGradient>
				<path class="st10" d="M674.4,211.2c18.1-22.5,22-112.6,22-131.8l0,0c-3.4,13.2-12.4,38.5-24,52.1c10.8,1.4,3.2,10.8,3.2,10.8
					s2.3,0,2.1,6.1c-0.2,6.1-29.4,40.2-29.4,40.2c19.9-2.6,17,3.9,16.5,7.2c-0.4,3.3-1.5,7.6-11.1,10.2c-9.6,2.6-18.5-0.6-30,9.6
					c-11.5,10.2-12.9,19.9-13.4,26.4s3.2,11.4,3.2,11.4C631.9,244.1,656.4,233.8,674.4,211.2z"/>
			</g>
		</g>
	</g>
</g>
</svg>
