<?xml version="1.0" encoding="utf-8"?>
<!-- Generator: Adobe Illustrator 22.0.1, SVG Export Plug-In . SVG Version: 6.00 Build 0)  -->
<svg version="1.1" id="Layer_1" xmlns="http://www.w3.org/2000/svg" xmlns:xlink="http://www.w3.org/1999/xlink" x="0px" y="0px"
	 viewBox="0 0 1103.6 695.1" style="enable-background:new 0 0 1103.6 695.1;" xml:space="preserve">
<style type="text/css">
	.st0{fill:#707070;}
</style>
<g>
	<path class="st0" d="M785.1,543.9l-74.1-7.3V300.9c0-0.3-0.2-0.5-0.5-0.5h-45.3c-0.3,0-0.5,0.2-0.5,0.5v231.1l-128.7-12.7V300.9
		c0-0.3-0.2-0.5-0.5-0.5h-45.3c-0.3,0-0.5,0.2-0.5,0.5v213.9l-139-13.7V300.9c0-0.3-0.2-0.5-0.5-0.5h-45.3c-0.3,0-0.5,0.2-0.5,0.5
		v195.7l-76.2-7.5c-1.4-0.1-2.9,0.3-3.9,1.3c-1,0.9-1.6,2.4-1.6,3.8V684c0,2.9,2.3,5.1,5.1,5.1h556.9c2.9,0,5.1-2.3,5.1-5.1V549
		C789.7,546.4,787.7,544.2,785.1,543.9z M779.4,678.9H232.7V500l546.6,53.7V678.9z"/>
	<rect x="247.2" y="529.9" class="st0" width="32.9" height="29.1"/>
	<rect x="298.6" y="529.9" class="st0" width="32.9" height="29.1"/>
	<rect x="298.6" y="575.5" class="st0" width="32.9" height="29.1"/>
	<rect x="350.1" y="575.5" class="st0" width="32.9" height="29.1"/>
	<rect x="247.2" y="621.1" class="st0" width="32.9" height="29.1"/>
	<rect x="298.6" y="621.1" class="st0" width="32.9" height="29.1"/>
	<rect x="350.1" y="621.1" class="st0" width="32.9" height="29.1"/>
	<path class="st0" d="M879.3,84.3c0-33.6-15.3-75.2-43.2-75.2c-6.4,0-12.8,2.2-18.9,5.9c-5-3.7-10.7-5.9-17.1-5.9
		c-21.8,0-44.9,25.6-53.7,52.8c-5.6-3.4-11.9-5.4-19.4-5.4c-6.1,0-12.1,1.3-18.1,3.7c-4.6-28.2-19-55.7-41.6-55.7
		c-6.4,0-12.8,2.2-18.9,5.9c-5-3.7-10.7-5.9-17.1-5.9c-21.8,0-44.9,25.6-53.7,52.8c-5.6-3.4-11.9-5.4-19.4-5.4
		c-19.7,0-40.3,14.3-50.7,30.9c-2-32-17.1-68.3-43-68.3c-6.4,0-12.8,2.2-18.9,5.9c-5-3.7-10.7-5.9-17.1-5.9
		c-21.8,0-44.9,25.6-53.7,52.8c-5.6-3.4-11.9-5.4-19.4-5.4c-27.9,0-57.7,28.8-57.7,52c0,0.4,0,0.7,0,1.1c-1.3-0.1-2.7-0.2-4.1-0.2
		c-27.9,0-57.7,28.8-57.7,52c0,13.4,5.1,28.1,14.9,38.1c-9,9.5-14.9,20.9-14.9,31.2c0,23.2,15.3,50.1,43.2,50.1
		c10.9,0,22.1-4.1,31.7-10.6c7.3,9,17.7,15.1,31.1,15.1c24.4,0,50.1-20.6,56.3-41.3c3.3,1.3,6.9,2.1,10.6,2.1
		c21.6,0,44.5-23.6,53.5-49.8c5.6,3.2,12.1,5.1,19.6,5.1c7.9,0,16.1-2.2,23.6-5.9c1.4,2.1,3.1,4,4.8,5.8c-5.5,7.7-8.9,16.1-8.9,23.9
		c0,23.2,15.3,50.1,43.2,50.1c24.4,0,50.1-20.6,56.3-41.3c2.4,0.9,4.9,1.6,7.6,1.9c3.9,20,18.5,39.4,42.2,39.4
		c10.9,0,22.1-4.1,31.7-10.6c7.3,9,17.7,15.1,31.1,15.1c24.4,0,50.1-20.6,56.3-41.3c3.3,1.3,6.9,2.1,10.6,2.1
		c27.9,0,57.7-39,57.7-72.6c0-6.6-0.6-13.4-1.8-20.3C859.1,143.3,879.3,111.9,879.3,84.3z M550.7,159.4c4.9,5.3,12,7.8,21.2,7.8
		c9.9,0,19.6-3,28.8-9l9.2,18.9c-4.2,3.4-9.9,6.2-16.9,8.1c-7,2-14.2,3-21.7,3c-11.8,0-22.1-2.2-31-6.5
		c-8.9-4.2-15.6-10.4-20.4-18.2c-4.7-7.8-7.1-17-7.1-27.3c0-10.2,2.4-19.3,7.1-27.1c4.7-7.8,11.5-13.9,20.4-18.2
		c8.8-4.3,19.1-6.5,31-6.5c7.5,0,14.7,1,21.7,3c7,2.1,12.6,4.7,16.9,8.1l-9.2,18.9c-9.3-6-18.8-9-28.8-9c-9.2,0-16.2,2.6-21.2,7.6
		c-4.9,5.1-7.4,12.9-7.4,23C543.3,146.4,545.8,154.1,550.7,159.4z M727.7,163.9c-4.5,7.8-11.1,13.9-19.8,18.1
		c-8.5,4.2-18.7,6.3-30.4,6.3c-11.6,0-21.8-2.1-30.5-6.3s-15.3-10.3-20-18.1c-4.6-7.9-7-17.1-7-27.6s2.4-19.7,7.1-27.4
		c4.7-7.8,11.3-13.8,20-18c8.5-4.2,18.7-6.3,30.4-6.3c11.6,0,21.7,2.1,30.4,6.3c8.5,4.2,15.2,10.2,19.8,18
		c4.6,7.7,6.9,16.9,6.9,27.4C734.6,146.8,732.3,156.1,727.7,163.9z M786.5,230.9h-45.2v-4.1l25.5-25.2c3.6-3.7,6.2-7,7.8-9.8
		c1.5-2.9,2.4-5.7,2.4-8.4c0-3.8-1.2-6.7-3.7-8.8c-2.5-2.1-6-3.1-10.5-3.1c-7.1,0-14,2.6-20.7,7.7l-2.6-4.3
		c2.9-2.4,6.4-4.4,10.6-5.9c4.2-1.5,8.4-2.3,12.7-2.3c6.4,0,11.3,1.4,15,4.4c3.6,3,5.5,7,5.5,12c0,3.6-0.9,7.1-2.9,10.6
		c-1.9,3.5-4.9,7.3-9.3,11.5l-21.5,20.9h36.9V230.9z"/>
	<path class="st0" d="M677.5,104.9c-8.5,0-15.2,2.6-20.1,7.9c-4.8,5.4-7.2,13.2-7.2,23.5c0,10.4,2.4,18.3,7.2,23.7
		c4.8,5.4,11.5,8,20.1,8c8.6,0,15.3-2.8,20.2-8.1c4.8-5.4,7.3-13.2,7.3-23.6c0-10.2-2.5-18-7.3-23.4
		C692.7,107.6,686,104.9,677.5,104.9z"/>
</g>
</svg>
