<?xml version="1.0" encoding="utf-8"?>
<!-- Generator: Adobe Illustrator 22.0.1, SVG Export Plug-In . SVG Version: 6.00 Build 0)  -->
<svg version="1.1" id="Layer_1" xmlns="http://www.w3.org/2000/svg" xmlns:xlink="http://www.w3.org/1999/xlink" x="0px" y="0px"
	 viewBox="0 0 1087.2 683.7" style="enable-background:new 0 0 1087.2 683.7;" xml:space="preserve">
<style type="text/css">
	.st0{fill:#003340;}
</style>
<path class="st0" d="M677.9,668.6l-10.9-10.9c-6-6-6-15.7,0-21.7l312.9-312.9c6-6,15.7-6,21.7,0l10.9,10.9c6,6,6,15.7,0,21.7
	L699.6,668.6C693.6,674.6,683.9,674.6,677.9,668.6z"/>
<path class="st0" d="M1012.5,355.8l-10.9,10.9c-6,6-15.7,6-21.7,0L667.1,53.8c-6-6-6-15.7,0-21.7l10.9-10.9c6-6,15.7-6,21.7,0
	l312.9,312.9C1018.4,340,1018.4,349.8,1012.5,355.8z"/>
<path class="st0" d="M1009.2,336.9l0.2,15.3c0.1,8.4-13.5,15.6-30.4,15.8L95.3,382.5c-16.9,0.3-17.8-6.4-17.9-14.9l-0.2-15.3
	c-0.1-8.4,0.6-15.6,17.4-15.8L978.3,322C995.1,321.8,1009.1,328.4,1009.2,336.9z"/>
</svg>
