<?xml version="1.0" encoding="utf-8"?>
<!-- Generator: Adobe Illustrator 22.0.1, SVG Export Plug-In . SVG Version: 6.00 Build 0)  -->
<svg version="1.1" id="Layer_1" xmlns="http://www.w3.org/2000/svg" xmlns:xlink="http://www.w3.org/1999/xlink" x="0px" y="0px"
	 viewBox="0 0 665.2 551.8" style="enable-background:new 0 0 665.2 551.8;" xml:space="preserve">
<style type="text/css">
	.st0{fill:#003340;}
</style>
<path class="st0" d="M263.2,513.7c-11.9,0-23.1-4.6-31.7-13l-192.9-193c-12.5-12.4-16.6-31.1-10.3-47.7l0.4-1.1l0.4-0.8
	c2.9-6.6,7.3-12.5,12.8-16.9L231.5,51.4c8.3-8.4,19.8-13.2,31.7-13.2c11.9,0,23.1,4.6,31.6,13.1C303.2,59.6,308,71.1,308,83
	c0,11.9-4.7,23.2-13.2,31.6L178.6,231h416.7c24.7,0,44.7,20,44.8,44.6c0.1,11.9-4.4,23.1-12.7,31.6c-8.3,8.5-20,13.4-32,13.4H178.6
	l116.2,116.2c8.4,8.3,13.2,19.8,13.2,31.7c0,11.6-4.4,22.6-12.5,31.1C287.1,508.7,275.7,513.7,263.2,513.7z"/>
<path class="st0" d="M595.3,251h-465l150.4-150.5c4.7-4.7,7.3-11,7.3-17.5c0-6.6-2.6-12.9-7.3-17.5c-4.7-4.7-11-7.3-17.5-7.3
	s-12.9,2.6-17.5,7.3L55.1,256.1c-3.3,2.5-6,5.9-7.8,10l-0.1,0.3l-0.1,0.3c-3.6,9.3-1.4,19.9,5.6,26.8l192.8,192.9
	c4.8,4.7,11,7.3,17.7,7.3c6.8,0,13.1-2.7,17.7-7.7c4.5-4.7,7.1-10.8,7.1-17.4s-2.6-12.9-7.3-17.5L130.3,300.7h465.1
	c6.6,0,13-2.6,17.7-7.4s7.1-11,7-17.5C620.1,262.1,609,251,595.3,251z"/>
</svg>
