<?xml version="1.0" encoding="utf-8"?>
<!-- Generator: Adobe Illustrator 22.0.1, SVG Export Plug-In . SVG Version: 6.00 Build 0)  -->
<svg version="1.1" id="Layer_1" xmlns="http://www.w3.org/2000/svg" xmlns:xlink="http://www.w3.org/1999/xlink" x="0px" y="0px"
	 viewBox="0 0 194.1 179.9" style="enable-background:new 0 0 194.1 179.9;" xml:space="preserve">
<style type="text/css">
	.st0{fill:#003340;}
</style>
<g>
	<path class="st0" d="M84.1,6.9h-66c-3.3,0-6,2.7-6,6v66c0,3.3,2.7,6,6,6h66c3.3,0,6-2.7,6-6v-66C90.1,9.6,87.4,6.9,84.1,6.9z"/>
	<path class="st0" d="M176.1,6.9h-66c-3.3,0-6,2.7-6,6v66c0,3.3,2.7,6,6,6h66c3.3,0,6-2.7,6-6v-66C182.1,9.6,179.4,6.9,176.1,6.9z"
		/>
	<path class="st0" d="M84.1,94.9h-66c-3.3,0-6,2.7-6,6v66c0,3.3,2.7,6,6,6h66c3.3,0,6-2.7,6-6v-66C90.1,97.6,87.4,94.9,84.1,94.9z"
		/>
	<path class="st0" d="M176.1,94.9h-66c-3.3,0-6,2.7-6,6v66c0,3.3,2.7,6,6,6h66c3.3,0,6-2.7,6-6v-66
		C182.1,97.6,179.4,94.9,176.1,94.9z"/>
</g>
</svg>
