<?xml version="1.0" encoding="utf-8"?>
<!-- Generator: Adobe Illustrator 22.0.1, SVG Export Plug-In . SVG Version: 6.00 Build 0)  -->
<svg version="1.1" id="Layer_1" xmlns="http://www.w3.org/2000/svg" xmlns:xlink="http://www.w3.org/1999/xlink" x="0px" y="0px"
	 viewBox="0 0 665.2 551.8" style="enable-background:new 0 0 665.2 551.8;" xml:space="preserve">
<style type="text/css">
	.st0{fill:#003340;}
</style>
<path class="st0" d="M530.2,527.8c-10.7,0-20.7-4.2-28.3-11.7L333.4,347.6L165,516c-7.6,7.6-17.6,11.7-28.3,11.7
	c-10.7,0-20.7-4.2-28.3-11.7l-14.1-14.1c-7.5-7.5-11.7-17.6-11.7-28.3c0-10.7,4.2-20.7,11.7-28.3l168.5-168.5L94.3,108.4
	c-7.5-7.5-11.7-17.6-11.7-28.3c0-10.7,4.2-20.7,11.7-28.3l14.1-14.1c7.6-7.5,17.6-11.7,28.3-11.7c10.7,0,20.7,4.2,28.3,11.7
	l168.5,168.5L502,37.8c7.5-7.5,17.6-11.7,28.3-11.7c10.7,0,20.7,4.2,28.3,11.7l14.1,14.1c7.6,7.6,11.7,17.6,11.7,28.3
	c0,10.7-4.2,20.7-11.7,28.3L404.1,276.9l168.5,168.5c15.6,15.6,15.6,41,0,56.6L558.5,516C550.9,523.6,540.9,527.8,530.2,527.8z"/>
</svg>
