<?xml version="1.0" encoding="utf-8"?>
<!-- Generator: Adobe Illustrator 22.0.1, SVG Export Plug-In . SVG Version: 6.00 Build 0)  -->
<svg version="1.1" id="Layer_1" xmlns="http://www.w3.org/2000/svg" xmlns:xlink="http://www.w3.org/1999/xlink" x="0px" y="0px"
	 viewBox="0 0 1103.6 695.1" style="enable-background:new 0 0 1103.6 695.1;" xml:space="preserve">
<style type="text/css">
	.st0{fill:#707070;}
</style>
<g>
	<path class="st0" d="M298.6,406.5l5.1-6.2c5.6-7.4,138.1-181.2,138.1-257.9c0-38.1-14.6-70.8-42.2-94.7
		c-26.1-22.5-61.8-34.8-100.8-34.8s-74.8,12.4-100.8,34.8c-27.7,23.9-42.2,56.6-42.2,94.7c0,76.7,132.5,250.5,138.1,257.8
		L298.6,406.5z M297.5,55.6c43.8,0,79.4,35.7,79.4,79.4s-35.7,79.4-79.4,79.4s-79.4-35.7-79.4-79.4S253.7,55.6,297.5,55.6z"/>
	<path class="st0" d="M901.9,295.7c-26.1-22.5-61.9-34.8-100.8-34.8c-39.1,0-74.8,12.4-100.8,34.8c-27.7,23.9-42.2,56.6-42.2,94.7
		c0,76.7,132.5,250.5,138.1,257.9l4.9,6.3l5.1-6.3c5.6-7.4,138.1-181.2,138.1-257.9C944.1,352.3,929.5,319.5,901.9,295.7z
		 M799.7,303.7c43.8,0,79.4,35.7,79.4,79.4s-35.7,79.4-79.4,79.4s-79.4-35.7-79.4-79.4S755.9,303.7,799.7,303.7z"/>
	<path class="st0" d="M801.6,668.1l-319.1-106L301.2,416.2c-2.6-2.1-6.4-1.7-8.6,1s-1.7,6.4,1,8.6l183,147.4l321.2,106.6
		c0.6,0.2,1.3,0.3,1.9,0.3c2.5,0,5-1.7,5.8-4.2C806.5,672.7,804.7,669.2,801.6,668.1z"/>
	<polygon class="st0" points="418.1,493.8 462.4,493.8 462.4,423.9 499.3,493.8 531.6,493.8 568.3,423.1 568.6,493.8 613.1,493.8 
		613.1,339.4 573.5,339.4 515.9,444.8 458.1,339.4 418.1,339.4 	"/>
</g>
</svg>
