<?xml version="1.0" encoding="utf-8"?>
<!-- Generator: Adobe Illustrator 22.0.1, SVG Export Plug-In . SVG Version: 6.00 Build 0)  -->
<svg version="1.1" id="Layer_1" xmlns="http://www.w3.org/2000/svg" xmlns:xlink="http://www.w3.org/1999/xlink" x="0px" y="0px"
	 viewBox="0 0 1103.6 718.7" style="enable-background:new 0 0 1103.6 718.7;" xml:space="preserve">
<style type="text/css">
	.st0{fill:#707070;}
</style>
<g>
	<path class="st0" d="M941.5,450.2h-5.7c0.4-3.3,0.1-7.6-0.3-12.6c-1.4-19.7-4-56.3,25.1-95.9c45.8-62.4,61.3-101,61.3-152.8
		c0-48-18.7-93.2-52.7-127.2S890.1,9,842,9h-3.4c-48,0-93.2,18.7-127.2,52.7s-52.7,79.1-52.7,127.2c0,51.8,15.4,90.4,61.3,152.8
		c29.1,39.6,26.5,76.2,25.1,95.9c-0.4,5-0.7,9.3-0.3,12.6h-5.9c-10.9,0-19.8,8.9-19.8,19.8v9.2c0,10.9,8.9,19.8,19.8,19.8h24.8v39.5
		h-32c-2.3,0-4.2,1.9-4.2,4.2s1.9,4.2,4.2,4.2h32v44.6c0,2.3,1.9,4.2,4.2,4.2h68.9l-0.4,57.8c-0.2,41.2-29.3,49-83,49H311.1
		c-45.8,0-83-37.2-83-83v-23.8h24.4c49.1,0,89.1-40,89.1-89.1v-90H353c10.8,0,19.7-8.8,19.8-19.8v-9.2c0-10.9-8.9-19.8-19.8-19.8
		h-29V258.2c0-10.9-8.9-19.8-19.8-19.8h-5.9c-10.9,0-19.8,8.9-19.8,19.8v109.6H177.7V258.2c0-10.9-8.9-19.8-19.8-19.8H152
		c-10.9,0-19.8,8.9-19.8,19.8v109.6h-30.6c-10.9,0-19.8,8.9-19.8,19.8v9.2c0,10.9,8.9,19.8,19.8,19.8h4.6v90
		c0,49.1,40,89.1,89.1,89.1h24.4v23.8c0,50.4,41,91.4,91.4,91.4h442.3c46.1,0,91.2-4.4,91.4-57.4l0.4-57.8h69c2.3,0,4.2-1.9,4.2-4.2
		v-44.6h30.3c2.3,0,4.2-1.9,4.2-4.2s-1.9-4.2-4.2-4.2h-30.3V499h23.1c10.9,0,19.8-8.8,19.8-19.8V470
		C961.3,459.1,952.4,450.2,941.5,450.2z M286.9,258.2c0-6.3,5.1-11.4,11.4-11.4h5.9c6.3,0,11.4,5.1,11.4,11.4v109.6h-28.7V258.2
		L286.9,258.2z M140.6,258.2c0-6.3,5.1-11.4,11.4-11.4h5.9c6.3,0,11.4,5.1,11.4,11.4v109.6h-28.7V258.2z M90.2,396.9v-9.2
		c0-6.3,5.1-11.4,11.4-11.4h34.8h37h109.3h37H353c6.3,0,11.4,5.1,11.4,11.4v9.2c0,6.3-5.1,11.4-11.4,11.4h-14.7
		c-0.3-0.1-0.6-0.1-0.9-0.1h-227c-0.3,0-0.6,0-0.9,0.1h-7.9C95.3,408.3,90.2,403.2,90.2,396.9z M114.6,506.6v-90h218.6v90
		c0,44.5-36.2,80.7-80.7,80.7h-57.2C150.8,587.3,114.6,551.1,114.6,506.6z M726.6,336.7c-44.6-60.8-59.7-98.1-59.7-147.8
		c0-94.6,76.9-171.5,171.5-171.5h3.4c94.6,0,171.5,76.9,171.5,171.5c0,49.7-15.1,87-59.7,147.8c-30.9,42.1-28.2,80.7-26.7,101.5
		c0.3,4.3,0.6,9.2,0.3,11.4c-0.1,0-0.3,0-0.5,0c-1.6-0.1-3.9-0.1-6.7-0.1c-5.7-0.1-13.6-0.1-22.5-0.1c-9.4,0-32.4,0-52.2,0.2V236
		l70.8-33.4c2.1-1,3-3.5,2-5.6s-3.5-3-5.6-2l-67.2,31.7l-0.8-60.7c0-2.4-1.9-4.2-4.2-4.2c-0.1,0-0.1,0-0.1,0c-2.4,0.1-4.2,2-4.2,4.3
		l0.7,60.3l-61-31.3c-2.1-1.1-4.6-0.3-5.7,1.8c-1.1,2.1-0.3,4.6,1.8,5.7l65,33.3v213.7c-16.2-0.2-34.9-0.2-46.7-0.2
		c-2.9,0-5.4,0-7.4,0c-8.9,0-16.8,0.1-22.5,0.1c-2.8,0.1-5.1,0.1-6.7,0.1c-0.1,0-0.3,0-0.5,0c-0.3-2.2,0-7,0.3-11.4
		C754.8,417.4,757.5,378.8,726.6,336.7z M910,587.3H772.1V499H910L910,587.3L910,587.3z M952.9,479.3c0,6.3-5.1,11.4-11.4,11.4
		h-26.4c-0.3-0.1-0.6-0.1-0.9-0.1H767.9c-0.3,0-0.6,0-0.9,0.1h-28.1c-6.3,0-11.4-5.1-11.4-11.4v-9.2c0-6.3,5.1-11.4,11.4-11.4v-0.1
		h202.6c6.3,0,11.4,5.1,11.4,11.4V479.3z"/>
	<polygon class="st0" points="443.9,673.9 637.1,446 548.6,467.4 602.2,315.7 491.7,345.3 428.5,528.8 488.1,512.8 	"/>
</g>
</svg>
