<?xml version="1.0" encoding="utf-8"?>
<!-- Generator: Adobe Illustrator 22.0.1, SVG Export Plug-In . SVG Version: 6.00 Build 0)  -->
<svg version="1.1" id="Layer_1" xmlns="http://www.w3.org/2000/svg" xmlns:xlink="http://www.w3.org/1999/xlink" x="0px" y="0px"
	 viewBox="0 0 418.7 313.4" style="enable-background:new 0 0 418.7 313.4;" xml:space="preserve">
<g>
	<path d="M17.9,164.8h383.5c3.3,0,6.3-2,7.5-5c1.3-3,0.6-6.5-1.8-8.9L266.3,10.1c-3.2-3.2-8.3-3.2-11.5,0c-3.2,3.2-3.2,8.3,0,11.5
		l127,127H17.9c-4.5,0-8.1,3.6-8.1,8.1C9.7,161.2,13.4,164.8,17.9,164.8z"/>
	<path d="M260.5,305.7c2.1,0,4.2-0.8,5.8-2.4l140.9-140.9c2.3-2.3,3-5.8,1.8-8.9c-1.3-3-4.2-5-7.5-5H17.9c-4.5,0-8.1,3.6-8.1,8.1
		c0,4.5,3.6,8.1,8.1,8.1h363.8l-127,127c-3.2,3.2-3.2,8.3,0,11.5C256.3,304.9,258.4,305.7,260.5,305.7z"/>
</g>
</svg>
