<?xml version="1.0" encoding="utf-8"?>
<!-- Generator: Adobe Illustrator 22.0.1, SVG Export Plug-In . SVG Version: 6.00 Build 0)  -->
<svg version="1.1" id="Layer_1" xmlns="http://www.w3.org/2000/svg" xmlns:xlink="http://www.w3.org/1999/xlink" x="0px" y="0px"
	 viewBox="0 0 601 381.5" style="enable-background:new 0 0 601 381.5;" xml:space="preserve">
<g>
	<path d="M260.9,165.9c-43.1,1.2-66.2,33.9-68.7,37.6c-1.5,2.3-0.9,5.4,1.4,6.9c2.3,1.5,5.4,0.9,6.9-1.4
		c2.2-3.3,22.5-32.1,60.6-33.1c42-1.2,65.3,33.3,65.5,33.7c1,1.5,2.6,2.3,4.2,2.3c0.9,0,1.9-0.3,2.7-0.8c2.3-1.5,2.9-4.6,1.4-6.9
		C333.9,202.5,308.4,164.5,260.9,165.9z"/>
	<path d="M387.4,156.8c1,1.2,2.4,1.8,3.8,1.8c1.1,0,2.3-0.4,3.2-1.2c2.1-1.8,2.4-4.9,0.6-7c-4.7-5.5-17.9-19.8-38.6-33.3
		c-28.4-18.4-59.6-28-92.7-28.8c-69.8-1.6-116,38-128.5,50.2c-2,1.9-2,5.1-0.1,7.1s5.1,2,7.1,0.1c11.8-11.5,55.4-48.8,121.3-47.3
		C335.5,99.9,379.3,147.4,387.4,156.8z"/>
	<path d="M86.4,107c1.4,0,2.7-0.6,3.7-1.7C106,87.6,165.4,29.6,261.7,28c100.4-1.6,164.6,61.1,176.4,73.7c1.9,2,5.1,2.1,7.1,0.2
		s2.1-5.1,0.2-7.1c-6.8-7.2-25.8-25.9-55.1-42.9C350.3,28.7,307,17.3,261.6,18c-100.4,1.7-162.4,62.1-179,80.6
		c-1.8,2.1-1.7,5.2,0.4,7.1C84,106.6,85.2,107,86.4,107z"/>
	<path d="M471.5,258.6h-198c0-0.3,0.1-0.6,0.1-0.9l0.5-58.7c0-5.5-4.4-10-9.9-10.1h-0.1c-5.5,0-10,4.4-10,9.9l-0.5,58.7
		c0,0.4,0,0.7,0.1,1.1H56.5C27.6,258.6,4,282.2,4,311.1s23.6,52.5,52.5,52.5h415c28.9,0,52.5-23.6,52.5-52.5
		S500.5,258.6,471.5,258.6z M471.5,353.6h-415c-23.4,0-42.5-19-42.5-42.5s19.1-42.5,42.5-42.5h415c23.4,0,42.5,19.1,42.5,42.5
		S495,353.6,471.5,353.6z"/>
	<circle cx="464" cy="311.1" r="14.8"/>
	<circle cx="410" cy="311.1" r="14.8"/>
	<circle cx="356" cy="311.1" r="14.8"/>
	<circle cx="302" cy="311.1" r="14.8"/>
</g>
</svg>
