<?xml version="1.0" encoding="utf-8"?>
<!-- Generator: Adobe Illustrator 22.0.1, SVG Export Plug-In . SVG Version: 6.00 Build 0)  -->
<svg version="1.1" id="Layer_1" xmlns="http://www.w3.org/2000/svg" xmlns:xlink="http://www.w3.org/1999/xlink" x="0px" y="0px"
	 viewBox="0 0 194.1 179.9" style="enable-background:new 0 0 194.1 179.9;" xml:space="preserve">
<style type="text/css">
	.st0{fill:#003340;}
</style>
<g>
	<path class="st0" d="M62.2,39.4h113.7c3.4,0,6.2-2.8,6.2-6.2v-19c0-3.4-2.8-6.2-6.2-6.2H62.2c-3.4,0-6.2,2.8-6.2,6.2v19
		C56,36.6,58.8,39.4,62.2,39.4z"/>
	<rect x="12" y="8" class="st0" width="33" height="31.4"/>
	<path class="st0" d="M62.5,82.4h113c3.6,0,6.5-2.9,6.5-6.5V57.5c0-3.6-2.9-6.5-6.5-6.5h-113c-3.6,0-6.5,2.9-6.5,6.5v18.4
		C56,79.5,58.9,82.4,62.5,82.4z"/>
	<rect x="12" y="51" class="st0" width="33" height="31.4"/>
	<path class="st0" d="M176.3,98.6H62.7c-3.7,0-6.7,3-6.7,6.7v18c0,3.7,3,6.7,6.7,6.7h113.6c3.7,0,6.7-3,6.7-6.7v-18
		C183,101.6,180,98.6,176.3,98.6z"/>
	<rect x="13" y="98.6" class="st0" width="32" height="31.4"/>
	<rect x="13" y="141.6" class="st0" width="32" height="31.4"/>
	<path class="st0" d="M177,141.6H62c-3.3,0-6,2.7-6,6V167c0,3.3,2.7,6,6,6h115c3.3,0,6-2.7,6-6v-19.3
		C183,144.3,180.3,141.6,177,141.6z"/>
</g>
</svg>
