<?xml version="1.0" encoding="utf-8"?>
<!-- Generator: Adobe Illustrator 22.0.1, SVG Export Plug-In . SVG Version: 6.00 Build 0)  -->
<svg version="1.1" id="Layer_1" xmlns="http://www.w3.org/2000/svg" xmlns:xlink="http://www.w3.org/1999/xlink" x="0px" y="0px"
	 viewBox="0 0 673.8 442.4" style="enable-background:new 0 0 673.8 442.4;" xml:space="preserve">
<style type="text/css">
	.st0{fill:#FFFFFF;}
</style>
<g>
	<path class="st0" d="M51.8,103.4c-23.7,0-42.9-19.2-42.9-42.9c0-23.7,19.2-42.9,42.9-42.9h570.3c23.7,0,42.9,19.2,42.9,42.9
		c0,23.7-19.2,42.9-42.9,42.9H51.8z"/>
	<path class="st0" d="M51.8,264.9c-23.7,0-42.9-19.2-42.9-42.9c0-23.7,19.2-42.9,42.9-42.9h570.3c23.7,0,42.9,19.2,42.9,42.9
		c0,23.7-19.2,42.9-42.9,42.9H51.8z"/>
	<path class="st0" d="M51.8,426.4c-23.7,0-42.9-19.2-42.9-42.9c0-23.7,19.2-42.9,42.9-42.9h570.3c23.7,0,42.9,19.2,42.9,42.9
		c0,23.7-19.2,42.9-42.9,42.9H51.8z"/>
</g>
</svg>
