<?xml version="1.0" encoding="utf-8"?>
<!-- Generator: Adobe Illustrator 22.0.1, SVG Export Plug-In . SVG Version: 6.00 Build 0)  -->
<svg version="1.1" id="Layer_1" xmlns="http://www.w3.org/2000/svg" xmlns:xlink="http://www.w3.org/1999/xlink" x="0px" y="0px"
	 viewBox="0 0 1103.6 695.1" style="enable-background:new 0 0 1103.6 695.1;" xml:space="preserve">
<style type="text/css">
	.st0{fill:#707070;}
</style>
<g>
	<path class="st0" d="M54,184.2h441.2c6.3,0,11.5-5.2,11.5-11.5s-5.2-11.5-11.5-11.5H54c-6.3,0-11.5,5.2-11.5,11.5
		S47.7,184.2,54,184.2z"/>
	<path class="st0" d="M54,281.7h368.9c6.3,0,11.5-5.2,11.5-11.5c0-6.3-5.2-11.5-11.5-11.5H54c-6.3,0-11.5,5.2-11.5,11.5
		C42.5,276.6,47.7,281.7,54,281.7z"/>
	<path class="st0" d="M470.5,368c0-6.3-5.2-11.5-11.5-11.5H54c-6.3,0-11.5,5.2-11.5,11.5c0,6.3,5.2,11.5,11.5,11.5h405
		C465.3,379.4,470.5,374.3,470.5,368z"/>
	<path class="st0" d="M775.9,232.2c21.6,16.8,47.5,25.8,74.8,25.8c5.2,0,10.4-0.4,15.5-1c32.3-4.1,61.3-20.4,81.3-46.3
		c20-25.9,28.8-58,24.8-90.3c-7.6-61-59.8-107.1-121.2-107.1c-5.2,0-10.4,0.3-15.4,1c-66.9,8.4-114.5,69.7-106.1,136.6
		C733.6,183.2,750.1,212.2,775.9,232.2z M838.6,36.9c4.2-0.6,8.3-0.8,12.5-0.8c50,0,92.4,37.4,98.5,87.3
		c3.4,26.3-3.8,52.4-20.2,73.4c-16.2,21-39.8,34.3-66.1,37.7c-4.2,0.6-8.4,0.8-12.6,0.8c-22.3,0-43.3-7.3-60.9-21
		c-21-16.4-34.3-39.9-37.7-66.2C745.5,93.6,784.2,43.8,838.6,36.9z"/>
	<path class="st0" d="M798.4,470L639.8,363.8l129.9-111.1c2.8-2.4,4.3-6.2,3.9-9.8c-0.3-3.6-2.5-7-5.7-8.8l-162.1-91.4
		c-1.7-1-3.6-1.5-5.6-1.5c-2.8,0-5.5,1.1-7.6,2.9L447.4,274c-4.6,4.2-5,11.3-0.8,16.1c2.2,2.4,5.3,3.8,8.5,3.8
		c2.8,0,5.5-1.1,7.6-2.9l139.1-124.6l140.8,79.4L613.5,356.2c-2.7,2.4-4.2,5.9-3.9,9.4c0.1,3.5,2.1,6.9,5,8.8l145.7,97.7
		l-177.8,22.3c-6.3,0.8-10.8,6.4-9.9,12.7c0.7,5.6,5.6,9.9,11.3,9.9c0.4,0,1,0,1.4,0l208.2-26.2c4.6-0.6,8.5-4.1,9.7-8.7
		S802.4,472.7,798.4,470z"/>
	<path class="st0" d="M611.3,386.3c0.8-2.9,0.4-6-1.1-8.7c-2.1-3.5-5.9-5.7-9.9-5.7c-2.1,0-4.1,0.6-5.7,1.5L97.1,660.7
		c-5.5,3.1-7.3,10.1-4.2,15.5c2.1,3.5,5.9,5.7,9.9,5.7c2,0,4.1-0.6,5.7-1.5L606,393.3C608.6,391.8,610.4,389.2,611.3,386.3z"/>
	<path class="st0" d="M1060.1,326.3c-0.3-6-5.3-10.6-11.3-10.6h-0.6l-252.1,16.5l-7.6-59.9c-0.7-5.6-5.6-9.9-11.3-9.9
		c-0.4,0-1,0.1-1.4,0.1c-6.3,0.8-10.8,6.4-9.9,12.7l8.8,70.6c0.7,5.6,5.6,9.9,11.3,9.9l0.6-0.1l262.9-17.1
		C1055.7,338,1060.5,332.6,1060.1,326.3z"/>
</g>
</svg>
