<?xml version="1.0" encoding="utf-8"?>
<!-- Generator: Adobe Illustrator 22.0.1, SVG Export Plug-In . SVG Version: 6.00 Build 0)  -->
<svg version="1.1" id="Layer_1" xmlns="http://www.w3.org/2000/svg" xmlns:xlink="http://www.w3.org/1999/xlink" x="0px" y="0px"
	 viewBox="0 0 616.5 60" style="enable-background:new 0 0 616.5 60;" xml:space="preserve">
<style type="text/css">
	.st0{fill:#003340;}
</style>
<path class="st0" d="M596.5,0H338.3v-258.3c0-11-9-20-20-20h-20c-11,0-20,9-20,20V0H20C9,0,0,9,0,20v20c0,11,9,20,20,20h258.3v258.3
	c0,11,9,20,20,20h20c11,0,20-9,20-20V60h258.3c11,0,20-9,20-20V20C616.5,9,607.5,0,596.5,0z"/>
</svg>
