<?xml version="1.0" encoding="utf-8"?>
<!-- Generator: Adobe Illustrator 22.0.1, SVG Export Plug-In . SVG Version: 6.00 Build 0)  -->
<svg version="1.1" id="Layer_1" xmlns="http://www.w3.org/2000/svg" xmlns:xlink="http://www.w3.org/1999/xlink" x="0px" y="0px"
	 viewBox="0 0 417.1 439.1" style="enable-background:new 0 0 417.1 439.1;" xml:space="preserve">
<style type="text/css">
	.st0{fill:#1F1F1F;stroke:#000000;stroke-width:35;stroke-miterlimit:10;}
	.st1{fill:#1F1F1F;}
</style>
<g>
	<path class="st0" d="M271.5,207.3"/>
	<path class="st1" d="M213,64.3c-29.5,0-58.5,7.9-83.8,22.8c-17.2,10.1-32.4,23.3-44.9,38.7L75.9,61c-1.2-9.6-10-16.4-19.6-15.1
		c-9.6,1.2-16.3,10-15.1,19.6l14,108c1.1,8.8,8.6,15.3,17.3,15.3c0.3,0,0.6,0,0.9,0l119-6c9.7-0.5,17.1-8.7,16.6-18.4
		s-8.7-17.1-18.4-16.6l-82.4,4.2c24.5-32.8,63.4-52.7,104.7-52.7c72,0,130.5,58.5,130.5,130.5S285,360.3,213,360.3
		c-69.1,0-126.3-54-130.3-122.9c-0.1-2.5-0.2-5.1-0.2-7.6c0-9.7-7.8-17.5-17.5-17.5s-17.5,7.8-17.5,17.5c0,3.2,0.1,6.4,0.3,9.6
		c5,87.4,77.6,155.9,165.2,155.9c91.3,0,165.5-74.2,165.5-165.5S304.3,64.3,213,64.3z"/>
</g>
</svg>
