<?xml version="1.0" encoding="utf-8"?>
<!-- Generator: Adobe Illustrator 22.0.1, SVG Export Plug-In . SVG Version: 6.00 Build 0)  -->
<svg version="1.1" id="Layer_1" xmlns="http://www.w3.org/2000/svg" xmlns:xlink="http://www.w3.org/1999/xlink" x="0px" y="0px"
	 viewBox="0 0 416.5 422.3" style="enable-background:new 0 0 416.5 422.3;" xml:space="preserve">
<style type="text/css">
	.st0{fill:#003340;}
</style>
<g>
	<path class="st0" d="M403.2,357.7L244.1,199.5c27.9-47.8,21.3-110.3-19.7-151.1C175.7,0,96.7,0.2,48.3,48.9
		C-0.1,97.6,0.1,176.6,48.8,225c41,40.8,103.6,47,151.2,18.9L359.1,402c12.2,12.2,32,12.1,44.2-0.1S415.4,369.9,403.2,357.7z
		 M210.7,210.4c-40.6,40.9-106.9,41.1-147.8,0.4C22,170.1,21.9,103.9,62.5,63s106.9-41,147.8-0.4
		C251.2,103.2,251.3,169.5,210.7,210.4z"/>
	<path class="st0" d="M176.3,50c-23.2-10.6-49.1-11.6-72.9-2.7c-5.2,1.9-7.8,7.7-5.9,12.9c1.9,5.2,7.7,7.8,12.9,5.9
		c18.9-7,39.3-6.3,57.6,2.1c18.3,8.4,32.2,23.4,39.3,42.2c1.9,5.2,7.7,7.8,12.9,5.9c1.4-0.5,2.6-1.3,3.6-2.3
		c2.7-2.7,3.7-6.8,2.3-10.5C217.1,79.6,199.4,60.6,176.3,50z"/>
</g>
</svg>
