<?xml version="1.0" encoding="utf-8"?>
<!-- Generator: Adobe Illustrator 22.0.1, SVG Export Plug-In . SVG Version: 6.00 Build 0)  -->
<svg version="1.1" id="Layer_1" xmlns="http://www.w3.org/2000/svg" xmlns:xlink="http://www.w3.org/1999/xlink" x="0px" y="0px"
	 viewBox="0 0 582 381.5" style="enable-background:new 0 0 582 381.5;" xml:space="preserve">
<g>
	<path d="M211.7,127.5c1.5-1,2.3-2.6,2.3-4.2c0-0.9-0.3-1.9-0.8-2.7c-1.5-2.3-4.6-2.9-6.9-1.4c-1.6,1.1-39.5,26.6-38.2,74.1
		c1.2,43.1,33.9,66.2,37.6,68.7c2.3,1.5,5.4,0.9,6.9-1.4c1.5-2.3,0.9-5.4-1.4-6.9c-3.3-2.2-32.1-22.5-33.1-60.6
		C176.8,151,211.4,127.7,211.7,127.5z"/>
	<path d="M152.5,59.1c-5.5,4.7-19.8,17.9-33.3,38.6c-18.4,28.4-28,59.6-28.8,92.7c-1.6,69.8,38,116,50.2,128.5c1.9,2,5.1,2,7.1,0.1
		c2-1.9,2-5.1,0.1-7.1c-11.5-11.8-48.8-55.4-47.3-121.2c1.6-72.1,49.1-115.9,58.5-124c1.2-1,1.8-2.4,1.8-3.8c0-1.1-0.4-2.3-1.2-3.2
		C157.8,57.6,154.6,57.3,152.5,59.1z"/>
	<path d="M30.2,192.4C28.5,92,91.3,27.9,103.8,16c2-1.9,2.1-5.1,0.2-7.1C102.2,7,99,6.9,97,8.8c-7.2,6.8-25.9,25.8-42.9,55.1
		c-23.2,40-34.6,83.3-33.9,128.7c1.7,100.4,62.1,162.3,80.6,178.9c2.1,1.8,5.2,1.7,7.1-0.4c0.9-1,1.3-2.1,1.3-3.3
		c0-1.4-0.6-2.7-1.7-3.7C89.8,348.1,31.8,288.7,30.2,192.4z"/>
	<path d="M377.5,119.1c-2.3-1.5-5.4-0.9-6.9,1.4c-0.6,0.8-0.8,1.8-0.8,2.7c0,1.6,0.8,3.2,2.3,4.2c0.3,0.2,34.9,23.5,33.7,65.5
		c-1.1,38.1-29.9,58.5-33.1,60.6c-2.3,1.5-2.9,4.6-1.4,6.9c1.5,2.3,4.6,2.9,6.9,1.4c3.7-2.5,36.4-25.5,37.6-68.7
		C417,145.7,379.1,120.2,377.5,119.1z"/>
	<path d="M493.2,190.5c-0.7-33.1-10.4-64.3-28.8-92.7c-13.4-20.8-27.7-34-33.3-38.6c-2.1-1.8-5.3-1.5-7,0.6
		c-0.8,0.9-1.2,2.1-1.2,3.2c0,1.4,0.6,2.8,1.8,3.8c9.5,8,56.9,51.9,58.5,124c1.5,65.9-35.8,109.5-47.3,121.2c-1.9,2-1.9,5.1,0.1,7.1
		c2,1.9,5.1,1.9,7.1-0.1C455.3,306.5,494.8,260.3,493.2,190.5z"/>
	<path d="M529.6,63.9c-17-29.3-35.7-48.3-42.9-55.1c-2-1.9-5.2-1.8-7.1,0.2c-1.9,2-1.8,5.2,0.2,7.1c12.6,11.8,75.3,75.9,73.6,176.4
		c-1.6,96.3-59.5,155.7-77.3,171.6c-1.1,1-1.7,2.4-1.7,3.7c0,1.2,0.4,2.4,1.3,3.3c1.8,2.1,5,2.2,7.1,0.4
		c18.5-16.6,78.9-78.6,80.6-178.9C564.2,147.2,552.9,103.9,529.6,63.9z"/>
	<circle cx="291" cy="190.1" r="49.6"/>
</g>
</svg>
