<?xml version="1.0" encoding="utf-8"?>
<!-- Generator: Adobe Illustrator 22.0.1, SVG Export Plug-In . SVG Version: 6.00 Build 0)  -->
<svg version="1.1" id="Layer_1" xmlns="http://www.w3.org/2000/svg" xmlns:xlink="http://www.w3.org/1999/xlink" x="0px" y="0px"
	 viewBox="0 0 501.8 479.8" style="enable-background:new 0 0 501.8 479.8;" xml:space="preserve">
<style type="text/css">
	.st0{fill:#FFFFFF;}
</style>
<path class="st0" d="M490.6,231.8l-6.8-55c-2.3-18.4-18.5-31.7-36.9-30.4l-6.9,0.5c-11.4,0.8-22.4-4.1-29.6-13l-20.9-26.1
	c-7.3-9.2-9.6-21.4-5.9-32.6l1.9-5.8c5.8-17.6-3.2-36.6-20.5-43.3L312,5.5c-17.8-6.9-37.9,1.8-45,19.6l-0.8,2.1
	c-4.6,11.6-15.1,19.9-27.4,21.6l-32.5,4.6c-11,1.6-22.1-2.2-29.8-10.1l-7-7.2c-12.4-12.7-32.2-14-46.2-3.2L78.8,67.2
	c-15.4,11.9-18.1,34.2-5.8,49.4l4.7,5.8c6.9,8.5,9.4,19.7,6.7,30.3l-7.6,30.4c-3.7,14.8-16.5,25.4-31.7,26.3l-1.5,0.1
	c-21.1,1.3-36.3,20.9-32,41.7l10.6,52.2c3.6,17.8,20.3,29.8,38.3,27.6l0,0c10.8-1.3,21.5,2.4,29.1,10.2l22.8,23.3
	c9.3,9.5,12.4,23.4,8,35.9l-1.7,4.9c-6.2,17.7,2.7,37.1,20.1,43.9l52.7,20.7c18.1,7.1,38.6-2,45.4-20.3l0.3-0.9
	c4.5-12.1,15.4-20.8,28.2-22.4l31.4-4c11.1-1.4,22.3,2.6,29.9,10.8l6,6.5c12.7,13.7,34,14.8,48.2,2.7l42.2-36.2
	c13.8-11.9,16.2-32.3,5.4-47l-2.8-3.8c-7-9.5-8.7-21.9-4.5-32.9l11.2-29.5c4.4-11.6,14.7-20,26.9-22l2.1-0.3
	C480.1,267.4,492.9,250.3,490.6,231.8z M250.7,368c-71.8,0-130-58.2-130-130s58.2-130,130-130s130,58.2,130,130S322.5,368,250.7,368
	z"/>
</svg>
