<?xml version="1.0" encoding="utf-8"?>
<!-- Generator: Adobe Illustrator 22.0.1, SVG Export Plug-In . SVG Version: 6.00 Build 0)  -->
<svg version="1.1" id="Layer_1" xmlns="http://www.w3.org/2000/svg" xmlns:xlink="http://www.w3.org/1999/xlink" x="0px" y="0px"
	 viewBox="0 0 1103.6 1080" style="enable-background:new 0 0 1103.6 1080;" xml:space="preserve">
<style type="text/css">
	.st0{fill:#707070;}
</style>
<g>
	<path class="st0" d="M660.2,818.8l-3.1-643.4c0.4-6.8,5-94.4-38.5-140.9c-17.5-18.7-40.3-28.2-67.8-28.2c-29.4,0-53.6,10-72,29.7
		c-44.7,47.9-39.3,136-39,139.7v105.8c0,4.3,3.5,7.8,7.8,7.8c4.3,0,7.8-3.5,7.8-7.8V175.7c0-0.3,0-0.6,0-1c0-0.9-5.2-85.2,34.9-128
		C505.6,30.3,526,22,550.8,22c23,0,41.9,7.8,56.4,23.1c39.6,42.5,34.4,128.6,34.3,129.5c0,0.2,0,0.4,0,0.6l3.1,647.2
		c0,2.7,1.4,5.1,3.4,6.5c25.2,25.6,39,59.4,39,95.3c0,75-61,136-136,136s-136-61-136-136c0-35.6,13.6-69.3,38.4-94.8
		c1.9-2,2.5-4.7,2-7.2v-83c0-4.3-3.5-7.8-7.8-7.8c-4.3,0-7.8,3.5-7.8,7.8v81.7c-26.2,28.1-40.6,64.6-40.6,103.2
		c0,83.6,68,151.6,151.6,151.6s151.6-68,151.9-151.6C702.7,884.5,687.6,847.2,660.2,818.8z"/>
	<path class="st0" d="M496.3,859.2c-21.4,16.4-35.2,42.1-35.2,71.2c0,49.5,40.1,89.6,89.6,89.6s89.6-40.1,89.6-89.6
		c0.1-30.1-14.7-56.7-37.3-72.9V801H496.3V859.2z"/>
	<path class="st0" d="M512.7,203.4h71.9c4.3,0,7.8-3.5,7.8-7.8s-3.5-7.8-7.8-7.8h-71.9c-4.3,0-7.8,3.5-7.8,7.8
		S508.4,203.4,512.7,203.4z"/>
	<path class="st0" d="M512.7,297.2h71.9c4.3,0,7.8-3.5,7.8-7.8s-3.5-7.8-7.8-7.8h-71.9c-4.3,0-7.8,3.5-7.8,7.8
		S508.4,297.2,512.7,297.2z"/>
	<path class="st0" d="M512.7,391h71.9c4.3,0,7.8-3.5,7.8-7.8s-3.5-7.8-7.8-7.8h-71.9c-4.3,0-7.8,3.5-7.8,7.8S508.4,391,512.7,391z"
		/>
	<path class="st0" d="M512.7,484.8h71.9c4.3,0,7.8-3.5,7.8-7.8s-3.5-7.8-7.8-7.8h-71.9c-4.3,0-7.8,3.5-7.8,7.8
		S508.4,484.8,512.7,484.8z"/>
	<path class="st0" d="M512.7,578.6h71.9c4.3,0,7.8-3.5,7.8-7.8s-3.5-7.8-7.8-7.8h-71.9c-4.3,0-7.8,3.5-7.8,7.8
		S508.4,578.6,512.7,578.6z"/>
	<path class="st0" d="M512.7,672.4h71.9c4.3,0,7.8-3.5,7.8-7.8s-3.5-7.8-7.8-7.8h-71.9c-4.3,0-7.8,3.5-7.8,7.8
		S508.4,672.4,512.7,672.4z"/>
</g>
</svg>
