<?xml version="1.0" encoding="utf-8"?>
<!-- Generator: Adobe Illustrator 22.0.1, SVG Export Plug-In . SVG Version: 6.00 Build 0)  -->
<svg version="1.1" id="Layer_1" xmlns="http://www.w3.org/2000/svg" xmlns:xlink="http://www.w3.org/1999/xlink" x="0px" y="0px"
	 viewBox="0 0 161.6 171.2" style="enable-background:new 0 0 161.6 171.2;" xml:space="preserve">
<style type="text/css">
	.st0{fill:#33EC00;}
	.st1{fill:#FBFFFC;}
	.st2{fill:url(#SVGID_1_);}
	.st3{fill:url(#SVGID_2_);}
	.st4{fill:url(#SVGID_3_);}
</style>
<path d="M77.3,87.6c23,0,41.6-18.6,41.6-41.6S100.3,4.4,77.3,4.4S35.7,23,35.7,46S54.3,87.6,77.3,87.6z M114.3,96.9h-16
	c-6.4,2.9-13.6,4.6-21.1,4.6s-14.6-1.7-21.1-4.6H40.3c-20.4,0-37,16.6-37,37v4.6c0,7.7,6.2,13.9,13.9,13.9h120.3
	c7.7,0,13.9-6.2,13.9-13.9v-4.6C151.3,113.5,134.7,96.9,114.3,96.9z"/>
<g id="Frunza_1_">
	<g id="Frunza">
		<g>
			<g>
				<path class="st0" d="M129.4,140.8c-4,0-5.6-0.7-6.2-1.2c-0.8-0.7-0.9-1.9-0.2-2.8c8.2-10.1,19-13.2,19.5-13.3
					c0.2,0,0.3-0.1,0.5-0.1c0.7,0,1.3,0.3,1.7,0.9c0.5,0.7,0.4,1.7-0.1,2.3L134,139.9c-0.3,0.4-0.9,0.7-1.4,0.8
					C131.4,140.8,130.3,140.8,129.4,140.8C129.4,140.8,129.4,140.8,129.4,140.8z"/>
				<path class="st1" d="M142.9,125.5L142.9,125.5 M142.9,125.5l-10.5,13.3c-1.2,0.1-2.2,0.1-3,0.1c-4.1,0-4.9-0.7-4.9-0.7
					C132.3,128.3,142.9,125.5,142.9,125.5 M142.9,121.5c-0.1,0-0.2,0-0.3,0c-0.3,0-0.6,0.1-0.8,0.2c-1.4,0.4-12.2,3.8-20.4,13.9
					c-1.3,1.7-1.1,4.1,0.5,5.5c1.3,1.2,3.8,1.7,7.5,1.7c1,0,2.1,0,3.3-0.1c1.1-0.1,2.2-0.6,2.9-1.5L146,128c0.6-0.7,0.9-1.6,0.9-2.6
					c0-2.2-1.7-3.9-3.8-4C143,121.5,143,121.5,142.9,121.5L142.9,121.5z M142.9,129.5L142.9,129.5L142.9,129.5L142.9,129.5z"/>
			</g>
			<g>
				<path class="st0" d="M119.6,167.1c-0.7,0-1.4-0.4-1.8-1.1c-7.5-13.9-6.6-25.5-3.2-31.8c5-9.2,8-10.8,15.9-15.1
					c1.3-0.7,2.8-1.5,4.5-2.5c11.2-6.2,15.1-12.2,15.1-12.3c0.4-0.6,1-0.9,1.7-0.9c0.2,0,0.4,0,0.6,0.1c0.9,0.3,1.4,1,1.4,1.9
					c0,2-0.1,7.7-0.7,14.5c-1.1,14.2-3.1,23.2-5.9,27c-4.4,5.9-9.9,9.2-15.3,12c-0.5,0.3-0.9,0.5-1.4,0.7c-0.5,0.3-0.9,0.5-1.4,0.7
					c-0.3,0.2-0.6,0.3-1,0.3c-0.6,0-1.3-0.3-1.6-0.9c-0.1-0.2-1.4-2-1.3-4.4l0-0.2c0-0.1,0-0.2,0-0.3l0-0.1c0-0.1,0-0.3,0-0.4
					c0.1-0.9,0.3-2.1,0.8-3.5c0.1-0.2,0.1-0.3,0.2-0.5c0,0,0-0.1,0.1-0.1c0.7-1.6,1.9-3.2,3.3-4.6c2.8-2.6,5.3-2.9,7.3-3.1
					c0.8-0.1,1.5-0.1,2.1-0.3c0.5-0.2,1.4-0.5,1.7-0.9c0-0.1,0.1-0.3,0.1-0.5c0,0,0-0.1,0-0.1c-0.1,0-0.3,0-0.5,0
					c-0.5,0-1.2,0.1-2,0.2c-0.1,0-0.2,0-0.3,0c-0.7,0-1.4-0.4-1.7-1c-0.4-0.7-0.3-1.6,0.2-2.2c1.8-2.3,6.7-8.6,7.8-11
					c0-0.1,0.1-0.2,0.1-0.2c0-0.1,0-0.2,0-0.2c-0.2-0.2-0.3-0.4-0.4-0.7c-0.3-0.7-0.2-1.5,0.3-2c0,0,0,0,0,0c-2.8,0-9.4,3-13.7,5.7
					l-1.2,0.8c-4,2.5-7.2,4.5-8.7,8.3c-0.6,1.4-0.6,2.6-0.2,3.3c0.4,0.5,1,0.7,1.5,0.7c2.1,0,6.2,0,6.2,0c1,0,1.8,0.7,2,1.7
					s-0.4,1.9-1.3,2.2c-0.3,0.1-8.4,3.3-7.5,18.9c0.1,0.9-0.6,1.8-1.5,2C119.9,167.1,119.7,167.1,119.6,167.1z"/>
				<path class="st1" d="M151.9,105.5L151.9,105.5 M151.9,105.5c0,2.3-0.2,7.9-0.6,14.3c-0.8,9.9-2.4,21.7-5.5,25.9
					c-4.3,5.7-9.8,8.9-14.6,11.4c-1,0.5-1.9,1-2.8,1.5c0,0-1-1.4-0.9-3.2c0-0.1,0-0.2,0-0.3c0-0.2,0-0.3,0-0.5
					c0.1-0.9,0.3-1.9,0.7-3.1c0.1-0.2,0.1-0.3,0.2-0.5c0.6-1.2,1.4-2.6,2.9-3.9c3.3-3.1,5.8-2.2,8.6-3c1.8-0.5,2.5-1.3,2.9-2
					c0.2-0.4,0.2-0.8,0.3-1.1c0.1-0.9,0.7-2.4-2.5-2.4c-0.6,0-1.4,0.1-2.3,0.2c0,0,6.6-8.3,8.1-11.4c0.2-0.4,0.3-0.7,0.3-0.9
					c0-1.9-0.6-1.9-0.6-1.9s0,0,0.1-0.1c0.4-0.6,1.7-2.8-1-3.2c0,0,0,0,0,0c-0.2,0-0.3,0-0.5,0c-3.4,0-10.4,3.2-14.8,6
					c-4.7,2.9-8.8,5.2-10.7,10.1c-1.9,4.9,1.1,6.7,3.2,6.7c2.1,0,6.2,0,6.2,0s-9.8,3.4-8.9,20.9c-7.2-13.3-6.2-24.3-3.2-29.9
					c5.5-10.1,7.9-10.2,19.7-16.8C147.9,111.8,151.9,105.5,151.9,105.5 M151.9,101.5c-0.1,0-0.3,0-0.4,0c-0.7,0.1-1.4,0.3-2,0.8
					c-0.3,0.2-0.5,0.5-0.8,0.7c-0.1,0.1-0.2,0.2-0.3,0.4c-0.2,0.4-4.1,5.9-14.4,11.6c-1.7,0.9-3.2,1.8-4.5,2.5
					c-8.1,4.4-11.4,6.2-16.7,15.9c-3.6,6.7-4.7,19.1,3.2,33.7c0.7,1.3,2.1,2.1,3.5,2.1c0.4,0,0.7,0,1.1-0.2c1.8-0.5,3-2.2,2.9-4.1
					c-0.1-2.6,0-4.7,0.3-6.6c0.4,1.5,1.1,2.4,1.3,2.7c0.8,1.1,2,1.7,3.3,1.7c0.7,0,1.3-0.2,1.9-0.5c0.4-0.2,0.9-0.5,1.4-0.7
					c0.5-0.2,0.9-0.5,1.4-0.8c5.5-3,11.2-6.4,15.9-12.6c1.1-1.5,4.6-6.1,6.3-28c0.5-6.7,0.7-12.3,0.7-14.5c0,0,0-0.1,0-0.1
					c0-2.1-1.7-3.9-3.8-4C152,101.5,152,101.5,151.9,101.5L151.9,101.5z M151.9,109.5L151.9,109.5L151.9,109.5L151.9,109.5z
					 M122.4,140.2c0-0.2,0.1-0.7,0.3-1.3c1.2-3.1,3.6-4.7,7.9-7.4c0.4-0.3,0.8-0.5,1.2-0.8c3.6-2.3,7.7-4.1,10.4-4.9
					c0,0.1,0.1,0.2,0.1,0.4c0,0,0,0.1,0.1,0.1c-1.3,2.3-5,7.2-7.3,10c-1,1.3-1.2,3.1-0.3,4.5c0,0,0,0,0,0.1c-0.9,0.2-1.9,0.5-3,1
					c-0.8-1-2-1.7-3.3-1.7C128.4,140.2,124.6,140.2,122.4,140.2L122.4,140.2z"/>
			</g>
		</g>
		
			<linearGradient id="SVGID_1_" gradientUnits="userSpaceOnUse" x1="34.6343" y1="1253.4795" x2="-9.6575" y2="1289.7944" gradientTransform="matrix(1 0 0 1 118.3203 -1135.6992)">
			<stop  offset="0" style="stop-color:#000000"/>
			<stop  offset="0.4778" style="stop-color:#000000;stop-opacity:0"/>
		</linearGradient>
		<path class="st2" d="M142.9,125.5c0,0-10.6,2.9-18.4,12.6c0,0,1.3,1.1,7.9,0.6L142.9,125.5z"/>
		
			<linearGradient id="SVGID_2_" gradientUnits="userSpaceOnUse" x1="43.9045" y1="1243.2847" x2="-11.9786" y2="1318.4276" gradientTransform="matrix(1 0 0 1 118.3203 -1135.6992)">
			<stop  offset="0" style="stop-color:#000000;stop-opacity:0.2"/>
			<stop  offset="0.4877" style="stop-color:#000000;stop-opacity:0"/>
			<stop  offset="0.9373" style="stop-color:#000000;stop-opacity:0.8777"/>
			<stop  offset="1" style="stop-color:#000000"/>
		</linearGradient>
		<path class="st3" d="M145.7,145.7c5.1-6.9,6.2-34.4,6.2-40.3l0,0c-1,4-3.5,11.8-6.8,15.9c3.1,0.4,0.9,3.3,0.9,3.3s0.6,0,0.6,1.9
			c0,1.9-8.4,12.3-8.4,12.3c5.7-0.8,4.9,1.2,4.8,2.2s-0.4,2.3-3.2,3.1c-2.8,0.8-5.3-0.2-8.6,3c-3.3,3.1-3.7,6.1-3.8,8.1
			c-0.1,2,0.9,3.5,0.9,3.5C133.6,155.8,140.6,152.7,145.7,145.7z"/>
		
			<linearGradient id="SVGID_3_" gradientUnits="userSpaceOnUse" x1="42.4819" y1="1227.8616" x2="-20.5812" y2="1330.0793" gradientTransform="matrix(1 0 0 1 118.3203 -1135.6992)">
			<stop  offset="0" style="stop-color:#000000"/>
			<stop  offset="0.4877" style="stop-color:#000000;stop-opacity:0"/>
			<stop  offset="1" style="stop-color:#000000"/>
		</linearGradient>
		<path class="st4" d="M151.9,105.5c0,0-4,6.3-15.8,13c-11.7,6.5-14.2,6.6-19.7,16.8c-3,5.6-4,16.6,3.2,29.9
			c-1-17.5,8.9-20.9,8.9-20.9s-4.1,0-6.2,0c-2.1,0-5.1-1.9-3.2-6.7c1.9-4.9,6-7.1,10.7-10.1c4.7-2.9,12.2-6.4,15.3-6s1,3.3,1,3.3
			s0.6,0,0.6,1.9c0,1.9-8.4,12.3-8.4,12.3c5.7-0.8,4.9,1.2,4.8,2.2s-0.4,2.3-3.2,3.1c-2.8,0.8-5.3-0.2-8.6,3
			c-3.3,3.1-3.7,6.1-3.8,8.1c-0.1,2,0.9,3.5,0.9,3.5c5.3-2.9,12.2-6.1,17.4-13C150.9,138.9,151.9,111.3,151.9,105.5z"/>
	</g>
</g>
</svg>
