<?xml version="1.0" encoding="utf-8"?>
<!-- Generator: Adobe Illustrator 22.0.1, SVG Export Plug-In . SVG Version: 6.00 Build 0)  -->
<svg version="1.1" id="Layer_1" xmlns="http://www.w3.org/2000/svg" xmlns:xlink="http://www.w3.org/1999/xlink" x="0px" y="0px"
	 viewBox="0 0 1103.6 695.1" style="enable-background:new 0 0 1103.6 695.1;" xml:space="preserve">
<style type="text/css">
	.st0{fill:#707070;}
</style>
<g id="Vibration">
	<path class="st0" d="M690.9,13.4H411.7c-15.5,0-28,12.5-28,28v613.1c0,15.5,12.5,28,28,28h279.2c15.5,0,28-12.5,28-28V41.5
		C718.9,26,706.4,13.4,690.9,13.4z M501,30.4h100.4c2.5,0,4.6,2.1,4.6,4.6c0,2.5-2.1,4.6-4.6,4.6H501c-2.5,0-4.6-2.1-4.6-4.6
		C496.4,32.5,498.3,30.4,501,30.4z M586.1,664h-69.9c-11,0-19.8-8.9-19.8-19.8s8.9-19.8,19.8-19.8h69.9c11,0,19.8,8.9,19.8,19.8
		S597,664,586.1,664z M691.5,578.9c0,15.5-12.5,28-28,28H439.1c-15.5,0-28-12.5-28-28V87.4c0-15.5,12.5-28,28-28h224.4
		c15.5,0,28,12.5,28,28V578.9z"/>
	<g>
		<g>
			<path class="st0" d="M356,627.9c-1.8,0-3.7-0.8-5-2.2l-117.3-135c-2.1-2.5-2.1-6,0-8.5L347,349.6L234.3,243
				c-2.3-2.2-2.7-5.9-0.8-8.5L350.8,71c2.1-2.9,6.1-3.7,9.1-1.4c2.9,2.1,3.7,6.1,1.4,9.1l-114,158.9l113.1,107
				c2.5,2.3,2.7,6.4,0.5,9L247.4,486.3L361,617c2.3,2.7,2.1,6.8-0.7,9.3C359.2,627.3,357.6,627.9,356,627.9z"/>
			<path class="st0" d="M268.8,612.6c-1.8,0-3.5-0.7-4.8-2.1L146.7,482.4c-2.2-2.5-2.3-6.3,0-8.7l112.8-125.2L147,247.7
				c-2.5-2.2-2.9-6.1-0.9-8.7L263.5,83.8c2.2-2.9,6.3-3.4,9.1-1.3c2.9,2.2,3.4,6.3,1.3,9.1L160.2,242l112.8,101.1
				c1.3,1.2,2.1,2.7,2.2,4.6c0.1,1.7-0.5,3.4-1.7,4.7L160.2,478.1l113.2,123.7c2.5,2.6,2.2,6.8-0.4,9.3
				C271.9,612.1,270.3,612.6,268.8,612.6z"/>
		</g>
		<g>
			<path class="st0" d="M746.5,627.9c-1.6,0-3-0.5-4.3-1.6c-2.7-2.3-3-6.5-0.7-9.3l113.6-130.7L741.5,353.4c-2.2-2.6-2.1-6.7,0.5-9
				l113.1-107L741.2,78.5c-2.1-2.9-1.4-7,1.4-9.1c2.9-2.1,7-1.4,9.1,1.4l117.3,163.6c2,2.6,1.6,6.3-0.8,8.5L755.6,349.5l113.1,132.7
				c2.1,2.5,2.1,6.1,0,8.5l-117.3,135C750.1,627.1,748.3,627.9,746.5,627.9z"/>
			<path class="st0" d="M833.9,612.6c-1.6,0-3.1-0.5-4.4-1.7c-2.6-2.5-2.9-6.5-0.4-9.3L942.3,478L828.9,352.2
				c-1.2-1.3-1.7-3-1.7-4.7c0.1-1.7,0.9-3.4,2.2-4.6l112.8-101.1L828.6,91.7c-2.2-2.9-1.6-6.9,1.3-9.1s6.9-1.6,9.1,1.3L956.3,239
				c2.1,2.7,1.7,6.5-0.9,8.7L843,348.4l112.8,125.2c2.2,2.5,2.2,6.3,0,8.7L838.7,610.5C837.4,611.8,835.6,612.6,833.9,612.6z"/>
		</g>
	</g>
</g>
</svg>
