<?xml version="1.0" encoding="utf-8"?>
<!-- Generator: Adobe Illustrator 22.0.1, SVG Export Plug-In . SVG Version: 6.00 Build 0)  -->
<svg version="1.1" id="Layer_1" xmlns="http://www.w3.org/2000/svg" xmlns:xlink="http://www.w3.org/1999/xlink" x="0px" y="0px"
	 viewBox="0 0 755.1 765.8" style="enable-background:new 0 0 755.1 765.8;" xml:space="preserve">
<style type="text/css">
	.st0{fill:url(#SVGID_1_);stroke:#262828;stroke-miterlimit:10;}
	.st1{fill:url(#SVGID_2_);}
	.st2{fill:url(#SVGID_3_);}
	.st3{fill:#76CC24;}
	.st4{fill:url(#SVGID_4_);}
	.st5{fill:#6BB821;}
	.st6{fill:none;stroke:#5C9E1D;stroke-linecap:round;stroke-miterlimit:10;}
	.st7{fill:none;stroke:#2CBAE5;stroke-linejoin:round;stroke-miterlimit:10;}
	.st8{fill:url(#SVGID_5_);}
	.st9{opacity:0.36;}
	.st10{fill:none;stroke:#5C9E1D;stroke-linejoin:round;stroke-miterlimit:10;}
	.st11{opacity:0.67;fill:url(#SVGID_6_);}
	.st12{fill:#1E1E1F;}
	.st13{fill:#D1B531;}
	.st14{fill:#AD1836;}
	.st15{fill:#242222;}
	.st16{fill:url(#SVGID_7_);}
	.st17{fill:#76CC24;stroke:#5C9E1D;stroke-miterlimit:10;}
	.st18{fill:url(#SVGID_8_);}
	.st19{fill:url(#SVGID_9_);}
	.st20{fill:#76CC24;stroke:#76CC24;stroke-miterlimit:10;}
	.st21{fill:none;stroke:#5C9E1D;stroke-linecap:round;stroke-linejoin:round;stroke-miterlimit:10;}
	.st22{opacity:0.5;fill:url(#SVGID_10_);}
	.st23{fill:url(#SVGID_11_);stroke:#5C9E1D;stroke-linecap:round;stroke-linejoin:round;stroke-miterlimit:10;}
	.st24{fill:#136B8E;}
</style>
<g>
	<g id="AirQ_1_">
		<g id="Antena_5_">
			<path id="Antena_6_" d="M457.6,411.8c-1.4-2.3-34.6-35.5-34.6-35.5l-47.1-45.5l-19.7-18.1c0,0-0.7-0.1-1.1-0.5c-0.4-0.5,0-1,0-1
				l-12-12c0,0-0.9,0-1.4-0.5s0-0.9,0-0.9L233.3,192.6l-29-25.6c0,0-30.1-25.2-41.7-33.5c-11.6-8.3-17-13.4-25.2-20.6
				c-8.2-7.2-72.8-72.1-72.8-72.1s-0.6,0.6-1.1,0c-0.5-0.6,0-1.3,0-1.3l-5.6-5.3c0,0-0.6,0.6-1.1,0c-0.5-0.6,0-1.3,0-1.3
				S32.1,6.8,27,6.2c-5.1-0.6-8.2,1.6-10.1,3.8l401.5,398.3L16.9,9.9c-2.2,2-4.4,5-3.7,10.1c0.6,5.1,26.7,29.6,26.7,29.6
				s0.6-0.5,1.3,0s0,1.1,0,1.1l5.3,5.6c0,0,0.6-0.5,1.3,0c0.6,0.5,0,1.1,0,1.1s64.7,64.7,71.9,73c7.2,8.2,12.3,13.7,20.6,25.3
				c8.2,11.6,33.4,41.8,33.4,41.8l25.2,26.6l105.5,105c0,0,0.4-0.5,0.9,0c0.5,0.5,0.5,1.4,0.5,1.4l12,12c0,0,0.5-0.4,1,0
				c0.5,0.4,0.5,1.1,0.5,1.1l64.4,64.8c4.5,2.3,7.5,1.4,7.5,1.4l13.2,13.6l0.2,16h-3.8c-3.8,1.6-2.8,4.1-2.8,4.1v36.5
				c17.3,2.8,30.7,2.6,39.4,1.8c7.4-0.7,11.3-1.8,11.3-1.8l-0.3-0.8l0.3,0l-0.9-37.7c0,0-0.9-2.6-2.4-2.9c-1.6-0.3-4.7,0-4.7,0v-5.9
				c0,0,5.1-3.5,9.2-7.8C453.8,420.6,459,414.1,457.6,411.8z"/>
			<radialGradient id="SVGID_1_" cx="427.4228" cy="402.529" r="10.5868" gradientUnits="userSpaceOnUse">
				<stop  offset="0" style="stop-color:#FCFCFC"/>
				<stop  offset="1" style="stop-color:#FCFCFC;stop-opacity:0"/>
			</radialGradient>
			<circle class="st0" cx="425.9" cy="415.2" r="6.1"/>
			<linearGradient id="SVGID_2_" gradientUnits="userSpaceOnUse" x1="239.0186" y1="211.0169" x2="231.013" y2="219.0225">
				<stop  offset="0" style="stop-color:#FCFCFC;stop-opacity:0"/>
				<stop  offset="0.5297" style="stop-color:#FCFCFC;stop-opacity:0.1"/>
				<stop  offset="1" style="stop-color:#FCFCFC;stop-opacity:0"/>
			</linearGradient>
			<polygon class="st1" points="18.6,9.1 16.3,12 441.2,431.3 455.9,415.7 			"/>
			<linearGradient id="SVGID_3_" gradientUnits="userSpaceOnUse" x1="420.9525" y1="441.501" x2="434.6808" y2="440.5026">
				<stop  offset="0" style="stop-color:#FCFCFC;stop-opacity:0"/>
				<stop  offset="0.5243" style="stop-color:#FCFCFC;stop-opacity:0.1"/>
				<stop  offset="1" style="stop-color:#FCFCFC;stop-opacity:0"/>
			</linearGradient>
			<polygon class="st2" points="417.1,404.2 442.3,430 433.8,478.1 417.4,478.1 			"/>
		</g>
		<g id="Corp_2_">
			<path id="corp_2_" class="st3" d="M738.1,476v-31c0,0,2.4-29.9-89.4-29.9s-83.1,30.4-83.1,30.4l-0.2,22.8l-11.1,0.9h-20.1
				l-240.3,14l-32.7,4.9h-8c0,0-2.4-0.3-4.9,3.1c-2.4,3.5-6.6,39.3-6.6,39.3l-2.8,156.9l7.2,9.5l0.5,18.8c0,0,17.9,27.8,23.2,27.8
				c5.2,0,310.5-20.4,310.5-20.4l6.3,5.2l33,1c0,0,24.3,6.6,51.8,2.8c27.5-3.8,39-6.3,48.7-25l4.5-219.1
				C724.5,488.2,735,484.7,738.1,476z"/>
			<linearGradient id="SVGID_4_" gradientUnits="userSpaceOnUse" x1="561.4226" y1="600.4204" x2="592.5314" y2="600.4204">
				<stop  offset="5.405406e-03" style="stop-color:#000000"/>
				<stop  offset="1" style="stop-color:#000000;stop-opacity:0"/>
			</linearGradient>
			<polygon class="st4" points="587,503 580.4,722.8 587,728.7 601.4,729.2 605.9,602.7 595.6,489.4 582.5,471.6 574.8,483.8 			"/>
			<g id="int_x2B_linii_2_">
				<g id="int-linii_2_">
					<polygon class="st5" points="293.9,483.3 262.1,487.6 277.8,513.9 301.7,495 					"/>
					<polygon class="st5" points="541.8,480.8 572.5,498.7 554.2,469.3 534.1,469.3 					"/>
					<polygon class="st5" points="541.8,480.8 301.7,495 277.8,513.9 572.5,498.7 					"/>
				</g>
				<g id="linii_2_">
					<polyline class="st6" points="293.9,483.3 301.7,495.2 277.3,513.9 					"/>
					<polyline class="st6" points="534.1,469.3 542,481 572.4,498.6 					"/>
					<line class="st6" x1="542" y1="481" x2="301.7" y2="495.2"/>
					<polyline class="st6" points="554.2,469.3 572.4,498.7 277.3,513.9 262.4,488.1 					"/>
				</g>
			</g>
			<g id="int-linii_x2B_stanga_2_">
				<g id="Int_2_">
					<polygon class="st5" points="265.8,521.6 247.1,495.9 241.8,529.9 249.4,545.8 					"/>
					<polygon class="st5" points="238.9,687.8 246.8,698.3 264.6,732.1 264.4,740.7 241.9,710.7 242.2,699.2 					"/>
					<polygon class="st5" points="249.4,546.2 246.8,698.3 264.6,732.1 265.8,521.9 					"/>
				</g>
				<g id="Linii_3_">
					<polyline class="st6" points="241.8,529.9 249.4,546.2 246.8,698.3 238.9,687.8 					"/>
					<line class="st6" x1="265.8" y1="521.9" x2="249.4" y2="546.2"/>
					<line class="st6" x1="246.8" y1="698.3" x2="264.6" y2="740.1"/>
					<path class="st7" d="M247.1,496.2"/>
					<polyline class="st6" points="247.1,496.2 265.8,521.9 264.6,740.1 					"/>
				</g>
			</g>
			<linearGradient id="SVGID_5_" gradientUnits="userSpaceOnUse" x1="640.9553" y1="604.5646" x2="773.1358" y2="604.5646">
				<stop  offset="0" style="stop-color:#000000;stop-opacity:0"/>
				<stop  offset="0.2919" style="stop-color:#FCFCFC;stop-opacity:5.000000e-02"/>
				<stop  offset="0.3208" style="stop-color:#EEEEEE;stop-opacity:5.467934e-02"/>
				<stop  offset="0.3758" style="stop-color:#C8C8C8;stop-opacity:6.357726e-02"/>
				<stop  offset="0.4511" style="stop-color:#8B8B8B;stop-opacity:7.576807e-02"/>
				<stop  offset="0.5428" style="stop-color:#383838;stop-opacity:9.061444e-02"/>
				<stop  offset="0.6008" style="stop-color:#000000;stop-opacity:0.1"/>
				<stop  offset="1" style="stop-color:#000000;stop-opacity:0.9"/>
			</linearGradient>
			<path class="st8" d="M724.4,475.6L720,707.3c0,0-6.3,13-14.7,16.6s-30.6,10.2-48,9.6s-37.1-3.7-37.1-3.7v-249L724.4,475.6z"/>
			<g id="Linii-fata_2_" class="st9">
				<polyline class="st10" points="251.8,488.1 271.9,518 587,503 580.4,722.8 271.2,743.2 271.9,518 				"/>
				<line class="st6" x1="587" y1="503" x2="563.4" y2="468.5"/>
			</g>
			<path id="Contur_2_" class="st6" d="M565.3,468.4l-11.1,0.9h-20.1l-240.3,14l-31.8,4.3l-10.3,0.5c0,0-3.8,2-4.7,7.8l-5.3,34
				l-2.9,157.9l3,10.4l0,12.5l22.5,30l4.3,3l2.5-0.5"/>
			<linearGradient id="SVGID_6_" gradientUnits="userSpaceOnUse" x1="590.3959" y1="607.8716" x2="647.8951" y2="607.4276">
				<stop  offset="0" style="stop-color:#000000;stop-opacity:0"/>
				<stop  offset="0.5189" style="stop-color:#000000;stop-opacity:0.1"/>
				<stop  offset="1" style="stop-color:#000000;stop-opacity:0"/>
			</linearGradient>
			<path class="st11" d="M571.3,481.9c0,0,57,14.8,103.3,9.7L666.2,733c0,0-14.4,1.2-26.3,0c-8.5-0.5-19.7-3.2-19.7-3.2l-34.1-1.1
				L571.3,481.9z"/>
		</g>
		<g id="AirQ_2_">
			<path class="st12" d="M429,628.3h-7.6c-7.5,0-7.5,0-7.5-7.5l0,0c0-7.5,0-7.5,7.5-7.5h7.6c7.5,0,7.5,0,7.5,7.5l0,0
				C436.5,628.3,436.5,628.3,429,628.3z"/>
			<rect x="418.3" y="613.8" class="st13" width="1.1" height="2.4"/>
			<rect x="421.7" y="613.8" class="st13" width="1.1" height="2.4"/>
			<rect x="424.5" y="613.8" class="st13" width="1.1" height="2.4"/>
			<rect x="427.9" y="613.8" class="st13" width="1.1" height="2.4"/>
			<rect x="430.5" y="613.8" class="st13" width="1.1" height="2.4"/>
			<rect x="418.5" y="625.4" class="st13" width="1.1" height="2.4"/>
			<rect x="421.9" y="625.4" class="st13" width="1.1" height="2.4"/>
			<rect x="424.7" y="625.4" class="st13" width="1.1" height="2.4"/>
			<rect x="428.1" y="625.4" class="st13" width="1.1" height="2.4"/>
			<rect x="430.7" y="625.4" class="st13" width="1.1" height="2.4"/>
			
				<rect x="433.3" y="616.7" transform="matrix(-1.836970e-16 1 -1 -1.836970e-16 1051.7546 184.063)" class="st13" width="1.1" height="2.4"/>
			
				<rect x="433.3" y="619.7" transform="matrix(-1.836970e-16 1 -1 -1.836970e-16 1054.719 187.0273)" class="st13" width="1.1" height="2.4"/>
			
				<rect x="433.3" y="622.6" transform="matrix(-1.836970e-16 1 -1 -1.836970e-16 1057.6833 189.9916)" class="st13" width="1.1" height="2.4"/>
			
				<rect x="416" y="616.2" transform="matrix(-1.836970e-16 1 -1 -1.836970e-16 1033.938 200.7814)" class="st13" width="1.1" height="2.4"/>
			
				<rect x="416" y="619.1" transform="matrix(-1.836970e-16 1 -1 -1.836970e-16 1036.9022 203.7458)" class="st13" width="1.1" height="2.4"/>
			
				<rect x="416" y="622.1" transform="matrix(-1.836970e-16 1 -1 -1.836970e-16 1039.8666 206.7101)" class="st13" width="1.1" height="2.4"/>
			<rect x="416.9" y="615.7" class="st14" width="16.5" height="10.2"/>
			<rect x="419.7" y="617.7" class="st15" width="2" height="6.2"/>
			<rect x="419.7" y="617.7" class="st15" width="2" height="6.2"/>
			<rect x="428.6" y="617.7" class="st15" width="2" height="6.2"/>
		</g>
		<g id="capac-bg_2_">
			
				<radialGradient id="SVGID_7_" cx="677.3761" cy="474.901" r="117.1351" fx="631.1527" fy="478.3265" gradientTransform="matrix(0.8854 0 0 0.308 65.1341 328.623)" gradientUnits="userSpaceOnUse">
				<stop  offset="5.405406e-03" style="stop-color:#000000"/>
				<stop  offset="1" style="stop-color:#000000;stop-opacity:0"/>
			</radialGradient>
			<path class="st16" d="M571.3,465.5v16.4c0,0,24.1,40,85.2,36.9s68.3-15.7,68.3-15.7l-0.5-33c0,0-19.1,19-79.8,16.2
				C583.9,483.4,571.3,465.5,571.3,465.5z"/>
			<path class="st17" d="M564.7,441.1v36.3c0,0,27.2,24.5,96.2,21.3s77.1-22.7,77.1-22.7v-33.8c0,0-22.1,26.8-90.7,24
				S564.7,441.1,564.7,441.1z"/>
			<linearGradient id="SVGID_8_" gradientUnits="userSpaceOnUse" x1="480.9964" y1="470.0242" x2="654.3416" y2="470.0242">
				<stop  offset="0" style="stop-color:#000000;stop-opacity:0"/>
				<stop  offset="0.5189" style="stop-color:#000000;stop-opacity:0.1"/>
				<stop  offset="1" style="stop-color:#000000;stop-opacity:0"/>
			</linearGradient>
			<path class="st18" d="M564.7,441.1v36.3c0,0,27.2,24.5,96.2,21.3s77.1-22.7,77.1-22.7v-33.8c0,0-22.1,26.8-90.7,24
				S564.7,441.1,564.7,441.1z"/>
			<linearGradient id="SVGID_9_" gradientUnits="userSpaceOnUse" x1="666.7526" y1="470.0242" x2="840.0977" y2="470.0242">
				<stop  offset="0" style="stop-color:#FCFCFC;stop-opacity:0.1"/>
				<stop  offset="3.629658e-02" style="stop-color:#E2E2E2;stop-opacity:0.1"/>
				<stop  offset="0.1391" style="stop-color:#9E9E9E;stop-opacity:0.1"/>
				<stop  offset="0.2367" style="stop-color:#666666;stop-opacity:0.1"/>
				<stop  offset="0.3261" style="stop-color:#3A3A3A;stop-opacity:0.1"/>
				<stop  offset="0.4057" style="stop-color:#1A1A1A;stop-opacity:0.1"/>
				<stop  offset="0.4727" style="stop-color:#070707;stop-opacity:0.1"/>
				<stop  offset="0.5189" style="stop-color:#000000;stop-opacity:0.1"/>
				<stop  offset="1" style="stop-color:#000000;stop-opacity:0.9"/>
			</linearGradient>
			<path class="st19" d="M564.7,441.1v36.3c0,0,27.2,24.5,96.2,21.3s77.1-22.7,77.1-22.7v-33.8c0,0-22.1,26.8-90.7,24
				S564.7,441.1,564.7,441.1z"/>
			<path class="st20" d="M649.2,414.4c79.5,0,88.9,26.7,88.9,26.7s-18.3,29.7-86.7,27.4c-68.4-2.3-86.7-28.9-86.7-28.9
				S569.7,414.4,649.2,414.4z"/>
			<path class="st21" d="M738.1,441.5c0,11.5-30.7,28.9-82.9,28.9c-53.5,0-90.5-19.3-90.5-30.9c0-11.5,26.7-25.2,87.5-25.2
				C704.7,414.4,738.1,430,738.1,441.5z"/>
			<path class="st20" d="M733.1,439.6c0,11.5-35.6,25.9-77.4,25.9s-85.3-16-84.4-27.5c1.1-14.5,42.5-23.6,84.3-23.6
				S733.1,425.3,733.1,439.6z"/>
			
				<radialGradient id="SVGID_10_" cx="654.9839" cy="427.4522" r="76.2436" gradientTransform="matrix(1 0 0 0.4376 0 240.3805)" gradientUnits="userSpaceOnUse">
				<stop  offset="0" style="stop-color:#000000;stop-opacity:0.1"/>
				<stop  offset="8.902892e-02" style="stop-color:#070707;stop-opacity:0.1"/>
				<stop  offset="0.2181" style="stop-color:#1A1A1A;stop-opacity:0.1"/>
				<stop  offset="0.3716" style="stop-color:#3A3A3A;stop-opacity:0.1"/>
				<stop  offset="0.5439" style="stop-color:#666666;stop-opacity:0.1"/>
				<stop  offset="0.7319" style="stop-color:#9E9E9E;stop-opacity:0.1"/>
				<stop  offset="0.9301" style="stop-color:#E2E2E2;stop-opacity:0.1"/>
				<stop  offset="1" style="stop-color:#FCFCFC;stop-opacity:0.1"/>
			</radialGradient>
			<path class="st22" d="M733.1,439.6c0,11.5-35.6,25.9-77.4,25.9s-85.3-16-84.4-27.5c1.1-14.5,42.5-23.6,84.3-23.6
				S733.1,425.3,733.1,439.6z"/>
			
				<radialGradient id="SVGID_11_" cx="679.9857" cy="437.7963" r="83.1808" gradientTransform="matrix(1 0 0 0.191 0 354.1645)" gradientUnits="userSpaceOnUse">
				<stop  offset="5.405406e-03" style="stop-color:#5C9E1D;stop-opacity:0.5"/>
				<stop  offset="1" style="stop-color:#5C9E1D"/>
			</radialGradient>
			<ellipse class="st23" cx="653.1" cy="429.1" rx="36.3" ry="7.8"/>
		</g>
	</g>
	<g id="LoRa-Full_4_">
		<g id="semnale_4_">
			<g>
				<path class="st24" d="M305.6,710.2c0,0-3-2.4-7.8-2.3c-4.8,0.1-7.4,2.2-7.4,2.2l-1.1-1.4c0,0,3.1-2.6,8.4-2.6s8.9,2.7,8.9,2.7
					L305.6,710.2z"/>
				<path class="st24" d="M303.8,712.7c0,0-2.2-1.8-5.9-1.8c-3.8,0-5.6,1.6-5.6,1.6l-0.8-1.1c0,0,2.3-2,6.5-2c4.2,0,6.8,2.2,6.8,2.2
					L303.8,712.7z"/>
				<path class="st24" d="M302,715c0,0-1.3-1.2-4.1-1.1S294,715,294,715l-0.7-0.8c0,0,1.6-1.4,4.7-1.4s4.9,1.5,4.9,1.5L302,715z"/>
			</g>
			<g>
				<path class="st24" d="M290.4,733.4c0,0,3,2.4,7.8,2.3c4.8-0.1,7.4-2.2,7.4-2.2l1.1,1.4c0,0-3.1,2.6-8.4,2.6s-8.9-2.7-8.9-2.7
					L290.4,733.4z"/>
				<path class="st24" d="M292.2,730.8c0,0,2.2,1.8,5.9,1.8c3.8,0,5.6-1.6,5.6-1.6l0.8,1.1c0,0-2.3,2-6.5,2c-4.2,0-6.8-2.2-6.8-2.2
					L292.2,730.8z"/>
				<path class="st24" d="M293.9,728.5c0,0,1.3,1.2,4.1,1.1c2.8,0,3.9-1.1,3.9-1.1l0.7,0.8c0,0-1.6,1.4-4.7,1.4s-4.9-1.5-4.9-1.5
					L293.9,728.5z"/>
			</g>
		</g>
		<g id="LoRa_4_">
			<path d="M281.9,712.7h3.5v11.4h5.7v3h-9.2V712.7z"/>
			<path d="M303.7,721.6c0,3.8-2.7,5.8-5.8,5.8c-3.3,0-5.7-2.2-5.7-5.6c0-3.4,2.3-5.6,5.9-5.6C301.6,716.1,303.7,718.4,303.7,721.6z
				 M295.4,721.8c0,2.1,0.8,3.3,2.6,3.3c1.7,0,2.6-1,2.6-3.3c0-1.7-0.5-3.3-2.6-3.3C295.9,718.4,295.4,719.9,295.4,721.8z"/>
			<path d="M305.8,712.8c0,0,6.7-0.2,8.4-0.1c2.3,0.1,3.9,2.2,3.9,4.3c0,3.1-1.6,3.9-3,4.3v0.1c0.8,1.2,3,5.1,3.3,5.7h-4
				c-0.2-0.4-2.9-5.2-2.9-5.2l-2.2,0v5.2l-3.6-0.1V712.8z M309.3,719.3c3.6,0.1,5.3,0.4,5.3-2c0-2.3-1.6-2-5.3-1.9V719.3z"/>
			<path d="M326.7,727.1l-0.1-1.2h-0.1c-0.7,0.9-1.6,1.5-3.4,1.5c-2.4,0-3.5-1.6-3.5-3.2c0-2.7,2.3-3.9,6.6-4.1c0,0,0.5-2.3-1.6-2.2
				c-1.6,0.1-1.5,1.5-1.5,1.5h-3c0,0-0.3-3.5,4.6-3.4c4.8,0.1,4.5,1.9,4.6,4.6v3.7c0,1,0.1,2.1,0.2,2.7H326.7z M326.3,721.9
				c-2,0.6-3.4,0.5-3.6,1.9c-0.1,0.9,0.5,1.3,1.5,1.3c1.2,0,1.8-0.6,2.1-1.4C326.2,723.6,326.3,721.9,326.3,721.9z"/>
		</g>
		<g id="TM_4_">
			<path d="M329.9,716.1h-0.6v-0.2h1.4v0.2h-0.6v1.7h-0.2V716.1z"/>
			<path d="M332.5,717c0-0.3,0-0.6,0-0.8h0c-0.1,0.2-0.1,0.5-0.2,0.7l-0.3,0.9h-0.2l-0.3-0.9c-0.1-0.3-0.2-0.5-0.2-0.7h0
				c0,0.2,0,0.6,0,0.8l-0.1,0.8h-0.2l0.1-1.9h0.3l0.3,0.9c0.1,0.2,0.1,0.4,0.2,0.6h0c0.1-0.2,0.1-0.4,0.2-0.6l0.3-0.9h0.3l0.1,1.9
				h-0.2L332.5,717z"/>
		</g>
	</g>
</g>
</svg>
