<?xml version="1.0" encoding="utf-8"?>
<!-- Generator: Adobe Illustrator 22.0.1, SVG Export Plug-In . SVG Version: 6.00 Build 0)  -->
<svg version="1.1" id="Layer_1" xmlns="http://www.w3.org/2000/svg" xmlns:xlink="http://www.w3.org/1999/xlink" x="0px" y="0px"
	 viewBox="0 0 783.1 830" style="enable-background:new 0 0 783.1 830;" xml:space="preserve">
<style type="text/css">
	.st0{fill:url(#SVGID_1_);stroke:#262828;stroke-miterlimit:10;}
	.st1{fill:url(#SVGID_2_);}
	.st2{fill:url(#SVGID_3_);}
	.st3{fill:#1B1C1E;}
	.st4{fill:url(#SVGID_4_);}
	.st5{fill:#28292B;}
	.st6{fill:none;stroke:#42464A;stroke-linecap:round;stroke-miterlimit:10;}
	.st7{fill:none;stroke:#2CBAE5;stroke-linejoin:round;stroke-miterlimit:10;}
	.st8{fill:url(#SVGID_5_);}
	.st9{opacity:0.36;}
	.st10{opacity:0.67;fill:url(#SVGID_6_);}
	.st11{fill:#212224;}
	.st12{fill:url(#SVGID_7_);}
	.st13{fill:url(#SVGID_8_);}
	.st14{fill:url(#SVGID_9_);}
	.st15{fill:#26272B;}
	.st16{fill:url(#SVGID_10_);}
	.st17{opacity:0.31;}
	.st18{fill:url(#SVGID_11_);}
	.st19{fill:#1B1C1E;stroke:#42464A;stroke-miterlimit:10;}
	.st20{fill:url(#SVGID_12_);}
	.st21{fill:url(#SVGID_13_);}
	.st22{fill:#1B1C1E;stroke:#1B1C1E;stroke-miterlimit:10;}
	.st23{opacity:0.5;fill:url(#SVGID_14_);}
	.st24{fill:url(#SVGID_15_);stroke:#42464A;stroke-linecap:round;stroke-linejoin:round;stroke-miterlimit:10;}
	.st25{fill:#478096;}
	.st26{fill:#969696;}
</style>
<g>
	<g id="Current_4_">
		<g id="Antena_7_">
			<path id="Antena_8_" d="M459.5,414.5c-1.4-2.2-34.6-35.5-34.6-35.5l-47.1-45.5l-19.7-18.1c0,0-0.7-0.1-1.1-0.5c-0.4-0.5,0-1,0-1
				l-11.9-12c0,0-0.9,0-1.4-0.5s0-0.9,0-0.9L235.4,195.4l-29-25.6c0,0-30.1-25.2-41.7-33.5s-17-13.4-25.2-20.6
				c-8.2-7.2-72.8-72-72.8-72s-0.6,0.6-1.1,0c-0.5-0.6,0-1.3,0-1.3L60,37.2c0,0-0.6,0.6-1.1,0c-0.5-0.6,0-1.3,0-1.3
				S34.4,9.8,29.3,9.2c-5.1-0.6-8.2,1.6-10.1,3.8l401.1,397.9L19.2,12.9c-2.2,2-4.4,5-3.7,10.1c0.6,5.1,26.7,29.6,26.7,29.6
				s0.6-0.5,1.3,0s0,1.1,0,1.1l5.3,5.6c0,0,0.6-0.5,1.3,0c0.6,0.5,0,1.1,0,1.1s64.7,64.7,71.9,72.9c7.2,8.2,12.3,13.7,20.5,25.2
				c8.2,11.6,33.4,41.7,33.4,41.7l25.1,26.6L306.3,332c0,0,0.4-0.5,0.9,0c0.5,0.5,0.5,1.4,0.5,1.4l12,12c0,0,0.5-0.4,1,0
				c0.5,0.4,0.5,1.1,0.5,1.1l64.3,64.8c4.5,2.3,7.5,1.4,7.5,1.4l13.1,13.6l0.2,16h-3.8c-3.8,1.6-2.8,4.1-2.8,4.1v36.5
				c17.3,2.8,30.7,2.6,39.3,1.8c7.3-0.7,11.3-1.8,11.3-1.8l-0.3-0.8l0.3,0l-0.9-37.7c0,0-0.9-2.6-2.4-2.9c-1.6-0.3-4.7,0-4.7,0v-5.9
				c0,0,5.1-3.5,9.2-7.8C455.7,423.3,460.9,416.8,459.5,414.5z"/>
			<radialGradient id="SVGID_1_" cx="429.381" cy="405.2293" r="10.5783" gradientUnits="userSpaceOnUse">
				<stop  offset="0" style="stop-color:#FCFCFC"/>
				<stop  offset="1" style="stop-color:#FCFCFC;stop-opacity:0"/>
			</radialGradient>
			<circle class="st0" cx="427.9" cy="417.9" r="6.1"/>
			<linearGradient id="SVGID_2_" gradientUnits="userSpaceOnUse" x1="241.1286" y1="213.8714" x2="233.1294" y2="221.8705">
				<stop  offset="0" style="stop-color:#FCFCFC;stop-opacity:0"/>
				<stop  offset="0.5297" style="stop-color:#FCFCFC;stop-opacity:0.1"/>
				<stop  offset="1" style="stop-color:#FCFCFC;stop-opacity:0"/>
			</linearGradient>
			<polygon class="st1" points="20.9,12.1 18.6,15 443.1,433.9 457.8,418.3 			"/>
			<linearGradient id="SVGID_3_" gradientUnits="userSpaceOnUse" x1="422.916" y1="444.17" x2="436.6332" y2="443.1724">
				<stop  offset="0" style="stop-color:#FCFCFC;stop-opacity:0"/>
				<stop  offset="0.5243" style="stop-color:#FCFCFC;stop-opacity:0.1"/>
				<stop  offset="1" style="stop-color:#FCFCFC;stop-opacity:0"/>
			</linearGradient>
			<polygon class="st2" points="419.1,406.9 444.3,432.7 435.8,480.8 419.4,480.8 			"/>
		</g>
		<g id="Corp_3_">
			<path id="corp_3_" class="st3" d="M739.8,478.7v-30.9c0,0,2.4-29.9-89.3-29.9s-83.1,30.4-83.1,30.4l-0.2,22.8l-11.1,0.9H536
				L296,486l-32.7,4.9h-8c0,0-2.4-0.3-4.9,3.1c-2.4,3.5-6.6,39.3-6.6,39.3L241,690l7.1,9.5l0.5,18.8c0,0,17.9,27.8,23.1,27.8
				S582,725.8,582,725.8l6.3,5.2l33,1c0,0,24.3,6.6,51.8,2.8c27.5-3.8,38.9-6.3,48.7-25l4.5-219
				C726.2,490.8,736.7,487.4,739.8,478.7z"/>
			<linearGradient id="SVGID_4_" gradientUnits="userSpaceOnUse" x1="563.2729" y1="602.9614" x2="594.3568" y2="602.9614">
				<stop  offset="5.405406e-03" style="stop-color:#000000"/>
				<stop  offset="1" style="stop-color:#000000;stop-opacity:0"/>
			</linearGradient>
			<polygon class="st4" points="588.9,505.7 582.2,725.3 588.9,731.2 603.2,731.7 607.7,605.2 597.4,492.1 584.3,474.3 576.6,486.4 
							"/>
			<g id="int_x2B_linii_3_">
				<g id="int-linii_3_">
					<polygon class="st5" points="296,486 264.2,490.2 279.9,516.5 303.8,497.6 					"/>
					<polygon class="st5" points="543.7,483.5 574.4,501.3 556.1,471.9 536,471.9 					"/>
					<polygon class="st5" points="543.7,483.5 303.8,497.6 279.9,516.5 574.4,501.3 					"/>
				</g>
				<g id="linii_3_">
					<polyline class="st6" points="296,486 303.8,497.8 279.4,516.5 					"/>
					<polyline class="st6" points="536,471.9 543.9,483.7 574.3,501.2 					"/>
					<line class="st6" x1="543.9" y1="483.7" x2="303.7" y2="497.8"/>
					<polyline class="st6" points="556.1,471.9 574.3,501.3 279.4,516.5 264.5,490.7 					"/>
				</g>
			</g>
			<g id="int-linii_x2B_stanga_3_">
				<g id="Int_3_">
					<polygon class="st5" points="267.8,524.2 249.2,498.5 243.9,532.5 251.5,548.4 					"/>
					<polygon class="st5" points="241,690.3 248.9,700.7 266.7,734.6 266.5,743.1 244,713.2 244.3,701.7 					"/>
					<polygon class="st5" points="251.5,548.8 248.9,700.7 266.7,734.6 267.8,524.5 					"/>
				</g>
				<g id="Linii_4_">
					<polyline class="st6" points="243.9,532.5 251.5,548.8 248.9,700.7 241,690.3 					"/>
					<line class="st6" x1="267.8" y1="524.5" x2="251.5" y2="548.8"/>
					<line class="st6" x1="248.9" y1="700.7" x2="266.7" y2="742.5"/>
					<path class="st7" d="M249.2,498.9"/>
					<polyline class="st6" points="249.2,498.9 267.8,524.5 266.7,742.5 					"/>
				</g>
			</g>
			<linearGradient id="SVGID_5_" gradientUnits="userSpaceOnUse" x1="642.7415" y1="607.1022" x2="774.8157" y2="607.1022">
				<stop  offset="0" style="stop-color:#000000;stop-opacity:0"/>
				<stop  offset="0.2919" style="stop-color:#FCFCFC;stop-opacity:5.000000e-02"/>
				<stop  offset="0.3208" style="stop-color:#EEEEEE;stop-opacity:5.467934e-02"/>
				<stop  offset="0.3758" style="stop-color:#C8C8C8;stop-opacity:6.357726e-02"/>
				<stop  offset="0.4511" style="stop-color:#8B8B8B;stop-opacity:7.576807e-02"/>
				<stop  offset="0.5428" style="stop-color:#383838;stop-opacity:9.061444e-02"/>
				<stop  offset="0.6008" style="stop-color:#000000;stop-opacity:0.1"/>
				<stop  offset="1" style="stop-color:#000000;stop-opacity:0.9"/>
			</linearGradient>
			<path class="st8" d="M726.1,478.2l-4.4,231.6c0,0-6.3,13-14.7,16.6c-8.4,3.6-30.6,10.2-48,9.6c-17.4-0.6-37-3.7-37-3.7V483.5
				L726.1,478.2z"/>
			<g id="Linii-fata_3_" class="st9">
				<polyline class="st6" points="253.9,490.7 274,520.6 588.9,505.7 582.2,725.3 273.2,745.6 274,520.6 				"/>
				<line class="st6" x1="588.9" y1="505.7" x2="565.3" y2="471.2"/>
			</g>
			<path id="Contur_3_" class="st6" d="M567.2,471l-11.1,0.9H536L296,486l-31.7,4.3l-10.3,0.5c0,0-3.8,2-4.7,7.8l-5.3,34L241,690.3
				l3,10.4l0,12.5l22.5,30l4.3,3l2.5-0.5"/>
			<linearGradient id="SVGID_6_" gradientUnits="userSpaceOnUse" x1="592.223" y1="610.4066" x2="649.6758" y2="609.9629">
				<stop  offset="0" style="stop-color:#000000;stop-opacity:0"/>
				<stop  offset="0.5189" style="stop-color:#000000;stop-opacity:0.1"/>
				<stop  offset="1" style="stop-color:#000000;stop-opacity:0"/>
			</linearGradient>
			<path class="st10" d="M573.2,484.5c0,0,57,14.8,103.2,9.7l-8.5,241.2c0,0-14.4,1.2-26.3,0c-8.5-0.5-19.6-3.2-19.6-3.2l-34.1-1.1
				L573.2,484.5z"/>
		</g>
		<g id="Current_1_">
			<g id="Current">
				<path class="st11" d="M730.1,693.4l-44.4-7c0,0-0.3-2.4-0.1-4c0.2-1.6-1.6-2.9-2.6-2.9c-1,0-33.5-1.5-35.9-1.6
					c-2.4-0.2-3.4,1.6-3.4,1.6s-19-1.8-21.3-1.6c-2.3,0.2-4.1,1.8-9.7,4.9c-7.5-0.2-10.7,9.3-10.7,9.3v51.2c0,0,3.1,9.4,10.7,14.8
					c14.3,5.7,104.4,16.1,107.3,14.6c6.5-6.3,9.9-26.3,10.4-29.9c0.5-3.6,0.8-46.1,0.8-47C731.2,694.9,730.1,693.4,730.1,693.4z
					 M646.6,730.2c0,0-14.5-4.6-14.4-13.1c0.1-8.4,0-10.9,0-10.9l11.1,0.8c0,0-0.5,8.1,0.4,10.8c0.9,2.6,2.9,2.1,2.9,2.1V730.2z"/>
				
					<radialGradient id="SVGID_7_" cx="619.3975" cy="729.1929" r="43.7206" gradientTransform="matrix(0.9703 -0.242 0.1641 0.6582 -101.282 399.099)" gradientUnits="userSpaceOnUse">
					<stop  offset="0.4459" style="stop-color:#57595E;stop-opacity:0"/>
					<stop  offset="1" style="stop-color:#57595E;stop-opacity:0.9"/>
				</radialGradient>
				<path class="st12" d="M632.2,706.2c0,0-21.7-1.4-18.7,13.8c3,15.1,19.5,27.8,25.9,26.9c6.4-0.9,10.4-2.2,10.8-9.5
					c0.4-7.4-3.6-7.2-3.6-7.2s-14-4.2-14.4-12.5C632.2,709.3,632.2,706.2,632.2,706.2z"/>
				<path d="M730.1,693.4l-44.4-7c0,0-0.3-2.4-0.1-4c0.2-1.6-1.6-2.9-2.6-2.9c-1,0-33.5-1.5-35.9-1.6c-2.4-0.2-3.4,1.6-3.4,1.6
					s-0.1,0-0.1,0c-1.4,1.3-5.8,5.6-6.1,6.6c-0.3,1.3-24.8-3.4-24.8-3.4c-7.5-0.2-10.7,9.3-10.7,9.3v51.2c0,0,3.1,9.4,10.7,14.8
					c14.3,5.7,104.4,16.1,107.3,14.6c-1.7-6.6-0.6-41.5-0.1-50c0.5-8.5,4.1-19.2,5.1-21.5c1-2.3,6.3-5.3,6.3-5.3
					C731.2,694.9,730.1,693.4,730.1,693.4z M646.6,730.2c0,0-0.1,0-0.1,0c0.5,4.7-0.3,8.9-4.2,9.8c-9.8,2.3-21.2-7.7-23-19.7
					c-1.6-10.3,9.8-13.3,13-13.9c0-0.1,0-0.1,0-0.1l0.6,0c0.2,0,0.3,0,0.3,0l0.1,0.1l10.2,0.7c0,0-0.5,8.1,0.4,10.8
					c0.9,2.6,2.9,2.1,2.9,2.1V730.2z"/>
				
					<radialGradient id="SVGID_8_" cx="726.5724" cy="681.7285" r="99.8464" gradientTransform="matrix(1 0 0 0.5665 0 295.4959)" gradientUnits="userSpaceOnUse">
					<stop  offset="0" style="stop-color:#57595E;stop-opacity:0.9"/>
					<stop  offset="0.5541" style="stop-color:#57595E;stop-opacity:0"/>
				</radialGradient>
				<path class="st13" d="M730.1,693.4l-44.4-7c0,0-0.3-2.4-0.1-4c0.2-1.6-1.6-2.9-2.6-2.9c-1,0-33.5-1.5-35.9-1.6
					c-2.4-0.2-3.4,1.6-3.4,1.6s-0.1,0-0.1,0c-1.4,1.3-5.8,5.6-6.1,6.6c-0.3,1.3-24.8-3.4-24.8-3.4c-7.5-0.2-10.7,9.3-10.7,9.3v51.2
					c0,0,3.1,9.4,10.7,14.8c14.3,5.7,104.4,16.1,107.3,14.6c-1.7-6.6-0.6-41.5-0.1-50c0.5-8.5,4.1-19.2,5.1-21.5
					c1-2.3,6.3-5.3,6.3-5.3C731.2,694.9,730.1,693.4,730.1,693.4z M646.6,730.2c0,0-0.1,0-0.1,0c0.5,4.7-0.3,8.9-4.2,9.8
					c-9.8,2.3-21.2-7.7-23-19.7c-1.6-10.3,9.8-13.3,13-13.9c0-0.1,0-0.1,0-0.1l0.6,0c0.2,0,0.3,0,0.3,0l0.1,0.1l10.2,0.7
					c0,0-0.5,8.1,0.4,10.8c0.9,2.6,2.9,2.1,2.9,2.1V730.2z"/>
			</g>
			
				<radialGradient id="SVGID_9_" cx="610.871" cy="778.1725" r="62.3499" gradientTransform="matrix(0.6584 -0.7526 1.4092 1.2328 -887.9326 278.6056)" gradientUnits="userSpaceOnUse">
				<stop  offset="0" style="stop-color:#57595E;stop-opacity:0.9"/>
				<stop  offset="1" style="stop-color:#57595E;stop-opacity:0"/>
			</radialGradient>
			<path class="st14" d="M730.1,693.4l-44.4-7c0,0-0.3-2.4-0.1-4c0.2-1.6-1.6-2.9-2.6-2.9c-1,0-33.5-1.5-35.9-1.6
				c-2.4-0.2-3.4,1.6-3.4,1.6s-0.1,0-0.1,0c-1.4,1.3-5.8,5.6-6.1,6.6c-0.3,1.3-24.8-3.4-24.8-3.4c-7.5-0.2-10.7,9.3-10.7,9.3v51.2
				c0,0,3.1,9.4,10.7,14.8c14.3,5.7,104.4,16.1,107.3,14.6c-1.7-6.6-0.6-41.5-0.1-50c0.5-8.5,4.1-19.2,5.1-21.5
				c1-2.3,6.3-5.3,6.3-5.3C731.2,694.9,730.1,693.4,730.1,693.4z M646.6,730.2c0,0-0.1,0-0.1,0c0.5,4.7-0.3,8.9-4.2,9.8
				c-9.8,2.3-21.2-7.7-23-19.7c-1.6-10.3,9.8-13.3,13-13.9c0-0.1,0-0.1,0-0.1l0.6,0c0.2,0,0.3,0,0.3,0l0.1,0.1l10.2,0.7
				c0,0-0.5,8.1,0.4,10.8c0.9,2.6,2.9,2.1,2.9,2.1V730.2z"/>
			<path class="st15" d="M703,730.6c0,0,1.8-5.8,5-3c3.2,2.9,5.4,9.8,5.4,9.8s-1.5,2.2-1.9,3c-0.5,0.9-0.7,0.7-1.3,2.4
				c-0.6,1.7-0.4,4.9-1.3,6.2c-0.9,1.3-1.7,2.2-1.7,2.2s0.2,7.7-0.5,8.6c-0.8,0.9-1.9,2.9-1.9,2.9s1.2,6.6,0.3,8.9s-1.5,4.4-1.5,4.4
				s0.4,4.3-0.4,6c-0.9,1.7-3.7,9.9-10.6,12c-6.9,2.1-9.9,2.2-14.7,2.9s-9.7,1.5-17.2,1.7c-7.5,0.2-8.2,2.3-19,2.7
				c-10.8,0.4-7,1.5-18.3,2.6c-11.2,1-8.8,2.5-22.1,2.7c-13.4,0.2-3.3,2.4-21.4,2.6c-18.1,0.2-13.7,3.6-27.9,2.2
				c-14.2-1.3-3.2,0.9-17.1-0.3s-3.9,0.1-16.8-0.9c-12.9-1-8.8,0.6-20.9-2.4c-12.2-3-7.8-0.6-15.3-2.7c-7.4-2.1-8.2-1.9-14.2-4.1
				s-9.9-2.9-14.7-6c-4.8-3-2.7-1.1-8.1-4.5c-5.4-3.4-12.3-5.7-14.9-8.4c-2.6-2.7-5.2-4.9-7.3-7.9s-6-7-6-10.2s0.2-1.9-0.5-5.1
				c-0.7-3.2-0.3-0.5-0.7-6c-0.4-5.6-0.3-9.2,3.3-12.8c3.6-3.6,12.9-10.2,16.7-12.1s2.9-2.3,9-4.2c6.1-1.9,11.4-3.6,14.9-9
				c3.5-5.3,9.4-12.3,9-17.6c-0.5-5.3-1.2-11.5-0.9-14.6c0.3-3.2-2.9-9.1-3.1-12.8s-3.5-7.5-4.7-11.7s-3.6-5.3-5.2-9.2
				c-1.5-3.9-5.7-5.7-7.8-8.8s-5.8-4.3-8.1-7.6c-2.3-3.3-6.4-2-7-4.3c-0.6-2.2-5.9-3.9-5.9-3.9l8.3-3.3c0,0,6.7,2.2,8,5.9
				c1.3,3.6,9.4,5.2,11.8,8.6c2.4,3.4,5.4,7.2,9.3,12.4c0,0,2.6,4.6,4.6,7.8c2,3.2,2.1,8.2,4.8,11.6c2.7,3.4,2.3,1.5,3,6.1
				c0.7,4.6,1.9,8.1,1.5,12.6c-0.4,4.6,0.3,10.1-1.2,14.7c-1.5,4.6-3.6,15.3-8.4,19.8c-4.8,4.6-13.7,7.7-19.3,11.8
				c-5.6,4.1-22.3,9.8-22,17.1s-1.7,6,1.7,10.4c2.4,3.2,0.2,4.4,4.2,7.1c5.4,3.7,7.5,9.9,13.5,11c6,1.1,4.4,2,13.1,4.3
				s7.7,4.7,17.9,6.1c10.2,1.4,18,5.1,25.6,5.3c7.5,0.2,4.9,1.9,16.4,2.1c11.5,0.2,6.7-0.3,20.4,0.4s25.6-1.5,36.4-1.3
				c10.8,0.2,9.4,0.9,20.8-0.8c11.4-1.6,29.4-6.6,38-6.5c8.6,0.1,9.5-0.6,16-1.3s10-1.8,16.2-2.2c6.2-0.4,5.7,0.3,10.8-1.2
				c5.2-1.5,6.3-0.7,9.8-2.8c3.6-2.1,5.3-3.3,5.4-4.6c0.1-1.3,0.5-0.3-0.3-4.4c-0.8-4.1,1.5-8.2,1.9-10.1s-0.3-5.6,1-10
				c1.3-4.4,1.9-7.8,3.8-11.7S703,730.6,703,730.6z"/>
			<radialGradient id="SVGID_10_" cx="427.7567" cy="618.2653" r="24.3201" gradientUnits="userSpaceOnUse">
				<stop  offset="0" style="stop-color:#1B1C1E;stop-opacity:0.9"/>
				<stop  offset="1" style="stop-color:#1B1C1E;stop-opacity:0"/>
			</radialGradient>
			<path class="st16" d="M703,730.6c0,0,1.8-5.8,5-3c3.2,2.9,5.4,9.8,5.4,9.8s-1.5,2.2-1.9,3c-0.5,0.9-0.7,0.7-1.3,2.4
				c-0.6,1.7-0.4,4.9-1.3,6.2c-0.9,1.3-1.7,2.2-1.7,2.2s0.2,7.7-0.5,8.6c-0.8,0.9-1.9,2.9-1.9,2.9s1.2,6.6,0.3,8.9s-1.5,4.4-1.5,4.4
				s0.4,4.3-0.4,6c-0.9,1.7-3.7,9.9-10.6,12c-6.9,2.1-9.9,2.2-14.7,2.9s-9.7,1.5-17.2,1.7c-7.5,0.2-8.2,2.3-19,2.7
				c-10.8,0.4-7,1.5-18.3,2.6c-11.2,1-8.8,2.5-22.1,2.7c-13.4,0.2-3.3,2.4-21.4,2.6c-18.1,0.2-13.7,3.6-27.9,2.2
				c-14.2-1.3-3.2,0.9-17.1-0.3s-3.9,0.1-16.8-0.9c-12.9-1-8.8,0.6-20.9-2.4c-12.2-3-7.8-0.6-15.3-2.7c-7.4-2.1-8.2-1.9-14.2-4.1
				s-9.9-2.9-14.7-6c-4.8-3-2.7-1.1-8.1-4.5c-5.4-3.4-12.3-5.7-14.9-8.4c-2.6-2.7-5.2-4.9-7.3-7.9s-6-7-6-10.2s0.2-1.9-0.5-5.1
				c-0.7-3.2-0.3-0.5-0.7-6c-0.4-5.6-0.3-9.2,3.3-12.8c3.6-3.6,12.9-10.2,16.7-12.1s2.9-2.3,9-4.2c6.1-1.9,11.4-3.6,14.9-9
				c3.5-5.3,9.4-12.3,9-17.6c-0.5-5.3-1.2-11.5-0.9-14.6c0.3-3.2-2.9-9.1-3.1-12.8s-3.5-7.5-4.7-11.7s-3.6-5.3-5.2-9.2
				c-1.5-3.9-5.7-5.7-7.8-8.8s-5.8-4.3-8.1-7.6c-2.3-3.3-6.4-2-7-4.3c-0.6-2.2-5.9-3.9-5.9-3.9l8.3-3.3c0,0,6.7,2.2,8,5.9
				c1.3,3.6,9.4,5.2,11.8,8.6c2.4,3.4,5.4,7.2,9.3,12.4c0,0,2.6,4.6,4.6,7.8c2,3.2,2.1,8.2,4.8,11.6c2.7,3.4,2.3,1.5,3,6.1
				c0.7,4.6,1.9,8.1,1.5,12.6c-0.4,4.6,0.3,10.1-1.2,14.7c-1.5,4.6-3.6,15.3-8.4,19.8c-4.8,4.6-13.7,7.7-19.3,11.8
				c-5.6,4.1-22.3,9.8-22,17.1s-1.7,6,1.7,10.4c2.4,3.2,0.2,4.4,4.2,7.1c5.4,3.7,7.5,9.9,13.5,11c6,1.1,4.4,2,13.1,4.3
				s7.7,4.7,17.9,6.1c10.2,1.4,18,5.1,25.6,5.3c7.5,0.2,4.9,1.9,16.4,2.1c11.5,0.2,6.7-0.3,20.4,0.4s25.6-1.5,36.4-1.3
				c10.8,0.2,9.4,0.9,20.8-0.8c11.4-1.6,29.4-6.6,38-6.5c8.6,0.1,9.5-0.6,16-1.3s10-1.8,16.2-2.2c6.2-0.4,5.7,0.3,10.8-1.2
				c5.2-1.5,6.3-0.7,9.8-2.8c3.6-2.1,5.3-3.3,5.4-4.6c0.1-1.3,0.5-0.3-0.3-4.4c-0.8-4.1,1.5-8.2,1.9-10.1s-0.3-5.6,1-10
				c1.3-4.4,1.9-7.8,3.8-11.7S703,730.6,703,730.6z"/>
			<g class="st17">
				<path d="M722.3,729.1h0.5v1.9h0c0.1-0.2,0.2-0.3,0.3-0.4l1.2-1.5h0.6l-1.4,1.7l1.5,2.3h-0.6l-1.3-2l-0.4,0.4v1.5h-0.5V729.1z"/>
				<path d="M726.4,731.2v0.4H725v-0.4H726.4z"/>
				<path d="M727,729.1h0.5v3.5h1.6v0.4H727V729.1z"/>
			</g>
		</g>
		<g id="capac-bg_3_">
			
				<radialGradient id="SVGID_11_" cx="679.372" cy="477.543" r="117.0408" fx="633.1859" fy="480.9658" gradientTransform="matrix(0.8854 0 0 0.308 65.1341 330.4512)" gradientUnits="userSpaceOnUse">
				<stop  offset="5.405406e-03" style="stop-color:#000000"/>
				<stop  offset="1" style="stop-color:#000000;stop-opacity:0"/>
			</radialGradient>
			<path class="st18" d="M573.2,468.1v16.4c0,0,24.1,40,85.1,36.8c61-3.2,68.2-15.7,68.2-15.7l-0.5-33c0,0-19.1,19-79.7,16.2
				S573.2,468.1,573.2,468.1z"/>
			<path class="st19" d="M566.6,443.7V480c0,0,27.2,24.5,96.1,21.3c68.9-3.2,77.1-22.6,77.1-22.6v-33.8c0,0-22.1,26.8-90.6,23.9
				S566.6,443.7,566.6,443.7z"/>
			<linearGradient id="SVGID_12_" gradientUnits="userSpaceOnUse" x1="482.9115" y1="472.6702" x2="656.1171" y2="472.6702">
				<stop  offset="0" style="stop-color:#000000;stop-opacity:0"/>
				<stop  offset="0.5189" style="stop-color:#000000;stop-opacity:0.1"/>
				<stop  offset="1" style="stop-color:#000000;stop-opacity:0"/>
			</linearGradient>
			<path class="st20" d="M566.6,443.7V480c0,0,27.2,24.5,96.1,21.3c68.9-3.2,77.1-22.6,77.1-22.6v-33.8c0,0-22.1,26.8-90.6,23.9
				S566.6,443.7,566.6,443.7z"/>
			<linearGradient id="SVGID_13_" gradientUnits="userSpaceOnUse" x1="668.5181" y1="472.6702" x2="841.7237" y2="472.6702">
				<stop  offset="0" style="stop-color:#FCFCFC;stop-opacity:0.1"/>
				<stop  offset="3.629658e-02" style="stop-color:#E2E2E2;stop-opacity:0.1"/>
				<stop  offset="0.1391" style="stop-color:#9E9E9E;stop-opacity:0.1"/>
				<stop  offset="0.2367" style="stop-color:#666666;stop-opacity:0.1"/>
				<stop  offset="0.3261" style="stop-color:#3A3A3A;stop-opacity:0.1"/>
				<stop  offset="0.4057" style="stop-color:#1A1A1A;stop-opacity:0.1"/>
				<stop  offset="0.4727" style="stop-color:#070707;stop-opacity:0.1"/>
				<stop  offset="0.5189" style="stop-color:#000000;stop-opacity:0.1"/>
				<stop  offset="1" style="stop-color:#000000;stop-opacity:0.9"/>
			</linearGradient>
			<path class="st21" d="M566.6,443.7V480c0,0,27.2,24.5,96.1,21.3c68.9-3.2,77.1-22.6,77.1-22.6v-33.8c0,0-22.1,26.8-90.6,23.9
				S566.6,443.7,566.6,443.7z"/>
			<path class="st22" d="M651,417.1c79.4,0,88.8,26.7,88.8,26.7s-18.3,29.7-86.6,27.4c-68.3-2.3-86.6-28.9-86.6-28.9
				S571.5,417.1,651,417.1z"/>
			<path class="st6" d="M739.8,444.2c0,11.5-30.7,28.9-82.8,28.9c-53.4,0-90.4-19.3-90.4-30.8c0-11.5,26.7-25.2,87.4-25.2
				C706.5,417.1,739.8,432.7,739.8,444.2z"/>
			<path class="st19" d="M734.8,442.2c0,11.5-35.6,25.9-77.3,25.9s-85.2-16-84.3-27.5c1.1-14.4,42.5-23.6,84.2-23.6
				S734.8,428,734.8,442.2z"/>
			
				<radialGradient id="SVGID_14_" cx="656.759" cy="430.1324" r="76.1822" gradientTransform="matrix(1 0 0 0.4376 0 241.8878)" gradientUnits="userSpaceOnUse">
				<stop  offset="0" style="stop-color:#000000;stop-opacity:0.1"/>
				<stop  offset="8.902892e-02" style="stop-color:#070707;stop-opacity:0.1"/>
				<stop  offset="0.2181" style="stop-color:#1A1A1A;stop-opacity:0.1"/>
				<stop  offset="0.3716" style="stop-color:#3A3A3A;stop-opacity:0.1"/>
				<stop  offset="0.5439" style="stop-color:#666666;stop-opacity:0.1"/>
				<stop  offset="0.7319" style="stop-color:#9E9E9E;stop-opacity:0.1"/>
				<stop  offset="0.9301" style="stop-color:#E2E2E2;stop-opacity:0.1"/>
				<stop  offset="1" style="stop-color:#FCFCFC;stop-opacity:0.1"/>
			</radialGradient>
			<path class="st23" d="M734.8,442.2c0,11.5-35.6,25.9-77.3,25.9s-85.2-16-84.3-27.5c1.1-14.4,42.5-23.6,84.2-23.6
				S734.8,428,734.8,442.2z"/>
			
				<radialGradient id="SVGID_15_" cx="681.7405" cy="440.4682" r="83.1138" gradientTransform="matrix(1 0 0 0.191 0 356.326)" gradientUnits="userSpaceOnUse">
				<stop  offset="5.405406e-03" style="stop-color:#1B1C1E;stop-opacity:0.5"/>
				<stop  offset="1" style="stop-color:#1B1C1E"/>
			</radialGradient>
			<ellipse class="st24" cx="654.9" cy="431.7" rx="36.2" ry="7.8"/>
		</g>
	</g>
	<g id="LoRa-Full_5_">
		<g id="semnale_5_">
			<g>
				<path class="st25" d="M302,713.9c0,0-3-2.4-7.8-2.3s-7.3,2.2-7.3,2.2l-1.1-1.4c0,0,3.1-2.6,8.4-2.6s8.9,2.7,8.9,2.7L302,713.9z"
					/>
				<path class="st25" d="M300.2,716.4c0,0-2.2-1.8-5.9-1.8c-3.8,0-5.6,1.6-5.6,1.6l-0.8-1.1c0,0,2.3-2,6.5-2s6.8,2.2,6.8,2.2
					L300.2,716.4z"/>
				<path class="st25" d="M298.4,718.7c0,0-1.3-1.2-4.1-1.1c-2.8,0-3.9,1.1-3.9,1.1l-0.7-0.8c0,0,1.6-1.4,4.7-1.4
					c3.1,0,4.9,1.5,4.9,1.5L298.4,718.7z"/>
			</g>
			<g>
				<path class="st25" d="M286.8,737.1c0,0,3,2.4,7.8,2.3c4.8-0.1,7.3-2.2,7.3-2.2l1.1,1.4c0,0-3.1,2.6-8.4,2.6
					c-5.4,0-8.9-2.7-8.9-2.7L286.8,737.1z"/>
				<path class="st25" d="M288.6,734.5c0,0,2.2,1.8,5.9,1.8s5.6-1.6,5.6-1.6l0.8,1.1c0,0-2.3,2-6.5,2s-6.8-2.2-6.8-2.2L288.6,734.5z
					"/>
				<path class="st25" d="M290.4,732.2c0,0,1.3,1.2,4.1,1.1c2.8,0,3.9-1.1,3.9-1.1l0.7,0.8c0,0-1.6,1.4-4.7,1.4s-4.9-1.5-4.9-1.5
					L290.4,732.2z"/>
			</g>
		</g>
		<g id="LoRa_5_">
			<path class="st26" d="M278.3,716.4h3.5v11.4h5.7v3h-9.2V716.4z"/>
			<path class="st26" d="M300.1,725.3c0,3.8-2.7,5.8-5.8,5.8c-3.3,0-5.7-2.2-5.7-5.6c0-3.4,2.3-5.6,5.9-5.6
				C298,719.8,300.1,722.1,300.1,725.3z M291.8,725.4c0,2.1,0.8,3.3,2.6,3.3c1.7,0,2.6-1,2.6-3.3c0-1.7-0.5-3.3-2.6-3.3
				C292.3,722.1,291.8,723.6,291.8,725.4z"/>
			<path class="st26" d="M302.2,716.5c0,0,6.7-0.2,8.4-0.1c2.3,0.1,3.9,2.2,3.9,4.3c0,3.1-1.6,3.9-3,4.3v0.1c0.8,1.2,3,5.1,3.3,5.7
				h-4c-0.2-0.4-2.9-5.2-2.9-5.2l-2.2,0v5.2l-3.6-0.1V716.5z M305.7,723c3.6,0.1,5.3,0.4,5.3-2c0-2.3-1.6-2-5.3-1.9V723z"/>
			<path class="st26" d="M323,730.8l-0.1-1.2h-0.1c-0.7,0.9-1.6,1.5-3.4,1.5c-2.4,0-3.5-1.6-3.5-3.2c0-2.7,2.3-3.9,6.6-4.1
				c0,0,0.5-2.3-1.6-2.1c-1.6,0.1-1.5,1.5-1.5,1.5h-3c0,0-0.3-3.5,4.6-3.4c4.8,0.1,4.5,1.9,4.6,4.6v3.7c0,1,0.1,2.1,0.2,2.7H323z
				 M322.6,725.6c-2,0.6-3.4,0.5-3.6,1.9c-0.1,0.9,0.5,1.3,1.5,1.3c1.2,0,1.8-0.6,2.1-1.4C322.6,727.2,322.6,725.6,322.6,725.6z"/>
		</g>
		<g id="TM_5_">
			<path class="st26" d="M326.3,719.8h-0.6v-0.2h1.4v0.2h-0.6v1.7h-0.2V719.8z"/>
			<path class="st26" d="M328.9,720.7c0-0.3,0-0.6,0-0.8h0c-0.1,0.2-0.1,0.5-0.2,0.7l-0.3,0.9h-0.2l-0.3-0.9
				c-0.1-0.3-0.2-0.5-0.2-0.7h0c0,0.2,0,0.6,0,0.8l-0.1,0.8h-0.2l0.1-1.9h0.3l0.3,0.9c0.1,0.2,0.1,0.4,0.2,0.6h0
				c0-0.2,0.1-0.4,0.2-0.6l0.3-0.9h0.3l0.1,1.9h-0.2L328.9,720.7z"/>
		</g>
	</g>
</g>
</svg>
