<?xml version="1.0" encoding="utf-8"?>
<!-- Generator: Adobe Illustrator 22.0.1, SVG Export Plug-In . SVG Version: 6.00 Build 0)  -->
<svg version="1.1" id="Layer_1" xmlns="http://www.w3.org/2000/svg" xmlns:xlink="http://www.w3.org/1999/xlink" x="0px" y="0px"
	 viewBox="0 0 775.6 666.8" style="enable-background:new 0 0 775.6 666.8;" xml:space="preserve">
<style type="text/css">
	.st0{fill:url(#SVGID_1_);stroke:#262828;stroke-miterlimit:10;}
	.st1{fill:url(#SVGID_2_);}
	.st2{fill:url(#SVGID_3_);}
	.st3{fill:#1D91BF;}
	.st4{fill:#19A8EB;}
	.st5{opacity:0.8;fill:none;stroke:#2CBAE5;stroke-linejoin:round;stroke-miterlimit:10;}
	.st6{opacity:0.8;fill:none;stroke:#1D91BF;stroke-linejoin:round;stroke-miterlimit:10;}
	.st7{opacity:0.6;fill:none;stroke:#2CBAE5;stroke-linejoin:round;stroke-miterlimit:10;}
	.st8{fill:#A93237;}
	.st9{fill:url(#SVGID_4_);}
	.st10{fill:url(#SVGID_5_);}
	.st11{fill:#158F47;}
	.st12{fill:url(#SVGID_6_);}
	.st13{fill:url(#SVGID_7_);}
	.st14{opacity:0.47;}
	.st15{opacity:0.39;}
	.st16{fill:#FFFFFF;}
	.st17{fill:#136B8E;}
</style>
<g>
	<g id="Gateway_4_">
		<g id="Antena_16_">
			<path id="Antena_17_" d="M471.3,435.2c-1.4-2.3-35.8-36.6-35.8-36.6l-48.6-47l-20.4-18.7c0,0-0.7-0.1-1.1-0.6c-0.4-0.5,0-1,0-1
				L353,318.9c0,0-0.9,0-1.4-0.5c-0.5-0.5,0-0.9,0-0.9l-112-108.6l-30-26.4c0,0-31.1-26-43-34.6c-11.9-8.5-17.5-13.8-26-21.3
				c-8.5-7.5-75.2-74.4-75.2-74.4s-0.6,0.6-1.2,0c-0.5-0.6,0-1.3,0-1.3l-5.8-5.5c0,0-0.6,0.6-1.2,0c-0.5-0.6,0-1.3,0-1.3
				S32,17.1,26.7,16.4c-5.3-0.7-8.4,1.6-10.5,3.9l414.5,411.2L16.2,20.3c-2.3,2-4.5,5.2-3.9,10.4C13,36,40,61.4,40,61.4
				s0.6-0.5,1.3,0c0.6,0.5,0,1.2,0,1.2l5.5,5.8c0,0,0.6-0.5,1.3,0c0.6,0.5,0,1.2,0,1.2s66.8,66.8,74.3,75.3
				c7.4,8.5,12.7,14.1,21.2,26.1c8.5,12,34.5,43.1,34.5,43.1l26,27.5L312.9,350c0,0,0.4-0.5,0.9,0c0.5,0.5,0.5,1.4,0.5,1.4
				l12.4,12.4c0,0,0.5-0.4,1,0c0.5,0.4,0.6,1.1,0.6,1.1l66.5,66.9c4.6,2.4,7.8,1.5,7.8,1.5l13.6,14.1l0.2,16.5h-3.9
				c-3.9,1.7-2.9,4.2-2.9,4.2v37.7c17.9,2.9,31.7,2.7,40.7,1.8c7.6-0.7,11.6-1.8,11.6-1.8l-0.3-0.8l0.3,0l-1-39c0,0-0.9-2.7-2.5-3
				c-1.6-0.4-4.9,0-4.9,0v-6.1c0,0,5.2-3.6,9.5-8C467.3,444.4,472.7,437.6,471.3,435.2z"/>
			<radialGradient id="SVGID_1_" cx="440.1215" cy="425.6559" r="10.9304" gradientUnits="userSpaceOnUse">
				<stop  offset="0" style="stop-color:#FCFCFC"/>
				<stop  offset="1" style="stop-color:#FCFCFC;stop-opacity:0"/>
			</radialGradient>
			<circle class="st0" cx="438.6" cy="438.7" r="6.3"/>
			<linearGradient id="SVGID_2_" gradientUnits="userSpaceOnUse" x1="245.6033" y1="227.9288" x2="237.3379" y2="236.1942">
				<stop  offset="0" style="stop-color:#FCFCFC;stop-opacity:0"/>
				<stop  offset="0.5297" style="stop-color:#FCFCFC;stop-opacity:0.1"/>
				<stop  offset="1" style="stop-color:#FCFCFC;stop-opacity:0"/>
			</linearGradient>
			<polygon class="st1" points="18,19.4 15.7,22.4 454.3,455.3 469.5,439.2 			"/>
			<linearGradient id="SVGID_3_" gradientUnits="userSpaceOnUse" x1="433.4413" y1="465.8926" x2="447.6151" y2="464.8618">
				<stop  offset="0" style="stop-color:#FCFCFC;stop-opacity:0"/>
				<stop  offset="0.5243" style="stop-color:#FCFCFC;stop-opacity:0.1"/>
				<stop  offset="1" style="stop-color:#FCFCFC;stop-opacity:0"/>
			</linearGradient>
			<polygon class="st2" points="429.5,427.4 455.5,454.1 446.7,503.7 429.8,503.7 			"/>
		</g>
		<g id="Gateway_6_">
			<path class="st3" d="M523.4,643.2l218.6-0.1l5.9-5.1v-12.6l18.1-23.2v-48.9l-18.1-16.5v-15l-3.9-3.5c0,0-2.8-3.9-9.5-8.7
				s-20.1-7.5-20.1-7.5H523.8h-0.3H308.7c0,0-13.4,2.8-20.1,7.5s-9.5,8.7-9.5,8.7l-3.9,3.5v15L257,553.3v48.9l18.1,23.2V638l5.9,5.1
				l240.4,0.1H523.4z"/>
		</g>
		<g id="Gateway_5_">
			<path class="st4" d="M523.7,645.5l218.6-0.1l5.9-4.9v-12.1v-84.8v-14.3l-3.9-3.4c0,0-2.8-3.8-9.5-8.3c-6.7-4.5-20.1-7.2-20.1-7.2
				H524.1h-0.3H309c0,0-13.4,2.6-20.1,7.2c-6.7,4.5-9.5,8.3-9.5,8.3l-3.9,3.4v14.3v84.8v12.1l5.9,4.9l240.4,0.1H523.7z"/>
		</g>
		<g id="iner_1_">
			<polygon class="st3" points="305.9,558.4 285.4,535 285.1,629.3 733.4,629.3 733.4,535 716.8,557.9 716.5,608.1 305.9,610.9 			
				"/>
			<polygon class="st5" points="733.4,535 716.5,558.4 716.5,608.1 305.9,610.9 305.9,558.4 285.1,535 285.1,629.3 305.9,610.9 
				716.5,608.1 733.4,629.3 			"/>
			<rect x="285.1" y="535" class="st6" width="448.3" height="94.3"/>
			<line class="st7" x1="716.5" y1="558.4" x2="305.9" y2="558.4"/>
			<g id="Leds_1_">
				<g>
					<circle class="st8" cx="343" cy="583.6" r="11.7"/>
					<radialGradient id="SVGID_4_" cx="342.9658" cy="583.5788" r="21.699" gradientUnits="userSpaceOnUse">
						<stop  offset="0" style="stop-color:#1D91BF"/>
						<stop  offset="0.6012" style="stop-color:#1D91BF;stop-opacity:9.945840e-02"/>
						<stop  offset="0.6676" style="stop-color:#1D91BF;stop-opacity:0"/>
					</radialGradient>
					<path class="st9" d="M343,571.9c6.5,0,11.7,5.2,11.7,11.7c0,6.5-5.2,11.7-11.7,11.7c-6.5,0-11.7-5.2-11.7-11.7
						C331.3,577.1,336.5,571.9,343,571.9 M343,561.9c-12,0-21.7,9.7-21.7,21.7c0,12,9.7,21.7,21.7,21.7s21.7-9.7,21.7-21.7
						C364.7,571.6,354.9,561.9,343,561.9L343,561.9z"/>
				</g>
				<g>
					<circle class="st8" cx="406.2" cy="583.6" r="11.7"/>
					<radialGradient id="SVGID_5_" cx="406.2216" cy="583.5788" r="21.699" gradientUnits="userSpaceOnUse">
						<stop  offset="0" style="stop-color:#1D91BF"/>
						<stop  offset="0.6012" style="stop-color:#1D91BF;stop-opacity:9.945840e-02"/>
						<stop  offset="0.6676" style="stop-color:#1D91BF;stop-opacity:0"/>
					</radialGradient>
					<path class="st10" d="M406.2,571.9c6.5,0,11.7,5.2,11.7,11.7c0,6.5-5.2,11.7-11.7,11.7c-6.5,0-11.7-5.2-11.7-11.7
						C394.5,577.1,399.8,571.9,406.2,571.9 M406.2,561.9c-12,0-21.7,9.7-21.7,21.7c0,12,9.7,21.7,21.7,21.7s21.7-9.7,21.7-21.7
						C427.9,571.6,418.2,561.9,406.2,561.9L406.2,561.9z"/>
				</g>
				<g>
					<circle class="st11" cx="469.5" cy="583.6" r="11.7"/>
					<radialGradient id="SVGID_6_" cx="469.4773" cy="583.5788" r="21.699" gradientUnits="userSpaceOnUse">
						<stop  offset="0" style="stop-color:#1D91BF"/>
						<stop  offset="0.6012" style="stop-color:#1D91BF;stop-opacity:9.945840e-02"/>
						<stop  offset="0.6676" style="stop-color:#1D91BF;stop-opacity:0"/>
					</radialGradient>
					<path class="st12" d="M469.5,571.9c6.5,0,11.7,5.2,11.7,11.7c0,6.5-5.2,11.7-11.7,11.7c-6.5,0-11.7-5.2-11.7-11.7
						C457.8,577.1,463,571.9,469.5,571.9 M469.5,561.9c-12,0-21.7,9.7-21.7,21.7c0,12,9.7,21.7,21.7,21.7s21.7-9.7,21.7-21.7
						C491.2,571.6,481.4,561.9,469.5,561.9L469.5,561.9z"/>
				</g>
				<g>
					<circle class="st11" cx="532.7" cy="583.6" r="11.7"/>
					<radialGradient id="SVGID_7_" cx="532.733" cy="583.5788" r="21.699" gradientUnits="userSpaceOnUse">
						<stop  offset="0" style="stop-color:#1D91BF"/>
						<stop  offset="0.6012" style="stop-color:#1D91BF;stop-opacity:9.945840e-02"/>
						<stop  offset="0.6676" style="stop-color:#1D91BF;stop-opacity:0"/>
					</radialGradient>
					<path class="st13" d="M532.7,571.9c6.5,0,11.7,5.2,11.7,11.7c0,6.5-5.2,11.7-11.7,11.7S521,590,521,583.6
						C521,577.1,526.3,571.9,532.7,571.9 M532.7,561.9c-12,0-21.7,9.7-21.7,21.7c0,12,9.7,21.7,21.7,21.7s21.7-9.7,21.7-21.7
						C554.4,571.6,544.7,561.9,532.7,561.9L532.7,561.9z"/>
				</g>
			</g>
			<g class="st14">
				<g class="st15">
					<path class="st16" d="M338.7,576.3c0,0,2.4-0.5,3.5,0v2.9h-2.8L338.7,576.3z"/>
					<path class="st16" d="M341.6,581.3l-0.7-2.9c0,0,2.4-0.5,3.5,0"/>
				</g>
				<g class="st15">
					<path class="st16" d="M404.5,577.7c0,0,0.6,0.2,1.3,0.5l0.8,1.2h-2.1V577.7z"/>
					<path class="st16" d="M405.9,581.2l-0.4-1.7c0,0,1.4-0.3,2.1,0"/>
				</g>
				<g class="st15">
					<path class="st16" d="M532.1,576.4c0,0-2.3-0.7-3.4-0.3l1.1,2.2l1.8,0.9L532.1,576.4z"/>
					<path class="st16" d="M532.5,581l0.7-2.8c0,0-2.3-0.4-3.4,0"/>
				</g>
				<g class="st15">
					<path class="st16" d="M468.3,576.9c0,0-1.4-0.3-2,0v1.6h1.6L468.3,576.9z"/>
					<path class="st16" d="M468.7,580l0.4-1.6c0,0-1.4-0.3-2,0"/>
				</g>
			</g>
		</g>
	</g>
	<g id="LoRa-Full_9_">
		<g id="semnale_9_">
			<g>
				<path class="st17" d="M669.9,573.9c0,0-3.1-2.4-8.1-2.4c-4.9,0.1-7.6,2.3-7.6,2.3l-1.1-1.5c0,0,3.2-2.7,8.7-2.7
					c5.5,0,9.2,2.8,9.2,2.8L669.9,573.9z"/>
				<path class="st17" d="M668,576.5c0,0-2.3-1.9-6.1-1.9c-3.9,0.1-5.8,1.7-5.8,1.7l-0.9-1.1c0,0,2.3-2,6.7-2s7,2.2,7,2.2L668,576.5
					z"/>
				<path class="st17" d="M666.2,578.9c0,0-1.4-1.2-4.3-1.2c-2.9,0-4.1,1.2-4.1,1.2l-0.8-0.8c0,0,1.6-1.4,4.8-1.4s5,1.5,5,1.5
					L666.2,578.9z"/>
			</g>
			<g>
				<path class="st17" d="M654.2,597.9c0,0,3.1,2.4,8.1,2.4c4.9-0.1,7.6-2.3,7.6-2.3l1.1,1.5c0,0-3.2,2.7-8.7,2.7
					c-5.5,0-9.2-2.8-9.2-2.8L654.2,597.9z"/>
				<path class="st17" d="M656.1,595.2c0,0,2.3,1.9,6.1,1.9c3.9-0.1,5.8-1.7,5.8-1.7l0.9,1.1c0,0-2.3,2-6.7,2s-7-2.2-7-2.2
					L656.1,595.2z"/>
				<path class="st17" d="M657.9,592.8c0,0,1.4,1.2,4.3,1.2c2.9,0,4.1-1.2,4.1-1.2l0.8,0.8c0,0-1.6,1.4-4.8,1.4c-3.2,0-5-1.5-5-1.5
					L657.9,592.8z"/>
			</g>
		</g>
		<g id="LoRa_9_">
			<path d="M645.4,576.5h3.6v11.8h5.9v3.1h-9.5V576.5z"/>
			<path d="M667.9,585.7c0,3.9-2.8,6-6,6c-3.4,0-5.9-2.3-5.9-5.8c0-3.5,2.3-5.8,6.1-5.8C665.8,580,667.9,582.4,667.9,585.7z
				 M659.3,585.8c0,2.2,0.8,3.4,2.7,3.4c1.7,0,2.7-1,2.7-3.4c0-1.8-0.5-3.4-2.7-3.4C659.8,582.4,659.3,583.9,659.3,585.8z"/>
			<path d="M670.1,576.6c0,0,6.9-0.2,8.7-0.1c2.4,0.1,4,2.2,4,4.5c0,3.2-1.7,4-3.1,4.4v0.1c0.8,1.2,3,5.3,3.4,5.9h-4.1
				c-0.2-0.4-3-5.3-3-5.3l-2.3,0v5.4l-3.7-0.1V576.6z M673.7,583.3c3.7,0.1,5.4,0.4,5.4-2c0-2.4-1.7-2-5.4-2V583.3z"/>
			<path d="M691.6,591.4l-0.1-1.3h-0.1c-0.7,0.9-1.6,1.5-3.5,1.5c-2.5,0-3.6-1.7-3.6-3.3c0-2.8,2.4-4,6.9-4.2c0,0,0.5-2.4-1.7-2.2
				c-1.6,0.1-1.5,1.5-1.5,1.5h-3.1c0,0-0.4-3.7,4.8-3.5c5,0.2,4.6,2,4.7,4.8v3.8c0,1.1,0.1,2.2,0.2,2.8H691.6z M691.2,586
				c-2.1,0.6-3.5,0.5-3.7,2c-0.1,0.9,0.5,1.4,1.5,1.4c1.3,0,1.8-0.7,2.1-1.5C691.2,587.7,691.2,586,691.2,586z"/>
		</g>
		<g id="TM_9_">
			<path d="M695,580h-0.6v-0.2h1.5v0.2h-0.6v1.8H695V580z"/>
			<path d="M697.7,580.9c0-0.3,0-0.6,0-0.8h0c-0.1,0.2-0.1,0.5-0.2,0.7l-0.3,1h-0.2l-0.3-0.9c-0.1-0.3-0.2-0.5-0.2-0.8h0
				c0,0.2,0,0.6,0,0.9l-0.1,0.8H696l0.1-2h0.3l0.3,1c0.1,0.2,0.1,0.5,0.2,0.7h0c0.1-0.2,0.1-0.4,0.2-0.7l0.4-1h0.3l0.1,2h-0.2
				L697.7,580.9z"/>
		</g>
	</g>
	<path d="M706.8,593.2c-0.1,0-0.2,0-0.3-0.1c-0.2-0.1-0.4-0.4-0.4-0.6v-4.6l-2.4,1.9c-0.3,0.2-0.7,0.2-1-0.1c-0.2-0.3-0.2-0.7,0.1-1
		l3.3-2.6v-0.3l-3.3-2.7c-0.3-0.2-0.3-0.7-0.1-1s0.7-0.3,1-0.1l2.4,2v-4.8c0-0.3,0.2-0.5,0.4-0.6s0.5-0.1,0.7,0.1l4.6,3.6
		c0.2,0.1,0.3,0.3,0.3,0.6c0,0.2-0.1,0.4-0.3,0.6l-3.4,2.6l3.4,2.8c0.2,0.1,0.3,0.4,0.3,0.6c0,0.2-0.1,0.4-0.3,0.5l-4.6,3.2
		C707.1,593.2,706.9,593.2,706.8,593.2z M707.5,587v4.2l2.8-1.9L707.5,587z M707.5,580.7v4.4l2.8-2.2L707.5,580.7z"/>
	<path class="st17" d="M706.5,593.2c-0.1,0-0.2,0-0.3-0.1c-0.2-0.1-0.4-0.4-0.4-0.6v-4.6l-2.4,1.9c-0.3,0.2-0.7,0.2-1-0.1
		c-0.2-0.3-0.2-0.7,0.1-1l3.3-2.6v-0.3l-3.3-2.7c-0.3-0.2-0.3-0.7-0.1-1c0.2-0.3,0.7-0.3,1-0.1l2.4,2v-4.8c0-0.3,0.2-0.5,0.4-0.6
		s0.5-0.1,0.7,0.1l4.6,3.6c0.2,0.1,0.3,0.3,0.3,0.6c0,0.2-0.1,0.4-0.3,0.6l-3.4,2.6l3.4,2.8c0.2,0.1,0.3,0.4,0.3,0.6
		c0,0.2-0.1,0.4-0.3,0.5l-4.6,3.2C706.8,593.2,706.7,593.2,706.5,593.2z M707.2,587v4.2l2.8-1.9L707.2,587z M707.2,580.7v4.4
		l2.8-2.2L707.2,580.7z"/>
</g>
</svg>
