<?xml version="1.0" encoding="utf-8"?>
<!-- Generator: Adobe Illustrator 22.0.1, SVG Export Plug-In . SVG Version: 6.00 Build 0)  -->
<svg version="1.1" id="Layer_1" xmlns="http://www.w3.org/2000/svg" xmlns:xlink="http://www.w3.org/1999/xlink" x="0px" y="0px"
	 viewBox="0 0 755.1 765.8" style="enable-background:new 0 0 755.1 765.8;" xml:space="preserve">
<style type="text/css">
	.st0{fill:url(#SVGID_1_);stroke:#262828;stroke-miterlimit:10;}
	.st1{fill:url(#SVGID_2_);}
	.st2{fill:url(#SVGID_3_);}
	.st3{fill:#D11616;}
	.st4{fill:url(#SVGID_4_);}
	.st5{fill:#BD0303;}
	.st6{fill:none;stroke:#B30303;stroke-linejoin:round;stroke-miterlimit:10;}
	.st7{fill:none;stroke:#B30303;stroke-linecap:round;stroke-miterlimit:10;}
	.st8{fill:none;stroke:#B30303;stroke-linecap:round;stroke-linejoin:round;stroke-miterlimit:10;}
	.st9{fill:url(#SVGID_5_);}
	.st10{opacity:0.57;}
	.st11{fill:none;stroke:#B30303;stroke-miterlimit:10;}
	.st12{opacity:0.67;fill:url(#SVGID_6_);}
	.st13{fill:url(#SVGID_7_);}
	.st14{fill:#009BE3;}
	.st15{fill:url(#SVGID_8_);}
	.st16{fill:#B30303;stroke:#B30303;stroke-miterlimit:10;}
	.st17{fill:url(#SVGID_9_);}
	.st18{fill:#D11616;stroke:#D11616;stroke-miterlimit:10;}
	.st19{display:none;fill:#D11616;stroke:#AF0808;stroke-miterlimit:10;}
	.st20{opacity:0.5;fill:url(#SVGID_10_);}
	.st21{fill:url(#SVGID_11_);stroke:#B30303;stroke-linecap:round;stroke-linejoin:round;stroke-miterlimit:10;}
	.st22{fill:#136B8E;}
</style>
<g>
	<g id="Temperature_3_">
		<g id="Antena_12_">
			<path id="Antena_13_" d="M459.7,413.7c-1.4-2.2-34.5-35.4-34.5-35.4l-47-45.4l-19.7-18.1c0,0-0.7-0.1-1.1-0.5c-0.4-0.5,0-1,0-1
				l-11.9-12c0,0-0.9,0-1.4-0.5c-0.5-0.5,0-0.9,0-0.9L235.9,195L207,169.4c0,0-30-25.2-41.6-33.4c-11.5-8.3-16.9-13.4-25.2-20.6
				c-8.2-7.2-72.6-71.9-72.6-71.9s-0.6,0.6-1.1,0c-0.5-0.6,0-1.2,0-1.2L60.8,37c0,0-0.6,0.6-1.1,0s0-1.2,0-1.2S35.3,9.6,30.2,9
				C25.1,8.4,22,10.6,20,12.8l400.5,397.3L20,12.8c-2.2,2-4.3,5-3.7,10.1C16.9,28,43,52.4,43,52.4s0.6-0.5,1.2,0
				c0.6,0.5,0,1.1,0,1.1l5.3,5.6c0,0,0.6-0.5,1.2,0c0.6,0.5,0,1.1,0,1.1s64.6,64.6,71.8,72.8c7.2,8.2,12.3,13.6,20.5,25.2
				c8.2,11.6,33.3,41.7,33.3,41.7l25.1,26.6l105.2,104.7c0,0,0.4-0.5,0.9,0c0.5,0.5,0.5,1.4,0.5,1.4l12,12c0,0,0.5-0.4,1,0
				c0.5,0.4,0.5,1.1,0.5,1.1l64.2,64.7c4.5,2.3,7.5,1.4,7.5,1.4l13.1,13.6l0.2,15.9h-3.7c-3.7,1.6-2.8,4.1-2.8,4.1v36.4
				c17.3,2.8,30.6,2.6,39.3,1.8c7.3-0.7,11.3-1.8,11.3-1.8l-0.3-0.8l0.3,0l-0.9-37.7c0,0-0.9-2.6-2.4-2.9c-1.6-0.3-4.7,0-4.7,0v-5.9
				c0,0,5.1-3.5,9.2-7.8C455.9,422.5,461.1,415.9,459.7,413.7z"/>
			<radialGradient id="SVGID_1_" cx="429.6048" cy="404.4261" r="10.5612" gradientUnits="userSpaceOnUse">
				<stop  offset="0" style="stop-color:#FCFCFC"/>
				<stop  offset="1" style="stop-color:#FCFCFC;stop-opacity:0"/>
			</radialGradient>
			<circle class="st0" cx="428.1" cy="417.1" r="6.1"/>
			<linearGradient id="SVGID_2_" gradientUnits="userSpaceOnUse" x1="241.6565" y1="213.3773" x2="233.6702" y2="221.3636">
				<stop  offset="0" style="stop-color:#FCFCFC;stop-opacity:0"/>
				<stop  offset="0.5297" style="stop-color:#FCFCFC;stop-opacity:0.1"/>
				<stop  offset="1" style="stop-color:#FCFCFC;stop-opacity:0"/>
			</linearGradient>
			<polygon class="st1" points="21.7,11.9 19.5,14.8 443.3,433.1 458,417.5 			"/>
			<linearGradient id="SVGID_3_" gradientUnits="userSpaceOnUse" x1="423.1502" y1="443.3039" x2="436.8453" y2="442.3079">
				<stop  offset="0" style="stop-color:#FCFCFC;stop-opacity:0"/>
				<stop  offset="0.5243" style="stop-color:#FCFCFC;stop-opacity:0.1"/>
				<stop  offset="1" style="stop-color:#FCFCFC;stop-opacity:0"/>
			</linearGradient>
			<polygon class="st2" points="419.3,406.1 444.5,431.9 436,479.9 419.6,479.9 			"/>
		</g>
		<g id="Corp_5_">
			<path id="corp_5_" class="st3" d="M739.5,477.7v-30.9c0,0,2.4-29.8-89.2-29.8s-82.9,30.4-82.9,30.4l-0.2,22.7l-11.1,0.9h-20
				l-239.7,14l-32.6,4.9h-8c0,0-2.4-0.3-4.9,3.1c-2.4,3.5-6.6,39.2-6.6,39.2l-2.8,156.5l7.1,9.5l0.5,18.8c0,0,17.9,27.8,23.1,27.8
				S582,724.5,582,724.5l6.2,5.2l33,1c0,0,24.3,6.6,51.7,2.8c27.4-3.8,38.9-6.2,48.6-25l4.5-218.6
				C726,489.9,736.4,486.4,739.5,477.7z"/>
			<linearGradient id="SVGID_4_" gradientUnits="userSpaceOnUse" x1="563.2805" y1="601.8387" x2="594.314" y2="601.8387">
				<stop  offset="5.405406e-03" style="stop-color:#000000"/>
				<stop  offset="1" style="stop-color:#000000;stop-opacity:0"/>
			</linearGradient>
			<polygon class="st4" points="588.8,504.7 582.2,723.9 588.8,729.8 603.2,730.3 607.7,604.1 597.4,491.1 584.3,473.4 576.6,485.5 
							"/>
			<g id="int_x2B_linii_5_">
				<g id="int-linii_5_">
					<polygon class="st5" points="296.4,485 264.7,489.3 280.3,515.5 304.2,496.7 					"/>
					<polygon class="st5" points="543.7,482.5 574.4,500.4 556.1,471 536.1,471 					"/>
					<polygon class="st5" points="543.7,482.5 304.2,496.7 280.3,515.5 574.4,500.4 					"/>
				</g>
				<g id="linii_5_">
					<polyline class="st6" points="296.4,485 304.2,496.8 279.9,515.5 					"/>
					<polyline class="st6" points="536.1,471 543.9,482.7 574.2,500.3 					"/>
					<line class="st7" x1="543.9" y1="482.7" x2="304.1" y2="496.8"/>
					<polyline class="st7" points="556.1,471 574.2,500.4 279.9,515.5 265,489.8 					"/>
				</g>
			</g>
			<g id="int-linii_x2B_stanga_5_">
				<g id="Int_5_">
					<polygon class="st5" points="268.3,523.2 249.7,497.6 244.4,531.5 252,547.4 					"/>
					<polygon class="st5" points="241.6,689 249.4,699.5 267.2,733.2 267,741.8 244.6,711.9 244.9,700.4 					"/>
					<polygon class="st5" points="252,547.7 249.4,699.5 267.2,733.2 268.3,523.5 					"/>
				</g>
				<g id="Linii_6_">
					<polyline class="st8" points="244.4,531.5 252,547.7 249.4,699.5 241.6,689 					"/>
					<line class="st6" x1="268.3" y1="523.5" x2="252" y2="547.7"/>
					<line class="st6" x1="249.4" y1="699.5" x2="267.2" y2="741.1"/>
					<path class="st6" d="M249.7,497.9"/>
					<polyline class="st7" points="249.7,497.9 268.3,523.5 267.2,741.1 					"/>
				</g>
			</g>
			<linearGradient id="SVGID_5_" gradientUnits="userSpaceOnUse" x1="642.6206" y1="605.9728" x2="774.4814" y2="605.9728">
				<stop  offset="0" style="stop-color:#000000;stop-opacity:0"/>
				<stop  offset="0.2919" style="stop-color:#FCFCFC;stop-opacity:5.000000e-02"/>
				<stop  offset="0.3208" style="stop-color:#EEEEEE;stop-opacity:5.467934e-02"/>
				<stop  offset="0.3758" style="stop-color:#C8C8C8;stop-opacity:6.357726e-02"/>
				<stop  offset="0.4511" style="stop-color:#8B8B8B;stop-opacity:7.576807e-02"/>
				<stop  offset="0.5428" style="stop-color:#383838;stop-opacity:9.061444e-02"/>
				<stop  offset="0.6008" style="stop-color:#000000;stop-opacity:0.1"/>
				<stop  offset="1" style="stop-color:#000000;stop-opacity:0.9"/>
			</linearGradient>
			<path class="st9" d="M725.8,477.3l-4.4,231.2c0,0-6.3,13-14.7,16.6c-8.4,3.6-30.5,10.1-47.9,9.6s-37-3.7-37-3.7V482.5
				L725.8,477.3z"/>
			<g id="Linii-fata_5_" class="st10">
				<polyline class="st6" points="254.4,489.8 274.5,519.6 588.8,504.7 582.2,723.9 273.7,744.3 274.5,519.6 				"/>
				<line class="st6" x1="588.8" y1="504.7" x2="565.3" y2="470.3"/>
			</g>
			<path id="Contur_5_" class="st11" d="M567.2,470.1l-11.1,0.9h-20l-239.7,14l-31.7,4.3l-10.3,0.5c0,0-3.8,2-4.7,7.8l-5.3,33.9
				L241.6,689l3,10.4l0,12.4l22.4,29.9l4.3,3l2.5-0.5"/>
			<linearGradient id="SVGID_6_" gradientUnits="userSpaceOnUse" x1="592.1837" y1="609.272" x2="649.5436" y2="608.829">
				<stop  offset="0" style="stop-color:#000000;stop-opacity:0"/>
				<stop  offset="0.5189" style="stop-color:#000000;stop-opacity:0.1"/>
				<stop  offset="1" style="stop-color:#000000;stop-opacity:0"/>
			</linearGradient>
			<path class="st12" d="M573.2,483.6c0,0,56.9,14.7,103.1,9.7l-8.5,240.8c0,0-14.3,1.2-26.2,0c-8.5-0.5-19.6-3.1-19.6-3.1l-34-1.1
				L573.2,483.6z"/>
		</g>
		<g id="Temperature_4_">
			
				<radialGradient id="SVGID_7_" cx="423.1185" cy="597.715" r="24.6558" gradientTransform="matrix(0.999 -4.547928e-02 3.940037e-02 0.8654 -24.4336 119.0156)" gradientUnits="userSpaceOnUse">
				<stop  offset="0" style="stop-color:#D4E8FF"/>
				<stop  offset="0.7054" style="stop-color:#CDE1F8"/>
				<stop  offset="0.7413" style="stop-color:#C1D5EC"/>
				<stop  offset="0.8058" style="stop-color:#A2B6CD"/>
				<stop  offset="0.8913" style="stop-color:#70849B"/>
				<stop  offset="0.9937" style="stop-color:#2B4057"/>
				<stop  offset="0.9946" style="stop-color:#2A3F56"/>
			</radialGradient>
			<path class="st13" d="M433,643.5l-20.2,0.9c-13.3,0.6-13.3,0.6-13.9-12.7l-1.4-30.4c-0.6-13.3-0.6-13.3,12.7-13.9l20.2-0.9
				c13.3-0.6,13.3-0.6,13.9,12.7l1.4,30.4C446.3,642.9,446.3,642.9,433,643.5z"/>
			<path class="st14" d="M430.4,586.5l-20.2,0.9c-13.3,0.6-13.3,0.6-12.7,13.9l1.4,30.4c0.6,13.3,0.6,13.3,13.9,12.7l20.2-0.9
				c13.3-0.6,13.3-0.6,12.7-13.9l-1.4-30.4C443.7,585.9,443.7,585.9,430.4,586.5z M406.1,639.2l-4.1,0.2l-0.2-4.1l4.1-0.2
				L406.1,639.2z M405.4,623.7l-4.1,0.2l-0.2-4.1l4.1-0.2L405.4,623.7z M405,614.8l-4.1,0.2l-0.2-4.1l4.1-0.2L405,614.8z
				 M404.2,598.2l-4.1,0.2l-0.2-4.1l4.1-0.2L404.2,598.2z M412.7,638.9l-4.1,0.2l-0.2-4.1l4.1-0.2L412.7,638.9z M412.3,631.2
				l-4.1,0.2l-0.2-4.1l4.1-0.2L412.3,631.2z M412,623.4l-4.1,0.2l-0.2-4.1l4.1-0.2L412,623.4z M411.6,614.5l-4.1,0.2l-0.2-4.1
				l4.1-0.2L411.6,614.5z M411.2,605.6l-4.1,0.2l-0.2-4.1l4.1-0.2L411.2,605.6z M410.8,597.9l-4.1,0.2l-0.2-4.1l4.1-0.2L410.8,597.9
				z M418.9,638.7l-4.1,0.2l-0.2-4.1l4.1-0.2L418.9,638.7z M418.6,630.9l-4.1,0.2l-0.2-4.1l4.1-0.2L418.6,630.9z M418.2,623.1
				l-4.1,0.2l-0.2-4.1l4.1-0.2L418.2,623.1z M417.8,614.2l-4.1,0.2l-0.2-4.1l4.1-0.2L417.8,614.2z M417.4,605.4l-4.1,0.2l-0.2-4.1
				l4.1-0.2L417.4,605.4z M417,597.6l-4.1,0.2l-0.2-4.1l4.1-0.2L417,597.6z M425,638.4l-4.1,0.2l-0.2-4.1l4.1-0.2L425,638.4z
				 M424.7,630.6l-4.1,0.2l-0.2-4.1l4.1-0.2L424.7,630.6z M424.3,622.8l-4.1,0.2l-0.2-4.1l4.1-0.2L424.3,622.8z M423.9,614l-4.1,0.2
				l-0.2-4.1l4.1-0.2L423.9,614z M423.5,605.1l-4.1,0.2l-0.2-4.1l4.1-0.2L423.5,605.1z M423.2,597.3l-4.1,0.2l-0.2-4.1l4.1-0.2
				L423.2,597.3z M431.7,638.1l-4.1,0.2l-0.2-4.1l4.1-0.2L431.7,638.1z M431.3,630.3l-4.1,0.2l-0.2-4.1l4.1-0.2L431.3,630.3z
				 M430.9,622.5l-4.1,0.2l-0.2-4.1l4.1-0.2L430.9,622.5z M430.5,613.7l-4.1,0.2l-0.2-4.1l4.1-0.2L430.5,613.7z M430.1,604.8
				l-4.1,0.2l-0.2-4.1l4.1-0.2L430.1,604.8z M429.8,597l-4.1,0.2l-0.2-4.1l4.1-0.2L429.8,597z M437.9,637.8l-4.1,0.2l-0.2-4.1
				l4.1-0.2L437.9,637.8z M437.5,630l-4.1,0.2l-0.2-4.1l4.1-0.2L437.5,630z M437.2,622.3l-4.1,0.2l-0.2-4.1l4.1-0.2L437.2,622.3z
				 M436.8,613.4l-4.1,0.2l-0.2-4.1l4.1-0.2L436.8,613.4z M436.4,604.5l-4.1,0.2l-0.2-4.1l4.1-0.2L436.4,604.5z M436,596.7l-4.1,0.2
				l-0.2-4.1l4.1-0.2L436,596.7z M443.9,637.5l-4.1,0.2l-0.2-4.1l4.1-0.2L443.9,637.5z M443.2,622l-4.1,0.2l-0.2-4.1l4.1-0.2
				L443.2,622z M442.8,613.1l-4.1,0.2l-0.2-4.1l4.1-0.2L442.8,613.1z M442,596.5l-4.1,0.2l-0.2-4.1l4.1-0.2L442,596.5z"/>
		</g>
		<g id="capac-bg_5_">
			
				<radialGradient id="SVGID_8_" cx="679.1919" cy="476.623" r="116.8517" fx="633.0803" fy="480.0403" gradientTransform="matrix(0.8854 0 0 0.308 65.1341 329.8146)" gradientUnits="userSpaceOnUse">
				<stop  offset="5.405406e-03" style="stop-color:#000000"/>
				<stop  offset="1" style="stop-color:#000000;stop-opacity:0"/>
			</radialGradient>
			<path class="st15" d="M573.2,467.2v16.4c0,0,24,39.9,85,36.8c60.9-3.2,68.1-15.7,68.1-15.7l-0.5-32.9c0,0-19,19-79.6,16.1
				C585.7,485.1,573.2,467.2,573.2,467.2z"/>
			<path class="st16" d="M566.6,442.9v36.2c0,0,27.2,24.5,96,21.3s76.9-22.6,76.9-22.6V444c0,0-22.1,26.7-90.5,23.9
				S566.6,442.9,566.6,442.9z"/>
			<linearGradient id="SVGID_9_" gradientUnits="userSpaceOnUse" x1="601.0342" y1="471.7581" x2="820.4586" y2="471.7581">
				<stop  offset="0" style="stop-color:#000000;stop-opacity:0"/>
				<stop  offset="0.2919" style="stop-color:#FCFCFC;stop-opacity:5.000000e-02"/>
				<stop  offset="0.3208" style="stop-color:#EEEEEE;stop-opacity:5.467934e-02"/>
				<stop  offset="0.3758" style="stop-color:#C8C8C8;stop-opacity:6.357726e-02"/>
				<stop  offset="0.4511" style="stop-color:#8B8B8B;stop-opacity:7.576807e-02"/>
				<stop  offset="0.5428" style="stop-color:#383838;stop-opacity:9.061444e-02"/>
				<stop  offset="0.6008" style="stop-color:#000000;stop-opacity:0.1"/>
				<stop  offset="1" style="stop-color:#000000;stop-opacity:0.9"/>
			</linearGradient>
			<path class="st17" d="M566.6,442.9v36.2c0,0,27.2,24.5,96,21.3s76.9-22.6,76.9-22.6V444c0,0-22.1,26.7-90.5,23.9
				S566.6,442.9,566.6,442.9z"/>
			<path class="st3" d="M566.6,442.9v36.2c0,0,27.2,24.5,96,21.3s76.9-22.6,76.9-22.6V444c0,0-22.1,26.7-90.5,23.9
				S566.6,442.9,566.6,442.9z"/>
			<path class="st18" d="M650.8,416.3c79.3,0,88.7,26.6,88.7,26.6s-18.2,29.7-86.5,27.4c-68.2-2.3-86.5-28.9-86.5-28.9
				S571.5,416.3,650.8,416.3z"/>
			<path class="st8" d="M739.5,443.3c0,11.5-30.7,28.8-82.7,28.8c-53.3,0-90.3-19.3-90.3-30.8s26.6-25.1,87.3-25.1
				C706.2,416.3,739.5,431.8,739.5,443.3z"/>
			<path class="st19" d="M734.5,441.4c0,11.5-35.5,25.8-77.2,25.8s-85.1-16-84.2-27.4c1.1-14.4,42.4-23.5,84.1-23.5
				C698.9,416.3,734.5,427.2,734.5,441.4z"/>
			
				<radialGradient id="SVGID_10_" cx="656.6154" cy="429.289" r="76.0592" gradientTransform="matrix(1 0 0 0.4376 0 241.4135)" gradientUnits="userSpaceOnUse">
				<stop  offset="0" style="stop-color:#000000;stop-opacity:0.1"/>
				<stop  offset="8.902892e-02" style="stop-color:#070707;stop-opacity:0.1"/>
				<stop  offset="0.2181" style="stop-color:#1A1A1A;stop-opacity:0.1"/>
				<stop  offset="0.3716" style="stop-color:#3A3A3A;stop-opacity:0.1"/>
				<stop  offset="0.5439" style="stop-color:#666666;stop-opacity:0.1"/>
				<stop  offset="0.7319" style="stop-color:#9E9E9E;stop-opacity:0.1"/>
				<stop  offset="0.9301" style="stop-color:#E2E2E2;stop-opacity:0.1"/>
				<stop  offset="1" style="stop-color:#FCFCFC;stop-opacity:0.1"/>
			</radialGradient>
			<path class="st20" d="M734.5,441.4c0,11.5-35.5,25.8-77.2,25.8s-85.1-16-84.2-27.4c1.1-14.4,42.4-23.5,84.1-23.5
				C698.9,416.3,734.5,427.2,734.5,441.4z"/>
			
				<radialGradient id="SVGID_11_" cx="681.5566" cy="439.6081" r="82.9795" gradientTransform="matrix(1 0 0 0.191 0 355.6302)" gradientUnits="userSpaceOnUse">
				<stop  offset="0" style="stop-color:#661616;stop-opacity:0.5"/>
				<stop  offset="1" style="stop-color:#D11616"/>
			</radialGradient>
			<ellipse class="st21" cx="654.7" cy="430.9" rx="36.2" ry="7.8"/>
		</g>
	</g>
	<g id="LoRa-Full_7_">
		<g id="semnale_7_">
			<g>
				<path class="st22" d="M302.4,711.4c0,0-3-2.3-7.8-2.3s-7.3,2.2-7.3,2.2l-1.1-1.4c0,0,3.1-2.6,8.4-2.6c5.3,0,8.9,2.7,8.9,2.7
					L302.4,711.4z"/>
				<path class="st22" d="M300.6,713.9c0,0-2.2-1.8-5.9-1.8s-5.6,1.6-5.6,1.6l-0.8-1.1c0,0,2.3-2,6.5-2c4.2,0,6.8,2.2,6.8,2.2
					L300.6,713.9z"/>
				<path class="st22" d="M298.8,716.2c0,0-1.3-1.2-4.1-1.1s-3.9,1.1-3.9,1.1l-0.7-0.8c0,0,1.5-1.4,4.7-1.4s4.8,1.5,4.8,1.5
					L298.8,716.2z"/>
			</g>
			<g>
				<path class="st22" d="M287.3,734.6c0,0,3,2.3,7.8,2.3s7.3-2.2,7.3-2.2l1.1,1.4c0,0-3.1,2.6-8.4,2.6c-5.3,0-8.9-2.7-8.9-2.7
					L287.3,734.6z"/>
				<path class="st22" d="M289.1,732c0,0,2.2,1.8,5.9,1.8s5.6-1.6,5.6-1.6l0.8,1.1c0,0-2.3,2-6.5,2c-4.2,0-6.8-2.2-6.8-2.2
					L289.1,732z"/>
				<path class="st22" d="M290.8,729.7c0,0,1.3,1.2,4.1,1.1s3.9-1.1,3.9-1.1l0.7,0.8c0,0-1.5,1.4-4.7,1.4s-4.8-1.5-4.8-1.5
					L290.8,729.7z"/>
			</g>
		</g>
		<g id="LoRa_7_">
			<path d="M278.8,713.9h3.5v11.4h5.7v3h-9.2V713.9z"/>
			<path d="M300.5,722.8c0,3.8-2.7,5.8-5.8,5.8c-3.3,0-5.7-2.2-5.7-5.6c0-3.4,2.3-5.6,5.9-5.6C298.4,717.3,300.5,719.6,300.5,722.8z
				 M292.2,722.9c0,2.1,0.8,3.3,2.6,3.3c1.7,0,2.6-1,2.6-3.3c0-1.7-0.5-3.3-2.6-3.3C292.7,719.6,292.2,721.1,292.2,722.9z"/>
			<path d="M302.6,714c0,0,6.7-0.2,8.4-0.1c2.3,0.1,3.9,2.2,3.9,4.3c0,3.1-1.6,3.9-3,4.3v0.1c0.8,1.2,2.9,5.1,3.3,5.7h-4
				c-0.2-0.4-2.9-5.2-2.9-5.2l-2.2,0v5.2l-3.5-0.1V714z M306.1,720.5c3.6,0.1,5.3,0.4,5.3-2c0-2.3-1.6-2-5.3-1.9V720.5z"/>
			<path d="M323.4,728.3l-0.1-1.2h-0.1c-0.7,0.8-1.6,1.5-3.4,1.5c-2.4,0-3.5-1.6-3.5-3.2c0-2.7,2.3-3.9,6.6-4.1c0,0,0.5-2.3-1.6-2.1
				c-1.6,0.1-1.5,1.5-1.5,1.5h-3c0,0-0.3-3.5,4.6-3.4c4.8,0.1,4.5,1.9,4.6,4.6v3.7c0,1,0.1,2.1,0.2,2.7H323.4z M323,723.1
				c-2,0.6-3.4,0.5-3.6,1.9c-0.1,0.9,0.5,1.3,1.5,1.3c1.2,0,1.8-0.6,2.1-1.4C323,724.7,323,723.1,323,723.1z"/>
		</g>
		<g id="TM_7_">
			<path d="M326.7,717.3h-0.6v-0.2h1.4v0.2h-0.6v1.7h-0.2V717.3z"/>
			<path d="M329.3,718.2c0-0.3,0-0.6,0-0.8h0c-0.1,0.2-0.1,0.5-0.2,0.7l-0.3,0.9h-0.2l-0.3-0.9c-0.1-0.3-0.2-0.5-0.2-0.7h0
				c0,0.2,0,0.6,0,0.8l-0.1,0.8h-0.2l0.1-1.9h0.3l0.3,0.9c0.1,0.2,0.1,0.4,0.2,0.6h0c0-0.2,0.1-0.4,0.2-0.6l0.3-0.9h0.3l0.1,1.9
				h-0.2L329.3,718.2z"/>
		</g>
	</g>
</g>
</svg>
