<?xml version="1.0" encoding="utf-8"?>
<!-- Generator: Adobe Illustrator 22.0.1, SVG Export Plug-In . SVG Version: 6.00 Build 0)  -->
<svg version="1.1" id="Layer_1" xmlns="http://www.w3.org/2000/svg" xmlns:xlink="http://www.w3.org/1999/xlink" x="0px" y="0px"
	 viewBox="0 0 1920 1080" style="enable-background:new 0 0 1920 1080;" xml:space="preserve">
<style type="text/css">
	.st0{fill:#33EC00;}
	.st1{fill:#24D324;}
	.st2{fill:#19BF7C;}
</style>
<path class="st0" d="M0,1080c52.8-118.9,102.7-306.1,278.3-400c177.1-94.7,253.5-18.1,485.9-117c50.6-21.6,412.9-181.2,438.1-462
	c2.9-31.8,5.5-64.8-7.9-101H0V1080z"/>
<path class="st1" d="M0,775.9c108.2,27,132.9-294.8,453.1-393.3C619.8,331.3,802.1,315,861,216c37.7-63.4,19.9-157.3-14.1-216H0
	V775.9z"/>
<path class="st2" d="M0,382.6C85,427,499.6,219.1,585.1,0H0V382.6z"/>
</svg>
