<?xml version="1.0" encoding="utf-8"?>
<!-- Generator: Adobe Illustrator 22.0.1, SVG Export Plug-In . SVG Version: 6.00 Build 0)  -->
<svg version="1.1" id="Layer_1" xmlns="http://www.w3.org/2000/svg" xmlns:xlink="http://www.w3.org/1999/xlink" x="0px" y="0px"
	 viewBox="0 0 1920 1080" style="enable-background:new 0 0 1920 1080;" xml:space="preserve">
<style type="text/css">
	.st0{fill:#FFFFFF;}
	.st1{fill:#08AE27;}
</style>
<g>
	<rect x="974" y="467.2" class="st0" width="182" height="57.8"/>
	<path class="st1" d="M1064.2,489.5c-2.3,0-4,0.8-5.4,2.3c-1.3,1.5-1.9,3.6-1.9,6.2s0.7,4.7,1.9,6.2s3.1,2.3,5.4,2.3s4-0.8,5.4-2.3
		c1.3-1.5,1.9-3.6,1.9-6.2s-0.7-4.7-1.9-6.2C1068.3,490.2,1066.6,489.5,1064.2,489.5z"/>
	<path class="st1" d="M1031.6,489.4c-2.3,0-4.1,0.8-5.3,2.3c-1.3,1.5-1.9,3.8-1.9,6.8s0.6,5.3,1.8,6.8c1.2,1.5,3,2.3,5.3,2.3
		s4.2-0.8,5.4-2.3c1.2-1.5,1.8-3.8,1.8-6.8s-0.6-5.2-1.9-6.8C1035.6,490.2,1033.9,489.4,1031.6,489.4z"/>
	<path class="st1" d="M1156.8,457.8H972.5c-7.4,0-13.3,5.9-13.3,13.3V522c0,7.4,5.9,13.3,13.3,13.3h184.3c7.4,0,13.3-5.9,13.3-13.3
		v-50.9C1170.1,463.8,1164.1,457.8,1156.8,457.8z M1014.3,512.5h-25.4v-39.1h7.1v33.3h18.3L1014.3,512.5L1014.3,512.5z
		 M1043.9,506.2c-1.2,2.2-2.8,3.9-4.9,5c-2.1,1.2-4.6,1.8-7.4,1.8s-5.3-0.6-7.4-1.8c-2.2-1.2-3.8-2.8-4.9-5
		c-1.2-2.2-1.7-4.8-1.7-7.6c0-2.9,0.6-5.5,1.7-7.6s2.8-3.9,4.9-5c2.2-1.2,4.6-1.8,7.4-1.8s5.3,0.6,7.4,1.8c2.1,1.2,3.8,2.8,4.9,5
		c1.2,2.2,1.7,4.8,1.7,7.6C1045.6,501.4,1045,504,1043.9,506.2z M1078.4,511.7c0,4.3-1.2,7.6-3.6,9.9c-2.4,2.2-5.9,3.4-10.5,3.4
		c-4.3,0-8.1-0.9-11.3-2.7l1.1-5.2c3.4,1.8,6.7,2.7,10.1,2.7c4.9,0,7.4-2.4,7.4-7.4v-5.5c-0.8,1.5-2,2.7-3.7,3.7
		c-1.6,0.9-3.4,1.4-5.4,1.4c-2.4,0-4.6-0.6-6.5-1.7c-1.9-1.2-3.4-2.8-4.4-4.9c-1.1-2.1-1.5-4.5-1.5-7.2s0.5-5.1,1.5-7.2
		c1.1-2.1,2.5-3.7,4.4-4.9s4-1.7,6.5-1.7c2,0,3.9,0.4,5.5,1.3s2.8,2,3.7,3.6v-4.2h6.8L1078.4,511.7L1078.4,511.7z M1107.6,512.5
		h-6.8v-27.7h6.8V512.5z M1108,479h-7.6v-6.8h7.6V479z M1140.9,512.5h-6.9v-16.7c0-2.2-0.4-3.8-1.3-4.8s-2.2-1.5-3.9-1.5
		c-2.1,0-3.8,0.7-5,2c-1.3,1.3-1.9,3.1-1.9,5.3v15.7h-6.8v-19.9c0-2.9-0.2-5.5-0.4-7.9h6.4l0.5,4.5c0.9-1.7,2.3-3,3.9-3.9
		s3.5-1.4,5.5-1.4c6.6,0,10,3.8,10,11.4L1140.9,512.5L1140.9,512.5z"/>
</g>
</svg>
