<?xml version="1.0" encoding="utf-8"?>
<!-- Generator: Adobe Illustrator 22.0.1, SVG Export Plug-In . SVG Version: 6.00 Build 0)  -->
<svg version="1.1" id="Layer_1" xmlns="http://www.w3.org/2000/svg" xmlns:xlink="http://www.w3.org/1999/xlink" x="0px" y="0px"
	 viewBox="0 0 405.1 165.6" style="enable-background:new 0 0 405.1 165.6;" xml:space="preserve">
<style type="text/css">
	.st0{fill:#08AE27;}
</style>
<g>
	<path class="st0" d="M204.3,70.8c-4.1,0-7.3,1.4-9.7,4.1c-2.3,2.7-3.5,6.5-3.5,11.2s1.2,8.5,3.5,11.2c2.3,2.7,5.6,4.1,9.7,4.1
		c4.1,0,7.3-1.4,9.7-4.1c2.3-2.7,3.5-6.5,3.5-11.2s-1.2-8.5-3.5-11.2C211.7,72.1,208.5,70.8,204.3,70.8z"/>
	<path class="st0" d="M145.3,70.7c-4.2,0-7.4,1.4-9.6,4.2c-2.3,2.8-3.4,6.9-3.4,12.3c0,5.4,1.1,9.5,3.3,12.3
		c2.2,2.7,5.4,4.1,9.6,4.1c4.2,0,7.5-1.4,9.7-4.1c2.2-2.7,3.3-6.8,3.3-12.3c0-5.4-1.1-9.4-3.4-12.3
		C152.6,72.1,149.4,70.7,145.3,70.7z"/>
	<path class="st0" d="M371.5,13.5h-333c-13.3,0-24,10.7-24,24v92c0,13.3,10.7,24,24,24h333c13.3,0,24-10.7,24-24v-92
		C395.5,24.3,384.7,13.5,371.5,13.5z M114.1,112.4H68.2V41.8H81v60.1h33.1V112.4z M167.5,101c-2.1,3.9-5,7-8.9,9.1
		c-3.8,2.1-8.3,3.2-13.3,3.2c-5.1,0-9.6-1.1-13.4-3.2c-3.9-2.1-6.8-5.1-8.9-9.1c-2.1-3.9-3.1-8.6-3.1-13.8c0-5.3,1-9.9,3.1-13.8
		c2.1-3.9,5.1-7,8.9-9.1c3.9-2.1,8.4-3.2,13.4-3.2c5,0,9.5,1.1,13.3,3.2c3.8,2.1,6.8,5.1,8.9,9.1c2.1,3.9,3.1,8.6,3.1,13.8
		C170.6,92.4,169.6,97,167.5,101z M229.8,110.9c0,7.8-2.2,13.7-6.5,17.8c-4.3,4-10.6,6.1-19,6.1c-7.7,0-14.6-1.6-20.4-4.9l2-9.4
		c6.1,3.2,12.1,4.8,18.2,4.8c8.9,0,13.4-4.4,13.4-13.3v-9.9c-1.5,2.7-3.7,4.9-6.6,6.6c-2.9,1.7-6.2,2.5-9.8,2.5
		c-4.4,0-8.3-1-11.7-3.1c-3.4-2.1-6.1-5-7.9-8.8c-1.9-3.8-2.8-8.2-2.8-13.1c0-4.9,0.9-9.2,2.8-13.1c1.9-3.8,4.5-6.7,7.9-8.8
		c3.4-2.1,7.3-3.1,11.7-3.1c3.7,0,7,0.8,9.9,2.3c2.9,1.6,5.1,3.7,6.6,6.5v-7.5h12.3V110.9z M282.7,112.4h-12.3V62.3h12.3V112.4z
		 M283.4,51.8h-13.8V39.6h13.8V51.8z M342.9,112.4h-12.4V82.3c0-4-0.8-6.9-2.3-8.7c-1.5-1.8-3.9-2.7-7-2.7c-3.8,0-6.8,1.2-9.1,3.6
		c-2.3,2.4-3.5,5.6-3.5,9.6v28.4h-12.3V76.5c0-5.3-0.3-10-0.8-14.2h11.6l0.9,8.2c1.7-3,4.1-5.4,7-7c2.9-1.7,6.3-2.5,10-2.5
		c12,0,18,6.9,18,20.6V112.4z"/>
</g>
</svg>
