<?xml version="1.0" encoding="utf-8"?>
<!-- Generator: Adobe Illustrator 22.0.1, SVG Export Plug-In . SVG Version: 6.00 Build 0)  -->
<svg version="1.1" id="Layer_1" xmlns="http://www.w3.org/2000/svg" xmlns:xlink="http://www.w3.org/1999/xlink" x="0px" y="0px"
	 viewBox="0 0 960 268.5" style="enable-background:new 0 0 960 268.5;" xml:space="preserve">
<style type="text/css">
	.st0{fill:#222222;}
	.st1{fill:#33EC00;}
	.st2{fill:url(#SVGID_1_);}
	.st3{fill:url(#SVGID_2_);}
	.st4{fill:url(#SVGID_3_);}
</style>
<g id="Check_Green">
	<g id="Layer_7">
		<g>
			<path class="st0" d="M66.4,105c12.8,0,21.6,4.9,26.1,14.4c2.5,5.3,6.8,8,12.7,8h16.3c-1.4-14.4-6.6-25.9-16-34.3
				C95.6,84.9,82.6,81,66.4,81C24.5,81,3,106.7,3,149.4c0,41.3,20.3,68.2,61,68.2c33.5,0,55-17.4,57.5-47.8H95.2
				c-2.9,14.6-12.7,23.9-29.6,23.9c-24.8,0-35.5-18.4-35.5-44.3C30.2,122.8,41.3,105,66.4,105z"/>
			<path class="st0" d="M175.8,170.8h-29.4V144h-7.5c-4.1,0-7.4,3.6-7.4,7.7v64h14.9v-31.8h29.4v31.8h14.9V144h-14.9V170.8z"/>
			<path class="st0" d="M197.8,151.7v64h51.9v-13.2h-37.5V184h20.4c5.1,0,7.7-2.4,7.6-7.4v-4.8h-27.9v-15.4h37.4V144h-44.5
				C200.3,144.1,197.8,146.7,197.8,151.7z"/>
			<path class="st0" d="M290.6,155.8c7,0,11.7,2.7,14.2,7.8c1.3,2.8,3.7,4.3,6.8,4.3h8.9c-0.8-7.8-3.6-14-8.7-18.6
				c-5.4-4.5-12.5-6.6-21.2-6.6c-22.7,0-34.3,13.9-34.3,37c0,22.4,11,36.9,33,36.9c18.1,0,29.7-9.4,31.2-25.8h-14.3
				c-1.6,8-6.8,13-16,13c-13.4,0-19.2-9.9-19.2-23.9C271,165.5,277,155.8,290.6,155.8z"/>
			<path class="st0" d="M360,173.1l28.6-29.1h-18.5l-28,29.6V144h-7.3c-4.2,0-7.4,3.6-7.4,7.7v64h14.7v-25.1c0-2.4,1.3-4.2,4.1-5.1
				c2.8-1,5.7,0.8,8.9,4.9l18.1,25.3h18L360,173.1z"/>
		</g>
		<g>
			<path class="st1" d="M640.7,152.6h0.1c0,7.6,6.1,13.7,13.6,13.7h16c-2.9,15.9-13.6,28.3-32,28.3c-24.3-1.8-36.3-17.4-36-46.4
				c0.2-29,11.9-43.4,34.7-43.4c12.9,0,22,5.3,27.3,16c3.2,4.4,7,6.8,11.9,6.8h16.8c-1-15-6.6-26.5-16.8-34.7
				c-11.1-7.8-24.6-11.7-40-11.7c-39.2-1.5-62.4,29.3-61.8,68.4c0,38.7,23,68.2,61,68.2c19.1,0,28.6-6.6,38-18.7l1.1,6.4
				c0.6,6.1,6.8,10.4,13.3,10.4h6.8v-71.5h-54V152.6z"/>
			<path class="st1" d="M764.8,211.3l-0.6-14.1c-0.3-4.6-1-8.2-2.2-10.6c-1.5-2.2-3.8-3.9-6.9-5c6.9-1.9,10.8-7.8,10.8-16.8
				c0-14.8-8.3-20.4-23.1-20.4h-27.2c-4.1,0-7.4,3.6-7.4,7.7v64h14.6v-27.8h15.6c8.6,0,10.2,2.8,10.8,11.4c0.1,7,0.3,11.1,0.6,12.1
				c0.1,1.4,0.4,2.9,1.2,4.3h16.1C765.7,215.1,764.9,213.5,764.8,211.3z M740.1,175.6h-17.3v-18.9H741c6.5,0,10,2.9,10,9.4
				C751,173.1,747.1,175.6,740.1,175.6z"/>
			<path class="st1" d="M788.9,184.2h20.3c5.2,0,7.7-2.4,7.6-7.4V172h-28v-15.4h37.5v-12.5h-44.5c-4.9,0.3-7.3,2.9-7.3,7.9v64h51.9
				v-13.2h-37.5V184.2z"/>
			<path class="st1" d="M848.4,184.2h20.3c5.2,0,7.7-2.4,7.6-7.4V172h-28v-15.4h37.5v-12.5h-44.5c-4.9,0.3-7.3,2.9-7.3,7.9v64h51.9
				v-13.2h-37.5V184.2z"/>
			<path class="st1" d="M937.7,144.3v49.3l-29.2-49.3h-7.9c-4.1,0-7.4,3.6-7.4,7.7v64h14.5v-49.3l29.2,49.3h15.2v-71.7H937.7z"/>
		</g>
	</g>
</g>
<g id="Frunza_1_">
	<g id="Frunza">
		<g>
			<path class="st1" d="M531.3,91.8c0,0-45.7,12.4-79.6,54.5c0,0,5.4,4.7,34.3,2.7L531.3,91.8z"/>
			<path class="st1" d="M501.7,61.4c-50.6,28.2-61.1,28.6-84.9,72.4c-13.1,24.2-17.3,71.5,13.7,129c-4.1-75.5,38.3-90,38.3-90
				s-17.5-0.1-26.7-0.1s-22.2-8-14-29.1s26-30.7,46.1-43.4c20.1-12.7,52.5-27.5,66.2-25.8c0.1,0,0.1,0,0.2,0
				c11.7,1.5,6,11.2,4.4,13.6c-0.2,0.3-0.4,0.5-0.4,0.5s2.8,0,2.6,8c0,0.9-0.5,2.2-1.3,3.9c-6.4,13.5-34.8,49.2-34.8,49.2
				c24.5-3.5,21,5.1,20.5,9.5c-0.2,1.5-0.4,3.1-1.2,4.8c-1.5,3.2-4.7,6.4-12.5,8.7c-11.8,3.5-22.8-0.7-37,12.8
				c-6.2,5.9-10,11.7-12.4,17c-0.3,0.8-0.6,1.5-0.9,2.2c-1.9,5-2.6,9.6-3,13.4c-0.1,0.7-0.1,1.4-0.2,2.1c0,0.4,0,0.8,0,1.2
				c-0.2,7.9,4,13.9,4,13.9c3.8-2.1,7.9-4.2,12.1-6.5c20.6-11.1,44.5-24.7,63-49.4c13.5-18.1,20.4-69,23.8-111.9
				c2.1-27.6,2.8-51.9,2.8-61.8C570.1,5.6,552.8,33,501.7,61.4z"/>
		</g>
		
			<linearGradient id="SVGID_1_" gradientUnits="userSpaceOnUse" x1="456.3323" y1="1194.3958" x2="265.1876" y2="1351.1162" gradientTransform="matrix(1 0 0 1 118.3203 -1135.6992)">
			<stop  offset="0" style="stop-color:#000000"/>
			<stop  offset="0.4778" style="stop-color:#000000;stop-opacity:0"/>
		</linearGradient>
		<path class="st2" d="M531.3,91.8c0,0-45.7,12.4-79.6,54.5c0,0,5.4,4.7,34.3,2.7L531.3,91.8z"/>
		
			<linearGradient id="SVGID_2_" gradientUnits="userSpaceOnUse" x1="496.3389" y1="1150.3992" x2="255.1706" y2="1474.6852" gradientTransform="matrix(1 0 0 1 118.3203 -1135.6992)">
			<stop  offset="0" style="stop-color:#000000;stop-opacity:0.2"/>
			<stop  offset="0.4877" style="stop-color:#000000;stop-opacity:0"/>
			<stop  offset="0.9373" style="stop-color:#000000;stop-opacity:0.8777"/>
			<stop  offset="1" style="stop-color:#000000"/>
		</linearGradient>
		<path class="st3" d="M543.5,179.4c22.2-29.7,26.7-148.5,26.6-173.8l0,0C566,23,555,56.4,540.6,74.4c13.4,1.8,4,14.2,4,14.2
			s2.8,0,2.6,8c-0.2,8.1-36.1,53.1-36.1,53.1c24.5-3.5,21,5.1,20.5,9.5s-1.8,10-13.7,13.5s-22.8-0.7-37,12.8s-15.8,26.3-16.4,34.8
			s3.9,15,3.9,15C491.1,222.9,521.3,209.2,543.5,179.4z"/>
		
			<linearGradient id="SVGID_3_" gradientUnits="userSpaceOnUse" x1="490.1995" y1="1083.8394" x2="218.0453" y2="1524.9688" gradientTransform="matrix(1 0 0 1 118.3203 -1135.6992)">
			<stop  offset="0" style="stop-color:#000000"/>
			<stop  offset="0.4877" style="stop-color:#000000;stop-opacity:0"/>
			<stop  offset="1" style="stop-color:#000000"/>
		</linearGradient>
		<path class="st4" d="M570.1,5.6c0,0-17.3,27.4-68.4,55.9c-50.6,28.2-61.1,28.6-84.9,72.4c-13.1,24.2-17.3,71.5,13.7,129
			c-4.1-75.5,38.3-90,38.3-90s-17.5-0.1-26.7-0.1s-22.2-8-14-29.1s26-30.7,46.1-43.4s52.5-27.5,66.2-25.8s4.2,14.2,4.2,14.2
			s2.8,0,2.6,8c-0.2,8.1-36.1,53.1-36.1,53.1c24.5-3.5,21,5.1,20.5,9.5s-1.8,10-13.7,13.5s-22.8-0.7-37,12.8s-15.8,26.3-16.5,34.8
			c-0.6,8.5,3.9,15,3.9,15c22.7-12.4,52.8-26.2,75-55.9C565.6,149.7,570.2,30.9,570.1,5.6z"/>
	</g>
</g>
</svg>
