<svg id="Layer_1" data-name="Layer 1" xmlns="http://www.w3.org/2000/svg" viewBox="0 0 959.43 761.33"><defs><style>.cls-1{fill:#fff;}.cls-10,.cls-11,.cls-2,.cls-9{fill:#231f20;}.cls-2,.cls-3,.cls-8{stroke:#000;}.cls-13,.cls-2,.cls-3,.cls-4,.cls-5,.cls-8{stroke-miterlimit:10;}.cls-13,.cls-3,.cls-4,.cls-5,.cls-8{fill:none;}.cls-3{stroke-dasharray:12;opacity:0.3;}.cls-4{stroke:#7cc35a;}.cls-13,.cls-4,.cls-5,.cls-8{stroke-width:2px;}.cls-5{stroke:#2d92d0;}.cls-6{fill:#2d92d0;}.cls-7{fill:#7cc35a;}.cls-9{font-size:33.84px;}.cls-10,.cls-11,.cls-9{font-family:MyriadPro-Regular, Myriad Pro;}.cls-10{font-size:33.84px;}.cls-11{font-size:27.47px;}.cls-12{opacity:0.32;}.cls-13{stroke:#dd2928;}</style></defs><title>Grafic-triangulare</title><g id="Axa"><polyline class="cls-1" points="840.18 654.82 79 654.82 79 79"/><polygon class="cls-2" points="852.11 654.14 78.22 654.14 78.22 79 79.81 79 79.81 652.78 852.11 652.78 852.11 654.14"/></g><g id="punctate"><polyline class="cls-3" points="78.22 352.49 464.1 352.49 464.1 655.5"/><polyline class="cls-3" points="78.22 595.31 762.88 597.19 762.88 654.14"/><line class="cls-3" x1="163.86" y1="654.14" x2="163.86" y2="595.31"/><polyline class="cls-3" points="78.22 195.46 454.44 195.46 454.44 654.14"/></g><ellipse class="cls-4" cx="464.1" cy="380.66" rx="407.68" ry="379.66"/><path class="cls-5" d="M363.65,107.68c69.46-43.56,168.91-48.52,233-1,124.58,92.37,94.31,367.24-45,426-82.66,34.87-200.48-7.71-258-95C222.33,329.46,257.87,174,363.65,107.68Z" transform="translate(-24.54 -32.68)"/><path class="cls-5" d="M195.65,728.68c-58.25-23.76-132.16-82.29-135-155-5.3-135.71,237.89-297.7,425-236,60.91,20.09,150.24,75.21,155,150C649.23,622.43,382.28,804.81,195.65,728.68Z" transform="translate(-24.54 -32.68)"/><path class="cls-5" d="M981.65,557.68c-12.37,110.47-111.19,210.67-218,229-214.06,36.75-444.22-258.06-382-425,32.8-88,142.42-128.67,217-136C787.23,207.15,1001.85,377.27,981.65,557.68Z" transform="translate(-24.54 -32.68)"/><g id="Gateway"><path class="cls-6" d="M477.51,205a10.37,10.37,0,0,0-8,4.4.57.57,0,0,0,.16.8.58.58,0,0,0,.81-.16,9.08,9.08,0,0,1,7.09-3.87,9.45,9.45,0,0,1,7.66,3.94.59.59,0,0,0,.49.27.7.7,0,0,0,.32-.09.58.58,0,0,0,.16-.81A10.42,10.42,0,0,0,477.51,205Z" transform="translate(-24.54 -32.68)"/><path class="cls-6" d="M492.32,203.94a.58.58,0,0,0,.44.21.62.62,0,0,0,.38-.14.58.58,0,0,0,.07-.82,21.89,21.89,0,0,0-4.52-3.9,20.66,20.66,0,0,0-10.85-3.37,21.39,21.39,0,0,0-15,5.88.59.59,0,0,0,.82.84,19.8,19.8,0,0,1,28.7,1.3Z" transform="translate(-24.54 -32.68)"/><path class="cls-6" d="M457.09,198.11a.59.59,0,0,0,.44-.2,28.13,28.13,0,0,1,20.08-9,28.7,28.7,0,0,1,20.64,8.62.59.59,0,1,0,.86-.8,29.19,29.19,0,0,0-6.45-5,28.81,28.81,0,0,0-15.06-4,29.37,29.37,0,0,0-21,9.43.59.59,0,0,0,.05.83A.53.53,0,0,0,457.09,198.11Z" transform="translate(-24.54 -32.68)"/><path class="cls-6" d="M502.16,215.85H479s0-.07,0-.1l.06-6.87a1.18,1.18,0,0,0-1.16-1.18h0a1.16,1.16,0,0,0-1.17,1.16l-.06,6.87a.49.49,0,0,0,0,.12H453.59a6.15,6.15,0,0,0,0,12.29h48.57a6.15,6.15,0,0,0,0-12.29Zm0,11.12H453.59a5,5,0,0,1,0-9.95h48.57a5,5,0,0,1,0,9.95Z" transform="translate(-24.54 -32.68)"/><circle class="cls-6" cx="476.74" cy="189.32" r="1.73"/><circle class="cls-6" cx="470.42" cy="189.32" r="1.73"/><circle class="cls-6" cx="464.1" cy="189.32" r="1.73"/><circle class="cls-6" cx="457.78" cy="189.32" r="1.73"/><path class="cls-6" d="M187.88,605.67a10.41,10.41,0,0,0-8,4.4.58.58,0,0,0,1,.65,9.13,9.13,0,0,1,7.09-3.88,9.45,9.45,0,0,1,7.66,3.95.62.62,0,0,0,.5.27.6.6,0,0,0,.31-.1.58.58,0,0,0,.17-.8A10.49,10.49,0,0,0,187.88,605.67Z" transform="translate(-24.54 -32.68)"/><path class="cls-6" d="M202.68,604.61a.58.58,0,0,0,.44.21.62.62,0,0,0,.38-.14.59.59,0,0,0,.07-.82,21.89,21.89,0,0,0-4.52-3.9,20.66,20.66,0,0,0-10.85-3.37,21.31,21.31,0,0,0-15,5.88.59.59,0,0,0,0,.83.61.61,0,0,0,.84,0,19.77,19.77,0,0,1,28.69,1.3Z" transform="translate(-24.54 -32.68)"/><path class="cls-6" d="M167.46,598.78a.58.58,0,0,0,.43-.2,28.09,28.09,0,0,1,20.08-9,28.7,28.7,0,0,1,20.64,8.62.59.59,0,0,0,.86-.81,29.56,29.56,0,0,0-6.45-5,28.72,28.72,0,0,0-15.06-4,29.29,29.29,0,0,0-21,9.43.59.59,0,0,0,.05.83A.6.6,0,0,0,167.46,598.78Z" transform="translate(-24.54 -32.68)"/><path class="cls-6" d="M212.52,616.52H189.35s0-.07,0-.1l.06-6.87a1.19,1.19,0,0,0-1.16-1.19h0a1.17,1.17,0,0,0-1.17,1.16l-.06,6.87a.57.57,0,0,0,0,.13H164a6.15,6.15,0,1,0,0,12.29h48.56a6.15,6.15,0,1,0,0-12.29Zm0,11.12H164a5,5,0,1,1,0-9.95h48.56a5,5,0,1,1,0,9.95Z" transform="translate(-24.54 -32.68)"/><circle class="cls-6" cx="187.1" cy="589.98" r="1.73"/><circle class="cls-6" cx="180.78" cy="589.98" r="1.73"/><circle class="cls-6" cx="174.46" cy="589.98" r="1.73"/><circle class="cls-6" cx="168.14" cy="589.98" r="1.73"/><path class="cls-6" d="M785.75,605.2a10.4,10.4,0,0,0-8,4.4.58.58,0,0,0,.16.81.59.59,0,0,0,.81-.16,9.11,9.11,0,0,1,7.09-3.88,9.45,9.45,0,0,1,7.66,4,.62.62,0,0,0,.49.27.6.6,0,0,0,.32-.1.58.58,0,0,0,.16-.81A10.47,10.47,0,0,0,785.75,605.2Z" transform="translate(-24.54 -32.68)"/><path class="cls-6" d="M800.56,604.14a.58.58,0,0,0,.44.21.62.62,0,0,0,.38-.14.59.59,0,0,0,.07-.82,21.58,21.58,0,0,0-4.52-3.9,20.57,20.57,0,0,0-10.85-3.37A21.35,21.35,0,0,0,771,602a.59.59,0,1,0,.82.84,19.78,19.78,0,0,1,28.7,1.3Z" transform="translate(-24.54 -32.68)"/><path class="cls-6" d="M765.33,598.31a.59.59,0,0,0,.44-.2,28.13,28.13,0,0,1,20.08-9.05,28.69,28.69,0,0,1,20.64,8.63.59.59,0,0,0,.83,0,.59.59,0,0,0,0-.83,29.56,29.56,0,0,0-6.45-5,28.82,28.82,0,0,0-15.06-4,29.33,29.33,0,0,0-21,9.44.59.59,0,0,0,.05.83A.58.58,0,0,0,765.33,598.31Z" transform="translate(-24.54 -32.68)"/><path class="cls-6" d="M810.4,616.05H787.23s0-.07,0-.11l.06-6.86a1.19,1.19,0,0,0-1.16-1.19h0a1.17,1.17,0,0,0-1.17,1.16l-.06,6.87a.57.57,0,0,0,0,.13H761.83a6.15,6.15,0,0,0,0,12.29H810.4a6.15,6.15,0,0,0,0-12.29Zm0,11.12H761.83a5,5,0,0,1,0-9.95H810.4a5,5,0,0,1,0,9.95Z" transform="translate(-24.54 -32.68)"/><circle class="cls-6" cx="784.98" cy="589.51" r="1.73"/><circle class="cls-6" cx="778.66" cy="589.51" r="1.73"/><circle class="cls-6" cx="772.34" cy="589.51" r="1.73"/><circle class="cls-6" cx="766.02" cy="589.51" r="1.73"/></g><path class="cls-7" d="M476.53,375.8a.75.75,0,0,0,.35-.63.85.85,0,0,0-.12-.41.75.75,0,0,0-1-.21c-.25.17-6,4-5.77,11.18a13.46,13.46,0,0,0,5.67,10.37.75.75,0,1,0,.83-1.25,11.81,11.81,0,0,1-5-9.15C471.26,379.35,476.49,375.83,476.53,375.8Z" transform="translate(-24.54 -32.68)"/><path class="cls-7" d="M467.6,365.48a27.93,27.93,0,0,0-5,5.83,26.5,26.5,0,0,0-4.35,14,27.55,27.55,0,0,0,7.58,19.39.76.76,0,0,0,1.07,0,.77.77,0,0,0,0-1.07,25.49,25.49,0,0,1,1.69-37,.76.76,0,1,0-1-1.15Z" transform="translate(-24.54 -32.68)"/><path class="cls-7" d="M449.14,385.6c-.26-15.16,9.22-24.83,11.11-26.62a.78.78,0,0,0,0-1.08.76.76,0,0,0-1.06,0,37.41,37.41,0,0,0-6.47,8.31,37,37,0,0,0-5.12,19.43,37.85,37.85,0,0,0,12.16,27,.77.77,0,0,0,1.07-.06.71.71,0,0,0,.2-.5.74.74,0,0,0-.26-.56A36.34,36.34,0,0,1,449.14,385.6Z" transform="translate(-24.54 -32.68)"/><path class="cls-7" d="M501.55,374.53a.76.76,0,0,0-1,.22.67.67,0,0,0-.12.4.76.76,0,0,0,.35.64s5.26,3.54,5.08,9.88a11.85,11.85,0,0,1-5,9.15.75.75,0,1,0,.83,1.25,13.41,13.41,0,0,0,5.67-10.37C507.51,378.55,501.79,374.7,501.55,374.53Z" transform="translate(-24.54 -32.68)"/><path class="cls-7" d="M519,385.31a27.43,27.43,0,0,0-9.37-19.82.74.74,0,0,0-1.05.1.68.68,0,0,0-.19.48.75.75,0,0,0,.28.57,25.53,25.53,0,0,1,1.69,37,.76.76,0,0,0,0,1.07.75.75,0,0,0,1.07,0A27.5,27.5,0,0,0,519,385.31Z" transform="translate(-24.54 -32.68)"/><path class="cls-7" d="M524.51,366.2a37.65,37.65,0,0,0-6.48-8.31.76.76,0,0,0-1,1.1,36.9,36.9,0,0,1,11.11,26.62,36.18,36.18,0,0,1-11.67,25.9.78.78,0,0,0-.25.56.73.73,0,0,0,.19.5.77.77,0,0,0,1.07.06,37.85,37.85,0,0,0,12.17-27A36.89,36.89,0,0,0,524.51,366.2Z" transform="translate(-24.54 -32.68)"/><circle class="cls-7" cx="463.95" cy="352.57" r="7.49"/><line class="cls-8" x1="464.1" y1="665" x2="464.1" y2="637"/><line class="cls-8" x1="65" y1="352.57" x2="93" y2="352.57"/><text class="cls-9" transform="translate(52.36 97.25)">y</text><text class="cls-10" transform="translate(825.05 680.49)">x</text><text class="cls-11" transform="translate(84 108.13)">100m</text><text class="cls-11" transform="translate(0 358.65)">50m</text><g class="cls-12"><polygon points="408.03 377.1 407.93 378.1 423.37 379.64 182.51 554.14 183.79 555.68 424.64 381.18 423.27 396.64 424.27 396.73 425.85 378.88 408.03 377.1"/><polygon points="514.77 380.91 515.76 380.75 513.16 365.45 745.18 551.54 746.32 549.91 514.31 363.81 529.58 361.04 529.4 360.06 511.78 363.25 514.77 380.91"/><polygon points="472.57 318.42 471.83 317.74 461.34 329.18 460.07 207.36 458.08 207.46 459.35 329.28 447.79 318.93 447.12 319.67 460.46 331.62 472.57 318.42"/><text class="cls-11" transform="translate(223.48 519.43) rotate(-37.46)">25m</text><text class="cls-11" transform="matrix(0.77, 0.64, -0.64, 0.77, 659.32, 476.95)">25m</text><text class="cls-11" transform="translate(465.4 263.9) rotate(-0.56)">10m</text></g><text class="cls-11" transform="translate(359.14 143.57)">y=75m/x=50m</text><text class="cls-11" transform="translate(650.56 549.19)">y=10m/x=90m</text><text class="cls-11" transform="translate(202.07 585.72)">y=10m/x=10m</text><text class="cls-11" transform="translate(377.61 435.47)">y=50m/x=50m</text><text class="cls-11" transform="translate(440.74 689.41)">50m</text><text class="cls-11" transform="translate(52.36 665)">0</text><text class="cls-11" transform="translate(786 650.13)">100m</text><line class="cls-13" x1="250.11" y1="287.49" x2="222.11" y2="354.65"/><line class="cls-13" x1="511.07" y1="651.13" x2="442.3" y2="651.13"/><line class="cls-13" x1="667.11" y1="224" x2="621.11" y2="166.35"/><line class="cls-13" x1="610.11" y1="394" x2="608.11" y2="451"/><line class="cls-13" x1="344.77" y1="464" x2="391.11" y2="514.18"/><line class="cls-13" x1="404.11" y1="282" x2="351.11" y2="301"/></svg>