<?xml version="1.0" encoding="utf-8"?>
<!-- Generator: Adobe Illustrator 22.0.1, SVG Export Plug-In . SVG Version: 6.00 Build 0)  -->
<svg version="1.1" id="Layer_1" xmlns="http://www.w3.org/2000/svg" xmlns:xlink="http://www.w3.org/1999/xlink" x="0px" y="0px"
	 viewBox="0 0 1920 1080" style="enable-background:new 0 0 1920 1080;" xml:space="preserve">
<style type="text/css">
	.st0{fill:#F2DAC9;}
	.st1{opacity:7.000000e-02;enable-background:new    ;}
	.st2{fill:#746568;}
	.st3{fill:#D6D6D6;}
	.st4{fill:#5DAF08;}
	.st5{fill:#243151;}
	.st6{fill:#101525;}
	.st7{fill:#B4B4B5;}
	.st8{fill:#EAD1C1;}
	.st9{display:none;}
	.st10{display:inline;fill:#243151;}
	.st11{fill:#5FEE3E;}
	.st12{fill:url(#SVGID_1_);}
	.st13{fill:url(#SVGID_2_);}
	.st14{fill:#33EC00;}
	.st15{fill:url(#SVGID_3_);}
	.st16{fill:#EDD7C8;}
	.st17{fill:#3F2819;}
	.st18{fill:#897A72;}
	.st19{fill:#FFFFFF;}
	.st20{fill:#E5D2C6;}
	.st21{fill:#565656;}
	.st22{fill:#3A3A3A;}
	.st23{fill:#ACADAC;}
	.st24{fill:#558E86;}
	.st25{fill:#2A2D2B;}
	.st26{fill:#5A5A5A;}
	.st27{fill:url(#SVGID_4_);}
	.st28{fill:url(#SVGID_5_);}
	.st29{opacity:0.678;fill:url(#SVGID_6_);enable-background:new    ;}
	.st30{fill:#1DD840;}
</style>
<g>
	<g id="Caracter_1_">
		<g id="Caracter">
			<polygon class="st0" points="387.7,378.1 406.3,389.8 416.3,424.2 386.4,436 356.8,424.2 366.8,389.8 385,378.1 			"/>
			<polygon class="st1" points="400.1,383.2 385.5,402.8 356.8,424.2 367.1,388.8 			"/>
			<path class="st2" d="M381.7,605.8c70,3,111.8,153.3,111.3,160.2s2.9,39.5,2.9,39.5s-22.7,14.1-19,29.2s-1.1,245.3-1.1,245.3h-42
				l-15.6-212.3l-51.9-3L335.8,1080h-54l31.1-259c0,0-22.3-6.4-27.8-25.6c-2.6-9-12.5,14.3-4.5-60.4
				C286.6,677.8,291,601.9,381.7,605.8z"/>
			<g id="necktie_1_">
				<polygon class="st3" points="356.8,422 350.3,429.5 333.5,455.2 347.4,525.8 389.4,587.9 422.5,529.4 442.5,448.4 424.9,429.6 
					416.3,422.2 388,431.2 				"/>
				<path class="st4" d="M352.4,427.1l32,28c0.3,0.2,3.5-2.3,3.8-2.3s3.9,2.5,4.1,2.3l28.4-29l-4.5-3.8l-28.1,8.9l-31.4-9
					L352.4,427.1z"/>
				<polygon class="st5" points="386.6,452.6 374.2,524.3 388,559.2 404.1,524.5 390.4,452.6 				"/>
				<polygon class="st5" points="388.2,432.6 392.6,449.1 388.2,456.2 383.8,449.1 				"/>
				<circle class="st3" cx="388.2" cy="432.4" r="1.4"/>
			</g>
			<path class="st6" d="M550.5,467.2c-0.4-7.6-3.2-12.2-9.6-14.8c-6.9-2.7-34.7-7.2-56.7-9.3c-17.9-1.7-40.5-6.4-48.2-8.1
				c-1.8-0.4-3.5-1.1-5-2l-5.6-3.3c-1.5-0.9-3.5-0.2-4,1.5c-6.8,21.6-25.8,84.2-33.9,110.8c-8-26.6-27-89.2-33.9-110.8
				c-0.5-1.7-2.5-2.4-4-1.5L344,433c-1.6,0.9-3.3,1.6-5,2c-7.7,1.7-30.2,6.4-48.2,8.1c-22,2.1-49.8,6.5-56.7,9.3
				c-6.9,2.7-9.6,7.9-9.6,16.7c0,1.6,1.2,5.6,3.2,11.3c-9.2,31.7-37,129.8-37.9,161.1c-0.1,4.5,0.1,8,0.5,10.6
				c-0.8,0.2-1.2,0.3-1.2,0.3s-5.5,192.9,0.4,195.8c5.9,2.9,24.5,3,27.9,0s-1.8-43.8-6.7-195.8c0-1.2-1-1.9-2.4-2.3
				c1.2-1.5,1.9-2.6,1.9-2.6l33.9-122.1c8.8,25.2,17.5,54.2,19.1,77c3.4,48.1,7.6,178.3,3.4,191.3c-4.1,13.1,50.2,4.1,66.3,0
				c13.2-3.4,17.5-16.9,18.6-21.7c0.3-1.3,0.7-2.6,1.3-3.8l31.8-67c1.1-2.3,2-4.7,2.7-7.1c0.7,2.4,1.6,4.8,2.7,7.1l31.8,67
				c0.6,1.2,1,2.5,1.3,3.8c1.1,4.8,5.4,18.3,18.6,21.7c16.2,4.1,70.4,13.1,66.3,0s0-143.2,3.4-191.3c2.2-30.6,17.3-72.7,28-101.5"/>
			<circle class="st3" cx="394.5" cy="583.8" r="5.3"/>
			<circle class="st3" cx="395.8" cy="654.7" r="5.3"/>
			<circle class="st3" cx="414.1" cy="720.9" r="5.3"/>
			<rect x="382.9" y="481" class="st7" width="14.4" height="2.4"/>
			<path class="st7" d="M301.7,822.9"/>
			<path class="st0" d="M237.1,869.8l-8.8-6.4c-1.3-0.9-2.4-2.2-3-3.8l-4.3-9c-0.5-1.8-2.1-3.2-4-3.5l-19.4-2.7
				c-4-0.5-8.5,0.9-8.2,5l0.8,16.1c1,6.1,1.2,17,0.8,18.9c-0.8,3.5,1.9,6.9,5.4,7.2l-1.4-11.2l1.6,12.7c0.4,3.2,3.5,5.3,6.6,4.6
				l-1.6-13.3l1.7,14c-1.2,3.3,4.6,6.3,8,5.4l-2-11.8l3.1,18.9c0.2,2.7,5.6,3.4,6.4,0.8l-1.4-37.6c0.5-1.8,3.2-1.2,5.1-0.7l11.1,3
				c2.1,0,3-0.1,3.9-1.1C238.8,874,238.8,871.4,237.1,869.8z"/>
			<path class="st8" d="M197.6,874.1c0,0-0.4,17-1.4,17.6l0.4-17.4L197.6,874.1z"/>
			<path class="st8" d="M204.3,874.2c0,0-0.4,23.1-1.4,23.8l0.4-23.6L204.3,874.2z"/>
			<path class="st8" d="M211,904.2l0.5-29.1l1-0.2C212.5,874.9,212,903.4,211,904.2"/>
			<path class="st8" d="M211,874.7c0,0,0.5,0.6,1.3,0.3s1.1-0.6,1.1-0.6s-0.8,0.3-1.2,0.3C211.3,874.8,212.2,874.9,211,874.7z"/>
			<path class="st8" d="M218.1,872.4c0,0-0.8,0.2-0.9,1c-0.1,0.8,0,1.3,0,1.3s0.1-0.8,0.3-1.2C217.9,872.6,217.5,873.3,218.1,872.4z
				"/>
			<path class="st8" d="M220.4,873.1c0,0-0.2-0.7-1.1-0.8s-1.3,0.2-1.3,0.2s0.9,0,1.3,0.1C220.1,872.9,219.4,872.6,220.4,873.1z"/>
			<path class="st8" d="M202.6,874.2c0,0,0.5,0.6,1.3,0.3s1.1-0.6,1.1-0.6s-0.8,0.3-1.2,0.3S202.6,874.2,202.6,874.2z"/>
			<path class="st8" d="M196,874c0,0,0.5,0.6,1.3,0.3s1.1-0.6,1.1-0.6s-0.8,0.3-1.2,0.3C196.8,874.1,196,874,196,874z"/>
			<path class="st6" d="M215.8,653c0,10.1-6.6,15.9-16.7,15.9c-10.1,0-15.3-5.8-15.3-15.9c0-10.1,5.1-17.9,15.3-17.9
				C209.2,635.1,215.8,642.9,215.8,653z"/>
			<circle class="st6" cx="242.8" cy="476.2" r="18.3"/>
			<g>
				<g id="LOGO">
					<g id="Check_Green">
						<g id="Layer_4" class="st9">
							<polygon class="st10" points="479.5,498.9 477.7,503.5 472.5,496.1 479.3,492.1 							"/>
							<polygon class="st10" points="478.2,502.7 473.8,505.2 469.4,499 473,495.3 							"/>
							<polygon class="st10" points="474.9,505.9 472.3,507.6 469.5,509.8 467.7,502.8 469.6,498.5 							"/>
						</g>
						<g id="Layer_7">
							<g>
								<path class="st5" d="M439.1,496.5c1.1,0,1.9,0.4,2.3,1.2c0.2,0.4,0.6,0.7,1.1,0.7h1.5c-0.1-1.2-0.6-2.2-1.4-2.9
									c-0.9-0.7-2-1-3.5-1c-3.7,0-5.7,2.1-5.7,5.7c0,3.4,1.8,5.7,5.4,5.7c3,0,4.9-1.4,5.1-4h-2.3c-0.3,1.2-1.1,2-2.6,2
									c-2.2,0-3.2-1.5-3.2-3.7C435.8,498,436.8,496.5,439.1,496.5z"/>
								<path class="st5" d="M448.8,502h-2.6v-2.2h-0.7c-0.4,0-0.7,0.3-0.7,0.6v5.3h1.3V503h2.6v2.7h1.3v-6h-1.3v2.3H448.8z"/>
								<path class="st5" d="M450.8,500.4v5.4h4.6v-1.1h-3.3v-1.6h1.8c0.5,0,0.7-0.2,0.7-0.6v-0.4h-2.5v-1.3h3.3v-1h-4
									C451,499.8,450.8,500,450.8,500.4z"/>
								<path class="st5" d="M459.1,504.8c-1.2,0-1.7-0.8-1.7-2s0.5-2,1.8-2c0.6,0,1,0.2,1.3,0.7c0.1,0.2,0.3,0.4,0.6,0.4h0.8
									c-0.1-0.7-0.3-1.2-0.8-1.6s-1.1-0.5-1.9-0.5c-2,0-3.1,1.2-3.1,3.1s1,3.1,2.9,3.1c1.6,0,2.7-0.8,2.8-2.2h-1.3
									C460.4,504.4,459.9,504.8,459.1,504.8z"/>
								<path class="st5" d="M465.3,502.2l2.6-2.4h-1.7l-2.5,2.5v-2.5H463c-0.4,0-0.7,0.3-0.7,0.6v5.3h1.3v-2.1
									c0-0.2,0.1-0.4,0.4-0.4c0.2-0.1,0.5,0.1,0.8,0.4l1.6,2.1h1.6L465.3,502.2z"/>
							</g>
						</g>
					</g>
				</g>
				<g id="Frunza_1_">
					<g id="Frunza">
						<path class="st11" d="M479.4,494c0,0-1.2,1.7-4.6,3.5s-4.2,1.8-5.8,4.6c-0.9,1.5-1.2,4.5,0.9,8.2c-0.3-4.8,2.6-5.7,2.6-5.7
							s-1.2,0-1.8,0c-0.6,0-1.5-0.5-0.9-1.9c0.6-1.3,1.8-1.9,3.1-2.7s3.6-1.7,4.5-1.6s0.3,0.9,0.3,0.9s0.2,0,0.2,0.5
							s-2.5,3.4-2.5,3.4c1.7-0.2,1.4,0.3,1.4,0.6c0,0.3-0.1,0.6-0.9,0.9c-0.8,0.2-1.6,0-2.5,0.8c-1,0.9-1.1,1.7-1.1,2.2s0.3,1,0.3,1
							c1.5-0.8,3.6-1.7,5.1-3.5C479.1,503.1,479.4,495.6,479.4,494z"/>
						
							<linearGradient id="SVGID_1_" gradientUnits="userSpaceOnUse" x1="289.7006" y1="-19.638" x2="272.3662" y2="-47.7348" gradientTransform="matrix(1.065 3.964543e-03 3.714482e-03 -0.9978 173.6934 469.6236)">
							<stop  offset="0" style="stop-color:#000000"/>
							<stop  offset="0.4877" style="stop-color:#000000;stop-opacity:0"/>
							<stop  offset="1" style="stop-color:#000000"/>
						</linearGradient>
						<path class="st12" d="M479.4,494c0,0-1.2,1.7-4.6,3.5s-4.2,1.8-5.8,4.6c-0.9,1.5-1.2,4.5,0.9,8.2c-0.3-4.8,2.6-5.7,2.6-5.7
							s-1.2,0-1.8,0c-0.6,0-1.5-0.5-0.9-1.9c0.6-1.3,1.8-1.9,3.1-2.7s3.6-1.7,4.5-1.6s0.3,0.9,0.3,0.9s0.2,0,0.2,0.5
							s-2.5,3.4-2.5,3.4c1.7-0.2,1.4,0.3,1.4,0.6c0,0.3-0.1,0.6-0.9,0.9c-0.8,0.2-1.6,0-2.5,0.8c-1,0.9-1.1,1.7-1.1,2.2s0.3,1,0.3,1
							c1.5-0.8,3.6-1.7,5.1-3.5C479.1,503.1,479.4,495.6,479.4,494z"/>
					</g>
				</g>
				<path class="st11" d="M476.8,499.4c0,0-3.1,0.8-5.4,3.4c0,0,0.4,0.3,2.3,0.2L476.8,499.4z"/>
				
					<linearGradient id="SVGID_2_" gradientUnits="userSpaceOnUse" x1="287.4451" y1="-26.6068" x2="275.2704" y2="-36.5888" gradientTransform="matrix(1.065 3.964543e-03 3.714482e-03 -0.9978 173.6934 469.6236)">
					<stop  offset="0" style="stop-color:#000000"/>
					<stop  offset="0.4778" style="stop-color:#000000;stop-opacity:0"/>
				</linearGradient>
				<path class="st13" d="M476.8,499.4c0,0-3.1,0.8-5.4,3.4c0,0,0.4,0.3,2.3,0.2L476.8,499.4z"/>
				<path class="st14" d="M477.6,505c1.5-1.9,1.8-9.4,1.8-11l0,0c-0.3,1.1-1,3.2-2,4.4c0.9,0.1,0.3,0.9,0.3,0.9s0.2,0,0.2,0.5
					s-2.5,3.4-2.5,3.4c1.7-0.2,1.4,0.3,1.4,0.6c0,0.3-0.1,0.6-0.9,0.9c-0.8,0.2-1.6,0-2.5,0.8c-1,0.9-1.1,1.7-1.1,2.2s0.3,1,0.3,1
					C474,507.8,476.1,506.9,477.6,505z"/>
				
					<linearGradient id="SVGID_3_" gradientUnits="userSpaceOnUse" x1="290.0137" y1="-23.8252" x2="274.6499" y2="-44.484" gradientTransform="matrix(1.065 3.964543e-03 3.714482e-03 -0.9978 173.6934 469.6236)">
					<stop  offset="0" style="stop-color:#000000;stop-opacity:0.2"/>
					<stop  offset="0.4877" style="stop-color:#000000;stop-opacity:0"/>
					<stop  offset="0.9373" style="stop-color:#000000;stop-opacity:0.8777"/>
					<stop  offset="1" style="stop-color:#000000"/>
				</linearGradient>
				<path class="st15" d="M477.6,505c1.5-1.9,1.8-9.4,1.8-11l0,0c-0.3,1.1-1,3.2-2,4.4c0.9,0.1,0.3,0.9,0.3,0.9s0.2,0,0.2,0.5
					s-2.5,3.4-2.5,3.4c1.7-0.2,1.4,0.3,1.4,0.6c0,0.3-0.1,0.6-0.9,0.9c-0.8,0.2-1.6,0-2.5,0.8c-1,0.9-1.1,1.7-1.1,2.2s0.3,1,0.3,1
					C474,507.8,476.1,506.9,477.6,505z"/>
				<g>
					<path class="st14" d="M485.7,500.5c0,0.6,0.5,1.1,1.2,1.1h1.4c-0.3,1.3-1.2,2.4-2.8,2.4c-2.2-0.1-3.2-1.4-3.2-3.9
						c0-2.4,1.1-3.6,3.1-3.6c1.1,0,2,0.4,2.4,1.3c0.3,0.4,0.6,0.6,1.1,0.6h1.5c-0.1-1.3-0.6-2.2-1.5-2.9c-1-0.7-2.2-1-3.5-1
						c-3.5-0.1-5.5,2.4-5.5,5.7c0,3.2,2,5.7,5.4,5.7c1.7,0,2.5-0.6,3.4-1.6l0.1,0.5c0.1,0.5,0.6,0.9,1.2,0.9h0.6v-6h-4.8v0.8H485.7z
						"/>
					<path class="st14" d="M496.7,505.4l-0.1-1.2c0-0.4-0.1-0.7-0.2-0.9c-0.1-0.2-0.3-0.3-0.6-0.4c0.6-0.2,1-0.7,1-1.4
						c0-1.2-0.7-1.7-2-1.7h-2.4c-0.4,0-0.7,0.3-0.7,0.6v5.3h1.3v-2.3h1.4c0.8,0,0.9,0.2,1,1c0,0.6,0,0.9,0.1,1c0,0.1,0,0.2,0.1,0.4
						h1.4C496.8,505.7,496.8,505.6,496.7,505.4z M494.6,502.4h-1.5v-1.6h1.6c0.6,0,0.9,0.2,0.9,0.8
						C495.5,502.2,495.2,502.4,494.6,502.4z"/>
					<path class="st14" d="M497.6,500.5v5.4h4.6v-1.1h-3.3v-1.6h1.8c0.5,0,0.7-0.2,0.7-0.6v-0.4h-2.5v-1.3h3.3v-1h-4
						C497.8,499.8,497.6,500,497.6,500.5z"/>
					<path class="st14" d="M502.9,500.5v5.4h4.6v-1.1h-3.3v-1.6h1.8c0.5,0,0.7-0.2,0.7-0.6v-0.4h-2.5v-1.3h3.3v-1h-4
						C503.1,499.8,502.9,500,502.9,500.5z"/>
					<path class="st14" d="M512.1,499.8v4.1l-2.6-4.1h-0.7c-0.4,0-0.7,0.3-0.7,0.6v5.3h1.3v-4.1l2.6,4.1h1.4v-6h-1.3V499.8z"/>
				</g>
			</g>
			<g id="Ear_1_">
				<path class="st16" d="M312.6,297.9c0,0-0.3-3.9-3.9-2.4s4.6,15.6,5.4,20.4s1.6,17.5,4.9,17.5s2.9-1.4,2.9-1.4v-19.6L312.6,297.9
					z"/>
				<path class="st16" d="M457.6,297.9c0,0,0.3-3.9,3.9-2.4s-4.6,15.6-5.4,20.4s-1.6,17.5-4.9,17.5s-2.9-1.4-2.9-1.4v-19.6
					L457.6,297.9z"/>
			</g>
			<g id="Head_2_">
				<ellipse class="st0" cx="385.3" cy="262.1" rx="79.2" ry="67.2"/>
				<path class="st0" d="M385.3,264.3h-79.2c0,0,16.2,91.9,28.2,108.9c8.9,8.2,47,27.7,50.7,29.6c0.1,0.1,0.3,0,0.3-0.2
					c0,0.2,0.2,0.3,0.3,0.2c3.7-1.9,41.9-21.4,50.7-29.6c11.9-17,28.2-108.9,28.2-108.9H385.3z"/>
			</g>
			<g id="Beard_1_">
				<path class="st17" d="M333.5,372.1l51.9,25.8l0,0c0.1,0.4,1.9,5.7,0,5.3c0,0-48.1-22.8-51.6-29.2
					C333.3,372.9,333.5,372.1,333.5,372.1z"/>
				<path class="st17" d="M437,372.2l-51.5,25.7l0,0c0,0.5-2,5.7,0.1,5.3c0,0,48.1-22.8,51.6-29.2C437.8,372.9,437,372.2,437,372.2z
					"/>
			</g>
			<g id="Mouth_1_">
				<path class="st18" d="M388.4,364.9l9.2-0.9c2.9-0.3,5.7-1.9,7.5-4.6l9.7-10.9c0.1-0.2,0-0.4-0.2-0.4l-26.8,3
					c-1.7,0.2-3.3,0.2-5,0l-27.3-3c-0.3,0-0.5,0.3-0.3,0.6l9.5,10.6c1.9,2.7,4.6,4.4,7.6,4.6l9.8,0.9
					C384.2,365.1,386.3,365.1,388.4,364.9z"/>
				<path class="st19" d="M414.7,348.6c0.1-0.2,0-0.4-0.2-0.4l-26.8,3c-1.7,0.2-3.3,0.2-5,0l-27.3-3c-0.3,0-0.5,0.3-0.3,0.6
					l25.3,6.6c3.1,0.6,6.3,0.6,9.4,0L414.7,348.6z"/>
			</g>
			<path id="Nose_1_" class="st8" d="M385.3,297.9l8.5,23.7c1.2,3.4-0.2,7.1-3.4,8.9l-5.2,2.8l5.3-1.7c4-1.3,6.1-5.7,4.5-9.6
				L385.3,297.9z"/>
			<g id="Eyes_1_">
				<g id="Left-Eye_1_">
					<g id="Eye_3_">
						<path class="st19" d="M370.9,290.9c0.1-1.2-0.8-2.5-1.9-2.9c-3.5-1.1-11.3-3.7-20.8-3.3c-9.5,0.3-14.7,2.5-16.8,3.6
							c-0.7,0.4-0.9,1.1-0.7,1.8c1.2,3.2,3,15,8.8,14.4c14.2-1.4,12.6-1.3,26.4-0.9c0.4,0,0.8-0.2,1.1-0.6
							C368,301.5,370.4,296,370.9,290.9z"/>
						<g>
							<path class="st20" d="M349.9,285.6c8.4,0,15.2,2.2,18.5,3.3l0.2,0.1c0.7,0.2,1.3,1.1,1.2,1.8c-0.5,5-2.9,10.4-3.8,11.6
								c-0.1,0.1-0.1,0.1-0.3,0.1l-3.3-0.1c-3.3-0.1-5.5-0.2-7.4-0.2c-4.1,0-6.9,0.3-15.3,1.1h-0.5c-0.1,0-0.2,0-0.3,0
								c-3.6,0-5.5-6.9-6.7-11.1c-0.3-1.1-0.6-2-0.8-2.7c-0.1-0.2,0-0.5,0.2-0.6c2.2-1.2,7.2-3.2,16.4-3.5
								C348.8,285.6,349.3,285.6,349.9,285.6 M349.9,284.6c-0.6,0-1.2,0-1.8,0c-9.5,0.3-14.7,2.5-16.8,3.6c-0.7,0.4-0.9,1.1-0.7,1.8
								c1.2,3.2,2.9,14.4,8.4,14.4c0.1,0,0.3,0,0.4,0c8.8-0.9,11.6-1.2,15.7-1.2c2.5,0,5.5,0.1,10.7,0.2c0.4,0,0.8-0.2,1.1-0.6
								c1.1-1.5,3.5-7,4-12.1c0.1-1.2-0.8-2.5-1.9-2.9C365.7,286.9,358.6,284.6,349.9,284.6L349.9,284.6z"/>
						</g>
						
							<ellipse transform="matrix(0.9994 -3.595985e-02 3.595985e-02 0.9994 -10.3567 12.8022)" class="st17" cx="350.7" cy="294.3" rx="11.1" ry="6"/>
						<path d="M355.4,294.2c-0.1-2.6-2.2-4.1-4.8-4s-4.6,1.8-4.5,4.3c0.1,2.6,2.2,4,4.8,4C353.5,298.4,355.5,296.7,355.4,294.2z"/>
						<path class="st19" d="M347.4,291.9c0,0.7-1.1,1-2.2,1s-2.2-0.5-2.2-1.2s1.1-0.9,2.2-0.9C346.2,290.8,347.4,291.2,347.4,291.9z
							"/>
					</g>
					<path class="st17" d="M372.6,279.3l-3.3,4.2c-0.1,0.3-0.4,0.4-0.7,0.3c-2.6-0.8-12.9-4.9-22.7-3.4c-6.8,1.1-14.6,3.5-17.1,4.4
						c-0.3,0.1-0.5-0.3-0.2-0.5c4.3-2.7,15.9-10.1,24.4-9.3c9.2,0.9,17.5,2.7,19.3,3.4C372.6,278.7,372.7,279,372.6,279.3z"/>
				</g>
				<g id="Right-Eye_1_">
					<g id="Eye_2_">
						<path class="st19" d="M400.1,290.3c-0.1-1.2,0.8-2.5,2-2.8c3.6-1,11.4-3.4,20.9-2.7c9.5,0.6,14.6,2.9,16.7,4.1
							c0.6,0.4,0.9,1.2,0.6,1.8c-1.3,3.2-3.5,14.9-9.2,14.1c-14.1-1.9-12.6-1.7-26.3-1.7c-0.4,0-0.8-0.3-1-0.6
							C402.8,301,400.5,295.5,400.1,290.3z"/>
						<g>
							<path class="st20" d="M419.9,284.6v1c1,0,2.1,0,3.1,0.1c9.2,0.6,14.1,2.8,16.3,4c0.2,0.1,0.3,0.4,0.2,0.6
								c-0.3,0.6-0.5,1.6-0.9,2.7c-1.2,4.1-3.3,10.9-6.9,10.9c-0.1,0-0.3,0-0.4,0l-0.5-0.1c-12.5-1.6-12.5-1.6-22.7-1.6h-3.3
								c-0.1,0-0.2-0.1-0.2-0.2c-0.8-1.3-3.1-6.7-3.5-11.7c-0.1-0.7,0.5-1.6,1.3-1.8l0.2-0.1c3.3-1,9.5-2.7,17.2-2.7L419.9,284.6
								 M419.9,284.6c-8.1,0-14.6,1.9-17.7,2.8c-1.2,0.3-2.1,1.6-2,2.8c0.4,5.2,2.6,10.7,3.6,12.2c0.2,0.4,0.6,0.6,1,0.6
								c13.7,0,12.2-0.1,26.3,1.7c0.2,0,0.4,0,0.5,0c5.4,0,7.4-11.1,8.7-14.2c0.3-0.7,0-1.5-0.6-1.8c-2-1.2-7.2-3.5-16.7-4.1
								C422,284.7,420.9,284.6,419.9,284.6L419.9,284.6z"/>
						</g>
						
							<ellipse transform="matrix(6.478924e-02 -0.9979 0.9979 6.478924e-02 99.2918 694.5925)" class="st17" cx="420.2" cy="294.3" rx="6" ry="11.1"/>
						<path d="M415.5,294.1c0.2-2.6,2.3-4,4.9-3.9c2.6,0.2,4.5,1.9,4.4,4.5c-0.2,2.6-2.3,4-4.9,3.8
							C417.3,298.3,415.4,296.6,415.5,294.1z"/>
						<path class="st19" d="M412.8,291.3c0,0.7,1.1,1,2.1,1c1.1,0,2.3-0.4,2.3-1.1s-1.1-1-2.1-1S412.7,290.6,412.8,291.3z"/>
					</g>
					<path class="st17" d="M398.7,278.7l3.2,4.3c0.1,0.3,0.4,0.4,0.7,0.4c2.6-0.7,13-4.5,22.8-2.7c6.7,1.3,14.5,3.9,17,4.9
						c0.3,0.1,0.5-0.3,0.3-0.5c-4.2-2.9-15.6-10.6-24.1-10c-9.2,0.7-17.6,2.2-19.4,2.9C398.8,278.1,398.6,278.4,398.7,278.7z"/>
				</g>
			</g>
			<path id="Hair_1_" class="st17" d="M385.1,272.3c0,0-60.6-34.1-72.5,25.7c-3.8-11.1-8-35.1-14.2-43.2c-6.2-8.1-1.3-20.4,0.3-22.3
				c0,0-2.3,13.6,1.6,15.8c3.9,2.3,3.8-34.4,40.3-50c35.6-15.2,26.3-24.4,26.3-24.4s9.7,10.1,1,16.6c-8.8,6.5,2.7,5,7,5
				c3.2,0,19.4-31,47-21.6c0,0-22.1,4.2-16.9,10.1c5.2,5.8,27.9-0.6,24.7-4.9c0,0,4.6,9-6.5,11.2c-11,2.3-0.6,8.3,3.8,9.7
				c4.3,1.3,13.7,8.3,22.8-3.7c0,0-0.3,9.1-4.6,10.3c-8.4,2.4,3.4,8.6,6.8,9.2c3.4,0.6,9.1-0.6,9.1-0.6s-6.5,3-6.8,4.5
				s-4.1,5.6,15.9,1.3c0,0-8.4,4.3-8.4,14.1c0,4.9,6.8,10.6,2.8,39.5l-6.5,23.4C458,297.9,446.7,240.1,385.1,272.3z"/>
		</g>
	</g>
	<g>
		<polygon class="st21" points="800.7,300.4 536,305.6 504.8,317.7 527.1,208.6 819.9,203.2 		"/>
		<polygon class="st22" points="793.2,317.6 529.5,294.6 496.8,307.8 537.8,203 833.6,218 		"/>
		<g>
			<path class="st19" d="M585.6,273.9c-1.7-1-3.1-2.4-4-4.3c-1-1.9-1.5-4.2-1.6-6.8c-0.1-2.6,0.3-4.9,1.2-6.8s2.1-3.4,3.8-4.5
				s3.7-1.6,6-1.7c1.7,0,3.3,0.2,4.8,0.7s2.7,1.3,3.8,2.3l-0.9,1.7c-1.2-1-2.4-1.8-3.6-2.2s-2.5-0.6-4-0.6c-2.9,0.1-5.1,1.1-6.6,3
				c-1.5,1.9-2.3,4.6-2.2,8c0.1,3.5,1,6.1,2.6,7.9s3.9,2.7,6.8,2.6c1.5,0,2.8-0.3,4-0.8s2.3-1.3,3.5-2.4l1,1.7
				c-1,1.1-2.2,1.9-3.7,2.5c-1.4,0.6-3,0.9-4.7,1C589.3,275.3,587.3,274.9,585.6,273.9z"/>
			<path class="st19" d="M604.9,274.6l-0.7-25.7l2.1-0.1l0.7,25.7L604.9,274.6z"/>
			<path class="st19" d="M611.8,249.6l2.8-0.1l0.1,2.7l-2.8,0.1L611.8,249.6z M612.9,274.4l-0.5-17.5l2.1-0.1l0.5,17.5L612.9,274.4z
				"/>
			<path class="st19" d="M623.6,273.2c-1.3-0.7-2.2-1.7-3-3.1c-0.7-1.3-1.1-2.9-1.2-4.7c-0.1-1.8,0.2-3.4,0.9-4.8
				c0.6-1.4,1.6-2.5,2.8-3.3s2.7-1.2,4.3-1.3c1.2,0,2.3,0.1,3.4,0.5c1.1,0.4,2,0.9,2.7,1.6l-0.8,1.7c-0.9-0.7-1.8-1.2-2.7-1.6
				c-0.8-0.3-1.7-0.5-2.6-0.4c-1.9,0.1-3.4,0.7-4.4,2.1c-1.1,1.3-1.6,3.1-1.5,5.4c0.1,2.2,0.7,4,1.8,5.2s2.6,1.8,4.5,1.8
				c0.9,0,1.7-0.2,2.6-0.6c0.8-0.4,1.7-0.9,2.6-1.7l0.9,1.6c-0.7,0.7-1.6,1.3-2.7,1.8c-1.1,0.5-2.2,0.7-3.4,0.7
				C626.3,274.2,624.8,273.9,623.6,273.2z"/>
			<path class="st19" d="M652.6,273.2l-2.9,0.1l-9.9-8.3l0.2,8.5l-2.1,0.1l-0.7-25.7l2.1-0.1l0.5,16.4l8.6-8.4l2.8-0.1l-8.9,8.7
				L652.6,273.2z"/>
			<path class="st19" d="M678.5,261.3l0.3,11.2l-2.1,0.1l-0.3-11c0-1.7-0.4-3-1.2-3.8c-0.7-0.8-1.9-1.2-3.4-1.1
				c-1.7,0-3.1,0.6-4.2,1.7c-1,1.1-1.5,2.6-1.5,4.4l0.3,10.1l-2.1,0.1l-0.7-25.7l2.1-0.1l0.3,11.3c0.5-1.2,1.3-2,2.3-2.7
				c1-0.6,2.2-0.9,3.6-1C676.2,254.6,678.4,256.8,678.5,261.3z"/>
			<path class="st19" d="M685.4,263.3v0.1c0.1,2.4,0.7,4.1,1.8,5.4c1.1,1.2,2.7,1.8,4.8,1.7c2.1-0.1,4-0.8,5.7-2.3l0.9,1.7
				c-0.7,0.7-1.7,1.4-2.9,1.8c-1.2,0.5-2.4,0.7-3.7,0.8c-2.7,0.1-4.8-0.7-6.4-2.2c-1.6-1.6-2.4-3.8-2.5-6.6
				c-0.1-1.8,0.2-3.4,0.9-4.8c0.6-1.4,1.6-2.5,2.8-3.3s2.6-1.2,4.2-1.3c2.3-0.1,4.1,0.6,5.5,2.1c1.3,1.5,2,3.5,2.1,6.2v0.5
				L685.4,263.3z M687.3,257.5c-1,1-1.6,2.4-1.8,4.1l11.1-0.3c-0.2-1.8-0.8-3.1-1.7-4.1c-0.9-0.9-2.2-1.4-3.8-1.3
				S688.3,256.5,687.3,257.5z"/>
			<path class="st19" d="M712.1,253.7v1.9c-0.4-0.1-1-0.1-1.6-0.1c-1.8,0.1-3.1,0.7-3.9,1.8c-0.8,1.2-1.2,2.5-1.2,4.1l0.3,10.3
				l-2.1,0.1l-0.4-12.7c-0.1-1.8-0.2-3.4-0.4-4.9l2-0.1l0.4,3.2c0.4-1.2,1.1-2.1,2.1-2.8s2.1-1,3.3-1
				C711.2,253.6,711.7,253.6,712.1,253.7z"/>
			<path class="st19" d="M716.3,262.4v0.1c0.1,2.4,0.7,4.1,1.8,5.4c1.1,1.2,2.7,1.8,4.8,1.7c2.1-0.1,4-0.8,5.7-2.3l0.9,1.7
				c-0.7,0.7-1.7,1.4-2.9,1.8c-1.2,0.5-2.4,0.7-3.7,0.8c-2.7,0.1-4.8-0.7-6.4-2.2c-1.6-1.6-2.4-3.8-2.5-6.6
				c-0.1-1.8,0.2-3.4,0.9-4.8c0.6-1.4,1.6-2.5,2.8-3.3s2.6-1.2,4.2-1.3c2.3-0.1,4.1,0.6,5.5,2.1c1.3,1.5,2,3.5,2.1,6.2v0.5
				L716.3,262.4z M718.1,256.6c-1,1-1.6,2.4-1.8,4.1l11.1-0.3c-0.2-1.8-0.8-3.1-1.7-4.1c-0.9-0.9-2.2-1.4-3.8-1.3
				C720.4,255.1,719.1,255.6,718.1,256.6z"/>
			<path class="st19" d="M734.5,264.8l-1.2-18.8l2.7-0.1l-0.1,18.8L734.5,264.8z M733.8,267.9l3-0.1l0.1,3l-3,0.1L733.8,267.9z"/>
		</g>
	</g>
	<g id="Hand">
		<path class="st6" d="M660.5,616c0,0,192.9,4.9,195.8-1s2.9-24.5-0.1-27.9s-43.8,1.9-195.8,7.3C654.4,594.6,660.5,616,660.5,616z"
			/>
		<path class="st6" d="M669.1,589.2c8.7,5.1,10.3,13.7,5.2,22.5s-12.7,10.2-21.4,5.1c-8.7-5.1-12.8-13.5-7.7-22.2
			S660.4,584,669.1,589.2z"/>
		<path class="st6" d="M519.2,472.6c0,0,92.6,106,124.1,127.2c31.5,21.1,16.2-14.1,16.2-14.1L543.8,457.9"/>
		<g>
			<path class="st0" d="M879.1,569.5l-6.9,8.4c-1,1.3-2.4,2.2-3.9,2.8l-9.2,3.8c-1.9,0.4-3.3,1.9-3.7,3.8l-3.8,19.2
				c-0.8,4,0.4,8.6,4.5,8.5l16.1,0.2c6.1-0.6,17.1-0.2,18.9,0.3c3.4,1,7-1.5,7.5-5l-11.2,0.7l12.8-0.9c3.2-0.2,5.5-3.1,5-6.3
				l-13.4,0.8l14.1-0.8c3.2,1.3,6.5-4.2,5.9-7.6l-11.9,1.3l19.1-2c2.7,0,3.7-5.4,1.2-6.4l-37.6-0.8c-1.8-0.6-1-3.3-0.4-5.1l3.7-10.9
				c0.1-2.1,0-3-0.9-3.9C883.3,568,880.8,567.8,879.1,569.5z"/>
			<path class="st8" d="M881,609.2c0,0,16.9,1.4,17.5,2.4l-17.4-1.4L881,609.2z"/>
			<path class="st8" d="M881.6,602.5c0,0,23.1,1.7,23.7,2.7l-23.5-1.8L881.6,602.5z"/>
			<path class="st8" d="M911.9,597.5l-29-2.2l-0.2-1C882.7,594.3,911.2,596.5,911.9,597.5"/>
			<path class="st8" d="M882.4,595.8c0,0,0.6-0.5,0.4-1.3s-0.5-1.2-0.5-1.2s0.3,0.8,0.3,1.2C882.6,595.5,882.6,594.6,882.4,595.8z"
				/>
			<path class="st8" d="M880.5,588.6c0,0,0.1,0.8,0.9,1c0.8,0.2,1.3,0.1,1.3,0.1s-0.8-0.1-1.2-0.3
				C880.7,588.8,881.4,589.3,880.5,588.6z"/>
			<path class="st8" d="M881.4,586.3c0,0-0.8,0.2-0.8,1.1c-0.1,0.9,0.1,1.3,0.1,1.3s0-0.8,0.2-1.3
				C881.2,586.6,880.8,587.3,881.4,586.3z"/>
			<path class="st8" d="M881.4,604.2c0,0,0.6-0.5,0.4-1.3c-0.2-0.8-0.5-1.2-0.5-1.2s0.3,0.8,0.3,1.2
				C881.5,603.4,881.4,604.2,881.4,604.2z"/>
			<path class="st8" d="M880.9,610.7c0,0,0.6-0.5,0.4-1.3c-0.2-0.8-0.5-1.2-0.5-1.2s0.3,0.8,0.3,1.2
				C881,610,880.9,610.7,880.9,610.7z"/>
		</g>
	</g>
	<g id="Phone-all">
		<circle class="st23" cx="1070.4" cy="493.2" r="167.5"/>
		<g id="Phone">
			<g>
				<g>
					<path class="st24" d="M885.8,569.4l-1.9-133.7c-0.2-11.7,8.4-21.2,20.1-21.4l322.4-4.5c11.7-0.2,20.8,9.1,21,20.8l1.9,133.7
						c0.2,11.7-8.7,21.2-20.4,21.4l-322.4,4.5C894.7,590.4,885.9,581.1,885.8,569.4L885.8,569.4z"/>
					<path class="st25" d="M1248.2,565.3c0.1,10.4-8.2,19-18.6,19.1l-323.3,4.5c-10.4,0.1-19-8.2-19.1-18.6l-2-135.7
						c-0.1-10.4,8.2-19,18.6-19.1l323.3-4.5c10.4-0.1,19,8.2,19.1,18.6L1248.2,565.3z"/>
					<path class="st25" d="M889.1,570.4l-1.9-135.8c-0.1-9.4,7.3-17,16.7-17.2l323.3-4.5c9.4-0.1,17,7.3,17.2,16.7l1.9,135.8
						c0.1,9.4-7.3,17-16.7,17.2l-323.4,4.5C896.9,587.2,889.2,579.8,889.1,570.4z"/>
					<path class="st26" d="M894.6,476.8c1.2,0,2.2,0.9,2.2,2.1l0,0c0,1.2-0.9,2.2-2.1,2.2l0,0c-1.2,0-2.2-0.9-2.2-2.1l0,0
						C892.5,477.8,893.5,476.8,894.6,476.8L894.6,476.8z"/>
					<path class="st26" d="M894.2,514.6l-0.3-24.5c0-0.5,0.4-1,1-1c0.5,0,1,0.4,1,1l0.3,24.5c0,0.5-0.4,1-1,1
						S894.2,515.1,894.2,514.6z"/>
					<g>
						
							<linearGradient id="SVGID_4_" gradientUnits="userSpaceOnUse" x1="1397.6797" y1="888.9866" x2="1394.5642" y2="884.4821" gradientTransform="matrix(-1.109481e-02 -0.7907 0.7907 -1.109481e-02 209.7531 1644.3307)">
							<stop  offset="0" style="stop-color:#B6B6B6"/>
							<stop  offset="1" style="stop-color:#5A5A5A"/>
						</linearGradient>
						<path class="st27" d="M895.3,527.3c1.8,0,3.4,1.4,3.4,3.3l0,0c0,1.8-1.4,3.4-3.3,3.4l0,0c-1.8,0-3.4-1.4-3.4-3.3l0,0
							C892,528.8,893.5,527.3,895.3,527.3L895.3,527.3z"/>
						
							<radialGradient id="SVGID_5_" cx="1396.1687" cy="886.6442" r="3.0752" gradientTransform="matrix(-1.109481e-02 -0.7907 0.7907 -1.109481e-02 209.7531 1644.3307)" gradientUnits="userSpaceOnUse">
							<stop  offset="0" style="stop-color:#00CAFA"/>
							<stop  offset="0.1902" style="stop-color:#03C7F6"/>
							<stop  offset="0.3772" style="stop-color:#0ABDEA"/>
							<stop  offset="0.5629" style="stop-color:#18ACD7"/>
							<stop  offset="0.7479" style="stop-color:#2A94BB"/>
							<stop  offset="0.9307" style="stop-color:#427697"/>
							<stop  offset="1" style="stop-color:#4C6988"/>
						</radialGradient>
						<path class="st28" d="M895.4,528.2c1.3,0,2.4,1.1,2.5,2.4l0,0c0,1.3-1.1,2.4-2.4,2.5l0,0c-1.3,0-2.4-1.1-2.5-2.4l0,0
							C892.9,529.3,894,528.2,895.4,528.2L895.4,528.2z"/>
						
							<linearGradient id="SVGID_6_" gradientUnits="userSpaceOnUse" x1="1037.8318" y1="1190.2012" x2="1037.8318" y2="1194.0565" gradientTransform="matrix(-0.4049 -0.6792 0.6792 -0.4049 504.2182 1719.2001)">
							<stop  offset="0" style="stop-color:#FFFFFF"/>
							<stop  offset="1" style="stop-color:#FFFFFF;stop-opacity:0"/>
						</linearGradient>
						<path class="st29" d="M893.4,531.8c-0.5-0.9-0.4-1.9,0.2-2.3c0.7-0.4,1.6,0,2.2,0.9c0.5,0.9,0.4,1.9-0.2,2.3
							C895,533.1,894,532.7,893.4,531.8z"/>
					</g>
				</g>
			</g>
			<path class="st19" d="M905.3,576.1l-2.1-147.6c0-2.8,2.2-5,4.9-5.1l321.6-4.5c2.8,0,5,2.2,5.1,4.9l2.1,147.6c0,2.8-2.2,5-4.9,5.1
				L910.4,581C907.7,581,905.4,578.8,905.3,576.1z"/>
		</g>
	</g>
	<path class="st30" d="M1360.6,918.3c-2.8,0-5-2.2-5-5V172.1c0-2.8,2.2-5,5-5s5,2.2,5,5v741.2
		C1365.6,916.1,1363.4,918.3,1360.6,918.3z"/>
	<g>
		<polygon class="st21" points="1725.1,531.1 1406.6,539.9 1380.6,549.8 1413.5,473.7 1702.8,477.3 		"/>
		<polygon class="st22" points="1725,528.6 1406.5,537.4 1377.4,549.7 1424.6,470.2 1736.2,468.2 		"/>
		<g>
			<path class="st19" d="M1438,520.6l-3.2-7.1l-15.1,0.2l-3,7.2l-7.1,0.1l14.5-32.6l5.7-0.1l15.3,32.2L1438,520.6z M1422,508.2
				l10.5-0.1L1427,496L1422,508.2z"/>
			<path class="st19" d="M1447.4,488.1l14.7-0.2c3.6,0,6.4,0.8,8.4,2.5c2,1.7,3,4,3.1,7c0,2.9-0.9,5.3-2.9,7.1
				c-2,1.8-4.7,2.7-8.3,2.7l-7.6,0.1l0.2,13.1l-7.1,0.1L1447.4,488.1z M1461.3,501.8c3.7,0,5.5-1.5,5.5-4.3c0-2.8-1.9-4.2-5.6-4.2
				l-6.7,0.1l0.1,8.4L1461.3,501.8z"/>
			<path class="st19" d="M1478,487.7l14.7-0.2c3.6,0,6.4,0.8,8.4,2.5c2,1.7,3,4,3.1,7c0,2.9-0.9,5.3-2.9,7.1c-2,1.8-4.7,2.7-8.3,2.7
				l-7.6,0.1l0.2,13.1l-7.1,0.1L1478,487.7z M1492,501.4c3.7,0,5.5-1.5,5.5-4.3c0-2.8-1.9-4.2-5.6-4.2l-6.7,0.1l0.1,8.4L1492,501.4z
				"/>
			<path class="st19" d="M1509.1,519.7l-0.4-32.4l7.1-0.1l0.3,26.6l14.5-0.2l0.1,5.8L1509.1,519.7z"/>
			<path class="st19" d="M1535,519.4l-0.4-32.4l7.1-0.1l0.4,32.4L1535,519.4z"/>
			<path class="st19" d="M1555.2,517.5c-2.5-1.3-4.4-3.3-5.7-5.7c-1.3-2.5-2-5.4-2.1-8.7c0-3.3,0.6-6.2,1.8-8.7s3.1-4.5,5.5-5.9
				c2.4-1.4,5.3-2.1,8.5-2.2c2.2,0,4.2,0.3,6.2,0.9c2,0.6,3.6,1.5,4.8,2.7l-2.2,5.1c-1.5-1.1-2.9-1.9-4.3-2.3
				c-1.4-0.5-2.8-0.7-4.4-0.7c-2.9,0-5.1,1-6.6,2.9c-1.5,1.9-2.3,4.6-2.2,8.1c0,3.6,0.9,6.3,2.4,8.1c1.6,1.8,3.8,2.7,6.7,2.7
				c1.5,0,3-0.3,4.3-0.8s2.8-1.3,4.2-2.4l2.3,5.1c-1.2,1.2-2.8,2.1-4.8,2.8c-1.9,0.7-4,1-6.1,1.1
				C1560.5,519.5,1557.7,518.8,1555.2,517.5z"/>
			<path class="st19" d="M1604,518.5l-3.2-7.1l-15.1,0.2l-3,7.2l-7.1,0.1l14.5-32.6l5.7-0.1l15.3,32.2L1604,518.5z M1587.9,506.1
				l10.5-0.1l-5.4-12.1L1587.9,506.1z"/>
			<path class="st19" d="M1617.1,518.4l-0.3-26.6l-10.1,0.1l-0.1-5.8l27.5-0.4l0.1,5.8l-10.1,0.1l0.3,26.6L1617.1,518.4z"/>
			<path class="st19" d="M1638.2,518.1l-0.4-32.4l7.1-0.1l0.4,32.4L1638.2,518.1z"/>
			<path class="st19" d="M1658.3,516.2c-2.4-1.3-4.3-3.2-5.6-5.7c-1.3-2.5-2-5.4-2-8.8s0.6-6.3,1.8-8.8c1.3-2.5,3.1-4.4,5.4-5.8
				c2.4-1.4,5.2-2.1,8.4-2.1c3.2,0,6,0.6,8.4,1.9c2.4,1.3,4.2,3.2,5.5,5.7c1.3,2.5,2,5.4,2,8.8s-0.6,6.3-1.8,8.8
				c-1.2,2.5-3,4.5-5.4,5.9c-2.3,1.4-5.1,2.1-8.3,2.1C1663.5,518.2,1660.7,517.5,1658.3,516.2z M1673,509.6c1.5-1.9,2.2-4.7,2.2-8.3
				c0-3.6-0.8-6.3-2.4-8.2c-1.6-1.9-3.7-2.8-6.4-2.7c-2.7,0-4.8,1-6.4,2.9c-1.5,1.9-2.2,4.6-2.2,8.2c0,3.6,0.8,6.3,2.4,8.2
				c1.6,1.9,3.7,2.8,6.4,2.8C1669.3,512.5,1671.4,511.6,1673,509.6z"/>
			<path class="st19" d="M1708.9,484.8l6.7-0.1l0.4,32.4l-5.3,0.1l-16.4-20.4l0.3,20.6l-6.6,0.1l-0.4-32.4l5.2-0.1l16.4,20.4
				L1708.9,484.8z"/>
		</g>
	</g>
	<g>
		<path d="M1417,693.9c-1.8-0.6-3.3-1.4-4.6-2.6l1.4-2.9c1.3,1.1,2.7,1.9,4.2,2.4c1.4,0.5,3.1,0.7,4.9,0.8c2.1,0,3.7-0.4,4.8-1.1
			c1.1-0.8,1.7-1.9,1.7-3.3c0-1.2-0.5-2.1-1.6-2.7c-1.1-0.6-2.7-1.2-5-1.7c-2.2-0.5-4-1-5.4-1.6c-1.4-0.6-2.5-1.4-3.3-2.5
			c-0.8-1-1.2-2.3-1.2-3.9s0.4-3,1.3-4.2s2.1-2.2,3.6-2.9c1.6-0.7,3.4-1,5.4-1c1.9,0,3.8,0.3,5.4,0.9s3.1,1.4,4.2,2.5l-1.4,2.9
			c-1.3-1.1-2.6-1.8-3.9-2.4c-1.3-0.5-2.8-0.8-4.3-0.8c-2,0-3.6,0.4-4.7,1.2c-1.1,0.8-1.7,2-1.7,3.4c0,1.2,0.5,2.2,1.5,2.8
			c1,0.6,2.6,1.2,4.8,1.8c2.3,0.5,4.2,1.1,5.6,1.6c1.4,0.6,2.6,1.4,3.4,2.3s1.3,2.3,1.3,3.8c0,1.6-0.4,3-1.3,4.2
			c-0.9,1.2-2.1,2.1-3.7,2.8c-1.6,0.7-3.5,1-5.6,1C1420.7,694.7,1418.8,694.4,1417,693.9z"/>
		<path d="M1443.6,693.1c-2-1.2-3.5-2.8-4.5-4.9c-1.1-2.1-1.6-4.6-1.6-7.5c0-2.9,0.5-5.4,1.6-7.5c1.1-2.1,2.6-3.7,4.6-4.9
			c2-1.1,4.3-1.7,7-1.7c1.9,0,3.6,0.3,5.2,0.9c1.6,0.6,3,1.4,4.1,2.5l-1.4,2.9c-1.3-1.1-2.6-1.8-3.8-2.3s-2.6-0.7-4.1-0.7
			c-2.9,0-5.1,0.9-6.7,2.8s-2.4,4.5-2.4,7.9c0,3.5,0.8,6.1,2.3,8c1.6,1.9,3.8,2.8,6.6,2.8c1.5,0,2.8-0.2,4.1-0.7
			c1.3-0.5,2.5-1.2,3.8-2.3l1.4,2.9c-1.1,1.1-2.5,2-4.1,2.5c-1.6,0.6-3.4,0.9-5.3,0.9C1447.9,694.8,1445.5,694.2,1443.6,693.1z"/>
		<path d="M1487,694.6l-4.2,0l-3.4-9.2c-0.4-1-0.9-1.7-1.6-2c-0.7-0.4-1.7-0.6-2.9-0.6l-6,0l0,11.8l-4,0l0.1-27.6l11.4,0
			c3,0,5.3,0.7,7,2c1.6,1.3,2.4,3.3,2.4,5.8c0,1.8-0.5,3.3-1.4,4.6c-1,1.3-2.3,2.2-4.1,2.7c1.6,0.3,2.8,1.4,3.5,3.4L1487,694.6z
			 M1475.8,679.6c2,0,3.5-0.4,4.5-1.2s1.5-2,1.5-3.5c0-1.6-0.5-2.7-1.4-3.5c-1-0.8-2.5-1.2-4.5-1.2l-6.9,0l0,9.4L1475.8,679.6z"/>
		<path d="M1496.8,693.2c-1.9-1.2-3.4-2.8-4.4-4.9c-1-2.1-1.6-4.6-1.5-7.5c0-2.9,0.5-5.4,1.6-7.5c1-2.1,2.5-3.7,4.5-4.9
			c1.9-1.1,4.2-1.7,6.8-1.7c2.6,0,4.9,0.6,6.8,1.7c1.9,1.1,3.4,2.8,4.4,4.9c1,2.1,1.5,4.6,1.5,7.5c0,2.9-0.5,5.4-1.6,7.5
			c-1,2.1-2.5,3.7-4.5,4.9c-1.9,1.1-4.2,1.7-6.8,1.7S1498.7,694.4,1496.8,693.2z M1510,688.9c1.5-1.9,2.3-4.6,2.3-8.1
			c0-3.5-0.8-6.1-2.3-8c-1.5-1.9-3.7-2.8-6.4-2.8c-2.8,0-4.9,0.9-6.4,2.8c-1.5,1.9-2.3,4.5-2.3,8c0,3.5,0.8,6.2,2.3,8.1
			c1.5,1.9,3.7,2.8,6.4,2.8C1506.3,691.7,1508.5,690.8,1510,688.9z"/>
		<path d="M1521.9,694.7l0.1-27.6l4,0l-0.1,24.3l13.4,0l0,3.3L1521.9,694.7z"/>
		<path d="M1543.3,694.8l0.1-27.6l4,0l-0.1,24.3l13.4,0l0,3.3L1543.3,694.8z"/>
		<path d="M1575.1,667.3l9.6,0c4.5,0,7.9,1.2,10.4,3.6c2.4,2.4,3.7,5.8,3.7,10.2c0,4.4-1.3,7.8-3.7,10.2c-2.5,2.4-5.9,3.6-10.4,3.6
			l-9.6,0L1575.1,667.3z M1584.5,691.6c6.8,0,10.2-3.5,10.2-10.5c0-7-3.4-10.4-10.2-10.5l-5.4,0l-0.1,20.9L1584.5,691.6z"/>
		<path d="M1609.3,693.6c-1.9-1.2-3.4-2.8-4.4-4.9c-1-2.1-1.6-4.6-1.5-7.5c0-2.9,0.5-5.4,1.6-7.5c1-2.1,2.5-3.7,4.5-4.9
			c1.9-1.1,4.2-1.7,6.8-1.7c2.6,0,4.9,0.6,6.8,1.7c1.9,1.1,3.4,2.8,4.4,4.9c1,2.1,1.5,4.6,1.5,7.5c0,2.9-0.5,5.4-1.6,7.5
			c-1,2.1-2.5,3.7-4.5,4.9c-1.9,1.1-4.2,1.7-6.8,1.7C1613.5,695.3,1611.2,694.7,1609.3,693.6z M1622.5,689.2
			c1.5-1.9,2.3-4.6,2.3-8.1c0-3.5-0.8-6.1-2.3-8c-1.5-1.9-3.7-2.8-6.4-2.8c-2.8,0-4.9,0.9-6.4,2.8c-1.5,1.9-2.3,4.5-2.3,8
			c0,3.5,0.8,6.2,2.3,8.1c1.5,1.9,3.7,2.8,6.4,2.8C1618.9,692.1,1621,691.1,1622.5,689.2z"/>
		<path d="M1668.8,667.6l3.9,0l-9.8,27.6l-3.3,0l-7.4-21.3l-7.5,21.3l-3.3,0l-9.6-27.6l4.1,0l7.3,22l7.7-21.9l2.9,0l7.5,22
			L1668.8,667.6z"/>
		<path d="M1696,667.6l3.8,0l-0.1,27.6l-3.1,0l-15.8-20.9l-0.1,20.8l-3.8,0l0.1-27.6l3,0l15.8,20.9L1696,667.6z"/>
	</g>
	<g>
		<path d="M1522.2,437.4l0.1-29.5l-11.4,0l0-4.1l27.6,0.1l0,4.1l-11.4,0l-0.1,29.5L1522.2,437.4z"/>
		<path d="M1566.7,403.9l4.9,0l-0.1,33.5l-4.9,0l0-15l-18.8-0.1l0,15l-4.8,0l0.1-33.5l4.8,0l0,14.5l18.8,0.1L1566.7,403.9z"/>
		<path d="M1579.2,437.5l0.1-33.5l21.8,0.1l0,4l-17,0l0,10.6l16,0l0,4l-16,0l0,11.1l17,0l0,4L1579.2,437.5z"/>
	</g>
	<g>
		<path d="M1535.9,605.9c-2.9-1.7-5.1-4.2-6.6-7.5c-1.5-3.2-2.3-7-2.3-11.4c0-4.4,0.8-8.2,2.3-11.4c1.5-3.2,3.7-5.7,6.6-7.4
			s6.3-2.6,10.2-2.6c3.9,0,7.3,0.9,10.2,2.6c2.9,1.7,5.1,4.2,6.6,7.4c1.5,3.2,2.3,7,2.3,11.4c0,4.4-0.8,8.2-2.4,11.4
			c-1.6,3.2-3.8,5.7-6.6,7.4c-2.9,1.7-6.3,2.6-10.1,2.6C1542.2,608.5,1538.8,607.6,1535.9,605.9z M1556.5,599.9
			c2.5-3,3.7-7.3,3.7-12.8c0-5.5-1.2-9.8-3.6-12.8c-2.4-3-5.9-4.5-10.4-4.5c-4.5,0-8,1.5-10.4,4.5c-2.5,3-3.7,7.2-3.7,12.7
			c0,5.5,1.2,9.8,3.7,12.8c2.5,3,5.9,4.6,10.4,4.6C1550.5,604.4,1554,602.9,1556.5,599.9z"/>
		<path d="M1590,578.2l-0.1,4.4c-0.9-0.3-1.9-0.5-3.1-0.5c-2.9,0-5,0.9-6.4,2.7c-1.4,1.8-2.1,3.9-2.1,6.5l0,16.9l-4.8,0l0.1-21.3
			c0-3.1-0.1-5.8-0.4-8.3l4.5,0l0.5,5.5c0.8-2,2-3.5,3.6-4.6c1.7-1.1,3.5-1.6,5.7-1.6C1588.2,577.8,1589.1,578,1590,578.2z"/>
	</g>
	<g>
		<path d="M1452.4,367.8c-4.6-2.4-8.1-5.9-10.6-10.5c-2.5-4.6-3.8-9.9-3.8-16.1c0-6.1,1.2-11.5,3.6-16c2.4-4.5,5.9-8.1,10.5-10.5
			c4.5-2.5,9.9-3.7,16-3.8c6.1,0,11.5,1.2,16,3.6c4.5,2.4,8,5.9,10.5,10.4c2.5,4.5,3.7,9.8,3.7,16c0,6.1-1.1,11.5-3.6,16.1
			c-2.4,4.6-5.9,8.1-10.4,10.6c-4.5,2.5-9.8,3.7-16,3.8C1462.3,371.4,1457,370.2,1452.4,367.8z M1480.6,356c2.9-3.5,4.3-8.5,4.3-15
			c0-6.5-1.5-11.5-4.5-14.9c-2.9-3.4-7-5.1-12.3-5.1c-5.2,0-9.3,1.8-12.2,5.2c-2.9,3.4-4.3,8.4-4.3,14.9c0,6.6,1.5,11.6,4.5,15
			c2.9,3.4,7,5.1,12.3,5.1C1473.6,361.3,1477.7,359.5,1480.6,356z"/>
		<path d="M1508.8,311.4l28.1-0.2c6.8,0,12.2,1.5,16,4.6c3.8,3.1,5.7,7.4,5.8,12.8c0,5.4-1.9,9.6-5.7,12.8
			c-3.8,3.2-9.1,4.8-15.9,4.9l-14.5,0.1l0.1,23.9l-13.6,0.1L1508.8,311.4z M1535.4,336.5c7.1,0,10.6-2.6,10.6-7.7
			c0-5.1-3.6-7.7-10.7-7.6l-12.8,0.1l0.1,15.3L1535.4,336.5z"/>
		<path d="M1567.9,370.1l-0.3-59l42.7-0.3l0.1,10l-29.5,0.2l0.1,13.9l27.7-0.2l0.1,10.1L1581,345l0.1,14.9l29.5-0.2l0.1,10
			L1567.9,370.1z"/>
		<path d="M1660.6,310.5l12.8-0.1l0.3,59l-10.1,0.1l-31.1-37.4l0.2,37.6l-12.7,0.1l-0.3-59l10-0.1l31.1,37.4L1660.6,310.5z"/>
	</g>
	<path class="st23" d="M1719.9,718.9h-326.1c-0.3,0-0.5-0.2-0.5-0.5v-69.9c0-0.3,0.2-0.5,0.5-0.5h326.1c0.3,0,0.5,0.2,0.5,0.5v69.9
		C1720.4,718.7,1720.1,718.9,1719.9,718.9z M1394.2,717.9h325.1V649h-325.1V717.9z"/>
	<path class="st23" d="M1556.8,801.7c-0.1,0-0.2,0-0.3-0.1l-41.1-36.3c-0.2-0.1-0.2-0.4-0.1-0.6c0.1-0.2,0.3-0.3,0.5-0.3h25.5V730
		c0-0.3,0.2-0.5,0.5-0.5h30.1c0.3,0,0.5,0.2,0.5,0.5v34.5h25.5c0.2,0,0.4,0.1,0.5,0.3c0.1,0.2,0,0.4-0.1,0.6l-41.1,36.3
		C1557,801.7,1556.9,801.7,1556.8,801.7z M1517.1,765.4l39.7,35.1l39.7-35.1h-24.7c-0.3,0-0.5-0.2-0.5-0.5v-34.5h-29.1v34.5
		c0,0.3-0.2,0.5-0.5,0.5H1517.1z"/>
</g>
</svg>
