<?xml version="1.0" encoding="utf-8"?>
<!-- Generator: Adobe Illustrator 22.0.1, SVG Export Plug-In . SVG Version: 6.00 Build 0)  -->
<svg version="1.1" id="Layer_1" xmlns="http://www.w3.org/2000/svg" xmlns:xlink="http://www.w3.org/1999/xlink" x="0px" y="0px"
	 viewBox="0 0 860.7 1080" style="enable-background:new 0 0 860.7 1080;" xml:space="preserve">
<style type="text/css">
	.st0{fill:#F2DAC9;}
	.st1{fill:#EAD1C1;}
	.st2{opacity:7.000000e-02;enable-background:new    ;}
	.st3{fill:#746568;}
	.st4{fill:#D6D6D6;}
	.st5{fill:#5DAF08;}
	.st6{fill:#243151;}
	.st7{fill:#101525;}
	.st8{fill:#B4B4B5;}
	.st9{display:none;}
	.st10{display:inline;fill:#243151;}
	.st11{fill:#5FEE3E;}
	.st12{fill:url(#SVGID_1_);}
	.st13{fill:url(#SVGID_2_);}
	.st14{fill:#33EC00;}
	.st15{fill:url(#SVGID_3_);}
	.st16{fill:#EDD7C8;}
	.st17{fill:#3F2819;}
	.st18{fill:#897A72;}
	.st19{fill:#FFFFFF;}
	.st20{fill:#E5D2C6;}
	.st21{fill:#565656;}
	.st22{fill:#3A3A3A;}
	.st23{enable-background:new    ;}
</style>
<g>
	<path class="st0" d="M82.2,433.8l6.2,9c0.9,1.4,2.2,2.4,3.7,3.1l8.9,4.6c1.8,0.6,3.1,2.2,3.4,4.1l2.2,19.5c0.4,4-1.1,8.5-5.2,8.1
		L85.3,481c-6-1.1-17-1.7-18.9-1.3c-3.5,0.8-6.9-2-7.1-5.6l11.1,1.7l-12.7-1.9c-3.2-0.5-5.2-3.6-4.5-6.7l13.2,1.9l-14-2
		c-3.3,1.1-6.2-4.8-5.2-8.1l11.8,2.2l-18.9-3.6c-2.7-0.2-3.2-5.7-0.6-6.5l37.5,2.3c1.8-0.5,1.2-3.2,0.9-5l-2.8-11.2
		c0-2.1,0.2-3,1.2-3.8C78.1,432,80.6,432,82.2,433.8z"/>
	<path class="st1" d="M76.9,473.2c0,0-17,0-17.6,0.9h17.4L76.9,473.2z"/>
	<path class="st1" d="M76.9,466.5c0,0-23.1-0.2-23.8,0.8l23.6,0.2L76.9,466.5z"/>
	<path class="st1" d="M47.2,459l29.1,0.2l0.3-1C76.5,458.3,48,458.1,47.2,459"/>
	<path class="st1" d="M76.6,459.7c0,0-0.6-0.5-0.3-1.3c0.3-0.8,0.6-1.1,0.6-1.1s-0.3,0.8-0.4,1.2C76.5,459.4,76.5,458.6,76.6,459.7z
		"/>
	<path class="st1" d="M79.2,452.7c0,0-0.2,0.8-1,0.9s-1.3,0-1.3,0s0.8-0.1,1.2-0.2C78.9,453,78.2,453.3,79.2,452.7z"/>
	<path class="st1" d="M78.5,450.4c0,0,0.7,0.3,0.7,1.1c0,0.9-0.2,1.3-0.2,1.3s0-0.8-0.1-1.3C78.7,450.7,79,451.5,78.5,450.4z"/>
	<path class="st1" d="M77,468.2c0,0-0.6-0.5-0.3-1.3c0.3-0.8,0.6-1.1,0.6-1.1s-0.3,0.8-0.4,1.2C76.9,467.4,77,468.2,77,468.2z"/>
	<path class="st1" d="M77,474.8c0,0-0.6-0.5-0.3-1.3c0.3-0.8,0.6-1.1,0.6-1.1s-0.3,0.8-0.4,1.2C76.9,474,77,474.8,77,474.8z"/>
</g>
<g id="Caracter_1_">
	<g id="Caracter">
		<polygon class="st0" points="594.2,377.1 575.6,388.8 565.7,423.2 595.6,435 625.1,423.2 615.1,388.8 597,377.1 		"/>
		<polygon class="st2" points="581.8,382.2 596.5,401.8 625.1,423.2 614.8,387.8 		"/>
		<path class="st3" d="M600.3,604.8c-70,3-111.8,153.3-111.3,160.2s-2.9,39.5-2.9,39.5s22.7,14.1,19,29.2
			c-3.8,15.1,1.1,245.3,1.1,245.3h42l15.6-212.3l51.9-3l30.5,215.2h54L669,820c0,0,22.3-6.4,27.8-25.6c2.6-9,12.5,14.3,4.5-60.4
			C695.3,676.8,690.9,600.9,600.3,604.8z"/>
		<g id="necktie_1_">
			<polygon class="st4" points="625.1,421 631.6,428.5 648.4,454.2 634.5,524.8 592.5,586.9 559.4,528.4 539.4,447.4 557,428.6 
				565.7,421.2 593.9,430.2 			"/>
			<path class="st5" d="M629.5,426.1l-32,28c-0.3,0.2-3.5-2.3-3.8-2.3s-3.9,2.5-4.1,2.3l-28.4-29l4.5-3.8l28.1,8.9l31.4-9
				L629.5,426.1z"/>
			<polygon class="st6" points="595.4,451.6 607.7,523.3 593.9,558.2 577.8,523.5 591.5,451.6 			"/>
			<polygon class="st6" points="593.7,431.6 589.3,448.1 593.7,455.2 598.1,448.1 			"/>
			<circle class="st4" cx="593.7" cy="431.4" r="1.4"/>
		</g>
		<path class="st7" d="M431.4,466.2c0.4-7.6,3.2-12.2,9.6-14.8c6.9-2.7,34.7-7.2,56.7-9.3c17.9-1.7,40.5-6.4,48.2-8.1
			c1.8-0.4,3.5-1.1,5-2l5.6-3.3c1.5-0.9,3.5-0.2,4,1.5c6.8,21.6,25.8,84.2,33.9,110.8c8-26.6,27-89.2,33.9-110.8
			c0.5-1.7,2.5-2.4,4-1.5l5.6,3.3c1.6,0.9,3.3,1.6,5,2c7.7,1.7,30.2,6.4,48.2,8.1c22,2.1,49.8,6.5,56.7,9.3
			c6.9,2.7,9.6,7.9,9.6,16.7c0,1.6-1.2,5.6-3.2,11.3c9.2,31.7,37,129.8,37.9,161.1c0.1,4.5-0.1,8-0.5,10.6c0.8,0.2,1.2,0.3,1.2,0.3
			s5.5,192.9-0.4,195.8c-5.9,2.9-24.5,3-27.9,0s1.8-43.8,6.7-195.8c0-1.2,1-1.9,2.4-2.3c-1.2-1.5-1.9-2.6-1.9-2.6l-33.9-122.1
			c-8.8,25.2-17.5,54.2-19.1,77c-3.4,48.1-7.6,178.3-3.4,191.3c4.1,13.1-50.2,4.1-66.3,0c-13.2-3.4-17.5-16.9-18.6-21.7
			c-0.3-1.3-0.7-2.6-1.3-3.8l-31.8-67c-1.1-2.3-2-4.7-2.7-7.1c-0.7,2.4-1.6,4.8-2.7,7.1l-31.8,67c-0.6,1.2-1,2.5-1.3,3.8
			c-1.1,4.8-5.4,18.3-18.6,21.7c-16.2,4.1-70.4,13.1-66.3,0s0-143.2-3.4-191.3c-2.2-30.6-17.3-72.7-28-101.5"/>
		<circle class="st4" cx="587.4" cy="582.8" r="5.3"/>
		<circle class="st4" cx="586.1" cy="653.7" r="5.3"/>
		<circle class="st4" cx="567.8" cy="719.9" r="5.3"/>
		<rect x="584.6" y="480" class="st8" width="14.4" height="2.4"/>
		<path class="st8" d="M680.2,821.9"/>
		<path class="st0" d="M744.8,868.8l8.8-6.4c1.3-0.9,2.4-2.2,3-3.8l4.3-9c0.5-1.8,2.1-3.2,4-3.5l19.4-2.7c4-0.5,8.5,0.9,8.2,5
			l-0.8,16.1c-1,6.1-1.2,17-0.8,18.9c0.8,3.5-1.9,6.9-5.4,7.2l1.4-11.2l-1.6,12.7c-0.4,3.2-3.5,5.3-6.6,4.6l1.6-13.3l-1.7,14
			c1.2,3.3-4.6,6.3-8,5.4l2-11.8l-3.1,18.9c-0.2,2.7-5.6,3.4-6.4,0.8l1.4-37.6c-0.5-1.8-3.2-1.2-5.1-0.7l-11.1,3
			c-2.1,0-3-0.1-3.9-1.1C743.1,873,743.1,870.4,744.8,868.8z"/>
		<path class="st1" d="M784.3,873.1c0,0,0.4,17,1.4,17.6l-0.4-17.4L784.3,873.1z"/>
		<path class="st1" d="M777.6,873.2c0,0,0.4,23.1,1.4,23.8l-0.4-23.6L777.6,873.2z"/>
		<path class="st1" d="M770.9,903.2l-0.5-29.1l-1-0.2C769.4,873.9,769.9,902.4,770.9,903.2"/>
		<path class="st1" d="M770.9,873.7c0,0-0.5,0.6-1.3,0.3s-1.1-0.6-1.1-0.6s0.8,0.3,1.2,0.3C770.6,873.8,769.7,873.9,770.9,873.7z"/>
		<path class="st1" d="M763.8,871.4c0,0,0.8,0.2,0.9,1c0.1,0.8,0,1.3,0,1.3s-0.1-0.8-0.3-1.2C764,871.6,764.5,872.3,763.8,871.4z"/>
		<path class="st1" d="M761.5,872.1c0,0,0.2-0.7,1.1-0.8c0.9,0,1.3,0.2,1.3,0.2s-0.9,0-1.3,0.1C761.8,871.9,762.5,871.6,761.5,872.1
			z"/>
		<path class="st1" d="M779.3,873.2c0,0-0.5,0.6-1.3,0.3s-1.1-0.6-1.1-0.6s0.8,0.3,1.2,0.3C778.6,873.3,779.3,873.2,779.3,873.2z"/>
		<path class="st1" d="M785.9,873c0,0-0.5,0.6-1.3,0.3s-1.1-0.6-1.1-0.6s0.8,0.3,1.2,0.3S785.9,873,785.9,873z"/>
		<path class="st7" d="M766.1,652c0,10.1,6.6,15.9,16.7,15.9c10.1,0,15.3-5.8,15.3-15.9c0-10.1-5.1-17.9-15.3-17.9
			C772.7,634.1,766.1,641.9,766.1,652z"/>
		<circle class="st7" cx="739.1" cy="475.2" r="18.3"/>
		<g>
			<g id="LOGO">
				<g id="Check_Green">
					<g id="Layer_4" class="st9">
						<polygon class="st10" points="502.4,497.9 504.2,502.5 509.5,495.1 502.6,491.1 						"/>
						<polygon class="st10" points="503.7,501.7 508.1,504.2 512.6,498 508.9,494.3 						"/>
						<polygon class="st10" points="507,504.9 509.6,506.6 512.4,508.8 514.2,501.8 512.3,497.5 						"/>
					</g>
					<g id="Layer_7">
						<g>
							<path class="st6" d="M542.8,495.5c-1.1,0-1.9,0.4-2.3,1.2c-0.2,0.4-0.6,0.7-1.1,0.7h-1.5c0.1-1.2,0.6-2.2,1.4-2.9
								c0.9-0.7,2-1,3.5-1c3.7,0,5.7,2.1,5.7,5.7c0,3.4-1.8,5.7-5.4,5.7c-3,0-4.9-1.4-5.1-4h2.4c0.3,1.2,1.1,2,2.6,2
								c2.2,0,3.2-1.5,3.2-3.7C546.1,497,545.1,495.5,542.8,495.5z"/>
							<path class="st6" d="M533.1,501h2.6v-2.2h0.7c0.4,0,0.7,0.3,0.7,0.6v5.3h-1.3V502h-2.6v2.7h-1.3v-6h1.3v2.3H533.1z"/>
							<path class="st6" d="M531.1,499.4v5.4h-4.6v-1.1h3.3v-1.6H528c-0.5,0-0.7-0.2-0.7-0.6v-0.4h2.5v-1.3h-3.3v-1h4
								C530.9,498.8,531.1,499,531.1,499.4z"/>
							<path class="st6" d="M522.9,503.8c1.2,0,1.7-0.8,1.7-2s-0.5-2-1.8-2c-0.6,0-1,0.2-1.3,0.7c-0.1,0.2-0.3,0.4-0.6,0.4h-0.8
								c0.1-0.7,0.3-1.2,0.8-1.6s1.1-0.5,1.9-0.5c2,0,3.1,1.2,3.1,3.1s-1,3.1-2.9,3.1c-1.6,0-2.7-0.8-2.8-2.2h1.3
								C521.6,503.4,522,503.8,522.9,503.8z"/>
							<path class="st6" d="M516.6,501.2l-2.6-2.4h1.7l2.5,2.5v-2.5h0.7c0.4,0,0.7,0.3,0.7,0.6v5.3h-1.3v-2.1c0-0.2-0.1-0.4-0.4-0.4
								c-0.2-0.1-0.5,0.1-0.8,0.4l-1.6,2.1h-1.6L516.6,501.2z"/>
						</g>
					</g>
				</g>
			</g>
			<g id="Frunza_1_">
				<g id="Frunza">
					<path class="st11" d="M502.5,493c0,0,1.2,1.7,4.6,3.5s4.2,1.8,5.8,4.6c0.9,1.5,1.2,4.5-0.9,8.2c0.3-4.8-2.6-5.7-2.6-5.7
						s1.2,0,1.8,0c0.6,0,1.5-0.5,0.9-1.9c-0.6-1.3-1.8-1.9-3.1-2.7c-1.4-0.8-3.6-1.7-4.5-1.6s-0.3,0.9-0.3,0.9s-0.2,0-0.2,0.5
						s2.5,3.4,2.5,3.4c-1.7-0.2-1.4,0.3-1.4,0.6c0,0.3,0.1,0.6,0.9,0.9c0.8,0.2,1.6,0,2.5,0.8c1,0.9,1.1,1.7,1.1,2.2s-0.3,1-0.3,1
						c-1.5-0.8-3.6-1.7-5.1-3.5C502.8,502.1,502.5,494.6,502.5,493z"/>
					
						<linearGradient id="SVGID_1_" gradientUnits="userSpaceOnUse" x1="-937.6435" y1="-17.2072" x2="-954.9779" y2="-45.304" gradientTransform="matrix(-1.065 3.964543e-03 -3.714482e-03 -0.9978 -498.8952 475.9204)">
						<stop  offset="0" style="stop-color:#000000"/>
						<stop  offset="0.4877" style="stop-color:#000000;stop-opacity:0"/>
						<stop  offset="1" style="stop-color:#000000"/>
					</linearGradient>
					<path class="st12" d="M502.5,493c0,0,1.2,1.7,4.6,3.5s4.2,1.8,5.8,4.6c0.9,1.5,1.2,4.5-0.9,8.2c0.3-4.8-2.6-5.7-2.6-5.7
						s1.2,0,1.8,0c0.6,0,1.5-0.5,0.9-1.9c-0.6-1.3-1.8-1.9-3.1-2.7c-1.4-0.8-3.6-1.7-4.5-1.6s-0.3,0.9-0.3,0.9s-0.2,0-0.2,0.5
						s2.5,3.4,2.5,3.4c-1.7-0.2-1.4,0.3-1.4,0.6c0,0.3,0.1,0.6,0.9,0.9c0.8,0.2,1.6,0,2.5,0.8c1,0.9,1.1,1.7,1.1,2.2s-0.3,1-0.3,1
						c-1.5-0.8-3.6-1.7-5.1-3.5C502.8,502.1,502.5,494.6,502.5,493z"/>
				</g>
			</g>
			<path class="st11" d="M505.1,498.4c0,0,3.1,0.8,5.4,3.4c0,0-0.4,0.3-2.3,0.2L505.1,498.4z"/>
			
				<linearGradient id="SVGID_2_" gradientUnits="userSpaceOnUse" x1="-939.9031" y1="-24.1765" x2="-952.0776" y2="-34.1586" gradientTransform="matrix(-1.065 3.964543e-03 -3.714482e-03 -0.9978 -498.8952 475.9204)">
				<stop  offset="0" style="stop-color:#000000"/>
				<stop  offset="0.4778" style="stop-color:#000000;stop-opacity:0"/>
			</linearGradient>
			<path class="st13" d="M505.1,498.4c0,0,3.1,0.8,5.4,3.4c0,0-0.4,0.3-2.3,0.2L505.1,498.4z"/>
			<path class="st14" d="M504.3,504c-1.5-1.9-1.8-9.4-1.8-11l0,0c0.3,1.1,1,3.2,2,4.4c-0.9,0.1-0.3,0.9-0.3,0.9s-0.2,0-0.2,0.5
				s2.5,3.4,2.5,3.4c-1.7-0.2-1.4,0.3-1.4,0.6c0,0.3,0.1,0.6,0.9,0.9c0.8,0.2,1.6,0,2.5,0.8c1,0.9,1.1,1.7,1.1,2.2s-0.3,1-0.3,1
				C507.9,506.8,505.8,505.9,504.3,504z"/>
			
				<linearGradient id="SVGID_3_" gradientUnits="userSpaceOnUse" x1="-937.3314" y1="-21.3948" x2="-952.6952" y2="-42.0536" gradientTransform="matrix(-1.065 3.964543e-03 -3.714482e-03 -0.9978 -498.8952 475.9204)">
				<stop  offset="0" style="stop-color:#000000;stop-opacity:0.2"/>
				<stop  offset="0.4877" style="stop-color:#000000;stop-opacity:0"/>
				<stop  offset="0.9373" style="stop-color:#000000;stop-opacity:0.8777"/>
				<stop  offset="1" style="stop-color:#000000"/>
			</linearGradient>
			<path class="st15" d="M504.3,504c-1.5-1.9-1.8-9.4-1.8-11l0,0c0.3,1.1,1,3.2,2,4.4c-0.9,0.1-0.3,0.9-0.3,0.9s-0.2,0-0.2,0.5
				s2.5,3.4,2.5,3.4c-1.7-0.2-1.4,0.3-1.4,0.6c0,0.3,0.1,0.6,0.9,0.9c0.8,0.2,1.6,0,2.5,0.8c1,0.9,1.1,1.7,1.1,2.2s-0.3,1-0.3,1
				C507.9,506.8,505.8,505.9,504.3,504z"/>
			<g>
				<path class="st14" d="M496.2,499.5c0,0.6-0.5,1.1-1.2,1.1h-1.4c0.3,1.3,1.2,2.4,2.8,2.4c2.2-0.1,3.2-1.4,3.2-3.9
					c0-2.4-1.1-3.6-3.1-3.6c-1.1,0-2,0.4-2.4,1.3c-0.3,0.4-0.6,0.6-1.1,0.6h-1.5c0.1-1.3,0.6-2.2,1.5-2.9c1-0.7,2.2-1,3.5-1
					c3.5-0.1,5.5,2.4,5.5,5.7c0,3.2-2,5.7-5.4,5.7c-1.7,0-2.5-0.6-3.4-1.6l-0.1,0.5c-0.1,0.5-0.6,0.9-1.2,0.9h-0.6v-6h4.8v0.8H496.2
					z"/>
				<path class="st14" d="M485,504.8h1.4c0.1-0.1,0.1-0.2,0.1-0.4c0-0.1,0-0.4,0.1-1c0-0.7,0.2-1,1-1h1.4v2.3h1.3v-5.3
					c0-0.3-0.3-0.6-0.7-0.6h-2.4c-1.3,0-2,0.5-2,1.7c0,0.8,0.3,1.2,1,1.4c-0.3,0.1-0.5,0.2-0.6,0.4c-0.1,0.2-0.2,0.5-0.2,0.9
					l-0.1,1.2C485.2,504.6,485.1,504.7,485,504.8z M486.4,500.6c0-0.5,0.3-0.8,0.9-0.8h1.6v1.6h-1.5
					C486.7,501.4,486.4,501.2,486.4,500.6z"/>
				<path class="st14" d="M484.3,499.5v5.4h-4.6v-1.1h3.3v-1.6h-1.8c-0.5,0-0.7-0.2-0.7-0.6v-0.4h2.5v-1.3h-3.3v-1h4
					C484.1,498.8,484.3,499,484.3,499.5z"/>
				<path class="st14" d="M479,499.5v5.4h-4.6v-1.1h3.3v-1.6h-1.8c-0.5,0-0.7-0.2-0.7-0.6v-0.4h2.5v-1.3h-3.3v-1h4
					C478.8,498.8,479,499,479,499.5z"/>
				<path class="st14" d="M469.8,498.8v4.1l2.6-4.1h0.7c0.4,0,0.7,0.3,0.7,0.6v5.3h-1.3v-4.1l-2.6,4.1h-1.4v-6h1.3V498.8z"/>
			</g>
		</g>
		<g id="Ear_1_">
			<path class="st16" d="M669.3,296.9c0,0,0.3-3.9,3.9-2.4s-4.6,15.6-5.4,20.4s-1.6,17.5-4.9,17.5S660,331,660,331v-19.6
				L669.3,296.9z"/>
			<path class="st16" d="M524.3,296.9c0,0-0.3-3.9-3.9-2.4s4.6,15.6,5.4,20.4c0.8,4.8,1.6,17.5,4.9,17.5s2.9-1.4,2.9-1.4v-19.6
				L524.3,296.9z"/>
		</g>
		<g id="Head_2_">
			<ellipse class="st0" cx="596.6" cy="261.1" rx="79.2" ry="67.2"/>
			<path class="st0" d="M596.6,263.3h79.2c0,0-16.2,91.9-28.2,108.9c-8.9,8.2-47,27.7-50.7,29.6c-0.1,0.1-0.3,0-0.3-0.2
				c0,0.2-0.2,0.3-0.3,0.2c-3.7-1.9-41.9-21.4-50.7-29.6c-11.9-17-28.2-108.9-28.2-108.9H596.6z"/>
		</g>
		<g id="Beard_1_">
			<path class="st17" d="M648.4,371.1l-51.9,25.8l0,0c-0.1,0.4-1.9,5.7,0,5.3c0,0,48.1-22.8,51.6-29.2
				C648.7,371.9,648.4,371.1,648.4,371.1z"/>
			<path class="st17" d="M544.9,371.2l51.5,25.7l0,0c0,0.5,2,5.7-0.1,5.3c0,0-48.1-22.8-51.6-29.2
				C544.2,371.9,544.9,371.2,544.9,371.2z"/>
		</g>
		<g id="Mouth_1_">
			<path class="st18" d="M593.5,363.9l-9.2-0.9c-2.9-0.3-5.7-1.9-7.5-4.6l-9.7-10.9c-0.1-0.2,0-0.4,0.2-0.4l26.8,3
				c1.7,0.2,3.3,0.2,5,0l27.3-3c0.3,0,0.5,0.3,0.3,0.6l-9.5,10.6c-1.9,2.7-4.6,4.4-7.6,4.6l-9.8,0.9
				C597.7,364.1,595.6,364.1,593.5,363.9z"/>
			<path class="st19" d="M567.2,347.6c-0.1-0.2,0-0.4,0.2-0.4l26.8,3c1.7,0.2,3.3,0.2,5,0l27.3-3c0.3,0,0.5,0.3,0.3,0.6l-25.3,6.6
				c-3.1,0.6-6.3,0.6-9.4,0L567.2,347.6z"/>
		</g>
		<path id="Nose_1_" class="st1" d="M596.6,296.9l-8.5,23.7c-1.2,3.4,0.2,7.1,3.4,8.9l5.2,2.8l-5.3-1.7c-4-1.3-6.1-5.7-4.5-9.6
			L596.6,296.9z"/>
		<g id="Eyes_1_">
			<g id="Left-Eye_1_">
				<g id="Eye_3_">
					<path class="st19" d="M611,289.9c-0.1-1.2,0.8-2.5,1.9-2.9c3.5-1.1,11.3-3.7,20.8-3.3c9.5,0.3,14.7,2.5,16.8,3.6
						c0.7,0.4,0.9,1.1,0.7,1.8c-1.2,3.2-3,15-8.8,14.4c-14.2-1.4-12.6-1.3-26.4-0.9c-0.4,0-0.8-0.2-1.1-0.6
						C614,300.5,611.5,295,611,289.9z"/>
					<g>
						<path class="st20" d="M632,284.6L632,284.6c0.6,0,1.1,0,1.7,0c9.2,0.3,14.2,2.3,16.4,3.5c0.2,0.1,0.3,0.4,0.2,0.6
							c-0.2,0.7-0.5,1.6-0.8,2.7c-1.1,4.1-3,11.1-6.7,11.1c-0.1,0-0.2,0-0.3,0H642c-8.4-0.9-11.2-1.1-15.3-1.1
							c-1.9,0-4.1,0.1-7.4,0.2l-3.3,0.1c-0.1,0-0.2-0.1-0.3-0.1c-0.9-1.3-3.3-6.6-3.8-11.6c-0.1-0.7,0.5-1.6,1.2-1.8l0.2-0.1
							C616.8,286.8,623.6,284.6,632,284.6 M632,283.6c-8.7,0-15.8,2.3-19.1,3.4c-1.2,0.4-2,1.7-1.9,2.9c0.5,5.1,2.9,10.6,4,12.1
							c0.2,0.4,0.6,0.6,1.1,0.6c5.2-0.1,8.2-0.2,10.7-0.2c4.1,0,6.9,0.3,15.7,1.2c0.1,0,0.3,0,0.4,0c5.5,0,7.2-11.3,8.4-14.4
							c0.3-0.7,0-1.5-0.7-1.8c-2.1-1.1-7.3-3.3-16.8-3.6C633.2,283.6,632.6,283.6,632,283.6L632,283.6z"/>
					</g>
					
						<ellipse transform="matrix(3.595985e-02 -0.9994 0.9994 3.595985e-02 315.3596 913.4668)" class="st17" cx="631.1" cy="293.3" rx="6" ry="11.1"/>
					<path d="M626.5,293.2c0.1-2.6,2.2-4.1,4.8-4s4.6,1.8,4.5,4.3s-2.2,4-4.8,4S626.4,295.7,626.5,293.2z"/>
					<path class="st19" d="M634.5,290.9c0,0.7,1.1,1,2.2,1s2.2-0.5,2.2-1.2s-1.1-0.9-2.2-0.9C635.7,289.8,634.5,290.2,634.5,290.9z"
						/>
				</g>
				<path class="st17" d="M609.3,278.3l3.3,4.2c0.1,0.3,0.4,0.4,0.7,0.3c2.6-0.8,12.9-4.9,22.7-3.4c6.8,1.1,14.6,3.5,17.1,4.4
					c0.3,0.1,0.5-0.3,0.2-0.5c-4.3-2.7-15.9-10.1-24.4-9.3c-9.2,0.9-17.5,2.7-19.3,3.4C609.3,277.7,609.2,278,609.3,278.3z"/>
			</g>
			<g id="Right-Eye_1_">
				<g id="Eye_2_">
					<path class="st19" d="M581.8,289.3c0.1-1.2-0.8-2.5-2-2.8c-3.6-1-11.4-3.4-20.9-2.7c-9.5,0.6-14.6,2.9-16.7,4.1
						c-0.6,0.4-0.9,1.2-0.6,1.8c1.3,3.2,3.5,14.9,9.2,14.1c14.1-1.9,12.6-1.7,26.3-1.7c0.4,0,0.8-0.3,1-0.6
						C579.2,300,581.4,294.5,581.8,289.3z"/>
					<g>
						<path class="st20" d="M562.1,284.6c7.7,0,13.9,1.8,17.2,2.7l0.2,0.1c0.7,0.2,1.3,1.1,1.3,1.8c-0.3,5-2.6,10.4-3.5,11.7
							c-0.1,0.1-0.1,0.1-0.2,0.2h-3.3c-10.2,0-10.2,0-22.7,1.6l-0.5,0.1c-0.1,0-0.3,0-0.4,0c-3.6,0-5.7-6.8-6.9-10.9
							c-0.3-1.1-0.6-2-0.9-2.7c-0.1-0.2,0-0.5,0.2-0.6c2.1-1.2,7.1-3.4,16.3-4C560,284.7,561,284.6,562.1,284.6 M562.1,283.6
							c-1,0-2.1,0-3.2,0.1c-9.5,0.6-14.6,2.9-16.7,4.1c-0.6,0.4-0.9,1.2-0.6,1.8c1.3,3.1,3.3,14.2,8.7,14.2c0.2,0,0.4,0,0.5,0
							c14.1-1.9,12.6-1.7,26.3-1.7c0.4,0,0.8-0.3,1-0.6c1-1.5,3.3-7.1,3.6-12.2c0.1-1.2-0.8-2.5-2-2.8
							C576.6,285.6,570.1,283.6,562.1,283.6L562.1,283.6z"/>
					</g>
					
						<ellipse transform="matrix(0.9979 -6.478924e-02 6.478924e-02 0.9979 -17.8292 37.0088)" class="st17" cx="561.7" cy="293.4" rx="11.1" ry="6"/>
					<path d="M566.4,293.1c-0.2-2.6-2.3-4-4.9-3.9c-2.6,0.2-4.5,1.9-4.4,4.5c0.2,2.6,2.3,4,4.9,3.8
						C564.6,297.3,566.5,295.6,566.4,293.1z"/>
					<path class="st19" d="M569.2,290.3c0,0.7-1.1,1-2.1,1c-1.1,0-2.3-0.4-2.3-1.1s1.1-1,2.1-1S569.2,289.6,569.2,290.3z"/>
				</g>
				<path class="st17" d="M583.2,277.7L580,282c-0.1,0.3-0.4,0.4-0.7,0.4c-2.6-0.7-13-4.5-22.8-2.7c-6.7,1.3-14.5,3.9-17,4.9
					c-0.3,0.1-0.5-0.3-0.3-0.5c4.2-2.9,15.6-10.6,24.1-10c9.2,0.7,17.6,2.2,19.4,2.9C583.1,277.1,583.3,277.4,583.2,277.7z"/>
			</g>
		</g>
		<path id="Hair_1_" class="st17" d="M596.8,271.3c0,0,60.6-34.1,72.5,25.7c3.8-11.1,8-35.1,14.2-43.2s1.3-20.4-0.3-22.3
			c0,0,2.3,13.6-1.6,15.8c-3.9,2.3-3.8-34.4-40.3-50C605.8,182,615,172.9,615,172.9s-9.7,10.1-1,16.6s-2.7,5-7,5
			c-3.2,0-19.4-31-47-21.6c0,0,22.1,4.2,16.9,10.1c-5.2,5.8-27.9-0.6-24.7-4.9c0,0-4.6,9,6.5,11.2c11,2.3,0.6,8.3-3.8,9.7
			c-4.3,1.3-13.7,8.3-22.8-3.7c0,0,0.3,9.1,4.6,10.3c8.4,2.4-3.4,8.6-6.8,9.2c-3.4,0.6-9.1-0.6-9.1-0.6s6.5,3,6.8,4.5
			s4.1,5.6-15.9,1.3c0,0,8.4,4.3,8.4,14.1c0,4.9-6.8,10.6-2.8,39.5l6.5,23.4C523.9,296.9,535.2,239.1,596.8,271.3z"/>
	</g>
</g>
<g>
	<polygon class="st21" points="181.2,299.4 445.9,304.6 477.2,316.7 446.8,153.6 154,148.2 	"/>
	<polygon class="st22" points="188.8,308.6 452.5,285.6 485.1,298.8 436.1,140 144.4,166 	"/>
	<g class="st23">
		<path class="st19" d="M202.4,194.9c-1.7-1-3.1-2.4-4-4.3s-1.5-4.2-1.6-6.8c-0.1-2.6,0.3-4.9,1.2-6.8c0.9-1.9,2.1-3.4,3.8-4.5
			c1.7-1.1,3.7-1.6,6-1.7c1.7,0,3.3,0.2,4.8,0.7c1.5,0.5,2.7,1.3,3.8,2.3l-0.9,1.7c-1.2-1-2.4-1.8-3.6-2.2s-2.5-0.6-4-0.6
			c-2.9,0.1-5.1,1.1-6.6,3c-1.5,1.9-2.3,4.6-2.2,8c0.1,3.5,1,6.1,2.6,7.9c1.6,1.8,3.9,2.7,6.8,2.6c1.5,0,2.8-0.3,4-0.8
			s2.3-1.3,3.5-2.4l1,1.7c-1,1.1-2.2,1.9-3.7,2.5c-1.4,0.6-3,0.9-4.7,1C206.1,196.3,204.1,195.9,202.4,194.9z"/>
		<path class="st19" d="M224,194.6c-1.2-0.7-2.2-1.7-2.9-3.1c-0.7-1.4-1.1-2.9-1.1-4.8c-0.1-1.8,0.2-3.4,0.9-4.8
			c0.6-1.4,1.5-2.5,2.7-3.3c1.2-0.8,2.6-1.2,4.2-1.2c1.6,0,3,0.3,4.2,1c1.2,0.7,2.2,1.7,2.9,3.1s1.1,2.9,1.1,4.8
			c0.1,1.8-0.2,3.4-0.9,4.8c-0.6,1.4-1.5,2.5-2.7,3.3c-1.2,0.8-2.6,1.2-4.2,1.2C226.7,195.7,225.3,195.4,224,194.6z M232.5,191.8
			c1-1.3,1.4-3.1,1.4-5.4c-0.1-2.3-0.6-4-1.7-5.3c-1.1-1.2-2.5-1.8-4.3-1.8c-1.8,0.1-3.3,0.7-4.2,2c-1,1.3-1.5,3.1-1.4,5.4
			c0.1,2.3,0.6,4.1,1.7,5.3c1,1.2,2.5,1.8,4.4,1.7C230.1,193.7,231.5,193,232.5,191.8z"/>
		<path class="st19" d="M255.2,183.5l0.3,11.2l-2.1,0.1l-0.3-11c0-1.7-0.4-3-1.2-3.8c-0.7-0.8-1.9-1.2-3.4-1.1
			c-1.7,0-3.1,0.6-4.2,1.7c-1,1.1-1.5,2.6-1.5,4.4l0.3,10.1L241,195l-0.4-12.7c-0.1-1.8-0.2-3.4-0.4-4.9l2-0.1l0.4,3.2
			c0.5-1.2,1.3-2.1,2.3-2.8c1.1-0.6,2.3-1,3.7-1C252.9,176.7,255,178.9,255.2,183.5z"/>
		<path class="st19" d="M263.7,178.6L264,189c0,1.4,0.3,2.4,0.9,2.9c0.6,0.5,1.4,0.8,2.4,0.7c0.7,0,1.3-0.1,1.9-0.4l0.1,1.9
			c-0.7,0.2-1.5,0.3-2.3,0.3c-1.5,0-2.8-0.4-3.7-1.2c-0.9-0.8-1.4-2.1-1.4-3.8l-0.3-10.8l-3.5,0.1l0-1.7l3.5-0.1l-0.1-4.7l2.1-0.9
			l0.2,5.5l5.2-0.1l0,1.7L263.7,178.6z"/>
		<path class="st19" d="M287.4,176.2l0.5,17.5l-2.1,0.1l-0.1-3.4c-0.5,1.2-1.2,2.1-2.3,2.7c-1,0.6-2.3,1-3.7,1c-1.6,0-2.9-0.3-4.1-1
			c-1.2-0.7-2.1-1.7-2.8-3.1c-0.7-1.3-1-2.9-1.1-4.7c-0.1-1.8,0.2-3.4,0.8-4.8c0.6-1.4,1.5-2.5,2.7-3.3c1.2-0.8,2.5-1.2,4-1.3
			c1.4,0,2.7,0.2,3.7,0.8c1.1,0.6,1.9,1.4,2.4,2.6l-0.1-3.1L287.4,176.2z M284.1,190.3c1-1.3,1.4-3.1,1.4-5.4
			c-0.1-2.3-0.6-4.1-1.7-5.3c-1-1.2-2.5-1.8-4.3-1.8c-1.8,0.1-3.3,0.7-4.2,2.1c-1,1.3-1.5,3.1-1.4,5.4c0.1,2.3,0.6,4,1.7,5.2
			c1.1,1.2,2.5,1.8,4.4,1.7C281.8,192.2,283.2,191.6,284.1,190.3z"/>
		<path class="st19" d="M296.4,192.6c-1.3-0.7-2.2-1.7-3-3.1c-0.7-1.3-1.1-2.9-1.1-4.7c-0.1-1.8,0.2-3.4,0.9-4.8
			c0.6-1.4,1.6-2.5,2.8-3.3c1.2-0.8,2.7-1.2,4.3-1.3c1.2,0,2.3,0.1,3.4,0.5c1.1,0.4,2,0.9,2.7,1.6l-0.8,1.7
			c-0.9-0.7-1.8-1.2-2.7-1.6s-1.7-0.5-2.6-0.4c-1.9,0.1-3.4,0.7-4.4,2.1c-1.1,1.3-1.6,3.1-1.5,5.4c0.1,2.2,0.7,4,1.8,5.2
			c1.1,1.2,2.6,1.8,4.5,1.8c0.9,0,1.7-0.2,2.6-0.6c0.8-0.4,1.7-0.9,2.6-1.7l0.9,1.6c-0.7,0.7-1.6,1.3-2.7,1.8
			c-1.1,0.5-2.2,0.7-3.4,0.7C299.1,193.6,297.7,193.3,296.4,192.6z"/>
		<path class="st19" d="M313.4,177.1l0.3,10.4c0,1.4,0.3,2.4,0.9,2.9c0.6,0.5,1.4,0.8,2.4,0.7c0.7,0,1.3-0.1,1.9-0.4l0.1,1.9
			c-0.7,0.2-1.5,0.3-2.3,0.3c-1.5,0-2.8-0.4-3.7-1.2c-0.9-0.8-1.4-2.1-1.4-3.8l-0.3-10.8l-3.5,0.1l0-1.7l3.5-0.1l-0.1-4.7l2.1-0.9
			l0.2,5.5l5.2-0.1l0,1.7L313.4,177.1z"/>
		<path class="st19" d="M334.1,176.6l0.3,10.4c0,1.4,0.3,2.4,0.9,2.9c0.6,0.5,1.4,0.8,2.4,0.7c0.7,0,1.3-0.1,1.9-0.4l0.1,1.9
			c-0.7,0.2-1.5,0.3-2.3,0.3c-1.5,0-2.8-0.4-3.7-1.2c-0.9-0.8-1.4-2.1-1.4-3.8l-0.3-10.8l-3.5,0.1l0-1.7l3.5-0.1l-0.1-4.7l2.1-0.9
			l0.2,5.5l5.2-0.1l0,1.7L334.1,176.6z"/>
		<path class="st19" d="M357.5,180.5l0.3,11.2l-2.1,0.1l-0.3-11c0-1.7-0.4-3-1.2-3.8c-0.7-0.8-1.9-1.2-3.4-1.1
			c-1.7,0-3.1,0.6-4.2,1.7c-1,1.1-1.5,2.6-1.5,4.4l0.3,10.1l-2.1,0.1l-0.7-25.7l2.1-0.1l0.3,11.3c0.5-1.2,1.3-2,2.3-2.7
			c1-0.6,2.2-0.9,3.6-1C355.2,173.8,357.4,176,357.5,180.5z"/>
		<path class="st19" d="M364.4,182.5l0,0.1c0.1,2.4,0.7,4.1,1.8,5.4c1.1,1.2,2.7,1.8,4.8,1.7c2.1-0.1,4-0.8,5.7-2.3l0.9,1.7
			c-0.7,0.7-1.7,1.4-2.9,1.8c-1.2,0.5-2.4,0.7-3.7,0.8c-2.7,0.1-4.8-0.7-6.4-2.2c-1.6-1.6-2.4-3.8-2.5-6.6c-0.1-1.8,0.2-3.4,0.9-4.8
			s1.6-2.5,2.8-3.3c1.2-0.8,2.6-1.2,4.2-1.3c2.3-0.1,4.1,0.6,5.5,2.1c1.3,1.5,2,3.5,2.1,6.2l0,0.5L364.4,182.5z M366.3,176.7
			c-1,1-1.6,2.4-1.8,4.1l11.1-0.3c-0.2-1.8-0.8-3.1-1.7-4.1c-0.9-0.9-2.2-1.4-3.8-1.3C368.6,175.2,367.3,175.7,366.3,176.7z"/>
	</g>
	<g class="st23">
		<path class="st19" d="M232.7,236c-1.7-1-3.1-2.4-4-4.3s-1.5-4.2-1.6-6.8c-0.1-2.6,0.3-4.9,1.2-6.8c0.9-1.9,2.1-3.4,3.8-4.5
			c1.7-1.1,3.7-1.6,6-1.7c1.7,0,3.3,0.2,4.8,0.7c1.5,0.5,2.7,1.3,3.8,2.3l-0.9,1.7c-1.2-1-2.4-1.8-3.6-2.2s-2.5-0.6-4-0.6
			c-2.9,0.1-5.1,1.1-6.6,3c-1.5,1.9-2.3,4.6-2.2,8c0.1,3.5,1,6.1,2.6,7.9c1.6,1.8,3.9,2.7,6.8,2.6c1.5,0,2.8-0.3,4-0.8
			s2.3-1.3,3.5-2.4l1,1.7c-1,1.1-2.2,1.9-3.7,2.5c-1.4,0.6-3,0.9-4.7,1C236.4,237.5,234.4,237,232.7,236z"/>
		<path class="st19" d="M266.1,225.2l0.3,11.2l-2.1,0.1l-0.3-11c0-1.7-0.4-3-1.2-3.8c-0.7-0.8-1.9-1.2-3.4-1.1
			c-1.7,0-3.1,0.6-4.2,1.7c-1,1.1-1.5,2.6-1.5,4.4l0.3,10.1l-2.1,0.1l-0.7-25.7l2.1-0.1l0.3,11.3c0.5-1.2,1.3-2,2.3-2.7
			c1-0.6,2.2-0.9,3.6-1C263.8,218.4,266,220.6,266.1,225.2z"/>
		<path class="st19" d="M273.1,227.1l0,0.1c0.1,2.4,0.7,4.1,1.8,5.4c1.1,1.2,2.7,1.8,4.8,1.7c2.1-0.1,4-0.8,5.7-2.3l0.9,1.7
			c-0.7,0.7-1.7,1.4-2.9,1.8c-1.2,0.5-2.4,0.7-3.7,0.8c-2.7,0.1-4.8-0.7-6.4-2.2c-1.6-1.6-2.4-3.8-2.5-6.6c-0.1-1.8,0.2-3.4,0.9-4.8
			c0.6-1.4,1.6-2.5,2.8-3.3c1.2-0.8,2.6-1.2,4.2-1.3c2.3-0.1,4.1,0.6,5.5,2.1c1.3,1.5,2,3.5,2.1,6.2l0,0.5L273.1,227.1z
			 M274.9,221.3c-1,1-1.6,2.4-1.8,4.1l11.1-0.3c-0.2-1.8-0.8-3.1-1.7-4.1c-0.9-0.9-2.2-1.4-3.8-1.3
			C277.2,219.8,275.9,220.3,274.9,221.3z"/>
		<path class="st19" d="M293.9,234.7c-1.3-0.7-2.2-1.7-3-3.1c-0.7-1.3-1.1-2.9-1.1-4.7c-0.1-1.8,0.2-3.4,0.9-4.8
			c0.6-1.4,1.6-2.5,2.8-3.3c1.2-0.8,2.7-1.2,4.3-1.3c1.2,0,2.3,0.1,3.4,0.5c1.1,0.4,2,0.9,2.7,1.6l-0.8,1.7
			c-0.9-0.7-1.8-1.2-2.7-1.6c-0.8-0.3-1.7-0.5-2.6-0.4c-1.9,0.1-3.4,0.7-4.4,2.1c-1.1,1.3-1.6,3.1-1.5,5.4c0.1,2.2,0.7,4,1.8,5.2
			c1.1,1.2,2.6,1.8,4.5,1.8c0.9,0,1.7-0.2,2.6-0.6c0.8-0.4,1.7-0.9,2.6-1.7l0.9,1.6c-0.7,0.7-1.6,1.3-2.7,1.8
			c-1.1,0.5-2.2,0.7-3.4,0.7C296.6,235.7,295.2,235.4,293.9,234.7z"/>
		<path class="st19" d="M323,234.7l-2.9,0.1l-9.9-8.3l0.2,8.5l-2.1,0.1l-0.7-25.7l2.1-0.1l0.5,16.4l8.6-8.4l2.8-0.1l-8.9,8.7
			L323,234.7z"/>
		<path class="st19" d="M342.3,226.6l0.1,1.9l-3.8,0.1l0.2,5.7l-2.2,0.1l-0.2-5.7l-11.8,0.3l0-1.6l11.7-17.9l1.8-0.1l0.5,17.4
			L342.3,226.6z M326.9,227.1l9.4-0.3l-0.4-13.5L326.9,227.1z"/>
		<path class="st19" d="M365.9,220.7l0.3,11.4c-0.9,0.5-2.1,1-3.7,1.3s-3.2,0.6-4.8,0.6c-2.4,0.1-4.5-0.4-6.3-1.3
			c-1.8-1-3.2-2.4-4.1-4.3c-1-1.9-1.5-4.2-1.6-6.8c-0.1-2.6,0.3-4.9,1.2-6.9c0.9-1.9,2.1-3.4,3.8-4.5c1.7-1.1,3.7-1.6,6.1-1.7
			c3.5-0.1,6.4,0.9,8.6,3l-0.9,1.7c-1.2-1-2.4-1.8-3.7-2.2c-1.2-0.4-2.6-0.6-4-0.6c-2.9,0.1-5.2,1.1-6.7,3c-1.5,1.9-2.3,4.6-2.2,8
			c0.1,3.5,1,6.2,2.7,8c1.7,1.8,4,2.7,7.1,2.6c2.4-0.1,4.5-0.5,6.5-1.3l-0.2-8.2l-6.6,0.2l-0.1-1.9L365.9,220.7z"/>
		<path class="st19" d="M380.7,215.2l-0.1,1.9c-0.4-0.1-1-0.1-1.6-0.1c-1.8,0.1-3.1,0.7-3.9,1.8s-1.2,2.5-1.2,4.1l0.3,10.3l-2.1,0.1
			l-0.4-12.7c-0.1-1.8-0.2-3.4-0.4-4.9l2-0.1l0.4,3.2c0.4-1.2,1.1-2.1,2.1-2.8c1-0.7,2.1-1,3.3-1
			C379.8,215.1,380.3,215.2,380.7,215.2z"/>
		<path class="st19" d="M384.9,223.9l0,0.1c0.1,2.4,0.7,4.1,1.8,5.4c1.1,1.2,2.7,1.8,4.8,1.7c2.1-0.1,4-0.8,5.7-2.3l0.9,1.7
			c-0.7,0.7-1.7,1.4-2.9,1.8s-2.4,0.7-3.7,0.8c-2.7,0.1-4.8-0.7-6.4-2.2c-1.6-1.6-2.4-3.8-2.5-6.6c-0.1-1.8,0.2-3.4,0.9-4.8
			s1.6-2.5,2.8-3.3c1.2-0.8,2.6-1.2,4.2-1.3c2.3-0.1,4.1,0.6,5.5,2.1c1.3,1.5,2,3.5,2.1,6.2l0,0.5L384.9,223.9z M386.7,218.1
			c-1,1-1.6,2.4-1.8,4.1l11.1-0.3c-0.2-1.8-0.8-3.1-1.7-4.1s-2.2-1.4-3.8-1.3C389,216.6,387.7,217.1,386.7,218.1z"/>
		<path class="st19" d="M403.9,223.4l0,0.1c0.1,2.4,0.7,4.1,1.8,5.4s2.7,1.8,4.8,1.7c2.1-0.1,4-0.8,5.7-2.3l0.9,1.7
			c-0.7,0.7-1.7,1.4-2.9,1.8s-2.4,0.7-3.7,0.8c-2.7,0.1-4.8-0.7-6.4-2.2c-1.6-1.6-2.4-3.8-2.5-6.6c-0.1-1.8,0.2-3.4,0.9-4.8
			c0.6-1.4,1.6-2.5,2.8-3.3c1.2-0.8,2.6-1.2,4.2-1.3c2.3-0.1,4.1,0.6,5.5,2.1c1.3,1.5,2,3.5,2.1,6.2l0,0.5L403.9,223.4z
			 M405.7,217.6c-1,1-1.6,2.4-1.8,4.1l11.1-0.3c-0.2-1.8-0.8-3.1-1.7-4.1c-0.9-0.9-2.2-1.4-3.8-1.3
			C408,216.1,406.7,216.6,405.7,217.6z"/>
		<path class="st19" d="M436.2,220.3l0.3,11.2l-2.1,0.1l-0.3-11c0-1.7-0.4-3-1.2-3.8c-0.7-0.8-1.9-1.2-3.4-1.1
			c-1.7,0-3.1,0.6-4.2,1.7c-1,1.1-1.5,2.6-1.5,4.4l0.3,10.1l-2.1,0.1l-0.4-12.7c-0.1-1.8-0.2-3.4-0.4-4.9l2-0.1l0.4,3.2
			c0.5-1.2,1.3-2.1,2.3-2.8c1.1-0.6,2.3-1,3.7-1C433.9,213.6,436,215.8,436.2,220.3z"/>
	</g>
	<g class="st23">
		<path class="st19" d="M260.8,262.7l0.3,10.4c0,1.4,0.3,2.4,0.9,2.9c0.6,0.5,1.4,0.8,2.4,0.7c0.7,0,1.3-0.1,1.9-0.4l0.1,1.9
			c-0.7,0.2-1.5,0.3-2.3,0.3c-1.5,0-2.8-0.4-3.7-1.2c-0.9-0.8-1.4-2.1-1.4-3.8l-0.3-10.8l-3.5,0.1l0-1.7l3.5-0.1l-0.1-4.7l2.1-0.9
			l0.2,5.5l5.2-0.1l0,1.7L260.8,262.7z"/>
		<path class="st19" d="M270.9,269.2l0,0.1c0.1,2.4,0.7,4.1,1.8,5.4c1.1,1.2,2.7,1.8,4.8,1.7c2.1-0.1,4-0.8,5.7-2.3l0.9,1.7
			c-0.7,0.7-1.7,1.4-2.9,1.8c-1.2,0.5-2.4,0.7-3.7,0.8c-2.7,0.1-4.8-0.7-6.4-2.2c-1.6-1.6-2.4-3.8-2.5-6.6c-0.1-1.8,0.2-3.4,0.9-4.8
			s1.6-2.5,2.8-3.3c1.2-0.8,2.6-1.2,4.2-1.3c2.3-0.1,4.1,0.6,5.5,2.1c1.3,1.5,2,3.5,2.1,6.2l0,0.5L270.9,269.2z M272.7,263.4
			c-1,1-1.6,2.4-1.8,4.1l11.1-0.3c-0.2-1.8-0.8-3.1-1.7-4.1c-0.9-0.9-2.2-1.4-3.8-1.3C275,261.9,273.7,262.4,272.7,263.4z"/>
		<path class="st19" d="M303.4,259.7l0.5,17.5l-2.1,0.1l-0.1-3.4c-0.5,1.2-1.2,2.1-2.3,2.7c-1,0.6-2.3,1-3.7,1c-1.6,0-2.9-0.3-4.1-1
			c-1.2-0.7-2.1-1.7-2.8-3.1c-0.7-1.3-1-2.9-1.1-4.7s0.2-3.4,0.8-4.8c0.6-1.4,1.5-2.5,2.7-3.3c1.2-0.8,2.5-1.2,4-1.3
			c1.4,0,2.7,0.2,3.7,0.8c1.1,0.6,1.9,1.4,2.4,2.6l-0.1-3.1L303.4,259.7z M300.1,273.8c1-1.3,1.4-3.1,1.4-5.4
			c-0.1-2.3-0.6-4.1-1.7-5.3c-1-1.2-2.5-1.8-4.3-1.8c-1.8,0.1-3.3,0.7-4.2,2.1c-1,1.3-1.5,3.1-1.4,5.4c0.1,2.3,0.6,4,1.7,5.2
			c1.1,1.2,2.5,1.8,4.4,1.7C297.8,275.8,299.2,275.1,300.1,273.8z"/>
		<path class="st19" d="M334.1,265.2l0.3,11.2l-2.1,0.1l-0.3-11c-0.1-1.8-0.4-3.1-1.1-3.8c-0.7-0.8-1.7-1.2-3-1.1
			c-1.6,0-2.9,0.6-3.8,1.7c-0.9,1.1-1.3,2.6-1.3,4.4l0.3,10.1l-2.1,0.1l-0.3-11c-0.1-1.8-0.4-3.1-1.1-3.8s-1.7-1.2-3.1-1.1
			c-1.6,0-2.8,0.6-3.8,1.7c-0.9,1.1-1.3,2.6-1.3,4.4l0.3,10.1l-2.1,0.1l-0.4-12.7c-0.1-1.8-0.2-3.4-0.4-4.9l2-0.1l0.4,3.1
			c0.5-1.2,1.2-2.1,2.1-2.7c1-0.6,2.1-1,3.4-1c2.8-0.1,4.7,1,5.5,3.3c0.5-1.1,1.2-1.9,2.2-2.6c1-0.6,2.2-1,3.6-1
			C331.9,258.5,333.9,260.7,334.1,265.2z"/>
		<path class="st19" d="M340.2,270.1l-1.2-18.8l2.7-0.1l-0.1,18.8L340.2,270.1z M339.5,273.2l3-0.1l0.1,3l-3,0.1L339.5,273.2z"/>
	</g>
</g>
<path class="st7" d="M275.8,550.4c0,0-181.8-64.8-182.3-71.3s6-23.9,10.1-26s40.2,17.6,180.1,77.1
	C289.1,532.6,275.8,550.4,275.8,550.4z"/>
<path class="st7" d="M277.3,522.2c-10,1.7-14.6,9.1-12.9,19.1s8.2,14.1,18.2,12.5s16.8-8,15.2-18
	C296.1,525.8,287.3,520.6,277.3,522.2z"/>
<path class="st7" d="M455.1,477.9c0,0-126.5,61.7-163.7,69c-37.2,7.2-9.5-19.3-9.5-19.3l156.2-72.7"/>
</svg>
