<?xml version="1.0" encoding="utf-8"?>
<!-- Generator: Adobe Illustrator 22.0.1, SVG Export Plug-In . SVG Version: 6.00 Build 0)  -->
<svg version="1.1" id="Layer_1" xmlns="http://www.w3.org/2000/svg" xmlns:xlink="http://www.w3.org/1999/xlink" x="0px" y="0px"
	 viewBox="0 0 960 884.4" style="enable-background:new 0 0 960 884.4;" xml:space="preserve">
<style type="text/css">
	.st0{opacity:0.53;}
	.st1{opacity:0.5;fill:#FFFFFF;}
</style>
<g>
	<g>
		<path d="M569.7,735.7c4.6,0,8.3-3.7,8.3-8.3v-9.7c0-4.6-3.7-8.3-8.3-8.3H408.3c-4.6,0-8.3,3.7-8.3,8.3v9.7c0,4.6,3.7,8.3,8.3,8.3
			H569.7z"/>
		<path d="M646.6,769.3H331.4c-4.7,0-8.4,3.8-8.4,8.4v9.4c0,4.7,3.8,8.4,8.4,8.4h315.1c4.7,0,8.4-3.8,8.4-8.4v-9.4
			C655,773.1,651.2,769.3,646.6,769.3z"/>
		<path d="M920,88.8H42c-5.5,0-10,4.5-10,10V672c0,5.5,4.5,10,10,10h878c5.5,0,10-4.5,10-10V98.8C930,93.3,925.5,88.8,920,88.8z
			 M489,666.7c-12.2,0-22-9.8-22-22s9.8-22,22-22s22,9.8,22,22S501.2,666.7,489,666.7z M489,669.7c-12.2,0-22-9.8-22-22
			s9.8-22,22-22s22,9.8,22,22S501.2,669.7,489,669.7z"/>
	</g>
	<g class="st0">
		<rect x="32" y="598.7" class="st1" width="898" height="4"/>
		<circle class="st1" cx="84.3" cy="631.2" r="3"/>
		<circle class="st1" cx="96.6" cy="631.2" r="3"/>
		<circle class="st1" cx="108.9" cy="631.2" r="3"/>
		<circle class="st1" cx="121.2" cy="631.2" r="3"/>
		<circle class="st1" cx="133.5" cy="631.2" r="3"/>
		<circle class="st1" cx="145.8" cy="631.2" r="3"/>
		<circle class="st1" cx="84.3" cy="644.7" r="3"/>
		<circle class="st1" cx="96.6" cy="644.7" r="3"/>
		<circle class="st1" cx="108.9" cy="644.7" r="3"/>
		<circle class="st1" cx="121.2" cy="644.7" r="3"/>
		<circle class="st1" cx="133.5" cy="644.7" r="3"/>
		<circle class="st1" cx="145.8" cy="644.7" r="3"/>
		<circle class="st1" cx="83.8" cy="658.2" r="3"/>
		<circle class="st1" cx="96.1" cy="658.2" r="3"/>
		<circle class="st1" cx="108.4" cy="658.2" r="3"/>
		<circle class="st1" cx="120.7" cy="658.2" r="3"/>
		<circle class="st1" cx="133" cy="658.2" r="3"/>
		<circle class="st1" cx="145.3" cy="658.2" r="3"/>
		<circle class="st1" cx="157.3" cy="631.2" r="3"/>
		<circle class="st1" cx="169.6" cy="631.2" r="3"/>
		<circle class="st1" cx="181.9" cy="631.2" r="3"/>
		<circle class="st1" cx="194.2" cy="631.2" r="3"/>
		<circle class="st1" cx="206.5" cy="631.2" r="3"/>
		<circle class="st1" cx="218.8" cy="631.2" r="3"/>
		<circle class="st1" cx="157.3" cy="644.7" r="3"/>
		<circle class="st1" cx="169.6" cy="644.7" r="3"/>
		<circle class="st1" cx="181.9" cy="644.7" r="3"/>
		<circle class="st1" cx="194.2" cy="644.7" r="3"/>
		<circle class="st1" cx="206.5" cy="644.7" r="3"/>
		<circle class="st1" cx="218.8" cy="644.7" r="3"/>
		<circle class="st1" cx="156.8" cy="658.2" r="3"/>
		<circle class="st1" cx="169.1" cy="658.2" r="3"/>
		<circle class="st1" cx="181.4" cy="658.2" r="3"/>
		<circle class="st1" cx="193.7" cy="658.2" r="3"/>
		<circle class="st1" cx="206" cy="658.2" r="3"/>
		<circle class="st1" cx="218.3" cy="658.2" r="3"/>
		<circle class="st1" cx="229.3" cy="631.2" r="3"/>
		<circle class="st1" cx="241.6" cy="631.2" r="3"/>
		<circle class="st1" cx="253.9" cy="631.2" r="3"/>
		<circle class="st1" cx="266.2" cy="631.2" r="3"/>
		<circle class="st1" cx="278.5" cy="631.2" r="3"/>
		<circle class="st1" cx="290.8" cy="631.2" r="3"/>
		<circle class="st1" cx="229.3" cy="644.7" r="3"/>
		<circle class="st1" cx="241.6" cy="644.7" r="3"/>
		<circle class="st1" cx="253.9" cy="644.7" r="3"/>
		<circle class="st1" cx="266.2" cy="644.7" r="3"/>
		<circle class="st1" cx="278.5" cy="644.7" r="3"/>
		<circle class="st1" cx="290.8" cy="644.7" r="3"/>
		<circle class="st1" cx="228.8" cy="658.2" r="3"/>
		<circle class="st1" cx="241.1" cy="658.2" r="3"/>
		<circle class="st1" cx="253.4" cy="658.2" r="3"/>
		<circle class="st1" cx="265.7" cy="658.2" r="3"/>
		<circle class="st1" cx="278" cy="658.2" r="3"/>
		<circle class="st1" cx="290.3" cy="658.2" r="3"/>
		<circle class="st1" cx="816.7" cy="631.2" r="3"/>
		<circle class="st1" cx="829" cy="631.2" r="3"/>
		<circle class="st1" cx="841.3" cy="631.2" r="3"/>
		<circle class="st1" cx="853.6" cy="631.2" r="3"/>
		<circle class="st1" cx="865.9" cy="631.2" r="3"/>
		<circle class="st1" cx="878.2" cy="631.2" r="3"/>
		<circle class="st1" cx="816.7" cy="644.7" r="3"/>
		<circle class="st1" cx="829" cy="644.7" r="3"/>
		<circle class="st1" cx="841.3" cy="644.7" r="3"/>
		<circle class="st1" cx="853.6" cy="644.7" r="3"/>
		<circle class="st1" cx="865.9" cy="644.7" r="3"/>
		<circle class="st1" cx="878.2" cy="644.7" r="3"/>
		<circle class="st1" cx="816.2" cy="658.2" r="3"/>
		<circle class="st1" cx="828.5" cy="658.2" r="3"/>
		<circle class="st1" cx="840.8" cy="658.2" r="3"/>
		<circle class="st1" cx="853.1" cy="658.2" r="3"/>
		<circle class="st1" cx="865.4" cy="658.2" r="3"/>
		<circle class="st1" cx="877.7" cy="658.2" r="3"/>
		<circle class="st1" cx="740.4" cy="631.2" r="3"/>
		<circle class="st1" cx="752.7" cy="631.2" r="3"/>
		<circle class="st1" cx="765" cy="631.2" r="3"/>
		<circle class="st1" cx="777.3" cy="631.2" r="3"/>
		<circle class="st1" cx="789.6" cy="631.2" r="3"/>
		<circle class="st1" cx="801.9" cy="631.2" r="3"/>
		<circle class="st1" cx="740.4" cy="644.7" r="3"/>
		<circle class="st1" cx="752.7" cy="644.7" r="3"/>
		<circle class="st1" cx="765" cy="644.7" r="3"/>
		<circle class="st1" cx="777.3" cy="644.7" r="3"/>
		<circle class="st1" cx="789.6" cy="644.7" r="3"/>
		<circle class="st1" cx="801.9" cy="644.7" r="3"/>
		<circle class="st1" cx="739.9" cy="658.2" r="3"/>
		<circle class="st1" cx="752.2" cy="658.2" r="3"/>
		<circle class="st1" cx="764.5" cy="658.2" r="3"/>
		<circle class="st1" cx="776.8" cy="658.2" r="3"/>
		<circle class="st1" cx="789.1" cy="658.2" r="3"/>
		<circle class="st1" cx="801.4" cy="658.2" r="3"/>
		<circle class="st1" cx="665.9" cy="631.2" r="3"/>
		<circle class="st1" cx="678.2" cy="631.2" r="3"/>
		<circle class="st1" cx="690.5" cy="631.2" r="3"/>
		<circle class="st1" cx="702.8" cy="631.2" r="3"/>
		<circle class="st1" cx="715.1" cy="631.2" r="3"/>
		<circle class="st1" cx="727.4" cy="631.2" r="3"/>
		<circle class="st1" cx="665.9" cy="644.7" r="3"/>
		<circle class="st1" cx="678.2" cy="644.7" r="3"/>
		<circle class="st1" cx="690.5" cy="644.7" r="3"/>
		<circle class="st1" cx="702.8" cy="644.7" r="3"/>
		<circle class="st1" cx="715.1" cy="644.7" r="3"/>
		<circle class="st1" cx="727.4" cy="644.7" r="3"/>
		<circle class="st1" cx="665.4" cy="658.2" r="3"/>
		<circle class="st1" cx="677.7" cy="658.2" r="3"/>
		<circle class="st1" cx="690" cy="658.2" r="3"/>
		<circle class="st1" cx="702.3" cy="658.2" r="3"/>
		<circle class="st1" cx="714.6" cy="658.2" r="3"/>
		<circle class="st1" cx="726.9" cy="658.2" r="3"/>
	</g>
</g>
</svg>
