<?xml version="1.0" encoding="utf-8"?>
<!-- Generator: Adobe Illustrator 22.0.1, SVG Export Plug-In . SVG Version: 6.00 Build 0)  -->
<svg version="1.1" id="Layer_1" xmlns="http://www.w3.org/2000/svg" xmlns:xlink="http://www.w3.org/1999/xlink" x="0px" y="0px"
	 viewBox="0 0 653.1 687.6" style="enable-background:new 0 0 653.1 687.6;" xml:space="preserve">
<style type="text/css">
	.st0{fill:#459848;}
</style>
<g>
	<path class="st0" d="M559.4,612.6L559.4,612.6c-6-80.3-74.2-148.7-169.8-170.4c-2-0.5-4.2,0.4-5.3,2.2
		c-11.1,17.3-33.3,28.1-57.8,28.1s-46.6-10.8-57.8-28.1c-1.1-1.8-3.3-2.6-5.3-2.2c-95.6,21.7-163.9,90.2-169.8,170.4
		c-0.3,3.9,1.1,7.7,3.9,10.7c3.4,3.7,8.6,5.8,14.2,5.8h429.7c5.6,0,10.7-2.1,14.2-5.8C558.3,620.3,559.7,616.5,559.4,612.6z
		 M548.2,616.5c-1.5,1.7-4.1,2.6-6.8,2.6H111.7c-2.7,0-5.3-1-6.8-2.6c-0.6-0.7-1.4-1.8-1.3-3.2c5.6-74.9,69.2-139.1,158.8-160.6
		c13.5,18.4,37.7,29.8,64.2,29.8c26.5,0,50.7-11.3,64.2-29.8c89.6,21.5,153.2,85.7,158.8,160.6C549.6,614.7,548.8,615.8,548.2,616.5
		z"/>
	<path class="st0" d="M208.6,238.9c0.1,0,0.1,0,0.2,0.1c-1.8,6.6-2.8,13.4-3.1,20.2c-4.4,1.1-8,3.8-10.5,8
		c-4.6,7.8-4.4,19.1,0.5,27.6c3.6,6.2,9.4,10.1,16.2,11.1c8.3,32.1,23.6,66,41.2,91.2c22.8,32.7,48.3,49.9,73.5,49.9
		c25.2,0,50.7-17.3,73.5-49.9c17.7-25.3,33-59.1,41.2-91.2c6.8-1,12.6-4.9,16.2-11.1c5-8.5,5.2-19.8,0.5-27.6
		c-2.5-4.2-6.2-6.9-10.5-8c-0.3-6.8-1.4-13.6-3.1-20.2c0.1,0,0.1,0,0.2-0.1c33.2-11.6,51.5-27.7,51.5-45.4
		c0-20.4-24.6-38.7-67.7-50.3c-0.7-3.7-1.4-7.2-2.2-10.7c2.9-12.1,4.7-27.7,5.8-41.6c1.1-14.5,1.5-27.2,1.5-32.4
		c0,0-6.6,10.4-25.1,22.7c-6.4-10.9-13.7-17.5-21.9-20c-8.9-2.6-16.1,0.8-23.7,4.5l-1.4,0.6c-0.1,0-0.1,0.1-0.2,0.1
		c-10.1,4.3-19.6,6.2-36.5,7.1c-17.7-0.8-24.9-1.4-34.1-5.1l-3.3-1.7c-0.1,0-0.1-0.1-0.2-0.1l-0.6-0.3c-7.7-3.6-15-6.9-23.8-4.1
		c-18.5,5.8-31.9,32.7-40.8,82c-41.1,11.7-64.6,29.6-64.6,49.5C157,211.2,175.4,227.3,208.6,238.9z M449.4,272.3
		c2.8,4.6,2.5,12.1-0.6,17.4c-1.7,3-5.1,6.5-11.4,6.4h-0.1c-2.3,0-4.3,1.6-4.9,3.8c-7.8,32-23,66.2-40.6,91.5
		c-14.6,20.8-37.7,45.6-65.3,45.6c-27.6,0-50.7-24.8-65.3-45.6c-17.7-25.2-32.8-59.4-40.6-91.5c-0.6-2.3-2.6-3.9-5-3.8
		c-6.3,0.1-9.6-3.4-11.4-6.4c-3.1-5.3-3.4-12.8-0.6-17.4c1.5-2.6,3.7-3.8,6.7-3.7c1.4,0,2.7-0.5,3.6-1.4s1.5-2.2,1.5-3.6
		c0-7.3,0.9-14.6,2.8-21.7c30.2,9,68.2,14,108.2,14c40.1,0,78-4.9,108.2-14c1.8,7.1,2.8,14.3,2.8,21.7c0,1.4,0.6,2.7,1.5,3.6
		c1,0.9,2.3,1.4,3.7,1.4C445.7,268.6,447.9,269.8,449.4,272.3z M417.9,94.5c0.1,0,0.1,0,0.1,0c6.1,0.8,3.1,5.9,2.3,7.1
		c-0.1,0.2-0.2,0.3-0.2,0.3s1.5,0,1.4,4.2c0,0.5-0.3,1.2-0.7,2c-3.4,7.1-18.3,25.8-18.3,25.8c12.8-1.8,11,2.7,10.8,5
		c-0.1,0.8-0.2,1.6-0.6,2.5c-0.8,1.7-2.5,3.4-6.6,4.6c-6.2,1.8-12-0.4-19.4,6.7c-3.3,3.1-5.2,6.1-6.5,8.9c-0.2,0.4-0.3,0.8-0.5,1.2
		c-1,2.6-1.4,5-1.6,7c-0.1,0.4-0.1,0.7-0.1,1.1c0,0.2,0,0.4,0,0.6c-0.1,2,0.4,3.8,1,5.1c-6.1,2.9-12.4,5.4-18.8,7.3
		c1.5-31.5,20.1-37.9,20.1-37.9s-9.2-0.1-14-0.1s-11.6-4.2-7.3-15.3c4.3-11.1,13.6-16.1,24.2-22.8
		C393.7,101.4,410.7,93.6,417.9,94.5z M230.9,149.3c10.1-58.4,24.3-74.5,34.6-77.7c4.9-1.5,9.1,0.2,16.6,3.7l3.9,2
		c0.1,0.1,0.3,0.1,0.4,0.2c10.8,4.5,19,5.2,37.9,6c0.2,0,0.3,0,0.5,0c18.3-1,28.8-3.1,40-7.9l1.1-0.4c0.1-0.1,0.3-0.1,0.4-0.2
		l0.6-0.3c7.5-3.6,11.6-5.4,16.6-3.9c4.8,1.4,10.5,5.7,16.3,15.7c-0.7,0.4-1.5,0.8-2.2,1.3c-26.5,14.8-32,15-44.5,38
		c-6.2,11.5-8.6,33,3.2,59.5c-5,1.3-10,2.4-15.1,3.1c-5.2,0.7-10.5,1.1-15.8,1.1c-0.3,0-0.5,0-0.8,0c-2.1,0-4.2-0.1-6.3-0.2
		s-4.2-0.3-6.3-0.5c-1-0.1-2.1-0.2-3.1-0.4C280.6,184.7,253.5,171.1,230.9,149.3L230.9,149.3z M221.8,154.4c0.1,0.1,0.1,0.1,0.2,0.2
		c1.8,1.8,3.7,3.6,5.5,5.3c28,25.6,62.2,39.6,97,39.6c0.3,0,0.6,0,0.8,0c1.2,0,2.3,0,3.5-0.1c0.3,0,0.7,0,1,0c0.8,0,1.7-0.1,2.5-0.1
		c0.4,0,0.8-0.1,1.3-0.1c0.7-0.1,1.5-0.1,2.2-0.2c0.5,0,1-0.1,1.4-0.1c0.7-0.1,1.4-0.1,2-0.2c0.4-0.1,0.9-0.1,1.3-0.2
		c0.7-0.1,1.4-0.2,2.2-0.3c0.4-0.1,0.9-0.1,1.3-0.2c0.7-0.1,1.4-0.2,2.2-0.3c0.4-0.1,0.9-0.2,1.3-0.2c0.7-0.1,1.4-0.3,2.2-0.4
		c0.4-0.1,0.8-0.2,1.3-0.3c0.7-0.1,1.4-0.3,2.2-0.5c0.4-0.1,0.8-0.2,1.2-0.3c0.7-0.2,1.5-0.3,2.2-0.5c0.4-0.1,0.8-0.2,1.2-0.3
		c0.7-0.2,1.5-0.4,2.2-0.6c0.4-0.1,0.8-0.2,1.2-0.3c0.7-0.2,1.5-0.4,2.2-0.6c0.4-0.1,0.8-0.3,1.2-0.4c0.7-0.2,1.5-0.5,2.2-0.7
		c0.4-0.1,0.8-0.3,1.2-0.4c0.7-0.2,1.4-0.5,2.1-0.7c0.4-0.1,0.8-0.3,1.2-0.4c0.7-0.3,1.4-0.5,2.1-0.8c0.4-0.2,0.8-0.3,1.2-0.5
		c0.7-0.3,1.4-0.6,2.1-0.9c0.4-0.2,0.8-0.3,1.2-0.5c0.7-0.3,1.4-0.6,2.1-0.9c0.4-0.2,0.8-0.4,1.2-0.5c0.7-0.3,1.4-0.6,2.1-1
		c0.4-0.2,0.8-0.4,1.2-0.6c0.7-0.3,1.4-0.7,2.1-1c0.4-0.2,0.8-0.4,1.2-0.6c0.7-0.4,1.4-0.7,2-1.1c0.4-0.2,0.8-0.4,1.2-0.7
		c0.7-0.4,1.3-0.7,2-1.1c0.4-0.2,0.8-0.5,1.2-0.7c0.6-0.4,1.3-0.8,1.9-1.1c0.4-0.2,0.8-0.5,1.2-0.8c0.6-0.4,1.3-0.8,1.9-1.2
		c0.4-0.3,0.8-0.5,1.2-0.8c0.6-0.4,1.2-0.8,1.9-1.2c0.4-0.3,0.8-0.6,1.2-0.8c0.6-0.4,1.2-0.8,1.8-1.2c0.4-0.3,0.8-0.6,1.3-0.9
		c0.6-0.4,1.2-0.8,1.7-1.3c0.4-0.3,0.8-0.6,1.2-0.9c0.6-0.4,1.1-0.9,1.7-1.3c0.4-0.3,0.8-0.7,1.3-1c0.6-0.4,1.1-0.9,1.7-1.3
		c0.4-0.4,0.9-0.7,1.3-1.1c0.5-0.4,1.1-0.9,1.6-1.3c0.4-0.4,0.9-0.8,1.3-1.1c0.5-0.5,1-0.9,1.6-1.4c0.4-0.4,0.9-0.8,1.3-1.2
		c0.5-0.5,1-0.9,1.5-1.4c0.4-0.4,0.9-0.8,1.3-1.3c0.5-0.5,1-0.9,1.4-1.4c0.5-0.4,0.9-0.9,1.3-1.3c0.4-0.4,0.9-0.9,1.3-1.3
		c36,10.1,58.1,25.3,58.1,40.1c0,12.9-16.3,26-44.8,35.9c-30.6,10.7-71.3,16.6-114.7,16.6s-84.1-5.9-114.7-16.6
		c-28.5-10-44.8-23.1-44.8-35.9C167,179.2,187.9,164.4,221.8,154.4z"/>
	<path class="st0" d="M371.4,132.2c0,0,2.8,2.5,18,1.4l23.8-30C413.1,103.7,389.2,110.2,371.4,132.2z"/>
</g>
</svg>
