<?xml version="1.0" encoding="utf-8"?>
<!-- Generator: Adobe Illustrator 22.0.1, SVG Export Plug-In . SVG Version: 6.00 Build 0)  -->
<svg version="1.1" id="Layer_1" xmlns="http://www.w3.org/2000/svg" xmlns:xlink="http://www.w3.org/1999/xlink" x="0px" y="0px"
	 viewBox="0 0 653.1 687.6" style="enable-background:new 0 0 653.1 687.6;" xml:space="preserve">
<style type="text/css">
	.st0{fill:#459848;}
</style>
<path class="st0" d="M630.7,86.7h-70.3c-0.9,0-1.8,0.3-2.5,0.7c-1.5,0.6-2.7,1.9-3.1,3.7l-68.5,341H137.6L96.5,267h366.2
	c2.8,0,5-2.2,5-5s-2.2-5-5-5H94l-18.9-76h388.6c2.8,0,5-2.2,5-5s-2.2-5-5-5h-395c-1.5,0-3,0.7-3.9,1.9s-1.3,2.8-0.9,4.3l65,261
	c0.6,2.2,2.6,3.8,4.9,3.8h350.6l-6,29.6c-3.2-0.4-6.4-0.6-9.6-0.6c-39.1,0-71.2,30.5-73.8,69H257c-2.6-38.5-34.7-69-73.8-69
	c-40.8,0-74,33.2-74,74s33.2,74,74,74c39.1,0,71.2-30.5,73.8-69h138c2.6,38.5,34.7,69,73.8,69c40.8,0,74-33.2,74-74
	c0-34.1-23.2-62.8-54.6-71.4l7.2-35.6l0,0L564,96.7h66.8c2.8,0,5-2.2,5-5S633.5,86.7,630.7,86.7z M183.1,609c-35.3,0-64-28.7-64-64
	s28.7-64,64-64s64,28.7,64,64S218.4,609,183.1,609z M532.7,545c0,35.3-28.7,64-64,64s-64-28.7-64-64s28.7-64,64-64
	S532.7,509.7,532.7,545z"/>
</svg>
