<?xml version="1.0" encoding="utf-8"?>
<!-- Generator: Adobe Illustrator 22.0.1, SVG Export Plug-In . SVG Version: 6.00 Build 0)  -->
<svg version="1.1" id="Layer_1" xmlns="http://www.w3.org/2000/svg" xmlns:xlink="http://www.w3.org/1999/xlink" x="0px" y="0px"
	 viewBox="0 0 653.1 687.6" style="enable-background:new 0 0 653.1 687.6;" xml:space="preserve">
<style type="text/css">
	.st0{fill:#459848;}
</style>
<g>
	<path class="st0" d="M603.1,534.5l-72-7.1V298.5c0-0.3-0.2-0.5-0.5-0.5h-44c-0.3,0-0.5,0.2-0.5,0.5V523l-125-12.3V298.5
		c0-0.3-0.2-0.5-0.5-0.5h-44c-0.3,0-0.5,0.2-0.5,0.5v207.8l-135-13.3V298.5c0-0.3-0.2-0.5-0.5-0.5h-44c-0.3,0-0.5,0.2-0.5,0.5v190.1
		l-74-7.3c-1.4-0.1-2.8,0.3-3.8,1.3c-1,0.9-1.6,2.3-1.6,3.7v184.3c0,2.8,2.2,5,5,5h541c2.8,0,5-2.2,5-5V539.5
		C607.6,536.9,605.7,534.8,603.1,534.5z M597.6,665.6h-531V491.9l531,52.2V665.6z"/>
	<rect x="80.6" y="520.9" class="st0" width="32" height="28.3"/>
	<rect x="130.6" y="520.9" class="st0" width="32" height="28.3"/>
	<rect x="130.6" y="565.2" class="st0" width="32" height="28.3"/>
	<rect x="180.6" y="565.2" class="st0" width="32" height="28.3"/>
	<rect x="80.6" y="609.5" class="st0" width="32" height="28.3"/>
	<rect x="130.6" y="609.5" class="st0" width="32" height="28.3"/>
	<rect x="180.6" y="609.5" class="st0" width="32" height="28.3"/>
	<path class="st0" d="M297.4,107.2c8.2,16.9,5,34,0.7,54.9c-8.1,40.3-20.5,44-19.5,63.4c2.1,39.7,62.8,64.4,62.8,64.4
		s-29.3-29.7-30.2-72c-1-45.2,37.6-58.9,35.2-92.1c-4.3-59.1-134.8-92.3-134.8-92.3s17.5,15.5,54.1,43.6
		C286.1,92.7,292.4,96.9,297.4,107.2z"/>
	<path class="st0" d="M482.2,161.7c5.7,11.8,3.5,23.9,0.5,38.5c-5.7,28.3-14.4,30.9-13.7,44.5c1.5,27.9,44.1,45.2,44.1,45.2
		s-20.6-20.8-21.2-50.5c-0.7-31.7,26.4-41.3,24.7-64.6c-3-41.5-94.6-64.8-94.6-64.8s12.3,10.9,37.9,30.6
		C474.2,151.5,478.7,154.5,482.2,161.7z"/>
	<path class="st0" d="M130.2,161.7c5.7,11.8,3.5,23.9,0.5,38.5c-5.7,28.3-14.4,30.9-13.7,44.5c1.5,27.9,44.1,45.2,44.1,45.2
		s-20.6-20.8-21.2-50.5c-0.7-31.7,26.4-41.3,24.7-64.6C161.6,133.3,70,110,70,110s12.3,10.9,37.9,30.6
		C122.2,151.5,126.7,154.5,130.2,161.7z"/>
</g>
</svg>
