<?xml version="1.0" encoding="utf-8"?>
<!-- Generator: Adobe Illustrator 22.0.1, SVG Export Plug-In . SVG Version: 6.00 Build 0)  -->
<svg version="1.1" id="Layer_1" xmlns="http://www.w3.org/2000/svg" xmlns:xlink="http://www.w3.org/1999/xlink" x="0px" y="0px"
	 viewBox="0 0 653.1 687.6" style="enable-background:new 0 0 653.1 687.6;" xml:space="preserve">
<style type="text/css">
	.st0{fill:#459848;}
</style>
<g>
	<path class="st0" d="M559.6,408.1H83.1V224c0-2.8-2.2-5-5-5s-5,2.2-5,5v342.1h10v-148h471.5v148h10v-153
		C564.6,410.3,562.3,408.1,559.6,408.1z"/>
	<path class="st0" d="M120.4,396.3H552V336c0-5.1-3.9-9.3-9-9.7l-329.3-25.2c-5.6-0.4-10.4,4-10.5,9.6l-0.5,48.3l-82.4,1.2
		c-5.3,0.1-9.6,4.4-9.6,9.7v16.7C110.7,392,115,396.3,120.4,396.3z"/>
	<circle class="st0" cx="154" cy="314.7" r="34"/>
</g>
</svg>
