<?xml version="1.0" encoding="utf-8"?>
<!-- Generator: Adobe Illustrator 22.0.1, SVG Export Plug-In . SVG Version: 6.00 Build 0)  -->
<svg version="1.1" id="Layer_1" xmlns="http://www.w3.org/2000/svg" xmlns:xlink="http://www.w3.org/1999/xlink" x="0px" y="0px"
	 viewBox="0 0 653.1 687.6" style="enable-background:new 0 0 653.1 687.6;" xml:space="preserve">
<style type="text/css">
	.st0{fill:#459848;}
</style>
<path class="st0" d="M626.3,351.8L514,238.8V131.9c0-12.3-10-22.2-22.2-22.2h-37.5c-12.3,0-22.2,10-22.2,22.2V158L329.7,56
	c-0.9-0.9-2.2-1.5-3.5-1.5l0,0c-1.3,0-2.6,0.5-3.5,1.5L26.8,352.6c-1.4,1.4-1.9,3.6-1.1,5.5s2.6,3.1,4.6,3.1l0,0l67.7-0.1v267.1
	c0,2.8,2.2,5,5,5h149.2c2.8,0,5-2.2,5-5v-146c0-13,10.6-23.6,23.6-23.6h91.3c13,0,23.6,10.6,23.6,23.6v145.9c0,2.8,2.2,5,5,5h149.2
	c2.8,0,5-2.2,5-5V360.4l67.7-0.1c2,0,3.8-1.2,4.6-3.1C628.2,355.4,627.8,353.3,626.3,351.8z M550.1,350.4c-2.8,0-5,2.2-5,5v267.7
	H405.8V482.2c0-18.5-15.1-33.6-33.6-33.6h-91.3c-18.5,0-33.6,15.1-33.6,33.6v140.9H108.1V356c0-1.3-0.5-2.6-1.5-3.5
	c-0.9-0.9-2.2-1.5-3.5-1.5l0,0l-60.7,0.1L326.2,66.6l106.9,106.6c1,1,2.4,1.5,3.7,1.4c0.1,0,0.1,0,0.2,0c2.8,0,5-2.2,5-5v-37.7
	c0-6.8,5.5-12.2,12.2-12.2h37.5c6.8,0,12.2,5.5,12.2,12.2v109l0,0l0,0c0,0.1,0,0.1,0,0.2c0,0.3,0,0.5,0.1,0.8c0,0.1,0.1,0.3,0.1,0.4
	c0,0.2,0.1,0.3,0.2,0.5s0.2,0.3,0.2,0.5c0.1,0.1,0.1,0.3,0.2,0.4c0.1,0.2,0.3,0.4,0.5,0.6c0,0,0.1,0.1,0.1,0.2l105.3,106
	L550.1,350.4z"/>
</svg>
