<?xml version="1.0" encoding="utf-8"?>
<!-- Generator: Adobe Illustrator 22.0.1, SVG Export Plug-In . SVG Version: 6.00 Build 0)  -->
<svg version="1.1" id="Layer_1" xmlns="http://www.w3.org/2000/svg" xmlns:xlink="http://www.w3.org/1999/xlink" x="0px" y="0px"
	 viewBox="0 0 653.1 687.6" style="enable-background:new 0 0 653.1 687.6;" xml:space="preserve">
<style type="text/css">
	.st0{fill:#459848;}
</style>
<g>
	<path class="st0" d="M320.7,415.8c-143,0-261.3-37.1-280.3-70.6c-2.2,3.2-3.4,6.4-3.4,9.8c0,35.6,126.7,79.8,283,79.8
		s281.7-45.1,281.7-80.7c0-3-0.9-5.9-2.6-8.7C578.3,378.8,462.2,415.8,320.7,415.8z"/>
	<path class="st0" d="M587.3,308v-33.9l52.2-18.7l-52.3-17.1c-0.4-2.4-2.4-4.2-4.9-4.2c-2.8,0-5,2.2-5,5v63.5
		c-8.8-4.1-19.8-7.9-32.7-11.3l-36.3,31.6c28.6,7.1,45.8,16.4,45.8,27.6c0,11.3-21.4,25.2-54.9,37.2
		c63.1-16.3,103.2-39.5,103.2-59.6C602.4,320.8,597,314.1,587.3,308z"/>
	<path class="st0" d="M271.7,311.5c26.1-1.9,52.9-2.9,78.8-2.9c3.1,0,6.1,0,9.2,0l12.9-37.7c-16.8-0.6-34.1-0.9-51.9-0.9
		c-21.5,0-42.5,0.4-62.6,1.3L271.7,311.5z"/>
	<path class="st0" d="M521.7,286.1c-29.8-6-66.4-10.5-107.4-13.2v-39.8l52.2-18.7l-52.3-17.1c-0.4-2.4-2.4-4.2-4.9-4.2
		c-2.8,0-5,2.2-5,5v74.2c-4-0.2-8-0.4-12-0.6l-12.7,37.2c40.1,1,76.3,4.2,105.2,9.2L521.7,286.1z"/>
	<path class="st0" d="M66,393.9l9.2,182.3c0,9.9,7.1,18.3,16.8,20.1c0,0,2.9,0.7,7.9,1.9v-84.7c0-13,10.5-23.5,23.5-23.5
		s23.5,10.5,23.5,23.5V609c4.7,1,9.6,2.1,14.6,3.1v-91.6c0-13,10.5-23.5,23.5-23.5s23.5,10.5,23.5,23.5v100.8
		c10.1,1.8,20.3,3.6,30.4,5.1V504c0,0,6.5-29,87.5-29s84.5,29,84.5,29v118.8c7-1.3,14.1-2.6,21-4v-98.3c0-13,10.5-23.5,23.5-23.5
		s23.5,10.5,23.5,23.5v88.3c4.1-0.9,8.1-1.9,12-2.7v-92.5c0-13,10.5-23.5,23.5-23.5c13,0,23.5,10.5,23.5,23.5v81.1
		c2.9-0.7,4.5-1.2,4.5-1.2c9.7-1.7,16.8-10.2,16.8-20.1L574,393.9c-36.7,27.8-136.5,47.7-254,47.7S102.7,421.7,66,393.9z"/>
	<path class="st0" d="M326.2,501.3c-61,0-65.9,21.8-65.9,21.8l1.5,103.3c0,0,12.8,2.6,64,2.6s65.5-2.6,65.5-2.6l-1.5-103.3
		C389.8,523.1,387.2,501.3,326.2,501.3z"/>
	<path class="st0" d="M151.7,280.8c-7.5,1.1-14.8,2.3-21.7,3.6l45.1,39.1c22.6-4.3,49.1-7.9,77.1-10.4l-13.9-40.8
		c-6.1,0.4-12.1,0.8-18,1.2l-1.5-31.6l42.3-4.7v-74.4h0.1l-12.4-0.7c1-13.4,8.7-22.7,16.6-24.4c3.2-0.7,6.3-0.1,9,0.9
		c-3.8,0.4-6.4,0.5-6.1,1.9c0.5,2,6.4,4.2,12.6,2.7c6.4-1.5,10.5-6.2,10-8.2c-0.4-1.5-3.1,0-7.1,1.5c-0.2-0.3-0.5-0.5-0.8-0.7
		c-4.4-2.8-11.2-5.9-18.8-4.3c-11.9,2.4-20.6,14.9-21.8,30.2l-53.6-3.2c0.5-14.2,8.5-24.2,16.7-26c3.2-0.7,6.3-0.1,9,0.9
		c-3.8,0.4-6.4,0.5-6.1,1.9c0.5,2,6.4,4.2,12.6,2.7c6.3-1.5,10.5-6.2,10-8.2c-0.4-1.5-3.1,0-7.1,1.5c-0.2-0.3-0.5-0.5-0.8-0.7
		c-4.4-2.8-11.2-5.9-18.8-4.3c-12.3,2.5-21.2,15.8-21.9,31.8l-64.6-3.9c0.8-13.7,8.6-23.3,16.7-25c3.2-0.7,6.3-0.1,9,0.9
		c-3.8,0.4-6.4,0.5-6.1,1.9c0.5,2,6.4,4.2,12.6,2.7c6.3-1.5,10.5-6.2,10-8.2c-0.4-1.5-3.1,0-7.1,1.5c-0.2-0.3-0.5-0.5-0.8-0.7
		c-4.4-2.8-11.2-5.9-18.8-4.3c-12.1,2.4-20.9,15.3-21.9,30.8l-12.3-0.7v102l51.2-5.7L151.7,280.8z M208.9,243l1.4,31.3
		c-17.1,1.4-33.4,3.1-48.7,5.2l-1.5-31L208.9,243z"/>
	<path class="st0" d="M58.7,305.4c-13.5,7-21,14.9-21,23.6c0,24.4,59.6,52.9,147.4,68.3C137.5,384.7,105,367.9,105,354
		c0-9.5,18.2-18.2,47-25.4l-45.3-39.4c-14.8,3.5-27.6,7.4-38,11.6v-63.7c0-2.8-2.2-5-5-5c-2.5,0-4.5,1.8-4.9,4.2L6.5,253.4
		l52.2,18.7V305.4z"/>
</g>
</svg>
