<?xml version="1.0" encoding="utf-8"?>
<!-- Generator: Adobe Illustrator 22.0.1, SVG Export Plug-In . SVG Version: 6.00 Build 0)  -->
<svg version="1.1" id="Layer_1" xmlns="http://www.w3.org/2000/svg" xmlns:xlink="http://www.w3.org/1999/xlink" x="0px" y="0px"
	 viewBox="0 0 1920 1080" style="enable-background:new 0 0 1920 1080;" xml:space="preserve">
<style type="text/css">
	.st0{fill:#E7F2EC;}
	.st1{display:none;fill:#385D14;}
	.st2{display:none;fill:#4E9A06;}
	.st3{fill:#222222;}
	.st4{fill:#33EC00;}
	.st5{display:none;}
	.st6{display:inline;fill:#5FD93E;}
	.st7{display:inline;fill:url(#SVGID_1_);}
	.st8{display:inline;fill:#3E9A00;}
	.st9{display:inline;fill:url(#SVGID_2_);}
	.st10{display:inline;fill:url(#SVGID_3_);}
	.st11{fill:url(#SVGID_4_);}
	.st12{fill:#3E9A00;}
	.st13{fill:url(#SVGID_5_);}
	.st14{fill:url(#SVGID_6_);}
	.st15{fill:#75C697;}
	.st16{fill:#FFFFFF;}
	.st17{display:inline;}
	.st18{font-family:'MyriadPro-Regular';}
	.st19{font-size:26px;}
	.st20{fill:url(#SVGID_7_);stroke:#262828;stroke-miterlimit:10;}
	.st21{fill:url(#SVGID_8_);}
	.st22{fill:url(#SVGID_9_);}
	.st23{fill:#1D91BF;}
	.st24{fill:#19A8EB;}
	.st25{opacity:0.8;fill:none;stroke:#2CBAE5;stroke-linejoin:round;stroke-miterlimit:10;enable-background:new    ;}
	.st26{opacity:0.8;fill:none;stroke:#1D91BF;stroke-linejoin:round;stroke-miterlimit:10;enable-background:new    ;}
	.st27{opacity:0.6;fill:none;stroke:#2CBAE5;stroke-linejoin:round;stroke-miterlimit:10;enable-background:new    ;}
	.st28{fill:#A93237;}
	.st29{fill:url(#SVGID_10_);}
	.st30{fill:url(#SVGID_11_);}
	.st31{fill:#158F47;}
	.st32{fill:url(#SVGID_12_);}
	.st33{fill:url(#SVGID_13_);}
	.st34{opacity:0.47;}
	.st35{opacity:0.39;}
	.st36{fill:#136B8E;}
	.st37{enable-background:new    ;}
	.st38{fill:url(#SVGID_14_);stroke:#262828;stroke-miterlimit:10;}
	.st39{fill:url(#SVGID_15_);}
	.st40{fill:url(#SVGID_16_);}
	.st41{fill:url(#SVGID_17_);}
	.st42{fill:url(#SVGID_18_);}
	.st43{fill:url(#SVGID_19_);}
	.st44{fill:url(#SVGID_20_);}
	.st45{fill:url(#SVGID_21_);stroke:#262828;stroke-miterlimit:10;}
	.st46{fill:url(#SVGID_22_);}
	.st47{fill:url(#SVGID_23_);}
	.st48{fill:url(#SVGID_24_);}
	.st49{fill:url(#SVGID_25_);}
	.st50{fill:url(#SVGID_26_);}
	.st51{fill:url(#SVGID_27_);}
	.st52{fill:none;stroke:#000000;stroke-width:5;stroke-miterlimit:10;}
</style>
<g id="Layer_1_1_">
	<rect x="1473" class="st0" width="446" height="1080"/>
	<g id="Layer_7">
		<path class="st1" d="M504.1,383.2C504.1,383.3,504.1,383.3,504.1,383.2c0-1,0-2,0-3C504.1,381.2,504.1,382.2,504.1,383.2z
			 M513.2,339.5c8.2-15.8,19.3-21,20.9-21.7C532.5,318.5,521.5,323.4,513.2,339.5z M532.1,285.4c-16.3,12.7-12.6,13-12.6,13
			c6.8,3.3,25.9,1.4,25.9,1.4c1.2-2.3,38.9-41,38.9-41C558.7,265.9,532.1,285.4,532.1,285.4z"/>
		<path class="st2" d="M606.2,259.8c0,0-6.4,34.9-9.7,46.1c0,0-6.4,22.5-19.5,34.9c0,0-22.3,18.9-38.7,25.9c0,0-0.5,0.2-3.7,1.5
			c0,0-9.1-15.9-2.1-27c0,0,4.9-11.1,13-17.6c0,0,3-4.6,10.8-4.3l16.1-1.7c0,0,6.5-3.8,8.5-10.2c0,0,4.4-8.2-6.8-6.8h-9.5l26.4-32.2
			c0,0,5.1-9.6,0-11.9c0,0,5.7-6.3,1.3-8.5c0,0,11.1-11.1,18.6-51.7c0.2-0.2,0.4-0.5,0.5-0.8C611.3,195.4,613.8,213.1,606.2,259.8z"
			/>
		<path class="st1" d="M610.8,196.1c-7.4,40.7-18.6,51.7-18.6,51.7c-1.3-0.7-3.6-1-7.2-0.7c0,0-9.3-0.2-22.1,5.5
			c-33.1,14.8-46.9,23.4-60.1,42.7c0,0-7.9,17.1,4.9,20.9l26.6,1.4c0,0,0,0-0.2,0.1c-1.6,0.6-12.6,5.6-20.9,21.7
			c-0.1,0.2-0.2,0.3-0.3,0.5c-4.7,9.1-8.4,21.7-8.8,38.9c0,0.4,0,0.8,0,1.3c0,1,0,2,0,3c-1.1-2-28.5-53.7-3-101.3
			c0,0,18.1-27.1,54.3-44.1C555.4,237.8,598,215.2,610.8,196.1z"/>
		<path class="st3" d="M155.3,252.5c-40,0-59.9-26.4-59.9-67c0-41.9,21.1-67.2,62.2-67.2c15.9,0,28.7,3.8,38.4,11.9
			c9.2,8.3,14.3,19.5,15.7,33.7h-16.1c-5.7,0-10-2.7-12.4-7.9c-4.4-9.4-13-14.2-25.6-14.2c-24.7,0-35.6,17.4-35.6,43.7
			c0,25.5,10.5,43.5,34.8,43.5c16.6,0,26.2-9.2,29.1-23.5h25.8C209.3,235.4,188.3,252.5,155.3,252.5z"/>
		<path class="st4" d="M666.7,118.3c15.1,0,28.3,3.8,39.3,11.5c10,8.1,15.5,19.3,16.5,34.1H706c-4.8,0-8.6-2.3-11.7-6.7
			c-5.1-10.5-14.1-15.7-26.8-15.7c-22.4,0-33.9,14.1-34.1,42.7c-0.2,28.5,11.5,43.9,35.4,45.6c18,0,28.5-12.1,31.4-27.8h-15.7
			c-7.4,0-13.4-5.9-13.4-13.4v-8.3h53.1v70.2h-6.7c-6.4,0-12.4-4.2-13-10.2l-1.1-6.4c-9.2,11.9-18.6,18.4-37.3,18.4
			c-37.3,0-59.9-28.9-59.9-67C605.4,147.1,628.2,116.8,666.7,118.3z"/>
		<g>
			<path class="st3" d="M228.8,180.2h7.4v26.3h28.9v-26.3h14.6v70.4h-14.6v-31.2h-28.9v31.2h-14.6v-62.9
				C221.6,183.7,224.8,180.2,228.8,180.2z"/>
			<path class="st3" d="M286.8,187.7c0-4.9,2.4-7.5,7.3-7.6h43.7v12.2H301v15.1h27.4v4.7c0.1,4.9-2.4,7.3-7.4,7.3h-20v18.2h36.7v13
				h-51L286.8,187.7L286.8,187.7z"/>
			<path class="st3" d="M376.6,251.6c-21.7,0-32.4-14.3-32.4-36.3c0-22.7,11.4-36.3,33.7-36.3c8.6,0,15.5,2.1,20.8,6.4
				c5,4.5,7.8,10.6,8.5,18.2h-8.7c-3.1,0-5.4-1.5-6.7-4.2c-2.4-5.1-7-7.6-13.9-7.6c-13.4,0-19.3,9.4-19.3,23.6
				c0,13.8,5.7,23.5,18.9,23.5c9,0,14.2-5,15.8-12.7h14C405.7,242.5,394.4,251.6,376.6,251.6z"/>
			<path class="st3" d="M421.3,180.2h7.2v29l27.4-29h18.2L446,208.8l30.6,41.8H459l-17.8-24.8c-3.1-4.1-6-5.8-8.7-4.9
				c-2.7,0.9-4,2.7-4,5.1v24.6H414v-62.9C414,183.7,417.2,180.2,421.3,180.2z"/>
		</g>
		<g>
			<path class="st4" d="M783.3,217.1c3,1.1,5.3,2.7,6.7,4.9c1.2,2.4,1.9,5.9,2.1,10.4l0.6,13.8c0.1,2.1,0.9,3.7,2.3,4.7h-15.9
				c-0.7-1.3-1-2.8-1.1-4.2c-0.3-1.1-0.5-5.1-0.6-11.9c-0.5-8.5-2.1-11.2-10.6-11.2h-15.3V251h-14.4v-63c0-4,3.2-7.6,7.3-7.6h26.7
				c14.6,0,22.7,5.6,22.7,20.1C793.8,209.4,790,215.2,783.3,217.1z M769.4,192.6h-17.8v18.6h17c6.8,0,10.6-2.5,10.6-9.3
				C779.2,195.4,775.8,192.6,769.4,192.6z"/>
			<path class="st4" d="M802.3,188c0-4.9,2.4-7.5,7.3-7.6h43.7v12.2h-36.8v15.1h27.4v4.7c0.1,4.9-2.4,7.3-7.5,7.3h-20v18.2h36.8v13
				h-51L802.3,188L802.3,188z"/>
			<path class="st4" d="M860.8,188c0-4.9,2.4-7.5,7.3-7.6h43.7v12.2H875v15.1h27.4v4.7c0.1,4.9-2.4,7.3-7.5,7.3h-20v18.2h36.8v13
				h-51L860.8,188L860.8,188z"/>
			<path class="st4" d="M926.2,180.4h7.8l28.7,48.4v-48.4h14.2v70.4h-15l-28.7-48.4v48.4H919V188C919,183.9,922.2,180.4,926.2,180.4
				z"/>
		</g>
		<g class="st5">
			<path class="st6" d="M268.7,297.6c-1.3,15.3-8.1,34.7-17.7,53.7c0.2,0.3,0.4,0.8,0.6,1.3c1,2.7-1.9,6.3-1.9,6.3s1.9,0.5,1.9,6
				s-27,39.8-27,39.8c15.9-2.4,15.9,2.4,15.5,6c-0.5,3.6,0,11.3-19.5,12.5s-29.5,20.9-30.7,30.6s2.7,15.1,2.7,15.1l0,0
				c18-9.8,39.7-20.8,53.2-37.5c22.9-28.3,23.1-134.8,23.1-134.8L268.7,297.6z"/>
		</g>
		<g class="st5">
			
				<linearGradient id="SVGID_1_" gradientUnits="userSpaceOnUse" x1="177.9468" y1="310.3714" x2="28.176" y2="53.109" gradientTransform="matrix(1 0 0 -1 118.3203 607.9255)">
				<stop  offset="0" style="stop-color:#000000"/>
				<stop  offset="6.250000e-02" style="stop-color:#000000;stop-opacity:0.8743"/>
				<stop  offset="0.4975" style="stop-color:#000000;stop-opacity:0"/>
				<stop  offset="1" style="stop-color:#000000"/>
			</linearGradient>
			<path class="st7" d="M268.7,297.6c-1.3,15.3-8.1,34.7-17.7,53.7c0.2,0.3,0.4,0.8,0.6,1.3c1,2.7-1.9,6.3-1.9,6.3s1.9,0.5,1.9,6
				s-27,39.8-27,39.8c15.9-2.4,15.9,2.4,15.5,6c-0.5,3.6,0,11.3-19.5,12.5s-29.5,20.9-30.7,30.6s2.7,15.1,2.7,15.1l0,0
				c18-9.8,39.7-20.8,53.2-37.5c22.9-28.3,23.1-134.8,23.1-134.8L268.7,297.6z"/>
		</g>
		<g class="st5">
			<path class="st8" d="M164.1,486.3c0-1.4,0-3.4,0-5.9c0-47.3,28.7-58.2,28.7-58.2l-8.2-0.2c-9.9-0.5-22,3.2-24.2-11.1
				c0.7-21,15.9-31.2,40.7-45.7c24.7-14.5,37.1-15.2,43.1-15.2c4.8,0,5.9,0,6.7,1.4c9.8-19.4,16.7-39.1,17.8-54.6
				c0,0-15.1,24.8-67.5,50.4s-72,76.6-37.2,142.5C164.1,489.7,164.1,488.4,164.1,486.3z"/>
			<path class="st8" d="M243.3,361.7c0,0-33.9,37.1-37.9,42.2c0,0-21.5,1.5-25.4-1.6C180,402.3,195.3,379.1,243.3,361.7z"/>
		</g>
		<g class="st5">
			
				<linearGradient id="SVGID_2_" gradientUnits="userSpaceOnUse" x1="178.1978" y1="354.4473" x2="-42.6678" y2="55.4184" gradientTransform="matrix(1 0 0 -1 118.3203 607.9255)">
				<stop  offset="0" style="stop-color:#000000"/>
				<stop  offset="1.970000e-02" style="stop-color:#000000;stop-opacity:0.9603"/>
				<stop  offset="0.4975" style="stop-color:#000000;stop-opacity:0"/>
				<stop  offset="1" style="stop-color:#000000"/>
			</linearGradient>
			<path class="st9" d="M164.1,486.3c0-1.4,0-3.4,0-5.9c0-47.3,28.7-58.2,28.7-58.2l-8.2-0.2c-9.9-0.5-22,3.2-24.2-11.1
				c0.7-21,15.9-31.2,40.7-45.7c24.7-14.5,37.1-15.2,43.1-15.2c4.8,0,5.9,0,6.7,1.4c9.8-19.4,16.7-39.1,17.8-54.6
				c0,0-15.1,24.8-67.5,50.4s-72,76.6-37.2,142.5C164.1,489.7,164.1,488.4,164.1,486.3z"/>
			
				<linearGradient id="SVGID_3_" gradientUnits="userSpaceOnUse" x1="184.7019" y1="349.6451" x2="-36.1646" y2="50.6148" gradientTransform="matrix(1 0 0 -1 118.3203 607.9255)">
				<stop  offset="0" style="stop-color:#000000"/>
				<stop  offset="1.970000e-02" style="stop-color:#000000;stop-opacity:0.9603"/>
				<stop  offset="0.4975" style="stop-color:#000000;stop-opacity:0"/>
				<stop  offset="1" style="stop-color:#000000"/>
			</linearGradient>
			<path class="st10" d="M243.3,361.7c0,0-33.9,37.1-37.9,42.2c0,0-21.5,1.5-25.4-1.6C180,402.3,195.3,379.1,243.3,361.7z"/>
		</g>
		<g>
			<path class="st4" d="M602,109.9c-1.3,15.3-8.1,34.7-17.7,53.7c0.2,0.3,0.4,0.8,0.6,1.3c1,2.7-1.9,6.3-1.9,6.3s1.9,0.5,1.9,6
				s-27,39.8-27,39.8c15.9-2.4,15.9,2.4,15.5,6c-0.5,3.6,0,11.3-19.5,12.5s-29.5,20.9-30.7,30.6c-1.2,9.7,2.7,15.1,2.7,15.1l0,0
				c18-9.8,39.7-20.8,53.2-37.5c22.9-28.3,23.1-134.8,23.1-134.8L602,109.9z"/>
		</g>
		<g>
			
				<linearGradient id="SVGID_4_" gradientUnits="userSpaceOnUse" x1="511.2603" y1="498.0946" x2="361.4889" y2="240.8313" gradientTransform="matrix(1 0 0 -1 118.3203 607.9255)">
				<stop  offset="0" style="stop-color:#000000"/>
				<stop  offset="0.4975" style="stop-color:#000000;stop-opacity:0"/>
				<stop  offset="1" style="stop-color:#000000"/>
			</linearGradient>
			<path class="st11" d="M602,109.9c-1.3,15.3-8.1,34.7-17.7,53.7c0.2,0.3,0.4,0.8,0.6,1.3c1,2.7-1.9,6.3-1.9,6.3s1.9,0.5,1.9,6
				s-27,39.8-27,39.8c15.9-2.4,15.9,2.4,15.5,6c-0.5,3.6,0,11.3-19.5,12.5s-29.5,20.9-30.7,30.6c-1.2,9.7,2.7,15.1,2.7,15.1l0,0
				c18-9.8,39.7-20.8,53.2-37.5c22.9-28.3,23.1-134.8,23.1-134.8L602,109.9z"/>
		</g>
		<g>
			<path class="st12" d="M497.4,298.6c0-1.4,0-3.4,0-5.9c0-47.3,28.7-58.2,28.7-58.2l-8.2-0.2c-9.9-0.5-22,3.2-24.2-11.1
				c0.7-21,15.9-31.2,40.7-45.7c24.7-14.5,37.1-15.2,43.1-15.2c4.8,0,5.9,0,6.7,1.4c9.8-19.4,16.6-39.1,17.8-54.6
				c0,0-15.1,24.8-67.5,50.4s-72,76.6-37.2,142.5C497.4,302,497.4,300.8,497.4,298.6z"/>
			<path class="st12" d="M576.6,174c0,0-33.9,37.1-37.9,42.2c0,0-21.5,1.5-25.4-1.6C513.3,214.6,528.7,191.3,576.6,174z"/>
		</g>
		<g>
			
				<linearGradient id="SVGID_5_" gradientUnits="userSpaceOnUse" x1="511.5158" y1="542.1712" x2="290.6512" y2="243.1438" gradientTransform="matrix(1 0 0 -1 118.3203 607.9255)">
				<stop  offset="0" style="stop-color:#000000"/>
				<stop  offset="6.510000e-02" style="stop-color:#000000;stop-opacity:0.8679"/>
				<stop  offset="0.4926" style="stop-color:#000000;stop-opacity:0"/>
				<stop  offset="1" style="stop-color:#000000"/>
			</linearGradient>
			<path class="st13" d="M497.4,298.6c0-1.4,0-3.4,0-5.9c0-47.3,28.7-58.2,28.7-58.2l-8.2-0.2c-9.9-0.5-22,3.2-24.2-11.1
				c0.7-21,15.9-31.2,40.7-45.7c24.7-14.5,37.1-15.2,43.1-15.2c4.8,0,5.9,0,6.7,1.4c9.8-19.4,16.6-39.1,17.8-54.6
				c0,0-15.1,24.8-67.5,50.4s-72,76.6-37.2,142.5C497.4,302,497.4,300.8,497.4,298.6z"/>
			
				<linearGradient id="SVGID_6_" gradientUnits="userSpaceOnUse" x1="518.0206" y1="537.3701" x2="297.1513" y2="238.3361" gradientTransform="matrix(1 0 0 -1 118.3203 607.9255)">
				<stop  offset="0" style="stop-color:#000000"/>
				<stop  offset="1.970000e-02" style="stop-color:#000000;stop-opacity:0.9603"/>
				<stop  offset="0.4975" style="stop-color:#000000;stop-opacity:0"/>
				<stop  offset="1" style="stop-color:#000000"/>
			</linearGradient>
			<path class="st14" d="M576.6,174c0,0-33.9,37.1-37.9,42.2c0,0-21.5,1.5-25.4-1.6C513.3,214.6,528.7,191.3,576.6,174z"/>
		</g>
	</g>
	<path class="st15" d="M836,1017H52c-6.6,0-12-5.4-12-12V416c0-6.6,5.4-12,12-12h784c102.7,0,208,233.3,240.1,277.9V227.5
		C1054.6,244.8,949,316.3,841,319H52c-6.6,0-12-5.4-12-12V95c0-6.6,5.4-12,12-12h789c97.6,0,212.6,90.1,235.1,111.8V0H-4v1080
		h1080.1V744C1042.9,790.1,939.5,1017,836,1017z"/>
	<g>
		<path d="M251.3,620c-3.3,1.6-9.8,3.3-18.2,3.3c-19.4,0-34-12.2-34-34.8c0-21.5,14.6-36.1,35.9-36.1c8.6,0,14,1.8,16.3,3.1
			l-2.1,7.2c-3.4-1.6-8.2-2.9-13.9-2.9c-16.1,0-26.8,10.3-26.8,28.4c0,16.8,9.7,27.6,26.4,27.6c5.4,0,10.9-1.1,14.5-2.9L251.3,620z"
			/>
		<path d="M319,587.2c0,23.7-14.4,36.2-31.9,36.2c-18.2,0-30.9-14.1-30.9-34.9c0-21.8,13.6-36.1,31.9-36.1
			C306.9,552.4,319,566.8,319,587.2z M265.7,588.3c0,14.7,8,27.8,21.9,27.8c14.1,0,22-13,22-28.6c0-13.7-7.1-27.9-21.9-27.9
			C273,559.6,265.7,573.2,265.7,588.3z"/>
		<path d="M330.5,553.5h8.9v61.3h29.4v7.4h-38.3V553.5z"/>
		<path d="M378.7,553.5h8.9v61.3H417v7.4h-38.3V553.5z"/>
		<path d="M462.4,590h-26.7v24.8h29.8v7.4h-38.7v-68.8H464v7.4h-28.3v21.7h26.7L462.4,590L462.4,590z"/>
		<path d="M525.1,620c-3.3,1.6-9.8,3.3-18.2,3.3c-19.4,0-34-12.2-34-34.8c0-21.5,14.6-36.1,35.9-36.1c8.6,0,14,1.8,16.3,3.1
			l-2.1,7.2c-3.4-1.6-8.2-2.9-13.9-2.9c-16.1,0-26.8,10.3-26.8,28.4c0,16.8,9.7,27.6,26.4,27.6c5.4,0,10.9-1.1,14.5-2.9L525.1,620z"
			/>
		<path d="M552.1,561h-20.9v-7.5h50.9v7.5h-21v61.2h-9V561z"/>
		<path d="M611.3,554.4c5.4-0.8,11.8-1.4,18.9-1.4c12.8,0,21.8,3,27.8,8.6c6.1,5.6,9.7,13.6,9.7,24.7c0,11.2-3.5,20.4-9.9,26.7
			c-6.4,6.4-17,9.9-30.4,9.9c-6.3,0-11.6-0.3-16.1-0.8V554.4z M620.2,615.2c2.2,0.4,5.5,0.5,9,0.5c19,0,29.3-10.6,29.3-29.2
			c0.1-16.2-9.1-26.5-27.8-26.5c-4.6,0-8.1,0.4-10.4,0.9L620.2,615.2L620.2,615.2z"/>
		<path d="M689,600.6l-7.1,21.6h-9.2l23.4-68.8h10.7l23.5,68.8h-9.5l-7.3-21.6H689z M711.5,593.7l-6.7-19.8
			c-1.5-4.5-2.6-8.6-3.6-12.5H701c-1,4.1-2.1,8.3-3.5,12.4l-6.7,19.9L711.5,593.7L711.5,593.7z"/>
		<path d="M745.5,561h-20.9v-7.5h50.9v7.5h-21v61.2h-9V561z"/>
		<path d="M786.6,600.6l-7.1,21.6h-9.2l23.4-68.8h10.7l23.5,68.8h-9.5l-7.3-21.6H786.6z M809.1,593.7l-6.7-19.8
			c-1.5-4.5-2.6-8.6-3.6-12.5h-0.2c-1,4.1-2.1,8.3-3.5,12.4l-6.7,19.9L809.1,593.7L809.1,593.7z"/>
	</g>
	<g>
		<path d="M188.4,722.5c0,9-5.5,13.8-12.2,13.8c-6.9,0-11.8-5.4-11.8-13.3c0-8.3,5.2-13.8,12.2-13.8
			C183.7,709.2,188.4,714.7,188.4,722.5z M168,723c0,5.6,3,10.6,8.4,10.6s8.4-5,8.4-10.9c0-5.2-2.7-10.7-8.4-10.7
			C170.8,712,168,717.2,168,723z"/>
		<path d="M192.7,722.2c0-2,0-3.5-0.2-5.1h3l0.2,3.1h0.1c0.9-1.8,3.1-3.5,6.2-3.5c2.6,0,6.7,1.6,6.7,8V736h-3.4v-10.9
			c0-3-1.1-5.6-4.4-5.6c-2.3,0-4,1.6-4.6,3.5c-0.2,0.4-0.2,1-0.2,1.6v11.3h-3.4L192.7,722.2L192.7,722.2z"/>
		<path d="M227.8,735.2c-0.9,0.5-2.9,1.1-5.4,1.1c-5.7,0-9.4-3.9-9.4-9.6c0-5.8,4-10,10.1-10c2,0,3.8,0.5,4.8,1l-0.8,2.7
			c-0.8-0.5-2.1-0.9-4-0.9c-4.3,0-6.7,3.2-6.7,7.1c0,4.4,2.8,7.1,6.6,7.1c2,0,3.2-0.5,4.2-0.9L227.8,735.2z"/>
		<path d="M233.5,727.1c0.1,4.6,3,6.6,6.5,6.6c2.5,0,3.9-0.4,5.2-1l0.6,2.5c-1.2,0.5-3.3,1.2-6.3,1.2c-5.8,0-9.3-3.8-9.3-9.5
			s3.4-10.2,8.9-10.2c6.2,0,7.8,5.4,7.8,8.9c0,0.7-0.1,1.2-0.1,1.6L233.5,727.1L233.5,727.1z M243.5,724.7c0-2.2-0.9-5.6-4.8-5.6
			c-3.5,0-5,3.2-5.3,5.6H243.5z"/>
		<path d="M263.5,711.6v5.4h4.9v2.6h-4.9v10.2c0,2.3,0.7,3.7,2.6,3.7c0.9,0,1.6-0.1,2-0.2l0.2,2.6c-0.7,0.3-1.7,0.5-3,0.5
			c-1.6,0-2.9-0.5-3.7-1.4c-1-1-1.3-2.7-1.3-4.9v-10.3h-2.9v-2.6h2.9v-4.5L263.5,711.6z"/>
		<path d="M272.3,708.2h3.4V720h0.1c0.5-1,1.4-1.8,2.5-2.4c1-0.6,2.2-1,3.5-1c2.5,0,6.6,1.6,6.6,8.1v11.2H285v-10.8
			c0-3-1.1-5.6-4.4-5.6c-2.2,0-4,1.6-4.6,3.4c-0.2,0.5-0.2,1-0.2,1.6v11.4h-3.4v-27.7H272.3z"/>
		<path d="M295.8,727.1c0.1,4.6,3,6.6,6.5,6.6c2.5,0,3.9-0.4,5.2-1l0.6,2.5c-1.2,0.5-3.3,1.2-6.3,1.2c-5.8,0-9.3-3.8-9.3-9.5
			s3.4-10.2,8.9-10.2c6.2,0,7.8,5.4,7.8,8.9c0,0.7-0.1,1.2-0.1,1.6L295.8,727.1L295.8,727.1z M305.9,724.7c0-2.2-0.9-5.6-4.8-5.6
			c-3.5,0-5,3.2-5.3,5.6H305.9z"/>
		<path d="M321.2,732.4c1,0.7,2.8,1.4,4.5,1.4c2.5,0,3.7-1.2,3.7-2.8s-1-2.5-3.5-3.5c-3.4-1.2-5-3.1-5-5.3c0-3,2.5-5.5,6.5-5.5
			c1.9,0,3.6,0.5,4.6,1.2l-0.9,2.5c-0.7-0.5-2.1-1.1-3.9-1.1c-2,0-3.2,1.2-3.2,2.6c0,1.6,1.1,2.3,3.6,3.2c3.3,1.2,5,2.9,5,5.7
			c0,3.3-2.6,5.7-7.1,5.7c-2.1,0-4-0.5-5.3-1.3L321.2,732.4z"/>
		<path d="M339.1,727.1c0.1,4.6,3,6.6,6.5,6.6c2.5,0,3.9-0.4,5.2-1l0.6,2.5c-1.2,0.5-3.3,1.2-6.3,1.2c-5.8,0-9.3-3.8-9.3-9.5
			s3.4-10.2,8.9-10.2c6.2,0,7.8,5.4,7.8,8.9c0,0.7-0.1,1.2-0.1,1.6L339.1,727.1L339.1,727.1z M349.1,724.7c0-2.2-0.9-5.6-4.8-5.6
			c-3.5,0-5,3.2-5.3,5.6H349.1z"/>
		<path d="M356.7,722.2c0-2,0-3.5-0.2-5.1h3l0.2,3.1h0.1c0.9-1.8,3.1-3.5,6.2-3.5c2.6,0,6.7,1.6,6.7,8V736h-3.4v-10.9
			c0-3-1.1-5.6-4.4-5.6c-2.3,0-4,1.6-4.6,3.5c-0.2,0.4-0.2,1-0.2,1.6v11.3h-3.4L356.7,722.2L356.7,722.2z"/>
		<path d="M377.9,732.4c1,0.7,2.8,1.4,4.5,1.4c2.5,0,3.7-1.2,3.7-2.8s-1-2.5-3.5-3.5c-3.4-1.2-5-3.1-5-5.3c0-3,2.5-5.5,6.5-5.5
			c1.9,0,3.6,0.5,4.6,1.2l-0.9,2.5c-0.7-0.5-2.1-1.1-3.9-1.1c-2,0-3.2,1.2-3.2,2.6c0,1.6,1.1,2.3,3.6,3.2c3.3,1.2,5,2.9,5,5.7
			c0,3.3-2.6,5.7-7.1,5.7c-2.1,0-4-0.5-5.3-1.3L377.9,732.4z"/>
		<path d="M410.9,726.3c0,7-4.8,10-9.4,10c-5.1,0-9-3.7-9-9.7c0-6.3,4.1-10,9.4-10C407.2,716.6,410.9,720.6,410.9,726.3z
			 M395.9,726.5c0,4.1,2.4,7.3,5.7,7.3c3.3,0,5.7-3.1,5.7-7.3c0-3.2-1.6-7.3-5.7-7.3C397.6,719.2,395.9,723,395.9,726.5z"/>
		<path d="M415.2,723c0-2.2,0-4.1-0.2-5.9h3l0.1,3.7h0.2c0.9-2.5,2.9-4.1,5.2-4.1c0.4,0,0.7,0,1,0.1v3.2c-0.4-0.1-0.7-0.1-1.2-0.1
			c-2.4,0-4.1,1.8-4.6,4.4c-0.1,0.5-0.2,1-0.2,1.6V736h-3.4v-13H415.2z"/>
		<path d="M427.5,732.4c1,0.7,2.8,1.4,4.5,1.4c2.5,0,3.7-1.2,3.7-2.8s-1-2.5-3.5-3.5c-3.4-1.2-5-3.1-5-5.3c0-3,2.5-5.5,6.5-5.5
			c1.9,0,3.6,0.5,4.6,1.2l-0.9,2.5c-0.7-0.5-2.1-1.1-3.9-1.1c-2,0-3.2,1.2-3.2,2.6c0,1.6,1.1,2.3,3.6,3.2c3.3,1.2,5,2.9,5,5.7
			c0,3.3-2.6,5.7-7.1,5.7c-2.1,0-4-0.5-5.3-1.3L427.5,732.4z"/>
		<path d="M451.7,708.2h3.4V720h0.1c0.5-1,1.4-1.8,2.5-2.4c1-0.6,2.2-1,3.5-1c2.5,0,6.6,1.6,6.6,8.1v11.2h-3.4v-10.8
			c0-3-1.1-5.6-4.4-5.6c-2.2,0-4,1.6-4.6,3.4c-0.2,0.5-0.2,1-0.2,1.6v11.4h-3.4v-27.7H451.7z"/>
		<path d="M483.8,735.9l-0.3-2.4h-0.1c-1.1,1.5-3.1,2.8-5.8,2.8c-3.8,0-5.8-2.7-5.8-5.4c0-4.6,4.1-7.1,11.3-7v-0.4
			c0-1.6-0.4-4.4-4.3-4.4c-1.8,0-3.6,0.5-4.9,1.4l-0.8-2.3c1.6-1,3.8-1.7,6.2-1.7c5.8,0,7.2,3.9,7.2,7.7v7.1c0,1.6,0.1,3.2,0.3,4.5
			h-3V735.9z M483.2,726.3c-3.7-0.1-8,0.6-8,4.3c0,2.2,1.5,3.3,3.2,3.3c2.5,0,4-1.6,4.6-3.2c0.1-0.4,0.2-0.7,0.2-1.1L483.2,726.3
			L483.2,726.3z"/>
		<path d="M493.1,717.1l3.7,10.6c0.6,1.7,1.1,3.3,1.5,4.8h0.1c0.4-1.6,1-3.1,1.6-4.8l3.7-10.6h3.6l-7.4,18.9h-3.3l-7.2-18.9H493.1z"
			/>
		<path d="M512.1,727.1c0.1,4.6,3,6.6,6.5,6.6c2.5,0,3.9-0.4,5.2-1l0.6,2.5c-1.2,0.5-3.3,1.2-6.3,1.2c-5.8,0-9.3-3.8-9.3-9.5
			s3.4-10.2,8.9-10.2c6.2,0,7.8,5.4,7.8,8.9c0,0.7-0.1,1.2-0.1,1.6L512.1,727.1L512.1,727.1z M522.1,724.7c0-2.2-0.9-5.6-4.8-5.6
			c-3.5,0-5,3.2-5.3,5.6H522.1z"/>
		<path d="M537.8,735.9c0.1-1.3,0.2-3.2,0.2-4.9v-22.8h3.4v11.9h0.1c1.2-2.1,3.4-3.5,6.4-3.5c4.7,0,8,3.9,8,9.6
			c0,6.7-4.3,10.1-8.5,10.1c-2.7,0-4.9-1.1-6.3-3.5H541l-0.2,3.1L537.8,735.9L537.8,735.9z M541.4,728.4c0,0.4,0.1,0.9,0.2,1.2
			c0.7,2.4,2.7,4,5.1,4c3.6,0,5.7-2.9,5.7-7.3c0-3.8-2-7-5.6-7c-2.3,0-4.5,1.6-5.2,4.2c-0.1,0.4-0.2,0.9-0.2,1.4V728.4z"/>
		<path d="M562.1,727.1c0.1,4.6,3,6.6,6.5,6.6c2.5,0,3.9-0.4,5.2-1l0.6,2.5c-1.2,0.5-3.3,1.2-6.3,1.2c-5.8,0-9.3-3.8-9.3-9.5
			s3.4-10.2,8.9-10.2c6.2,0,7.8,5.4,7.8,8.9c0,0.7-0.1,1.2-0.1,1.6L562.1,727.1L562.1,727.1z M572.1,724.7c0-2.2-0.9-5.6-4.8-5.6
			c-3.5,0-5,3.2-5.3,5.6H572.1z"/>
		<path d="M581.6,727.1c0.1,4.6,3,6.6,6.5,6.6c2.5,0,3.9-0.4,5.2-1l0.6,2.5c-1.2,0.5-3.3,1.2-6.3,1.2c-5.8,0-9.3-3.8-9.3-9.5
			s3.4-10.2,8.9-10.2c6.2,0,7.8,5.4,7.8,8.9c0,0.7-0.1,1.2-0.1,1.6L581.6,727.1L581.6,727.1z M591.7,724.7c0-2.2-0.9-5.6-4.8-5.6
			c-3.5,0-5,3.2-5.3,5.6H591.7z"/>
		<path d="M599.2,722.2c0-2,0-3.5-0.2-5.1h3l0.2,3.1h0.1c0.9-1.8,3.1-3.5,6.2-3.5c2.6,0,6.7,1.6,6.7,8V736h-3.4v-10.9
			c0-3-1.1-5.6-4.4-5.6c-2.3,0-4,1.6-4.6,3.5c-0.2,0.4-0.2,1-0.2,1.6v11.3h-3.4L599.2,722.2L599.2,722.2z"/>
		<path d="M629.1,723.2c0-2.4-0.1-4.4-0.2-6.2h3.1l0.2,3.2h0.1c1.4-2.3,3.6-3.7,6.7-3.7c4.6,0,8,3.9,8,9.6c0,6.8-4.1,10.1-8.6,10.1
			c-2.5,0-4.7-1.1-5.8-3h-0.1v10.3h-3.4V723.2z M632.5,728.3c0,0.5,0.1,1,0.2,1.4c0.6,2.4,2.7,4,5.1,4c3.6,0,5.7-3,5.7-7.3
			c0-3.8-2-7-5.6-7c-2.3,0-4.5,1.7-5.2,4.3c-0.1,0.4-0.2,0.9-0.2,1.4V728.3z"/>
		<path d="M651.3,708.2h3.4v27.7h-3.4V708.2z"/>
		<path d="M671,735.9l-0.3-2.4h-0.1c-1.1,1.5-3.1,2.8-5.8,2.8c-3.8,0-5.8-2.7-5.8-5.4c0-4.6,4.1-7.1,11.3-7v-0.4
			c0-1.6-0.4-4.4-4.3-4.4c-1.8,0-3.6,0.5-4.9,1.4l-0.8-2.3c1.6-1,3.8-1.7,6.2-1.7c5.8,0,7.2,3.9,7.2,7.7v7.1c0,1.6,0.1,3.2,0.3,4.5
			h-3V735.9z M670.5,726.3c-3.7-0.1-8,0.6-8,4.3c0,2.2,1.5,3.3,3.2,3.3c2.5,0,4-1.6,4.6-3.2c0.1-0.4,0.2-0.7,0.2-1.1V726.3z"/>
		<path d="M692.8,735.2c-0.9,0.5-2.9,1.1-5.4,1.1c-5.7,0-9.4-3.9-9.4-9.6c0-5.8,4-10,10.1-10c2,0,3.8,0.5,4.8,1l-0.8,2.7
			c-0.8-0.5-2.1-0.9-4-0.9c-4.3,0-6.7,3.2-6.7,7.1c0,4.4,2.8,7.1,6.6,7.1c2,0,3.2-0.5,4.2-0.9L692.8,735.2z"/>
		<path d="M698.5,727.1c0.1,4.6,3,6.6,6.5,6.6c2.5,0,3.9-0.4,5.2-1l0.6,2.5c-1.2,0.5-3.3,1.2-6.3,1.2c-5.8,0-9.3-3.8-9.3-9.5
			s3.4-10.2,8.9-10.2c6.2,0,7.8,5.4,7.8,8.9c0,0.7-0.1,1.2-0.1,1.6L698.5,727.1L698.5,727.1z M708.5,724.7c0-2.2-0.9-5.6-4.8-5.6
			c-3.5,0-5,3.2-5.3,5.6H708.5z"/>
		<path d="M732.4,708.2V731c0,1.7,0,3.6,0.2,4.9h-3.1l-0.2-3.3h-0.1c-1.1,2.1-3.4,3.7-6.4,3.7c-4.6,0-8.1-3.9-8.1-9.6
			c0-6.3,3.9-10.1,8.5-10.1c2.9,0,4.8,1.4,5.7,2.9h0.1v-11.3L732.4,708.2L732.4,708.2z M729,724.7c0-0.4,0-1-0.2-1.4
			c-0.5-2.2-2.4-4-5-4c-3.5,0-5.7,3.1-5.7,7.3c0,3.8,1.9,7,5.6,7c2.3,0,4.4-1.5,5-4.1c0.1-0.5,0.2-0.9,0.2-1.5v-3.3H729z"/>
		<path d="M750.2,711.8c0,1.2-0.8,2.1-2.2,2.1c-1.2,0-2.1-0.9-2.1-2.1c0-1.2,0.9-2.1,2.1-2.1C749.4,709.6,750.2,710.5,750.2,711.8z
			 M746.4,735.9V717h3.4v18.9H746.4z"/>
		<path d="M755.5,722.2c0-2,0-3.5-0.2-5.1h3l0.2,3.1h0.1c0.9-1.8,3.1-3.5,6.2-3.5c2.6,0,6.7,1.6,6.7,8V736h-3.4v-10.9
			c0-3-1.1-5.6-4.4-5.6c-2.3,0-4,1.6-4.6,3.5c-0.2,0.4-0.2,1-0.2,1.6v11.3h-3.4L755.5,722.2L755.5,722.2z"/>
		<path d="M789.5,711.6v5.4h4.9v2.6h-4.9v10.2c0,2.3,0.7,3.7,2.6,3.7c0.9,0,1.6-0.1,2-0.2l0.2,2.6c-0.7,0.3-1.7,0.5-3,0.5
			c-1.6,0-2.9-0.5-3.7-1.4c-1-1-1.3-2.7-1.3-4.9v-10.3h-2.9v-2.6h2.9v-4.5L789.5,711.6z"/>
		<path d="M798.3,708.2h3.4V720h0.1c0.5-1,1.4-1.8,2.5-2.4c1-0.6,2.2-1,3.5-1c2.5,0,6.6,1.6,6.6,8.1v11.2H811v-10.8
			c0-3-1.1-5.6-4.4-5.6c-2.2,0-4,1.6-4.6,3.4c-0.2,0.5-0.2,1-0.2,1.6v11.4h-3.4L798.3,708.2L798.3,708.2z"/>
		<path d="M821.9,727.1c0.1,4.6,3,6.6,6.5,6.6c2.5,0,3.9-0.4,5.2-1l0.6,2.5c-1.2,0.5-3.3,1.2-6.3,1.2c-5.8,0-9.3-3.8-9.3-9.5
			s3.4-10.2,8.9-10.2c6.2,0,7.8,5.4,7.8,8.9c0,0.7-0.1,1.2-0.1,1.6L821.9,727.1L821.9,727.1z M831.9,724.7c0-2.2-0.9-5.6-4.8-5.6
			c-3.5,0-5,3.2-5.3,5.6H831.9z"/>
		<path d="M139.7,755v22.8c0,1.7,0,3.6,0.2,4.9h-3.1l-0.2-3.3h-0.1c-1.1,2.1-3.4,3.7-6.4,3.7c-4.6,0-8.1-3.9-8.1-9.6
			c0-6.3,3.9-10.1,8.5-10.1c2.9,0,4.8,1.4,5.7,2.9h0.1V755H139.7z M136.3,771.5c0-0.4,0-1-0.2-1.4c-0.5-2.2-2.4-4-5-4
			c-3.5,0-5.7,3.1-5.7,7.3c0,3.8,1.9,7,5.6,7c2.3,0,4.4-1.5,5-4.1c0.1-0.5,0.2-0.9,0.2-1.5L136.3,771.5L136.3,771.5z"/>
		<path d="M147.3,773.9c0.1,4.6,3,6.6,6.5,6.6c2.5,0,3.9-0.4,5.2-1l0.6,2.5c-1.2,0.5-3.3,1.2-6.3,1.2c-5.8,0-9.3-3.8-9.3-9.5
			s3.4-10.2,8.9-10.2c6.2,0,7.8,5.4,7.8,8.9c0,0.7-0.1,1.2-0.1,1.6L147.3,773.9L147.3,773.9z M157.4,771.5c0-2.2-0.9-5.6-4.8-5.6
			c-3.5,0-5,3.2-5.3,5.6H157.4z"/>
		<path d="M164.5,779.2c1,0.7,2.8,1.4,4.5,1.4c2.5,0,3.7-1.2,3.7-2.8s-1-2.5-3.5-3.5c-3.4-1.2-5-3.1-5-5.3c0-3,2.5-5.5,6.5-5.5
			c1.9,0,3.6,0.5,4.6,1.2l-0.9,2.5c-0.7-0.5-2.1-1.1-3.9-1.1c-2,0-3.2,1.2-3.2,2.6c0,1.6,1.1,2.3,3.6,3.2c3.3,1.2,5,2.9,5,5.7
			c0,3.3-2.6,5.7-7.1,5.7c-2.1,0-4-0.5-5.3-1.3L164.5,779.2z"/>
		<path d="M184.2,758.6c0,1.2-0.8,2.1-2.2,2.1c-1.2,0-2.1-0.9-2.1-2.1c0-1.2,0.9-2.1,2.1-2.1C183.4,756.4,184.2,757.3,184.2,758.6z
			 M180.4,782.7v-18.9h3.4v18.9H180.4z"/>
		<path d="M189.5,769.8c0-2.2,0-4.1-0.2-5.9h3l0.1,3.7h0.2c0.9-2.5,2.9-4.1,5.2-4.1c0.4,0,0.7,0,1,0.1v3.2c-0.4-0.1-0.7-0.1-1.2-0.1
			c-2.4,0-4.1,1.8-4.6,4.4c-0.1,0.5-0.2,1-0.2,1.6v10.1h-3.4L189.5,769.8L189.5,769.8z"/>
		<path d="M203.8,773.9c0.1,4.6,3,6.6,6.5,6.6c2.5,0,3.9-0.4,5.2-1l0.6,2.5c-1.2,0.5-3.3,1.2-6.3,1.2c-5.8,0-9.3-3.8-9.3-9.5
			s3.4-10.2,8.9-10.2c6.2,0,7.8,5.4,7.8,8.9c0,0.7-0.1,1.2-0.1,1.6L203.8,773.9L203.8,773.9z M213.8,771.5c0-2.2-0.9-5.6-4.8-5.6
			c-3.5,0-5,3.2-5.3,5.6H213.8z"/>
		<path d="M237.7,755v22.8c0,1.7,0,3.6,0.2,4.9h-3.1l-0.2-3.3h-0.1c-1.1,2.1-3.4,3.7-6.4,3.7c-4.6,0-8.1-3.9-8.1-9.6
			c0-6.3,3.9-10.1,8.5-10.1c2.9,0,4.8,1.4,5.7,2.9h0.1V755H237.7z M234.3,771.5c0-0.4,0-1-0.2-1.4c-0.5-2.2-2.4-4-5-4
			c-3.5,0-5.7,3.1-5.7,7.3c0,3.8,1.9,7,5.6,7c2.3,0,4.4-1.5,5-4.1c0.1-0.5,0.2-0.9,0.2-1.5L234.3,771.5L234.3,771.5z"/>
		<path d="M251.7,755h3.4v27.7h-3.4V755z"/>
		<path d="M278,773.1c0,7-4.8,10-9.4,10c-5.1,0-9-3.7-9-9.7c0-6.3,4.1-10,9.4-10C274.3,763.4,278,767.4,278,773.1z M263,773.3
			c0,4.1,2.4,7.3,5.7,7.3c3.3,0,5.7-3.1,5.7-7.3c0-3.2-1.6-7.3-5.7-7.3C264.7,766,263,769.8,263,773.3z"/>
		<path d="M295.7,782c-0.9,0.5-2.9,1.1-5.4,1.1c-5.7,0-9.4-3.9-9.4-9.6c0-5.8,4-10,10.1-10c2,0,3.8,0.5,4.8,1l-0.8,2.7
			c-0.8-0.5-2.1-0.9-4-0.9c-4.3,0-6.7,3.2-6.7,7.1c0,4.4,2.8,7.1,6.6,7.1c2,0,3.2-0.5,4.2-0.9L295.7,782z"/>
		<path d="M310.2,782.7l-0.3-2.4h-0.1c-1.1,1.5-3.1,2.8-5.8,2.8c-3.8,0-5.8-2.7-5.8-5.4c0-4.6,4.1-7.1,11.3-7v-0.4
			c0-1.6-0.4-4.4-4.3-4.4c-1.8,0-3.6,0.5-4.9,1.4l-0.8-2.3c1.6-1,3.8-1.7,6.2-1.7c5.8,0,7.2,3.9,7.2,7.7v7.1c0,1.6,0.1,3.2,0.3,4.5
			h-3V782.7z M309.7,773.1c-3.7-0.1-8,0.6-8,4.3c0,2.2,1.5,3.3,3.2,3.3c2.5,0,4-1.6,4.6-3.2c0.1-0.4,0.2-0.7,0.2-1.1L309.7,773.1
			L309.7,773.1z"/>
		<path d="M322.5,758.4v5.4h4.9v2.6h-4.9v10.2c0,2.3,0.7,3.7,2.6,3.7c0.9,0,1.6-0.1,2-0.2l0.2,2.6c-0.7,0.3-1.7,0.5-3,0.5
			c-1.6,0-2.9-0.5-3.7-1.4c-1-1-1.3-2.7-1.3-4.9v-10.3h-2.9V764h2.9v-4.5L322.5,758.4z"/>
		<path d="M335.1,758.6c0,1.2-0.8,2.1-2.2,2.1c-1.2,0-2.1-0.9-2.1-2.1c0-1.2,0.9-2.1,2.1-2.1C334.3,756.4,335.1,757.3,335.1,758.6z
			 M331.3,782.7v-18.9h3.4v18.9H331.3z"/>
		<path d="M357.5,773.1c0,7-4.8,10-9.4,10c-5.1,0-9-3.7-9-9.7c0-6.3,4.1-10,9.4-10C353.8,763.4,357.5,767.4,357.5,773.1z
			 M342.5,773.3c0,4.1,2.4,7.3,5.7,7.3c3.3,0,5.7-3.1,5.7-7.3c0-3.2-1.6-7.3-5.7-7.3C344.3,766,342.5,769.8,342.5,773.3z"/>
		<path d="M361.8,769c0-2,0-3.5-0.2-5.1h3l0.2,3.1h0.1c0.9-1.8,3.1-3.5,6.2-3.5c2.6,0,6.7,1.6,6.7,8v11.3h-3.4v-10.9
			c0-3-1.1-5.6-4.4-5.6c-2.3,0-4,1.6-4.6,3.5c-0.2,0.4-0.2,1-0.2,1.6v11.3h-3.4L361.8,769L361.8,769z"/>
		<path d="M381.3,787.5c0.9-2.3,1.9-6.5,2.3-9.3l3.8-0.4c-0.9,3.3-2.6,7.6-3.7,9.5L381.3,787.5z"/>
		<path d="M399.8,769.8c0-2.2,0-4.1-0.2-5.9h3l0.1,3.7h0.2c0.9-2.5,2.9-4.1,5.2-4.1c0.4,0,0.7,0,1,0.1v3.2c-0.4-0.1-0.7-0.1-1.2-0.1
			c-2.4,0-4.1,1.8-4.6,4.4c-0.1,0.5-0.2,1-0.2,1.6v10.1h-3.4v-13H399.8z"/>
		<path d="M414.1,773.9c0.1,4.6,3,6.6,6.5,6.6c2.5,0,3.9-0.4,5.2-1l0.6,2.5c-1.2,0.5-3.3,1.2-6.3,1.2c-5.8,0-9.3-3.8-9.3-9.5
			s3.4-10.2,8.9-10.2c6.2,0,7.8,5.4,7.8,8.9c0,0.7-0.1,1.2-0.1,1.6L414.1,773.9L414.1,773.9z M424.2,771.5c0-2.2-0.9-5.6-4.8-5.6
			c-3.5,0-5,3.2-5.3,5.6H424.2z"/>
		<path d="M448,763.9c-0.1,1.4-0.2,2.9-0.2,5.2v11c0,4.3-0.9,7-2.7,8.6c-1.8,1.7-4.5,2.3-6.9,2.3c-2.3,0-4.8-0.5-6.3-1.6l0.9-2.6
			c1.2,0.8,3.2,1.5,5.5,1.5c3.5,0,6.1-1.8,6.1-6.6v-2.1h-0.1c-1.1,1.8-3.1,3.2-6,3.2c-4.7,0-8-4-8-9.2c0-6.4,4.2-10,8.5-10
			c3.3,0,5.1,1.7,5.9,3.3h0.1l0.2-2.8h3V763.9z M444.4,771.3c0-0.6,0-1.1-0.2-1.6c-0.6-2-2.3-3.6-4.8-3.6c-3.3,0-5.6,2.8-5.6,7.1
			c0,3.7,1.9,6.8,5.6,6.8c2.1,0,4-1.3,4.8-3.5c0.2-0.6,0.3-1.2,0.3-1.8L444.4,771.3L444.4,771.3z"/>
		<path d="M457.1,758.6c0,1.2-0.8,2.1-2.2,2.1c-1.2,0-2.1-0.9-2.1-2.1c0-1.2,0.9-2.1,2.1-2.1C456.3,756.4,457.1,757.3,457.1,758.6z
			 M453.3,782.7v-18.9h3.4v18.9H453.3z"/>
		<path d="M461.9,779.2c1,0.7,2.8,1.4,4.5,1.4c2.5,0,3.7-1.2,3.7-2.8s-1-2.5-3.5-3.5c-3.4-1.2-5-3.1-5-5.3c0-3,2.5-5.5,6.5-5.5
			c1.9,0,3.6,0.5,4.6,1.2l-0.9,2.5c-0.7-0.5-2.1-1.1-3.9-1.1c-2,0-3.2,1.2-3.2,2.6c0,1.6,1.1,2.3,3.6,3.2c3.3,1.2,5,2.9,5,5.7
			c0,3.3-2.6,5.7-7.1,5.7c-2.1,0-4-0.5-5.3-1.3L461.9,779.2z"/>
		<path d="M482,758.4v5.4h4.9v2.6H482v10.2c0,2.3,0.7,3.7,2.6,3.7c0.9,0,1.6-0.1,2-0.2l0.2,2.6c-0.7,0.3-1.7,0.5-3,0.5
			c-1.6,0-2.9-0.5-3.7-1.4c-1-1-1.3-2.7-1.3-4.9v-10.3h-2.9V764h2.9v-4.5L482,758.4z"/>
		<path d="M492.4,773.9c0.1,4.6,3,6.6,6.5,6.6c2.5,0,3.9-0.4,5.2-1l0.6,2.5c-1.2,0.5-3.3,1.2-6.3,1.2c-5.8,0-9.3-3.8-9.3-9.5
			s3.4-10.2,8.9-10.2c6.2,0,7.8,5.4,7.8,8.9c0,0.7-0.1,1.2-0.1,1.6L492.4,773.9L492.4,773.9z M502.5,771.5c0-2.2-0.9-5.6-4.8-5.6
			c-3.5,0-5,3.2-5.3,5.6H502.5z"/>
		<path d="M510.1,769.8c0-2.2,0-4.1-0.2-5.9h3l0.1,3.7h0.2c0.9-2.5,2.9-4.1,5.2-4.1c0.4,0,0.7,0,1,0.1v3.2c-0.4-0.1-0.7-0.1-1.2-0.1
			c-2.4,0-4.1,1.8-4.6,4.4c-0.1,0.5-0.2,1-0.2,1.6v10.1H510L510.1,769.8L510.1,769.8z"/>
		<path d="M535.2,758.4v5.4h4.9v2.6h-4.9v10.2c0,2.3,0.7,3.7,2.6,3.7c0.9,0,1.6-0.1,2-0.2l0.2,2.6c-0.7,0.3-1.7,0.5-3,0.5
			c-1.6,0-2.9-0.5-3.7-1.4c-1-1-1.3-2.7-1.3-4.9v-10.3h-3V764h2.9v-4.5L535.2,758.4z"/>
		<path d="M544,755h3.4v11.8h0.1c0.5-1,1.4-1.8,2.5-2.4c1-0.6,2.2-1,3.5-1c2.5,0,6.6,1.6,6.6,8.1v11.2h-3.4v-10.8
			c0-3-1.1-5.6-4.4-5.6c-2.2,0-4,1.6-4.6,3.4c-0.2,0.5-0.2,1-0.2,1.6v11.4H544V755z"/>
		<path d="M567.6,773.9c0.1,4.6,3,6.6,6.5,6.6c2.5,0,3.9-0.4,5.2-1l0.6,2.5c-1.2,0.5-3.3,1.2-6.3,1.2c-5.8,0-9.3-3.8-9.3-9.5
			s3.4-10.2,8.9-10.2c6.2,0,7.8,5.4,7.8,8.9c0,0.7-0.1,1.2-0.1,1.6L567.6,773.9L567.6,773.9z M577.6,771.5c0-2.2-0.9-5.6-4.8-5.6
			c-3.5,0-5,3.2-5.3,5.6H577.6z"/>
		<path d="M585.2,769c0-2,0-3.5-0.2-5.1h3l0.2,3h0.1c1.1-1.8,2.8-3.5,5.9-3.5c2.6,0,4.5,1.6,5.3,3.8h0.1c0.6-1.1,1.3-1.9,2.1-2.5
			c1.1-0.9,2.4-1.3,4.2-1.3c2.5,0,6.2,1.6,6.2,8.2v11.1h-3.4V772c0-3.6-1.3-5.8-4.1-5.8c-1.9,0-3.5,1.4-4.1,3.1
			c-0.2,0.5-0.3,1.1-0.3,1.7v11.7H597v-11.3c0-3-1.3-5.2-3.9-5.2c-2.1,0-3.7,1.7-4.3,3.4c-0.2,0.5-0.3,1.1-0.3,1.7v11.4h-3.4V769
			H585.2z"/>
		<path d="M643.1,773.1c0,7-4.8,10-9.4,10c-5.1,0-9-3.7-9-9.7c0-6.3,4.1-10,9.4-10C639.4,763.4,643.1,767.4,643.1,773.1z
			 M628.1,773.3c0,4.1,2.4,7.3,5.7,7.3s5.7-3.1,5.7-7.3c0-3.2-1.6-7.3-5.7-7.3C629.8,766,628.1,769.8,628.1,773.3z"/>
		<path d="M647.4,769c0-2,0-3.5-0.2-5.1h3l0.2,3.1h0.1c0.9-1.8,3.1-3.5,6.2-3.5c2.6,0,6.7,1.6,6.7,8v11.3H660v-10.9
			c0-3-1.1-5.6-4.4-5.6c-2.3,0-4,1.6-4.6,3.5c-0.2,0.4-0.2,1-0.2,1.6v11.3h-3.4L647.4,769L647.4,769z"/>
		<path d="M694.4,773.1c0,7-4.8,10-9.4,10c-5.1,0-9-3.7-9-9.7c0-6.3,4.1-10,9.4-10C690.7,763.4,694.4,767.4,694.4,773.1z
			 M679.4,773.3c0,4.1,2.4,7.3,5.7,7.3s5.7-3.1,5.7-7.3c0-3.2-1.6-7.3-5.7-7.3C681.2,766,679.4,769.8,679.4,773.3z"/>
		<path d="M714.5,777.6c0,2,0,3.7,0.2,5.1h-3l-0.2-3.1h-0.1c-0.9,1.5-2.9,3.5-6.2,3.5c-3,0-6.5-1.6-6.5-8.3v-11h3.4v10.5
			c0,3.6,1.1,6,4.2,6c2.3,0,3.9-1.6,4.5-3.1c0.2-0.5,0.3-1.1,0.3-1.8v-11.6h3.4L714.5,777.6L714.5,777.6z"/>
		<path d="M720.2,769.8c0-2.2,0-4.1-0.2-5.9h3l0.1,3.7h0.2c0.9-2.5,2.9-4.1,5.2-4.1c0.4,0,0.7,0,1,0.1v3.2c-0.4-0.1-0.7-0.1-1.2-0.1
			c-2.4,0-4.1,1.8-4.6,4.4c-0.1,0.5-0.2,1-0.2,1.6v10.1h-3.4v-13H720.2z"/>
		<path d="M741.2,770c0-2.4-0.1-4.4-0.2-6.2h3.1l0.2,3.2h0.1c1.4-2.3,3.6-3.7,6.7-3.7c4.6,0,8,3.9,8,9.6c0,6.8-4.1,10.1-8.6,10.1
			c-2.5,0-4.7-1.1-5.8-3h-0.1v10.3h-3.4V770z M744.6,775.1c0,0.5,0.1,1,0.2,1.4c0.6,2.4,2.7,4,5.1,4c3.6,0,5.7-3,5.7-7.3
			c0-3.8-2-7-5.6-7c-2.3,0-4.5,1.7-5.2,4.3c-0.1,0.4-0.2,0.9-0.2,1.4V775.1z"/>
		<path d="M763.4,755h3.4v27.7h-3.4V755z"/>
		<path d="M783.1,782.7l-0.3-2.4h-0.1c-1.1,1.5-3.1,2.8-5.8,2.8c-3.8,0-5.8-2.7-5.8-5.4c0-4.6,4.1-7.1,11.3-7v-0.4
			c0-1.6-0.4-4.4-4.3-4.4c-1.8,0-3.6,0.5-4.9,1.4l-0.8-2.3c1.6-1,3.8-1.7,6.2-1.7c5.8,0,7.2,3.9,7.2,7.7v7.1c0,1.6,0.1,3.2,0.3,4.5
			h-3V782.7z M782.6,773.1c-3.7-0.1-8,0.6-8,4.3c0,2.2,1.5,3.3,3.2,3.3c2.5,0,4-1.6,4.6-3.2c0.1-0.4,0.2-0.7,0.2-1.1V773.1z"/>
		<path d="M795.4,758.4v5.4h4.9v2.6h-4.9v10.2c0,2.3,0.7,3.7,2.6,3.7c0.9,0,1.6-0.1,2-0.2l0.2,2.6c-0.7,0.3-1.7,0.5-3,0.5
			c-1.6,0-2.9-0.5-3.7-1.4c-1-1-1.3-2.7-1.3-4.9v-10.3h-2.9V764h2.9v-4.5L795.4,758.4z"/>
		<path d="M804.5,782.7v-16.3h-2.7v-2.6h2.7V763c0-2.7,0.6-5.1,2.2-6.6c1.3-1.2,3-1.8,4.6-1.8c1.2,0,2.3,0.3,2.9,0.5l-0.5,2.7
			c-0.5-0.2-1.2-0.4-2.2-0.4c-2.9,0-3.7,2.6-3.7,5.5v1h4.6v2.6h-4.6v16.3L804.5,782.7L804.5,782.7z"/>
		<path d="M832.1,773.1c0,7-4.8,10-9.4,10c-5.1,0-9-3.7-9-9.7c0-6.3,4.1-10,9.4-10C828.5,763.4,832.1,767.4,832.1,773.1z
			 M817.2,773.3c0,4.1,2.4,7.3,5.7,7.3s5.7-3.1,5.7-7.3c0-3.2-1.6-7.3-5.7-7.3C818.9,766,817.2,769.8,817.2,773.3z"/>
		<path d="M836.5,769.8c0-2.2,0-4.1-0.2-5.9h3l0.1,3.7h0.2c0.9-2.5,2.9-4.1,5.2-4.1c0.4,0,0.7,0,1,0.1v3.2c-0.4-0.1-0.7-0.1-1.2-0.1
			c-2.4,0-4.1,1.8-4.6,4.4c-0.1,0.5-0.2,1-0.2,1.6v10.1h-3.4v-13H836.5z"/>
		<path d="M849.4,769c0-2,0-3.5-0.2-5.1h3l0.2,3h0.1c1.1-1.8,2.8-3.5,5.9-3.5c2.6,0,4.5,1.6,5.3,3.8h0.1c0.6-1.1,1.3-1.9,2.1-2.5
			c1.1-0.9,2.4-1.3,4.2-1.3c2.5,0,6.2,1.6,6.2,8.2v11.1H873V772c0-3.6-1.3-5.8-4.1-5.8c-1.9,0-3.5,1.4-4.1,3.1
			c-0.2,0.5-0.3,1.1-0.3,1.7v11.7h-3.4v-11.3c0-3-1.3-5.2-3.9-5.2c-2.1,0-3.7,1.7-4.3,3.4c-0.2,0.5-0.3,1.1-0.3,1.7v11.4h-3.4V769
			H849.4z"/>
		<path d="M133.5,805.2v5.4h4.9v2.6h-4.9v10.2c0,2.3,0.7,3.7,2.6,3.7c0.9,0,1.6-0.1,2-0.2l0.2,2.6c-0.7,0.3-1.7,0.5-3,0.5
			c-1.6,0-2.9-0.5-3.7-1.4c-1-1-1.3-2.7-1.3-4.9v-10.3h-2.9v-2.6h2.9v-4.5L133.5,805.2z"/>
		<path d="M159.1,819.9c0,7-4.8,10-9.4,10c-5.1,0-9-3.7-9-9.7c0-6.3,4.1-10,9.4-10S159.1,814.2,159.1,819.9z M144.1,820.1
			c0,4.1,2.4,7.3,5.7,7.3s5.7-3.1,5.7-7.3c0-3.2-1.6-7.3-5.7-7.3C145.9,812.8,144.1,816.6,144.1,820.1z"/>
		<path d="M182.1,829.5l-0.3-2.4h-0.1c-1.1,1.5-3.1,2.8-5.8,2.8c-3.8,0-5.8-2.7-5.8-5.4c0-4.6,4.1-7.1,11.3-7v-0.4
			c0-1.6-0.4-4.4-4.3-4.4c-1.8,0-3.6,0.5-4.9,1.4l-0.8-2.3c1.6-1,3.8-1.7,6.2-1.7c5.8,0,7.2,3.9,7.2,7.7v7.1c0,1.6,0.1,3.2,0.3,4.5
			h-3V829.5z M181.6,819.9c-3.7-0.1-8,0.6-8,4.3c0,2.2,1.5,3.3,3.2,3.3c2.5,0,4-1.6,4.6-3.2c0.1-0.4,0.2-0.7,0.2-1.1V819.9z"/>
		<path d="M190.5,801.8h3.4v27.7h-3.4V801.8z"/>
		<path d="M199.7,801.8h3.4v27.7h-3.4V801.8z"/>
		<path d="M226,819.9c0,7-4.8,10-9.4,10c-5.1,0-9-3.7-9-9.7c0-6.3,4.1-10,9.4-10C222.3,810.2,226,814.2,226,819.9z M211,820.1
			c0,4.1,2.4,7.3,5.7,7.3s5.7-3.1,5.7-7.3c0-3.2-1.6-7.3-5.7-7.3C212.7,812.8,211,816.6,211,820.1z"/>
		<path d="M231.4,810.7l2.5,9.6c0.5,2.1,1.1,4.1,1.4,6h0.1c0.4-1.9,1.1-3.9,1.7-6l3.1-9.6h2.9l2.9,9.4c0.7,2.3,1.2,4.3,1.7,6.2h0.1
			c0.3-1.9,0.8-3.9,1.4-6.1l2.7-9.5h3.4l-6.1,18.9h-3.1l-2.9-9c-0.7-2.1-1.2-4-1.7-6.2h-0.1c-0.5,2.3-1.1,4.2-1.7,6.2l-3,9h-3.1
			l-5.7-18.9L231.4,810.7L231.4,810.7z"/>
		<path d="M271.1,805.2v5.4h4.9v2.6h-4.9v10.2c0,2.3,0.7,3.7,2.6,3.7c0.9,0,1.6-0.1,2-0.2l0.2,2.6c-0.7,0.3-1.7,0.5-3,0.5
			c-1.6,0-2.9-0.5-3.7-1.4c-1-1-1.3-2.7-1.3-4.9v-10.3H265v-2.6h2.9v-4.5L271.1,805.2z"/>
		<path d="M279.9,801.8h3.4v11.8h0.1c0.5-1,1.4-1.8,2.5-2.4c1-0.6,2.2-1,3.5-1c2.5,0,6.6,1.6,6.6,8.1v11.2h-3.4v-10.8
			c0-3-1.1-5.6-4.4-5.6c-2.2,0-4,1.6-4.6,3.4c-0.2,0.5-0.2,1-0.2,1.6v11.4H280v-27.7H279.9z"/>
		<path d="M303.5,820.7c0.1,4.6,3,6.6,6.5,6.6c2.5,0,3.9-0.4,5.2-1l0.6,2.5c-1.2,0.5-3.3,1.2-6.3,1.2c-5.8,0-9.3-3.8-9.3-9.5
			s3.4-10.2,8.9-10.2c6.2,0,7.8,5.4,7.8,8.9c0,0.7-0.1,1.2-0.1,1.6L303.5,820.7L303.5,820.7z M313.5,818.3c0-2.2-0.9-5.6-4.8-5.6
			c-3.5,0-5,3.2-5.3,5.6H313.5z"/>
		<path d="M321.1,815.8c0-2,0-3.5-0.2-5.1h3l0.2,3h0.1c1.1-1.8,2.8-3.5,5.9-3.5c2.6,0,4.5,1.6,5.3,3.8h0.1c0.6-1.1,1.3-1.9,2.1-2.5
			c1.1-0.9,2.4-1.3,4.2-1.3c2.5,0,6.2,1.6,6.2,8.2v11.1h-3.4v-10.7c0-3.6-1.3-5.8-4.1-5.8c-1.9,0-3.5,1.4-4.1,3.1
			c-0.2,0.5-0.3,1.1-0.3,1.7v11.7h-3.4v-11.3c0-3-1.3-5.2-3.9-5.2c-2.1,0-3.7,1.7-4.3,3.4c-0.2,0.5-0.3,1.1-0.3,1.7v11.4h-3.4v-13.7
			H321.1z"/>
		<path d="M366,805.2v5.4h4.9v2.6H366v10.2c0,2.3,0.7,3.7,2.6,3.7c0.9,0,1.6-0.1,2-0.2l0.2,2.6c-0.7,0.3-1.7,0.5-3,0.5
			c-1.6,0-2.9-0.5-3.7-1.4c-1-1-1.3-2.7-1.3-4.9v-10.3h-2.9v-2.6h2.9v-4.5L366,805.2z"/>
		<path d="M391.6,819.9c0,7-4.8,10-9.4,10c-5.1,0-9-3.7-9-9.7c0-6.3,4.1-10,9.4-10C388,810.2,391.6,814.2,391.6,819.9z M376.7,820.1
			c0,4.1,2.4,7.3,5.7,7.3c3.3,0,5.7-3.1,5.7-7.3c0-3.2-1.6-7.3-5.7-7.3C378.4,812.8,376.7,816.6,376.7,820.1z"/>
		<path d="M408.4,805.2v5.4h4.9v2.6h-4.9v10.2c0,2.3,0.7,3.7,2.6,3.7c0.9,0,1.6-0.1,2-0.2l0.2,2.6c-0.7,0.3-1.7,0.5-3,0.5
			c-1.6,0-2.9-0.5-3.7-1.4c-1-1-1.3-2.7-1.3-4.9v-10.3h-2.9v-2.6h2.9v-4.5L408.4,805.2z"/>
		<path d="M417.1,816.6c0-2.2,0-4.1-0.2-5.9h3l0.1,3.7h0.2c0.9-2.5,2.9-4.1,5.2-4.1c0.4,0,0.7,0,1,0.1v3.2c-0.4-0.1-0.7-0.1-1.2-0.1
			c-2.4,0-4.1,1.8-4.6,4.4c-0.1,0.5-0.2,1-0.2,1.6v10.1H417v-13H417.1z"/>
		<path d="M440.1,829.5l-0.3-2.4h-0.1c-1.1,1.5-3.1,2.8-5.8,2.8c-3.8,0-5.8-2.7-5.8-5.4c0-4.6,4.1-7.1,11.3-7v-0.4
			c0-1.6-0.4-4.4-4.3-4.4c-1.8,0-3.6,0.5-4.9,1.4l-0.8-2.3c1.6-1,3.8-1.7,6.2-1.7c5.8,0,7.2,3.9,7.2,7.7v7.1c0,1.6,0.1,3.2,0.3,4.5
			h-3V829.5z M439.6,819.9c-3.7-0.1-8,0.6-8,4.3c0,2.2,1.5,3.3,3.2,3.3c2.5,0,4-1.6,4.6-3.2c0.1-0.4,0.2-0.7,0.2-1.1L439.6,819.9
			L439.6,819.9z"/>
		<path d="M448.5,815.8c0-2,0-3.5-0.2-5.1h3l0.2,3.1h0.1c0.9-1.8,3.1-3.5,6.2-3.5c2.6,0,6.7,1.6,6.7,8v11.3h-3.4v-10.9
			c0-3-1.1-5.6-4.4-5.6c-2.3,0-4,1.6-4.6,3.5c-0.2,0.4-0.2,1-0.2,1.6v11.3h-3.4L448.5,815.8L448.5,815.8z"/>
		<path d="M469.7,826c1,0.7,2.8,1.4,4.5,1.4c2.5,0,3.7-1.2,3.7-2.8s-1-2.5-3.5-3.5c-3.4-1.2-5-3.1-5-5.3c0-3,2.5-5.5,6.5-5.5
			c1.9,0,3.6,0.5,4.6,1.2l-0.9,2.5c-0.7-0.5-2.1-1.1-3.9-1.1c-2,0-3.2,1.2-3.2,2.6c0,1.6,1.1,2.3,3.6,3.2c3.3,1.2,5,2.9,5,5.7
			c0,3.3-2.6,5.7-7.1,5.7c-2.1,0-4-0.5-5.3-1.3L469.7,826z"/>
		<path d="M485.6,815.8c0-2,0-3.5-0.2-5.1h3l0.2,3h0.1c1.1-1.8,2.8-3.5,5.9-3.5c2.6,0,4.5,1.6,5.3,3.8h0.1c0.6-1.1,1.3-1.9,2.1-2.5
			c1.1-0.9,2.4-1.3,4.2-1.3c2.5,0,6.2,1.6,6.2,8.2v11.1h-3.4v-10.7c0-3.6-1.3-5.8-4.1-5.8c-1.9,0-3.5,1.4-4.1,3.1
			c-0.2,0.5-0.3,1.1-0.3,1.7v11.7h-3.4v-11.3c0-3-1.3-5.2-3.9-5.2c-2.1,0-3.7,1.7-4.3,3.4c-0.2,0.5-0.3,1.1-0.3,1.7v11.4h-3.4v-13.7
			H485.6z"/>
		<path d="M521.9,805.4c0,1.2-0.8,2.1-2.2,2.1c-1.2,0-2.1-0.9-2.1-2.1c0-1.2,0.9-2.1,2.1-2.1C521.1,803.2,521.9,804.1,521.9,805.4z
			 M518.1,829.5v-18.9h3.4v18.9H518.1z"/>
		<path d="M531.4,805.2v5.4h4.9v2.6h-4.9v10.2c0,2.3,0.7,3.7,2.6,3.7c0.9,0,1.6-0.1,2-0.2l0.2,2.6c-0.7,0.3-1.7,0.5-3,0.5
			c-1.6,0-2.9-0.5-3.7-1.4c-1-1-1.3-2.7-1.3-4.9v-10.3h-2.9v-2.6h2.9v-4.5L531.4,805.2z"/>
		<path d="M564.7,801.8v22.8c0,1.7,0,3.6,0.2,4.9h-3.1l-0.2-3.3h-0.1c-1.1,2.1-3.4,3.7-6.4,3.7c-4.6,0-8.1-3.9-8.1-9.6
			c0-6.3,3.9-10.1,8.5-10.1c2.9,0,4.8,1.4,5.7,2.9h0.1v-11.3L564.7,801.8L564.7,801.8z M561.3,818.3c0-0.4,0-1-0.2-1.4
			c-0.5-2.2-2.4-4-5-4c-3.5,0-5.7,3.1-5.7,7.3c0,3.8,1.9,7,5.6,7c2.3,0,4.4-1.5,5-4.1c0.1-0.5,0.2-0.9,0.2-1.5v-3.3H561.3z"/>
		<path d="M580.9,829.5l-0.3-2.4h-0.1c-1.1,1.5-3.1,2.8-5.8,2.8c-3.8,0-5.8-2.7-5.8-5.4c0-4.6,4.1-7.1,11.3-7v-0.4
			c0-1.6-0.4-4.4-4.3-4.4c-1.8,0-3.6,0.5-4.9,1.4l-0.8-2.3c1.6-1,3.8-1.7,6.2-1.7c5.8,0,7.2,3.9,7.2,7.7v7.1c0,1.6,0.1,3.2,0.3,4.5
			h-3V829.5z M580.4,819.9c-3.7-0.1-8,0.6-8,4.3c0,2.2,1.5,3.3,3.2,3.3c2.5,0,4-1.6,4.6-3.2c0.1-0.4,0.2-0.7,0.2-1.1V819.9z"/>
		<path d="M593.2,805.2v5.4h4.9v2.6h-4.9v10.2c0,2.3,0.7,3.7,2.6,3.7c0.9,0,1.6-0.1,2-0.2l0.2,2.6c-0.7,0.3-1.7,0.5-3,0.5
			c-1.6,0-2.9-0.5-3.7-1.4c-1-1-1.3-2.7-1.3-4.9v-10.3h-2.9v-2.6h2.9v-4.5L593.2,805.2z"/>
		<path d="M612.4,829.5l-0.3-2.4H612c-1.1,1.5-3.1,2.8-5.8,2.8c-3.8,0-5.8-2.7-5.8-5.4c0-4.6,4.1-7.1,11.3-7v-0.4
			c0-1.6-0.4-4.4-4.3-4.4c-1.8,0-3.6,0.5-4.9,1.4l-0.8-2.3c1.6-1,3.8-1.7,6.2-1.7c5.8,0,7.2,3.9,7.2,7.7v7.1c0,1.6,0.1,3.2,0.3,4.5
			h-3V829.5z M611.9,819.9c-3.7-0.1-8,0.6-8,4.3c0,2.2,1.5,3.3,3.2,3.3c2.5,0,4-1.6,4.6-3.2c0.1-0.4,0.2-0.7,0.2-1.1V819.9z"/>
		<path d="M633.2,805.2v5.4h4.9v2.6h-4.9v10.2c0,2.3,0.7,3.7,2.6,3.7c0.9,0,1.6-0.1,2-0.2l0.2,2.6c-0.7,0.3-1.7,0.5-3,0.5
			c-1.6,0-2.9-0.5-3.7-1.4c-1-1-1.3-2.7-1.3-4.9v-10.3h-2.9v-2.6h2.9v-4.5L633.2,805.2z"/>
		<path d="M658.8,819.9c0,7-4.8,10-9.4,10c-5.1,0-9-3.7-9-9.7c0-6.3,4.1-10,9.4-10C655.1,810.2,658.8,814.2,658.8,819.9z
			 M643.8,820.1c0,4.1,2.4,7.3,5.7,7.3s5.7-3.1,5.7-7.3c0-3.2-1.6-7.3-5.7-7.3C645.6,812.8,643.8,816.6,643.8,820.1z"/>
		<path d="M688.5,819.9c0,7-4.8,10-9.4,10c-5.1,0-9-3.7-9-9.7c0-6.3,4.1-10,9.4-10C684.8,810.2,688.5,814.2,688.5,819.9z
			 M673.5,820.1c0,4.1,2.4,7.3,5.7,7.3s5.7-3.1,5.7-7.3c0-3.2-1.6-7.3-5.7-7.3C675.2,812.8,673.5,816.6,673.5,820.1z"/>
		<path d="M708.6,824.4c0,2,0,3.7,0.2,5.1h-3l-0.2-3.1h-0.1c-0.9,1.5-2.9,3.5-6.2,3.5c-3,0-6.5-1.6-6.5-8.3v-11h3.4v10.5
			c0,3.6,1.1,6,4.2,6c2.3,0,3.9-1.6,4.5-3.1c0.2-0.5,0.3-1.1,0.3-1.8v-11.6h3.4L708.6,824.4L708.6,824.4z"/>
		<path d="M714.3,816.6c0-2.2,0-4.1-0.2-5.9h3l0.1,3.7h0.2c0.9-2.5,2.9-4.1,5.2-4.1c0.4,0,0.7,0,1,0.1v3.2c-0.4-0.1-0.7-0.1-1.2-0.1
			c-2.4,0-4.1,1.8-4.6,4.4c-0.1,0.5-0.2,1-0.2,1.6v10.1h-3.4v-13H714.3z"/>
		<path d="M735.3,816.8c0-2.4-0.1-4.4-0.2-6.2h3.1l0.2,3.2h0.1c1.4-2.3,3.6-3.7,6.7-3.7c4.6,0,8,3.9,8,9.6c0,6.8-4.1,10.1-8.6,10.1
			c-2.5,0-4.7-1.1-5.8-3h-0.1v10.3h-3.4V816.8z M738.7,821.9c0,0.5,0.1,1,0.2,1.4c0.6,2.4,2.7,4,5.1,4c3.6,0,5.7-3,5.7-7.3
			c0-3.8-2-7-5.6-7c-2.3,0-4.5,1.7-5.2,4.3c-0.1,0.4-0.2,0.9-0.2,1.4V821.9z"/>
		<path d="M757.5,801.8h3.4v27.7h-3.4V801.8z"/>
		<path d="M777.1,829.5l-0.3-2.4h-0.1c-1.1,1.5-3.1,2.8-5.8,2.8c-3.8,0-5.8-2.7-5.8-5.4c0-4.6,4.1-7.1,11.3-7v-0.4
			c0-1.6-0.4-4.4-4.3-4.4c-1.8,0-3.6,0.5-4.9,1.4l-0.8-2.3c1.6-1,3.8-1.7,6.2-1.7c5.8,0,7.2,3.9,7.2,7.7v7.1c0,1.6,0.1,3.2,0.3,4.5
			h-3V829.5z M776.6,819.9c-3.7-0.1-8,0.6-8,4.3c0,2.2,1.5,3.3,3.2,3.3c2.5,0,4-1.6,4.6-3.2c0.1-0.4,0.2-0.7,0.2-1.1V819.9z"/>
		<path d="M789.5,805.2v5.4h4.9v2.6h-4.9v10.2c0,2.3,0.7,3.7,2.6,3.7c0.9,0,1.6-0.1,2-0.2l0.2,2.6c-0.7,0.3-1.7,0.5-3,0.5
			c-1.6,0-2.9-0.5-3.7-1.4c-1-1-1.3-2.7-1.3-4.9v-10.3h-2.9v-2.6h2.9v-4.5L789.5,805.2z"/>
		<path d="M798.6,829.5v-16.3h-2.7v-2.6h2.7v-0.9c0-2.7,0.6-5.1,2.2-6.6c1.3-1.2,3-1.8,4.6-1.8c1.2,0,2.3,0.3,2.9,0.5l-0.5,2.7
			c-0.5-0.2-1.2-0.4-2.2-0.4c-2.9,0-3.7,2.6-3.7,5.5v1h4.6v2.6H802v16.3H798.6z"/>
		<path d="M826.2,819.9c0,7-4.8,10-9.4,10c-5.1,0-9-3.7-9-9.7c0-6.3,4.1-10,9.4-10C822.5,810.2,826.2,814.2,826.2,819.9z
			 M811.2,820.1c0,4.1,2.4,7.3,5.7,7.3s5.7-3.1,5.7-7.3c0-3.2-1.6-7.3-5.7-7.3C813,812.8,811.2,816.6,811.2,820.1z"/>
		<path d="M830.5,816.6c0-2.2,0-4.1-0.2-5.9h3l0.1,3.7h0.2c0.9-2.5,2.9-4.1,5.2-4.1c0.4,0,0.7,0,1,0.1v3.2c-0.4-0.1-0.7-0.1-1.2-0.1
			c-2.4,0-4.1,1.8-4.6,4.4c-0.1,0.5-0.2,1-0.2,1.6v10.1h-3.4v-13H830.5z"/>
		<path d="M843.4,815.8c0-2,0-3.5-0.2-5.1h3l0.2,3h0.1c1.1-1.8,2.8-3.5,5.9-3.5c2.6,0,4.5,1.6,5.3,3.8h0.1c0.6-1.1,1.3-1.9,2.1-2.5
			c1.1-0.9,2.4-1.3,4.2-1.3c2.5,0,6.2,1.6,6.2,8.2v11.1H867v-10.7c0-3.6-1.3-5.8-4.1-5.8c-1.9,0-3.5,1.4-4.1,3.1
			c-0.2,0.5-0.3,1.1-0.3,1.7v11.7h-3.4v-11.3c0-3-1.3-5.2-3.9-5.2c-2.1,0-3.7,1.7-4.3,3.4c-0.2,0.5-0.3,1.1-0.3,1.7v11.4h-3.4v-13.7
			H843.4z"/>
		<path d="M330.9,876.3V860h-2.7v-2.6h2.7v-0.9c0-2.7,0.6-5.1,2.2-6.6c1.3-1.2,3-1.8,4.6-1.8c1.2,0,2.3,0.3,2.9,0.5l-0.5,2.7
			c-0.5-0.2-1.2-0.4-2.2-0.4c-2.9,0-3.7,2.6-3.7,5.5v1h4.6v2.6h-4.6v16.3H330.9z"/>
		<path d="M358.5,866.7c0,7-4.8,10-9.4,10c-5.1,0-9-3.7-9-9.7c0-6.3,4.1-10,9.4-10C354.9,857,358.5,861,358.5,866.7z M343.5,866.9
			c0,4.1,2.4,7.3,5.7,7.3c3.3,0,5.7-3.1,5.7-7.3c0-3.2-1.6-7.3-5.7-7.3C345.3,859.6,343.5,863.4,343.5,866.9z"/>
		<path d="M362.9,863.4c0-2.2,0-4.1-0.2-5.9h3l0.1,3.7h0.2c0.9-2.5,2.9-4.1,5.2-4.1c0.4,0,0.7,0,1,0.1v3.2c-0.4-0.1-0.7-0.1-1.2-0.1
			c-2.4,0-4.1,1.8-4.6,4.4c-0.1,0.5-0.2,1-0.2,1.6v10.1h-3.4v-13H362.9z"/>
		<path d="M385.8,867.5c0.1,4.6,3,6.6,6.5,6.6c2.5,0,3.9-0.4,5.2-1l0.6,2.5c-1.2,0.5-3.3,1.2-6.3,1.2c-5.8,0-9.3-3.8-9.3-9.5
			s3.4-10.2,8.9-10.2c6.2,0,7.8,5.4,7.8,8.9c0,0.7-0.1,1.2-0.1,1.6L385.8,867.5L385.8,867.5z M395.8,865.1c0-2.2-0.9-5.6-4.8-5.6
			c-3.5,0-5,3.2-5.3,5.6H395.8z"/>
		<path d="M413.9,876.3l-0.3-2.4h-0.1c-1.1,1.5-3.1,2.8-5.8,2.8c-3.8,0-5.8-2.7-5.8-5.4c0-4.6,4.1-7.1,11.3-7v-0.4
			c0-1.6-0.4-4.4-4.3-4.4c-1.8,0-3.6,0.5-4.9,1.4l-0.8-2.3c1.6-1,3.8-1.7,6.2-1.7c5.8,0,7.2,3.9,7.2,7.7v7.1c0,1.6,0.1,3.2,0.3,4.5
			h-3V876.3z M413.4,866.7c-3.7-0.1-8,0.6-8,4.3c0,2.2,1.5,3.3,3.2,3.3c2.5,0,4-1.6,4.6-3.2c0.1-0.4,0.2-0.7,0.2-1.1L413.4,866.7
			L413.4,866.7z"/>
		<path d="M421.7,872.8c1,0.7,2.8,1.4,4.5,1.4c2.5,0,3.7-1.2,3.7-2.8s-1-2.5-3.5-3.5c-3.4-1.2-5-3.1-5-5.3c0-3,2.5-5.5,6.5-5.5
			c1.9,0,3.6,0.5,4.6,1.2l-0.9,2.5c-0.7-0.5-2.1-1.1-3.9-1.1c-2,0-3.2,1.2-3.2,2.6c0,1.6,1.1,2.3,3.6,3.2c3.3,1.2,5,2.9,5,5.7
			c0,3.3-2.6,5.7-7.1,5.7c-2.1,0-4-0.5-5.3-1.3L421.7,872.8z"/>
		<path d="M438.9,857.5l4.1,11.2c0.4,1.2,0.9,2.7,1.2,3.9h0.1c0.4-1.1,0.7-2.6,1.2-3.9l3.7-11.1h3.6l-5.1,13.5
			c-2.5,6.5-4.1,9.8-6.5,11.8c-1.7,1.5-3.4,2.1-4.2,2.2l-0.9-2.9c0.9-0.3,2-0.8,3-1.7c0.9-0.7,2.1-2.1,2.9-3.8
			c0.2-0.4,0.3-0.6,0.3-0.8s-0.1-0.5-0.2-0.9l-7-17.4L438.9,857.5L438.9,857.5z"/>
		<path d="M465.6,857.5l3.7,10.6c0.6,1.7,1.1,3.3,1.5,4.8h0.1c0.4-1.6,1-3.1,1.6-4.8l3.7-10.6h3.6l-7.4,18.9h-3.3l-7.2-18.9H465.6z"
			/>
		<path d="M486.9,852.2c0,1.2-0.8,2.1-2.2,2.1c-1.2,0-2.1-0.9-2.1-2.1c0-1.2,0.9-2.1,2.1-2.1C486.1,850,486.9,850.9,486.9,852.2z
			 M483,876.3v-18.9h3.4v18.9H483z"/>
		<path d="M491.7,872.8c1,0.7,2.8,1.4,4.5,1.4c2.5,0,3.7-1.2,3.7-2.8s-1-2.5-3.5-3.5c-3.4-1.2-5-3.1-5-5.3c0-3,2.5-5.5,6.5-5.5
			c1.9,0,3.6,0.5,4.6,1.2l-0.9,2.5c-0.7-0.5-2.1-1.1-3.9-1.1c-2,0-3.2,1.2-3.2,2.6c0,1.6,1.1,2.3,3.6,3.2c3.3,1.2,5,2.9,5,5.7
			c0,3.3-2.6,5.7-7.1,5.7c-2.1,0-4-0.5-5.3-1.3L491.7,872.8z"/>
		<path d="M523.4,871.2c0,2,0,3.7,0.2,5.1h-3l-0.2-3.1h-0.1c-0.9,1.5-2.9,3.5-6.2,3.5c-3,0-6.5-1.6-6.5-8.3v-11h3.4v10.5
			c0,3.6,1.1,6,4.2,6c2.3,0,3.9-1.6,4.5-3.1c0.2-0.5,0.3-1.1,0.3-1.8v-11.6h3.4V871.2z"/>
		<path d="M539.6,876.3l-0.3-2.4h-0.1c-1.1,1.5-3.1,2.8-5.8,2.8c-3.8,0-5.8-2.7-5.8-5.4c0-4.6,4.1-7.1,11.3-7v-0.4
			c0-1.6-0.4-4.4-4.3-4.4c-1.8,0-3.6,0.5-4.9,1.4l-0.8-2.3c1.6-1,3.8-1.7,6.2-1.7c5.8,0,7.2,3.9,7.2,7.7v7.1c0,1.6,0.1,3.2,0.3,4.5
			h-3V876.3z M539.1,866.7c-3.7-0.1-8,0.6-8,4.3c0,2.2,1.5,3.3,3.2,3.3c2.5,0,4-1.6,4.6-3.2c0.1-0.4,0.2-0.7,0.2-1.1V866.7z"/>
		<path d="M547.9,848.6h3.4v27.7h-3.4V848.6z"/>
		<path d="M560.9,852.2c0,1.2-0.8,2.1-2.2,2.1c-1.2,0-2.1-0.9-2.1-2.1c0-1.2,0.9-2.1,2.1-2.1C560.1,850,560.9,850.9,560.9,852.2z
			 M557.1,876.3v-18.9h3.4v18.9H557.1z"/>
		<path d="M564.1,874.3l8.5-11.1c0.8-1,1.6-1.9,2.5-2.9v-0.1h-10.2v-2.8h14.4v2.1l-8.4,11c-0.8,1.1-1.6,2-2.4,3v0.1h11v2.7h-15.3
			L564.1,874.3L564.1,874.3z"/>
		<path d="M593.4,876.3l-0.3-2.4H593c-1.1,1.5-3.1,2.8-5.8,2.8c-3.8,0-5.8-2.7-5.8-5.4c0-4.6,4.1-7.1,11.3-7v-0.4
			c0-1.6-0.4-4.4-4.3-4.4c-1.8,0-3.6,0.5-4.9,1.4l-0.8-2.3c1.6-1,3.8-1.7,6.2-1.7c5.8,0,7.2,3.9,7.2,7.7v7.1c0,1.6,0.1,3.2,0.3,4.5
			h-3V876.3z M592.9,866.7c-3.7-0.1-8,0.6-8,4.3c0,2.2,1.5,3.3,3.2,3.3c2.5,0,4-1.6,4.6-3.2c0.1-0.4,0.2-0.7,0.2-1.1V866.7z"/>
		<path d="M605.7,852v5.4h4.9v2.6h-4.9v10.2c0,2.3,0.7,3.7,2.6,3.7c0.9,0,1.6-0.1,2-0.2l0.2,2.6c-0.7,0.3-1.7,0.5-3,0.5
			c-1.6,0-2.9-0.5-3.7-1.4c-1-1-1.3-2.7-1.3-4.9v-10.3h-2.9v-2.6h2.9v-4.5L605.7,852z"/>
		<path d="M618.3,852.2c0,1.2-0.8,2.1-2.2,2.1c-1.2,0-2.1-0.9-2.1-2.1c0-1.2,0.9-2.1,2.1-2.1C617.5,850,618.3,850.9,618.3,852.2z
			 M614.5,876.3v-18.9h3.4v18.9H614.5z"/>
		<path d="M640.7,866.7c0,7-4.8,10-9.4,10c-5.1,0-9-3.7-9-9.7c0-6.3,4.1-10,9.4-10C637,857,640.7,861,640.7,866.7z M625.7,866.9
			c0,4.1,2.4,7.3,5.7,7.3s5.7-3.1,5.7-7.3c0-3.2-1.6-7.3-5.7-7.3C627.5,859.6,625.7,863.4,625.7,866.9z"/>
		<path d="M645,862.6c0-2,0-3.5-0.2-5.1h3l0.2,3.1h0.1c0.9-1.8,3.1-3.5,6.2-3.5c2.6,0,6.7,1.6,6.7,8v11.3h-3.4v-10.9
			c0-3-1.1-5.6-4.4-5.6c-2.3,0-4,1.6-4.6,3.5c-0.2,0.4-0.2,1-0.2,1.6v11.3H645V862.6z"/>
		<path d="M665.8,874.3c0-1.4,1-2.5,2.3-2.5s2.3,1,2.3,2.5c0,1.4-0.9,2.5-2.3,2.5C666.8,876.8,665.8,875.7,665.8,874.3z"/>
	</g>
	<path class="st16" d="M1710,655.5h-474c-6.6,0-12-5.4-12-12v-107c0-6.6,5.4-12,12-12h474c6.6,0,12,5.4,12,12v106.9
		C1722,650.1,1716.6,655.5,1710,655.5z"/>
	<path class="st0" d="M1236,655.5c-6.6,0-12-5.4-12-12v-107c0-6.6,5.4-12,12-12l237,0.5v130L1236,655.5z"/>
	<g>
		<path d="M1333.9,585.1c0,13.9-8.5,21.3-18.8,21.3c-10.7,0-18.2-8.3-18.2-20.5c0-12.8,8-21.2,18.8-21.2
			C1326.7,564.7,1333.9,573.1,1333.9,585.1z M1302.5,585.8c0,8.6,4.7,16.4,12.9,16.4c8.3,0,13-7.6,13-16.8c0-8-4.2-16.4-12.9-16.4
			C1306.8,568.9,1302.5,576.9,1302.5,585.8z"/>
		<path d="M1365,597.8c0,3,0.1,5.6,0.2,7.9h-4.7l-0.3-4.7h-0.1c-1.4,2.3-4.4,5.4-9.6,5.4c-4.6,0-10-2.5-10-12.7v-17h5.3v16.1
			c0,5.5,1.7,9.2,6.5,9.2c3.5,0,6-2.5,7-4.8c0.3-0.8,0.5-1.7,0.5-2.7v-17.8h5.3v21.1H1365z"/>
		<path d="M1373.7,585.8c0-3.4-0.1-6.4-0.2-9.1h4.6l0.2,5.7h0.2c1.3-3.9,4.5-6.4,8-6.4c0.6,0,1,0.1,1.5,0.2v5
			c-0.5-0.1-1.1-0.2-1.8-0.2c-3.7,0-6.4,2.8-7.1,6.8c-0.1,0.7-0.2,1.6-0.2,2.5v15.5h-5.2V585.8z"/>
	</g>
	<g>
		<path d="M1508.9,576.7c-0.1,2.1-0.2,4.4-0.2,8v16.9c0,6.7-1.3,10.7-4.1,13.3c-2.8,2.6-6.9,3.5-10.6,3.5c-3.5,0-7.3-0.8-9.7-2.4
			l1.3-4c1.9,1.2,4.9,2.3,8.5,2.3c5.4,0,9.4-2.8,9.4-10.1V601h-0.1c-1.6,2.7-4.7,4.9-9.2,4.9c-7.2,0-12.4-6.1-12.4-14.2
			c0-9.8,6.4-15.4,13.1-15.4c5,0,7.8,2.6,9.1,5h0.1l0.2-4.4h4.6V576.7z M1503.4,588.2c0-0.9-0.1-1.7-0.3-2.4c-1-3.1-3.5-5.6-7.4-5.6
			c-5,0-8.6,4.3-8.6,11c0,5.7,2.9,10.4,8.6,10.4c3.2,0,6.2-2,7.3-5.4c0.3-0.9,0.4-1.9,0.4-2.8V588.2z"/>
		<path d="M1533.5,605.8l-0.4-3.7h-0.2c-1.6,2.3-4.7,4.3-8.9,4.3c-5.9,0-8.9-4.1-8.9-8.3c0-7,6.2-10.9,17.5-10.8v-0.6
			c0-2.4-0.7-6.7-6.6-6.7c-2.7,0-5.5,0.8-7.6,2.2l-1.2-3.5c2.4-1.6,5.9-2.6,9.5-2.6c8.9,0,11,6.1,11,11.9v10.9c0,2.5,0.1,5,0.5,7
			h-4.7V605.8z M1532.7,590.9c-5.8-0.1-12.3,0.9-12.3,6.5c0,3.4,2.3,5,5,5c3.8,0,6.2-2.4,7-4.9c0.2-0.5,0.3-1.1,0.3-1.7V590.9z"/>
		<path d="M1552.4,568.4v8.3h7.6v4h-7.6v15.7c0,3.6,1,5.6,4,5.6c1.4,0,2.4-0.2,3.1-0.4l0.2,4c-1,0.4-2.6,0.7-4.7,0.7
			c-2.5,0-4.4-0.8-5.7-2.2c-1.5-1.6-2-4.1-2-7.6v-15.8h-4.5v-4h4.5v-7L1552.4,568.4z"/>
		<path d="M1568.5,592.2c0.1,7.1,4.7,10.1,10,10.1c3.8,0,6.1-0.7,8-1.5l0.9,3.8c-1.9,0.8-5,1.8-9.7,1.8c-8.9,0-14.3-5.9-14.3-14.6
			s5.2-15.7,13.6-15.7c9.5,0,12,8.3,12,13.7c0,1.1-0.1,1.9-0.2,2.5L1568.5,592.2L1568.5,592.2z M1584,588.4c0.1-3.4-1.4-8.6-7.3-8.6
			c-5.3,0-7.7,4.9-8.1,8.6H1584z"/>
		<path d="M1597.7,576.7l3.8,14.8c0.8,3.2,1.6,6.2,2.2,9.2h0.2c0.7-2.9,1.6-6.1,2.6-9.2l4.7-14.8h4.4l4.5,14.5
			c1.1,3.5,1.9,6.5,2.6,9.5h0.2c0.5-2.9,1.3-6,2.2-9.4l4.1-14.6h5.2l-9.4,29h-4.8l-4.4-13.9c-1-3.2-1.9-6.1-2.6-9.5h-0.1
			c-0.7,3.5-1.6,6.5-2.6,9.6l-4.7,13.8h-4.8l-8.8-29L1597.7,576.7L1597.7,576.7z"/>
		<path d="M1655.6,605.8l-0.4-3.7h-0.2c-1.6,2.3-4.7,4.3-8.9,4.3c-5.9,0-8.9-4.1-8.9-8.3c0-7,6.2-10.9,17.5-10.8v-0.6
			c0-2.4-0.7-6.7-6.6-6.7c-2.7,0-5.5,0.8-7.6,2.2l-1.2-3.5c2.4-1.6,5.9-2.6,9.5-2.6c8.9,0,11,6.1,11,11.9v10.9c0,2.5,0.1,5,0.5,7
			h-4.7V605.8z M1654.8,590.9c-5.8-0.1-12.3,0.9-12.3,6.5c0,3.4,2.3,5,5,5c3.8,0,6.2-2.4,7-4.9c0.2-0.5,0.3-1.1,0.3-1.7V590.9z"/>
		<path d="M1669.9,576.7l6.4,17.2c0.7,1.9,1.4,4.2,1.9,5.9h0.1c0.5-1.7,1.1-4,1.9-6.1l5.8-17h5.6l-7.9,20.7
			c-3.8,10-6.4,15.1-10,18.2c-2.6,2.3-5.2,3.2-6.5,3.4l-1.3-4.4c1.3-0.4,3.1-1.3,4.6-2.6c1.4-1.1,3.2-3.2,4.4-5.9
			c0.2-0.5,0.4-1,0.4-1.3s-0.1-0.7-0.4-1.4l-10.7-26.8L1669.9,576.7L1669.9,576.7z"/>
		<path d="M1695.2,600.4c1.6,1,4.3,2.1,7,2.1c3.8,0,5.6-1.9,5.6-4.3c0-2.5-1.5-3.9-5.4-5.3c-5.2-1.9-7.7-4.7-7.7-8.2
			c0-4.7,3.8-8.5,10-8.5c2.9,0,5.5,0.8,7.1,1.8l-1.3,3.8c-1.1-0.7-3.2-1.7-5.9-1.7c-3.1,0-4.9,1.8-4.9,4c0,2.4,1.7,3.5,5.5,4.9
			c5,1.9,7.6,4.4,7.6,8.8c0,5.1-4,8.7-10.9,8.7c-3.2,0-6.1-0.8-8.2-2L1695.2,600.4z"/>
	</g>
	<g id="Show-more" class="st5">
		<g class="st17">
			<path class="st16" d="M996,1080.2v-22.6c0-4,3.2-7.3,7.2-7.3h143.6c4,0,7.2,3.3,7.2,7.3v22.6H996z"/>
			<path class="st15" d="M1076.2,1080.2l0.1-29.9h70.6c4,0,7.2,3.3,7.2,7.3v22.6H1076.2z"/>
		</g>
		<text transform="matrix(1 0 0 1 1013.9043 1074.79)" class="st17 st18 st19">Show more</text>
	</g>
	<g>
		<g id="Gateway_1_">
			<g id="Antena_9_">
				<path id="Antena" d="M1302.3,180.6c-0.5-0.8-11.9-12.2-11.9-12.2l-16.2-15.7l-6.8-6.2c0,0-0.2,0-0.4-0.2c-0.1-0.2,0-0.3,0-0.3
					l-4.1-4.1c0,0-0.3,0-0.5-0.2s0-0.3,0-0.3l-37.3-36.2l-10-8.8c0,0-10.4-8.7-14.3-11.5s-5.8-4.6-8.7-7.1
					C1189.3,75.3,1167,53,1167,53s-0.2,0.2-0.4,0c-0.2-0.2,0-0.4,0-0.4l-1.9-1.8c0,0-0.2,0.2-0.4,0c-0.2-0.2,0-0.4,0-0.4
					s-8.4-9-10.2-9.2c-1.8-0.2-2.8,0.5-3.5,1.3l138.2,137l-138.2-137c-0.8,0.7-1.5,1.7-1.3,3.5s9.2,10.2,9.2,10.2s0.2-0.2,0.4,0
					c0.2,0.2,0,0.4,0,0.4l1.8,1.9c0,0,0.2-0.2,0.4,0c0.2,0.2,0,0.4,0,0.4s22.3,22.3,24.8,25.1s4.2,4.7,7.1,8.7
					c2.8,4,11.5,14.4,11.5,14.4l8.7,9.2l36.3,36.1c0,0,0.1-0.2,0.3,0c0.2,0.2,0.2,0.5,0.2,0.5l4.1,4.1c0,0,0.2-0.1,0.3,0
					s0.2,0.4,0.2,0.4l22.1,22.3c1.5,0.8,2.6,0.5,2.6,0.5l4.5,4.7l0.1,5.5h-1.3c-1.3,0.6-1,1.4-1,1.4v12.6c6,1,10.6,0.9,13.5,0.6
					c2.5-0.2,3.9-0.6,3.9-0.6l-0.1-0.3h0.1l-0.3-13c0,0-0.3-0.9-0.8-1s-1.6,0-1.6,0v-2c0,0,1.7-1.2,3.2-2.7
					C1301,183.7,1302.8,181.4,1302.3,180.6z"/>
				
					<radialGradient id="SVGID_7_" cx="1291.9296" cy="902.5598" r="3.6432" gradientTransform="matrix(1 0 0 -1 0 1080)" gradientUnits="userSpaceOnUse">
					<stop  offset="0" style="stop-color:#FCFCFC"/>
					<stop  offset="1" style="stop-color:#FCFCFC;stop-opacity:0"/>
				</radialGradient>
				<circle class="st20" cx="1291.4" cy="181.8" r="2.1"/>
				
					<linearGradient id="SVGID_8_" gradientUnits="userSpaceOnUse" x1="1227.0793" y1="968.4794" x2="1224.3245" y2="965.7245" gradientTransform="matrix(1 0 0 -1 0 1080)">
					<stop  offset="0" style="stop-color:#FCFCFC;stop-opacity:0"/>
					<stop  offset="0.5297" style="stop-color:#FCFCFC;stop-opacity:0.1"/>
					<stop  offset="1" style="stop-color:#FCFCFC;stop-opacity:0"/>
				</linearGradient>
				<polygon class="st21" points="1151.2,42 1150.5,43 1296.7,187.3 1301.7,182 				"/>
				
					<linearGradient id="SVGID_9_" gradientUnits="userSpaceOnUse" x1="1289.7039" y1="889.1376" x2="1294.428" y2="889.4811" gradientTransform="matrix(1 0 0 -1 0 1080)">
					<stop  offset="0" style="stop-color:#FCFCFC;stop-opacity:0"/>
					<stop  offset="0.5243" style="stop-color:#FCFCFC;stop-opacity:0.1"/>
					<stop  offset="1" style="stop-color:#FCFCFC;stop-opacity:0"/>
				</linearGradient>
				<polygon class="st22" points="1288.4,178 1297.1,186.9 1294.1,203.5 1288.5,203.5 				"/>
			</g>
			<g id="Gateway">
				<path class="st23" d="M1319.7,250h72.9l2-1.7V244l6-7.7V220l-6-5.5v-5l-1.3-1.2c0,0-0.9-1.3-3.2-2.9c-2.2-1.6-6.7-2.5-6.7-2.5
					h-63.5h-0.1h-71.6c0,0-4.5,0.9-6.7,2.5s-3.2,2.9-3.2,2.9l-1.3,1.2v5l-6,5.5v16.3l6,7.7v4.2l2,1.7h80.1h0.6V250z"/>
			</g>
			<g id="Gateway_2_">
				<path class="st24" d="M1319.8,250.7h72.9l2-1.6v-4v-28.3V212l-1.3-1.1c0,0-0.9-1.3-3.2-2.8c-2.2-1.5-6.7-2.4-6.7-2.4H1320h-0.1
					h-71.6c0,0-4.5,0.9-6.7,2.4s-3.2,2.8-3.2,2.8l-1.3,1.1v4.8V245v4l2,1.6h80.1L1319.8,250.7L1319.8,250.7z"/>
			</g>
			<g id="iner">
				<polygon class="st23" points="1247.2,221.7 1240.4,213.9 1240.3,245.3 1389.7,245.3 1389.7,213.9 1384.2,221.5 1384,238.2 
					1247.2,239.2 				"/>
				<polygon class="st25" points="1389.7,213.9 1384,221.7 1384,238.2 1247.2,239.2 1247.2,221.7 1240.3,213.9 1240.3,245.3 
					1247.2,239.2 1384,238.2 1389.7,245.3 				"/>
				<rect x="1240.3" y="213.9" class="st26" width="149.4" height="31.4"/>
				<line class="st27" x1="1384" y1="221.7" x2="1247.2" y2="221.7"/>
				<g id="Leds">
					<g>
						<circle class="st28" cx="1259.5" cy="230.1" r="3.9"/>
						
							<radialGradient id="SVGID_10_" cx="1259.5471" cy="849.9" r="13.911" gradientTransform="matrix(1 0 0 -1 0 1080)" gradientUnits="userSpaceOnUse">
							<stop  offset="0" style="stop-color:#1D91BF"/>
							<stop  offset="0.6012" style="stop-color:#1D91BF;stop-opacity:9.945840e-02"/>
							<stop  offset="0.6676" style="stop-color:#1D91BF;stop-opacity:0"/>
						</radialGradient>
						<path class="st29" d="M1259.5,226.2c2.2,0,3.9,1.7,3.9,3.9s-1.7,3.9-3.9,3.9s-3.9-1.7-3.9-3.9S1257.4,226.2,1259.5,226.2
							 M1259.5,216.2c-7.7,0-13.9,6.2-13.9,13.9s6.2,13.9,13.9,13.9c7.7,0,13.9-6.2,13.9-13.9S1267.2,216.2,1259.5,216.2
							L1259.5,216.2z"/>
					</g>
					<g>
						<circle class="st28" cx="1280.6" cy="230.1" r="3.9"/>
						
							<radialGradient id="SVGID_11_" cx="1280.6305" cy="849.9" r="13.911" gradientTransform="matrix(1 0 0 -1 0 1080)" gradientUnits="userSpaceOnUse">
							<stop  offset="0" style="stop-color:#1D91BF"/>
							<stop  offset="0.6012" style="stop-color:#1D91BF;stop-opacity:9.945840e-02"/>
							<stop  offset="0.6676" style="stop-color:#1D91BF;stop-opacity:0"/>
						</radialGradient>
						<path class="st30" d="M1280.6,226.2c2.2,0,3.9,1.7,3.9,3.9s-1.7,3.9-3.9,3.9s-3.9-1.7-3.9-3.9S1278.5,226.2,1280.6,226.2
							 M1280.6,216.2c-7.7,0-13.9,6.2-13.9,13.9s6.2,13.9,13.9,13.9s13.9-6.2,13.9-13.9S1288.3,216.2,1280.6,216.2L1280.6,216.2z"/>
					</g>
					<g>
						<circle class="st31" cx="1301.7" cy="230.1" r="3.9"/>
						
							<radialGradient id="SVGID_12_" cx="1301.7" cy="849.9" r="13.918" gradientTransform="matrix(1 0 0 -1 0 1080)" gradientUnits="userSpaceOnUse">
							<stop  offset="0" style="stop-color:#1D91BF"/>
							<stop  offset="0.6012" style="stop-color:#1D91BF;stop-opacity:9.945840e-02"/>
							<stop  offset="0.6676" style="stop-color:#1D91BF;stop-opacity:0"/>
						</radialGradient>
						<path class="st32" d="M1301.7,226.2c2.2,0,3.9,1.7,3.9,3.9s-1.7,3.9-3.9,3.9s-3.9-1.7-3.9-3.9
							C1297.8,227.9,1299.6,226.2,1301.7,226.2 M1301.7,216.2c-7.7,0-13.9,6.2-13.9,13.9s6.2,13.9,13.9,13.9s13.9-6.2,13.9-13.9
							S1309.4,216.2,1301.7,216.2L1301.7,216.2z"/>
					</g>
					<g>
						<circle class="st31" cx="1322.8" cy="230.1" r="3.9"/>
						
							<radialGradient id="SVGID_13_" cx="1322.8" cy="849.9" r="13.9" gradientTransform="matrix(1 0 0 -1 0 1080)" gradientUnits="userSpaceOnUse">
							<stop  offset="0" style="stop-color:#1D91BF"/>
							<stop  offset="0.6012" style="stop-color:#1D91BF;stop-opacity:9.945840e-02"/>
							<stop  offset="0.6676" style="stop-color:#1D91BF;stop-opacity:0"/>
						</radialGradient>
						<path class="st33" d="M1322.8,226.2c2.2,0,3.9,1.7,3.9,3.9s-1.7,3.9-3.9,3.9c-2.2,0-3.9-1.7-3.9-3.9
							S1320.6,226.2,1322.8,226.2 M1322.8,216.2c-7.7,0-13.9,6.2-13.9,13.9s6.2,13.9,13.9,13.9c7.7,0,13.9-6.2,13.9-13.9
							C1336.7,222.4,1330.5,216.2,1322.8,216.2L1322.8,216.2z"/>
					</g>
				</g>
				<g class="st34">
					<g class="st35">
						<path class="st16" d="M1258.1,227.6c0,0,0.8-0.2,1.2,0v1h-0.9L1258.1,227.6z"/>
						<path class="st16" d="M1259.1,229.3l-0.2-1c0,0,0.8-0.2,1.2,0"/>
					</g>
					<g class="st35">
						<path class="st16" d="M1280,228.1c0,0,0.2,0.1,0.4,0.2l0.3,0.4h-0.7L1280,228.1L1280,228.1z"/>
						<path class="st16" d="M1280.5,229.3l-0.1-0.6c0,0,0.5-0.1,0.7,0"/>
					</g>
					<g class="st35">
						<path class="st16" d="M1322.6,227.7c0,0-0.8-0.2-1.1-0.1l0.4,0.7l0.6,0.3L1322.6,227.7z"/>
						<path class="st16" d="M1322.7,229.2l0.2-0.9c0,0-0.8-0.1-1.1,0"/>
					</g>
					<g class="st35">
						<path class="st16" d="M1301.3,227.9c0,0-0.5-0.1-0.7,0v0.5h0.5L1301.3,227.9z"/>
						<path class="st16" d="M1301.4,228.9l0.1-0.5c0,0-0.5-0.1-0.7,0"/>
					</g>
				</g>
			</g>
			<path class="st36" d="M1380.7,233.3L1380.7,233.3c-0.2,0-0.2-0.1-0.2-0.2v-1.5l-0.8,0.6c-0.1,0.1-0.2,0.1-0.3,0
				c-0.1-0.1-0.1-0.2,0-0.3l1.1-0.9v-0.1l-1.1-0.9c-0.1-0.1-0.1-0.2,0-0.3s0.2-0.1,0.3,0l0.8,0.7v-1.6c0-0.1,0.1-0.2,0.1-0.2
				c0.1,0,0.2,0,0.2,0l1.5,1.2c0.1,0,0.1,0.1,0.1,0.2c0,0.1,0,0.1-0.1,0.2l-1.1,0.9l1.1,0.9c0.1,0,0.1,0.1,0.1,0.2
				c0,0.1,0,0.1-0.1,0.2l-1.5,1.1C1380.8,233.3,1380.8,233.3,1380.7,233.3z M1381,231.2v1.4l0.9-0.6L1381,231.2z M1381,229.1v1.5
				l0.9-0.7L1381,229.1z"/>
			<path d="M1380.8,233.3L1380.8,233.3c-0.2,0-0.2-0.1-0.2-0.2v-1.5l-0.8,0.6c-0.1,0.1-0.2,0.1-0.3,0c-0.1-0.1-0.1-0.2,0-0.3
				l1.1-0.9v-0.1l-1.1-0.9c-0.1-0.1-0.1-0.2,0-0.3s0.2-0.1,0.3,0l0.8,0.7v-1.6c0-0.1,0.1-0.2,0.1-0.2c0.1,0,0.2,0,0.2,0l1.5,1.2
				c0.1,0,0.1,0.1,0.1,0.2c0,0.1,0,0.1-0.1,0.2l-1.1,0.9l1.1,0.9c0.1,0,0.1,0.1,0.1,0.2c0,0.1,0,0.1-0.1,0.2l-1.5,1.1
				C1380.9,233.3,1380.9,233.3,1380.8,233.3z M1381,231.2v1.4l0.9-0.6L1381,231.2z M1381,229.1v1.5l0.9-0.7L1381,229.1z"/>
			<g id="LoRa-Full_1_">
				<g id="semnale_1_">
					<g>
						<path class="st36" d="M1368.5,226.8c0,0-1-0.8-2.7-0.8c-1.6,0-2.5,0.8-2.5,0.8l-0.4-0.5c0,0,1.1-0.9,2.9-0.9s3.1,0.9,3.1,0.9
							L1368.5,226.8z"/>
						<path class="st36" d="M1367.9,227.7c0,0-0.8-0.6-2-0.6s-1.9,0.6-1.9,0.6l-0.3-0.4c0,0,0.8-0.7,2.2-0.7s2.3,0.7,2.3,0.7
							L1367.9,227.7z"/>
						<path class="st36" d="M1367.3,228.5c0,0-0.5-0.4-1.4-0.4c-1,0-1.4,0.4-1.4,0.4l-0.3-0.3c0,0,0.5-0.5,1.6-0.5s1.7,0.5,1.7,0.5
							L1367.3,228.5z"/>
					</g>
					<g>
						<path class="st36" d="M1363.3,234.8c0,0,1,0.8,2.7,0.8c1.6,0,2.5-0.8,2.5-0.8l0.4,0.5c0,0-1.1,0.9-2.9,0.9s-3.1-0.9-3.1-0.9
							L1363.3,234.8z"/>
						<path class="st36" d="M1363.9,234c0,0,0.8,0.6,2,0.6s1.9-0.6,1.9-0.6l0.3,0.4c0,0-0.8,0.7-2.2,0.7s-2.3-0.7-2.3-0.7
							L1363.9,234z"/>
						<path class="st36" d="M1364.5,233.2c0,0,0.5,0.4,1.4,0.4c1,0,1.4-0.4,1.4-0.4l0.3,0.3c0,0-0.5,0.5-1.6,0.5s-1.7-0.5-1.7-0.5
							L1364.5,233.2z"/>
					</g>
				</g>
				<g id="LoRa_1_">
					<path d="M1360.4,227.7h1.2v3.9h2v1h-3.2V227.7z"/>
					<path d="M1367.9,230.8c0,1.3-0.9,2-2,2s-2-0.8-2-1.9c0-1.2,0.8-1.9,2-1.9C1367.1,228.9,1367.9,229.7,1367.9,230.8z M1365,230.8
						c0,0.7,0.3,1.1,0.9,1.1s0.9-0.3,0.9-1.1c0-0.6-0.2-1.1-0.9-1.1S1365,230.2,1365,230.8z"/>
					<path d="M1368.6,227.7c0,0,2.3-0.1,2.9,0c0.8,0,1.3,0.7,1.3,1.5c0,1.1-0.6,1.3-1,1.5l0,0c0.3,0.4,1,1.7,1.1,2h-1.4
						c-0.1-0.1-1-1.8-1-1.8h-0.8v1.8h-1.2L1368.6,227.7L1368.6,227.7z M1369.8,230c1.2,0,1.8,0.1,1.8-0.7s-0.6-0.7-1.8-0.7V230z"/>
					<path d="M1375.8,232.7v-0.4l0,0c-0.2,0.3-0.5,0.5-1.2,0.5c-0.8,0-1.2-0.6-1.2-1.1c0-0.9,0.8-1.3,2.3-1.4c0,0,0.2-0.8-0.6-0.7
						c-0.5,0-0.5,0.5-0.5,0.5h-1c0,0-0.1-1.2,1.6-1.2c1.7,0.1,1.5,0.7,1.6,1.6v1.3c0,0.4,0,0.7,0.1,0.9L1375.8,232.7L1375.8,232.7z
						 M1375.6,230.9c-0.7,0.2-1.2,0.2-1.2,0.7c0,0.3,0.2,0.5,0.5,0.5c0.4,0,0.6-0.2,0.7-0.5C1375.6,231.5,1375.6,230.9,1375.6,230.9
						z"/>
				</g>
				<g id="TM_1_">
					<path d="M1376.9,228.9h-0.2v-0.1h0.5v0.1H1376.9l0.1,0.6h-0.1V228.9z"/>
					<path d="M1377.8,229.2c0-0.1,0-0.2,0-0.3l0,0C1377.7,229,1377.7,229.1,1377.8,229.2l-0.2,0.3h-0.1l-0.1-0.3
						c0-0.1-0.1-0.2-0.1-0.3l0,0c0,0.1,0,0.2,0,0.3v0.3h-0.1v-0.7h0.1l0.1,0.3c0,0.1,0,0.2,0.1,0.2l0,0c0-0.1,0-0.1,0.1-0.2l0.1-0.3
						h0.1v0.7h-0.1L1377.8,229.2z"/>
				</g>
			</g>
		</g>
		<g>
			<path d="M1439.1,302.4l-47.4-44.2c-5.1-4.7-12-7.4-19.2-7.4h-115.3c-15,0-27.1,11.3-27.1,25.3v219.3c0,14,12.1,25.3,27.1,25.3
				h162.6c15,0,27.1-11.3,27.1-25.3V320.3C1447,313.6,1444.1,307.2,1439.1,302.4z M1248.7,505.6l2.4-240.2h127.4l54.5,53.5v186.7
				L1248.7,505.6L1248.7,505.6z M1323.1,470.2l-12-9.9l12-9.9c1.3-1.1,1.5-3,0.3-4.2c0,0,0,0-0.1-0.1l-6.4-6.4
				c-1.2-1.2-3.3-1.3-4.6-0.1l-21.1,18.5c-1.4,1.2-1.4,3.2,0,4.4l21.1,18.5c0.6,0.5,1.4,0.8,2.2,0.8c0.9,0,1.7-0.3,2.4-1l6.4-6.4
				C1324.5,473.3,1324.4,471.4,1323.1,470.2C1323.1,470.3,1323.1,470.2,1323.1,470.2L1323.1,470.2z M1353.9,426.5l-8.9-2.4
				c-1.7-0.5-3.5,0.5-4,2l0,0l-20,64.4c-0.5,1.6,0.5,3.3,2.2,3.7l8.9,2.4c1.7,0.5,3.5-0.5,4-2.1l20-64.4
				C1356.6,428.6,1355.7,426.9,1353.9,426.5L1353.9,426.5z M1385.9,458.1l-21.1-18.5c-1.3-1.1-3.3-1.1-4.6,0.1l-6.4,6.4
				c-1.2,1.2-1.2,3.1,0.1,4.3c0,0,0.1,0,0.1,0.1l12,9.9l-12,9.9c-1.3,1.1-1.5,3-0.3,4.2c0,0,0,0,0.1,0.1l6.4,6.4
				c1.2,1.2,3.3,1.3,4.6,0.1l0,0l0,0l21.1-18.5C1387.3,461.3,1387.3,459.3,1385.9,458.1z"/>
			<g class="st37">
				<path d="M1279.6,371.5v-40.1h11.3c3.5,0,6.6,0.8,9.3,2.3s4.8,3.7,6.2,6.6c1.5,2.8,2.2,6.1,2.2,9.8v2.6c0,3.8-0.7,7.1-2.2,9.9
					s-3.5,5-6.3,6.6c-2.7,1.5-5.9,2.3-9.5,2.3H1279.6z M1284.9,335.8v31.5h5.6c4.1,0,7.2-1.3,9.5-3.8c2.3-2.5,3.4-6.1,3.4-10.8v-2.3
					c0-4.6-1.1-8.1-3.2-10.6c-2.1-2.5-5.2-3.8-9.1-3.8H1284.9z"/>
				<path d="M1338.1,361.1h-16.8l-3.8,10.5h-5.5l15.3-40.1h4.6l15.3,40.1h-5.4L1338.1,361.1z M1322.9,356.7h13.6l-6.8-18.8
					L1322.9,356.7z"/>
				<path d="M1376.9,335.8h-12.9v35.8h-5.3v-35.8h-12.9v-4.3h31V335.8z"/>
				<path d="M1402.9,361.1h-16.8l-3.8,10.5h-5.5l15.3-40.1h4.6l15.3,40.1h-5.4L1402.9,361.1z M1387.7,356.7h13.6l-6.8-18.8
					L1387.7,356.7z"/>
			</g>
		</g>
	</g>
	<g id="Gateway_3_">
		<g id="Antena_1_">
			<path id="Antena_2_" d="M1735.5,917.7c-0.8-1.3-19.8-20.3-19.8-20.3l-27-26.1l-11.3-10.4c0,0-0.4,0-0.6-0.3s0-0.6,0-0.6l-6.8-6.9
				c0,0-0.5,0-0.8-0.3s0-0.5,0-0.5l-62.1-60.2l-16.6-14.7c0,0-17.2-14.4-23.9-19.2c-6.6-4.7-9.7-7.7-14.4-11.8
				c-4.7-4.1-41.7-41.3-41.7-41.3s-0.4,0.4-0.7,0c-0.3-0.4,0-0.7,0-0.7l-3.2-3.1c0,0-0.4,0.4-0.7,0c-0.3-0.4,0-0.7,0-0.7
				s-14-15-16.9-15.3c-2.9-0.4-4.7,0.9-5.8,2.2L1713,915.7l-229.9-228.1c-1.3,1.1-2.5,2.9-2.1,5.8c0.4,2.9,15.3,17,15.3,17
				s0.4-0.3,0.7,0c0.4,0.3,0,0.7,0,0.7l3,3.2c0,0,0.4-0.3,0.7,0c0.4,0.3,0,0.7,0,0.7s37.1,37.1,41.2,41.8s7.1,7.8,11.8,14.5
				c4.7,6.6,19.1,23.9,19.1,23.9l14.4,15.2l60.4,60.1c0,0,0.2-0.3,0.5,0s0.3,0.8,0.3,0.8l6.9,6.9c0,0,0.3-0.2,0.6,0
				c0.3,0.2,0.3,0.6,0.3,0.6l36.9,37.1c2.6,1.3,4.3,0.8,4.3,0.8l7.5,7.8l0.1,9.1h-2.2c-2.2,0.9-1.6,2.4-1.6,2.4v20.9
				c9.9,1.6,17.6,1.5,22.6,1c4.2-0.4,6.5-1,6.5-1l-0.2-0.4h0.2l-0.5-21.6c0,0-0.5-1.5-1.4-1.7s-2.7,0-2.7,0v-3.4c0,0,2.9-2,5.3-4.5
				S1736.3,919,1735.5,917.7z"/>
			
				<radialGradient id="SVGID_14_" cx="1718.2153" cy="167.5795" r="6.0633" gradientTransform="matrix(1 0 0 -1 0 1080)" gradientUnits="userSpaceOnUse">
				<stop  offset="0" style="stop-color:#FCFCFC"/>
				<stop  offset="1" style="stop-color:#FCFCFC;stop-opacity:0"/>
			</radialGradient>
			<circle class="st38" cx="1717.3" cy="919.7" r="3.5"/>
			
				<linearGradient id="SVGID_15_" gradientUnits="userSpaceOnUse" x1="1610.3374" y1="277.2375" x2="1605.7524" y2="272.6525" gradientTransform="matrix(1 0 0 -1 0 1080)">
				<stop  offset="0" style="stop-color:#FCFCFC;stop-opacity:0"/>
				<stop  offset="0.5297" style="stop-color:#FCFCFC;stop-opacity:0.1"/>
				<stop  offset="1" style="stop-color:#FCFCFC;stop-opacity:0"/>
			</linearGradient>
			<polygon class="st39" points="1484.1,687.1 1482.8,688.7 1726.1,928.9 1734.5,919.9 			"/>
			
				<linearGradient id="SVGID_16_" gradientUnits="userSpaceOnUse" x1="1714.5095" y1="145.2616" x2="1722.3719" y2="145.8334" gradientTransform="matrix(1 0 0 -1 0 1080)">
				<stop  offset="0" style="stop-color:#FCFCFC;stop-opacity:0"/>
				<stop  offset="0.5243" style="stop-color:#FCFCFC;stop-opacity:0.1"/>
				<stop  offset="1" style="stop-color:#FCFCFC;stop-opacity:0"/>
			</linearGradient>
			<polygon class="st40" points="1712.3,913.4 1726.8,928.2 1721.9,955.7 1712.5,955.7 			"/>
		</g>
		<g id="Gateway_5_">
			<path class="st23" d="M1764.4,1033.1h121.2l3.3-2.8v-7l10.1-12.9v-27.1l-10.1-9.2v-8.3l-2.2-2c0,0-1.5-2.2-5.2-4.8
				s-11.1-4.2-11.1-4.2h-105.8h-0.2h-119.1c0,0-7.4,1.5-11.1,4.2c-3.7,2.6-5.2,4.8-5.2,4.8l-2.2,2v8.3l-10.1,9.2v27.1l10.1,12.9v7
				l3.3,2.8h133.4H1764.4z"/>
		</g>
		<g id="Gateway_4_">
			<path class="st24" d="M1764.6,1034.4h121.2l3.3-2.7v-6.7v-47.1V970l-2.2-1.9c0,0-1.5-2.1-5.2-4.6s-11.1-4-11.1-4h-105.8h-0.2
				h-119.1c0,0-7.4,1.5-11.1,4s-5.2,4.6-5.2,4.6l-2.2,1.9v7.9v47.1v6.7l3.3,2.7h133.4H1764.6z"/>
		</g>
		<g id="iner_1_">
			<polygon class="st23" points="1643.8,986.1 1632.4,973.1 1632.2,1025.4 1880.9,1025.4 1880.9,973.1 1871.7,985.8 1871.5,1013.6 
				1643.8,1015.2 			"/>
			<polygon class="st25" points="1880.9,973.1 1871.5,986.1 1871.5,1013.6 1643.8,1015.2 1643.8,986.1 1632.2,973.1 1632.2,1025.4 
				1643.8,1015.2 1871.5,1013.6 1880.9,1025.4 			"/>
			<rect x="1632.2" y="973.1" class="st26" width="248.7" height="52.3"/>
			<line class="st27" x1="1871.5" y1="986.1" x2="1643.8" y2="986.1"/>
			<g id="Leds_1_">
				<g>
					<circle class="st28" cx="1664.3" cy="1000" r="6.5"/>
					
						<radialGradient id="SVGID_17_" cx="1664.3" cy="80" r="16.5" gradientTransform="matrix(1 0 0 -1 0 1080)" gradientUnits="userSpaceOnUse">
						<stop  offset="0" style="stop-color:#1D91BF"/>
						<stop  offset="0.6012" style="stop-color:#1D91BF;stop-opacity:9.945840e-02"/>
						<stop  offset="0.6676" style="stop-color:#1D91BF;stop-opacity:0"/>
					</radialGradient>
					<path class="st41" d="M1664.3,993.5c3.6,0,6.5,2.9,6.5,6.5s-2.9,6.5-6.5,6.5s-6.5-2.9-6.5-6.5S1660.7,993.5,1664.3,993.5
						 M1664.3,983.5c-9.1,0-16.5,7.4-16.5,16.5s7.4,16.5,16.5,16.5s16.5-7.4,16.5-16.5S1673.4,983.5,1664.3,983.5L1664.3,983.5z"/>
				</g>
				<g>
					<circle class="st28" cx="1699.4" cy="1000" r="6.5"/>
					
						<radialGradient id="SVGID_18_" cx="1699.4" cy="80" r="16.4832" gradientTransform="matrix(1 0 0 -1 0 1080)" gradientUnits="userSpaceOnUse">
						<stop  offset="0" style="stop-color:#1D91BF"/>
						<stop  offset="0.6012" style="stop-color:#1D91BF;stop-opacity:9.945840e-02"/>
						<stop  offset="0.6676" style="stop-color:#1D91BF;stop-opacity:0"/>
					</radialGradient>
					<path class="st42" d="M1699.4,993.5c3.6,0,6.5,2.9,6.5,6.5s-2.9,6.5-6.5,6.5s-6.5-2.9-6.5-6.5S1695.8,993.5,1699.4,993.5
						 M1699.4,983.5c-9.1,0-16.5,7.4-16.5,16.5s7.4,16.5,16.5,16.5s16.5-7.4,16.5-16.5S1708.5,983.5,1699.4,983.5L1699.4,983.5z"/>
				</g>
				<g>
					<circle class="st31" cx="1734.5" cy="1000" r="6.5"/>
					
						<radialGradient id="SVGID_19_" cx="1734.5" cy="80" r="16.4778" gradientTransform="matrix(1 0 0 -1 0 1080)" gradientUnits="userSpaceOnUse">
						<stop  offset="0" style="stop-color:#1D91BF"/>
						<stop  offset="0.6012" style="stop-color:#1D91BF;stop-opacity:9.945840e-02"/>
						<stop  offset="0.6676" style="stop-color:#1D91BF;stop-opacity:0"/>
					</radialGradient>
					<path class="st43" d="M1734.5,993.5c3.6,0,6.5,2.9,6.5,6.5s-2.9,6.5-6.5,6.5s-6.5-2.9-6.5-6.5S1730.9,993.5,1734.5,993.5
						 M1734.5,983.5c-9.1,0-16.5,7.4-16.5,16.5s7.4,16.5,16.5,16.5s16.5-7.4,16.5-16.5S1743.6,983.5,1734.5,983.5L1734.5,983.5z"/>
				</g>
				<g>
					<circle class="st31" cx="1769.6" cy="1000" r="6.5"/>
					
						<radialGradient id="SVGID_20_" cx="1769.6" cy="80" r="16.4725" gradientTransform="matrix(1 0 0 -1 0 1080)" gradientUnits="userSpaceOnUse">
						<stop  offset="0" style="stop-color:#1D91BF"/>
						<stop  offset="0.6012" style="stop-color:#1D91BF;stop-opacity:9.945840e-02"/>
						<stop  offset="0.6676" style="stop-color:#1D91BF;stop-opacity:0"/>
					</radialGradient>
					<path class="st44" d="M1769.6,993.5c3.6,0,6.5,2.9,6.5,6.5s-2.9,6.5-6.5,6.5s-6.5-2.9-6.5-6.5S1766,993.5,1769.6,993.5
						 M1769.6,983.5c-9.1,0-16.5,7.4-16.5,16.5s7.4,16.5,16.5,16.5s16.5-7.4,16.5-16.5S1778.7,983.5,1769.6,983.5L1769.6,983.5z"/>
				</g>
			</g>
			<g class="st34">
				<g class="st35">
					<path class="st16" d="M1662,996c0,0,1.3-0.3,1.9,0v1.6h-1.6L1662,996z"/>
					<path class="st16" d="M1663.6,998.8l-0.4-1.6c0,0,1.3-0.3,1.9,0"/>
				</g>
				<g class="st35">
					<path class="st16" d="M1698.4,996.8c0,0,0.3,0.1,0.7,0.3l0.4,0.7h-1.2L1698.4,996.8L1698.4,996.8z"/>
					<path class="st16" d="M1699.2,998.7l-0.2-1c0,0,0.8-0.1,1.2,0"/>
				</g>
				<g class="st35">
					<path class="st16" d="M1769.2,996.1c0,0-1.3-0.4-1.9-0.2l0.6,1.2l1,0.5L1769.2,996.1z"/>
					<path class="st16" d="M1769.5,998.6l0.4-1.5c0,0-1.3-0.2-1.9,0"/>
				</g>
				<g class="st35">
					<path class="st16" d="M1733.8,996.3c0,0-0.8-0.1-1.1,0v0.9h0.9L1733.8,996.3z"/>
					<path class="st16" d="M1734,998.1l0.2-0.9c0,0-0.8-0.1-1.1,0"/>
				</g>
			</g>
		</g>
		<path class="st36" d="M1864.7,1005.9c-0.1,0-0.2,0-0.2-0.1c-0.2-0.1-0.3-0.3-0.3-0.5v-3.5l-1.8,1.4c-0.2,0.2-0.6,0.1-0.7-0.1
			c-0.2-0.2-0.1-0.6,0.1-0.7l2.5-2v-0.2l-2.5-2.1c-0.2-0.2-0.3-0.5-0.1-0.7c0.2-0.2,0.5-0.3,0.7-0.1l1.9,1.5v-3.7
			c0-0.2,0.1-0.4,0.3-0.5c0.2-0.1,0.4-0.1,0.6,0.1l3.5,2.7c0.1,0.1,0.2,0.3,0.2,0.4c0,0.2-0.1,0.3-0.2,0.4l-2.6,2l2.6,2.1
			c0.1,0.1,0.2,0.3,0.2,0.4s-0.1,0.3-0.2,0.4l-3.5,2.4C1864.9,1005.8,1864.8,1005.9,1864.7,1005.9z M1865.2,1001.2v3.2l2.1-1.4
			L1865.2,1001.2z M1865.2,996.3v3.3l2.1-1.7L1865.2,996.3z"/>
		<path d="M1864.9,1005.9c-0.1,0-0.2,0-0.2-0.1c-0.2-0.1-0.3-0.3-0.3-0.5v-3.5l-1.8,1.4c-0.2,0.2-0.6,0.1-0.7-0.1
			c-0.2-0.2-0.1-0.6,0.1-0.7l2.5-2v-0.2l-2.5-2.1c-0.2-0.2-0.3-0.5-0.1-0.7s0.5-0.3,0.7-0.1l1.9,1.5v-3.7c0-0.2,0.1-0.4,0.3-0.5
			c0.2-0.1,0.4-0.1,0.6,0.1l3.5,2.7c0.1,0.1,0.2,0.3,0.2,0.4c0,0.2-0.1,0.3-0.2,0.4l-2.6,2l2.6,2.1c0.1,0.1,0.2,0.3,0.2,0.4
			s-0.1,0.3-0.2,0.4l-3.5,2.4C1865.1,1005.8,1865,1005.9,1864.9,1005.9z M1865.4,1001.2v3.2l2.1-1.4L1865.4,1001.2z M1865.4,996.3
			v3.3l2.1-1.7L1865.4,996.3z"/>
		<g id="LoRa-Full_2_">
			<g id="semnale_2_">
				<g>
					<path class="st36" d="M1836.8,991.2c0,0-2.4-1.8-6.1-1.8c-3.8,0-5.8,1.7-5.8,1.7l-0.8-1.1c0,0,2.4-2,6.6-2s7,2.1,7,2.1
						L1836.8,991.2z"/>
					<path class="st36" d="M1835.4,993.2c0,0-1.7-1.4-4.7-1.4c-2.9,0-4.4,1.3-4.4,1.3l-0.7-0.8c0,0,1.8-1.5,5.1-1.5
						c3.3,0,5.3,1.7,5.3,1.7L1835.4,993.2z"/>
					<path class="st36" d="M1834,995c0,0-1-0.9-3.2-0.9s-3.1,0.9-3.1,0.9l-0.6-0.6c0,0,1.2-1.1,3.7-1.1s3.8,1.1,3.8,1.1L1834,995z"
						/>
				</g>
				<g>
					<path class="st36" d="M1824.9,1009.4c0,0,2.4,1.8,6.1,1.8s5.8-1.7,5.8-1.7l0.8,1.1c0,0-2.4,2-6.6,2s-7-2.1-7-2.1L1824.9,1009.4
						z"/>
					<path class="st36" d="M1826.4,1007.4c0,0,1.7,1.4,4.7,1.4c2.9,0,4.4-1.3,4.4-1.3l0.7,0.8c0,0-1.8,1.5-5.1,1.5
						c-3.3,0-5.3-1.7-5.3-1.7L1826.4,1007.4z"/>
					<path class="st36" d="M1827.7,1005.6c0,0,1,0.9,3.2,0.9s3.1-0.9,3.1-0.9l0.6,0.6c0,0-1.2,1.1-3.7,1.1s-3.8-1.1-3.8-1.1
						L1827.7,1005.6z"/>
				</g>
			</g>
			<g id="LoRa_2_">
				<path d="M1818.3,993.2h2.8v9h4.5v2.4h-7.2v-11.4H1818.3z"/>
				<path d="M1835.4,1000.1c0,3-2.1,4.5-4.5,4.5c-2.6,0-4.5-1.8-4.5-4.4c0-2.7,1.8-4.4,4.6-4.4
					C1833.7,995.9,1835.4,997.7,1835.4,1000.1z M1828.8,1000.3c0,1.7,0.6,2.6,2,2.6c1.3,0,2.1-0.8,2.1-2.6c0-1.4-0.4-2.6-2-2.6
					C1829.2,997.7,1828.8,998.8,1828.8,1000.3z"/>
				<path d="M1837,993.3c0,0,5.2-0.1,6.6,0c1.8,0.1,3.1,1.7,3.1,3.4c0,2.4-1.3,3-2.3,3.4v0.1c0.6,0.9,2.3,4,2.6,4.5h-3.1
					c-0.2-0.3-2.3-4.1-2.3-4.1h-1.7v4.1l-2.8-0.1L1837,993.3L1837,993.3z M1839.8,998.4c2.8,0,4.1,0.3,4.1-1.5s-1.3-1.6-4.1-1.5
					V998.4z"/>
				<path d="M1853.4,1004.5l-0.1-1h-0.1c-0.5,0.7-1.2,1.2-2.7,1.2c-1.9,0-2.7-1.3-2.7-2.5c0-2.1,1.8-3,5.2-3.2c0,0,0.4-1.8-1.3-1.7
					c-1.2,0.1-1.2,1.2-1.2,1.2h-2.4c0,0-0.3-2.8,3.6-2.7c3.8,0.1,3.5,1.5,3.6,3.6v2.9c0,0.8,0.1,1.6,0.2,2.2H1853.4z M1853,1000.4
					c-1.6,0.5-2.7,0.4-2.8,1.5c-0.1,0.7,0.4,1,1.2,1c1,0,1.4-0.5,1.6-1.1C1853,1001.7,1853,1000.4,1853,1000.4z"/>
			</g>
			<g id="TM_2_">
				<path d="M1855.9,995.9h-0.5v-0.2h1.1v0.2H1855.9l0.1,1.3h-0.2L1855.9,995.9L1855.9,995.9z"/>
				<path d="M1858,996.5c0-0.2,0-0.5,0-0.6l0,0c-0.1,0.2-0.1,0.4-0.2,0.6l-0.3,0.7h-0.1l-0.2-0.7c-0.1-0.2-0.1-0.4-0.2-0.6l0,0
					c0,0.2,0,0.4,0,0.7v0.6h-0.2l0.1-1.5h0.2l0.3,0.7c0.1,0.2,0.1,0.3,0.2,0.5l0,0c0-0.2,0.1-0.3,0.2-0.5l0.3-0.7h0.2l0.1,1.5h-0.2
					L1858,996.5z"/>
			</g>
		</g>
	</g>
	<g id="Gateway_6_">
		<g id="Antena_3_">
			<path id="Antena_4_" d="M1735.5,310.7c-0.8-1.3-19.8-20.3-19.8-20.3l-27-26.1l-11.3-10.4c0,0-0.4,0-0.6-0.3s0-0.6,0-0.6l-6.8-6.9
				c0,0-0.5,0-0.8-0.3s0-0.5,0-0.5l-62.1-60.2l-16.6-14.7c0,0-17.2-14.4-23.9-19.2c-6.6-4.7-9.7-7.7-14.4-11.8
				c-4.7-4.1-41.7-41.3-41.7-41.3s-0.4,0.4-0.7,0c-0.3-0.4,0-0.7,0-0.7l-3.2-3.1c0,0-0.4,0.4-0.7,0c-0.3-0.4,0-0.7,0-0.7
				s-14-15-16.9-15.3c-2.9-0.4-4.7,0.9-5.8,2.2L1713,308.7L1483.1,80.6c-1.3,1.1-2.5,2.9-2.1,5.8s15.3,17,15.3,17s0.4-0.3,0.7,0
				s0,0.7,0,0.7l3,3.2c0,0,0.4-0.3,0.7,0c0.4,0.3,0,0.7,0,0.7s37.1,37.1,41.2,41.8s7.1,7.8,11.8,14.5c4.7,6.6,19.1,23.9,19.1,23.9
				l14.4,15.2l60.4,60.1c0,0,0.2-0.3,0.5,0s0.3,0.8,0.3,0.8l6.9,6.9c0,0,0.3-0.2,0.6,0c0.3,0.2,0.3,0.6,0.3,0.6l36.9,37.1
				c2.6,1.3,4.3,0.8,4.3,0.8l7.5,7.8l0.1,9.1h-2.2c-2.2,0.9-1.6,2.4-1.6,2.4v20.9c9.9,1.6,17.6,1.5,22.6,1c4.2-0.4,6.5-1,6.5-1
				l-0.2-0.4h0.2l-0.5-21.6c0,0-0.5-1.5-1.4-1.7s-2.7,0-2.7,0v-3.4c0,0,2.9-2,5.3-4.5C1733.3,315.8,1736.3,312,1735.5,310.7z"/>
			
				<radialGradient id="SVGID_21_" cx="1718.2153" cy="774.5796" r="6.0633" gradientTransform="matrix(1 0 0 -1 0 1080)" gradientUnits="userSpaceOnUse">
				<stop  offset="0" style="stop-color:#FCFCFC"/>
				<stop  offset="1" style="stop-color:#FCFCFC;stop-opacity:0"/>
			</radialGradient>
			<circle class="st45" cx="1717.3" cy="312.7" r="3.5"/>
			
				<linearGradient id="SVGID_22_" gradientUnits="userSpaceOnUse" x1="1610.3374" y1="884.2375" x2="1605.7524" y2="879.6525" gradientTransform="matrix(1 0 0 -1 0 1080)">
				<stop  offset="0" style="stop-color:#FCFCFC;stop-opacity:0"/>
				<stop  offset="0.5297" style="stop-color:#FCFCFC;stop-opacity:0.1"/>
				<stop  offset="1" style="stop-color:#FCFCFC;stop-opacity:0"/>
			</linearGradient>
			<polygon class="st46" points="1484.1,80.1 1482.8,81.7 1726.1,321.9 1734.5,312.9 			"/>
			
				<linearGradient id="SVGID_23_" gradientUnits="userSpaceOnUse" x1="1714.5095" y1="752.2616" x2="1722.3719" y2="752.8334" gradientTransform="matrix(1 0 0 -1 0 1080)">
				<stop  offset="0" style="stop-color:#FCFCFC;stop-opacity:0"/>
				<stop  offset="0.5243" style="stop-color:#FCFCFC;stop-opacity:0.1"/>
				<stop  offset="1" style="stop-color:#FCFCFC;stop-opacity:0"/>
			</linearGradient>
			<polygon class="st47" points="1712.3,306.4 1726.8,321.2 1721.9,348.7 1712.5,348.7 			"/>
		</g>
		<g id="Gateway_8_">
			<path class="st23" d="M1764.4,426.1h121.2l3.3-2.8v-7l10.1-12.9v-27.1l-10.1-9.2v-8.3l-2.2-2c0,0-1.5-2.2-5.2-4.8
				s-11.1-4.2-11.1-4.2h-105.8h-0.2h-119.1c0,0-7.4,1.5-11.1,4.2s-5.2,4.8-5.2,4.8l-2.2,2v8.3l-10.1,9.2v27.1l10.1,12.9v7l3.3,2.8
				h133.4H1764.4z"/>
		</g>
		<g id="Gateway_7_">
			<path class="st24" d="M1764.6,427.4h121.2l3.3-2.7V418v-47.1V363l-2.2-1.9c0,0-1.5-2.1-5.2-4.6s-11.1-4-11.1-4h-105.8h-0.2
				h-119.1c0,0-7.4,1.5-11.1,4s-5.2,4.6-5.2,4.6l-2.2,1.9v7.9V418v6.7l3.3,2.7h133.4H1764.6z"/>
		</g>
		<g id="iner_2_">
			<polygon class="st23" points="1643.8,379.1 1632.4,366.1 1632.2,418.4 1880.9,418.4 1880.9,366.1 1871.7,378.8 1871.5,406.6 
				1643.8,408.2 			"/>
			<polygon class="st25" points="1880.9,366.1 1871.5,379.1 1871.5,406.6 1643.8,408.2 1643.8,379.1 1632.2,366.1 1632.2,418.4 
				1643.8,408.2 1871.5,406.6 1880.9,418.4 			"/>
			<rect x="1632.2" y="366.1" class="st26" width="248.7" height="52.3"/>
			<line class="st27" x1="1871.5" y1="379.1" x2="1643.8" y2="379.1"/>
			<g id="Leds_2_">
				<g>
					<circle class="st28" cx="1664.3" cy="393" r="6.5"/>
					
						<radialGradient id="SVGID_24_" cx="1664.3" cy="687" r="16.5" gradientTransform="matrix(1 0 0 -1 0 1080)" gradientUnits="userSpaceOnUse">
						<stop  offset="0" style="stop-color:#1D91BF"/>
						<stop  offset="0.6012" style="stop-color:#1D91BF;stop-opacity:9.945840e-02"/>
						<stop  offset="0.6676" style="stop-color:#1D91BF;stop-opacity:0"/>
					</radialGradient>
					<path class="st48" d="M1664.3,386.5c3.6,0,6.5,2.9,6.5,6.5s-2.9,6.5-6.5,6.5s-6.5-2.9-6.5-6.5S1660.7,386.5,1664.3,386.5
						 M1664.3,376.5c-9.1,0-16.5,7.4-16.5,16.5s7.4,16.5,16.5,16.5s16.5-7.4,16.5-16.5S1673.4,376.5,1664.3,376.5L1664.3,376.5z"/>
				</g>
				<g>
					<circle class="st28" cx="1699.4" cy="393" r="6.5"/>
					
						<radialGradient id="SVGID_25_" cx="1699.4" cy="687" r="16.4832" gradientTransform="matrix(1 0 0 -1 0 1080)" gradientUnits="userSpaceOnUse">
						<stop  offset="0" style="stop-color:#1D91BF"/>
						<stop  offset="0.6012" style="stop-color:#1D91BF;stop-opacity:9.945840e-02"/>
						<stop  offset="0.6676" style="stop-color:#1D91BF;stop-opacity:0"/>
					</radialGradient>
					<path class="st49" d="M1699.4,386.5c3.6,0,6.5,2.9,6.5,6.5s-2.9,6.5-6.5,6.5s-6.5-2.9-6.5-6.5S1695.8,386.5,1699.4,386.5
						 M1699.4,376.5c-9.1,0-16.5,7.4-16.5,16.5s7.4,16.5,16.5,16.5s16.5-7.4,16.5-16.5S1708.5,376.5,1699.4,376.5L1699.4,376.5z"/>
				</g>
				<g>
					<circle class="st31" cx="1734.5" cy="393" r="6.5"/>
					
						<radialGradient id="SVGID_26_" cx="1734.5" cy="687" r="16.4778" gradientTransform="matrix(1 0 0 -1 0 1080)" gradientUnits="userSpaceOnUse">
						<stop  offset="0" style="stop-color:#1D91BF"/>
						<stop  offset="0.6012" style="stop-color:#1D91BF;stop-opacity:9.945840e-02"/>
						<stop  offset="0.6676" style="stop-color:#1D91BF;stop-opacity:0"/>
					</radialGradient>
					<path class="st50" d="M1734.5,386.5c3.6,0,6.5,2.9,6.5,6.5s-2.9,6.5-6.5,6.5s-6.5-2.9-6.5-6.5S1730.9,386.5,1734.5,386.5
						 M1734.5,376.5c-9.1,0-16.5,7.4-16.5,16.5s7.4,16.5,16.5,16.5s16.5-7.4,16.5-16.5S1743.6,376.5,1734.5,376.5L1734.5,376.5z"/>
				</g>
				<g>
					<circle class="st31" cx="1769.6" cy="393" r="6.5"/>
					
						<radialGradient id="SVGID_27_" cx="1769.6" cy="687" r="16.4725" gradientTransform="matrix(1 0 0 -1 0 1080)" gradientUnits="userSpaceOnUse">
						<stop  offset="0" style="stop-color:#1D91BF"/>
						<stop  offset="0.6012" style="stop-color:#1D91BF;stop-opacity:9.945840e-02"/>
						<stop  offset="0.6676" style="stop-color:#1D91BF;stop-opacity:0"/>
					</radialGradient>
					<path class="st51" d="M1769.6,386.5c3.6,0,6.5,2.9,6.5,6.5s-2.9,6.5-6.5,6.5s-6.5-2.9-6.5-6.5S1766,386.5,1769.6,386.5
						 M1769.6,376.5c-9.1,0-16.5,7.4-16.5,16.5s7.4,16.5,16.5,16.5s16.5-7.4,16.5-16.5S1778.7,376.5,1769.6,376.5L1769.6,376.5z"/>
				</g>
			</g>
			<g class="st34">
				<g class="st35">
					<path class="st16" d="M1662,389c0,0,1.3-0.3,1.9,0v1.6h-1.6L1662,389z"/>
					<path class="st16" d="M1663.6,391.8l-0.4-1.6c0,0,1.3-0.3,1.9,0"/>
				</g>
				<g class="st35">
					<path class="st16" d="M1698.4,389.8c0,0,0.3,0.1,0.7,0.3l0.4,0.7h-1.2L1698.4,389.8L1698.4,389.8z"/>
					<path class="st16" d="M1699.2,391.7l-0.2-1c0,0,0.8-0.1,1.2,0"/>
				</g>
				<g class="st35">
					<path class="st16" d="M1769.2,389.1c0,0-1.3-0.4-1.9-0.2l0.6,1.2l1,0.5L1769.2,389.1z"/>
					<path class="st16" d="M1769.5,391.6l0.4-1.5c0,0-1.3-0.2-1.9,0"/>
				</g>
				<g class="st35">
					<path class="st16" d="M1733.8,389.3c0,0-0.8-0.1-1.1,0v0.9h0.9L1733.8,389.3z"/>
					<path class="st16" d="M1734,391.1l0.2-0.9c0,0-0.8-0.1-1.1,0"/>
				</g>
			</g>
		</g>
		<path class="st36" d="M1864.7,398.9c-0.1,0-0.2,0-0.2-0.1c-0.2-0.1-0.3-0.3-0.3-0.5v-3.5l-1.8,1.4c-0.2,0.2-0.6,0.1-0.7-0.1
			c-0.2-0.2-0.1-0.6,0.1-0.7l2.5-2v-0.2l-2.5-2.1c-0.2-0.2-0.3-0.5-0.1-0.7c0.2-0.2,0.5-0.3,0.7-0.1l1.9,1.5v-3.7
			c0-0.2,0.1-0.4,0.3-0.5c0.2-0.1,0.4-0.1,0.6,0.1l3.5,2.7c0.1,0.1,0.2,0.3,0.2,0.4c0,0.2-0.1,0.3-0.2,0.4l-2.6,2l2.6,2.1
			c0.1,0.1,0.2,0.3,0.2,0.4c0,0.2-0.1,0.3-0.2,0.4l-3.5,2.4C1864.9,398.8,1864.8,398.9,1864.7,398.9z M1865.2,394.2v3.2l2.1-1.4
			L1865.2,394.2z M1865.2,389.3v3.3l2.1-1.7L1865.2,389.3z"/>
		<path d="M1864.9,398.9c-0.1,0-0.2,0-0.2-0.1c-0.2-0.1-0.3-0.3-0.3-0.5v-3.5l-1.8,1.4c-0.2,0.2-0.6,0.1-0.7-0.1
			c-0.2-0.2-0.1-0.6,0.1-0.7l2.5-2v-0.2l-2.5-2.1c-0.2-0.2-0.3-0.5-0.1-0.7c0.2-0.2,0.5-0.3,0.7-0.1l1.9,1.5v-3.7
			c0-0.2,0.1-0.4,0.3-0.5c0.2-0.1,0.4-0.1,0.6,0.1l3.5,2.7c0.1,0.1,0.2,0.3,0.2,0.4c0,0.2-0.1,0.3-0.2,0.4l-2.6,2l2.6,2.1
			c0.1,0.1,0.2,0.3,0.2,0.4c0,0.2-0.1,0.3-0.2,0.4l-3.5,2.4C1865.1,398.8,1865,398.9,1864.9,398.9z M1865.4,394.2v3.2l2.1-1.4
			L1865.4,394.2z M1865.4,389.3v3.3l2.1-1.7L1865.4,389.3z"/>
		<g id="LoRa-Full_3_">
			<g id="semnale_3_">
				<g>
					<path class="st36" d="M1836.8,384.2c0,0-2.4-1.8-6.1-1.8c-3.8,0-5.8,1.7-5.8,1.7l-0.8-1.1c0,0,2.4-2,6.6-2s7,2.1,7,2.1
						L1836.8,384.2z"/>
					<path class="st36" d="M1835.4,386.2c0,0-1.7-1.4-4.7-1.4c-2.9,0-4.4,1.3-4.4,1.3l-0.7-0.8c0,0,1.8-1.5,5.1-1.5
						c3.3,0,5.3,1.7,5.3,1.7L1835.4,386.2z"/>
					<path class="st36" d="M1834,388c0,0-1-0.9-3.2-0.9s-3.1,0.9-3.1,0.9l-0.6-0.6c0,0,1.2-1.1,3.7-1.1s3.8,1.1,3.8,1.1L1834,388z"
						/>
				</g>
				<g>
					<path class="st36" d="M1824.9,402.4c0,0,2.4,1.8,6.1,1.8s5.8-1.7,5.8-1.7l0.8,1.1c0,0-2.4,2-6.6,2s-7-2.1-7-2.1L1824.9,402.4z"
						/>
					<path class="st36" d="M1826.4,400.4c0,0,1.7,1.4,4.7,1.4c2.9,0,4.4-1.3,4.4-1.3l0.7,0.8c0,0-1.8,1.5-5.1,1.5
						c-3.3,0-5.3-1.7-5.3-1.7L1826.4,400.4z"/>
					<path class="st36" d="M1827.7,398.6c0,0,1,0.9,3.2,0.9s3.1-0.9,3.1-0.9l0.6,0.6c0,0-1.2,1.1-3.7,1.1s-3.8-1.1-3.8-1.1
						L1827.7,398.6z"/>
				</g>
			</g>
			<g id="LoRa_3_">
				<path d="M1818.3,386.2h2.8v9h4.5v2.4h-7.2v-11.4H1818.3z"/>
				<path d="M1835.4,393.1c0,3-2.1,4.5-4.5,4.5c-2.6,0-4.5-1.8-4.5-4.4c0-2.7,1.8-4.4,4.6-4.4
					C1833.7,388.9,1835.4,390.7,1835.4,393.1z M1828.8,393.3c0,1.7,0.6,2.6,2,2.6c1.3,0,2.1-0.8,2.1-2.6c0-1.4-0.4-2.6-2-2.6
					C1829.2,390.7,1828.8,391.8,1828.8,393.3z"/>
				<path d="M1837,386.3c0,0,5.2-0.1,6.6,0c1.8,0.1,3.1,1.7,3.1,3.4c0,2.4-1.3,3-2.3,3.4v0.1c0.6,0.9,2.3,4,2.6,4.5h-3.1
					c-0.2-0.3-2.3-4.1-2.3-4.1h-1.7v4.1l-2.8-0.1L1837,386.3L1837,386.3z M1839.8,391.4c2.8,0,4.1,0.3,4.1-1.5s-1.3-1.6-4.1-1.5
					V391.4z"/>
				<path d="M1853.4,397.5l-0.1-1h-0.1c-0.5,0.7-1.2,1.2-2.7,1.2c-1.9,0-2.7-1.3-2.7-2.5c0-2.1,1.8-3,5.2-3.2c0,0,0.4-1.8-1.3-1.7
					c-1.2,0.1-1.2,1.2-1.2,1.2h-2.4c0,0-0.3-2.8,3.6-2.7c3.8,0.1,3.5,1.5,3.6,3.6v2.9c0,0.8,0.1,1.6,0.2,2.2H1853.4z M1853,393.4
					c-1.6,0.5-2.7,0.4-2.8,1.5c-0.1,0.7,0.4,1,1.2,1c1,0,1.4-0.5,1.6-1.1C1853,394.7,1853,393.4,1853,393.4z"/>
			</g>
			<g id="TM_3_">
				<path d="M1855.9,388.9h-0.5v-0.2h1.1v0.2H1855.9l0.1,1.3h-0.2L1855.9,388.9L1855.9,388.9z"/>
				<path d="M1858,389.5c0-0.2,0-0.5,0-0.6l0,0c-0.1,0.2-0.1,0.4-0.2,0.6l-0.3,0.7h-0.1l-0.2-0.7c-0.1-0.2-0.1-0.4-0.2-0.6l0,0
					c0,0.2,0,0.4,0,0.7v0.6h-0.2l0.1-1.5h0.2l0.3,0.7c0.1,0.2,0.1,0.3,0.2,0.5l0,0c0-0.2,0.1-0.3,0.2-0.5l0.3-0.7h0.2l0.1,1.5h-0.2
					L1858,389.5z"/>
			</g>
		</g>
	</g>
	<path class="st52" d="M1206.8,745.6c-27.7,0-50.2,22.5-50.2,50.2s22.5,50.2,50.2,50.2c22.8,0,42.1-15.2,48.2-36.1
		c10.1,0.4,17.9,2.6,23.1,6.9c12,9.7,14,30.9,16.1,53.4c1.6,17.7,3.4,36,10.6,51h-90.3c-6.4-20.4-25.4-35.1-47.9-35.1
		c-27.7,0-50.2,22.5-50.2,50.2s22.5,50.2,50.2,50.2c22.5,0,41.5-14.7,47.9-35.1h125c6.5,20.4,25.5,35.1,47.9,35.1
		c27.7,0,50.2-22.5,50.2-50.2s-22.5-50.2-50.2-50.2c-21.3,0-39.6,13.3-46.8,32.1c-3.3-1.9-6.1-4.9-8.4-9.3
		c-5.1-10.2-6.5-25.3-8-41.5c-2.4-26.5-5.3-56.4-27.2-74.1c-10.9-8.8-25-13.2-42.6-13.5C1247.6,759.9,1228.8,745.6,1206.8,745.6
		L1206.8,745.6z M1156.6,936.2c0-5.5,4.5-10,10-10s10,4.5,10,10s-4.5,10-10,10C1161.1,946.3,1156.6,941.8,1156.6,936.2z
		 M1397.4,936.2c0,5.5-4.5,10-10,10s-10-4.5-10-10s4.5-10,10-10S1397.4,930.7,1397.4,936.2z M1196.7,795.8c0-5.5,4.5-10,10-10
		s10,4.5,10,10s-4.5,10-10,10S1196.7,801.3,1196.7,795.8z"/>
</g>
<g id="Layer_2_1_">
</g>
</svg>
