<?xml version="1.0" encoding="utf-8"?>
<!-- Generator: Adobe Illustrator 22.0.1, SVG Export Plug-In . SVG Version: 6.00 Build 0)  -->
<svg version="1.1" xmlns="http://www.w3.org/2000/svg" xmlns:xlink="http://www.w3.org/1999/xlink" x="0px" y="0px"
	 viewBox="0 0 1920 1080" style="enable-background:new 0 0 1920 1080;" xml:space="preserve">
<style type="text/css">
	.st0{fill:#E7F2EC;}
	.st1{display:none;fill:#385D14;}
	.st2{display:none;fill:#4E9A06;}
	.st3{fill:#222222;}
	.st4{fill:#33EC00;}
	.st5{display:none;}
	.st6{display:inline;fill:#5FD93E;}
	.st7{display:inline;fill:url(#SVGID_1_);}
	.st8{display:inline;fill:#3E9A00;}
	.st9{display:inline;fill:url(#SVGID_2_);}
	.st10{display:inline;fill:url(#SVGID_3_);}
	.st11{fill:url(#SVGID_4_);}
	.st12{fill:#3E9A00;}
	.st13{fill:url(#SVGID_5_);}
	.st14{fill:url(#SVGID_6_);}
	.st15{fill:#75C697;}
	.st16{fill:#FFFFFF;}
	.st17{display:inline;}
	.st18{font-family:'MyriadPro-Regular';}
	.st19{font-size:26px;}
	.st20{fill:none;stroke:#000000;stroke-width:8;stroke-linecap:round;stroke-miterlimit:10;}
</style>
<g id="Layer_1">
	<rect x="1473" class="st0" width="446" height="1080"/>
	<g id="Layer_7">
		<path class="st1" d="M504.1,383.2C504.1,383.3,504.1,383.3,504.1,383.2c0-1,0-2,0-3C504.1,381.2,504.1,382.2,504.1,383.2z
			 M513.2,339.5c8.2-15.8,19.3-21,20.9-21.7C532.5,318.5,521.5,323.4,513.2,339.5z M532.1,285.4c-16.3,12.7-12.6,13-12.6,13
			c6.8,3.3,25.9,1.4,25.9,1.4c1.2-2.3,38.9-41,38.9-41C558.7,265.9,532.1,285.4,532.1,285.4z"/>
		<path class="st2" d="M606.2,259.8c0,0-6.4,34.9-9.7,46.1c0,0-6.4,22.5-19.5,34.9c0,0-22.3,18.9-38.7,25.9c0,0-0.5,0.2-3.7,1.5
			c0,0-9.1-15.9-2.1-27c0,0,4.9-11.1,13-17.6c0,0,3-4.6,10.8-4.3l16.1-1.7c0,0,6.5-3.8,8.5-10.2c0,0,4.4-8.2-6.8-6.8l-9.5,0
			l26.4-32.2c0,0,5.1-9.6,0-11.9c0,0,5.7-6.3,1.3-8.5c0,0,11.1-11.1,18.6-51.7c0.2-0.2,0.4-0.5,0.5-0.8
			C611.3,195.4,613.8,213.1,606.2,259.8z"/>
		<path class="st1" d="M610.8,196.1c-7.4,40.7-18.6,51.7-18.6,51.7c-1.3-0.7-3.6-1-7.2-0.7c0,0-9.3-0.2-22.1,5.5
			c-33.1,14.8-46.9,23.4-60.1,42.7c0,0-7.9,17.1,4.9,20.9l26.6,1.4c0,0,0,0-0.2,0.1c-1.6,0.6-12.6,5.6-20.9,21.7
			c-0.1,0.2-0.2,0.3-0.3,0.5c-4.7,9.1-8.4,21.7-8.8,38.9c0,0.4,0,0.8,0,1.3c0,1,0,2,0,3c-1.1-2-28.5-53.7-3-101.3
			c0,0,18.1-27.1,54.3-44.1C555.4,237.8,598,215.2,610.8,196.1z"/>
		<path class="st3" d="M155.3,252.5c-40,0-59.9-26.4-59.9-67c0-41.9,21.1-67.2,62.2-67.2c15.9,0,28.7,3.8,38.4,11.9
			c9.2,8.3,14.3,19.5,15.7,33.7h-16.1c-5.7,0-10-2.7-12.4-7.9c-4.4-9.4-13-14.2-25.6-14.2c-24.7,0-35.6,17.4-35.6,43.7
			c0,25.5,10.5,43.5,34.8,43.5c16.6,0,26.2-9.2,29.1-23.5h25.8C209.3,235.4,188.3,252.5,155.3,252.5z"/>
		<path class="st4" d="M666.7,118.3c15.1,0,28.3,3.8,39.3,11.5c10,8.1,15.5,19.3,16.5,34.1H706c-4.8,0-8.6-2.3-11.7-6.7
			c-5.1-10.5-14.1-15.7-26.8-15.7c-22.4,0-33.9,14.1-34.1,42.7c-0.2,28.5,11.5,43.9,35.4,45.6c18,0,28.5-12.1,31.4-27.8h-15.7
			c-7.4,0-13.4-5.9-13.4-13.4v-8.3h53.1v70.2h-6.7c-6.4,0-12.4-4.2-13-10.2l-1.1-6.4c-9.2,11.9-18.6,18.4-37.3,18.4
			c-37.3,0-59.9-28.9-59.9-67C605.4,147.1,628.2,116.8,666.7,118.3z"/>
		<g>
			<path class="st3" d="M228.8,180.2h7.4v26.3h28.9v-26.3h14.6v70.4h-14.6v-31.2h-28.9v31.2h-14.6v-62.9
				C221.6,183.7,224.8,180.2,228.8,180.2z"/>
			<path class="st3" d="M286.8,187.7c0-4.9,2.4-7.5,7.3-7.6h43.7v12.2H301v15.1h27.4v4.7c0.1,4.9-2.4,7.3-7.4,7.3h-20v18.2h36.7v13
				h-51L286.8,187.7L286.8,187.7z"/>
			<path class="st3" d="M376.6,251.6c-21.7,0-32.4-14.3-32.4-36.3c0-22.7,11.4-36.3,33.7-36.3c8.6,0,15.5,2.1,20.8,6.4
				c5,4.5,7.8,10.6,8.5,18.2h-8.7c-3.1,0-5.4-1.5-6.7-4.2c-2.4-5.1-7-7.6-13.9-7.6c-13.4,0-19.3,9.4-19.3,23.6
				c0,13.8,5.7,23.5,18.9,23.5c9,0,14.2-5,15.8-12.7h14C405.7,242.5,394.4,251.6,376.6,251.6z"/>
			<path class="st3" d="M421.3,180.2h7.2v29l27.4-29h18.2l-28.1,28.6l30.6,41.8H459l-17.8-24.8c-3.1-4.1-6-5.8-8.7-4.9
				c-2.7,0.9-4,2.7-4,5.1v24.6H414v-62.9C414,183.7,417.2,180.2,421.3,180.2z"/>
		</g>
		<g>
			<path class="st4" d="M783.3,217.1c3,1.1,5.3,2.7,6.7,4.9c1.2,2.4,1.9,5.9,2.1,10.4l0.6,13.8c0.1,2.1,0.9,3.7,2.3,4.7h-15.9
				c-0.7-1.3-1-2.8-1.1-4.2c-0.3-1.1-0.5-5.1-0.6-11.9c-0.5-8.5-2.1-11.2-10.6-11.2h-15.3v27.4h-14.4V188c0-4,3.2-7.6,7.3-7.6h26.7
				c14.6,0,22.7,5.6,22.7,20.1C793.8,209.4,790,215.2,783.3,217.1z M769.4,192.6h-17.8v18.6h17c6.8,0,10.6-2.5,10.6-9.3
				C779.2,195.4,775.8,192.6,769.4,192.6z"/>
			<path class="st4" d="M802.3,188c0-4.9,2.4-7.5,7.3-7.6h43.7v12.2h-36.8v15.1h27.4v4.7c0.1,4.9-2.4,7.3-7.5,7.3h-20v18.2h36.8v13
				h-51V188L802.3,188z"/>
			<path class="st4" d="M860.8,188c0-4.9,2.4-7.5,7.3-7.6h43.7v12.2H875v15.1h27.4v4.7c0.1,4.9-2.4,7.3-7.5,7.3h-20v18.2h36.8v13
				h-51L860.8,188L860.8,188z"/>
			<path class="st4" d="M926.2,180.4h7.8l28.7,48.4v-48.4h14.2v70.4h-15l-28.7-48.4v48.4H919V188C919,183.9,922.2,180.4,926.2,180.4
				z"/>
		</g>
		<g class="st5">
			<path class="st6" d="M268.7,297.6c-1.3,15.3-8.1,34.7-17.7,53.7c0.2,0.3,0.4,0.8,0.6,1.3c1,2.7-1.9,6.3-1.9,6.3s1.9,0.5,1.9,6
				c0,5.5-27,39.8-27,39.8c15.9-2.4,15.9,2.4,15.5,6c-0.5,3.6,0,11.3-19.5,12.5c-19.5,1.2-29.5,20.9-30.7,30.6s2.7,15.1,2.7,15.1
				l0,0c18-9.8,39.7-20.8,53.2-37.5c22.9-28.3,23.1-134.8,23.1-134.8L268.7,297.6z"/>
		</g>
		<g class="st5">
			
				<linearGradient id="SVGID_1_" gradientUnits="userSpaceOnUse" x1="177.8363" y1="769.5643" x2="28.0655" y2="1026.8267" gradientTransform="matrix(1 0 0 1 118.3203 -472.0745)">
				<stop  offset="0" style="stop-color:#000000"/>
				<stop  offset="6.250000e-02" style="stop-color:#000000;stop-opacity:0.8743"/>
				<stop  offset="0.4975" style="stop-color:#000000;stop-opacity:0"/>
				<stop  offset="1" style="stop-color:#000000"/>
			</linearGradient>
			<path class="st7" d="M268.7,297.6c-1.3,15.3-8.1,34.7-17.7,53.7c0.2,0.3,0.4,0.8,0.6,1.3c1,2.7-1.9,6.3-1.9,6.3s1.9,0.5,1.9,6
				c0,5.5-27,39.8-27,39.8c15.9-2.4,15.9,2.4,15.5,6c-0.5,3.6,0,11.3-19.5,12.5c-19.5,1.2-29.5,20.9-30.7,30.6s2.7,15.1,2.7,15.1
				l0,0c18-9.8,39.7-20.8,53.2-37.5c22.9-28.3,23.1-134.8,23.1-134.8L268.7,297.6z"/>
		</g>
		<g class="st5">
			<path class="st8" d="M164.1,486.3c0-1.4,0-3.4,0-5.9c0-47.3,28.7-58.2,28.7-58.2l-8.2-0.2c-9.9-0.5-22,3.2-24.2-11.1
				c0.7-21,15.9-31.2,40.7-45.7c24.7-14.5,37.1-15.2,43.1-15.2c4.8,0,5.9,0,6.7,1.4c9.8-19.4,16.7-39.1,17.8-54.6
				c0,0-15.1,24.8-67.5,50.4c-52.4,25.6-72,76.6-37.2,142.5C164.1,489.7,164.1,488.4,164.1,486.3z"/>
			<path class="st8" d="M243.3,361.7c0,0-33.9,37.1-37.9,42.2c0,0-21.5,1.5-25.4-1.6C180,402.3,195.3,379.1,243.3,361.7z"/>
		</g>
		<g class="st5">
			
				<linearGradient id="SVGID_2_" gradientUnits="userSpaceOnUse" x1="178.222" y1="725.5706" x2="-42.6436" y2="1024.5995" gradientTransform="matrix(1 0 0 1 118.3203 -472.0745)">
				<stop  offset="0" style="stop-color:#000000"/>
				<stop  offset="1.970000e-02" style="stop-color:#000000;stop-opacity:0.9603"/>
				<stop  offset="0.4975" style="stop-color:#000000;stop-opacity:0"/>
				<stop  offset="1" style="stop-color:#000000"/>
			</linearGradient>
			<path class="st9" d="M164.1,486.3c0-1.4,0-3.4,0-5.9c0-47.3,28.7-58.2,28.7-58.2l-8.2-0.2c-9.9-0.5-22,3.2-24.2-11.1
				c0.7-21,15.9-31.2,40.7-45.7c24.7-14.5,37.1-15.2,43.1-15.2c4.8,0,5.9,0,6.7,1.4c9.8-19.4,16.7-39.1,17.8-54.6
				c0,0-15.1,24.8-67.5,50.4c-52.4,25.6-72,76.6-37.2,142.5C164.1,489.7,164.1,488.4,164.1,486.3z"/>
			
				<linearGradient id="SVGID_3_" gradientUnits="userSpaceOnUse" x1="184.706" y1="730.358" x2="-36.1605" y2="1029.3882" gradientTransform="matrix(1 0 0 1 118.3203 -472.0745)">
				<stop  offset="0" style="stop-color:#000000"/>
				<stop  offset="1.970000e-02" style="stop-color:#000000;stop-opacity:0.9603"/>
				<stop  offset="0.4975" style="stop-color:#000000;stop-opacity:0"/>
				<stop  offset="1" style="stop-color:#000000"/>
			</linearGradient>
			<path class="st10" d="M243.3,361.7c0,0-33.9,37.1-37.9,42.2c0,0-21.5,1.5-25.4-1.6C180,402.3,195.3,379.1,243.3,361.7z"/>
		</g>
		<g>
			<path class="st4" d="M602,109.9c-1.3,15.3-8.1,34.7-17.7,53.7c0.2,0.3,0.4,0.8,0.6,1.3c1,2.7-1.9,6.3-1.9,6.3s1.9,0.5,1.9,6
				c0,5.5-27,39.8-27,39.8c15.9-2.4,15.9,2.4,15.5,6c-0.5,3.6,0,11.3-19.5,12.5c-19.5,1.2-29.5,20.9-30.7,30.6
				c-1.2,9.7,2.7,15.1,2.7,15.1l0,0c18-9.8,39.7-20.8,53.2-37.5c22.9-28.3,23.1-134.8,23.1-134.8L602,109.9z"/>
		</g>
		<g>
			
				<linearGradient id="SVGID_4_" gradientUnits="userSpaceOnUse" x1="511.1731" y1="581.8546" x2="361.4017" y2="839.118" gradientTransform="matrix(1 0 0 1 118.3203 -472.0745)">
				<stop  offset="0" style="stop-color:#000000"/>
				<stop  offset="0.4975" style="stop-color:#000000;stop-opacity:0"/>
				<stop  offset="1" style="stop-color:#000000"/>
			</linearGradient>
			<path class="st11" d="M602,109.9c-1.3,15.3-8.1,34.7-17.7,53.7c0.2,0.3,0.4,0.8,0.6,1.3c1,2.7-1.9,6.3-1.9,6.3s1.9,0.5,1.9,6
				c0,5.5-27,39.8-27,39.8c15.9-2.4,15.9,2.4,15.5,6c-0.5,3.6,0,11.3-19.5,12.5c-19.5,1.2-29.5,20.9-30.7,30.6
				c-1.2,9.7,2.7,15.1,2.7,15.1l0,0c18-9.8,39.7-20.8,53.2-37.5c22.9-28.3,23.1-134.8,23.1-134.8L602,109.9z"/>
		</g>
		<g>
			<path class="st12" d="M497.4,298.6c0-1.4,0-3.4,0-5.9c0-47.3,28.7-58.2,28.7-58.2l-8.2-0.2c-9.9-0.5-22,3.2-24.2-11.1
				c0.7-21,15.9-31.2,40.7-45.7c24.7-14.5,37.1-15.2,43.1-15.2c4.8,0,5.9,0,6.7,1.4c9.8-19.4,16.6-39.1,17.8-54.6
				c0,0-15.1,24.8-67.5,50.4c-52.4,25.6-72,76.6-37.2,142.5C497.4,302,497.4,300.8,497.4,298.6z"/>
			<path class="st12" d="M576.6,174c0,0-33.9,37.1-37.9,42.2c0,0-21.5,1.5-25.4-1.6C513.3,214.6,528.7,191.3,576.6,174z"/>
		</g>
		<g>
			
				<linearGradient id="SVGID_5_" gradientUnits="userSpaceOnUse" x1="511.5428" y1="537.8487" x2="290.6782" y2="836.8761" gradientTransform="matrix(1 0 0 1 118.3203 -472.0745)">
				<stop  offset="0" style="stop-color:#000000"/>
				<stop  offset="6.510000e-02" style="stop-color:#000000;stop-opacity:0.8679"/>
				<stop  offset="0.4926" style="stop-color:#000000;stop-opacity:0"/>
				<stop  offset="1" style="stop-color:#000000"/>
			</linearGradient>
			<path class="st13" d="M497.4,298.6c0-1.4,0-3.4,0-5.9c0-47.3,28.7-58.2,28.7-58.2l-8.2-0.2c-9.9-0.5-22,3.2-24.2-11.1
				c0.7-21,15.9-31.2,40.7-45.7c24.7-14.5,37.1-15.2,43.1-15.2c4.8,0,5.9,0,6.7,1.4c9.8-19.4,16.6-39.1,17.8-54.6
				c0,0-15.1,24.8-67.5,50.4c-52.4,25.6-72,76.6-37.2,142.5C497.4,302,497.4,300.8,497.4,298.6z"/>
			
				<linearGradient id="SVGID_6_" gradientUnits="userSpaceOnUse" x1="518.0276" y1="542.6351" x2="297.1583" y2="841.669" gradientTransform="matrix(1 0 0 1 118.3203 -472.0745)">
				<stop  offset="0" style="stop-color:#000000"/>
				<stop  offset="1.970000e-02" style="stop-color:#000000;stop-opacity:0.9603"/>
				<stop  offset="0.4975" style="stop-color:#000000;stop-opacity:0"/>
				<stop  offset="1" style="stop-color:#000000"/>
			</linearGradient>
			<path class="st14" d="M576.6,174c0,0-33.9,37.1-37.9,42.2c0,0-21.5,1.5-25.4-1.6C513.3,214.6,528.7,191.3,576.6,174z"/>
		</g>
	</g>
	<path class="st15" d="M836,1017H52c-6.6,0-12-5.4-12-12V416c0-6.6,5.4-12,12-12h784c102.7,0,208,233.3,240.1,277.9V227.5
		C1054.6,244.8,949,316.3,841,319H52c-6.6,0-12-5.4-12-12V95c0-6.6,5.4-12,12-12h789c97.6,0,212.6,90.1,235.1,111.8V0H-4v1080
		h1080.1V744C1042.9,790.1,939.5,1017,836,1017z"/>
	<g>
		<path d="M185.6,678.4c4,2.4,9.8,4.5,15.9,4.5c9.1,0,14.4-4.8,14.4-11.7c0-6.4-3.7-10.1-13-13.7c-11.2-4-18.2-9.8-18.2-19.5
			c0-10.7,8.9-18.7,22.2-18.7c7,0,12.1,1.6,15.2,3.4l-2.4,7.2c-2.2-1.2-6.8-3.3-13.1-3.3c-9.4,0-13,5.6-13,10.3
			c0,6.4,4.2,9.6,13.7,13.3c11.6,4.5,17.5,10.1,17.5,20.2c0,10.6-7.9,19.8-24.1,19.8c-6.6,0-13.9-1.9-17.5-4.4L185.6,678.4z"/>
		<path d="M272.8,657H246v24.8h29.8v7.4h-38.7v-68.8h37.1v7.4H246v21.7h26.7V657z"/>
		<path d="M287.3,621.4c4.5-0.9,10.9-1.4,17-1.4c9.5,0,15.6,1.7,19.9,5.6c3.5,3.1,5.4,7.8,5.4,13.1c0,9.1-5.7,15.1-13,17.5v0.3
			c5.3,1.8,8.5,6.7,10.1,13.9c2.2,9.6,3.9,16.2,5.3,18.9h-9.2c-1.1-1.9-2.7-7.9-4.6-16.4c-2-9.5-5.7-13.1-13.8-13.4h-8.4v29.8h-8.9
			V621.4z M296.2,652.7h9.1c9.5,0,15.5-5.2,15.5-13.1c0-8.9-6.4-12.8-15.8-12.9c-4.3,0-7.3,0.4-8.8,0.8V652.7z"/>
		<path d="M358.9,689.2l-22.4-68.8h9.6l10.7,33.9c3,9.3,5.5,17.6,7.3,25.7h0.2c1.9-8,4.8-16.6,7.9-25.6l11.6-34h9.5l-24.6,68.8
			H358.9z"/>
		<path d="M436.4,657h-26.7v24.8h29.8v7.4h-38.7v-68.8h37.1v7.4h-28.3v21.7h26.7V657z"/>
		<path d="M450.9,621.4c4.5-0.9,10.9-1.4,17-1.4c9.5,0,15.6,1.7,19.9,5.6c3.5,3.1,5.4,7.8,5.4,13.1c0,9.1-5.7,15.1-13,17.5v0.3
			c5.3,1.8,8.5,6.7,10.1,13.9c2.2,9.6,3.9,16.2,5.3,18.9h-9.2c-1.1-1.9-2.7-7.9-4.6-16.4c-2-9.5-5.7-13.1-13.8-13.4h-8.4v29.8h-8.9
			V621.4z M459.8,652.7h9.1c9.5,0,15.5-5.2,15.5-13.1c0-8.9-6.4-12.8-15.8-12.9c-4.3,0-7.3,0.4-8.8,0.8V652.7z"/>
		<path d="M526.2,678.4c4,2.4,9.8,4.5,15.9,4.5c9.1,0,14.4-4.8,14.4-11.7c0-6.4-3.7-10.1-13-13.7c-11.2-4-18.2-9.8-18.2-19.5
			c0-10.7,8.9-18.7,22.2-18.7c7,0,12.1,1.6,15.2,3.4l-2.4,7.2c-2.2-1.2-6.8-3.3-13.1-3.3c-9.4,0-13,5.6-13,10.3
			c0,6.4,4.2,9.6,13.7,13.3c11.6,4.5,17.5,10.1,17.5,20.2c0,10.6-7.9,19.8-24.1,19.8c-6.6,0-13.9-1.9-17.5-4.4L526.2,678.4z"/>
		<path d="M593,689.2v-29.2l-21.7-39.6h10.1l9.7,19c2.7,5.2,4.7,9.4,6.8,14.2h0.2c1.9-4.5,4.3-9,6.9-14.2l9.9-19h10.1L602,660v29.3
			H593z"/>
		<path d="M630.4,678.4c4,2.4,9.8,4.5,15.9,4.5c9.1,0,14.4-4.8,14.4-11.7c0-6.4-3.7-10.1-13-13.7c-11.2-4-18.2-9.8-18.2-19.5
			c0-10.7,8.9-18.7,22.2-18.7c7,0,12.1,1.6,15.2,3.4l-2.4,7.2c-2.2-1.2-6.8-3.3-13.1-3.3c-9.4,0-13,5.6-13,10.3
			c0,6.4,4.2,9.6,13.7,13.3c11.6,4.5,17.5,10.1,17.5,20.2c0,10.6-7.9,19.8-24.1,19.8c-6.6,0-13.9-1.9-17.5-4.4L630.4,678.4z"/>
		<path d="M694.9,628H674v-7.5h50.9v7.5h-21v61.2h-9V628z"/>
		<path d="M768.2,657h-26.7v24.8h29.8v7.4h-38.7v-68.8h37.1v7.4h-28.3v21.7h26.7V657z"/>
		<path d="M840.7,659c-0.5-9.6-1.1-21.1-1-29.7h-0.3c-2.3,8.1-5.2,16.6-8.7,26.1l-12.1,33.4h-6.7l-11.1-32.7c-3.3-9.7-6-18.6-8-26.7
			h-0.2c-0.2,8.6-0.7,20.1-1.3,30.4l-1.8,29.5h-8.5l4.8-68.8H797l11.7,33.3c2.9,8.5,5.2,16,6.9,23.2h0.3c1.7-6.9,4.2-14.5,7.2-23.2
			l12.2-33.3h11.3l4.3,68.8h-8.7L840.7,659z"/>
	</g>
	<g>
		<path d="M125.1,791.6c1.5,0.9,3.7,1.7,6.1,1.7c3.5,0,5.5-1.8,5.5-4.5c0-2.5-1.4-3.9-5-5.2c-4.3-1.5-6.9-3.7-6.9-7.4
			c0-4.1,3.4-7.1,8.5-7.1c2.7,0,4.6,0.6,5.8,1.3l-0.9,2.8c-0.9-0.5-2.6-1.2-5-1.2c-3.6,0-5,2.1-5,3.9c0,2.5,1.6,3.7,5.2,5.1
			c4.4,1.7,6.7,3.9,6.7,7.7c0,4.1-3,7.6-9.2,7.6c-2.5,0-5.3-0.7-6.7-1.7L125.1,791.6z"/>
		<path d="M146.8,786.9c0.1,4.6,3,6.6,6.5,6.6c2.5,0,3.9-0.4,5.2-1l0.6,2.5c-1.2,0.5-3.3,1.2-6.3,1.2c-5.8,0-9.3-3.8-9.3-9.5
			s3.4-10.2,8.9-10.2c6.2,0,7.8,5.4,7.8,8.9c0,0.7-0.1,1.2-0.1,1.6H146.8z M156.9,784.4c0-2.2-0.9-5.6-4.8-5.6c-3.5,0-5,3.2-5.3,5.6
			H156.9z"/>
		<path d="M164.4,782.7c0-2.2,0-4.1-0.2-5.9h3l0.1,3.7h0.2c0.9-2.5,2.9-4.1,5.2-4.1c0.4,0,0.7,0,1,0.1v3.2c-0.4-0.1-0.7-0.1-1.2-0.1
			c-2.4,0-4.1,1.8-4.6,4.4c-0.1,0.5-0.2,1-0.2,1.6v10.1h-3.4V782.7z"/>
		<path d="M179.5,776.8l3.7,10.6c0.6,1.7,1.1,3.3,1.5,4.8h0.1c0.4-1.6,1-3.1,1.6-4.8l3.7-10.6h3.6l-7.4,18.9H183l-7.2-18.9H179.5z"
			/>
		<path d="M198.4,786.9c0.1,4.6,3,6.6,6.5,6.6c2.5,0,3.9-0.4,5.2-1l0.6,2.5c-1.2,0.5-3.3,1.2-6.3,1.2c-5.8,0-9.3-3.8-9.3-9.5
			s3.4-10.2,8.9-10.2c6.2,0,7.8,5.4,7.8,8.9c0,0.7-0.1,1.2-0.1,1.6H198.4z M208.5,784.4c0-2.2-0.9-5.6-4.8-5.6c-3.5,0-5,3.2-5.3,5.6
			H208.5z"/>
		<path d="M216.1,782.7c0-2.2,0-4.1-0.2-5.9h3l0.1,3.7h0.2c0.9-2.5,2.9-4.1,5.2-4.1c0.4,0,0.7,0,1,0.1v3.2c-0.4-0.1-0.7-0.1-1.2-0.1
			c-2.4,0-4.1,1.8-4.6,4.4c-0.1,0.5-0.2,1-0.2,1.6v10.1h-3.4V782.7z"/>
		<path d="M236.7,791.6c1.5,0.9,3.7,1.7,6.1,1.7c3.5,0,5.5-1.8,5.5-4.5c0-2.5-1.4-3.9-5-5.2c-4.3-1.5-6.9-3.7-6.9-7.4
			c0-4.1,3.4-7.1,8.5-7.1c2.7,0,4.6,0.6,5.8,1.3l-0.9,2.8c-0.9-0.5-2.6-1.2-5-1.2c-3.6,0-5,2.1-5,3.9c0,2.5,1.6,3.7,5.2,5.1
			c4.4,1.7,6.7,3.9,6.7,7.7c0,4.1-3,7.6-9.2,7.6c-2.5,0-5.3-0.7-6.7-1.7L236.7,791.6z"/>
		<path d="M257.2,776.8l4.1,11.2c0.4,1.2,0.9,2.7,1.2,3.9h0.1c0.4-1.1,0.7-2.6,1.2-3.9l3.7-11.1h3.6l-5.1,13.5
			c-2.5,6.5-4.1,9.8-6.5,11.8c-1.7,1.5-3.4,2.1-4.2,2.2l-0.9-2.9c0.9-0.3,2-0.8,3-1.7c0.9-0.7,2.1-2.1,2.9-3.8
			c0.2-0.4,0.3-0.6,0.3-0.8s-0.1-0.5-0.2-0.9l-7-17.4H257.2z"/>
		<path d="M273.7,792.2c1,0.7,2.8,1.4,4.5,1.4c2.5,0,3.7-1.2,3.7-2.8c0-1.6-1-2.5-3.5-3.5c-3.4-1.2-5-3.1-5-5.3c0-3,2.5-5.5,6.5-5.5
			c1.9,0,3.6,0.5,4.6,1.2l-0.9,2.5c-0.7-0.5-2.1-1.1-3.9-1.1c-2,0-3.2,1.2-3.2,2.6c0,1.6,1.1,2.3,3.6,3.2c3.3,1.2,5,2.9,5,5.7
			c0,3.3-2.6,5.7-7.1,5.7c-2.1,0-4-0.5-5.3-1.3L273.7,792.2z"/>
		<path d="M293.7,771.4v5.4h4.9v2.6h-4.9v10.2c0,2.3,0.7,3.7,2.6,3.7c0.9,0,1.6-0.1,2-0.2l0.2,2.6c-0.7,0.3-1.7,0.5-3,0.5
			c-1.6,0-2.9-0.5-3.7-1.4c-1-1-1.3-2.7-1.3-4.9v-10.3h-2.9v-2.6h2.9v-4.5L293.7,771.4z"/>
		<path d="M304.2,786.9c0.1,4.6,3,6.6,6.5,6.6c2.5,0,3.9-0.4,5.2-1l0.6,2.5c-1.2,0.5-3.3,1.2-6.3,1.2c-5.8,0-9.3-3.8-9.3-9.5
			s3.4-10.2,8.9-10.2c6.2,0,7.8,5.4,7.8,8.9c0,0.7-0.1,1.2-0.1,1.6H304.2z M314.2,784.4c0-2.2-0.9-5.6-4.8-5.6c-3.5,0-5,3.2-5.3,5.6
			H314.2z"/>
		<path d="M321.8,781.9c0-2,0-3.5-0.2-5.1h3l0.2,3h0.1c1.1-1.8,2.8-3.5,5.9-3.5c2.6,0,4.5,1.6,5.3,3.8h0.1c0.6-1.1,1.3-1.9,2.1-2.5
			c1.1-0.9,2.4-1.3,4.2-1.3c2.5,0,6.2,1.6,6.2,8.2v11.1h-3.4V785c0-3.6-1.3-5.8-4.1-5.8c-1.9,0-3.5,1.4-4.1,3.1
			c-0.2,0.5-0.3,1.1-0.3,1.7v11.7h-3.4v-11.3c0-3-1.3-5.2-3.9-5.2c-2.1,0-3.7,1.7-4.3,3.4c-0.2,0.5-0.3,1.1-0.3,1.7v11.4h-3.4V781.9
			z"/>
		<path d="M362.9,795.7v-16.3h-2.7v-2.6h2.7v-0.9c0-2.7,0.6-5.1,2.2-6.6c1.3-1.2,3-1.8,4.6-1.8c1.2,0,2.3,0.3,2.9,0.5l-0.5,2.7
			c-0.5-0.2-1.2-0.4-2.2-0.4c-2.9,0-3.7,2.6-3.7,5.5v1h4.6v2.6h-4.6v16.3H362.9z"/>
		<path d="M390.5,786.1c0,7-4.8,10-9.4,10c-5.1,0-9-3.7-9-9.7c0-6.3,4.1-10,9.4-10C386.9,776.4,390.5,780.3,390.5,786.1z
			 M375.6,786.3c0,4.1,2.4,7.3,5.7,7.3c3.3,0,5.7-3.1,5.7-7.3c0-3.2-1.6-7.3-5.7-7.3C377.3,779,375.6,782.7,375.6,786.3z"/>
		<path d="M394.9,782.7c0-2.2,0-4.1-0.2-5.9h3l0.1,3.7h0.2c0.9-2.5,2.9-4.1,5.2-4.1c0.4,0,0.7,0,1,0.1v3.2c-0.4-0.1-0.7-0.1-1.2-0.1
			c-2.4,0-4.1,1.8-4.6,4.4c-0.1,0.5-0.2,1-0.2,1.6v10.1h-3.4V782.7z"/>
		<path d="M416,769.8c2.1-0.3,4.5-0.5,7.2-0.5c4.9,0,8.3,1.1,10.6,3.3c2.3,2.1,3.7,5.2,3.7,9.4c0,4.3-1.3,7.8-3.8,10.2
			c-2.5,2.5-6.5,3.8-11.6,3.8c-2.4,0-4.4-0.1-6.2-0.3V769.8z M419.4,793c0.9,0.2,2.1,0.2,3.4,0.2c7.3,0,11.2-4.1,11.2-11.2
			c0-6.2-3.5-10.1-10.6-10.1c-1.8,0-3.1,0.2-4,0.4V793z"/>
		<path d="M443.9,786.9c0.1,4.6,3,6.6,6.5,6.6c2.5,0,3.9-0.4,5.2-1l0.6,2.5c-1.2,0.5-3.3,1.2-6.3,1.2c-5.8,0-9.3-3.8-9.3-9.5
			s3.4-10.2,8.9-10.2c6.2,0,7.8,5.4,7.8,8.9c0,0.7-0.1,1.2-0.1,1.6H443.9z M454,784.4c0-2.2-0.9-5.6-4.8-5.6c-3.5,0-5,3.2-5.3,5.6
			H454z"/>
		<path d="M462.9,776.8l3.7,10.6c0.6,1.7,1.1,3.3,1.5,4.8h0.1c0.4-1.6,1-3.1,1.6-4.8l3.7-10.6h3.6l-7.4,18.9h-3.3l-7.2-18.9H462.9z"
			/>
		<path d="M484.1,771.5c0,1.2-0.8,2.1-2.2,2.1c-1.2,0-2.1-0.9-2.1-2.1c0-1.2,0.9-2.1,2.1-2.1C483.3,769.4,484.1,770.3,484.1,771.5z
			 M480.3,795.7v-18.9h3.4v18.9H480.3z"/>
		<path d="M502.9,795c-0.9,0.5-2.9,1.1-5.4,1.1c-5.7,0-9.4-3.9-9.4-9.6c0-5.8,4-10,10.1-10c2,0,3.8,0.5,4.8,1l-0.8,2.7
			c-0.8-0.5-2.1-0.9-4-0.9c-4.3,0-6.7,3.2-6.7,7.1c0,4.4,2.8,7.1,6.6,7.1c2,0,3.2-0.5,4.2-0.9L502.9,795z"/>
		<path d="M508.6,786.9c0.1,4.6,3,6.6,6.5,6.6c2.5,0,3.9-0.4,5.2-1l0.6,2.5c-1.2,0.5-3.3,1.2-6.3,1.2c-5.8,0-9.3-3.8-9.3-9.5
			s3.4-10.2,8.9-10.2c6.2,0,7.8,5.4,7.8,8.9c0,0.7-0.1,1.2-0.1,1.6H508.6z M518.7,784.4c0-2.2-0.9-5.6-4.8-5.6c-3.5,0-5,3.2-5.3,5.6
			H518.7z"/>
		<path d="M544.9,795.7l-0.3-2.4h-0.1c-1.1,1.5-3.1,2.8-5.8,2.8c-3.8,0-5.8-2.7-5.8-5.4c0-4.6,4.1-7.1,11.3-7v-0.4
			c0-1.6-0.4-4.4-4.3-4.4c-1.8,0-3.6,0.5-4.9,1.4l-0.8-2.3c1.6-1,3.8-1.7,6.2-1.7c5.8,0,7.2,3.9,7.2,7.7v7.1c0,1.6,0.1,3.2,0.3,4.5
			H544.9z M544.4,786.1c-3.7-0.1-8,0.6-8,4.3c0,2.2,1.5,3.3,3.2,3.3c2.5,0,4-1.6,4.6-3.2c0.1-0.4,0.2-0.7,0.2-1.1V786.1z"/>
		<path d="M553.3,781.9c0-2,0-3.5-0.2-5.1h3l0.2,3.1h0.1c0.9-1.8,3.1-3.5,6.2-3.5c2.6,0,6.7,1.6,6.7,8v11.3h-3.4v-10.9
			c0-3-1.1-5.6-4.4-5.6c-2.3,0-4,1.6-4.6,3.5c-0.2,0.4-0.2,1-0.2,1.6v11.3h-3.4V781.9z"/>
		<path d="M591.2,768v22.8c0,1.7,0,3.6,0.2,4.9h-3.1l-0.2-3.3h-0.1c-1.1,2.1-3.4,3.7-6.4,3.7c-4.6,0-8.1-3.9-8.1-9.6
			c0-6.3,3.9-10.1,8.5-10.1c2.9,0,4.8,1.4,5.7,2.9h0.1V768H591.2z M587.8,784.5c0-0.4,0-1-0.2-1.4c-0.5-2.2-2.4-4-5-4
			c-3.5,0-5.7,3.1-5.7,7.3c0,3.8,1.9,7,5.6,7c2.3,0,4.4-1.5,5-4.1c0.1-0.5,0.2-0.9,0.2-1.5V784.5z"/>
		<path d="M605.3,769.8c2.1-0.3,4.5-0.5,7.2-0.5c4.9,0,8.3,1.1,10.6,3.3c2.3,2.1,3.7,5.2,3.7,9.4c0,4.3-1.3,7.8-3.8,10.2
			c-2.5,2.5-6.5,3.8-11.6,3.8c-2.4,0-4.4-0.1-6.2-0.3V769.8z M608.7,793c0.9,0.2,2.1,0.2,3.4,0.2c7.3,0,11.2-4.1,11.2-11.2
			c0-6.2-3.5-10.1-10.6-10.1c-1.8,0-3.1,0.2-4,0.4V793z"/>
		<path d="M641.6,795.7l-0.3-2.4h-0.1c-1.1,1.5-3.1,2.8-5.8,2.8c-3.8,0-5.8-2.7-5.8-5.4c0-4.6,4.1-7.1,11.3-7v-0.4
			c0-1.6-0.4-4.4-4.3-4.4c-1.8,0-3.6,0.5-4.9,1.4l-0.8-2.3c1.6-1,3.8-1.7,6.2-1.7c5.8,0,7.2,3.9,7.2,7.7v7.1c0,1.6,0.1,3.2,0.3,4.5
			H641.6z M641.1,786.1c-3.7-0.1-8,0.6-8,4.3c0,2.2,1.5,3.3,3.2,3.3c2.5,0,4-1.6,4.6-3.2c0.1-0.4,0.2-0.7,0.2-1.1V786.1z"/>
		<path d="M653.9,771.4v5.4h4.9v2.6h-4.9v10.2c0,2.3,0.7,3.7,2.6,3.7c0.9,0,1.6-0.1,2-0.2l0.2,2.6c-0.7,0.3-1.7,0.5-3,0.5
			c-1.6,0-2.9-0.5-3.7-1.4c-1-1-1.3-2.7-1.3-4.9v-10.3h-2.9v-2.6h2.9v-4.5L653.9,771.4z"/>
		<path d="M673.2,795.7l-0.3-2.4h-0.1c-1.1,1.5-3.1,2.8-5.8,2.8c-3.8,0-5.8-2.7-5.8-5.4c0-4.6,4.1-7.1,11.3-7v-0.4
			c0-1.6-0.4-4.4-4.3-4.4c-1.8,0-3.6,0.5-4.9,1.4l-0.8-2.3c1.6-1,3.8-1.7,6.2-1.7c5.8,0,7.2,3.9,7.2,7.7v7.1c0,1.6,0.1,3.2,0.3,4.5
			H673.2z M672.7,786.1c-3.7-0.1-8,0.6-8,4.3c0,2.2,1.5,3.3,3.2,3.3c2.5,0,4-1.6,4.6-3.2c0.1-0.4,0.2-0.7,0.2-1.1V786.1z"/>
		<path d="M712.1,784.1c-0.2-3.7-0.4-8.1-0.4-11.3h-0.1c-0.9,3.1-2,6.4-3.3,10l-4.6,12.8H701l-4.3-12.5c-1.2-3.7-2.3-7.1-3-10.2
			h-0.1c-0.1,3.3-0.3,7.7-0.5,11.6l-0.7,11.3h-3.2l1.8-26.3h4.3l4.5,12.7c1.1,3.2,2,6.1,2.7,8.9h0.1c0.7-2.7,1.6-5.5,2.8-8.9
			l4.7-12.7h4.3l1.6,26.3h-3.3L712.1,784.1z"/>
		<path d="M731.8,795.7l-0.3-2.4h-0.1c-1.1,1.5-3.1,2.8-5.8,2.8c-3.8,0-5.8-2.7-5.8-5.4c0-4.6,4.1-7.1,11.3-7v-0.4
			c0-1.6-0.4-4.4-4.3-4.4c-1.8,0-3.6,0.5-4.9,1.4l-0.8-2.3c1.6-1,3.8-1.7,6.2-1.7c5.8,0,7.2,3.9,7.2,7.7v7.1c0,1.6,0.1,3.2,0.3,4.5
			H731.8z M731.3,786.1c-3.7-0.1-8,0.6-8,4.3c0,2.2,1.5,3.3,3.2,3.3c2.5,0,4-1.6,4.6-3.2c0.1-0.4,0.2-0.7,0.2-1.1V786.1z"/>
		<path d="M740.2,781.9c0-2,0-3.5-0.2-5.1h3l0.2,3.1h0.1c0.9-1.8,3.1-3.5,6.2-3.5c2.6,0,6.7,1.6,6.7,8v11.3h-3.4v-10.9
			c0-3-1.1-5.6-4.4-5.6c-2.3,0-4,1.6-4.6,3.5c-0.2,0.4-0.2,1-0.2,1.6v11.3h-3.4V781.9z"/>
		<path d="M772.3,795.7l-0.3-2.4h-0.1c-1.1,1.5-3.1,2.8-5.8,2.8c-3.8,0-5.8-2.7-5.8-5.4c0-4.6,4.1-7.1,11.3-7v-0.4
			c0-1.6-0.4-4.4-4.3-4.4c-1.8,0-3.6,0.5-4.9,1.4l-0.8-2.3c1.6-1,3.8-1.7,6.2-1.7c5.8,0,7.2,3.9,7.2,7.7v7.1c0,1.6,0.1,3.2,0.3,4.5
			H772.3z M771.8,786.1c-3.7-0.1-8,0.6-8,4.3c0,2.2,1.5,3.3,3.2,3.3c2.5,0,4-1.6,4.6-3.2c0.1-0.4,0.2-0.7,0.2-1.1V786.1z"/>
		<path d="M796.9,776.8c-0.1,1.4-0.2,2.9-0.2,5.2v11c0,4.3-0.9,7-2.7,8.6c-1.8,1.7-4.5,2.3-6.9,2.3c-2.3,0-4.8-0.5-6.3-1.6l0.9-2.6
			c1.2,0.8,3.2,1.5,5.5,1.5c3.5,0,6.1-1.8,6.1-6.6v-2.1h-0.1c-1.1,1.8-3.1,3.2-6,3.2c-4.7,0-8-4-8-9.2c0-6.4,4.2-10,8.5-10
			c3.3,0,5.1,1.7,5.9,3.3h0.1l0.2-2.8H796.9z M793.3,784.3c0-0.6,0-1.1-0.2-1.6c-0.6-2-2.3-3.6-4.8-3.6c-3.3,0-5.6,2.8-5.6,7.1
			c0,3.7,1.9,6.8,5.6,6.8c2.1,0,4-1.3,4.8-3.5c0.2-0.6,0.3-1.2,0.3-1.8V784.3z"/>
		<path d="M804.3,786.9c0.1,4.6,3,6.6,6.5,6.6c2.5,0,3.9-0.4,5.2-1l0.6,2.5c-1.2,0.5-3.3,1.2-6.3,1.2c-5.8,0-9.3-3.8-9.3-9.5
			s3.4-10.2,8.9-10.2c6.2,0,7.8,5.4,7.8,8.9c0,0.7-0.1,1.2-0.1,1.6H804.3z M814.4,784.4c0-2.2-0.9-5.6-4.8-5.6c-3.5,0-5,3.2-5.3,5.6
			H814.4z"/>
		<path d="M822,781.9c0-2,0-3.5-0.2-5.1h3l0.2,3h0.1c1.1-1.8,2.8-3.5,5.9-3.5c2.6,0,4.5,1.6,5.3,3.8h0.1c0.6-1.1,1.3-1.9,2.1-2.5
			c1.1-0.9,2.4-1.3,4.2-1.3c2.5,0,6.2,1.6,6.2,8.2v11.1h-3.4V785c0-3.6-1.3-5.8-4.1-5.8c-1.9,0-3.5,1.4-4.1,3.1
			c-0.2,0.5-0.3,1.1-0.3,1.7v11.7h-3.4v-11.3c0-3-1.3-5.2-3.9-5.2c-2.1,0-3.7,1.7-4.3,3.4c-0.2,0.5-0.3,1.1-0.3,1.7v11.4H822V781.9z
			"/>
		<path d="M856.4,786.9c0.1,4.6,3,6.6,6.5,6.6c2.5,0,3.9-0.4,5.2-1l0.6,2.5c-1.2,0.5-3.3,1.2-6.3,1.2c-5.8,0-9.3-3.8-9.3-9.5
			s3.4-10.2,8.9-10.2c6.2,0,7.8,5.4,7.8,8.9c0,0.7-0.1,1.2-0.1,1.6H856.4z M866.5,784.4c0-2.2-0.9-5.6-4.8-5.6c-3.5,0-5,3.2-5.3,5.6
			H866.5z"/>
		<path d="M874,781.9c0-2,0-3.5-0.2-5.1h3l0.2,3.1h0.1c0.9-1.8,3.1-3.5,6.2-3.5c2.6,0,6.7,1.6,6.7,8v11.3h-3.4v-10.9
			c0-3-1.1-5.6-4.4-5.6c-2.3,0-4,1.6-4.6,3.5c-0.2,0.4-0.2,1-0.2,1.6v11.3H874V781.9z"/>
		<path d="M899.6,771.4v5.4h4.9v2.6h-4.9v10.2c0,2.3,0.7,3.7,2.6,3.7c0.9,0,1.6-0.1,2-0.2l0.2,2.6c-0.7,0.3-1.7,0.5-3,0.5
			c-1.6,0-2.9-0.5-3.7-1.4c-1-1-1.3-2.7-1.3-4.9v-10.3h-2.9v-2.6h2.9v-4.5L899.6,771.4z"/>
		<path d="M907.5,793.7c0-1.4,1-2.5,2.3-2.5s2.3,1,2.3,2.5c0,1.4-0.9,2.5-2.3,2.5C908.4,796.1,907.5,795.1,907.5,793.7z"/>
	</g>
	<path class="st16" d="M1710,655.5h-474c-6.6,0-12-5.4-12-12V536.5c0-6.6,5.4-12,12-12h474c6.6,0,12,5.4,12,12v106.9
		C1722,650.1,1716.6,655.5,1710,655.5z"/>
	<path class="st0" d="M1236,655.5c-6.6,0-12-5.4-12-12V536.5c0-6.6,5.4-12,12-12l237,0.5v130L1236,655.5z"/>
	<g>
		<path d="M1371.5,607.4c-1.9,1-5.8,1.9-10.7,1.9c-11.4,0-20-7.2-20-20.5c0-12.7,8.6-21.2,21.1-21.2c5,0,8.2,1.1,9.6,1.8l-1.3,4.3
			c-2-1-4.8-1.7-8.2-1.7c-9.5,0-15.8,6.1-15.8,16.7c0,9.9,5.7,16.3,15.5,16.3c3.2,0,6.4-0.7,8.5-1.7L1371.5,607.4z"/>
		<path d="M1392.5,608.8v-10.6h-18.1v-3.5l17.4-24.9h5.7V594h5.5v4.1h-5.5v10.6H1392.5z M1392.5,594v-13c0-2,0.1-4.1,0.2-6.1h-0.2
			c-1.2,2.3-2.2,4-3.2,5.8l-9.5,13.3v0.1H1392.5z"/>
		<path d="M1439.6,607c-2.3,0.8-7,2.2-12.4,2.2c-6.1,0-11.2-1.6-15.1-5.3c-3.5-3.4-5.6-8.8-5.6-15.1c0.1-12.1,8.3-20.9,21.9-20.9
			c4.7,0,8.3,1,10.1,1.9l-1.3,4.3c-2.2-1-4.9-1.7-8.9-1.7c-9.8,0-16.3,6.1-16.3,16.3c0,10.3,6.2,16.3,15.6,16.3c3.4,0,5.8-0.5,7-1.1
			v-12.1h-8.2v-4.2h13.3V607z"/>
	</g>
	<g>
		<path d="M1498.6,603.4c1.6,1,4.3,2.1,7,2.1c3.8,0,5.6-1.9,5.6-4.3c0-2.5-1.5-3.9-5.4-5.3c-5.2-1.9-7.7-4.7-7.7-8.2
			c0-4.7,3.8-8.5,10-8.5c2.9,0,5.5,0.8,7.1,1.8l-1.3,3.8c-1.1-0.7-3.2-1.7-5.9-1.7c-3.1,0-4.9,1.8-4.9,4c0,2.4,1.7,3.5,5.5,4.9
			c5,1.9,7.6,4.4,7.6,8.8c0,5.1-4,8.7-10.9,8.7c-3.2,0-6.1-0.8-8.2-2L1498.6,603.4z"/>
		<path d="M1526,595.2c0.1,7.1,4.7,10.1,10,10.1c3.8,0,6.1-0.7,8-1.5l0.9,3.8c-1.9,0.8-5,1.8-9.7,1.8c-8.9,0-14.3-5.9-14.3-14.6
			s5.2-15.7,13.6-15.7c9.5,0,12,8.3,12,13.7c0,1.1-0.1,1.9-0.2,2.5H1526z M1541.5,591.4c0.1-3.4-1.4-8.6-7.3-8.6
			c-5.3,0-7.7,4.9-8.1,8.6H1541.5z"/>
		<path d="M1553.1,588.8c0-3.4-0.1-6.4-0.2-9.1h4.6l0.2,5.7h0.2c1.3-3.9,4.5-6.4,8-6.4c0.6,0,1,0.1,1.5,0.2v5
			c-0.5-0.1-1.1-0.2-1.8-0.2c-3.7,0-6.4,2.8-7.1,6.8c-0.1,0.7-0.2,1.6-0.2,2.5v15.5h-5.2V588.8z"/>
		<path d="M1576.3,579.7l5.7,16.3c1,2.6,1.7,5,2.3,7.4h0.2c0.7-2.4,1.5-4.8,2.5-7.4l5.6-16.3h5.5l-11.4,29h-5l-11-29H1576.3z"/>
		<path d="M1605.4,595.2c0.1,7.1,4.7,10.1,10,10.1c3.8,0,6.1-0.7,8-1.5l0.9,3.8c-1.9,0.8-5,1.8-9.7,1.8c-8.9,0-14.3-5.9-14.3-14.6
			s5.2-15.7,13.6-15.7c9.5,0,12,8.3,12,13.7c0,1.1-0.1,1.9-0.2,2.5H1605.4z M1620.9,591.4c0.1-3.4-1.4-8.6-7.3-8.6
			c-5.3,0-7.7,4.9-8.1,8.6H1620.9z"/>
		<path d="M1632.6,588.8c0-3.4-0.1-6.4-0.2-9.1h4.6l0.2,5.7h0.2c1.3-3.9,4.5-6.4,8-6.4c0.6,0,1,0.1,1.5,0.2v5
			c-0.5-0.1-1.1-0.2-1.8-0.2c-3.7,0-6.4,2.8-7.1,6.8c-0.1,0.7-0.2,1.6-0.2,2.5v15.5h-5.2V588.8z"/>
	</g>
	<g id="Show-more" class="st5">
		<g class="st17">
			<path class="st16" d="M996,1080.2v-22.6c0-4,3.2-7.3,7.2-7.3h143.6c4,0,7.2,3.3,7.2,7.3v22.6H996z"/>
			<path class="st15" d="M1076.2,1080.2l0.1-29.9h70.6c4,0,7.2,3.3,7.2,7.3v22.6H1076.2z"/>
		</g>
		<text transform="matrix(1 0 0 1 1013.9043 1074.79)" class="st17 st18 st19">Show more</text>
	</g>
	<g>
		<path class="st20" d="M1666.5,231.9c3.6-9.5,5.7-19.9,5.7-30.8c0-47.1-38.2-85.3-85.3-85.3c-17.5,0-33.9,5.3-47.4,14.4
			c-24.6-42.7-70.6-71.3-123.3-71.3c-78.6,0-142.2,63.6-142.2,142.2c0,2.4,0.1,4.8,0.2,7.2c-49.8,17.5-85.5,65-85.5,120.8
			c0,70.7,57.3,128,128,128h327.1c62.8,0,113.8-50.9,113.8-113.8C1757.5,288.3,1718.4,242.4,1666.5,231.9z"/>
		<path d="M1384.3,281.2v14.5c0,12.7-31.7,23.1-70.8,23.1s-70.8-10.4-70.8-23.1v-14.5c0-12.7,31.7-23.1,70.8-23.1
			S1384.3,268.4,1384.3,281.2z M1384.3,313.7v32.5c0,12.7-31.7,23.1-70.8,23.1s-70.8-10.4-70.8-23.1v-32.5
			c15.2,10.5,43.1,15.4,70.8,15.4C1341.2,329,1369,324.2,1384.3,313.7z M1384.3,364.3v32.5c0,12.7-31.7,23.1-70.8,23.1
			s-70.8-10.4-70.8-23.1v-32.5c15.2,10.5,43.1,15.4,70.8,15.4C1341.2,379.6,1369,374.7,1384.3,364.3z"/>
		<path d="M1678.9,331.5h-105.5c-4.2,0-7.5-3.4-7.5-7.5v-15.1c0-4.2,3.4-7.5,7.5-7.5h105.5c4.2,0,7.5,3.4,7.5,7.5v15.1
			C1686.5,328.1,1683.1,331.5,1678.9,331.5z M1667.6,310.7c-3.1,0-5.7,2.5-5.7,5.7c0,3.1,2.5,5.7,5.7,5.7s5.7-2.5,5.7-5.7
			C1673.3,313.3,1670.8,310.7,1667.6,310.7z M1652.6,310.7c-3.1,0-5.7,2.5-5.7,5.7c0,3.1,2.5,5.7,5.7,5.7c3.1,0,5.7-2.5,5.7-5.7
			C1658.2,313.3,1655.7,310.7,1652.6,310.7z M1678.9,369.2h-105.5c-4.2,0-7.5-3.4-7.5-7.5v-15.1c0-4.2,3.4-7.5,7.5-7.5h105.5
			c4.2,0,7.5,3.4,7.5,7.5v15.1C1686.5,365.8,1683.1,369.2,1678.9,369.2z M1667.6,348.4c-3.1,0-5.7,2.5-5.7,5.7s2.5,5.7,5.7,5.7
			s5.7-2.5,5.7-5.7S1670.8,348.4,1667.6,348.4z M1652.6,348.4c-3.1,0-5.7,2.5-5.7,5.7s2.5,5.7,5.7,5.7c3.1,0,5.7-2.5,5.7-5.7
			S1655.7,348.4,1652.6,348.4z M1678.9,406.9h-105.5c-4.2,0-7.5-3.4-7.5-7.5v-15.1c0-4.2,3.4-7.5,7.5-7.5h105.5
			c4.2,0,7.5,3.4,7.5,7.5v15.1C1686.5,403.5,1683.1,406.9,1678.9,406.9z M1667.6,386.1c-3.1,0-5.7,2.5-5.7,5.7
			c0,3.1,2.5,5.7,5.7,5.7s5.7-2.5,5.7-5.7C1673.3,388.7,1670.8,386.1,1667.6,386.1z M1652.6,386.1c-3.1,0-5.7,2.5-5.7,5.7
			c0,3.1,2.5,5.7,5.7,5.7c3.1,0,5.7-2.5,5.7-5.7C1658.2,388.7,1655.7,386.1,1652.6,386.1z"/>
	</g>
	<path d="M1602,964.1l11.2-9l-7.3-18.7l4.6-5.5l19.4,1.9l5.9-13.6l-16.1-12.1l0.9-7l18-7.9l-1.9-15l-20-2.4l-2.8-7l11-14.8
		l-9.5-11.9l-16.5,7.8l-6.8-5l2.8-19.2l-14-5.6l-11.2,15.9l-7.8-0.7l-8-18.2l-14.7,2.2l-2.4,19.7l-6.7,2.8l-16.1-11.8l-11.6,9
		l8.1,18.3l-5.4,6.4l-18.9-2.2l-5.4,13.3l16.4,12.5l-1.5,7.4l-17.6,7l2.2,15.4l18.9,1.7l3.3,7.3l-12.2,15.5l9.3,12l18-8.6l6.7,4.6
		l-2.7,20l15,5.7l11.1-16.4l7.6,0.7l7.5,18.9l14.9-3l1.1-18.9l7.3-3.9L1602,964.1L1602,964.1z M1528,920.2
		c-13.2-16.5-10.5-40.6,6.1-53.8c16.6-13.2,40.6-10.5,53.8,6.1s10.5,40.6-6.1,53.8C1565.2,939.5,1541.2,936.8,1528,920.2z
		 M1549.7,965.2l12.1,30.8l-21.1,16.8l-30.2-23.4l-13.7,7.4l-2.3,35.4l-28.1,5.8l-13.9-35.5l-14.2-1.3l-20.7,30.9l-28.1-10.7l5-37.5
		l-12.6-8.7l-33.8,16.1l-17.6-22.6l23-29.2l-6.2-13.8l-35.6-3.1l-4.3-28.9l33-13.2l2.7-14l-30.8-23.4l10.1-25l35.7,4.3l10-12.1
		l-15.3-34.4l21.8-16.9l30.2,22l12.8-5.3l4.4-37.1l27.6-4.1l15.1,34.2l14.7,1.4l21-29.9l26.2,10.5l-5.3,36l12.8,9.4l32.3-15.7
		l17.8,22.4l-19.3,25.4l-6.4-14.4l-1.8-4l-4.4,0.7l-14.7,2.2l-4.3,0.6l-0.5,4.4l-1.9,16.4l-0.7,0.3l-13.4-9.8l-3.5-2.6l-3.4,2.6
		l-6.9,5.3c-25.5-20.7-62.9-21.8-89.6-0.4c-30.8,24.5-35.9,69.4-11.3,100.2c21.2,26.6,57.6,34,87.1,19.6l5.4,7l2.8,3.7l4.2-2l15-7.1
		l1.1,0.8l-2.2,16.5l-0.6,4.5l4.2,1.6l15,5.7l4.3,1.6l2.6-3.8L1549.7,965.2L1549.7,965.2z"/>
</g>
<g id="Layer_2">
</g>
</svg>
