<?xml version="1.0" encoding="utf-8"?>
<!-- Generator: Adobe Illustrator 22.0.1, SVG Export Plug-In . SVG Version: 6.00 Build 0)  -->
<svg version="1.1" xmlns="http://www.w3.org/2000/svg" xmlns:xlink="http://www.w3.org/1999/xlink" x="0px" y="0px"
	 viewBox="0 0 1920 1080" style="enable-background:new 0 0 1920 1080;" xml:space="preserve">
<style type="text/css">
	.st0{fill:#E7F2EC;}
	.st1{display:none;fill:#385D14;}
	.st2{display:none;fill:#4E9A06;}
	.st3{fill:#222222;}
	.st4{fill:#33EC00;}
	.st5{display:none;}
	.st6{display:inline;fill:#5FD93E;}
	.st7{display:inline;fill:url(#SVGID_1_);}
	.st8{display:inline;fill:#3E9A00;}
	.st9{display:inline;fill:url(#SVGID_2_);}
	.st10{display:inline;fill:url(#SVGID_3_);}
	.st11{fill:url(#SVGID_4_);}
	.st12{fill:#3E9A00;}
	.st13{fill:url(#SVGID_5_);}
	.st14{fill:url(#SVGID_6_);}
	.st15{fill:#75C697;}
	.st16{fill:#FFFFFF;}
	.st17{display:inline;}
	.st18{font-family:'MyriadPro-Regular';}
	.st19{font-size:26px;}
	.st20{display:none;fill:none;stroke:#000000;stroke-width:5;stroke-miterlimit:10;}
	.st21{fill:none;stroke:#000000;stroke-width:5;stroke-miterlimit:10;}
	.st22{fill:#F9F9F9;}
</style>
<g id="Layer_1">
	<rect x="1473" class="st0" width="446" height="1080"/>
	<g id="Layer_7">
		<path class="st1" d="M504.1,383.2C504.1,383.3,504.1,383.3,504.1,383.2c0-1,0-2,0-3C504.1,381.2,504.1,382.2,504.1,383.2z
			 M513.2,339.5c8.2-15.8,19.3-21,20.9-21.7C532.5,318.5,521.5,323.4,513.2,339.5z M532.1,285.4c-16.3,12.7-12.6,13-12.6,13
			c6.8,3.3,25.9,1.4,25.9,1.4c1.2-2.3,38.9-41,38.9-41C558.7,265.9,532.1,285.4,532.1,285.4z"/>
		<path class="st2" d="M606.2,259.8c0,0-6.4,34.9-9.7,46.1c0,0-6.4,22.5-19.5,34.9c0,0-22.3,18.9-38.7,25.9c0,0-0.5,0.2-3.7,1.5
			c0,0-9.1-15.9-2.1-27c0,0,4.9-11.1,13-17.6c0,0,3-4.6,10.8-4.3l16.1-1.7c0,0,6.5-3.8,8.5-10.2c0,0,4.4-8.2-6.8-6.8l-9.5,0
			l26.4-32.2c0,0,5.1-9.6,0-11.9c0,0,5.7-6.3,1.3-8.5c0,0,11.1-11.1,18.6-51.7c0.2-0.2,0.4-0.5,0.5-0.8
			C611.3,195.4,613.8,213.1,606.2,259.8z"/>
		<path class="st1" d="M610.8,196.1c-7.4,40.7-18.6,51.7-18.6,51.7c-1.3-0.7-3.6-1-7.2-0.7c0,0-9.3-0.2-22.1,5.5
			c-33.1,14.8-46.9,23.4-60.1,42.7c0,0-7.9,17.1,4.9,20.9l26.6,1.4c0,0,0,0-0.2,0.1c-1.6,0.6-12.6,5.6-20.9,21.7
			c-0.1,0.2-0.2,0.3-0.3,0.5c-4.7,9.1-8.4,21.7-8.8,38.9c0,0.4,0,0.8,0,1.3c0,1,0,2,0,3c-1.1-2-28.5-53.7-3-101.3
			c0,0,18.1-27.1,54.3-44.1C555.4,237.8,598,215.2,610.8,196.1z"/>
		<path class="st3" d="M155.3,252.5c-40,0-59.9-26.4-59.9-67c0-41.9,21.1-67.2,62.2-67.2c15.9,0,28.7,3.8,38.4,11.9
			c9.2,8.3,14.3,19.5,15.7,33.7h-16.1c-5.7,0-10-2.7-12.4-7.9c-4.4-9.4-13-14.2-25.6-14.2c-24.7,0-35.6,17.4-35.6,43.7
			c0,25.5,10.5,43.5,34.8,43.5c16.6,0,26.2-9.2,29.1-23.5h25.8C209.3,235.4,188.3,252.5,155.3,252.5z"/>
		<path class="st4" d="M666.7,118.3c15.1,0,28.3,3.8,39.3,11.5c10,8.1,15.5,19.3,16.5,34.1H706c-4.8,0-8.6-2.3-11.7-6.7
			c-5.1-10.5-14.1-15.7-26.8-15.7c-22.4,0-33.9,14.1-34.1,42.7c-0.2,28.5,11.5,43.9,35.4,45.6c18,0,28.5-12.1,31.4-27.8h-15.7
			c-7.4,0-13.4-5.9-13.4-13.4v-8.3h53.1v70.2h-6.7c-6.4,0-12.4-4.2-13-10.2l-1.1-6.4c-9.2,11.9-18.6,18.4-37.3,18.4
			c-37.3,0-59.9-28.9-59.9-67C605.4,147.1,628.2,116.8,666.7,118.3z"/>
		<g>
			<path class="st3" d="M228.8,180.2h7.4v26.3h28.9v-26.3h14.6v70.4h-14.6v-31.2h-28.9v31.2h-14.6v-62.9
				C221.6,183.7,224.8,180.2,228.8,180.2z"/>
			<path class="st3" d="M286.8,187.7c0-4.9,2.4-7.5,7.3-7.6h43.7v12.2H301v15.1h27.4v4.7c0.1,4.9-2.4,7.3-7.4,7.3h-20v18.2h36.7v13
				h-51L286.8,187.7L286.8,187.7z"/>
			<path class="st3" d="M376.6,251.6c-21.7,0-32.4-14.3-32.4-36.3c0-22.7,11.4-36.3,33.7-36.3c8.6,0,15.5,2.1,20.8,6.4
				c5,4.5,7.8,10.6,8.5,18.2h-8.7c-3.1,0-5.4-1.5-6.7-4.2c-2.4-5.1-7-7.6-13.9-7.6c-13.4,0-19.3,9.4-19.3,23.6
				c0,13.8,5.7,23.5,18.9,23.5c9,0,14.2-5,15.8-12.7h14C405.7,242.5,394.4,251.6,376.6,251.6z"/>
			<path class="st3" d="M421.3,180.2h7.2v29l27.4-29h18.2l-28.1,28.6l30.6,41.8H459l-17.8-24.8c-3.1-4.1-6-5.8-8.7-4.9
				c-2.7,0.9-4,2.7-4,5.1v24.6H414v-62.9C414,183.7,417.2,180.2,421.3,180.2z"/>
		</g>
		<g>
			<path class="st4" d="M783.3,217.1c3,1.1,5.3,2.7,6.7,4.9c1.2,2.4,1.9,5.9,2.1,10.4l0.6,13.8c0.1,2.1,0.9,3.7,2.3,4.7h-15.9
				c-0.7-1.3-1-2.8-1.1-4.2c-0.3-1.1-0.5-5.1-0.6-11.9c-0.5-8.5-2.1-11.2-10.6-11.2h-15.3v27.4h-14.4V188c0-4,3.2-7.6,7.3-7.6h26.7
				c14.6,0,22.7,5.6,22.7,20.1C793.8,209.4,790,215.2,783.3,217.1z M769.4,192.6h-17.8v18.6h17c6.8,0,10.6-2.5,10.6-9.3
				C779.2,195.4,775.8,192.6,769.4,192.6z"/>
			<path class="st4" d="M802.3,188c0-4.9,2.4-7.5,7.3-7.6h43.7v12.2h-36.8v15.1h27.4v4.7c0.1,4.9-2.4,7.3-7.5,7.3h-20v18.2h36.8v13
				h-51V188L802.3,188z"/>
			<path class="st4" d="M860.8,188c0-4.9,2.4-7.5,7.3-7.6h43.7v12.2H875v15.1h27.4v4.7c0.1,4.9-2.4,7.3-7.5,7.3h-20v18.2h36.8v13
				h-51L860.8,188L860.8,188z"/>
			<path class="st4" d="M926.2,180.4h7.8l28.7,48.4v-48.4h14.2v70.4h-15l-28.7-48.4v48.4H919V188C919,183.9,922.2,180.4,926.2,180.4
				z"/>
		</g>
		<g class="st5">
			<path class="st6" d="M268.7,297.6c-1.3,15.3-8.1,34.7-17.7,53.7c0.2,0.3,0.4,0.8,0.6,1.3c1,2.7-1.9,6.3-1.9,6.3s1.9,0.5,1.9,6
				c0,5.5-27,39.8-27,39.8c15.9-2.4,15.9,2.4,15.5,6c-0.5,3.6,0,11.3-19.5,12.5c-19.5,1.2-29.5,20.9-30.7,30.6s2.7,15.1,2.7,15.1
				l0,0c18-9.8,39.7-20.8,53.2-37.5c22.9-28.3,23.1-134.8,23.1-134.8L268.7,297.6z"/>
		</g>
		<g class="st5">
			
				<linearGradient id="SVGID_1_" gradientUnits="userSpaceOnUse" x1="177.8363" y1="769.5643" x2="28.0655" y2="1026.8267" gradientTransform="matrix(1 0 0 1 118.3203 -472.0745)">
				<stop  offset="0" style="stop-color:#000000"/>
				<stop  offset="6.250000e-02" style="stop-color:#000000;stop-opacity:0.8743"/>
				<stop  offset="0.4975" style="stop-color:#000000;stop-opacity:0"/>
				<stop  offset="1" style="stop-color:#000000"/>
			</linearGradient>
			<path class="st7" d="M268.7,297.6c-1.3,15.3-8.1,34.7-17.7,53.7c0.2,0.3,0.4,0.8,0.6,1.3c1,2.7-1.9,6.3-1.9,6.3s1.9,0.5,1.9,6
				c0,5.5-27,39.8-27,39.8c15.9-2.4,15.9,2.4,15.5,6c-0.5,3.6,0,11.3-19.5,12.5c-19.5,1.2-29.5,20.9-30.7,30.6s2.7,15.1,2.7,15.1
				l0,0c18-9.8,39.7-20.8,53.2-37.5c22.9-28.3,23.1-134.8,23.1-134.8L268.7,297.6z"/>
		</g>
		<g class="st5">
			<path class="st8" d="M164.1,486.3c0-1.4,0-3.4,0-5.9c0-47.3,28.7-58.2,28.7-58.2l-8.2-0.2c-9.9-0.5-22,3.2-24.2-11.1
				c0.7-21,15.9-31.2,40.7-45.7c24.7-14.5,37.1-15.2,43.1-15.2c4.8,0,5.9,0,6.7,1.4c9.8-19.4,16.7-39.1,17.8-54.6
				c0,0-15.1,24.8-67.5,50.4c-52.4,25.6-72,76.6-37.2,142.5C164.1,489.7,164.1,488.4,164.1,486.3z"/>
			<path class="st8" d="M243.3,361.7c0,0-33.9,37.1-37.9,42.2c0,0-21.5,1.5-25.4-1.6C180,402.3,195.3,379.1,243.3,361.7z"/>
		</g>
		<g class="st5">
			
				<linearGradient id="SVGID_2_" gradientUnits="userSpaceOnUse" x1="178.222" y1="725.5706" x2="-42.6436" y2="1024.5995" gradientTransform="matrix(1 0 0 1 118.3203 -472.0745)">
				<stop  offset="0" style="stop-color:#000000"/>
				<stop  offset="1.970000e-02" style="stop-color:#000000;stop-opacity:0.9603"/>
				<stop  offset="0.4975" style="stop-color:#000000;stop-opacity:0"/>
				<stop  offset="1" style="stop-color:#000000"/>
			</linearGradient>
			<path class="st9" d="M164.1,486.3c0-1.4,0-3.4,0-5.9c0-47.3,28.7-58.2,28.7-58.2l-8.2-0.2c-9.9-0.5-22,3.2-24.2-11.1
				c0.7-21,15.9-31.2,40.7-45.7c24.7-14.5,37.1-15.2,43.1-15.2c4.8,0,5.9,0,6.7,1.4c9.8-19.4,16.7-39.1,17.8-54.6
				c0,0-15.1,24.8-67.5,50.4c-52.4,25.6-72,76.6-37.2,142.5C164.1,489.7,164.1,488.4,164.1,486.3z"/>
			
				<linearGradient id="SVGID_3_" gradientUnits="userSpaceOnUse" x1="184.706" y1="730.358" x2="-36.1605" y2="1029.3882" gradientTransform="matrix(1 0 0 1 118.3203 -472.0745)">
				<stop  offset="0" style="stop-color:#000000"/>
				<stop  offset="1.970000e-02" style="stop-color:#000000;stop-opacity:0.9603"/>
				<stop  offset="0.4975" style="stop-color:#000000;stop-opacity:0"/>
				<stop  offset="1" style="stop-color:#000000"/>
			</linearGradient>
			<path class="st10" d="M243.3,361.7c0,0-33.9,37.1-37.9,42.2c0,0-21.5,1.5-25.4-1.6C180,402.3,195.3,379.1,243.3,361.7z"/>
		</g>
		<g>
			<path class="st4" d="M602,109.9c-1.3,15.3-8.1,34.7-17.7,53.7c0.2,0.3,0.4,0.8,0.6,1.3c1,2.7-1.9,6.3-1.9,6.3s1.9,0.5,1.9,6
				c0,5.5-27,39.8-27,39.8c15.9-2.4,15.9,2.4,15.5,6c-0.5,3.6,0,11.3-19.5,12.5c-19.5,1.2-29.5,20.9-30.7,30.6
				c-1.2,9.7,2.7,15.1,2.7,15.1l0,0c18-9.8,39.7-20.8,53.2-37.5c22.9-28.3,23.1-134.8,23.1-134.8L602,109.9z"/>
		</g>
		<g>
			
				<linearGradient id="SVGID_4_" gradientUnits="userSpaceOnUse" x1="511.1731" y1="581.8546" x2="361.4017" y2="839.118" gradientTransform="matrix(1 0 0 1 118.3203 -472.0745)">
				<stop  offset="0" style="stop-color:#000000"/>
				<stop  offset="0.4975" style="stop-color:#000000;stop-opacity:0"/>
				<stop  offset="1" style="stop-color:#000000"/>
			</linearGradient>
			<path class="st11" d="M602,109.9c-1.3,15.3-8.1,34.7-17.7,53.7c0.2,0.3,0.4,0.8,0.6,1.3c1,2.7-1.9,6.3-1.9,6.3s1.9,0.5,1.9,6
				c0,5.5-27,39.8-27,39.8c15.9-2.4,15.9,2.4,15.5,6c-0.5,3.6,0,11.3-19.5,12.5c-19.5,1.2-29.5,20.9-30.7,30.6
				c-1.2,9.7,2.7,15.1,2.7,15.1l0,0c18-9.8,39.7-20.8,53.2-37.5c22.9-28.3,23.1-134.8,23.1-134.8L602,109.9z"/>
		</g>
		<g>
			<path class="st12" d="M497.4,298.6c0-1.4,0-3.4,0-5.9c0-47.3,28.7-58.2,28.7-58.2l-8.2-0.2c-9.9-0.5-22,3.2-24.2-11.1
				c0.7-21,15.9-31.2,40.7-45.7c24.7-14.5,37.1-15.2,43.1-15.2c4.8,0,5.9,0,6.7,1.4c9.8-19.4,16.6-39.1,17.8-54.6
				c0,0-15.1,24.8-67.5,50.4c-52.4,25.6-72,76.6-37.2,142.5C497.4,302,497.4,300.8,497.4,298.6z"/>
			<path class="st12" d="M576.6,174c0,0-33.9,37.1-37.9,42.2c0,0-21.5,1.5-25.4-1.6C513.3,214.6,528.7,191.3,576.6,174z"/>
		</g>
		<g>
			
				<linearGradient id="SVGID_5_" gradientUnits="userSpaceOnUse" x1="511.5428" y1="537.8487" x2="290.6782" y2="836.8761" gradientTransform="matrix(1 0 0 1 118.3203 -472.0745)">
				<stop  offset="0" style="stop-color:#000000"/>
				<stop  offset="6.510000e-02" style="stop-color:#000000;stop-opacity:0.8679"/>
				<stop  offset="0.4926" style="stop-color:#000000;stop-opacity:0"/>
				<stop  offset="1" style="stop-color:#000000"/>
			</linearGradient>
			<path class="st13" d="M497.4,298.6c0-1.4,0-3.4,0-5.9c0-47.3,28.7-58.2,28.7-58.2l-8.2-0.2c-9.9-0.5-22,3.2-24.2-11.1
				c0.7-21,15.9-31.2,40.7-45.7c24.7-14.5,37.1-15.2,43.1-15.2c4.8,0,5.9,0,6.7,1.4c9.8-19.4,16.6-39.1,17.8-54.6
				c0,0-15.1,24.8-67.5,50.4c-52.4,25.6-72,76.6-37.2,142.5C497.4,302,497.4,300.8,497.4,298.6z"/>
			
				<linearGradient id="SVGID_6_" gradientUnits="userSpaceOnUse" x1="518.0276" y1="542.6351" x2="297.1583" y2="841.669" gradientTransform="matrix(1 0 0 1 118.3203 -472.0745)">
				<stop  offset="0" style="stop-color:#000000"/>
				<stop  offset="1.970000e-02" style="stop-color:#000000;stop-opacity:0.9603"/>
				<stop  offset="0.4975" style="stop-color:#000000;stop-opacity:0"/>
				<stop  offset="1" style="stop-color:#000000"/>
			</linearGradient>
			<path class="st14" d="M576.6,174c0,0-33.9,37.1-37.9,42.2c0,0-21.5,1.5-25.4-1.6C513.3,214.6,528.7,191.3,576.6,174z"/>
		</g>
	</g>
	<path class="st15" d="M836,1017H52c-6.6,0-12-5.4-12-12V416c0-6.6,5.4-12,12-12h784c102.7,0,208,233.3,240.1,277.9V227.5
		C1054.6,244.8,949,316.3,841,319H52c-6.6,0-12-5.4-12-12V95c0-6.6,5.4-12,12-12h789c97.6,0,212.6,90.1,235.1,111.8V0H-4v1080
		h1080.1V744C1042.9,790.1,939.5,1017,836,1017z"/>
	<g>
		<path d="M260.7,592c-0.5-9.6-1.1-21.1-1-29.7h-0.3c-2.3,8.1-5.2,16.6-8.7,26.1l-12.1,33.4h-6.7l-11.1-32.7c-3.3-9.7-6-18.6-8-26.7
			h-0.2c-0.2,8.6-0.7,20.1-1.3,30.4l-1.8,29.5h-8.5l4.8-68.8H217l11.7,33.3c2.9,8.5,5.2,16,6.9,23.2h0.3c1.7-6.9,4.2-14.5,7.2-23.2
			l12.2-33.3h11.3l4.3,68.8h-8.7L260.7,592z"/>
		<path d="M294.8,600.6l-7.1,21.6h-9.2l23.4-68.8h10.7l23.5,68.8h-9.5l-7.3-21.6H294.8z M317.4,593.7l-6.7-19.8
			c-1.5-4.5-2.6-8.6-3.6-12.5h-0.2c-1,4.1-2.1,8.3-3.5,12.4l-6.7,19.9H317.4z"/>
		<path d="M346.1,622.2v-68.8h9.7l22,34.8c5.1,8.1,9.1,15.3,12.3,22.3l0.2-0.1c-0.8-9.2-1-17.5-1-28.3v-28.8h8.4v68.8h-9L367,587.4
			c-4.8-7.7-9.4-15.5-12.9-23l-0.3,0.1c0.5,8.7,0.7,16.9,0.7,28.4v29.4H346.1z"/>
		<path d="M424.4,600.6l-7.1,21.6h-9.2l23.4-68.8h10.7l23.5,68.8h-9.5l-7.3-21.6H424.4z M446.9,593.7l-6.7-19.8
			c-1.5-4.5-2.6-8.6-3.6-12.5h-0.2c-1,4.1-2.1,8.3-3.5,12.4l-6.7,19.9H446.9z"/>
		<path d="M526.5,619.2c-4,1.4-11.8,3.8-21.1,3.8c-10.4,0-19-2.7-25.7-9.1c-5.9-5.7-9.6-14.9-9.6-25.6c0.1-20.5,14.2-35.5,37.2-35.5
			c8,0,14.2,1.7,17.1,3.2l-2.1,7.2c-3.7-1.6-8.3-3-15.2-3c-16.7,0-27.6,10.4-27.6,27.6c0,17.4,10.5,27.7,26.5,27.7
			c5.8,0,9.8-0.8,11.8-1.8v-20.5h-14v-7.1h22.6V619.2z"/>
		<path d="M575.6,590h-26.7v24.8h29.8v7.4H540v-68.8h37.1v7.4h-28.3v21.7h26.7V590z"/>
		<path d="M611.8,554.4c5.4-0.8,11.8-1.4,18.9-1.4c12.8,0,21.8,3,27.8,8.6c6.1,5.6,9.7,13.6,9.7,24.7c0,11.2-3.5,20.4-9.9,26.7
			c-6.4,6.4-17,9.9-30.4,9.9c-6.3,0-11.6-0.3-16.1-0.8V554.4z M620.7,615.2c2.2,0.4,5.5,0.5,9,0.5c19,0,29.3-10.6,29.3-29.2
			c0.1-16.2-9.1-26.5-27.8-26.5c-4.6,0-8.1,0.4-10.4,0.9V615.2z"/>
		<path d="M689.5,600.6l-7.1,21.6h-9.2l23.4-68.8h10.7l23.5,68.8h-9.5l-7.3-21.6H689.5z M712,593.7l-6.7-19.8
			c-1.5-4.5-2.6-8.6-3.6-12.5h-0.2c-1,4.1-2.1,8.3-3.5,12.4l-6.7,19.9H712z"/>
		<path d="M746,561h-20.9v-7.5H776v7.5h-21v61.2h-9V561z"/>
		<path d="M787.1,600.6l-7.1,21.6h-9.2l23.4-68.8h10.7l23.5,68.8h-9.5l-7.3-21.6H787.1z M809.6,593.7l-6.7-19.8
			c-1.5-4.5-2.6-8.6-3.6-12.5h-0.2c-1,4.1-2.1,8.3-3.5,12.4l-6.7,19.9H809.6z"/>
	</g>
	<g>
		<path d="M168.3,724.4c-0.2-3.7-0.4-8.1-0.4-11.3h-0.1c-0.9,3.1-2,6.4-3.3,10l-4.6,12.8h-2.6l-4.3-12.5c-1.2-3.7-2.3-7.1-3-10.2
			h-0.1c-0.1,3.3-0.3,7.7-0.5,11.6l-0.7,11.3h-3.2l1.8-26.3h4.3l4.5,12.7c1.1,3.2,2,6.1,2.7,8.9h0.1c0.7-2.7,1.6-5.5,2.8-8.9
			l4.7-12.7h4.3l1.6,26.3h-3.3L168.3,724.4z"/>
		<path d="M188.1,735.9l-0.3-2.4h-0.1c-1.1,1.5-3.1,2.8-5.8,2.8c-3.8,0-5.8-2.7-5.8-5.4c0-4.6,4.1-7.1,11.3-7v-0.4
			c0-1.6-0.4-4.4-4.3-4.4c-1.8,0-3.6,0.5-4.9,1.4l-0.8-2.3c1.6-1,3.8-1.7,6.2-1.7c5.8,0,7.2,3.9,7.2,7.7v7.1c0,1.6,0.1,3.2,0.3,4.5
			H188.1z M187.6,726.3c-3.7-0.1-8,0.6-8,4.3c0,2.2,1.5,3.3,3.2,3.3c2.5,0,4-1.6,4.6-3.2c0.1-0.4,0.2-0.7,0.2-1.1V726.3z"/>
		<path d="M196.4,722.2c0-2,0-3.5-0.2-5.1h3l0.2,3.1h0.1c0.9-1.8,3.1-3.5,6.2-3.5c2.6,0,6.7,1.6,6.7,8v11.3H209v-10.9
			c0-3-1.1-5.6-4.4-5.6c-2.3,0-4,1.6-4.6,3.5c-0.2,0.4-0.2,1-0.2,1.6v11.3h-3.4V722.2z"/>
		<path d="M228.5,735.9l-0.3-2.4h-0.1c-1.1,1.5-3.1,2.8-5.8,2.8c-3.8,0-5.8-2.7-5.8-5.4c0-4.6,4.1-7.1,11.3-7v-0.4
			c0-1.6-0.4-4.4-4.3-4.4c-1.8,0-3.6,0.5-4.9,1.4l-0.8-2.3c1.6-1,3.8-1.7,6.2-1.7c5.8,0,7.2,3.9,7.2,7.7v7.1c0,1.6,0.1,3.2,0.3,4.5
			H228.5z M228,726.3c-3.7-0.1-8,0.6-8,4.3c0,2.2,1.5,3.3,3.2,3.3c2.5,0,4-1.6,4.6-3.2c0.1-0.4,0.2-0.7,0.2-1.1V726.3z"/>
		<path d="M253.1,717.1c-0.1,1.4-0.2,2.9-0.2,5.2v11c0,4.3-0.9,7-2.7,8.6c-1.8,1.7-4.5,2.3-6.9,2.3c-2.3,0-4.8-0.5-6.3-1.6l0.9-2.6
			c1.2,0.8,3.2,1.5,5.5,1.5c3.5,0,6.1-1.8,6.1-6.6v-2.1h-0.1c-1.1,1.8-3.1,3.2-6,3.2c-4.7,0-8-4-8-9.2c0-6.4,4.2-10,8.5-10
			c3.3,0,5.1,1.7,5.9,3.3h0.1l0.2-2.8H253.1z M249.6,724.5c0-0.6,0-1.1-0.2-1.6c-0.6-2-2.3-3.6-4.8-3.6c-3.3,0-5.6,2.8-5.6,7.1
			c0,3.7,1.9,6.8,5.6,6.8c2.1,0,4-1.3,4.8-3.5c0.2-0.6,0.3-1.2,0.3-1.8V724.5z"/>
		<path d="M260.6,727.1c0.1,4.6,3,6.6,6.5,6.6c2.5,0,3.9-0.4,5.2-1l0.6,2.5c-1.2,0.5-3.3,1.2-6.3,1.2c-5.8,0-9.3-3.8-9.3-9.5
			s3.4-10.2,8.9-10.2c6.2,0,7.8,5.4,7.8,8.9c0,0.7-0.1,1.2-0.1,1.6H260.6z M270.6,724.7c0-2.2-0.9-5.6-4.8-5.6c-3.5,0-5,3.2-5.3,5.6
			H270.6z"/>
		<path d="M290.6,711.6v5.4h4.9v2.6h-4.9v10.2c0,2.3,0.7,3.7,2.6,3.7c0.9,0,1.6-0.1,2-0.2l0.2,2.6c-0.7,0.3-1.7,0.5-3,0.5
			c-1.6,0-2.9-0.5-3.7-1.4c-1-1-1.3-2.7-1.3-4.9v-10.3h-2.9v-2.6h2.9v-4.5L290.6,711.6z"/>
		<path d="M299.4,708.2h3.4V720h0.1c0.5-1,1.4-1.8,2.5-2.4c1-0.6,2.2-1,3.5-1c2.5,0,6.6,1.6,6.6,8.1v11.2H312v-10.8
			c0-3-1.1-5.6-4.4-5.6c-2.2,0-4,1.6-4.6,3.4c-0.2,0.5-0.2,1-0.2,1.6v11.4h-3.4V708.2z"/>
		<path d="M322.9,727.1c0.1,4.6,3,6.6,6.5,6.6c2.5,0,3.9-0.4,5.2-1l0.6,2.5c-1.2,0.5-3.3,1.2-6.3,1.2c-5.8,0-9.3-3.8-9.3-9.5
			s3.4-10.2,8.9-10.2c6.2,0,7.8,5.4,7.8,8.9c0,0.7-0.1,1.2-0.1,1.6H322.9z M333,724.7c0-2.2-0.9-5.6-4.8-5.6c-3.5,0-5,3.2-5.3,5.6
			H333z"/>
		<path d="M365.1,708.2v22.8c0,1.7,0,3.6,0.2,4.9h-3.1l-0.2-3.3H362c-1.1,2.1-3.4,3.7-6.4,3.7c-4.6,0-8.1-3.9-8.1-9.6
			c0-6.3,3.9-10.1,8.5-10.1c2.9,0,4.8,1.4,5.7,2.9h0.1v-11.3H365.1z M361.7,724.7c0-0.4,0-1-0.2-1.4c-0.5-2.2-2.4-4-5-4
			c-3.5,0-5.7,3.1-5.7,7.3c0,3.8,1.9,7,5.6,7c2.3,0,4.4-1.5,5-4.1c0.1-0.5,0.2-0.9,0.2-1.5V724.7z"/>
		<path d="M381.3,735.9l-0.3-2.4h-0.1c-1.1,1.5-3.1,2.8-5.8,2.8c-3.8,0-5.8-2.7-5.8-5.4c0-4.6,4.1-7.1,11.3-7v-0.4
			c0-1.6-0.4-4.4-4.3-4.4c-1.8,0-3.6,0.5-4.9,1.4l-0.8-2.3c1.6-1,3.8-1.7,6.2-1.7c5.8,0,7.2,3.9,7.2,7.7v7.1c0,1.6,0.1,3.2,0.3,4.5
			H381.3z M380.8,726.3c-3.7-0.1-8,0.6-8,4.3c0,2.2,1.5,3.3,3.2,3.3c2.5,0,4-1.6,4.6-3.2c0.1-0.4,0.2-0.7,0.2-1.1V726.3z"/>
		<path d="M393.6,711.6v5.4h4.9v2.6h-4.9v10.2c0,2.3,0.7,3.7,2.6,3.7c0.9,0,1.6-0.1,2-0.2l0.2,2.6c-0.7,0.3-1.7,0.5-3,0.5
			c-1.6,0-2.9-0.5-3.7-1.4c-1-1-1.3-2.7-1.3-4.9v-10.3h-2.9v-2.6h2.9v-4.5L393.6,711.6z"/>
		<path d="M412.8,735.9l-0.3-2.4h-0.1c-1.1,1.5-3.1,2.8-5.8,2.8c-3.8,0-5.8-2.7-5.8-5.4c0-4.6,4.1-7.1,11.3-7v-0.4
			c0-1.6-0.4-4.4-4.3-4.4c-1.8,0-3.6,0.5-4.9,1.4l-0.8-2.3c1.6-1,3.8-1.7,6.2-1.7c5.8,0,7.2,3.9,7.2,7.7v7.1c0,1.6,0.1,3.2,0.3,4.5
			H412.8z M412.3,726.3c-3.7-0.1-8,0.6-8,4.3c0,2.2,1.5,3.3,3.2,3.3c2.5,0,4-1.6,4.6-3.2c0.1-0.4,0.2-0.7,0.2-1.1V726.3z"/>
		<path d="M439.9,735.9l-0.3-2.4h-0.1c-1.1,1.5-3.1,2.8-5.8,2.8c-3.8,0-5.8-2.7-5.8-5.4c0-4.6,4.1-7.1,11.3-7v-0.4
			c0-1.6-0.4-4.4-4.3-4.4c-1.8,0-3.6,0.5-4.9,1.4l-0.8-2.3c1.6-1,3.8-1.7,6.2-1.7c5.8,0,7.2,3.9,7.2,7.7v7.1c0,1.6,0.1,3.2,0.3,4.5
			H439.9z M439.4,726.3c-3.7-0.1-8,0.6-8,4.3c0,2.2,1.5,3.3,3.2,3.3c2.5,0,4-1.6,4.6-3.2c0.1-0.4,0.2-0.7,0.2-1.1V726.3z"/>
		<path d="M448.2,722.2c0-2,0-3.5-0.2-5.1h3l0.2,3.1h0.1c0.9-1.8,3.1-3.5,6.2-3.5c2.6,0,6.7,1.6,6.7,8v11.3h-3.4v-10.9
			c0-3-1.1-5.6-4.4-5.6c-2.3,0-4,1.6-4.6,3.5c-0.2,0.4-0.2,1-0.2,1.6v11.3h-3.4V722.2z"/>
		<path d="M486.2,708.2v22.8c0,1.7,0,3.6,0.2,4.9h-3.1l-0.2-3.3H483c-1.1,2.1-3.4,3.7-6.4,3.7c-4.6,0-8.1-3.9-8.1-9.6
			c0-6.3,3.9-10.1,8.5-10.1c2.9,0,4.8,1.4,5.7,2.9h0.1v-11.3H486.2z M482.7,724.7c0-0.4,0-1-0.2-1.4c-0.5-2.2-2.4-4-5-4
			c-3.5,0-5.7,3.1-5.7,7.3c0,3.8,1.9,7,5.6,7c2.3,0,4.4-1.5,5-4.1c0.1-0.5,0.2-0.9,0.2-1.5V724.7z"/>
		<path d="M504.3,711.6v5.4h4.9v2.6h-4.9v10.2c0,2.3,0.7,3.7,2.6,3.7c0.9,0,1.6-0.1,2-0.2l0.2,2.6c-0.7,0.3-1.7,0.5-3,0.5
			c-1.6,0-2.9-0.5-3.7-1.4c-1-1-1.3-2.7-1.3-4.9v-10.3H498v-2.6h2.9v-4.5L504.3,711.6z"/>
		<path d="M513,708.2h3.4V720h0.1c0.5-1,1.4-1.8,2.5-2.4c1-0.6,2.2-1,3.5-1c2.5,0,6.6,1.6,6.6,8.1v11.2h-3.4v-10.8
			c0-3-1.1-5.6-4.4-5.6c-2.2,0-4,1.6-4.6,3.4c-0.2,0.5-0.2,1-0.2,1.6v11.4H513V708.2z"/>
		<path d="M536.6,727.1c0.1,4.6,3,6.6,6.5,6.6c2.5,0,3.9-0.4,5.2-1l0.6,2.5c-1.2,0.5-3.3,1.2-6.3,1.2c-5.8,0-9.3-3.8-9.3-9.5
			s3.4-10.2,8.9-10.2c6.2,0,7.8,5.4,7.8,8.9c0,0.7-0.1,1.2-0.1,1.6H536.6z M546.7,724.7c0-2.2-0.9-5.6-4.8-5.6c-3.5,0-5,3.2-5.3,5.6
			H546.7z"/>
		<path d="M563.9,717.1l2.5,9.6c0.5,2.1,1.1,4.1,1.4,6h0.1c0.4-1.9,1.1-3.9,1.7-6l3.1-9.6h2.9l2.9,9.4c0.7,2.3,1.2,4.3,1.7,6.2h0.1
			c0.3-1.9,0.8-3.9,1.4-6.1l2.7-9.5h3.4l-6.1,18.9h-3.1l-2.9-9c-0.7-2.1-1.2-4-1.7-6.2h-0.1c-0.5,2.3-1.1,4.2-1.7,6.2l-3,9H566
			l-5.7-18.9H563.9z"/>
		<path d="M601.5,735.9l-0.3-2.4h-0.1c-1.1,1.5-3.1,2.8-5.8,2.8c-3.8,0-5.8-2.7-5.8-5.4c0-4.6,4.1-7.1,11.3-7v-0.4
			c0-1.6-0.4-4.4-4.3-4.4c-1.8,0-3.6,0.5-4.9,1.4l-0.8-2.3c1.6-1,3.8-1.7,6.2-1.7c5.8,0,7.2,3.9,7.2,7.7v7.1c0,1.6,0.1,3.2,0.3,4.5
			H601.5z M601,726.3c-3.7-0.1-8,0.6-8,4.3c0,2.2,1.5,3.3,3.2,3.3c2.5,0,4-1.6,4.6-3.2c0.1-0.4,0.2-0.7,0.2-1.1V726.3z"/>
		<path d="M610.8,717.1l4.1,11.2c0.4,1.2,0.9,2.7,1.2,3.9h0.1c0.4-1.1,0.7-2.6,1.2-3.9l3.7-11.1h3.6l-5.1,13.5
			c-2.5,6.5-4.1,9.8-6.5,11.8c-1.7,1.5-3.4,2.1-4.2,2.2l-0.9-2.9c0.9-0.3,2-0.8,3-1.7c0.9-0.7,2.1-2.1,2.9-3.8
			c0.2-0.4,0.3-0.6,0.3-0.8s-0.1-0.5-0.2-0.9l-7-17.4H610.8z"/>
		<path d="M637.4,717.1l4.1,11.2c0.4,1.2,0.9,2.7,1.2,3.9h0.1c0.4-1.1,0.7-2.6,1.2-3.9l3.7-11.1h3.6l-5.1,13.5
			c-2.5,6.5-4.1,9.8-6.5,11.8c-1.7,1.5-3.4,2.1-4.2,2.2l-0.9-2.9c0.9-0.3,2-0.8,3-1.7c0.9-0.7,2.1-2.1,2.9-3.8
			c0.2-0.4,0.3-0.6,0.3-0.8s-0.1-0.5-0.2-0.9l-7-17.4H637.4z"/>
		<path d="M671.2,726.3c0,7-4.8,10-9.4,10c-5.1,0-9-3.7-9-9.7c0-6.3,4.1-10,9.4-10C667.6,716.6,671.2,720.6,671.2,726.3z
			 M656.2,726.5c0,4.1,2.4,7.3,5.7,7.3c3.3,0,5.7-3.1,5.7-7.3c0-3.2-1.6-7.3-5.7-7.3C658,719.2,656.2,723,656.2,726.5z"/>
		<path d="M691.3,730.8c0,2,0,3.7,0.2,5.1h-3l-0.2-3.1h-0.1c-0.9,1.5-2.9,3.5-6.2,3.5c-3,0-6.5-1.6-6.5-8.3v-11h3.4v10.5
			c0,3.6,1.1,6,4.2,6c2.3,0,3.9-1.6,4.5-3.1c0.2-0.5,0.3-1.1,0.3-1.8v-11.6h3.4V730.8z"/>
		<path d="M705.3,723c0-2.2,0-4.1-0.2-5.9h3l0.1,3.7h0.2c0.9-2.5,2.9-4.1,5.2-4.1c0.4,0,0.7,0,1,0.1v3.2c-0.4-0.1-0.7-0.1-1.2-0.1
			c-2.4,0-4.1,1.8-4.6,4.4c-0.1,0.5-0.2,1-0.2,1.6v10.1h-3.4V723z"/>
		<path d="M719.6,727.1c0.1,4.6,3,6.6,6.5,6.6c2.5,0,3.9-0.4,5.2-1l0.6,2.5c-1.2,0.5-3.3,1.2-6.3,1.2c-5.8,0-9.3-3.8-9.3-9.5
			s3.4-10.2,8.9-10.2c6.2,0,7.8,5.4,7.8,8.9c0,0.7-0.1,1.2-0.1,1.6H719.6z M729.6,724.7c0-2.2-0.9-5.6-4.8-5.6c-3.5,0-5,3.2-5.3,5.6
			H729.6z"/>
		<path d="M750.7,735.2c-0.9,0.5-2.9,1.1-5.4,1.1c-5.7,0-9.4-3.9-9.4-9.6c0-5.8,4-10,10.1-10c2,0,3.8,0.5,4.8,1l-0.8,2.7
			c-0.8-0.5-2.1-0.9-4-0.9c-4.3,0-6.7,3.2-6.7,7.1c0,4.4,2.8,7.1,6.6,7.1c2,0,3.2-0.5,4.2-0.9L750.7,735.2z"/>
		<path d="M756.4,727.1c0.1,4.6,3,6.6,6.5,6.6c2.5,0,3.9-0.4,5.2-1l0.6,2.5c-1.2,0.5-3.3,1.2-6.3,1.2c-5.8,0-9.3-3.8-9.3-9.5
			s3.4-10.2,8.9-10.2c6.2,0,7.8,5.4,7.8,8.9c0,0.7-0.1,1.2-0.1,1.6H756.4z M766.4,724.7c0-2.2-0.9-5.6-4.8-5.6c-3.5,0-5,3.2-5.3,5.6
			H766.4z"/>
		<path d="M777.8,711.8c0,1.2-0.8,2.1-2.2,2.1c-1.2,0-2.1-0.9-2.1-2.1c0-1.2,0.9-2.1,2.1-2.1C777,709.6,777.8,710.5,777.8,711.8z
			 M774,735.9v-18.9h3.4v18.9H774z"/>
		<path d="M784.4,717.1l3.7,10.6c0.6,1.7,1.1,3.3,1.5,4.8h0.1c0.4-1.6,1-3.1,1.6-4.8l3.7-10.6h3.6l-7.4,18.9h-3.3l-7.2-18.9H784.4z"
			/>
		<path d="M803.4,727.1c0.1,4.6,3,6.6,6.5,6.6c2.5,0,3.9-0.4,5.2-1l0.6,2.5c-1.2,0.5-3.3,1.2-6.3,1.2c-5.8,0-9.3-3.8-9.3-9.5
			s3.4-10.2,8.9-10.2c6.2,0,7.8,5.4,7.8,8.9c0,0.7-0.1,1.2-0.1,1.6H803.4z M813.5,724.7c0-2.2-0.9-5.6-4.8-5.6c-3.5,0-5,3.2-5.3,5.6
			H813.5z"/>
		<path d="M833.1,711.8c0,1.2-0.8,2.1-2.2,2.1c-1.2,0-2.1-0.9-2.1-2.1c0-1.2,0.9-2.1,2.1-2.1C832.3,709.6,833.1,710.5,833.1,711.8z
			 M829.3,735.9v-18.9h3.4v18.9H829.3z"/>
		<path d="M842.5,711.6v5.4h4.9v2.6h-4.9v10.2c0,2.3,0.7,3.7,2.6,3.7c0.9,0,1.6-0.1,2-0.2l0.2,2.6c-0.7,0.3-1.7,0.5-3,0.5
			c-1.6,0-2.9-0.5-3.7-1.4c-1-1-1.3-2.7-1.3-4.9v-10.3h-2.9v-2.6h2.9v-4.5L842.5,711.6z"/>
		<path d="M849,740.7c0.9-2.3,1.9-6.5,2.3-9.3l3.8-0.4c-0.9,3.3-2.6,7.6-3.7,9.5L849,740.7z"/>
		<path d="M162,763.9l3.7,10.6c0.6,1.7,1.1,3.3,1.5,4.8h0.1c0.4-1.6,1-3.1,1.6-4.8l3.7-10.6h3.6l-7.4,18.9h-3.3l-7.2-18.9H162z"/>
		<path d="M183.2,758.6c0,1.2-0.8,2.1-2.2,2.1c-1.2,0-2.1-0.9-2.1-2.1c0-1.2,0.9-2.1,2.1-2.1C182.4,756.4,183.2,757.3,183.2,758.6z
			 M179.4,782.7v-18.9h3.4v18.9H179.4z"/>
		<path d="M188.1,779.2c1,0.7,2.8,1.4,4.5,1.4c2.5,0,3.7-1.2,3.7-2.8c0-1.6-1-2.5-3.5-3.5c-3.4-1.2-5-3.1-5-5.3c0-3,2.5-5.5,6.5-5.5
			c1.9,0,3.6,0.5,4.6,1.2l-0.9,2.5c-0.7-0.5-2.1-1.1-3.9-1.1c-2,0-3.2,1.2-3.2,2.6c0,1.6,1.1,2.3,3.6,3.2c3.3,1.2,5,2.9,5,5.7
			c0,3.3-2.6,5.7-7.1,5.7c-2.1,0-4-0.5-5.3-1.3L188.1,779.2z"/>
		<path d="M219.8,777.6c0,2,0,3.7,0.2,5.1h-3l-0.2-3.1h-0.1c-0.9,1.5-2.9,3.5-6.2,3.5c-3,0-6.5-1.6-6.5-8.3v-11h3.4v10.5
			c0,3.6,1.1,6,4.2,6c2.3,0,3.9-1.6,4.5-3.1c0.2-0.5,0.3-1.1,0.3-1.8v-11.6h3.4V777.6z"/>
		<path d="M235.9,782.7l-0.3-2.4h-0.1c-1.1,1.5-3.1,2.8-5.8,2.8c-3.8,0-5.8-2.7-5.8-5.4c0-4.6,4.1-7.1,11.3-7v-0.4
			c0-1.6-0.4-4.4-4.3-4.4c-1.8,0-3.6,0.5-4.9,1.4l-0.8-2.3c1.6-1,3.8-1.7,6.2-1.7c5.8,0,7.2,3.9,7.2,7.7v7.1c0,1.6,0.1,3.2,0.3,4.5
			H235.9z M235.4,773.1c-3.7-0.1-8,0.6-8,4.3c0,2.2,1.5,3.3,3.2,3.3c2.5,0,4-1.6,4.6-3.2c0.1-0.4,0.2-0.7,0.2-1.1V773.1z"/>
		<path d="M244.3,755h3.4v27.7h-3.4V755z"/>
		<path d="M257.3,758.6c0,1.2-0.8,2.1-2.2,2.1c-1.2,0-2.1-0.9-2.1-2.1c0-1.2,0.9-2.1,2.1-2.1C256.5,756.4,257.3,757.3,257.3,758.6z
			 M253.5,782.7v-18.9h3.4v18.9H253.5z"/>
		<path d="M260.4,780.7l8.5-11.1c0.8-1,1.6-1.9,2.5-2.9v-0.1h-10.2v-2.8h14.4l0,2.1l-8.4,11c-0.8,1.1-1.6,2-2.4,3v0.1h11v2.7h-15.3
			V780.7z"/>
		<path d="M280.9,773.9c0.1,4.6,3,6.6,6.5,6.6c2.5,0,3.9-0.4,5.2-1l0.6,2.5c-1.2,0.5-3.3,1.2-6.3,1.2c-5.8,0-9.3-3.8-9.3-9.5
			c0-5.7,3.4-10.2,8.9-10.2c6.2,0,7.8,5.4,7.8,8.9c0,0.7-0.1,1.2-0.1,1.6H280.9z M291,771.5c0-2.2-0.9-5.6-4.8-5.6
			c-3.5,0-5,3.2-5.3,5.6H291z"/>
		<path d="M323.1,755v22.8c0,1.7,0,3.6,0.2,4.9h-3.1l-0.2-3.3H320c-1.1,2.1-3.4,3.7-6.4,3.7c-4.6,0-8.1-3.9-8.1-9.6
			c0-6.3,3.9-10.1,8.5-10.1c2.9,0,4.8,1.4,5.7,2.9h0.1V755H323.1z M319.7,771.5c0-0.4,0-1-0.2-1.4c-0.5-2.2-2.4-4-5-4
			c-3.5,0-5.7,3.1-5.7,7.3c0,3.8,1.9,7,5.6,7c2.3,0,4.4-1.5,5-4.1c0.1-0.5,0.2-0.9,0.2-1.5V771.5z"/>
		<path d="M330.7,773.9c0.1,4.6,3,6.6,6.5,6.6c2.5,0,3.9-0.4,5.2-1l0.6,2.5c-1.2,0.5-3.3,1.2-6.3,1.2c-5.8,0-9.3-3.8-9.3-9.5
			c0-5.7,3.4-10.2,8.9-10.2c6.2,0,7.8,5.4,7.8,8.9c0,0.7-0.1,1.2-0.1,1.6H330.7z M340.8,771.5c0-2.2-0.9-5.6-4.8-5.6
			c-3.5,0-5,3.2-5.3,5.6H340.8z"/>
		<path d="M349.7,763.9l3.7,10.6c0.6,1.7,1.1,3.3,1.5,4.8h0.1c0.4-1.6,1-3.1,1.6-4.8l3.7-10.6h3.6l-7.4,18.9h-3.3l-7.2-18.9H349.7z"
			/>
		<path d="M370.9,758.6c0,1.2-0.8,2.1-2.2,2.1c-1.2,0-2.1-0.9-2.1-2.1c0-1.2,0.9-2.1,2.1-2.1C370.1,756.4,370.9,757.3,370.9,758.6z
			 M367.1,782.7v-18.9h3.4v18.9H367.1z"/>
		<path d="M389.7,782c-0.9,0.5-2.9,1.1-5.4,1.1c-5.7,0-9.4-3.9-9.4-9.6c0-5.8,4-10,10.1-10c2,0,3.8,0.5,4.8,1l-0.8,2.7
			c-0.8-0.5-2.1-0.9-4-0.9c-4.3,0-6.7,3.2-6.7,7.1c0,4.4,2.8,7.1,6.6,7.1c2,0,3.2-0.5,4.2-0.9L389.7,782z"/>
		<path d="M395.4,773.9c0.1,4.6,3,6.6,6.5,6.6c2.5,0,3.9-0.4,5.2-1l0.6,2.5c-1.2,0.5-3.3,1.2-6.3,1.2c-5.8,0-9.3-3.8-9.3-9.5
			c0-5.7,3.4-10.2,8.9-10.2c6.2,0,7.8,5.4,7.8,8.9c0,0.7-0.1,1.2-0.1,1.6H395.4z M405.4,771.5c0-2.2-0.9-5.6-4.8-5.6
			c-3.5,0-5,3.2-5.3,5.6H405.4z"/>
		<path d="M412.5,779.2c1,0.7,2.8,1.4,4.5,1.4c2.5,0,3.7-1.2,3.7-2.8c0-1.6-1-2.5-3.5-3.5c-3.4-1.2-5-3.1-5-5.3c0-3,2.5-5.5,6.5-5.5
			c1.9,0,3.6,0.5,4.6,1.2l-0.9,2.5c-0.7-0.5-2.1-1.1-3.9-1.1c-2,0-3.2,1.2-3.2,2.6c0,1.6,1.1,2.3,3.6,3.2c3.3,1.2,5,2.9,5,5.7
			c0,3.3-2.6,5.7-7.1,5.7c-2.1,0-4-0.5-5.3-1.3L412.5,779.2z"/>
		<path d="M447.2,782.7l-0.3-2.4h-0.1c-1.1,1.5-3.1,2.8-5.8,2.8c-3.8,0-5.8-2.7-5.8-5.4c0-4.6,4.1-7.1,11.3-7v-0.4
			c0-1.6-0.4-4.4-4.3-4.4c-1.8,0-3.6,0.5-4.9,1.4l-0.8-2.3c1.6-1,3.8-1.7,6.2-1.7c5.8,0,7.2,3.9,7.2,7.7v7.1c0,1.6,0.1,3.2,0.3,4.5
			H447.2z M446.7,773.1c-3.7-0.1-8,0.6-8,4.3c0,2.2,1.5,3.3,3.2,3.3c2.5,0,4-1.6,4.6-3.2c0.1-0.4,0.2-0.7,0.2-1.1V773.1z"/>
		<path d="M455.5,769c0-2,0-3.5-0.2-5.1h3l0.2,3.1h0.1c0.9-1.8,3.1-3.5,6.2-3.5c2.6,0,6.7,1.6,6.7,8v11.3h-3.4v-10.9
			c0-3-1.1-5.6-4.4-5.6c-2.3,0-4,1.6-4.6,3.5c-0.2,0.4-0.2,1-0.2,1.6v11.3h-3.4V769z"/>
		<path d="M493.5,755v22.8c0,1.7,0,3.6,0.2,4.9h-3.1l-0.2-3.3h-0.1c-1.1,2.1-3.4,3.7-6.4,3.7c-4.6,0-8.1-3.9-8.1-9.6
			c0-6.3,3.9-10.1,8.5-10.1c2.9,0,4.8,1.4,5.7,2.9h0.1V755H493.5z M490,771.5c0-0.4,0-1-0.2-1.4c-0.5-2.2-2.4-4-5-4
			c-3.5,0-5.7,3.1-5.7,7.3c0,3.8,1.9,7,5.6,7c2.3,0,4.4-1.5,5-4.1c0.1-0.5,0.2-0.9,0.2-1.5V771.5z"/>
		<path d="M511.6,758.4v5.4h4.9v2.6h-4.9v10.2c0,2.3,0.7,3.7,2.6,3.7c0.9,0,1.6-0.1,2-0.2l0.2,2.6c-0.7,0.3-1.7,0.5-3,0.5
			c-1.6,0-2.9-0.5-3.7-1.4c-1-1-1.3-2.7-1.3-4.9v-10.3h-2.9v-2.6h2.9v-4.5L511.6,758.4z"/>
		<path d="M530.8,782.7l-0.3-2.4h-0.1c-1.1,1.5-3.1,2.8-5.8,2.8c-3.8,0-5.8-2.7-5.8-5.4c0-4.6,4.1-7.1,11.3-7v-0.4
			c0-1.6-0.4-4.4-4.3-4.4c-1.8,0-3.6,0.5-4.9,1.4l-0.8-2.3c1.6-1,3.8-1.7,6.2-1.7c5.8,0,7.2,3.9,7.2,7.7v7.1c0,1.6,0.1,3.2,0.3,4.5
			H530.8z M530.3,773.1c-3.7-0.1-8,0.6-8,4.3c0,2.2,1.5,3.3,3.2,3.3c2.5,0,4-1.6,4.6-3.2c0.1-0.4,0.2-0.7,0.2-1.1V773.1z"/>
		<path d="M542.5,772.5L542.5,772.5c0.5-0.7,1.2-1.5,1.8-2.1l5.5-6.5h4.1l-7.3,7.8l8.3,11.1h-4.2l-6.5-9l-1.8,1.9v7.1h-3.4V755h3.4
			V772.5z"/>
		<path d="M559.3,773.9c0.1,4.6,3,6.6,6.5,6.6c2.5,0,3.9-0.4,5.2-1l0.6,2.5c-1.2,0.5-3.3,1.2-6.3,1.2c-5.8,0-9.3-3.8-9.3-9.5
			c0-5.7,3.4-10.2,8.9-10.2c6.2,0,7.8,5.4,7.8,8.9c0,0.7-0.1,1.2-0.1,1.6H559.3z M569.4,771.5c0-2.2-0.9-5.6-4.8-5.6
			c-3.5,0-5,3.2-5.3,5.6H569.4z"/>
		<path d="M595.7,782.7l-0.3-2.4h-0.1c-1.1,1.5-3.1,2.8-5.8,2.8c-3.8,0-5.8-2.7-5.8-5.4c0-4.6,4.1-7.1,11.3-7v-0.4
			c0-1.6-0.4-4.4-4.3-4.4c-1.8,0-3.6,0.5-4.9,1.4l-0.8-2.3c1.6-1,3.8-1.7,6.2-1.7c5.8,0,7.2,3.9,7.2,7.7v7.1c0,1.6,0.1,3.2,0.3,4.5
			H595.7z M595.2,773.1c-3.7-0.1-8,0.6-8,4.3c0,2.2,1.5,3.3,3.2,3.3c2.5,0,4-1.6,4.6-3.2c0.1-0.4,0.2-0.7,0.2-1.1V773.1z"/>
		<path d="M617.5,782c-0.9,0.5-2.9,1.1-5.4,1.1c-5.7,0-9.4-3.9-9.4-9.6c0-5.8,4-10,10.1-10c2,0,3.8,0.5,4.8,1l-0.8,2.7
			c-0.8-0.5-2.1-0.9-4-0.9c-4.3,0-6.7,3.2-6.7,7.1c0,4.4,2.8,7.1,6.6,7.1c2,0,3.2-0.5,4.2-0.9L617.5,782z"/>
		<path d="M626.1,758.4v5.4h4.9v2.6h-4.9v10.2c0,2.3,0.7,3.7,2.6,3.7c0.9,0,1.6-0.1,2-0.2l0.2,2.6c-0.7,0.3-1.7,0.5-3,0.5
			c-1.6,0-2.9-0.5-3.7-1.4c-1-1-1.3-2.7-1.3-4.9v-10.3h-2.9v-2.6h2.9v-4.5L626.1,758.4z"/>
		<path d="M638.7,758.6c0,1.2-0.8,2.1-2.2,2.1c-1.2,0-2.1-0.9-2.1-2.1c0-1.2,0.9-2.1,2.1-2.1C637.9,756.4,638.7,757.3,638.7,758.6z
			 M634.9,782.7v-18.9h3.4v18.9H634.9z"/>
		<path d="M661.1,773.1c0,7-4.8,10-9.4,10c-5.1,0-9-3.7-9-9.7c0-6.3,4.1-10,9.4-10C657.5,763.4,661.1,767.4,661.1,773.1z
			 M646.1,773.3c0,4.1,2.4,7.3,5.7,7.3c3.3,0,5.7-3.1,5.7-7.3c0-3.2-1.6-7.3-5.7-7.3C647.9,766,646.1,769.8,646.1,773.3z"/>
		<path d="M665.4,769c0-2,0-3.5-0.2-5.1h3l0.2,3.1h0.1c0.9-1.8,3.1-3.5,6.2-3.5c2.6,0,6.7,1.6,6.7,8v11.3h-3.4v-10.9
			c0-3-1.1-5.6-4.4-5.6c-2.3,0-4,1.6-4.6,3.5c-0.2,0.4-0.2,1-0.2,1.6v11.3h-3.4V769z"/>
		<path d="M695.2,782.7c0.1-1.3,0.2-3.2,0.2-4.9V755h3.4v11.9h0.1c1.2-2.1,3.4-3.5,6.4-3.5c4.7,0,8,3.9,8,9.6
			c0,6.7-4.3,10.1-8.5,10.1c-2.7,0-4.9-1.1-6.3-3.5h-0.1l-0.2,3.1H695.2z M698.8,775.2c0,0.4,0.1,0.9,0.2,1.2c0.7,2.4,2.7,4,5.1,4
			c3.6,0,5.7-2.9,5.7-7.3c0-3.8-2-7-5.6-7c-2.3,0-4.5,1.6-5.2,4.2c-0.1,0.4-0.2,0.9-0.2,1.4V775.2z"/>
		<path d="M728,782.7l-0.3-2.4h-0.1c-1.1,1.5-3.1,2.8-5.8,2.8c-3.8,0-5.8-2.7-5.8-5.4c0-4.6,4.1-7.1,11.3-7v-0.4
			c0-1.6-0.4-4.4-4.3-4.4c-1.8,0-3.6,0.5-4.9,1.4l-0.8-2.3c1.6-1,3.8-1.7,6.2-1.7c5.8,0,7.2,3.9,7.2,7.7v7.1c0,1.6,0.1,3.2,0.3,4.5
			H728z M727.5,773.1c-3.7-0.1-8,0.6-8,4.3c0,2.2,1.5,3.3,3.2,3.3c2.5,0,4-1.6,4.6-3.2c0.1-0.4,0.2-0.7,0.2-1.1V773.1z"/>
		<path d="M735.9,779.2c1,0.7,2.8,1.4,4.5,1.4c2.5,0,3.7-1.2,3.7-2.8c0-1.6-1-2.5-3.5-3.5c-3.4-1.2-5-3.1-5-5.3c0-3,2.5-5.5,6.5-5.5
			c1.9,0,3.6,0.5,4.6,1.2l-0.9,2.5c-0.7-0.5-2.1-1.1-3.9-1.1c-2,0-3.2,1.2-3.2,2.6c0,1.6,1.1,2.3,3.6,3.2c3.3,1.2,5,2.9,5,5.7
			c0,3.3-2.6,5.7-7.1,5.7c-2.1,0-4-0.5-5.3-1.3L735.9,779.2z"/>
		<path d="M753.7,773.9c0.1,4.6,3,6.6,6.5,6.6c2.5,0,3.9-0.4,5.2-1l0.6,2.5c-1.2,0.5-3.3,1.2-6.3,1.2c-5.8,0-9.3-3.8-9.3-9.5
			c0-5.7,3.4-10.2,8.9-10.2c6.2,0,7.8,5.4,7.8,8.9c0,0.7-0.1,1.2-0.1,1.6H753.7z M763.8,771.5c0-2.2-0.9-5.6-4.8-5.6
			c-3.5,0-5,3.2-5.3,5.6H763.8z"/>
		<path d="M787.6,755v22.8c0,1.7,0,3.6,0.2,4.9h-3.1l-0.2-3.3h-0.1c-1.1,2.1-3.4,3.7-6.4,3.7c-4.6,0-8.1-3.9-8.1-9.6
			c0-6.3,3.9-10.1,8.5-10.1c2.9,0,4.8,1.4,5.7,2.9h0.1V755H787.6z M784.2,771.5c0-0.4,0-1-0.2-1.4c-0.5-2.2-2.4-4-5-4
			c-3.5,0-5.7,3.1-5.7,7.3c0,3.8,1.9,7,5.6,7c2.3,0,4.4-1.5,5-4.1c0.1-0.5,0.2-0.9,0.2-1.5V771.5z"/>
		<path d="M818.7,773.1c0,7-4.8,10-9.4,10c-5.1,0-9-3.7-9-9.7c0-6.3,4.1-10,9.4-10C815,763.4,818.7,767.4,818.7,773.1z M803.7,773.3
			c0,4.1,2.4,7.3,5.7,7.3c3.3,0,5.7-3.1,5.7-7.3c0-3.2-1.6-7.3-5.7-7.3C805.5,766,803.7,769.8,803.7,773.3z"/>
		<path d="M823,769c0-2,0-3.5-0.2-5.1h3l0.2,3.1h0.1c0.9-1.8,3.1-3.5,6.2-3.5c2.6,0,6.7,1.6,6.7,8v11.3h-3.4v-10.9
			c0-3-1.1-5.6-4.4-5.6c-2.3,0-4,1.6-4.6,3.5c-0.2,0.4-0.2,1-0.2,1.6v11.3H823V769z"/>
		<path d="M404.7,829.5l-0.3-2.4h-0.1c-1.1,1.5-3.1,2.8-5.8,2.8c-3.8,0-5.8-2.7-5.8-5.4c0-4.6,4.1-7.1,11.3-7v-0.4
			c0-1.6-0.4-4.4-4.3-4.4c-1.8,0-3.6,0.5-4.9,1.4l-0.8-2.3c1.6-1,3.8-1.7,6.2-1.7c5.8,0,7.2,3.9,7.2,7.7v7.1c0,1.6,0.1,3.2,0.3,4.5
			H404.7z M404.2,819.9c-3.7-0.1-8,0.6-8,4.3c0,2.2,1.5,3.3,3.2,3.3c2.5,0,4-1.6,4.6-3.2c0.1-0.4,0.2-0.7,0.2-1.1V819.9z"/>
		<path d="M426.5,828.8c-0.9,0.5-2.9,1.1-5.4,1.1c-5.7,0-9.4-3.9-9.4-9.6c0-5.8,4-10,10.1-10c2,0,3.8,0.5,4.8,1l-0.8,2.7
			c-0.8-0.5-2.1-0.9-4-0.9c-4.3,0-6.7,3.2-6.7,7.1c0,4.4,2.8,7.1,6.6,7.1c2,0,3.2-0.5,4.2-0.9L426.5,828.8z"/>
		<path d="M443.7,828.8c-0.9,0.5-2.9,1.1-5.4,1.1c-5.7,0-9.4-3.9-9.4-9.6c0-5.8,4-10,10.1-10c2,0,3.8,0.5,4.8,1l-0.8,2.7
			c-0.8-0.5-2.1-0.9-4-0.9c-4.3,0-6.7,3.2-6.7,7.1c0,4.4,2.8,7.1,6.6,7.1c2,0,3.2-0.5,4.2-0.9L443.7,828.8z"/>
		<path d="M463.5,824.4c0,2,0,3.7,0.2,5.1h-3l-0.2-3.1h-0.1c-0.9,1.5-2.9,3.5-6.2,3.5c-3,0-6.5-1.6-6.5-8.3v-11h3.4v10.5
			c0,3.6,1.1,6,4.2,6c2.3,0,3.9-1.6,4.5-3.1c0.2-0.5,0.3-1.1,0.3-1.8v-11.6h3.4V824.4z"/>
		<path d="M469.2,816.6c0-2.2,0-4.1-0.2-5.9h3l0.1,3.7h0.2c0.9-2.5,2.9-4.1,5.2-4.1c0.4,0,0.7,0,1,0.1v3.2c-0.4-0.1-0.7-0.1-1.2-0.1
			c-2.4,0-4.1,1.8-4.6,4.4c-0.1,0.5-0.2,1-0.2,1.6v10.1h-3.4V816.6z"/>
		<path d="M492.2,829.5l-0.3-2.4h-0.1c-1.1,1.5-3.1,2.8-5.8,2.8c-3.8,0-5.8-2.7-5.8-5.4c0-4.6,4.1-7.1,11.3-7v-0.4
			c0-1.6-0.4-4.4-4.3-4.4c-1.8,0-3.6,0.5-4.9,1.4l-0.8-2.3c1.6-1,3.8-1.7,6.2-1.7c5.8,0,7.2,3.9,7.2,7.7v7.1c0,1.6,0.1,3.2,0.3,4.5
			H492.2z M491.7,819.9c-3.7-0.1-8,0.6-8,4.3c0,2.2,1.5,3.3,3.2,3.3c2.5,0,4-1.6,4.6-3.2c0.1-0.4,0.2-0.7,0.2-1.1V819.9z"/>
		<path d="M504.5,805.2v5.4h4.9v2.6h-4.9v10.2c0,2.3,0.7,3.7,2.6,3.7c0.9,0,1.6-0.1,2-0.2l0.2,2.6c-0.7,0.3-1.7,0.5-3,0.5
			c-1.6,0-2.9-0.5-3.7-1.4c-1-1-1.3-2.7-1.3-4.9v-10.3h-2.9v-2.6h2.9v-4.5L504.5,805.2z"/>
		<path d="M515,820.7c0.1,4.6,3,6.6,6.5,6.6c2.5,0,3.9-0.4,5.2-1l0.6,2.5c-1.2,0.5-3.3,1.2-6.3,1.2c-5.8,0-9.3-3.8-9.3-9.5
			c0-5.7,3.4-10.2,8.9-10.2c6.2,0,7.8,5.4,7.8,8.9c0,0.7-0.1,1.2-0.1,1.6H515z M525.1,818.3c0-2.2-0.9-5.6-4.8-5.6
			c-3.5,0-5,3.2-5.3,5.6H525.1z"/>
		<path d="M544.7,805.4c0,1.2-0.8,2.1-2.2,2.1c-1.2,0-2.1-0.9-2.1-2.1c0-1.2,0.9-2.1,2.1-2.1C543.9,803.2,544.7,804.1,544.7,805.4z
			 M540.9,829.5v-18.9h3.4v18.9H540.9z"/>
		<path d="M550,815.8c0-2,0-3.5-0.2-5.1h3l0.2,3.1h0.1c0.9-1.8,3.1-3.5,6.2-3.5c2.6,0,6.7,1.6,6.7,8v11.3h-3.4v-10.9
			c0-3-1.1-5.6-4.4-5.6c-2.3,0-4,1.6-4.6,3.5c-0.2,0.4-0.2,1-0.2,1.6v11.3H550V815.8z"/>
		<path d="M572,829.5v-16.3h-2.7v-2.6h2.7v-0.9c0-2.7,0.6-5.1,2.2-6.6c1.3-1.2,3-1.8,4.6-1.8c1.2,0,2.3,0.3,2.9,0.5l-0.5,2.7
			c-0.5-0.2-1.2-0.4-2.2-0.4c-2.9,0-3.7,2.6-3.7,5.5v1h4.6v2.6h-4.6v16.3H572z"/>
		<path d="M599.6,819.9c0,7-4.8,10-9.4,10c-5.1,0-9-3.7-9-9.7c0-6.3,4.1-10,9.4-10C596,810.2,599.6,814.2,599.6,819.9z M584.6,820.1
			c0,4.1,2.4,7.3,5.7,7.3c3.3,0,5.7-3.1,5.7-7.3c0-3.2-1.6-7.3-5.7-7.3C586.4,812.8,584.6,816.6,584.6,820.1z"/>
		<path d="M602.2,827.5c0-1.4,1-2.5,2.3-2.5s2.3,1,2.3,2.5c0,1.4-0.9,2.5-2.3,2.5C603.1,830,602.2,828.9,602.2,827.5z"/>
	</g>
	<path class="st16" d="M1710,655.5h-474c-6.6,0-12-5.4-12-12V536.5c0-6.6,5.4-12,12-12h474c6.6,0,12,5.4,12,12v106.9
		C1722,650.1,1716.6,655.5,1710,655.5z"/>
	<path class="st0" d="M1236,655.5c-6.6,0-12-5.4-12-12V536.5c0-6.6,5.4-12,12-12l237,0.5v130L1236,655.5z"/>
	<g>
		<path d="M1336.5,606.8l-10.3-40.4h5.5l4.8,20.5c1.2,5,2.3,10.1,3,14h0.1c0.7-4,1.9-8.8,3.3-14l5.4-20.4h5.5l4.9,20.5
			c1.1,4.8,2.2,9.6,2.8,13.9h0.1c0.8-4.4,2-8.9,3.2-14l5.3-20.4h5.3l-11.5,40.4h-5.5l-5.1-21.1c-1.3-5.2-2.1-9.1-2.6-13.2h-0.1
			c-0.7,4-1.6,8-3.1,13.2l-5.8,21.1H1336.5z"/>
		<path d="M1381.5,593.2c0.1,7.1,4.7,10.1,10,10.1c3.8,0,6.1-0.7,8-1.5l0.9,3.8c-1.9,0.8-5,1.8-9.7,1.8c-8.9,0-14.3-5.9-14.3-14.6
			c0-8.8,5.2-15.7,13.6-15.7c9.5,0,12,8.3,12,13.7c0,1.1-0.1,1.9-0.2,2.5H1381.5z M1397,589.4c0.1-3.4-1.4-8.6-7.3-8.6
			c-5.3,0-7.7,4.9-8.1,8.6H1397z"/>
		<path d="M1408.4,606.8c0.1-2,0.2-4.9,0.2-7.5v-35.1h5.2v18.2h0.1c1.9-3.2,5.2-5.3,9.9-5.3c7.2,0,12.3,6,12.2,14.8
			c0,10.4-6.5,15.5-13,15.5c-4.2,0-7.6-1.6-9.7-5.5h-0.2l-0.2,4.8H1408.4z M1413.8,595.1c0,0.7,0.1,1.3,0.2,1.9
			c1,3.7,4.1,6.2,7.9,6.2c5.5,0,8.8-4.5,8.8-11.2c0-5.8-3-10.8-8.6-10.8c-3.6,0-7,2.5-8,6.5c-0.1,0.6-0.3,1.3-0.3,2.2V595.1z"/>
	</g>
	<g>
		<path d="M1493.3,608.8l-0.4-3.2h-0.2c-1.4,2-4.1,3.7-7.7,3.7c-5.1,0-7.7-3.6-7.7-7.2c0-6.1,5.4-9.4,15.1-9.4v-0.5
			c0-2.1-0.6-5.8-5.7-5.8c-2.3,0-4.8,0.7-6.6,1.9l-1-3c2.1-1.4,5.1-2.2,8.3-2.2c7.7,0,9.6,5.3,9.6,10.3v9.4c0,2.2,0.1,4.3,0.4,6
			H1493.3z M1492.6,595.9c-5-0.1-10.7,0.8-10.7,5.7c0,3,2,4.4,4.3,4.4c3.3,0,5.4-2.1,6.1-4.2c0.2-0.5,0.3-1,0.3-1.5V595.9z"/>
		<path d="M1504.4,591.8c0-3.2-0.1-5.8-0.2-8.2h4.1l0.2,4.3h0.1c1.9-3.1,4.8-4.9,8.9-4.9c6.1,0,10.7,5.1,10.7,12.8
			c0,9-5.5,13.5-11.4,13.5c-3.3,0-6.2-1.5-7.7-4h-0.1v13.7h-4.5V591.8z M1508.9,598.5c0,0.7,0.1,1.3,0.2,1.9
			c0.8,3.2,3.6,5.4,6.9,5.4c4.8,0,7.6-4,7.6-9.7c0-5-2.7-9.4-7.5-9.4c-3.1,0-6,2.2-6.9,5.7c-0.2,0.6-0.3,1.2-0.3,1.9V598.5z"/>
		<path d="M1534,591.8c0-3.2-0.1-5.8-0.2-8.2h4.1l0.2,4.3h0.1c1.9-3.1,4.8-4.9,8.9-4.9c6.1,0,10.7,5.1,10.7,12.8
			c0,9-5.5,13.5-11.4,13.5c-3.3,0-6.2-1.5-7.7-4h-0.1v13.7h-4.5V591.8z M1538.5,598.5c0,0.7,0.1,1.3,0.2,1.9
			c0.8,3.2,3.6,5.4,6.9,5.4c4.8,0,7.6-4,7.6-9.7c0-5-2.7-9.4-7.5-9.4c-3.1,0-6,2.2-6.9,5.7c-0.2,0.6-0.3,1.2-0.3,1.9V598.5z"/>
		<path d="M1563.6,571.8h4.6v36.9h-4.6V571.8z"/>
		<path d="M1581,576.5c0.1,1.6-1.1,2.8-2.9,2.8c-1.6,0-2.8-1.2-2.8-2.8c0-1.6,1.2-2.9,2.9-2.9C1579.9,573.7,1581,574.9,1581,576.5z
			 M1575.9,608.8v-25.2h4.6v25.2H1575.9z"/>
		<path d="M1606,607.8c-1.2,0.6-3.8,1.5-7.2,1.5c-7.6,0-12.5-5.1-12.5-12.8c0-7.7,5.3-13.4,13.5-13.4c2.7,0,5.1,0.7,6.3,1.3l-1,3.5
			c-1.1-0.6-2.8-1.2-5.3-1.2c-5.8,0-8.9,4.3-8.9,9.5c0,5.8,3.7,9.4,8.7,9.4c2.6,0,4.3-0.7,5.6-1.2L1606,607.8z"/>
		<path d="M1625.3,608.8l-0.4-3.2h-0.2c-1.4,2-4.1,3.7-7.7,3.7c-5.1,0-7.7-3.6-7.7-7.2c0-6.1,5.4-9.4,15.1-9.4v-0.5
			c0-2.1-0.6-5.8-5.7-5.8c-2.3,0-4.8,0.7-6.6,1.9l-1-3c2.1-1.4,5.1-2.2,8.3-2.2c7.7,0,9.6,5.3,9.6,10.3v9.4c0,2.2,0.1,4.3,0.4,6
			H1625.3z M1624.6,595.9c-5-0.1-10.7,0.8-10.7,5.7c0,3,2,4.4,4.3,4.4c3.3,0,5.4-2.1,6.1-4.2c0.2-0.5,0.3-1,0.3-1.5V595.9z"/>
		<path d="M1641.7,576.4v7.2h6.6v3.5h-6.6v13.6c0,3.1,0.9,4.9,3.4,4.9c1.2,0,2.1-0.2,2.7-0.3l0.2,3.4c-0.9,0.4-2.3,0.6-4.1,0.6
			c-2.1,0-3.8-0.7-4.9-1.9c-1.3-1.4-1.8-3.6-1.8-6.6v-13.7h-3.9v-3.5h3.9v-6L1641.7,576.4z"/>
		<path d="M1658.5,576.5c0.1,1.6-1.1,2.8-2.9,2.8c-1.6,0-2.8-1.2-2.8-2.8c0-1.6,1.2-2.9,2.9-2.9
			C1657.4,573.7,1658.5,574.9,1658.5,576.5z M1653.4,608.8v-25.2h4.6v25.2H1653.4z"/>
		<path d="M1688.3,596c0,9.3-6.4,13.4-12.5,13.4c-6.8,0-12.1-5-12.1-12.9c0-8.4,5.5-13.4,12.5-13.4
			C1683.5,583,1688.3,588.3,1688.3,596z M1668.4,596.2c0,5.5,3.2,9.7,7.6,9.7c4.4,0,7.6-4.1,7.6-9.8c0-4.3-2.1-9.7-7.5-9.7
			S1668.4,591.4,1668.4,596.2z"/>
		<path d="M1694.1,590.4c0-2.6-0.1-4.7-0.2-6.8h4.1l0.3,4.2h0.1c1.2-2.4,4.2-4.7,8.3-4.7c3.5,0,8.9,2.1,8.9,10.7v15h-4.6v-14.5
			c0-4.1-1.5-7.4-5.8-7.4c-3,0-5.4,2.1-6.1,4.7c-0.2,0.6-0.3,1.4-0.3,2.1v15.1h-4.6V590.4z"/>
	</g>
	<g id="Show-more" class="st5">
		<g class="st17">
			<path class="st16" d="M996,1080.2v-22.6c0-4,3.2-7.3,7.2-7.3h143.6c4,0,7.2,3.3,7.2,7.3v22.6H996z"/>
			<path class="st15" d="M1076.2,1080.2l0.1-29.9h70.6c4,0,7.2,3.3,7.2,7.3v22.6H1076.2z"/>
		</g>
		<text transform="matrix(1 0 0 1 1013.9043 1074.79)" class="st17 st18 st19">Show more</text>
	</g>
	<path class="st20" d="M1834,190.6v-14l-18.7-5.8l-1.4-6.8l13.2-13.6l-6.8-12.7l-19,4.9l-4.7-4.9l4.9-18.5l-12.5-7.6l-14,13.8
		l-7-2.1l-4.6-17.3h-14.8l-4.1,17.3l-7.9,2.1l-12.9-13.8l-12.7,7.2l5.3,18.2l-5.3,5.5l-18.7-4.9l-7.2,12.5l13.6,13.8l-1.9,6.8
		l-18.7,5.1l-0.2,14.2l18.9,4.9l1.6,7.9l-13.2,13l6.8,12.1l19.4-4.9l4.7,5.6l-5.3,17.6l13,7.6l12.7-13.4l7.6,1.9l4.4,18.7l14.8,0.2
		l4.4-18.9l7.6-2.3l13.6,14.2l13.4-7.9l-5.8-18.4l5.1-5.3l18.9,5.8l6.8-13.2l-13.7-12.3l1.4-7.9L1834,190.6L1834,190.6z
		 M1755.8,220.2c-20.5,0-37.2-16.7-37.2-37.2s16.7-37.2,37.2-37.2c20.6,0,37.2,16.7,37.2,37.2
		C1793.1,203.6,1776.4,220.2,1755.8,220.2z M1803.2,230.9l30.7,9.5v26.2l-36.1,8.8l-2.7,14.9l25.5,23.1l-12.6,24.8l-35.4-10.9
		l-9.6,10l10.9,34.4l-25.1,14.9l-25.5-26.5l-14.2,4.3l-8.3,35.4l-27.8-0.3l-8.3-35.1l-14.2-3.7l-23.9,25.2l-24.5-14.2l10-33.1
		l-9-10.6l-36.4,9.2l-12.9-22.8l24.8-24.5l-3.1-14.9l-35.4-9.2l0.3-26.8l35.1-9.6l3.7-12.9l-25.5-25.8l13.6-23.5l35.1,9.2l10-10.3
		l-10-34.1l23.9-13.6l24.1,25.8l14.9-4l7.6-34.1h27.8l7.6,30.1l-14.8-3.9l-4.1-1.1l-2.2,3.7l-7.2,12.5l-2.2,3.7l3,3l11.3,11.4
		l-0.2,0.7l-15.6,4.3l-4.1,1.1l-0.1,4.2l-0.1,8.5c-31.1,6.8-54.6,34.6-54.6,67.8c0,38.2,31,69.3,69.3,69.3
		c33.1,0,60.8-23.2,67.7-54.3l8.7,0.1l4.5,0.1l1-4.4l3.7-15.7l1.2-0.4l11.2,11.7l3.1,3.2l3.8-2.2l13.4-7.9l3.8-2.3l-1.3-4.3
		L1803.2,230.9L1803.2,230.9z"/>
	<g>
		
			<image style="overflow:visible;" width="1472" height="824" xlink:href="../../../../../De pe Desktop/Retea C4G pt Raluca/8.jpg"  transform="matrix(0.2255 0 0 0.2255 1526 104.538)">
		</image>
		<path d="M1845.1,86h-310.3c-15.1,0-27.4,12.3-27.4,27.4v182.5c0,15.1,12.3,27.4,27.4,27.4h139.8v18.3h-91.3
			c-10.1,0-18.3,8.2-18.3,18.3s8.2,18.3,18.3,18.3h219c10.1,0,18.3-8.2,18.3-18.3s-8.2-18.3-18.3-18.3h-91.3v-18.3h134
			c15.1,0,27.4-12.3,27.4-27.4V113.4C1872.5,98.3,1860.2,86,1845.1,86z M1836,286.8h-292V122.5h292V286.8z"/>
		<path class="st21" d="M1641.7,256c4.6,4.6,12.2,4.6,16.8,0l8.4-8.4c4.6-4.6,4.6-12.2,0-16.8l-26.6-26.6l26.6-26.6
			c4.6-4.6,4.6-12.2,0-16.8l-8.4-8.4c-4.6-4.6-12.2-4.6-16.8,0l-43.4,43.4c-4.6,4.6-4.6,12.2,0,16.8L1641.7,256z"/>
		<path class="st21" d="M1713.1,247.6l8.4,8.4c4.6,4.6,12.2,4.6,16.8,0l43.4-43.4c4.6-4.6,4.6-12.2,0-16.8l-43.4-43.4
			c-4.6-4.6-12.2-4.6-16.8,0l-8.4,8.4c-4.6,4.6-4.6,12.2,0,16.8l26.6,26.6l-26.6,26.6C1708.4,235.4,1708.4,243,1713.1,247.6
			L1713.1,247.6z"/>
	</g>
	<path d="M1428.1,307.8c1.3-7.1,1.3-14.4,0-21.6l13.1-7.5c1.5-0.9,2.2-2.6,1.7-4.3c-3.4-10.9-9.2-20.9-16.8-29.1
		c-1.2-1.3-3-1.6-4.6-0.7l-13.1,7.5c-5.5-4.7-11.8-8.4-18.7-10.8v-15.1c0-1.7-1.2-3.2-2.9-3.6c-11.3-2.5-22.8-2.4-33.5,0
		c-1.7,0.4-2.9,1.9-2.9,3.6v15.1c-6.8,2.4-13.2,6.1-18.7,10.8l-13.1-7.5c-1.5-0.9-3.4-0.6-4.6,0.7c-7.6,8.2-13.4,18.1-16.8,29.1
		c-0.5,1.7,0.2,3.4,1.7,4.3l13.1,7.5c-1.3,7.1-1.3,14.4,0,21.6l-13.1,7.5c-1.5,0.9-2.2,2.6-1.7,4.3c3.4,10.9,9.2,20.8,16.8,29.1
		c1.2,1.3,3,1.6,4.6,0.7l13.1-7.5c5.5,4.7,11.8,8.4,18.7,10.8v15.1c0,1.7,1.2,3.2,2.9,3.6c11.3,2.5,22.8,2.4,33.5,0
		c1.7-0.4,2.9-1.9,2.9-3.6v-15.1c6.8-2.4,13.2-6.1,18.7-10.8l13.1,7.5c1.5,0.9,3.4,0.6,4.6-0.7c7.6-8.2,13.4-18.1,16.8-29.1
		c0.5-1.7-0.2-3.4-1.7-4.3L1428.1,307.8z M1370.1,321.5c-13.6,0-24.6-11-24.6-24.6s11-24.6,24.6-24.6s24.6,11,24.6,24.6
		S1383.7,321.5,1370.1,321.5z M1167.5,248.4c17.9,0,32.4-14.5,32.4-32.4s-14.5-32.4-32.4-32.4s-32.4,14.5-32.4,32.4
		S1149.7,248.4,1167.5,248.4z M1281,264.6c1,0,1.9-0.3,2.8-0.3c4.2-11,10.4-21.3,18.4-30c3.7-4.1,9.1-6.4,14.6-6.4
		c3.5,0,6.9,0.9,9.9,2.7l4,2.3c0.4-0.3,0.8-0.5,1.2-0.7c3.5-7.4,5.7-15.6,5.7-24.3c0-31.3-25.4-56.7-56.7-56.7
		c-31.3,0-56.7,25.3-56.7,56.7S1249.6,264.6,1281,264.6z M1334.3,363.1c-1.2-0.6-2.3-1.3-3.4-2c-4.2,2.4-7.7,5-13.9,5
		c-5.5,0-10.8-2.3-14.6-6.4c-9.3-10-16.4-22.2-20.4-35.2c-5.4-17.5,12.6-25.2,13.1-25.5c-0.1-1.3-0.1-2.6,0-3.9l-4-2.3
		c-1.9-1.1-3.5-2.5-5-4.1c-1.7,0.1-3.3,0.3-5,0.3c-12.5,0-24.1-3-34.7-8.1h-4.2c-32.3,0-58.4,26.1-58.4,58.3v14.6
		c0,13.4,10.9,24.3,24.3,24.3h129.3c-1.9-3-3.1-6.5-3.1-10.3V363.1L1334.3,363.1z M1206.6,274c-5.9-5.8-13.9-9.4-22.8-9.4h-32.4
		c-17.9,0-32.4,14.5-32.4,32.4v16.2c0,9,7.2,16.2,16.2,16.2h33.4C1171.7,305.4,1186.2,285.2,1206.6,274z"/>
	<path d="M1249.6,861.5h47.2l-23.6-56.7L1249.6,861.5L1249.6,861.5z M1273.2,715.4l-128.6,46l19.7,170.6l108.9,60.6l108.9-60.6
		l19.7-170.6L1273.2,715.4z M1353.7,926.9h-30.1l-16.2-40.5H1239l-16.2,40.5h-30.1l80.5-180.9L1353.7,926.9z"/>
	<g>
		<path d="M1565.8,731.4v261.2H1827V731.4H1565.8z M1707.9,935.1c0,25.4-14.9,37-36.7,37c-19.6,0-31-10.1-36.8-22.4l20-12.1
			c3.8,6.8,7.3,12.6,15.8,12.6c8,0,13.2-3.1,13.2-15.5v-83.4h24.5V935.1L1707.9,935.1z M1766,972.1c-22.8,0-37.5-10.8-44.7-25.1
			l20-11.5c5.2,8.6,12.1,14.9,24.2,14.9c10.1,0,16.7-5.1,16.7-12.1c0-8.4-6.6-11.4-17.9-16.3l-6.1-2.6c-17.7-7.5-29.4-17-29.4-37
			c0-18.4,14.1-32.4,35.9-32.4c15.6,0,26.8,5.4,34.9,19.6l-19.1,12.2c-4.2-7.5-8.7-10.5-15.8-10.5c-7.2,0-11.7,4.5-11.7,10.5
			c0,7.3,4.5,10.3,15.1,14.9l6.1,2.6c20.9,8.9,32.6,18.1,32.6,38.6C1806.7,960,1789.3,972.1,1766,972.1L1766,972.1z"/>
		<path class="st22" d="M1574.8,739.3l9.8,111.4l44.2,14.7l44.2-14.7l9.8-111.4H1574.8z M1662.9,761.8l-1.4,13.3l-32.5,13.9l-0.1,0
			h31.4l-3.6,41.3l-27.6,8.1l-27.8-8.2l-1.8-20.8h13.8l0.9,10.8l14.8,3.7l15.4-4.3l1-17.3l-46.8-0.1v0l-0.1,0l-1-13l31.6-13.1
			l1.8-0.8h-34.6l-1.6-13.3H1662.9z"/>
	</g>
</g>
<g id="Layer_2">
</g>
</svg>
