<?xml version="1.0" encoding="utf-8"?>
<!-- Generator: Adobe Illustrator 22.0.1, SVG Export Plug-In . SVG Version: 6.00 Build 0)  -->
<svg version="1.1" id="ALL" xmlns="http://www.w3.org/2000/svg" xmlns:xlink="http://www.w3.org/1999/xlink" x="0px" y="0px"
	 viewBox="0 0 1920 1080" style="enable-background:new 0 0 1920 1080;" xml:space="preserve">
<style type="text/css">
	.st0{display:none;}
	.st1{display:inline;fill:#002B7F;}
	.st2{display:inline;fill:#CEBF0B;}
	.st3{display:inline;fill:#EF3818;}
	.st4{fill:#222222;}
	.st5{fill:#33EC00;}
	.st6{fill:#5FEE3E;}
	.st7{fill:url(#SVGID_1_);}
	.st8{fill:url(#SVGID_2_);}
	.st9{fill:url(#SVGID_3_);}
</style>
<g id="LOGO">
	<g id="Check_Green">
		<g id="Layer_4" class="st0">
			<polygon class="st1" points="1090.4,248.3 1057.9,332.1 960.7,195.3 1088.1,122.3 			"/>
			<polygon class="st2" points="1067.4,318 985,363.9 903.4,249.1 970.2,181.1 			"/>
			<polygon class="st3" points="1006.1,376.3 958.4,408.1 905.5,448.6 872.5,319.6 908,241.1 			"/>
		</g>
		<g id="Layer_7">
			<g>
				<path class="st4" d="M343.1,204c21.2,0,35.7,7.5,43.1,22.3c4.1,8.1,11.2,12.4,20.9,12.4h27c-2.3-22.3-11-40-26.4-53
					C391.3,173,369.8,167,343,167c-69.2,0-104.7,39.7-104.7,105.7c0,63.8,33.5,105.4,100.8,105.4c55.4,0,90.9-26.8,95-73.9h-43.5
					c-4.8,22.6-20.9,37-48.9,37c-40.9,0-58.6-28.4-58.6-68.4C283.2,231.4,301.6,204,343.1,204z"/>
				<path class="st4" d="M523.8,305.6h-48.7v-41.4h-12.4c-6.8,0-12.1,5.6-12.1,11.9V375h24.5v-49.1h48.7V375h24.5V264.2h-24.5V305.6
					z"/>
				<path class="st4" d="M560.3,276.1v99h85.8v-20.4h-61.9V326h33.6c8.5,0,12.7-3.8,12.6-11.4v-7.3h-46.2v-23.8h61.9v-19.2h-73.5
					C564.3,264.3,560.3,268.4,560.3,276.1z"/>
				<path class="st4" d="M712.9,356.7c-22.1,0-31.7-15.3-31.7-37c0-22.3,9.9-37.2,32.4-37.2c11.6,0,19.3,4.1,23.4,12.1
					c2.2,4.3,6.1,6.6,11.3,6.6h14.6c-1.2-12.1-5.9-21.6-14.3-28.7c-8.9-6.9-20.6-10.1-35-10.1c-37.5,0-56.7,21.5-56.7,57.2
					c0,34.5,18.1,57,54.5,57c29.9,0,49.1-14.5,51.6-39.9h-23.5C736.8,348.9,728.1,356.7,712.9,356.7z"/>
				<path class="st4" d="M828.3,309.2l47.3-45h-30.7l-46.2,45.7v-45.7h-12.1c-6.9,0-12.2,5.6-12.1,11.9V375h24.2v-38.8
					c0-3.7,2.2-6.5,6.8-8c4.5-1.5,9.4,1.2,14.6,7.6l30,39.2h29.7L828.3,309.2z"/>
			</g>
			<g>
				<path class="st5" d="M1206.6,277.6c0,11.7,9.9,21.1,22.4,21.1h26.3c-4.8,24.6-22.4,43.7-52.5,43.7c-40-2.7-59.5-26.8-59.2-71.7
					s19.5-67.2,57-67.2c21.2,0,36.2,8.2,44.8,24.7c5.2,6.9,11.6,10.5,19.5,10.5h27.5c-1.6-23.2-10.8-41-27.5-53.6
					c-18.2-12.1-40.3-18.1-65.6-18.1c-64.4-2.4-102.5,45.2-101.5,105.6c0,59.9,37.8,105.4,100.2,105.4c31.4,0,47-10.2,62.4-28.9
					l1.9,10c1,9.4,11.2,16,21.8,16h11.2V264.6h-88.7L1206.6,277.6L1206.6,277.6z"/>
				<path class="st5" d="M1410.1,368.2l-1.1-21.7c-0.5-7.2-1.6-12.7-3.6-16.5c-2.4-3.4-6.2-6-11.3-7.7c11.3-2.9,17.7-12.1,17.7-26
					c0-22.8-13.5-31.6-37.9-31.6h-44.7c-6.8,0-12.1,5.6-12.1,11.9v98.9h24v-43h25.6c14.2,0,16.7,4.3,17.6,17.6
					c0.2,10.8,0.6,17.2,1.1,18.8c0.2,2.2,0.7,4.6,1.9,6.7h26.5C1411.7,374.1,1410.3,371.6,1410.1,368.2z M1369.6,313.1h-28.4v-29.2
					h29.8c10.7,0,16.4,4.4,16.4,14.5C1387.4,309.2,1381,313.1,1369.6,313.1z"/>
				<path class="st5" d="M1426,276.6v99h85.2v-20.4h-61.5v-28.7h33.4c8.5,0,12.6-3.8,12.5-11.4v-7.3h-45.9V284h61.5v-19.2h-73.1
					C1430.1,264.8,1426,268.9,1426,276.6z"/>
				<path class="st5" d="M1523.7,276.6v99h85.2v-20.4h-61.5v-28.7h33.4c8.5,0,12.6-3.8,12.5-11.4v-7.3h-45.9V284h61.5v-19.2h-73.1
					C1527.7,264.8,1523.7,268.9,1523.7,276.6z"/>
				<path class="st5" d="M1694.1,264.7v76.1l-47.9-76.1h-13c-6.7,0-12.1,5.6-12.1,11.9v98.9h23.7v-76.1l47.9,76.1h25V264.7H1694.1
					L1694.1,264.7z"/>
			</g>
		</g>
	</g>
	<g id="Frunza_1_">
		<g id="Frunza">
			<path class="st6" d="M1089.9,156.3c0,0-21.9,32.2-86,65.3c-63.6,32.9-76.8,33.3-106.9,84.7c-16.6,28.4-22.1,84,16.7,151.7
				c-4.8-88.8,48.4-105.7,48.4-105.7s-22-0.2-33.5-0.3c-11.5,0-27.8-9.5-17.4-34.3c10.4-24.8,32.8-36,58.1-50.8
				c25.3-14.8,66-32.1,83.1-30.1s5.2,16.7,5.2,16.7s3.5,0,3.2,9.5s-45.5,62.3-45.5,62.3c30.8-4,26.3,6.1,25.6,11.2
				c-0.6,5.1-2.3,11.7-17.2,15.8c-14.9,4.1-28.7-0.9-46.5,14.9s-20,30.9-20.8,40.9s4.9,17.7,4.9,17.7c28.5-14.5,66.4-30.6,94.4-65.4
				C1083.7,325.7,1089.9,186,1089.9,156.3z"/>
			<path class="st6" d="M1040.9,257.4c0,0-57.4,14.4-100.1,63.8c0,0,6.7,5.5,43,3.3L1040.9,257.4z"/>
			
				<linearGradient id="SVGID_1_" gradientUnits="userSpaceOnUse" x1="975.4644" y1="544.1675" x2="750.2408" y2="728.8293" gradientTransform="matrix(1.065 3.964543e-03 -3.714482e-03 0.9978 58.5541 -328.115)">
				<stop  offset="0" style="stop-color:#000000"/>
				<stop  offset="0.4778" style="stop-color:#000000;stop-opacity:0"/>
			</linearGradient>
			<path class="st7" d="M1040.9,257.4c0,0-57.4,14.4-100.1,63.8c0,0,6.7,5.5,43,3.3L1040.9,257.4z"/>
			
				<linearGradient id="SVGID_2_" gradientUnits="userSpaceOnUse" x1="1015.3414" y1="413.8734" x2="694.6652" y2="933.6508" gradientTransform="matrix(1.065 3.964543e-03 -3.714482e-03 0.9978 58.5541 -328.115)">
				<stop  offset="0" style="stop-color:#000000"/>
				<stop  offset="0.4877" style="stop-color:#000000;stop-opacity:0"/>
				<stop  offset="1" style="stop-color:#000000"/>
			</linearGradient>
			<path class="st8" d="M1089.9,156.3c0,0-21.9,32.2-86,65.3c-63.6,32.9-76.8,33.3-106.9,84.7c-16.6,28.4-22.1,84,16.7,151.7
				c-4.8-88.8,48.4-105.7,48.4-105.7s-22-0.2-33.5-0.3c-11.5,0-27.8-9.5-17.4-34.3c10.4-24.8,32.8-36,58.1-50.8
				c25.3-14.8,66-32.1,83.1-30.1s5.2,16.7,5.2,16.7s3.5,0,3.2,9.5s-45.5,62.3-45.5,62.3c30.8-4,26.3,6.1,25.6,11.2
				c-0.6,5.1-2.3,11.7-17.2,15.8c-14.9,4.1-28.7-0.9-46.5,14.9s-20,30.9-20.8,40.9s4.9,17.7,4.9,17.7c28.5-14.5,66.4-30.6,94.4-65.4
				C1083.7,325.7,1089.9,186,1089.9,156.3z"/>
			<path class="st5" d="M1055.7,360.5c28-34.9,34.1-174.5,34.1-204.2l0,0c-5.2,20.4-19.2,59.6-37.2,80.7c16.8,2.1,5,16.7,5,16.7
				s3.5,0,3.2,9.5c-0.3,9.5-45.5,62.3-45.5,62.3c30.8-4,26.3,6.1,25.6,11.2c-0.6,5.1-2.3,11.7-17.2,15.8
				c-14.9,4.1-28.7-0.9-46.5,14.9s-20,30.9-20.8,40.9s4.9,17.7,4.9,17.7C989.8,411.4,1027.8,395.4,1055.7,360.5z"/>
			
				<linearGradient id="SVGID_3_" gradientUnits="userSpaceOnUse" x1="1022.5237" y1="492.2599" x2="738.3578" y2="874.3622" gradientTransform="matrix(1.065 3.964543e-03 -3.714482e-03 0.9978 58.5541 -328.115)">
				<stop  offset="0" style="stop-color:#000000;stop-opacity:0.2"/>
				<stop  offset="0.4877" style="stop-color:#000000;stop-opacity:0"/>
				<stop  offset="0.9373" style="stop-color:#000000;stop-opacity:0.8777"/>
				<stop  offset="1" style="stop-color:#000000"/>
			</linearGradient>
			<path class="st9" d="M1055.7,360.5c28-34.9,34.1-174.5,34.1-204.2l0,0c-5.2,20.4-19.2,59.6-37.2,80.7c16.8,2.1,5,16.7,5,16.7
				s3.5,0,3.2,9.5c-0.3,9.5-45.5,62.3-45.5,62.3c30.8-4,26.3,6.1,25.6,11.2c-0.6,5.1-2.3,11.7-17.2,15.8
				c-14.9,4.1-28.7-0.9-46.5,14.9s-20,30.9-20.8,40.9s4.9,17.7,4.9,17.7C989.8,411.4,1027.8,395.4,1055.7,360.5z"/>
		</g>
	</g>
</g>
</svg>
