<?xml version="1.0" encoding="utf-8"?>
<!-- Generator: Adobe Illustrator 22.0.1, SVG Export Plug-In . SVG Version: 6.00 Build 0)  -->
<svg version="1.1" id="ALL" xmlns="http://www.w3.org/2000/svg" xmlns:xlink="http://www.w3.org/1999/xlink" x="0px" y="0px"
	 viewBox="0 0 1920 1080" style="enable-background:new 0 0 1920 1080;" xml:space="preserve">
<style type="text/css">
	.st0{fill:#05FC9D;}
	.st1{fill:#3B6D2C;}
	.st2{fill:#102701;}
</style>
<polygon id="Bucata_BG" class="st0" points="999.4,0 1882.6,0 1483.2,1080 560.3,1080 "/>
<g id="TXT_2">
	<rect x="1512.5" y="917" class="st1" width="17" height="16"/>
	<g>
		<path class="st2" d="M709.5,905.2h-5.1v-5.7h5.1v-5.1c0-2.4,0.6-4.5,1.9-6.1s3.4-2.4,6.3-2.4c0.9,0,1.8,0.1,2.8,0.3
			c1,0.2,1.8,0.4,2.5,0.6v4.8h-3.4c-2.1,0-3.2,1-3.2,3.1v4.9h6.6v5.7h-6.6v29.4h-6.9V905.2z"/>
		<path class="st2" d="M730,930.9c-2.8-3-4.2-7.6-4.2-13.8c0-6.2,1.4-10.8,4.2-13.8c2.8-3,6.9-4.5,12.5-4.5c5.5,0,9.7,1.5,12.5,4.5
			c2.8,3,4.2,7.6,4.2,13.8c0,6.2-1.4,10.8-4.2,13.8c-2.8,3-7,4.5-12.5,4.5C737,935.4,732.8,933.9,730,930.9z M749.9,926.8
			c1.5-2,2.3-5.1,2.3-9.4v-0.7c0-4.3-0.8-7.4-2.3-9.4s-4-3-7.4-3c-3.3,0-5.8,1-7.3,3s-2.3,5.1-2.3,9.4v0.7c0,4.3,0.8,7.4,2.3,9.4
			c1.5,2,4,3,7.3,3C745.9,929.7,748.3,928.8,749.9,926.8z"/>
		<path class="st2" d="M766.1,899.6h5.5l0.7,5.4h0.4c1.6-4.1,4.3-6.2,8.1-6.2c0.8,0,1.5,0.1,2.1,0.2c0.6,0.2,1,0.3,1.2,0.3v6.5h-2.5
			c-2.6,0-4.7,0.8-6.3,2.3c-1.6,1.5-2.3,3.8-2.3,6.9v19.6h-6.9V899.6z"/>
		<path class="st2" d="M809.2,933.3c-2.3-1.4-3.5-4-3.5-7.7c0-4.5,2-7.6,5.9-9.3c3.9-1.7,9.5-2.6,16.8-2.6v-3.5
			c0-1.9-0.5-3.4-1.5-4.4c-1-1-2.9-1.5-5.6-1.5c-2.6,0-4.5,0.5-5.6,1.4c-1.1,0.9-1.6,2.1-1.6,3.4v0.9h-6.7c0-0.3-0.1-0.8-0.1-1.5
			c0-3.1,1.3-5.4,3.9-7.2c2.6-1.7,6-2.6,10.3-2.6c4.5,0,7.9,0.9,10.2,2.8c2.3,1.9,3.4,4.5,3.4,7.9v17.9c0,0.8,0.2,1.4,0.7,1.8
			c0.4,0.4,1,0.6,1.7,0.6h2.4v4.6c-1.2,0.6-2.7,0.9-4.7,0.9c-1.6,0-2.9-0.4-4-1.3c-1.1-0.9-1.8-2.1-2.2-3.6h-0.5
			c-1.2,1.6-2.8,2.8-4.8,3.7c-1.9,0.9-4.2,1.3-6.8,1.3C814.1,935.4,811.5,934.7,809.2,933.3z M825.6,927.4c1.8-1.6,2.7-3.7,2.7-6.5
			v-2.1c-5.1,0-8.9,0.4-11.6,1.3c-2.7,0.9-4,2.5-4,4.9c0,1.6,0.5,2.9,1.6,3.6c1,0.8,2.6,1.2,4.7,1.2
			C821.6,929.8,823.8,929,825.6,927.4z"/>
		<path class="st2" d="M845,899.6h5.5l0.7,4.7h0.5c1.2-1.8,2.9-3.1,4.8-4.1c2-0.9,4.2-1.4,6.7-1.4c7.4,0,11.1,4,11.1,12v23.8h-6.9
			v-22.9c0-2.6-0.6-4.4-1.8-5.5c-1.2-1-2.9-1.6-5.2-1.6c-1.6,0-3,0.4-4.3,1.2c-1.3,0.8-2.4,1.9-3.2,3.3c-0.8,1.4-1.2,3.1-1.2,4.9
			v20.6H845V899.6z"/>
		<path class="st2" d="M881.9,946.1v-4.5h2.9c4,0,6.7-2.3,8.1-6.9l-13.6-35h7.2l6.5,17.2c0.6,1.5,1.2,3.4,2,5.8s1.2,3.9,1.4,4.7h0.3
			c0.2-0.7,0.6-2.1,1.1-4.1c0.6-2,1.2-4.1,1.9-6.4l5.5-17.2h6.9l-11.6,33.2c-1.6,4.4-3.4,7.9-5.4,10.3s-4.7,3.6-8.2,3.6
			C884.9,946.7,883.1,946.5,881.9,946.1z"/>
		<path class="st2" d="M938.1,930.9c-2.8-3-4.2-7.6-4.2-13.8c0-6.2,1.4-10.8,4.2-13.8c2.8-3,6.9-4.5,12.5-4.5s9.7,1.5,12.5,4.5
			c2.8,3,4.2,7.6,4.2,13.8c0,6.2-1.4,10.8-4.2,13.8c-2.8,3-7,4.5-12.5,4.5S940.8,933.9,938.1,930.9z M957.9,926.8
			c1.5-2,2.3-5.1,2.3-9.4v-0.7c0-4.3-0.8-7.4-2.3-9.4c-1.5-2-4-3-7.4-3c-3.3,0-5.8,1-7.3,3s-2.3,5.1-2.3,9.4v0.7
			c0,4.3,0.8,7.4,2.3,9.4c1.5,2,4,3,7.3,3C953.9,929.7,956.4,928.8,957.9,926.8z"/>
		<path class="st2" d="M975.3,905.2h-5.1v-5.7h5.1v-5.1c0-2.4,0.6-4.5,1.9-6.1s3.4-2.4,6.3-2.4c0.9,0,1.8,0.1,2.8,0.3
			c1,0.2,1.8,0.4,2.5,0.6v4.8h-3.4c-2.1,0-3.2,1-3.2,3.1v4.9h6.6v5.7h-6.6v29.4h-6.9V905.2z"/>
		<path class="st2" d="M1011.1,946.1v-4.5h2.9c4,0,6.7-2.3,8.1-6.9l-13.6-35h7.2l6.5,17.2c0.6,1.5,1.2,3.4,2,5.8
			c0.7,2.4,1.2,3.9,1.4,4.7h0.3c0.2-0.7,0.6-2.1,1.1-4.1c0.6-2,1.2-4.1,1.9-6.4l5.5-17.2h6.9l-11.6,33.2c-1.6,4.4-3.4,7.9-5.4,10.3
			s-4.7,3.6-8.2,3.6C1014.1,946.7,1012.4,946.5,1011.1,946.1z"/>
		<path class="st2" d="M1048.8,930.9c-2.8-3-4.2-7.6-4.2-13.8c0-6.2,1.4-10.8,4.2-13.8c2.8-3,6.9-4.5,12.5-4.5
			c5.5,0,9.7,1.5,12.5,4.5c2.8,3,4.2,7.6,4.2,13.8c0,6.2-1.4,10.8-4.2,13.8c-2.8,3-7,4.5-12.5,4.5
			C1055.7,935.4,1051.5,933.9,1048.8,930.9z M1068.6,926.8c1.5-2,2.3-5.1,2.3-9.4v-0.7c0-4.3-0.8-7.4-2.3-9.4c-1.5-2-4-3-7.4-3
			c-3.3,0-5.8,1-7.3,3c-1.5,2-2.3,5.1-2.3,9.4v0.7c0,4.3,0.8,7.4,2.3,9.4c1.5,2,4,3,7.3,3C1064.6,929.7,1067.1,928.8,1068.6,926.8z"
			/>
		<path class="st2" d="M1084.7,923.4v-23.8h6.9v22.9c0,2.6,0.6,4.5,1.8,5.5c1.2,1,2.9,1.6,5.2,1.6c1.6,0,3-0.4,4.3-1.2
			c1.3-0.8,2.4-1.9,3.2-3.3c0.8-1.4,1.2-3.1,1.2-4.9v-20.6h6.9v35h-5.5l-0.7-4.7h-0.5c-1.3,1.8-2.9,3.1-4.9,4.1
			c-2,0.9-4.2,1.4-6.7,1.4C1088.4,935.4,1084.7,931.4,1084.7,923.4z"/>
		<path class="st2" d="M1123,899.6h5.5l0.7,5.4h0.4c1.6-4.1,4.3-6.2,8.1-6.2c0.8,0,1.5,0.1,2.1,0.2c0.6,0.2,1,0.3,1.2,0.3v6.5h-2.5
			c-2.6,0-4.7,0.8-6.3,2.3c-1.6,1.5-2.3,3.8-2.3,6.9v19.6h-6.9V899.6z"/>
		<path class="st2" d="M1165.9,888.9h7.4v45.7h-7.4V888.9z"/>
		<path class="st2" d="M1185.4,930.9c-2.8-3-4.2-7.6-4.2-13.8c0-6.2,1.4-10.8,4.2-13.8c2.8-3,6.9-4.5,12.5-4.5
			c5.5,0,9.7,1.5,12.5,4.5c2.8,3,4.2,7.6,4.2,13.8c0,6.2-1.4,10.8-4.2,13.8c-2.8,3-7,4.5-12.5,4.5
			C1192.3,935.4,1188.1,933.9,1185.4,930.9z M1205.2,926.8c1.5-2,2.3-5.1,2.3-9.4v-0.7c0-4.3-0.8-7.4-2.3-9.4c-1.5-2-4-3-7.4-3
			c-3.3,0-5.8,1-7.3,3c-1.5,2-2.3,5.1-2.3,9.4v0.7c0,4.3,0.8,7.4,2.3,9.4c1.5,2,4,3,7.3,3C1201.2,929.7,1203.7,928.8,1205.2,926.8z"
			/>
		<path class="st2" d="M1233.6,895.3h-15.2v-6.4h37.7v6.4H1241v39.3h-7.4V895.3z"/>
		<path class="st2" d="M1281.3,930.9c-2.4-3-3.6-7.6-3.6-13.8c0-6.1,1.2-10.7,3.6-13.7c2.4-3,5.7-4.6,9.8-4.6
			c4.8,0,8.4,1.6,10.6,4.8h0.4v-17.1h6.9v48.1h-5.5l-0.7-4.7h-0.5c-1.1,1.8-2.6,3.1-4.5,4.1c-1.9,0.9-4,1.4-6.3,1.4
			C1287.1,935.4,1283.7,933.9,1281.3,930.9z M1300,926.6c1.4-2,2.1-5.1,2.1-9.1V917c0-8.3-2.9-12.4-8.6-12.4c-3.2,0-5.4,0.9-6.7,2.8
			c-1.3,1.9-2,5-2,9.5v0.6c0,4.3,0.7,7.5,2,9.3c1.3,1.9,3.6,2.8,6.7,2.8C1296.5,929.6,1298.7,928.6,1300,926.6z"/>
		<path class="st2" d="M1320.1,930.9c-2.8-3-4.1-7.6-4.1-13.8s1.4-10.9,4.1-13.8c2.8-3,6.9-4.5,12.6-4.5c5.1,0,8.9,1.4,11.5,4.2
			c2.5,2.8,3.8,7.2,3.8,13.2v2.7h-24.9c0.2,3.8,1,6.6,2.6,8.4c1.5,1.8,3.9,2.7,7.2,2.7c2.5,0,4.6-0.6,6.1-1.8c1.6-1.2,2.3-3,2.3-5.5
			h6.7c0,4.2-1.4,7.4-4.2,9.6c-2.8,2.2-6.5,3.3-11,3.3C1327.1,935.4,1322.9,933.9,1320.1,930.9z M1340.8,913.6
			c0-6.2-2.7-9.3-8.1-9.3c-3,0-5.3,0.7-6.8,2.2c-1.5,1.5-2.4,3.9-2.7,7.1H1340.8z"/>
		<path class="st2" d="M1351.3,899.6h7.2l6,16.8c0.5,1.5,1.2,3.4,1.9,5.9c0.7,2.5,1.2,4.1,1.4,4.9h0.3c0.2-0.8,0.7-2.3,1.4-4.8
			c0.7-2.4,1.3-4.4,1.9-6.1l5.9-16.8h6.9l-12.9,35h-7L1351.3,899.6z"/>
		<path class="st2" d="M1389.4,886.5h6.9v7.1h-6.9V886.5z M1389.4,899.6h6.9v35h-6.9V899.6z"/>
		<path class="st2" d="M1407.1,930.9c-2.6-3-3.9-7.6-3.9-13.8s1.3-10.9,3.9-13.8c2.6-3,6.6-4.5,11.9-4.5c4.7,0,8.3,1.2,10.7,3.5
			c2.4,2.3,3.6,5.8,3.6,10.4h-6.9c0-2.8-0.6-4.9-1.7-6.3s-3-2-5.7-2c-3,0-5.2,1-6.6,3c-1.4,2-2.1,5.2-2.1,9.6v0.5
			c0,4.3,0.7,7.5,2.1,9.5c1.4,2,3.7,2.9,6.8,2.9c2.6,0,4.5-0.7,5.8-2.1c1.2-1.4,1.8-3.5,1.8-6.2h6.6c0,4.2-1.2,7.5-3.6,10.1
			c-2.4,2.5-5.9,3.8-10.7,3.8C1413.6,935.4,1409.6,933.9,1407.1,930.9z"/>
		<path class="st2" d="M1441.9,930.9c-2.8-3-4.1-7.6-4.1-13.8s1.4-10.9,4.1-13.8c2.8-3,6.9-4.5,12.6-4.5c5.1,0,8.9,1.4,11.5,4.2
			c2.5,2.8,3.8,7.2,3.8,13.2v2.7h-24.9c0.2,3.8,1,6.6,2.6,8.4c1.5,1.8,3.9,2.7,7.2,2.7c2.5,0,4.6-0.6,6.1-1.8c1.6-1.2,2.3-3,2.3-5.5
			h6.7c0,4.2-1.4,7.4-4.2,9.6c-2.8,2.2-6.5,3.3-11,3.3C1448.8,935.4,1444.6,933.9,1441.9,930.9z M1462.6,913.6
			c0-6.2-2.7-9.3-8.1-9.3c-3,0-5.3,0.7-6.8,2.2c-1.5,1.5-2.4,3.9-2.7,7.1H1462.6z"/>
		<path class="st2" d="M1478.4,932.4c-2.5-2-3.8-4.5-3.8-7.5c0-0.5,0-0.8,0-1c0-0.2,0-0.3,0-0.3h6.7v0.6c0,1.9,0.8,3.3,2.3,4.3
			c1.6,1,3.5,1.4,5.9,1.4c2.1,0,3.9-0.4,5.4-1.2s2.2-1.9,2.2-3.4c0-1.2-0.4-2.1-1.2-2.8c-0.8-0.7-1.8-1.3-2.9-1.7
			c-1.2-0.4-2.8-0.9-5-1.5c-2.7-0.7-4.8-1.3-6.5-2c-1.7-0.7-3.1-1.7-4.3-3c-1.2-1.3-1.8-3.1-1.8-5.3c0-3.2,1.3-5.7,3.9-7.5
			c2.6-1.8,6.1-2.7,10.5-2.7c2.7,0,5.1,0.4,7.1,1.2c2,0.8,3.6,2,4.7,3.4c1.1,1.5,1.6,3.1,1.6,4.9l-0.1,1.3h-6.7v-0.5
			c0-1.5-0.6-2.7-1.8-3.6c-1.2-0.9-3-1.4-5.4-1.4c-2.4,0-4.1,0.4-5.2,1.2c-1.1,0.8-1.6,1.8-1.6,2.9c0,1.4,0.7,2.4,2,3.1
			c1.3,0.7,3.4,1.3,6.3,2c2.8,0.7,5.1,1.3,6.9,2c1.8,0.7,3.3,1.8,4.6,3.2c1.3,1.4,1.9,3.4,1.9,5.8c0,3.7-1.3,6.5-4,8.3
			c-2.7,1.8-6.3,2.7-10.8,2.7C1484.6,935.4,1480.9,934.4,1478.4,932.4z"/>
	</g>
	<g>
		<path class="st2" d="M704.3,834.4h4.8v4.9h-4.8V834.4z M704.3,843.5h4.8v24.4h-4.8V843.5z"/>
		<path class="st2" d="M715.4,843.5h3.8l0.5,3.2h0.3c0.9-1.2,2-2.2,3.4-2.8c1.4-0.6,2.9-1,4.7-1c5.2,0,7.7,2.8,7.7,8.4v16.5H731V852
			c0-1.8-0.4-3.1-1.2-3.8c-0.8-0.7-2-1.1-3.6-1.1c-1.1,0-2.1,0.3-3,0.8c-0.9,0.5-1.7,1.3-2.2,2.3c-0.5,1-0.8,2.1-0.8,3.4v14.3h-4.8
			V843.5z"/>
		<path class="st2" d="M743.8,866.8c-0.8-1.1-1.3-2.4-1.3-4v-15.4h-3v-3.9h3l0.9-6.8h3.8v6.8h4.1v3.9h-4.1v14.9c0,1.4,0.7,2.1,2,2.1
			h2.1v3.2c-0.4,0.2-0.9,0.3-1.6,0.5c-0.7,0.1-1.4,0.2-2,0.2C745.9,868.4,744.6,867.9,743.8,866.8z"/>
		<path class="st2" d="M757.1,865.4c-1.9-2.1-2.9-5.3-2.9-9.6c0-4.4,1-7.6,2.9-9.6c1.9-2.1,4.8-3.1,8.8-3.1c3.6,0,6.2,1,8,2.9
			c1.8,1.9,2.6,5,2.6,9.2v1.9h-17.3c0.1,2.6,0.7,4.6,1.8,5.8c1.1,1.3,2.7,1.9,5,1.9c1.8,0,3.2-0.4,4.3-1.3c1.1-0.8,1.6-2.1,1.6-3.8
			h4.7c0,2.9-1,5.1-2.9,6.6c-2,1.5-4.5,2.3-7.7,2.3C761.9,868.5,759,867.4,757.1,865.4z M771.5,853.3c0-4.3-1.9-6.5-5.6-6.5
			c-2.1,0-3.7,0.5-4.7,1.6c-1,1-1.7,2.7-1.9,4.9H771.5z"/>
		<path class="st2" d="M781.4,834.4h4.8v33.5h-4.8V834.4z"/>
		<path class="st2" d="M792.4,834.4h4.8v4.9h-4.8V834.4z M792.4,843.5h4.8v24.4h-4.8V843.5z"/>
		<path class="st2" d="M803.2,874.9c-1.3-1-1.9-2.4-1.9-4.4c0-2.4,1.3-4.1,3.9-5.1c-0.7-0.4-1.3-0.9-1.8-1.6
			c-0.5-0.6-0.7-1.4-0.7-2.2c0-1.1,0.4-2,1.3-2.7c0.8-0.7,1.8-1.1,2.9-1.4c-1-0.7-1.9-1.7-2.5-2.7c-0.6-1.1-0.9-2.3-0.9-3.6
			c0-2.6,0.9-4.6,2.7-6.1c1.8-1.5,4.3-2.2,7.5-2.2c1.7,0,3.3,0.3,4.7,0.8c1.9-1,3-2.4,3.3-4.2h4.6c0,1.5-0.4,2.8-1.3,3.9
			s-2.1,1.7-3.6,2.1c1.7,1.5,2.5,3.4,2.5,5.7c0,2.6-0.9,4.6-2.7,6c-1.8,1.5-4.3,2.2-7.4,2.2h-3.8c-0.7,0-1.3,0.2-1.7,0.5
			c-0.4,0.3-0.6,0.8-0.6,1.3c0,0.5,0.2,1,0.6,1.3c0.4,0.3,0.9,0.5,1.6,0.5h10.2c1.9,0,3.4,0.6,4.5,1.8c1.1,1.2,1.7,2.6,1.7,4.4
			c0,1.3-0.3,2.4-0.9,3.5c-0.6,1.1-1.5,2-2.8,2.6s-2.7,1-4.4,1h-10.3C806,876.3,804.5,875.9,803.2,874.9z M818.1,872.7
			c1,0,1.8-0.3,2.4-0.8c0.6-0.5,0.9-1.2,0.9-2c0-0.8-0.3-1.5-0.8-2c-0.5-0.5-1.2-0.7-2-0.7h-9.8c-0.8,0-1.5,0.2-2,0.7
			c-0.5,0.5-0.8,1.2-0.8,2c0,0.9,0.3,1.6,0.8,2.1c0.5,0.5,1.2,0.8,2,0.8H818.1z M817.7,854.7c0.9-0.8,1.4-2,1.4-3.5
			c0-1.5-0.5-2.7-1.4-3.5c-0.9-0.8-2.3-1.2-4.1-1.2c-1.8,0-3.1,0.4-4.1,1.2c-0.9,0.8-1.4,2-1.4,3.5c0,1.5,0.5,2.7,1.4,3.5
			c0.9,0.8,2.3,1.2,4.1,1.2C815.4,856,816.7,855.5,817.7,854.7z"/>
		<path class="st2" d="M831.5,865.4c-1.9-2.1-2.9-5.3-2.9-9.6c0-4.4,1-7.6,2.9-9.6c1.9-2.1,4.8-3.1,8.8-3.1c3.6,0,6.2,1,8,2.9
			c1.8,1.9,2.6,5,2.6,9.2v1.9h-17.3c0.1,2.6,0.7,4.6,1.8,5.8c1.1,1.3,2.7,1.9,5,1.9c1.8,0,3.2-0.4,4.3-1.3c1.1-0.8,1.6-2.1,1.6-3.8
			h4.7c0,2.9-1,5.1-2.9,6.6c-2,1.5-4.5,2.3-7.7,2.3C836.3,868.5,833.4,867.4,831.5,865.4z M845.9,853.3c0-4.3-1.9-6.5-5.6-6.5
			c-2.1,0-3.7,0.5-4.7,1.6c-1,1-1.7,2.7-1.9,4.9H845.9z"/>
		<path class="st2" d="M855.8,843.5h3.8l0.5,3.2h0.3c0.9-1.2,2-2.2,3.4-2.8c1.4-0.6,2.9-1,4.7-1c5.2,0,7.7,2.8,7.7,8.4v16.5h-4.8
			V852c0-1.8-0.4-3.1-1.2-3.8c-0.8-0.7-2-1.1-3.6-1.1c-1.1,0-2.1,0.3-3,0.8c-0.9,0.5-1.7,1.3-2.2,2.3c-0.5,1-0.8,2.1-0.8,3.4v14.3
			h-4.8V843.5z"/>
		<path class="st2" d="M884.1,866.8c-0.8-1.1-1.3-2.4-1.3-4v-15.4h-3v-3.9h3l0.9-6.8h3.8v6.8h4.1v3.9h-4.1v14.9c0,1.4,0.7,2.1,2,2.1
			h2.1v3.2c-0.4,0.2-0.9,0.3-1.6,0.5c-0.7,0.1-1.4,0.2-2,0.2C886.3,868.4,885,867.9,884.1,866.8z"/>
		<path class="st2" d="M908.8,843.5h3.8l0.5,3.2h0.3c0.8-1.2,1.9-2.2,3.1-2.8s2.6-1,4.1-1c3.1,0,5.3,1.3,6.3,3.8h0.3
			c0.8-1.2,1.9-2.1,3.2-2.8c1.3-0.7,2.7-1,4.3-1c2.3,0,4.1,0.6,5.4,1.8s1.9,3.2,1.9,5.9v17.2h-4.8v-16.3c0-1.7-0.4-2.8-1.1-3.5
			c-0.7-0.7-1.7-1-3-1c-1.5,0-2.8,0.6-3.8,1.8c-1,1.2-1.5,2.8-1.5,4.7v14.3h-4.8v-16.3c0-1.7-0.3-2.8-1-3.5c-0.7-0.7-1.7-1-3-1
			c-1.5,0-2.8,0.6-3.8,1.8c-1.1,1.2-1.6,2.8-1.6,4.7v14.3h-4.8V843.5z"/>
		<path class="st2" d="M949.6,865.3c-1.9-2.1-2.9-5.3-2.9-9.6c0-4.3,1-7.5,2.9-9.6c1.9-2.1,4.8-3.1,8.7-3.1s6.8,1,8.7,3.1
			c1.9,2.1,2.9,5.3,2.9,9.6c0,4.3-1,7.5-2.9,9.6c-1.9,2.1-4.8,3.1-8.7,3.1S951.6,867.4,949.6,865.3z M963.4,862.5
			c1.1-1.4,1.6-3.5,1.6-6.5v-0.5c0-3-0.5-5.1-1.6-6.5c-1.1-1.4-2.8-2.1-5.1-2.1c-2.3,0-4,0.7-5.1,2.1c-1.1,1.4-1.6,3.5-1.6,6.5v0.5
			c0,3,0.5,5.1,1.6,6.5c1.1,1.4,2.8,2.1,5.1,2.1C960.7,864.5,962.4,863.8,963.4,862.5z"/>
		<path class="st2" d="M974.7,843.5h3.8l0.5,3.2h0.3c0.9-1.2,2-2.2,3.4-2.8c1.4-0.6,2.9-1,4.7-1c5.2,0,7.7,2.8,7.7,8.4v16.5h-4.8
			V852c0-1.8-0.4-3.1-1.2-3.8c-0.8-0.7-2-1.1-3.6-1.1c-1.1,0-2.1,0.3-3,0.8c-0.9,0.5-1.7,1.3-2.2,2.3c-0.5,1-0.8,2.1-0.8,3.4v14.3
			h-4.8V843.5z"/>
		<path class="st2" d="M1001.3,834.4h4.8v4.9h-4.8V834.4z M1001.3,843.5h4.8v24.4h-4.8V843.5z"/>
		<path class="st2" d="M1014.2,866.8c-0.8-1.1-1.3-2.4-1.3-4v-15.4h-3v-3.9h3l0.9-6.8h3.8v6.8h4.1v3.9h-4.1v14.9
			c0,1.4,0.7,2.1,2,2.1h2.1v3.2c-0.4,0.2-1,0.3-1.6,0.5c-0.7,0.1-1.4,0.2-2,0.2C1016.3,868.4,1015,867.9,1014.2,866.8z"/>
		<path class="st2" d="M1027.4,865.3c-1.9-2.1-2.9-5.3-2.9-9.6c0-4.3,1-7.5,2.9-9.6c1.9-2.1,4.8-3.1,8.7-3.1s6.8,1,8.7,3.1
			c1.9,2.1,2.9,5.3,2.9,9.6c0,4.3-1,7.5-2.9,9.6c-1.9,2.1-4.8,3.1-8.7,3.1S1029.4,867.4,1027.4,865.3z M1041.2,862.5
			c1.1-1.4,1.6-3.5,1.6-6.5v-0.5c0-3-0.5-5.1-1.6-6.5c-1.1-1.4-2.8-2.1-5.1-2.1c-2.3,0-4,0.7-5.1,2.1c-1.1,1.4-1.6,3.5-1.6,6.5v0.5
			c0,3,0.5,5.1,1.6,6.5c1.1,1.4,2.8,2.1,5.1,2.1C1038.5,864.5,1040.2,863.8,1041.2,862.5z"/>
		<path class="st2" d="M1052.5,843.5h3.8l0.5,3.8h0.3c1.1-2.9,3-4.3,5.6-4.3c0.6,0,1,0.1,1.5,0.2c0.4,0.1,0.7,0.2,0.8,0.2v4.5h-1.7
			c-1.8,0-3.3,0.5-4.4,1.6c-1.1,1.1-1.6,2.7-1.6,4.8v13.6h-4.8V843.5z"/>
		<path class="st2" d="M1068.8,834.4h4.8v4.9h-4.8V834.4z M1068.8,843.5h4.8v24.4h-4.8V843.5z"/>
		<path class="st2" d="M1079.8,843.5h3.8l0.5,3.2h0.3c0.9-1.2,2-2.2,3.4-2.8c1.4-0.6,2.9-1,4.7-1c5.2,0,7.7,2.8,7.7,8.4v16.5h-4.8
			V852c0-1.8-0.4-3.1-1.2-3.8c-0.8-0.7-2-1.1-3.6-1.1c-1.1,0-2.1,0.3-3,0.8c-0.9,0.5-1.7,1.3-2.2,2.3c-0.5,1-0.8,2.1-0.8,3.4v14.3
			h-4.8V843.5z"/>
		<path class="st2" d="M1106.1,874.9c-1.3-1-1.9-2.4-1.9-4.4c0-2.4,1.3-4.1,3.9-5.1c-0.7-0.4-1.3-0.9-1.8-1.6
			c-0.5-0.6-0.7-1.4-0.7-2.2c0-1.1,0.4-2,1.3-2.7c0.8-0.7,1.8-1.1,2.9-1.4c-1.1-0.7-1.9-1.7-2.5-2.7c-0.6-1.1-0.9-2.3-0.9-3.6
			c0-2.6,0.9-4.6,2.7-6.1c1.8-1.5,4.3-2.2,7.5-2.2c1.7,0,3.3,0.3,4.7,0.8c1.9-1,3-2.4,3.3-4.2h4.6c0,1.5-0.4,2.8-1.3,3.9
			c-0.9,1-2.1,1.7-3.6,2.1c1.7,1.5,2.5,3.4,2.5,5.7c0,2.6-0.9,4.6-2.7,6c-1.8,1.5-4.3,2.2-7.4,2.2h-3.8c-0.7,0-1.3,0.2-1.7,0.5
			c-0.4,0.3-0.6,0.8-0.6,1.3c0,0.5,0.2,1,0.6,1.3c0.4,0.3,0.9,0.5,1.6,0.5h10.2c1.9,0,3.4,0.6,4.5,1.8c1.1,1.2,1.7,2.6,1.7,4.4
			c0,1.3-0.3,2.4-0.9,3.5c-0.6,1.1-1.5,2-2.8,2.6c-1.2,0.7-2.7,1-4.4,1h-10.3C1108.8,876.3,1107.3,875.9,1106.1,874.9z
			 M1120.9,872.7c1,0,1.8-0.3,2.4-0.8c0.6-0.5,1-1.2,1-2c0-0.8-0.3-1.5-0.8-2s-1.2-0.7-2-0.7h-9.8c-0.8,0-1.5,0.2-2,0.7
			c-0.5,0.5-0.8,1.2-0.8,2c0,0.9,0.3,1.6,0.8,2.1c0.5,0.5,1.2,0.8,2,0.8H1120.9z M1120.5,854.7c0.9-0.8,1.4-2,1.4-3.5
			c0-1.5-0.5-2.7-1.4-3.5c-0.9-0.8-2.3-1.2-4.1-1.2c-1.8,0-3.1,0.4-4.1,1.2c-0.9,0.8-1.4,2-1.4,3.5c0,1.5,0.5,2.7,1.4,3.5
			c0.9,0.8,2.3,1.2,4.1,1.2C1118.2,856,1119.6,855.5,1120.5,854.7z"/>
		<path class="st2" d="M1146.6,867c-1.6-1-2.4-2.8-2.4-5.4c0-3.1,1.4-5.3,4.1-6.5s6.6-1.8,11.7-1.8v-2.4c0-1.3-0.3-2.3-1-3
			c-0.7-0.7-2-1-3.9-1c-1.8,0-3.1,0.3-3.9,1c-0.8,0.6-1.1,1.4-1.1,2.4v0.6h-4.6c0-0.2,0-0.5,0-1c0-2.1,0.9-3.8,2.7-5
			c1.8-1.2,4.2-1.8,7.2-1.8c3.1,0,5.5,0.6,7.1,1.9c1.6,1.3,2.4,3.1,2.4,5.5v12.5c0,0.6,0.2,1,0.5,1.2c0.3,0.3,0.7,0.4,1.2,0.4h1.7
			v3.2c-0.8,0.4-1.9,0.6-3.3,0.6c-1.1,0-2-0.3-2.8-0.9c-0.8-0.6-1.3-1.4-1.5-2.5h-0.3c-0.9,1.1-2,2-3.3,2.6s-2.9,0.9-4.7,0.9
			C1150.1,868.5,1148.2,868,1146.6,867z M1158.1,862.9c1.3-1.1,1.9-2.6,1.9-4.5v-1.5c-3.5,0-6.2,0.3-8.1,0.9
			c-1.9,0.6-2.8,1.7-2.8,3.4c0,1.1,0.4,2,1.1,2.5s1.8,0.8,3.3,0.8C1155.3,864.6,1156.8,864,1158.1,862.9z"/>
		<path class="st2" d="M1171.5,843.5h3.8l0.5,3.2h0.3c0.9-1.2,2-2.2,3.4-2.8c1.4-0.6,2.9-1,4.7-1c5.2,0,7.7,2.8,7.7,8.4v16.5h-4.8
			V852c0-1.8-0.4-3.1-1.2-3.8c-0.8-0.7-2-1.1-3.6-1.1c-1.1,0-2.1,0.3-3,0.8c-0.9,0.5-1.7,1.3-2.2,2.3c-0.5,1-0.8,2.1-0.8,3.4v14.3
			h-4.8V843.5z"/>
		<path class="st2" d="M1199.1,865.3c-1.7-2.1-2.5-5.3-2.5-9.6c0-4.3,0.8-7.4,2.5-9.6c1.7-2.1,3.9-3.2,6.8-3.2
			c3.4,0,5.8,1.1,7.4,3.3h0.3v-11.9h4.8v33.5h-3.8l-0.5-3.2h-0.3c-0.8,1.2-1.8,2.2-3.1,2.8c-1.3,0.6-2.8,1-4.4,1
			C1203.1,868.5,1200.7,867.4,1199.1,865.3z M1212.1,862.3c1-1.4,1.4-3.5,1.4-6.3v-0.4c0-5.7-2-8.6-6-8.6c-2.2,0-3.8,0.7-4.7,2
			c-0.9,1.3-1.4,3.5-1.4,6.6v0.4c0,3,0.5,5.2,1.4,6.5c0.9,1.3,2.5,1.9,4.7,1.9C1209.6,864.4,1211.1,863.7,1212.1,862.3z"/>
		<path class="st2" d="M1237.5,843.5h3.8l0.5,3.2h0.3c0.8-1.2,1.9-2.2,3.1-2.8c1.2-0.6,2.6-1,4.1-1c3.1,0,5.3,1.3,6.3,3.8h0.3
			c0.8-1.2,1.9-2.1,3.2-2.8c1.3-0.7,2.7-1,4.3-1c2.3,0,4.1,0.6,5.4,1.8s1.9,3.2,1.9,5.9v17.2h-4.8v-16.3c0-1.7-0.4-2.8-1.1-3.5
			c-0.7-0.7-1.7-1-3-1c-1.5,0-2.8,0.6-3.8,1.8s-1.5,2.8-1.5,4.7v14.3h-4.8v-16.3c0-1.7-0.3-2.8-1-3.5c-0.7-0.7-1.7-1-3-1
			c-1.5,0-2.8,0.6-3.8,1.8s-1.6,2.8-1.6,4.7v14.3h-4.8V843.5z"/>
		<path class="st2" d="M1277.7,867c-1.6-1-2.4-2.8-2.4-5.4c0-3.1,1.4-5.3,4.1-6.5s6.6-1.8,11.7-1.8v-2.4c0-1.3-0.3-2.3-1-3
			c-0.7-0.7-2-1-3.9-1c-1.8,0-3.1,0.3-3.9,1c-0.8,0.6-1.1,1.4-1.1,2.4v0.6h-4.6c0-0.2,0-0.5,0-1c0-2.1,0.9-3.8,2.7-5
			c1.8-1.2,4.2-1.8,7.2-1.8c3.1,0,5.5,0.6,7.1,1.9c1.6,1.3,2.4,3.1,2.4,5.5v12.5c0,0.6,0.2,1,0.5,1.2c0.3,0.3,0.7,0.4,1.2,0.4h1.7
			v3.2c-0.8,0.4-1.9,0.6-3.3,0.6c-1.1,0-2-0.3-2.8-0.9c-0.8-0.6-1.3-1.4-1.5-2.5h-0.3c-0.9,1.1-2,2-3.3,2.6s-2.9,0.9-4.7,0.9
			C1281.1,868.5,1279.3,868,1277.7,867z M1289.1,862.9c1.3-1.1,1.9-2.6,1.9-4.5v-1.5c-3.5,0-6.2,0.3-8.1,0.9
			c-1.9,0.6-2.8,1.7-2.8,3.4c0,1.1,0.4,2,1.1,2.5s1.8,0.8,3.3,0.8C1286.3,864.6,1287.9,864,1289.1,862.9z"/>
		<path class="st2" d="M1302.6,843.5h3.8l0.5,3.2h0.3c0.9-1.2,2-2.2,3.4-2.8c1.4-0.6,2.9-1,4.7-1c5.2,0,7.7,2.8,7.7,8.4v16.5h-4.8
			V852c0-1.8-0.4-3.1-1.2-3.8c-0.8-0.7-2-1.1-3.6-1.1c-1.1,0-2.1,0.3-3,0.8c-0.9,0.5-1.7,1.3-2.2,2.3c-0.5,1-0.8,2.1-0.8,3.4v14.3
			h-4.8V843.5z"/>
		<path class="st2" d="M1330,867c-1.6-1-2.4-2.8-2.4-5.4c0-3.1,1.4-5.3,4.1-6.5s6.6-1.8,11.7-1.8v-2.4c0-1.3-0.3-2.3-1-3
			c-0.7-0.7-2-1-3.9-1c-1.8,0-3.1,0.3-3.9,1c-0.8,0.6-1.1,1.4-1.1,2.4v0.6h-4.6c0-0.2,0-0.5,0-1c0-2.1,0.9-3.8,2.7-5
			c1.8-1.2,4.2-1.8,7.2-1.8c3.1,0,5.5,0.6,7.1,1.9c1.6,1.3,2.4,3.1,2.4,5.5v12.5c0,0.6,0.2,1,0.5,1.2c0.3,0.3,0.7,0.4,1.2,0.4h1.7
			v3.2c-0.8,0.4-1.9,0.6-3.3,0.6c-1.1,0-2-0.3-2.8-0.9c-0.8-0.6-1.3-1.4-1.5-2.5h-0.3c-0.9,1.1-2,2-3.3,2.6s-2.9,0.9-4.7,0.9
			C1333.4,868.5,1331.6,868,1330,867z M1341.4,862.9c1.3-1.1,1.9-2.6,1.9-4.5v-1.5c-3.5,0-6.2,0.3-8.1,0.9c-1.9,0.6-2.8,1.7-2.8,3.4
			c0,1.1,0.4,2,1.1,2.5s1.8,0.8,3.3,0.8C1338.6,864.6,1340.1,864,1341.4,862.9z"/>
		<path class="st2" d="M1354.6,874.9c-1.3-1-1.9-2.4-1.9-4.4c0-2.4,1.3-4.1,3.9-5.1c-0.7-0.4-1.3-0.9-1.8-1.6
			c-0.5-0.6-0.7-1.4-0.7-2.2c0-1.1,0.4-2,1.3-2.7c0.8-0.7,1.8-1.1,2.9-1.4c-1.1-0.7-1.9-1.7-2.5-2.7c-0.6-1.1-0.9-2.3-0.9-3.6
			c0-2.6,0.9-4.6,2.7-6.1c1.8-1.5,4.3-2.2,7.5-2.2c1.7,0,3.3,0.3,4.7,0.8c1.9-1,3-2.4,3.3-4.2h4.6c0,1.5-0.4,2.8-1.3,3.9
			c-0.9,1-2.1,1.7-3.6,2.1c1.7,1.5,2.5,3.4,2.5,5.7c0,2.6-0.9,4.6-2.7,6c-1.8,1.5-4.3,2.2-7.4,2.2h-3.8c-0.7,0-1.3,0.2-1.7,0.5
			c-0.4,0.3-0.6,0.8-0.6,1.3c0,0.5,0.2,1,0.6,1.3c0.4,0.3,0.9,0.5,1.6,0.5h10.2c1.9,0,3.4,0.6,4.5,1.8c1.1,1.2,1.7,2.6,1.7,4.4
			c0,1.3-0.3,2.4-0.9,3.5c-0.6,1.1-1.5,2-2.8,2.6c-1.2,0.7-2.7,1-4.4,1h-10.3C1357.3,876.3,1355.8,875.9,1354.6,874.9z
			 M1369.4,872.7c1,0,1.8-0.3,2.4-0.8c0.6-0.5,1-1.2,1-2c0-0.8-0.3-1.5-0.8-2s-1.2-0.7-2-0.7h-9.8c-0.8,0-1.5,0.2-2,0.7
			c-0.5,0.5-0.8,1.2-0.8,2c0,0.9,0.3,1.6,0.8,2.1c0.5,0.5,1.2,0.8,2,0.8H1369.4z M1369,854.7c0.9-0.8,1.4-2,1.4-3.5
			c0-1.5-0.5-2.7-1.4-3.5c-0.9-0.8-2.3-1.2-4.1-1.2c-1.8,0-3.1,0.4-4.1,1.2c-0.9,0.8-1.4,2-1.4,3.5c0,1.5,0.5,2.7,1.4,3.5
			c0.9,0.8,2.3,1.2,4.1,1.2C1366.7,856,1368.1,855.5,1369,854.7z"/>
		<path class="st2" d="M1382.9,865.4c-1.9-2.1-2.9-5.3-2.9-9.6c0-4.4,1-7.6,2.9-9.6s4.8-3.1,8.8-3.1c3.5,0,6.2,1,8,2.9
			c1.8,1.9,2.6,5,2.6,9.2v1.9h-17.3c0.1,2.6,0.7,4.6,1.8,5.8c1.1,1.3,2.7,1.9,5,1.9c1.8,0,3.2-0.4,4.3-1.3c1.1-0.8,1.6-2.1,1.6-3.8
			h4.7c0,2.9-1,5.1-2.9,6.6c-2,1.5-4.5,2.3-7.7,2.3C1387.7,868.5,1384.8,867.4,1382.9,865.4z M1397.3,853.3c0-4.3-1.9-6.5-5.6-6.5
			c-2.1,0-3.7,0.5-4.7,1.6c-1,1-1.7,2.7-1.9,4.9H1397.3z"/>
		<path class="st2" d="M1407.1,843.5h3.8l0.5,3.2h0.3c0.8-1.2,1.9-2.2,3.1-2.8c1.2-0.6,2.6-1,4.1-1c3.1,0,5.3,1.3,6.3,3.8h0.3
			c0.8-1.2,1.9-2.1,3.2-2.8c1.3-0.7,2.7-1,4.3-1c2.3,0,4.1,0.6,5.4,1.8s1.9,3.2,1.9,5.9v17.2h-4.8v-16.3c0-1.7-0.4-2.8-1.1-3.5
			c-0.7-0.7-1.7-1-3-1c-1.5,0-2.8,0.6-3.8,1.8s-1.5,2.8-1.5,4.7v14.3h-4.8v-16.3c0-1.7-0.3-2.8-1-3.5c-0.7-0.7-1.7-1-3-1
			c-1.5,0-2.8,0.6-3.8,1.8s-1.6,2.8-1.6,4.7v14.3h-4.8V843.5z"/>
		<path class="st2" d="M1448,865.4c-1.9-2.1-2.9-5.3-2.9-9.6c0-4.4,1-7.6,2.9-9.6s4.8-3.1,8.8-3.1c3.5,0,6.2,1,8,2.9
			c1.8,1.9,2.6,5,2.6,9.2v1.9H1450c0.1,2.6,0.7,4.6,1.8,5.8c1.1,1.3,2.7,1.9,5,1.9c1.8,0,3.2-0.4,4.3-1.3c1.1-0.8,1.6-2.1,1.6-3.8
			h4.7c0,2.9-1,5.1-2.9,6.6c-2,1.5-4.5,2.3-7.7,2.3C1452.8,868.5,1449.9,867.4,1448,865.4z M1462.4,853.3c0-4.3-1.9-6.5-5.6-6.5
			c-2.1,0-3.7,0.5-4.7,1.6c-1,1-1.7,2.7-1.9,4.9H1462.4z"/>
		<path class="st2" d="M1472.2,843.5h3.8l0.5,3.2h0.3c0.9-1.2,2-2.2,3.4-2.8c1.4-0.6,2.9-1,4.7-1c5.2,0,7.7,2.8,7.7,8.4v16.5h-4.8
			V852c0-1.8-0.4-3.1-1.2-3.8c-0.8-0.7-2-1.1-3.6-1.1c-1.1,0-2.1,0.3-3,0.8c-0.9,0.5-1.7,1.3-2.2,2.3c-0.5,1-0.8,2.1-0.8,3.4v14.3
			h-4.8V843.5z"/>
		<path class="st2" d="M1500.6,866.8c-0.8-1.1-1.3-2.4-1.3-4v-15.4h-3v-3.9h3l0.9-6.8h3.8v6.8h4.1v3.9h-4.1v14.9
			c0,1.4,0.7,2.1,2,2.1h2.1v3.2c-0.4,0.2-1,0.3-1.6,0.5c-0.7,0.1-1.4,0.2-2,0.2C1502.8,868.4,1501.4,867.9,1500.6,866.8z"/>
	</g>
	<g>
		<path class="st2" d="M705.4,815.7c-6-6-9.1-15-9.1-26.9c0-11.9,3-20.8,9.1-26.9c6-6,14.6-9.1,25.6-9.1c11.1,0,19.6,3,25.7,9.1
			c6,6,9.1,15,9.1,26.9c0,11.8-3,20.8-9.1,26.8c-6,6.1-14.6,9.1-25.7,9.1C720,824.7,711.5,821.7,705.4,815.7z M749.4,810
			c4.3-4.4,6.4-11.3,6.4-20.8v-0.4c-0.1-9.7-2.2-16.7-6.5-21.1c-4.3-4.4-10.4-6.6-18.3-6.6c-7.9,0-14,2.2-18.2,6.6
			c-4.3,4.4-6.4,11.5-6.5,21.1v0.4c0,9.5,2.1,16.5,6.4,20.8c4.3,4.4,10.4,6.5,18.3,6.5C739,816.5,745.2,814.3,749.4,810z"/>
		<path class="st2" d="M781.2,820.4c-2.9-2.9-4.3-7.5-4.3-13.8v-36.4h8.9V806c0,4.3,0.9,7.2,2.8,8.9c1.9,1.7,4.6,2.5,8.2,2.5
			c2.6,0,4.9-0.6,7.1-1.9c2.2-1.2,3.9-3.1,5.2-5.4c1.3-2.4,1.9-5.1,1.9-8.3v-31.5h8.9v53.3h-6.8l-1-7.2h-0.7
			c-3.9,5.6-9.9,8.4-17.9,8.4C788.2,824.7,784.1,823.3,781.2,820.4z"/>
		<path class="st2" d="M833.5,770.2h6.8l1,8h0.6c1-2.6,2.5-4.8,4.6-6.6c2-1.8,4.7-2.6,8-2.6c1.1,0,2.2,0.1,3.1,0.4
			c0.9,0.2,1.5,0.4,1.7,0.5v8.6h-3.7c-3.8,0-6.9,1.1-9.4,3.3c-2.5,2.2-3.7,5.6-3.7,10.3v31.5h-8.9V770.2z"/>
		<path class="st2" d="M901.3,822.6c-3.3-1.5-5.7-3.4-7.2-5.7c-1.6-2.4-2.3-4.9-2.3-7.7c0-0.8,0-1.4,0.1-1.7c0-0.3,0.1-0.5,0.1-0.6
			h8.8v1c0,3.2,1.2,5.6,3.7,7.1c2.5,1.6,5.7,2.4,9.7,2.4c3.4,0,6.3-0.7,8.6-2.1c2.3-1.4,3.4-3.3,3.4-5.8c0-2-0.6-3.6-1.9-4.8
			c-1.3-1.2-2.9-2.2-4.8-2.9c-1.9-0.7-4.5-1.5-7.7-2.3c-3.9-1-7.1-2-9.6-3c-2.5-1-4.6-2.5-6.3-4.5c-1.7-2-2.6-4.6-2.6-7.7
			c0-4.7,1.9-8.4,5.7-11.1c3.8-2.7,9-4.1,15.4-4.1c4.1,0,7.6,0.7,10.5,2c3,1.3,5.2,3.1,6.7,5.3c1.5,2.2,2.3,4.6,2.3,7.3l-0.1,1.9
			h-8.7v-0.9c0-2.4-0.9-4.3-2.8-5.9c-1.9-1.6-4.8-2.3-9-2.3c-4.1,0-6.9,0.7-8.5,2.2c-1.6,1.5-2.4,3.1-2.4,5c0,1.6,0.6,2.8,1.7,3.8
			c1.1,1,2.6,1.8,4.3,2.4c1.7,0.6,4.1,1.3,7.1,2c4.2,1.1,7.6,2.1,10.2,3.2c2.6,1,4.9,2.6,6.7,4.8c1.9,2.1,2.8,4.9,2.8,8.5
			c0,5.5-2,9.6-5.9,12.3c-3.9,2.7-9.2,4.1-15.7,4.1C908.7,824.7,904.6,824,901.3,822.6z"/>
		<path class="st2" d="M949.5,817.9c-4.2-4.5-6.3-11.5-6.3-21.1s2.1-16.5,6.3-21.1c4.2-4.5,10.6-6.8,19.1-6.8c7.7,0,13.5,2,17.3,6.1
			c3.8,4.1,5.7,10.7,5.7,19.7v4.5h-39.2c0.3,6.1,1.8,10.7,4.4,13.6c2.6,2.9,6.5,4.4,11.8,4.4c4.3,0,7.7-1,10.3-2.9c2.6-2,4-5,4-9
			h8.7c0,6.2-2.1,11-6.4,14.3c-4.3,3.3-9.8,5-16.6,5C960,824.7,953.7,822.5,949.5,817.9z M982.3,791.9c0-10.3-4.6-15.5-13.7-15.5
			c-5.1,0-8.9,1.2-11.4,3.6s-4.1,6.4-4.6,11.8H982.3z"/>
		<path class="st2" d="M1002.3,770.2h6.8l1,8h0.6c1-2.6,2.5-4.8,4.6-6.6s4.7-2.6,8-2.6c1.1,0,2.2,0.1,3.1,0.4
			c0.9,0.2,1.5,0.4,1.7,0.5v8.6h-3.7c-3.8,0-6.9,1.1-9.4,3.3c-2.5,2.2-3.7,5.6-3.7,10.3v31.5h-8.9V770.2z"/>
		<path class="st2" d="M1030.6,770.2h9.4l9.4,26.6c0.9,2.5,1.9,5.6,3,9.3c1.1,3.7,1.9,6.2,2.2,7.4h0.5c0.3-1.1,1-3.5,2.1-7.1
			c1.1-3.6,2.1-6.8,3-9.6l9.3-26.6h8.9l-19.5,53.3h-8.9L1030.6,770.2z"/>
		<path class="st2" d="M1086.7,750.3h8.9v9.9h-8.9V750.3z M1086.7,770.2h8.9v53.3h-8.9V770.2z"/>
		<path class="st2" d="M1111.6,818c-3.8-4.5-5.7-11.5-5.7-21.1c0-9.5,1.9-16.5,5.7-21.1c3.8-4.5,9.7-6.8,17.8-6.8
			c7.3,0,12.6,1.8,16,5.3c3.4,3.5,5.1,8.7,5.1,15.7h-9.1c0-4.8-0.9-8.3-2.6-10.4s-4.8-3.2-9.4-3.2c-4.9,0-8.5,1.6-10.8,4.8
			c-2.3,3.2-3.4,8.4-3.4,15.6v0.4c0,7.2,1.1,12.3,3.3,15.4c2.2,3.1,5.9,4.7,10.9,4.7c4.5,0,7.6-1.1,9.6-3.4
			c1.9-2.3,2.9-5.7,2.9-10.2h8.6c0,6.1-1.7,11.1-5.2,15c-3.4,4-8.7,5.9-15.9,5.9C1121.3,824.7,1115.4,822.5,1111.6,818z"/>
		<path class="st2" d="M1163.3,817.9c-4.2-4.5-6.3-11.5-6.3-21.1s2.1-16.5,6.3-21.1c4.2-4.5,10.6-6.8,19.1-6.8
			c7.7,0,13.5,2,17.3,6.1c3.8,4.1,5.7,10.7,5.7,19.7v4.5h-39.2c0.3,6.1,1.8,10.7,4.4,13.6c2.6,2.9,6.5,4.4,11.8,4.4
			c4.3,0,7.7-1,10.3-2.9c2.6-2,4-5,4-9h8.7c0,6.2-2.1,11-6.4,14.3c-4.3,3.3-9.8,5-16.6,5C1173.8,824.7,1167.5,822.5,1163.3,817.9z
			 M1196.1,791.9c0-10.3-4.6-15.5-13.7-15.5c-5.1,0-8.9,1.2-11.4,3.6s-4.1,6.4-4.6,11.8H1196.1z"/>
		<path class="st2" d="M1222.1,822.6c-3.3-1.5-5.7-3.4-7.2-5.7c-1.6-2.4-2.3-4.9-2.3-7.7c0-0.8,0-1.4,0.1-1.7c0-0.3,0.1-0.5,0.1-0.6
			h8.8v1c0,3.2,1.2,5.6,3.7,7.1c2.5,1.6,5.7,2.4,9.7,2.4c3.4,0,6.3-0.7,8.6-2.1c2.3-1.4,3.4-3.3,3.4-5.8c0-2-0.6-3.6-1.9-4.8
			c-1.3-1.2-2.9-2.2-4.8-2.9c-1.9-0.7-4.5-1.5-7.7-2.3c-3.9-1-7.1-2-9.6-3c-2.5-1-4.6-2.5-6.3-4.5c-1.7-2-2.6-4.6-2.6-7.7
			c0-4.7,1.9-8.4,5.7-11.1c3.8-2.7,9-4.1,15.4-4.1c4.1,0,7.6,0.7,10.5,2c3,1.3,5.2,3.1,6.7,5.3c1.5,2.2,2.3,4.6,2.3,7.3l-0.1,1.9
			h-8.7v-0.9c0-2.4-0.9-4.3-2.8-5.9c-1.9-1.6-4.8-2.3-9-2.3c-4.1,0-6.9,0.7-8.5,2.2c-1.6,1.5-2.4,3.1-2.4,5c0,1.6,0.6,2.8,1.7,3.8
			c1.1,1,2.6,1.8,4.3,2.4c1.7,0.6,4.1,1.3,7.1,2c4.2,1.1,7.6,2.1,10.2,3.2c2.6,1,4.9,2.6,6.7,4.8c1.9,2.1,2.8,4.9,2.8,8.5
			c0,5.5-2,9.6-5.9,12.3s-9.2,4.1-15.8,4.1C1229.5,824.7,1225.3,824,1222.1,822.6z"/>
		<path class="st2" d="M1297.2,821.5c-3.6-2.2-5.4-6.1-5.4-11.7c0-6.8,3-11.5,9.1-14c6.1-2.5,14.9-3.8,26.3-3.8V786
			c0-3.1-0.9-5.5-2.6-7.1c-1.8-1.7-4.9-2.5-9.5-2.5c-4.3,0-7.4,0.8-9.3,2.4c-1.9,1.6-2.8,3.6-2.8,6v1.2h-8.6
			c-0.1-0.4-0.1-1.1-0.1-2.2c0-4.7,2-8.4,5.9-10.9c3.9-2.6,9.1-3.8,15.7-3.8c6.6,0,11.6,1.4,15.1,4.2c3.4,2.8,5.2,6.7,5.2,11.7v28.9
			c0,1.2,0.3,2.1,1,2.7c0.7,0.6,1.5,0.9,2.5,0.9h4.1v5.8c-1.8,0.8-4.1,1.2-6.9,1.2c-2.3,0-4.2-0.7-5.8-2.1c-1.6-1.4-2.6-3.2-3.1-5.5
			h-0.7c-1.8,2.5-4.3,4.5-7.4,5.9c-3.1,1.4-6.6,2.1-10.4,2.1C1304.8,824.7,1300.8,823.6,1297.2,821.5z M1319.3,815.7
			c2.4-1.1,4.3-2.7,5.8-4.8c1.5-2.1,2.2-4.7,2.2-7.7v-3.8c-8.7,0-15.2,0.7-19.6,2.1c-4.4,1.4-6.5,4-6.5,7.8c0,2.9,0.9,5,2.7,6.2
			c1.8,1.3,4.4,1.9,8,1.9C1314.4,817.3,1316.9,816.8,1319.3,815.7z"/>
		<path class="st2" d="M1351.3,750.3h8.9v73.2h-8.9V750.3z"/>
		<path class="st2" d="M1373.7,750.3h8.9v73.2h-8.9V750.3z"/>
		<path class="st2" d="M1399.2,817.9c-4.1-4.6-6.2-11.6-6.2-21c0-9.5,2.1-16.5,6.2-21c4.1-4.6,10.3-6.8,18.4-6.8s14.3,2.3,18.4,6.8
			c4.1,4.6,6.2,11.6,6.2,21c0,9.5-2.1,16.5-6.2,21c-4.1,4.6-10.3,6.8-18.4,6.8S1403.3,822.5,1399.2,817.9z M1429.3,812.6
			c2.4-3.1,3.6-8.3,3.6-15.3v-0.8c0-7.1-1.2-12.2-3.6-15.3s-6.3-4.7-11.7-4.7c-5.4,0-9.3,1.6-11.7,4.7c-2.4,3.1-3.6,8.3-3.6,15.3
			v0.8c0,7.1,1.2,12.2,3.6,15.3c2.4,3.1,6.3,4.7,11.7,4.7C1423,817.3,1426.9,815.8,1429.3,812.6z"/>
		<path class="st2" d="M1446.3,770.2h9.2l8.2,30.2c0.5,2.1,1.1,4.5,1.8,7.1c0.6,2.6,1.1,4.5,1.4,5.5h0.5l2.6-12.6l7-30.2h10.8
			l7.4,30.2c0.5,2.1,1,4.5,1.6,7.1c0.6,2.6,1,4.5,1.2,5.5h0.5c0.2-1,0.6-2.8,1.2-5.4c0.6-2.6,1.2-5,1.8-7.2l8.1-30.2h8.7l-16,53.3
			h-9.7l-7.7-31.8l-2.4-10.9h-0.4c-0.2,0.9-0.5,2.4-1,4.7c-0.4,2.2-0.9,4.3-1.4,6.3l-7.6,31.8h-9.8L1446.3,770.2z"/>
	</g>
</g>
<g id="TXT_1">
	<g>
		<path class="st1" d="M812.9,510.6h55v12.5h-40.2v15.4h35.7V551h-35.7V568h40.8v12.5h-55.6V510.6z"/>
		<path class="st1" d="M880.9,510.6h14.4l26.9,38c0.5,0.7,1.3,1.9,2.2,3.6c1,1.6,1.6,2.7,1.8,3.3l0.5-0.3c0-0.5-0.1-1.4-0.2-2.7
			c-0.1-1.2-0.2-2.3-0.2-3.3v-38.6h14.4v69.9h-14.4l-27-38.3c-0.8-1.2-1.6-2.5-2.4-3.9c-0.8-1.5-1.3-2.4-1.5-2.8l-0.5,0.3
			c0,0.5,0.1,1.3,0.2,2.5c0.1,1.2,0.2,2.4,0.2,3.6v38.6h-14.4V510.6z"/>
		<path class="st1" d="M954.5,510.6h29c10.7,0,18.9,2.9,24.7,8.7c5.8,5.8,8.7,14.6,8.7,26.3c0,11.7-2.9,20.4-8.7,26.3
			s-14.1,8.7-24.7,8.7h-29V510.6z M983.5,568c6,0,10.5-1.8,13.6-5.5c3.1-3.6,4.6-8.8,4.6-15.4V544c0-6.7-1.5-11.8-4.6-15.4
			c-3.1-3.6-7.6-5.5-13.6-5.5h-14.2V568H983.5z"/>
		<path class="st1" d="M1073.4,523.3h-21.6v-12.7h58v12.7h-21.6v57.2h-14.8V523.3z"/>
		<path class="st1" d="M1123.6,572.7c-6.2-6-9.3-15.1-9.3-27.2c0-12.1,3.1-21.2,9.3-27.2c6.2-6,14.9-9,26.1-9c11.3,0,20,3,26.2,9
			c6.2,6,9.3,15.1,9.3,27.2c0,12.1-3.1,21.2-9.3,27.2c-6.2,6-14.9,9-26.2,9C1138.5,581.7,1129.8,578.7,1123.6,572.7z M1164.9,563.4
			c3.4-3.8,5.1-9.3,5.1-16.4V544c0-7.1-1.7-12.5-5.1-16.4c-3.4-3.8-8.5-5.8-15.1-5.8c-6.7,0-11.7,1.9-15.1,5.8
			c-3.4,3.8-5.1,9.3-5.1,16.4v3.1c0,7.1,1.7,12.5,5.1,16.4c3.4,3.8,8.4,5.8,15.1,5.8C1156.4,569.2,1161.4,567.3,1164.9,563.4z"/>
		<path class="st1" d="M1224.6,510.6h55v12.5h-40.2v15.4h35.7V551h-35.7V568h40.8v12.5h-55.6V510.6z"/>
		<path class="st1" d="M1292.6,510.6h14.4l26.9,38c0.5,0.7,1.3,1.9,2.2,3.6c1,1.6,1.6,2.7,1.8,3.3l0.5-0.3c0-0.5-0.1-1.4-0.2-2.7
			c-0.1-1.2-0.2-2.3-0.2-3.3v-38.6h14.4v69.9h-14.4l-27-38.3c-0.8-1.2-1.6-2.5-2.4-3.9c-0.8-1.5-1.3-2.4-1.5-2.8l-0.5,0.3
			c0,0.5,0.1,1.3,0.2,2.5c0.1,1.2,0.2,2.4,0.2,3.6v38.6h-14.4V510.6z"/>
		<path class="st1" d="M1366.2,510.6h29c10.7,0,18.9,2.9,24.7,8.7c5.8,5.8,8.7,14.6,8.7,26.3c0,11.7-2.9,20.4-8.7,26.3
			s-14.1,8.7-24.7,8.7h-29V510.6z M1395.1,568c6,0,10.5-1.8,13.6-5.5c3.1-3.6,4.6-8.8,4.6-15.4V544c0-6.7-1.5-11.8-4.6-15.4
			c-3.1-3.6-7.6-5.5-13.6-5.5H1381V568H1395.1z"/>
		<path class="st1" d="M1468.1,510.6h14.8v69.9h-14.8V510.6z"/>
		<path class="st1" d="M1500.2,574.9c-4.5-4.6-6.7-11.6-6.7-21.2c0-9.6,2.2-16.7,6.7-21.2c4.5-4.6,11.3-6.8,20.5-6.8
			s16,2.3,20.5,6.8c4.5,4.6,6.8,11.6,6.8,21.2c0,9.6-2.3,16.7-6.8,21.2c-4.5,4.6-11.4,6.8-20.5,6.8S1504.7,579.4,1500.2,574.9z
			 M1530.6,566.4c2-2.6,3.1-6.6,3.1-11.9v-1.6c0-5.3-1-9.3-3.1-11.9c-2-2.6-5.3-3.9-9.9-3.9c-4.6,0-7.8,1.3-9.8,3.9
			c-2,2.6-3,6.6-3,11.9v1.6c0,5.3,1,9.3,3,11.9c2,2.6,5.3,3.9,9.8,3.9C1525.3,570.3,1528.6,569,1530.6,566.4z"/>
		<path class="st1" d="M1575.7,523.3h-21.6v-12.7h58v12.7h-21.6v57.2h-14.8V523.3z"/>
	</g>
	<g>
		<path class="st1" d="M811.5,592.8h48.8c11.4,0,20,2.9,25.8,8.7c5.8,5.8,8.6,14,8.6,24.7c0,10.6-3,18.9-9,24.8
			c-6,5.9-15,8.9-26.9,8.9h-25.6v35.2h-21.6V592.8z M858.4,641.6c4.7,0,8.2-1.3,10.7-4c2.5-2.7,3.7-6.5,3.7-11.3
			c0-4.8-1.2-8.5-3.7-11.1c-2.5-2.6-6.1-4-10.7-4h-25.2v30.4H858.4z"/>
		<path class="st1" d="M911,592.8h21.6v83.5h55.2v18.8H911V592.8z"/>
		<path class="st1" d="M1032.4,592.8h27.1l40,102.3h-23.6l-7.3-19.5h-46.5l-7.3,19.5h-22.4L1032.4,592.8z M1061.7,657.5l-9.7-25.9
			c-0.8-2.1-1.9-5.6-3.4-10.4c-1.5-4.9-2.5-8.1-3-9.7h-0.7c-0.5,1.6-1.5,4.8-3,9.7c-1.5,4.9-2.6,8.3-3.4,10.4l-9.7,25.9H1061.7z"/>
		<path class="st1" d="M1123.4,611.4h-31.6v-18.6h84.8v18.6h-31.6v83.6h-21.6V611.4z"/>
		<path class="st1" d="M1189.8,592.8h74.1v18.3h-52.5v25.2h47v18.3h-47v40.4h-21.6V592.8z"/>
		<path class="st1" d="M1290.7,683.7c-9-8.8-13.6-22-13.6-39.7c0-17.7,4.5-30.9,13.6-39.7c9-8.8,21.8-13.2,38.2-13.2
			c16.5,0,29.3,4.4,38.3,13.2c9,8.8,13.6,22,13.6,39.7c0,17.7-4.5,30.9-13.6,39.7c-9,8.8-21.8,13.2-38.3,13.2
			C1312.5,696.9,1299.8,692.5,1290.7,683.7z M1351,670.1c5-5.6,7.5-13.6,7.5-23.9v-4.5c0-10.3-2.5-18.3-7.5-23.9
			c-5-5.6-12.4-8.4-22.1-8.4c-9.7,0-17.1,2.8-22.1,8.4c-5,5.6-7.5,13.6-7.5,23.9v4.5c0,10.3,2.5,18.3,7.5,23.9
			c5,5.6,12.3,8.4,22.1,8.4C1338.6,678.5,1346,675.7,1351,670.1z"/>
		<path class="st1" d="M1396.9,592.8h54.3c11.4,0,20,2.8,25.8,8.4c5.8,5.6,8.6,13.5,8.6,23.6c0,14.3-6,23.9-17.9,28.6l20.9,41.6
			h-23.4l-18-38.2h-28.6v38.2h-21.6V592.8z M1449.2,638.9c4.7,0,8.2-1.2,10.7-3.7c2.5-2.5,3.7-5.9,3.7-10.3c0-4.4-1.2-7.8-3.7-10.1
			c-2.5-2.4-6.1-3.6-10.7-3.6h-30.7v27.7H1449.2z"/>
		<path class="st1" d="M1504.5,592.8h33.7l14.3,56.4c0.8,2.8,1.7,6.9,2.8,12.3c1,5.4,1.7,9,2,10.8h0.7c0.3-1.9,0.9-5.6,1.9-11.1
			c0.9-5.5,1.7-9.5,2.3-12l14.3-56.4h32.2v102.3h-21.6v-65.2c0-1.9,0.1-4.8,0.4-8.6c0.2-3.9,0.4-6.5,0.5-7.8h-0.7l-3.1,12.1
			l-17.6,69.5H1546l-17.6-69.5l-3.1-12.1h-0.7c0.1,1.3,0.3,3.9,0.5,7.9c0.2,4,0.4,6.8,0.4,8.5v65.2h-20.9V592.8z"/>
	</g>
</g>
</svg>
