<?xml version="1.0" encoding="utf-8"?>
<!-- Generator: Adobe Illustrator 22.0.1, SVG Export Plug-In . SVG Version: 6.00 Build 0)  -->
<svg version="1.1" id="Layer_1" xmlns="http://www.w3.org/2000/svg" xmlns:xlink="http://www.w3.org/1999/xlink" x="0px" y="0px"
	 viewBox="0 0 1920 1080" style="enable-background:new 0 0 1920 1080;" xml:space="preserve">
<style type="text/css">
	.st0{display:none;}
	.st1{display:inline;fill:#002B7F;}
	.st2{display:inline;fill:#CEBF0B;}
	.st3{display:inline;fill:#EF3818;}
	.st4{fill:#222222;}
	.st5{fill:#33EC00;}
	.st6{fill:#5FEE3E;}
	.st7{fill:url(#SVGID_1_);}
	.st8{fill:url(#SVGID_2_);}
	.st9{fill:url(#SVGID_3_);}
</style>
<image style="display:none;overflow:visible;" width="1920" height="1080" xlink:href="LogoC4Ghearer-logo.png" >
</image>
<g>
	<g id="Check_Green">
		<g id="Layer_4" class="st0">
			<polygon class="st1" points="1093.3,245.3 1060.8,329.1 963.6,192.3 1091,119.3 			"/>
			<polygon class="st2" points="1070.3,315 987.9,360.9 906.3,246.1 973.1,178.2 			"/>
			<polygon class="st3" points="1009,373.3 961.3,405.1 908.4,445.6 875.4,316.6 910.9,238.1 			"/>
		</g>
		<g id="Layer_7">
			<g>
				<path class="st4" d="M346,201c21.2,0,35.7,7.5,43.1,22.3c4.1,8.1,11.2,12.4,20.9,12.4h27c-2.3-22.3-11-40-26.4-53
					c-16.4-12.7-37.9-18.7-64.7-18.7c-69.2,0-104.7,39.7-104.7,105.7c0,63.8,33.5,105.4,100.8,105.4c55.4,0,90.9-26.8,95-73.9h-43.5
					c-4.8,22.6-20.9,37-48.9,37c-40.9,0-58.6-28.4-58.6-68.4C286.1,228.4,304.5,201,346,201z"/>
				<path class="st4" d="M526.7,302.6h-48.7v-41.4h-12.4c-6.8,0-12.1,5.6-12.1,11.9V372h24.5v-49.1h48.7V372h24.5V261.2h-24.5V302.6
					z"/>
				<path class="st4" d="M563.2,273.1v99h85.8v-20.4h-61.9V323h33.6c8.5,0,12.7-3.8,12.6-11.4v-7.3h-46.2v-23.8h61.9v-19.2h-73.5
					C567.2,261.3,563.2,265.4,563.2,273.1z"/>
				<path class="st4" d="M715.8,353.7c-22.1,0-31.7-15.3-31.7-37c0-22.3,9.9-37.2,32.4-37.2c11.6,0,19.3,4.1,23.4,12.1
					c2.2,4.3,6.1,6.6,11.3,6.6h14.6c-1.2-12.1-5.9-21.6-14.3-28.7c-8.9-6.9-20.6-10.1-35-10.1c-37.5,0-56.7,21.5-56.7,57.2
					c0,34.5,18.1,57,54.5,57c29.9,0,49.1-14.5,51.6-39.9h-23.5C739.7,345.9,731,353.7,715.8,353.7z"/>
				<path class="st4" d="M831.2,306.2l47.3-45h-30.7l-46.2,45.7v-45.7h-12.1c-6.9,0-12.2,5.6-12.1,11.9V372h24.2v-38.8
					c0-3.7,2.2-6.5,6.8-8c4.5-1.5,9.4,1.2,14.6,7.6L853,372h29.7L831.2,306.2z"/>
			</g>
			<g>
				<path class="st5" d="M1209.5,274.6c0,11.7,9.9,21.1,22.4,21.1h26.3c-4.8,24.6-22.4,43.7-52.5,43.7c-40-2.7-59.5-26.8-59.2-71.7
					c0.3-44.9,19.5-67.2,57-67.2c21.2,0,36.2,8.2,44.8,24.7c5.2,6.9,11.6,10.5,19.5,10.5h27.5c-1.6-23.2-10.8-41-27.5-53.6
					c-18.2-12.1-40.3-18.1-65.6-18.1c-64.4-2.4-102.5,45.2-101.5,105.6c0,59.9,37.8,105.4,100.2,105.4c31.4,0,47-10.2,62.4-28.9
					l1.9,10c1,9.4,11.2,16,21.8,16h11.2V261.6h-88.7V274.6L1209.5,274.6z"/>
				<path class="st5" d="M1413,365.2l-1.1-21.7c-0.5-7.2-1.6-12.7-3.6-16.5c-2.4-3.4-6.2-6-11.3-7.7c11.3-2.9,17.7-12.1,17.7-26
					c0-22.8-13.5-31.6-37.9-31.6h-44.7c-6.8,0-12.1,5.6-12.1,11.9v98.9h24v-43h25.6c14.2,0,16.7,4.3,17.6,17.6
					c0.2,10.8,0.6,17.2,1.1,18.8c0.2,2.2,0.7,4.6,1.9,6.7h26.5C1414.6,371.1,1413.2,368.6,1413,365.2z M1372.5,310.1h-28.4v-29.2
					h29.8c10.7,0,16.4,4.4,16.4,14.5C1390.3,306.2,1383.9,310.1,1372.5,310.1z"/>
				<path class="st5" d="M1428.9,273.6l0,99h85.2v-20.4h-61.5v-28.7h33.4c8.5,0,12.6-3.8,12.5-11.4v-7.3h-45.9v-23.8h61.5v-19.2
					h-73.1C1433,261.8,1428.9,265.9,1428.9,273.6z"/>
				<path class="st5" d="M1526.6,273.6l0,99h85.2v-20.4h-61.5v-28.7h33.4c8.5,0,12.6-3.8,12.5-11.4v-7.3h-45.9v-23.8h61.5v-19.2
					h-73.1C1530.6,261.8,1526.6,265.9,1526.6,273.6z"/>
				<path class="st5" d="M1697,261.7v76.1l-47.9-76.1h-13c-6.7,0-12.1,5.6-12.1,11.9v98.9h23.7v-76.1l47.9,76.1h25V261.7L1697,261.7
					L1697,261.7z"/>
			</g>
		</g>
	</g>
	<g id="Frunza_1_">
		<g id="Frunza">
			<path class="st6" d="M1092.8,153.3c0,0-21.9,32.2-86,65.3c-63.6,32.9-76.8,33.3-106.9,84.7c-16.6,28.4-22.1,84,16.7,151.7
				c-4.8-88.8,48.4-105.7,48.4-105.7s-22-0.2-33.5-0.3c-11.5,0-27.8-9.5-17.4-34.3c10.4-24.8,32.8-36,58.1-50.8
				c25.3-14.8,66-32.1,83.1-30.1s5.2,16.7,5.2,16.7s3.5,0,3.2,9.5c-0.3,9.5-45.5,62.3-45.5,62.3c30.8-4,26.3,6.1,25.6,11.2
				c-0.6,5.1-2.3,11.7-17.2,15.8c-14.9,4.1-28.7-0.9-46.5,14.9c-17.8,15.8-20,30.9-20.8,40.9c-0.8,10,4.9,17.7,4.9,17.7
				c28.5-14.5,66.4-30.6,94.4-65.4C1086.6,322.7,1092.8,183,1092.8,153.3z"/>
			<path class="st6" d="M1043.8,254.4c0,0-57.4,14.4-100.1,63.8c0,0,6.7,5.5,43,3.3L1043.8,254.4z"/>
			
				<linearGradient id="SVGID_1_" gradientUnits="userSpaceOnUse" x1="978.196" y1="538.7897" x2="752.9724" y2="354.1279" gradientTransform="matrix(1.065 3.964543e-03 3.714482e-03 -0.9978 54.5425 749.509)">
				<stop  offset="0" style="stop-color:#000000"/>
				<stop  offset="0.4778" style="stop-color:#000000;stop-opacity:0"/>
			</linearGradient>
			<path class="st7" d="M1043.8,254.4c0,0-57.4,14.4-100.1,63.8c0,0,6.7,5.5,43,3.3L1043.8,254.4z"/>
			
				<linearGradient id="SVGID_2_" gradientUnits="userSpaceOnUse" x1="1018.124" y1="669.0574" x2="697.4479" y2="149.28" gradientTransform="matrix(1.065 3.964543e-03 3.714482e-03 -0.9978 54.5425 749.509)">
				<stop  offset="0" style="stop-color:#000000"/>
				<stop  offset="0.4877" style="stop-color:#000000;stop-opacity:0"/>
				<stop  offset="1" style="stop-color:#000000"/>
			</linearGradient>
			<path class="st8" d="M1092.8,153.3c0,0-21.9,32.2-86,65.3c-63.6,32.9-76.8,33.3-106.9,84.7c-16.6,28.4-22.1,84,16.7,151.7
				c-4.8-88.8,48.4-105.7,48.4-105.7s-22-0.2-33.5-0.3c-11.5,0-27.8-9.5-17.4-34.3c10.4-24.8,32.8-36,58.1-50.8
				c25.3-14.8,66-32.1,83.1-30.1s5.2,16.7,5.2,16.7s3.5,0,3.2,9.5c-0.3,9.5-45.5,62.3-45.5,62.3c30.8-4,26.3,6.1,25.6,11.2
				c-0.6,5.1-2.3,11.7-17.2,15.8c-14.9,4.1-28.7-0.9-46.5,14.9c-17.8,15.8-20,30.9-20.8,40.9c-0.8,10,4.9,17.7,4.9,17.7
				c28.5-14.5,66.4-30.6,94.4-65.4C1086.6,322.7,1092.8,183,1092.8,153.3z"/>
			<path class="st5" d="M1058.6,357.5c28-34.9,34.1-174.5,34.1-204.2c0,0,0,0,0,0c-5.2,20.4-19.2,59.6-37.2,80.7
				c16.8,2.1,5,16.7,5,16.7s3.5,0,3.2,9.5c-0.3,9.5-45.5,62.3-45.5,62.3c30.8-4,26.3,6.1,25.6,11.2c-0.6,5.1-2.3,11.7-17.2,15.8
				c-14.9,4.1-28.7-0.9-46.5,14.9c-17.8,15.8-20,30.9-20.8,40.9c-0.8,10,4.9,17.7,4.9,17.7C992.7,408.4,1030.7,392.4,1058.6,357.5z"
				/>
			
				<linearGradient id="SVGID_3_" gradientUnits="userSpaceOnUse" x1="1025.3065" y1="590.6632" x2="741.1407" y2="208.5609" gradientTransform="matrix(1.065 3.964543e-03 3.714482e-03 -0.9978 54.5425 749.509)">
				<stop  offset="0" style="stop-color:#000000;stop-opacity:0.2"/>
				<stop  offset="0.4877" style="stop-color:#000000;stop-opacity:0"/>
				<stop  offset="0.9373" style="stop-color:#000000;stop-opacity:0.8777"/>
				<stop  offset="1" style="stop-color:#000000"/>
			</linearGradient>
			<path class="st9" d="M1058.6,357.5c28-34.9,34.1-174.5,34.1-204.2c0,0,0,0,0,0c-5.2,20.4-19.2,59.6-37.2,80.7
				c16.8,2.1,5,16.7,5,16.7s3.5,0,3.2,9.5c-0.3,9.5-45.5,62.3-45.5,62.3c30.8-4,26.3,6.1,25.6,11.2c-0.6,5.1-2.3,11.7-17.2,15.8
				c-14.9,4.1-28.7-0.9-46.5,14.9c-17.8,15.8-20,30.9-20.8,40.9c-0.8,10,4.9,17.7,4.9,17.7C992.7,408.4,1030.7,392.4,1058.6,357.5z"
				/>
		</g>
	</g>
</g>
</svg>
