<?xml version="1.0" encoding="utf-8"?>
<!-- Generator: Adobe Illustrator 22.0.1, SVG Export Plug-In . SVG Version: 6.00 Build 0)  -->
<svg version="1.1" id="Layer_1" xmlns="http://www.w3.org/2000/svg" xmlns:xlink="http://www.w3.org/1999/xlink" x="0px" y="0px"
	 viewBox="0 0 960 342.7" style="enable-background:new 0 0 960 342.7;" xml:space="preserve">
<style type="text/css">
	.st0{display:none;}
	.st1{display:inline;}
	.st2{display:inline;fill:none;}
	.st3{display:inline;fill:#002B7F;}
	.st4{display:inline;fill:#FCD116;}
	.st5{display:inline;fill:#CE1126;}
	.st6{fill:#174569;}
	.st7{fill:#FFFFFF;}
	.st8{fill:#505E69;}
	.st9{display:inline;fill:#174569;}
	.st10{enable-background:new    ;}
	.st11{opacity:0.7;clip-path:url(#SVGID_2_);fill:#174DBB;enable-background:new    ;}
	.st12{fill:#174A69;stroke:#174A69;stroke-width:2;stroke-miterlimit:10;}
	.st13{display:none;fill:url(#SVGID_3_);}
	.st14{display:none;fill:url(#SVGID_4_);}
	.st15{fill:#EAE40C;}
	.st16{fill:#ED0A36;}
	.st17{display:none;fill:#222222;}
	.st18{display:none;fill:#4E9A06;}
	.st19{display:inline;fill:#222222;}
	.st20{display:inline;fill:#4E9A06;}
</style>
<g id="Layer_3" class="st0">
	<g id="Layer_5" class="st1">
	</g>
</g>
<g id="Layer_2_1_" class="st0">
</g>
<g id="Layer_1_1_">
	<g class="st0">
		<path class="st2" d="M244.2,93.8c-0.2,0-0.3,0.2-0.4,0.4h0.8C244.5,94,244.4,93.8,244.2,93.8L244.2,93.8z"/>
		<path class="st2" d="M242.4,94.2c-0.1-0.2-0.2-0.4-0.5-0.2c0,0-0.1,0.1-0.1,0.2H242.4z"/>
		<path class="st3" d="M125.7,105.6c-1-0.4-0.3-0.8-0.3-1.5c0.1-0.5-0.7-0.6-0.8-1.2c0-0.6-0.4-0.2-0.7-0.1
			c-0.6,0.3-0.8,0.1-1.4,0.1c-0.9-0.1-0.7-1.2-1-1.3c-0.6-0.1-1.1,1.3-1.6,1.5c0,0-0.2,0.1-0.2,0c-0.4,0.3,0.2,0.5-0.4,0.9
			c-0.2,0.2-0.2,0.6,0,0.8c-0.1,0.1-0.4,0.5-0.4,0.6c0,0.3,0.3,0.4,0.2,0.7l-0.7,1.5c-0.2,0.4-0.5-0.1-0.9,0
			c-0.7,0.1-0.9,0.6-1.5,0.8c-0.7,0.2-1-0.7-1.5-0.8c-0.4-0.1-0.9,0.2-1.2-0.2c0-0.1-0.4-0.4-0.4-0.3c-0.3,0-0.1,1,0.2,1l0.1,0.1
			c0,0.6,0.3,0.9,0.4,1.4c0,0.5-0.9,0.7-1.2,0.5l-0.1,0.1l-0.7,0.3l-0.4,0.5l-0.5,1.2c-0.2,0.5-0.8,1.1-1.4,0.7
			c-0.2,0.1-1.1,0.9-1.2,0.9c-0.2,0-1.2-0.3-0.9,0.4c0.4,0.9,0.8,1.8-0.2,2.3c-0.2,0.1-0.4,0.5-0.6,0.4c-1-0.4-0.9,0.2-1.4,0.9
			c-0.7,1.1-0.8,1.4-2.1,1.8c-0.4,0.1-1.3,0.1-1.5,0.3c-0.5,0-1,0.2-1.4,0c-0.3-0.1-0.4-0.6-0.6-0.8c-0.3-0.3-1.3-0.9-1.7-1
			c-0.1-0.3-0.9,0.1-1.1,0.2c-0.1,0-0.3,0-0.3,0.1c0,0-0.1,0.1-0.1,0.2l-0.4,1.6c-0.1,0.2-0.3,1.4-0.4,1.4c0,0-0.8-0.3-1-0.2
			c-0.5,0.1-0.8-0.1-1.3,0c-0.4-0.2-0.7-0.7-1-1c0,0.1-0.5,1.2-0.6,1.2c-0.3,0-0.9,0.9-1.2,0.7c-0.4,0.3-0.4,0-0.4,0.7
			c0,0.3,0,1-0.3,1c-1.2,0.2-0.8,0.7-1.1,1.7c-0.1,0.2-0.3,0.3-0.3,0.4h-0.1c0,0,0,0-0.1,0c-0.2,0.5-0.2,1.1-0.4,1.6
			c-0.3,0.3-0.2,1.4-0.8,1.6c-0.5,0.2-1-0.4-1.4-0.4c0,0.2-0.2,0.7-0.3,0.9c-0.2,0.3-0.6,0.4-0.7,0.6c-0.5,0.9-0.7,0.3-1.4,0.9
			c-0.6,0.6,0.3,0.4,0.3,0.8c0,0.7-0.9,0.1-1.2,0.1c-0.1,0.4-0.6,1.2-0.8,1.7c-0.3,0.8-0.3,1.2,0,2.1c0.2,0.3,0.6,0.5,0.5,0.7
			c-0.2,0.4,0,0.2,0.1,0.5c0.1,0,0.1,0.1,0.1,0.1c0,0.3-0.3,0.4-0.2,0.7c0.1,0.2,0.2,0.4,0.2,0.7c-0.1,0.6-0.6,1.1-0.7,1.6
			c-0.1,0-0.5,0-0.6-0.2c-0.7,0-1,0.1-1.7,0.3c-0.1,0.4-1.2,2.2-1.5,2.5l-0.7,2h-0.1c0,0.4,0.4,0.4,0,0.8c-0.2,0.4-1.8,2.5-0.8,2.8
			l0,0c0,0,0,0.1,0,0.2c-0.2,0.3,0.1,1-0.2,1.3c-0.3,0.4-0.7,0.4-1,0.6c-0.4,0.4-0.8,2-0.9,2.5c-0.1,0.9-0.4,0.7-1.1,0.9
			c-0.8,0.2-1.5,0.5-1.9,1.3c0,0.3-0.3,0.7-0.5,0.9c-0.3,0.3-0.2,0.6-0.5,0.9c-0.5,0.6-1.2-0.2-0.9,1c0.1,0.4,0.6,0.4,0.6,0.5l0,0
			c0.1,0,0.3,1.3,0.1,1.5c-0.2,0.4-0.7,1.1,0,1.3c0,0.5-0.4,0.6-0.8,0.6s-0.5,0.7-0.7,0.9c-0.4,0.2-2.1,0.3-1.3,1.3
			c0,0.1,0.1,0.4,0.3,0.5l0.2,0.2c0,0.1,0.1,0.5,0,0.5c0,0.2-0.4,0.1-0.4,0.5c-0.1,0.3,0.1,0.5-0.1,0.8s-1.5,0.4-1.6,0.5
			c-0.2,0.1-0.4,0.6-0.8,0.7c-0.1,0.6-0.4,1-0.2,1.7c0.1,0.5-0.5,1.3-0.9,1.5c-0.1,0-0.4,0.3-0.4,0.3c-0.4,0.4,0.3,0.6,0.5,0.8
			c1.1,0.7,1.7,1.3,0.5,2.3c-0.3,0.3-0.3,0.5-0.4,0.9c-0.3,0.7-0.7-0.2-1.1-0.1c-0.3,0.1-0.5,0.4-0.9,0.3c-0.2,0-0.9-0.2-0.7,0.3
			c0.2,0.4,0.3,0.5,0.6,0.8c0.9,0.9-0.7,1.1-1,2c-0.2,0.6-0.9,0.2-1.1-0.1c0.2-0.2-0.3-0.5-0.6-0.3c-0.5,0.3-0.4,0.4-0.9,0.3
			c-0.6-0.1-0.9,1-1.1,1.5c-0.3,0.9,0,0.4,0.2,0.9c0.2,0,0.1,0.3,0.1,0.4c-0.3,0.4-0.7,1.4-1,1.6c-0.6,0.3-0.2,0.4-0.4,0.8
			c-0.5,1.1-0.5,1-0.1,2.1c0.2,0.6,0.9,0.6,0.9,0.6h0.1l0,0c0.1,0.4,0.6,0.8,0.6,1.4c0,0.5-0.8,1-0.8,1.5s0.1,0.7-0.5,0.5
			c-0.5-0.2-1.1-0.1-1.6-0.2h-0.3l0,0l0,0c0,0.1-0.1,0.2-0.1,0.4c-0.2,0-0.3,0-0.5,0l0,0l-0.1,0.3c-0.4,0.6,0,1.5-0.1,2.2
			c-0.2,0.7-0.9,0.8-0.8,1.5c0.1,0.5,0.3,1-0.4,1.1c-0.5,0.2-0.7-0.5-1.4-0.3c-0.7,0.3-0.4,1.7-1,2.2c-0.6,0.6-1.6,1.4-2.2,0.3
			c-0.4-0.7-0.3-0.7-1.2-0.5c-1.1,0.3-1.1,0-1.9-0.2c0-0.1-0.1-0.3-0.1-0.5c-0.6-0.2-0.8,0.5-1,0.9c-0.3,0-0.8-0.5-0.9-0.8
			c-0.8-0.5-0.6-0.5-1.5-0.3c-0.5,0.1-1.1,0.4-1.6,0.4c-0.2,0-0.8,0-0.9,0c-0.3,0.2-0.5,0.7-0.8,1c-0.2,0.3,0,1.1,0.1,1.4
			c0.3,1,0.3,1.2-0.8,1.2c-0.3,0-0.2,0.7-0.3,1l-0.6,1.4c-0.4,0.1-0.5,0.6-0.9,0.6c-0.3,0-0.6-0.4-0.9,0c-0.1,0.2-0.4,1.2-0.9,0.9
			c-0.3-0.3-0.5-0.5-0.8-0.8c-0.5-0.8-2.4-1.6-3.3-2c-0.2-0.1-0.4-0.2-0.6-0.3l-0.3,0.7c-0.4,0.5-0.4,1.2-1.1,1.5
			c-0.6,0.2-1-0.1-1.5-0.4c-0.4-0.3-0.6-0.2-1-0.3c-0.3-0.1-1,0.2-1-0.5l0,0c-0.3,0-0.9,0.6-1.2,0.7c-0.4,0.3-0.7-0.2-1.1,0.2
			l-0.9,1.5l0.4,0.3c-0.8,0.5,0.5,1.1,0.8,1.4c0.3,0.3,0.6,1,1,1.3c1,0.6,0.4,1.1,0.8,1.9c0.2,0.5,0.3,0.4,0.1,0.9
			c-0.1,0.5,0.3,0.7,0.7,1l0.9,1l1.6-0.2l1.2,0.6l1.1,3.2l1.2-0.2l0.2-0.5l0.5-0.1l0.5,1.9h0.5l2.2,2.1c-0.1,0.2-0.2,0.3-0.2,0.5
			s0,0.3,0.1,0.5c0.1,0.3,0,0.8,0.4,0.7s0.6,0.1,0.7,0.5c0.1,0.3,0,0.5,0,0.8c0,0.2,0.5,1,0.7,1c0.4,0,0.8-0.2,1.2-0.3
			c0.5-0.1,0.9,0.2,1-0.5c0.1-0.4,0.1-0.8,0.3-1.2l1.3,0.6l-0.1,1.2c-1,0.7-0.1,1.4-0.4,2.3c-0.3,0.7-0.2,0.7,0,1.4
			c0.3,0.8-0.5,1.4-0.6,2.1c-0.1,0.5-0.6,0.7-0.6,1.2c0,0.3,0.1,1.1,0.3,1.5c0.4,0,0.5-0.1,1,0c0.1,0.3,0.4,0.7,0.5,1
			c0.1,0.5,0.5,0.9,0.4,1.3c-0.1,0.3-0.8,0.9-1.1,1.1c-0.2,0-0.5,0.2-0.7,0.3c-0.1,0.1-0.4,0.1-0.3,0.3c0,0.1,0.2,0.2,0.2,0.3
			c0.1,0.1-0.3,0.3,0,0.5c0.2,0.2,0.8,0.2,1,0.1c0.7-0.5,1.8,0.3,2.3,0.8c0.5,0.6-0.2,1.2,0.1,1.8c0.3,0.4,0.9,0.4,1.3,0.5
			c0.3,0.1,1,0.9,0.9,1.2c-0.1,0.4,0.2,0.4,0.5,0.6c0.2,0.1,0.5,0.7,0.6,0.9c-0.1,0,0.4,0.5,0.5,0.6c0.2,0.1,0.1,0.4,0.4,0.4
			c0.8,0,0.4,1.5,1.4,0.9c0.1-0.1,0.9-0.4,1-0.1c0,0.2-0.1,0.5,0,0.6c0.1,0,0.4-0.1,0.5,0c0,0,0.4,0.7,0.5,0.8l1.5-0.3
			c1-0.2,0.2-1.2,1.5-1.1c0.3,0,0.3,1.7,0.5,2.1c0.3,0.5,0.5,0.4,0.4,1c-0.1,0.8,1.4,0.8,1.8,1.1c1.1,0.7,0.8,0.2,1.8-0.1
			c0.5,0.2,1.7,1.2,2.2,0.9c0.6,0.5,0.7-0.1,1-0.2c0,0,0,0,0.1,0s0.5,0.3,0.5,0.4c0.3,0.1,0.6,0.7,0.7,0.9c0.7,0.2,1.5,0.4,1.8,1.2
			c1,0.2,1.7,0.7,1.4,1.9c-0.2,0.7-0.8,0.5-1.4,0.6c-0.4,0.1-0.9,1.1-0.5,1.2c0,0.1,0.2,0.2,0.2,0.2l0,0c0.2,0.1-0.3,0.8-0.5,0.8
			c-0.3,0.3-0.7,0.9-0.5,1.3c0.6,0.9-3,0.8-3.2,1.6c0.3,0.1,1.2,0.9,1.5,1.2c0.4,0.3-0.1,0.9,0.3,1.1c0.5,0.2,0.6,0.6,1.1,0.6
			c0.7-0.1,1.4,0.7,2.2,0.9c0.5,0.2,1.2,0.2,1.4,0.8c0.2,0.6,0.1,0.5,0.4,1c0.5,0.7-1.1,0.8-1.5,1.1c-0.8,0.6-1.2,0.5-2.3,0.5
			c-0.6-0.2-1.7,0-2.3,0.1c-0.7,0.2-1,1-1,1.6l-0.1,0.7c0.6,0.2,1,0.8,1.2,1.3c0.6,1.8,3.2,0.8,4.7,1c2,0.3,3,0.9,3.3,2.7
			c0.1,0.5-0.6,3,1.1,2.6c1.5-0.4,1.3,0.4,2.3,0.7c0.8,0.2,1.5-0.4,2.3-0.5c0.5,0,1,0.6,1.3,0.5c1.9-0.4,2.6,0.7,4.4,0.7
			c0.5,0,1.4,0.1,1.7,0.5c0.3,0.4,0.3,0.9,0.6,1.3c0.2,0.2,0.5,0.4,0.6,0.7c0.2,0.5,0,0.9,0.1,1.4c0.1,0.3,0.1,0.6,0.4,0.8
			c0.2,0.2,0.8,0.4,0.8,0.6c0.3,1.4,2.2,3,3.7,2.4c0.7-0.3,0.8-1.9,1.1-2.5c0.4-0.8,1-2,1.5-2.6c0.6-0.8,0.9-1,1-2.2
			c0.1-0.6,1-1.2,1.3-1.9c0.3-0.8,1.1-0.4,1.6-0.4c1.5,0.1,1.3-1.9,2.8-2.1c1.4-0.2,3.4,2.4,4.3,3.4c0.6,0.6,0.9,1.1,1.7,1.4
			c0.6,0.2,1.5-0.4,2.1,0.1c0.2,0.2,0.3,0.5,0.6,0.6c0.9,0.3,1.8,1.5,2.2,2.3c0.4,0.7-0.2,1.6-0.9,1.8c-0.6,0.2-1.3,0.2-1.8-0.2
			c-0.6-0.6-2.1-1.2-2.9-1.1c-1,0.1-0.9,1.8-1.2,2.5c-0.8,1.8-2.3,0-3.2,0.9c-0.8,0.8,0,1.8,0.9,2.6c0.6,0.5,0.4,1.6,0.5,2.3
			c0.1,0.7,1.3,2.6,1.8,3.2c1.1,1.1,2.1,0.6,3.5,1c0.3,0.1,0.6,0.5,0.7,0.8c0,0.1,0.1,1.3,0,1.6c-0.1,0.6-0.1,1.1,0,1.4
			c0.3,0.6,1,0.7,2,0.7c0.7,0,1.3,1.5,2,1.9c1.5,0.9,2.6,1,3.9,2.3c1,1,2.9,0.4,4.2,1.1c0.8,0.4,0.7,1.9,0.3,2.6
			c-0.3,0.5-0.3,0.8-0.8,1.1c-0.4,0.2-1.3,0.2-1.8,0.2c0,0-0.1,0.1-0.2,0.1c-1.8,0.5-2.6,1-2.9,2.8c-0.2,0.8-1.3,2.8-1,3.5
			c1,2.6,2.6,2.7,5.1,3.2c2.2,0.5,4.8,0.6,6.8-0.6c0.4-0.2,1-0.6,1.6-0.7c0.6-0.2,1.1-0.2,1.7-0.6c0.2-0.1,0.6-0.2,1-0.2l-0.9-210
			C126,105.6,125.9,105.6,125.7,105.6L125.7,105.6z"/>
		<path class="st4" d="M241.8,94.2c-0.2,0.3-0.5,0.8-0.6,0.5l0,0l0,0c0,1-0.5,0.7-1.1,0.4c-0.6-0.3-0.4,1-0.6,1.1
			c-0.2,0.2-0.4-0.1-0.7-0.1s-0.6,0.3-0.9,0.4c-0.6,0.1-1.3-0.2-1.8-0.3c-0.3-0.1-0.5,0.7-0.6,0.6c-0.4-0.1-0.6,0.5-0.8,0.4
			c-0.5-0.3-0.6-0.3-1,0.3c-0.4,0.5-0.6,0.4-0.8-0.2c-0.1-0.6-0.4,0.5-0.7,0.5c-0.1,0-0.5-0.4-0.6-0.2c-0.1,0.3-0.2,0.5-0.4,0.4
			l0.1,0.6c0,0.4,0.1,0.6-0.1,0.9c-0.2,0.3-0.5,0.3-0.7,0.6c-0.1,0.1-0.2,0.3-0.4,0.4c-0.2,0.2-0.3,0.6-0.3,0.9
			c-0.2,1.8-1,2.1-2.1,3.1c-1,0.9-0.5,2.3-1.4,3.1c-0.2,0.2-1.9,0.9-2,0.6l0,0l0,0c-0.3,0-0.4,0.5-0.9,0.4l-1.5-0.5l-3.2,1
			c-0.3,0-0.4-0.1-0.6-0.2c-0.2-0.1-0.4-0.3-0.6-0.3c-0.1,0-0.1-0.1-0.3,0c-0.6,0-0.5,0.7-1.1,0.9c-0.5,0.2-0.8-0.4-1.3-0.4
			c-1.3,0-1.5,1.3-2.7,1.4c-2.4,0.2-4.6-0.9-6.9,0.3l-1.8,0.1l-5.6,1l-1.9,0.1l-0.9,0.7c-0.9,0.8-1.2,0.1-1.8,0.5
			c-0.6,0.3-0.3,1.2-0.4,1.7c-0.1,0.4-0.5,0.3-0.8,0.6c-0.3,0.4-0.2,0.4-0.5,1.1l-0.6,1.3c-0.2,0.3,0.2,0.6-0.4,0.8
			c-0.4,0.1-0.6-0.1-0.9,0.4c-0.3,0.4-0.4,0.8-0.6,1.2c-0.1,0.3-1.1,0.6-1.4,0.8c-0.5,0.3-0.7-0.5-1,0.5c-0.2,0.7-0.8,0-1.2,0.1
			s-0.3,0.6-0.8,0.2s-1-0.1-1.6-0.1c-0.4,0-2,0.4-2,0c0-0.6-0.4-1.9-1-2.2c-0.8-0.3-0.9-1.9-1.1-2.6c-0.1-0.6-1.4,0.3-1.4-0.7
			c-0.2,0-0.3-0.1-0.6-0.1c-0.3,0.9-0.8-0.4-1.3-0.2c-1.1,0.4-0.4-0.5-1.3-0.7c-0.3-0.1-1.1-0.7-0.8-1.1c0.2-0.4,0.2-1.1-0.1-1.5
			s-0.7-0.5-0.8-0.9c-0.1-0.3-0.4-0.3-0.4-0.5c-0.1-0.3,0-0.8-0.3-0.9c-0.5-0.1-0.9,0.6-1-0.1c-0.1-0.5-0.8-1.3-1.3-0.6
			c-0.3,0.4-0.7-0.2-1,0.2c-0.4,0.6-2.5-0.4-3-0.5c-0.3-0.1-0.5,0.3-0.9,0.3c-0.1,0.2-0.6,0.6-0.8,0.8c-0.3,0.3-0.2,0.9-0.5,1.2
			c-0.9,0.7-1.3-0.2-2.1,0.3c-0.6,0.4-1,0.6-1.7,0.6c-0.8,0-1,1.1-1.8,0.2c-0.9-1-0.9-0.9-2.3-0.5c-2,0.5-1.2-1.5-2.5-1.8
			c-0.5-0.4-1.2,0.2-1.5-0.2c-0.3-0.4-0.8-0.8-1.3-0.4c-0.6,0.4-0.3,0-0.7-0.2s-0.7,0.5-0.9,0.7c-0.7,0.7-1.1,0.1-1.8,0.3
			c-0.4,0.1-0.8,0.5-1.2,0.6c-0.5,0-1.3-1.7-1.4-2.2c-0.2-0.6-3.2-1.1-3.9-0.7c-0.9,0.5-1.3,0.3-2.2,0c-0.8-0.6-1.3-0.9-2.3-0.8
			c-1.1,0.1-1.8-0.7-2.2,0.5c-0.1,0.3-0.6,1.5-0.9,1.4c-0.6-0.2-1.6-0.2-2-0.8c-0.3-0.4-0.8,0-1-0.4c-0.3-0.8-0.7-0.3-1.1-0.5
			c-0.6-0.4-0.4-0.6-1.2-0.8c-0.9-0.3,0.5-1-0.7-1c-0.1-0.3-0.3-0.4-0.5-0.4l0.9,210c0.8,0,1.8,0.2,2.4,0.2c0.9,0,1.7-0.3,2.5,0.1
			c1,0.5,1.8,0.3,2.7,1.2c0.9,0.9,2.2,1.4,3.5,1.4c1.1,0,2.1-1.1,3.2-0.9c1.2,0.3,1.6,0.9,2.5,1.6c1.1,0.7,3,1.4,4.3,1.3
			c0.9,0,1.7-0.1,2.6,0.2c0.7,0.3,1.4,0.9,2.1,0.9c0.4,0,1,0.8,1.4,1c0.6,0.2,2.8,1.1,3.3,1c1.1-0.3,2.3-0.6,3.4-0.9
			c1.7-0.4,2,0.3,3.7-0.7c1.2-0.8,1.9-1.1,3.2-1.9c1.2-0.8,3.3,0.2,4.4,0.5c1.5,0.4,3.5,3.5,4.8,2.7c0.7-0.4,2.1-1.5,2.9-1.5
			c0.4,0,0.6,0.5,1,0.5c0.6,0,1.2,0,1.8-0.3c1.6-0.6,2.5-0.5,3.8,0.5c0.8,0.6,2,1.2,3,1c0.7-0.2,1.3-0.7,2-0.9
			c0.6-0.1,2.2,0.4,2.8,0.6c0.7,0.3,1.3,1.5,2.3,1.8c1.2,0.3,1.8,2.5,3.7,1.4c1.2-0.7,1.7-1.4,3.2-1.4c0.6,0,1.7,0.6,2.2,0.3
			c1.1-0.7,1.7-1.9,3.1-2.3c1.3-0.3,2.3,0.4,3.6-0.7c0.9-0.7,1.3-2.1,2.3-2.5c1.9-0.9,1.9-1.5,2.9-3.3c0.8-1.6,2.4-2.8,3.9-3.7
			c0.6-0.4,1.1-0.1,1.5-0.9c0.5-1.1,0.9-2.1,1.9-2.8c0.9-0.6,1.7-0.2,2.6-0.4c1.5-0.3,2.7-1.8,4-2.4c1.3-0.5,2.8,0.3,4.2,0
			c0.8-0.2,3.2-1,4.1-1c1.3,0,2,0.5,3.4-0.2c0,0,0,0,0.1,0l-0.9-210.9c0,0,0,0,0-0.1L241.8,94.2L241.8,94.2L241.8,94.2z"/>
		<path class="st5" d="M245.3,304.3c1.3,0,1.7,0,2.9-0.6c0.8-0.5,2-1.5,2.9-1.7c0.3-0.1,0.6-0.3,0.9-0.4c0.5-0.3,1.2,0,1.8,0.1
			c1,0.1,2.9-1,3.6-0.7c0.4,0.2,0.7,0.4,1,0.5c0.7,0.2,1.2-0.4,2,0c0.8,0.5,1.8,0.8,2.8,0.8c0.5,0,1-0.3,1.5-0.6l0.5,0.9L265,303
			l0.5,0.7l0.1,0.6l2.4,0.9l1.4,2.3l2.7-0.7l4.5,0.5l1.2-1.6l1,0.7l1.3,3.3l0.6,0.4l0,0c0.5,0,0.2,0,1.3-0.4l2.8-0.2l2.5-2.1
			l1.1,1.1l0.2,2.4l1,2.1l0.7,2.5l0.5,0.2l7.8,3.9l4,0.2l3.2,0.9l4.7-0.2l0,0c0.1-0.2,0.1-0.4,0.1-0.7c0-0.5,0.2-1.2,0.1-1.6
			c-0.2-0.6,0.5-0.6,0.5-1.2c0-0.4-0.2-0.8-0.2-1.2c0-0.4,0.6-0.8,0.7-1.2c0.1-0.3-0.2-0.6-0.2-0.8c0.3-0.8,0.4-1.4,0.9-2
			c0.4-0.4,0-0.7,0.2-1.1c0.1-0.2,0.3-0.4,0.3-0.6c0.2-0.2,0.3-0.4,0.4-0.6c-0.2-0.3,0.7-0.5,0.5-1.1c-0.2-0.5-0.2-1-0.4-1.5
			c-0.2-0.4-0.2-0.9-0.3-1.3c-0.1-0.5-0.6-0.9-0.6-1.4c0-0.6,1.3-0.7,1.2-1.4c-0.2-0.1-0.7,0.1-0.8-0.1c-0.1-0.3,0.2-0.6,0.5-0.6
			c0.1-0.2-0.1-0.2-0.1-0.4c-0.1-0.2-0.3-0.6-0.2-0.7c0.1-0.3,0.6-0.3,0.5-0.7c-0.2-0.7-0.4-1.2-0.5-1.9c-0.1-0.4,0.3-0.9-0.2-1.1
			c-0.5-0.3-0.7-1-0.7-1.6c-0.1-0.5-0.1-1,0-1.5c0-0.2,0.4-1.2,0.4-1.2c0.2-0.2,0-0.6,0.2-0.9c0.1-0.2,0.2-0.1,0.4-0.1
			c0.3,0,1-1.4,1.3-0.5c0,0,0,0,0.1,0c0.1-0.3,0.1-0.7,0.3-1c0.1-0.2,0.2-0.4,0.3-0.6c0.1-0.3,0.4-0.4,0.5-0.7l2.1-2.7
			c0.3-0.3,1.7-2.4,1.9-2.5c0.1-0.5,0.8-1.1,1-1.6c0.1-0.3,0.5-1.2,0.6-1.4c-0.7-1.1-2,0.5-2.5,1.3c-0.3,0.5-0.7,0.9-1,1.5
			c-0.1,0.2-0.6,1.5-0.7,1.5c0,0.1-0.1,0.2-0.2,0.1c-0.5,0.3-0.1-1.4-0.1-1.7c0-0.8,0.6-1.3,0.7-2c0-0.2-0.3-1.2-0.1-1.2
			c0.4-0.1,0.8-0.4,0.6-0.9c-1,0-0.3-0.5,0.2-0.7c0.8-0.2,1.7-2,2.3-2.5l1.8-1.4c0.7-0.5,0.8,0.2,1.3,0.4c0,0,0.8-0.4,0.8-0.5
			c0-0.5-0.4-0.6-0.8-0.6c-0.9,0-1.3-1.1-2.5-0.8c0,0.3,1.1,0.2,1.1,0.7c0,0.3-1.3,1.3-1.7,1.5c-0.4,0.2-0.8,0.9-1.3,0.7
			c-0.4-0.1-1.9,0.8-1.5-0.6c0.1-0.4-0.4-0.6-0.2-0.8c0.1-0.1,1.2-0.4,0.8-0.7c-0.1,0.1-0.8,0.1-0.9,0c-0.2-0.1,0.2-0.9,0.3-1
			c0.1-0.2,0.7-0.7,0.7-0.7c0.9,0,1.3-0.6,2.1-1c0.5-0.2,2.8,0,2.3-0.8c-0.2-0.2-0.7-0.7-0.7-0.9c-0.1-0.4,0.6-0.4,0.5-1
			c-0.1,0-0.5,1-0.7,0.5c-0.4-0.9,1.1-1.1,1.5-1.5c0.3-0.3,0.1-0.5-0.3-0.5c-0.6,0-0.8-0.7-0.9-1.1c-0.1-0.3-0.5-0.5-0.7-0.7
			c-0.1-0.1-0.6-0.5-0.6-0.5c-0.1-0.1-0.4-0.2-0.4-0.4c0-0.4,0.4-0.6,0-1c-0.5-0.5,0-0.9-0.2-1.6c-0.1-0.6,0.2-1.6,0.9-1.6
			c0.1-0.2,0.7-0.3,0.6-0.6c-0.1-0.3,0.1-0.8,0.1-1l0,0c0,0,0.1,0,0,0.1c0.3,0.3,0.2,1,0.9,0.9c0.4-0.1,0.8-0.6,1.1-0.8
			c0.4-0.2,2-0.2,2.5-0.1c1.3,0.3,2.4,0.8,1.8,2.2c-0.2,0.5-1,0.3-1.4,0.6c-0.5,0.4-0.4,1.3-0.4,1.8c-0.2,0.7,0.8,2,0.2,2.7
			c0.4,0.5,0.7,1.3,1.3,1c0.5-0.3,0.6-0.2,0.4-0.8c-0.1-0.2-0.3-1.1,0.2-1.1c0.3,0.8,1.1,1.2,1.3,2.1c0.1,0.5-0.4,1.3,0,1.8
			c0,0,0.1,0.2,0,0.2c0,0.2-1.2,0.5-1.5,0.7c-0.2,0.2-0.3,0.5-0.5,0.7c-0.3,0.3-0.6,0.3-0.9,0.4c-0.5,0.4-2.7,0.4-2.5,1.3
			c0.1,0.5,0.8,0.6,0.6,1.3c-0.1,0.4-0.2,0.7-0.2,1.1l0,0c0.1,0,2.2-2.8,2.7-3.2c1.3-1.1,3.2-1.8,4.9-2.3l3-0.8l5.3-0.7l2.9-0.3
			c1.1-0.1,2.6-1.2,1.3,0.7c-0.6,1-1.8,1.3-2.8,1.6c0.2,0.5,2.4-0.7,2.6-1c0.4-0.4,1.2-2,1.4-2c0.1-0.4,0.4-0.7,0.4-1.2l0.9-8.6
			c-0.1-1.3,0.3-2.6,0.7-3.8c0.2-0.5,0.3-1,0.7-1.3c0.2-0.2,0.9-0.9,0.9-1.1l0,0l0,0c-0.3,0-0.9,0.4-1.4,0.4c-0.8,0-0.8-0.3-1-1
			c-0.1-0.2-0.4-1.5-0.1-1.5c0.1-0.3,1.4,0.2,1.6,0.2c-0.2-0.3-0.5-0.7-0.6-1c-0.1-0.4-0.2-0.8-0.1-1.3c0.1-0.3,0.3-0.6,0.4-0.9
			c0.2-1-0.2-2.2-0.5-3.1c-0.3-1-1.3-1.3-2-1.9c-0.7-0.7-1.3-1.5-2.3-1.8c-0.7-0.3-1.4-0.3-2.2-0.6c-0.6-0.3-1.4-1.2-2-0.8
			c-0.5,0.3-2.1,0.1-2.5-0.2c-1.2-0.9-1.2,1.1-2.4,0.7c-0.6-0.2-1.4-0.4-1.9,0.3c-0.5,0.8-1.1,0.2-1.7,1.3c-0.5,0.9-2.5,1-3.1,1.3
			c-1.2,0.6-2.3,1.6-3.7,1.9c-1.5,0.3-0.2,3-1.7,2.7c-0.9-0.2-1.5-1.8-2.5-1.8c-0.8,0-1.4-1-1.9-0.9c-0.5,0.2-0.8,0.7-0.4,1.1
			c1.1,1.5-2.6,0.6-1,2.3c0.3,0.3,1.1,0.7,1,1.2s-1.6,0.7-2.1,0.8c-1.1,0.3-1.6-0.2-2.5-0.6c-1.3-0.6-2.6,0.2-3.7-0.4
			c-1.4-0.8-2.9-1.7-4.3-2.3s-3-0.7-3.6-2.3c-0.3-0.8-1-1.7-1.3-2.4c-0.3-0.6,0-1.5-0.2-2.2c-0.3-0.8-0.9-0.9-1.6-1.2
			c-0.4-0.1-0.7-0.3-1.1-0.4c-0.1-0.2-0.4-0.3-0.5-0.5c-0.2-0.2-0.2-0.4-0.4-0.6c-0.1-0.1-0.3-0.2-0.4-0.4c-0.4-0.3,0-0.6,0-1
			c0-0.3-0.3-0.4-0.3-0.6c0-0.3,0.2-0.7,0.1-1c-0.1-0.2-0.1-0.4-0.2-0.6c-0.3-0.7-0.7-0.2-1.2-0.6c-0.5-0.3-0.8-1-0.9-1.6
			c-0.1-0.4,0.8-0.8,1-1.2h0.1c2,1.5,1.2-4.4,1.3-4.8c0.2-0.7-0.3-0.9-0.4-1.6c-0.2-0.8,0.3-1-0.7-1.2c-0.7-0.1-0.6-1.6-0.6-2.1
			s-0.3-1-0.2-1.4c0.1-0.7,1.1-0.6,0.4-1.6c-0.4-0.5-0.4-0.5-0.1-1.2c0.2-0.6,0.3-0.8,0-1.5c-0.3-0.8-0.4-1.6-0.8-2.4
			c-0.2-0.4-0.2-1.9-0.2-2.4c0-0.6,0.5-0.8,0.1-1.3c-0.7-0.8,0.7-0.7,0.5-1.5c-0.1-0.3,0.2-0.7,0.4-0.8c0.1,0-0.1,0,0-0.2
			c0.2-0.6,0.7-0.9,0.4-1.5c-0.3-0.6,0-1,0.3-1.5c0.2-0.4-0.2-0.6-0.3-0.9c-0.1-0.8-0.3-0.5-0.6-1.1c-0.1-0.3-0.1-0.8-0.1-1.1
			c0-1.1,1.1-0.6,0.8-1.9c-0.2-0.8,0.6-0.9,0.9-1.2c0.4-0.4,0.9-0.3,1.2-0.8c0.3-0.6-0.2-1.1-0.4-1.6c-0.1-0.4,0.3-0.6,0.4-0.9
			c0.3-0.5,0.3-1.1,0.6-1.5c0.2-0.3,0.5-0.2,0.6-0.4c0.2-0.3-0.1-0.6-0.1-0.9c0-0.4,0.5-0.4,0.7-0.4c0.4-0.2,0.4-1.1,0.2-1.2
			c-0.5-0.3-0.1-0.6-0.1-0.8c0-0.3-0.5-0.2-0.5-0.6c0-1.1-0.8-0.9-0.9-1.6c0-0.5,0.5-0.7,0.2-1.2c-0.5-0.8,0.5-1,0.4-1.6
			c0-0.2-0.3-0.7-0.1-1c0.3-0.4,0.5-0.1,0.5-0.9c0-0.5,0.1-0.7,0.3-1.2c0-0.2-0.4-1.3-0.5-1.6c-0.1-0.8,0.1-1.4-0.6-1.9
			s-0.1-1.1-0.7-1.4c-0.4-0.2,0-0.9-0.3-1c-0.2-0.1-0.4-0.1-0.4-0.3c0-0.3,0.1-0.6,0.1-0.8c0-0.3-0.5-0.2-0.4-0.6
			c0.1-0.5,0.1-0.5-0.2-1c-0.3-0.4-0.9-0.5-1.2-0.9c-0.4-0.4-0.9-1-0.5-1.6c0.4-0.7,0-0.7-0.3-1.3c-0.2-0.4,0.4-0.5,0.4-0.8
			c-0.1-0.5-1.1-0.5-0.9-1c0.3-0.9,0.9-0.7,0.1-1.6c-0.2-0.2,0.3-0.6,0.1-0.8c-0.2-0.4-0.7-0.4-0.6-1c0.2-0.8,0.5-0.5,0-1.2
			c-0.2-0.3-1.5-0.6-1.5-0.9c0.2-0.6,0.7-1.2-0.5-0.8c-0.6,0.2-0.6-0.2-1-0.5c-0.3-0.2-1.3-0.4-1.4-0.7c-0.3-1.1-0.7-0.5-1.5-1.2
			c-0.6-0.6-1.3-2-2.2-2.1c-1-0.1,0.5-1-0.2-1.1c-0.6-0.1-1.8,0.1-1.9-0.7c-0.1-0.5,0.7-0.6,0.6-0.9c-0.1-0.4,0-0.6-0.1-1
			c-0.1-0.3-0.5-0.1-0.6-0.3c0,0,0.1-1.3-0.2-1.5c-0.5-0.3-0.4-0.9-0.9-1c-0.4-0.1-0.4-0.2-0.4-0.7s0.2-0.9-0.1-1.3
			c-0.5-0.9-0.8-0.8-1.6-0.4c-0.6,0.3-0.5-0.4-0.7-0.7c-0.3-0.5-0.9,0.3-1.1-0.2c-0.4-0.9-1.6-0.5-1.5-1c0.1-0.2,0.5-0.4,0.5-0.6
			c0-0.4-0.4-0.4-0.4-0.8c0-0.5,0.2-0.9-0.6-0.9c-0.7,0.1-0.8-1.1-0.3-1.5c1.1-0.8-0.7-1.2-0.7-1.9c0-0.6,0.5-0.9,0.5-1.2
			c0-0.1-0.8-0.9-0.9-1c-0.3-0.2-1.2-0.2-1.5-0.1c-0.3,0-0.3-0.5-0.7-0.5c-0.6,0.1-0.4-0.5-0.7-0.8c-0.4-0.4-0.2-1.5-0.4-1.6
			c-0.6-0.3-0.5-0.7-1-1.1c-0.3-0.2,0.3-0.8,0.2-1.1c-0.2-0.4-1-0.4-1.4-0.7c-0.7-0.6-0.5-1.2-1.5-1.6c-1.1-0.4-0.8-1.5-1.6-2
			c-0.3-0.2,0.1-0.9-0.2-1.1c-0.3-0.3-0.6-0.3-0.7-0.7c0-0.1,0.2-0.3,0.1-0.4c-0.4-0.2-0.7-0.6-0.6-1c0.2-0.7,0.6,0.1,0.9,0
			c0.2-0.1,0-0.4-0.1-0.6c-0.1-0.4,0.6-0.3,0.3-0.7c-0.2-0.2-0.2-0.1-0.2-0.3l-0.1-0.1c-0.1,0-0.2,0-0.3-0.1
			c-0.3-0.6-0.1-0.6-0.8-1.1c-0.3-0.3-0.3-0.7-0.6-1c-0.4-0.5,0.2-0.2-0.1-1.1c-0.1-0.3,0.7-0.5,0.5-0.7c-0.1-0.1-0.4-0.1-0.5-0.1
			l-0.7-0.2l-0.1-0.5l-0.4-2.7l0.9-0.4l0.6,1.4l0.6-0.7l-0.3-0.8v-0.4h-0.4l-0.5-1.5l-1.1,0.5l-0.5-0.2l-0.1-0.2l-0.6-0.7
			c-0.2-0.1-0.4-0.2-0.5-0.4c0-0.2,0.1-0.4,0.3-0.6c0.4-0.5,0.2-1.1-0.5-0.8c-1.1,0.5-0.2-0.7-0.5-0.9c-0.3-0.3-0.9,0.3-1.1,0.1
			c-0.5-0.3,0.4-1.1,0.2-1.4c-0.1-0.2-0.5-0.1-0.6-0.3c-0.1-0.2,0-0.5-0.2-0.7c-0.1-0.2-0.7-0.3-0.9-0.5c-0.3-0.4-0.1-0.7-0.5-1
			c-0.4-0.4,0-0.6,0-1c0-0.3,0-1.3-0.1-1.4c-0.2-0.3-0.7,0-0.9,0.1c-0.5,0.5-0.4,0.1-0.9,0c-0.4-0.1-1.4,0-1.2-0.9
			c0.2-0.8,1,0.1,1.4-0.2c0.2-0.2-0.3-0.6-0.5-0.6c-0.4-0.1-1.1,0.2-1.3,0.1c-0.7-0.4,0.4-1.2,0.4-1.5c0-0.8-1.1-1.2-1.2-0.1
			c-0.1,0.6-0.8,0.6-0.7,0.1s0.7-0.7-0.1-0.8c-0.4,0-0.8-0.5-1-0.8c-0.3-0.4-0.3-1.1-0.9-0.6c-0.4,0.3-0.3-0.1-0.5-0.5
			c-0.3-0.7-0.6-1-1.2-0.5c-0.4,0.3-0.6,0.1-1,0.2c-0.6,0.2-0.8-1-1-0.5c-0.3,0.6-0.4,0.2-0.6-0.1h-0.8c-0.3,0.4-0.5,0.9-0.9,0.1
			c0-0.1-0.2,0.1-0.3,0.1s-0.1-0.1-0.1-0.1l0.9,210.9C243.9,304.9,244.7,304.3,245.3,304.3L245.3,304.3z"/>
	</g>
	<g>
		<path class="st6" d="M360.4,143.4l-6.6,59.5c-0.1,0.8-0.3,1.5-0.7,1.9c-0.4,0.4-1,0.6-1.9,0.6h-12.8c-0.8,0-1.5-0.2-1.9-0.7
			c-0.4-0.4-0.6-1.1-0.5-1.9l9.5-88.5c0.1-0.7,0.3-1.3,0.7-1.8c0.4-0.5,1-0.7,1.9-0.7h16.4c0.7,0,1.2,0.2,1.5,0.6s0.6,1,0.8,1.7
			l22.6,62.3l22.2-62.2c0.3-0.8,0.6-1.4,0.9-1.8s0.8-0.6,1.5-0.6h16.7c1.6,0,2.4,0.8,2.6,2.5l9.5,88.5c0.2,1.7-0.6,2.6-2.4,2.6
			h-12.8c-0.9,0-1.5-0.2-1.9-0.6c-0.4-0.4-0.6-1-0.7-1.8l-6.4-59.5l-21.4,57.8c-0.4,0.9-0.7,1.5-1,1.8s-0.9,0.5-1.5,0.5H384
			c-0.7,0-1.2-0.2-1.6-0.5s-0.7-0.9-1-1.8L360.4,143.4z"/>
		<path class="st6" d="M488.5,114.4c0.7-1.6,1.7-2.4,3.1-2.4h10.5c1.5,0,2.6,0.8,3.2,2.4l35.5,88.4c0.3,0.9,0.3,1.5,0,2
			s-0.9,0.7-1.8,0.7h-13.8c-1.5,0-2.5-0.8-3.1-2.3l-6.1-15.1h-38.5l-6,15c-0.3,0.9-0.7,1.5-1.2,1.8c-0.5,0.4-1.2,0.5-1.9,0.5h-13.8
			c-0.8,0-1.4-0.2-1.7-0.7c-0.3-0.5-0.3-1.1,0-2L488.5,114.4z M496.9,136.1l-13.4,35.7h26.7L496.9,136.1z"/>
		<path class="st6" d="M552.5,114.5c0-1.7,0.8-2.5,2.5-2.5h31.3c4,0,7.9,0.5,11.8,1.6c3.9,1.1,7.5,2.6,11,4.6s6.7,4.4,9.7,7.2
			c3,2.8,5.6,6,7.7,9.4c2.2,3.5,3.9,7.2,5.1,11.2c1.2,4,1.9,8.2,1.9,12.7c0,6.3-1.2,12.2-3.6,17.8c-2.4,5.6-5.7,10.5-9.9,14.7
			s-9.1,7.6-14.8,10.1s-11.8,3.9-18.4,4.1H555c-1.7,0-2.5-0.8-2.5-2.5V114.5z M612.8,147.1c-1.6-3.6-3.7-6.8-6.4-9.4
			c-2.7-2.7-5.9-4.8-9.6-6.4c-3.7-1.6-7.7-2.3-12.1-2.3h-13.8v59.5h13.8c4.3,0,8.3-0.8,12.1-2.3c3.7-1.6,6.9-3.7,9.6-6.4
			c2.7-2.7,4.8-5.8,6.4-9.4c1.5-3.6,2.3-7.5,2.3-11.6C615.1,154.6,614.3,150.7,612.8,147.1z"/>
		<path class="st6" d="M650.3,114.5c0-1.7,0.8-2.5,2.4-2.5h61.5c1.7,0,2.6,0.8,2.6,2.5v12.2c0,1.7-0.9,2.5-2.6,2.5h-45.6v19.1h34.7
			c0.9,0,1.6,0.2,2.1,0.6c0.5,0.4,0.8,1.1,0.8,1.9v11.9c0,1.7-0.9,2.5-2.8,2.5h-34.7v23.1h46.7c1.7,0,2.6,0.8,2.6,2.5v12.1
			c0,1.7-0.9,2.5-2.6,2.5h-62.7c-1.6,0-2.4-0.8-2.4-2.5V114.5z"/>
		<path class="st6" d="M772.5,114.6c0-1.7,0.8-2.6,2.5-2.6h13.3c1.7,0,2.5,0.9,2.5,2.6v88.2c0,1.7-0.8,2.6-2.5,2.6H775
			c-1.7,0-2.5-0.9-2.5-2.6V114.6z"/>
		<path class="st6" d="M828.8,139.2v63.7c0,1.7-0.9,2.6-2.7,2.6h-12.6c-1.6,0-2.4-0.9-2.4-2.6v-88.4c0-0.6,0.2-1.2,0.6-1.7
			c0.4-0.5,1-0.8,1.8-0.8h14.7c1.4,0,2.7,0.8,3.7,2.4l42.2,60.8v-60.6c0-0.7,0.2-1.3,0.6-1.8c0.4-0.5,1.1-0.7,1.9-0.7h12.5
			c0.6,0,1.2,0.2,1.8,0.7s0.9,1.1,0.9,1.8V203c0,1.7-0.9,2.6-2.7,2.6H876c-0.7,0-1.4-0.2-2-0.5s-1.2-0.9-1.8-1.8L828.8,139.2z"/>
	</g>
	<g>
		<g>
			<g>
				<path class="st7" d="M60.4,30.5c0-0.5,0.1-0.9,0.4-1.1c0.3-0.2,0.6-0.4,1.1-0.4h21.9c2.5,0,4.9,0.5,7,1.5s4,2.3,5.5,4
					s2.7,3.6,3.6,5.7c0.9,2.2,1.3,4.4,1.3,6.7s-0.4,4.5-1.3,6.6c-0.8,2.1-2,4-3.5,5.6S93.1,62,91,63s-4.4,1.4-6.9,1.4H71.3v18.7
					c0,1-0.5,1.5-1.5,1.5h-8c-1,0-1.4-0.5-1.4-1.5V30.5z M71.3,38.6v16.6h10.2c1.3,0,2.4-0.2,3.4-0.6c1-0.4,1.9-1,2.7-1.7
					c0.7-0.7,1.3-1.6,1.7-2.6c0.4-1,0.6-2.1,0.6-3.3c0-1.1-0.2-2.2-0.6-3.2s-1-1.9-1.7-2.7s-1.6-1.4-2.7-1.8c-1-0.4-2.2-0.7-3.4-0.7
					H71.3z"/>
				<path class="st7" d="M110,30.5c0-0.4,0.1-0.7,0.3-1c0.2-0.3,0.6-0.4,1.1-0.4h23.9c2.6,0,5,0.5,7.1,1.5c2.2,1,4,2.4,5.6,4.1
					s2.8,3.6,3.7,5.8s1.3,4.5,1.3,6.9c0,1.6-0.2,3.1-0.7,4.6s-1.1,2.9-2,4.3c-0.8,1.3-1.9,2.6-3,3.7c-1.2,1.1-2.4,2.1-3.9,2.9
					l10.2,20.3c0.2,0.4,0.2,0.7,0,1.1s-0.5,0.5-1,0.5H143c-0.4,0-0.7-0.1-1-0.3c-0.2-0.2-0.5-0.5-0.8-1.1l-8.9-18h-11.4v17.8
					c0,1-0.5,1.5-1.5,1.5h-8c-1,0-1.4-0.5-1.4-1.5V30.5z M120.9,38.3v17.6h11.7c1.3,0,2.5-0.2,3.6-0.7s2.1-1.1,2.9-1.9
					c0.8-0.8,1.4-1.7,1.9-2.8s0.7-2.2,0.7-3.4s-0.2-2.3-0.7-3.4c-0.5-1.1-1.1-2-1.9-2.8c-0.8-0.8-1.8-1.4-2.9-1.9
					c-1.1-0.5-2.3-0.7-3.6-0.7C132.6,38.3,120.9,38.3,120.9,38.3z"/>
				<path class="st7" d="M162.1,45.7c1.5-3.5,3.6-6.5,6.2-9.1c2.6-2.6,5.7-4.6,9.1-6.1c3.5-1.5,7.2-2.2,11.2-2.2s7.7,0.8,11.2,2.2
					c3.5,1.5,6.5,3.5,9.1,6.1s4.6,5.6,6.1,9.1s2.2,7.2,2.2,11.2s-0.7,7.7-2.2,11.2s-3.5,6.5-6.1,9.1s-5.6,4.6-9.1,6.1
					s-7.2,2.2-11.2,2.2s-7.7-0.7-11.2-2.2s-6.5-3.5-9.1-6.1s-4.7-5.6-6.2-9.1s-2.2-7.2-2.2-11.2C159.9,52.9,160.6,49.2,162.1,45.7z
					 M172.2,64c0.9,2.2,2.1,4.1,3.7,5.7c1.6,1.6,3.5,2.9,5.6,3.9c2.2,0.9,4.5,1.4,7,1.4s4.9-0.5,7-1.4c2.2-0.9,4-2.2,5.6-3.9
					c1.6-1.6,2.8-3.5,3.7-5.7s1.3-4.6,1.3-7.1s-0.4-4.9-1.3-7.1c-0.9-2.2-2.1-4.1-3.7-5.8c-1.6-1.6-3.4-2.9-5.6-3.9
					c-2.2-0.9-4.5-1.4-7-1.4s-4.9,0.5-7,1.4c-2.2,0.9-4,2.2-5.6,3.9c-1.6,1.6-2.8,3.6-3.7,5.8s-1.3,4.6-1.3,7.1
					C170.9,59.4,171.3,61.8,172.2,64z"/>
				<path class="st7" d="M237.6,62.6c0,2.1,0.3,4,1,5.7c0.7,1.6,1.6,3,2.7,4.1c1.1,1.1,2.5,2,4,2.5c1.5,0.6,3.1,0.9,4.8,0.9
					s3.3-0.3,4.8-0.9c1.5-0.6,2.8-1.5,4-2.7c1.1-1.1,2-2.5,2.7-4.1s1-3.4,1-5.4V30.6c0-0.4,0.1-0.8,0.4-1.1c0.3-0.3,0.7-0.4,1.2-0.4
					h7.8c0.5,0,0.9,0.2,1.2,0.5c0.3,0.3,0.4,0.7,0.4,1.1v32c0,4-0.6,7.5-1.9,10.4s-3,5.3-5.1,7.2c-2.1,1.9-4.6,3.3-7.5,4.2
					c-2.8,0.9-5.8,1.3-9,1.3s-6.2-0.5-9-1.4s-5.3-2.3-7.5-4.2c-2.1-1.9-3.8-4.3-5.1-7.2c-1.3-2.9-1.9-6.4-1.9-10.3v-32
					c0-0.4,0.1-0.8,0.4-1.1c0.2-0.3,0.6-0.4,1-0.4h8.2c0.6,0,1,0.1,1.2,0.4s0.3,0.7,0.3,1.1v31.9H237.6z"/>
				<path class="st7" d="M284,30.5c0-1,0.5-1.5,1.5-1.5h18.7c2.4,0,4.7,0.3,7,1s4.5,1.6,6.6,2.8c2.1,1.2,4,2.6,5.8,4.3
					s3.3,3.6,4.6,5.6c1.3,2.1,2.3,4.3,3.1,6.7c0.7,2.4,1.1,4.9,1.1,7.5c0,3.8-0.7,7.3-2.2,10.6c-1.4,3.3-3.4,6.2-5.9,8.7
					s-5.4,4.5-8.8,6s-7,2.3-11,2.5h-19c-1,0-1.5-0.5-1.5-1.5L284,30.5L284,30.5z M320,50c-0.9-2.2-2.2-4-3.8-5.6s-3.5-2.9-5.7-3.8
					c-2.2-0.9-4.6-1.4-7.2-1.4H295v35.5h8.2c2.6,0,5-0.5,7.2-1.4s4.1-2.2,5.7-3.8c1.6-1.6,2.9-3.5,3.8-5.6c0.9-2.2,1.4-4.5,1.4-6.9
					C321.4,54.4,320.9,52.1,320,50z"/>
				<path class="st7" d="M362.2,30.5c0-1,0.5-1.5,1.5-1.5h40.2c1,0,1.4,0.5,1.4,1.5v7.1c0,1-0.5,1.5-1.4,1.5h-14.8v44.2
					c0,1-0.5,1.5-1.5,1.5h-8.1c-1,0-1.5-0.5-1.5-1.5V39.1h-14.4c-1,0-1.5-0.5-1.5-1.5L362.2,30.5L362.2,30.5z"/>
				<path class="st7" d="M409.9,45.7c1.5-3.5,3.6-6.5,6.2-9.1c2.6-2.6,5.7-4.6,9.1-6.1c3.5-1.5,7.2-2.2,11.2-2.2s7.7,0.8,11.2,2.2
					c3.5,1.5,6.5,3.5,9.1,6.1s4.6,5.6,6.1,9.1s2.2,7.2,2.2,11.2s-0.7,7.7-2.2,11.2s-3.5,6.5-6.1,9.1s-5.6,4.6-9.1,6.1
					s-7.2,2.2-11.2,2.2s-7.7-0.7-11.2-2.2s-6.5-3.5-9.1-6.1s-4.7-5.6-6.2-9.1s-2.2-7.2-2.2-11.2C407.6,52.9,408.4,49.2,409.9,45.7z
					 M419.9,64c0.9,2.2,2.1,4.1,3.7,5.7s3.5,2.9,5.6,3.9c2.2,0.9,4.5,1.4,7,1.4s4.9-0.5,7-1.4c2.2-0.9,4-2.2,5.6-3.9
					c1.6-1.6,2.8-3.5,3.7-5.7c0.9-2.2,1.3-4.6,1.3-7.1s-0.4-4.9-1.3-7.1c-0.9-2.2-2.1-4.1-3.7-5.8c-1.6-1.6-3.4-2.9-5.6-3.9
					c-2.2-0.9-4.5-1.4-7-1.4s-4.9,0.5-7,1.4c-2.2,0.9-4,2.2-5.6,3.9c-1.6,1.6-2.8,3.6-3.7,5.8c-0.9,2.2-1.3,4.6-1.3,7.1
					C418.6,59.4,419,61.8,419.9,64z"/>
				<path class="st7" d="M498.3,30.5c0-1,0.5-1.5,1.4-1.5h24.2c2.1,0,4.1,0.4,6,1.2c1.9,0.8,3.5,1.9,4.8,3.3c1.4,1.4,2.4,3,3.2,4.9
					s1.2,3.9,1.2,6.1c0,2.1-0.4,4.1-1.1,5.9c-0.7,1.8-1.8,3.3-3.2,4.5c1.1,0.7,2,1.6,2.9,2.5c0.8,1,1.5,2.1,2.2,3.2
					c0.6,1.2,1.1,2.4,1.4,3.8c0.3,1.3,0.5,2.7,0.5,4.1c0,2.2-0.4,4.2-1.2,6.2s-1.9,3.7-3.3,5.2c-1.4,1.5-3,2.7-4.8,3.5
					c-1.9,0.9-3.8,1.3-6,1.3h-26.7c-1,0-1.4-0.5-1.4-1.5V30.5H498.3z M509.2,38.1v13.6H521c2.2,0,3.9-0.6,5.3-1.8c1.3-1.2,2-2.9,2-5
					c0-1-0.2-1.9-0.5-2.8c-0.3-0.8-0.8-1.5-1.4-2.1c-0.6-0.6-1.4-1-2.3-1.4c-0.9-0.3-1.9-0.5-2.9-0.5H509.2z M509.2,60.3v15.3h14.2
					c1.1,0,2.2-0.2,3.1-0.7c0.9-0.4,1.6-1,2.2-1.7c0.6-0.7,1-1.5,1.3-2.4s0.5-1.8,0.5-2.7c0-1.1-0.2-2.2-0.6-3.1
					c-0.4-1-0.9-1.8-1.6-2.5c-0.7-0.7-1.4-1.3-2.3-1.7c-0.9-0.4-1.8-0.6-2.7-0.6L509.2,60.3L509.2,60.3z"/>
				<path class="st7" d="M550.2,30.5c0-1,0.5-1.5,1.4-1.5h36.7c1,0,1.5,0.5,1.5,1.5v7.3c0,1-0.5,1.5-1.5,1.5h-27.2v11.4h20.7
					c0.5,0,0.9,0.1,1.2,0.4c0.3,0.2,0.4,0.6,0.4,1.2v7.1c0,1-0.6,1.5-1.7,1.5H561v13.8h27.9c1,0,1.6,0.5,1.6,1.5v7.2
					c0,1-0.5,1.5-1.6,1.5h-37.4c-1,0-1.4-0.5-1.4-1.5L550.2,30.5L550.2,30.5z"/>
			</g>
			<g>
				<path class="st8" d="M60.4,30.5c0-0.5,0.1-0.9,0.4-1.1c0.3-0.2,0.6-0.4,1.1-0.4h21.9c2.5,0,4.9,0.5,7,1.5s4,2.3,5.5,4
					s2.7,3.6,3.6,5.7c0.9,2.2,1.3,4.4,1.3,6.7s-0.4,4.5-1.3,6.6c-0.8,2.1-2,4-3.5,5.6S93.1,62,91,63s-4.4,1.4-6.9,1.4H71.3v18.7
					c0,1-0.5,1.5-1.5,1.5h-8c-1,0-1.4-0.5-1.4-1.5V30.5z M71.3,38.6v16.6h10.2c1.3,0,2.4-0.2,3.4-0.6c1-0.4,1.9-1,2.7-1.7
					c0.7-0.7,1.3-1.6,1.7-2.6c0.4-1,0.6-2.1,0.6-3.3c0-1.1-0.2-2.2-0.6-3.2s-1-1.9-1.7-2.7s-1.6-1.4-2.7-1.8c-1-0.4-2.2-0.7-3.4-0.7
					H71.3z"/>
				<path class="st8" d="M110,30.5c0-0.4,0.1-0.7,0.3-1c0.2-0.3,0.6-0.4,1.1-0.4h23.9c2.6,0,5,0.5,7.1,1.5c2.2,1,4,2.4,5.6,4.1
					s2.8,3.6,3.7,5.8s1.3,4.5,1.3,6.9c0,1.6-0.2,3.1-0.7,4.6s-1.1,2.9-2,4.3c-0.8,1.3-1.9,2.6-3,3.7c-1.2,1.1-2.4,2.1-3.9,2.9
					l10.2,20.3c0.2,0.4,0.2,0.7,0,1.1s-0.5,0.5-1,0.5H143c-0.4,0-0.7-0.1-1-0.3c-0.2-0.2-0.5-0.5-0.8-1.1l-8.9-18h-11.4v17.8
					c0,1-0.5,1.5-1.5,1.5h-8c-1,0-1.4-0.5-1.4-1.5V30.5z M120.9,38.3v17.6h11.7c1.3,0,2.5-0.2,3.6-0.7s2.1-1.1,2.9-1.9
					c0.8-0.8,1.4-1.7,1.9-2.8s0.7-2.2,0.7-3.4s-0.2-2.3-0.7-3.4c-0.5-1.1-1.1-2-1.9-2.8c-0.8-0.8-1.8-1.4-2.9-1.9
					c-1.1-0.5-2.3-0.7-3.6-0.7C132.6,38.3,120.9,38.3,120.9,38.3z"/>
				<path class="st8" d="M162.1,45.7c1.5-3.5,3.6-6.5,6.2-9.1c2.6-2.6,5.7-4.6,9.1-6.1c3.5-1.5,7.2-2.2,11.2-2.2s7.7,0.8,11.2,2.2
					c3.5,1.5,6.5,3.5,9.1,6.1s4.6,5.6,6.1,9.1s2.2,7.2,2.2,11.2s-0.7,7.7-2.2,11.2s-3.5,6.5-6.1,9.1s-5.6,4.6-9.1,6.1
					s-7.2,2.2-11.2,2.2s-7.7-0.7-11.2-2.2s-6.5-3.5-9.1-6.1s-4.7-5.6-6.2-9.1s-2.2-7.2-2.2-11.2C159.9,52.9,160.6,49.2,162.1,45.7z
					 M172.2,64c0.9,2.2,2.1,4.1,3.7,5.7c1.6,1.6,3.5,2.9,5.6,3.9c2.2,0.9,4.5,1.4,7,1.4s4.9-0.5,7-1.4c2.2-0.9,4-2.2,5.6-3.9
					c1.6-1.6,2.8-3.5,3.7-5.7s1.3-4.6,1.3-7.1s-0.4-4.9-1.3-7.1c-0.9-2.2-2.1-4.1-3.7-5.8c-1.6-1.6-3.4-2.9-5.6-3.9
					c-2.2-0.9-4.5-1.4-7-1.4s-4.9,0.5-7,1.4c-2.2,0.9-4,2.2-5.6,3.9c-1.6,1.6-2.8,3.6-3.7,5.8s-1.3,4.6-1.3,7.1
					C170.9,59.4,171.3,61.8,172.2,64z"/>
				<path class="st8" d="M237.6,62.6c0,2.1,0.3,4,1,5.7c0.7,1.6,1.6,3,2.7,4.1c1.1,1.1,2.5,2,4,2.5c1.5,0.6,3.1,0.9,4.8,0.9
					s3.3-0.3,4.8-0.9c1.5-0.6,2.8-1.5,4-2.7c1.1-1.1,2-2.5,2.7-4.1s1-3.4,1-5.4V30.6c0-0.4,0.1-0.8,0.4-1.1c0.3-0.3,0.7-0.4,1.2-0.4
					h7.8c0.5,0,0.9,0.2,1.2,0.5c0.3,0.3,0.4,0.7,0.4,1.1v32c0,4-0.6,7.5-1.9,10.4s-3,5.3-5.1,7.2c-2.1,1.9-4.6,3.3-7.5,4.2
					c-2.8,0.9-5.8,1.3-9,1.3s-6.2-0.5-9-1.4s-5.3-2.3-7.5-4.2c-2.1-1.9-3.8-4.3-5.1-7.2c-1.3-2.9-1.9-6.4-1.9-10.3v-32
					c0-0.4,0.1-0.8,0.4-1.1c0.2-0.3,0.6-0.4,1-0.4h8.2c0.6,0,1,0.1,1.2,0.4s0.3,0.7,0.3,1.1v31.9H237.6z"/>
				<path class="st8" d="M284,30.5c0-1,0.5-1.5,1.5-1.5h18.7c2.4,0,4.7,0.3,7,1s4.5,1.6,6.6,2.8c2.1,1.2,4,2.6,5.8,4.3
					s3.3,3.6,4.6,5.6c1.3,2.1,2.3,4.3,3.1,6.7c0.7,2.4,1.1,4.9,1.1,7.5c0,3.8-0.7,7.3-2.2,10.6c-1.4,3.3-3.4,6.2-5.9,8.7
					s-5.4,4.5-8.8,6s-7,2.3-11,2.5h-19c-1,0-1.5-0.5-1.5-1.5L284,30.5L284,30.5z M320,50c-0.9-2.2-2.2-4-3.8-5.6s-3.5-2.9-5.7-3.8
					c-2.2-0.9-4.6-1.4-7.2-1.4H295v35.5h8.2c2.6,0,5-0.5,7.2-1.4s4.1-2.2,5.7-3.8c1.6-1.6,2.9-3.5,3.8-5.6c0.9-2.2,1.4-4.5,1.4-6.9
					C321.4,54.4,320.9,52.1,320,50z"/>
				<path class="st8" d="M362.2,30.5c0-1,0.5-1.5,1.5-1.5h40.2c1,0,1.4,0.5,1.4,1.5v7.1c0,1-0.5,1.5-1.4,1.5h-14.8v44.2
					c0,1-0.5,1.5-1.5,1.5h-8.1c-1,0-1.5-0.5-1.5-1.5V39.1h-14.4c-1,0-1.5-0.5-1.5-1.5L362.2,30.5L362.2,30.5z"/>
				<path class="st8" d="M409.9,45.7c1.5-3.5,3.6-6.5,6.2-9.1c2.6-2.6,5.7-4.6,9.1-6.1c3.5-1.5,7.2-2.2,11.2-2.2s7.7,0.8,11.2,2.2
					c3.5,1.5,6.5,3.5,9.1,6.1s4.6,5.6,6.1,9.1s2.2,7.2,2.2,11.2s-0.7,7.7-2.2,11.2s-3.5,6.5-6.1,9.1s-5.6,4.6-9.1,6.1
					s-7.2,2.2-11.2,2.2s-7.7-0.7-11.2-2.2s-6.5-3.5-9.1-6.1s-4.7-5.6-6.2-9.1s-2.2-7.2-2.2-11.2C407.6,52.9,408.4,49.2,409.9,45.7z
					 M419.9,64c0.9,2.2,2.1,4.1,3.7,5.7s3.5,2.9,5.6,3.9c2.2,0.9,4.5,1.4,7,1.4s4.9-0.5,7-1.4c2.2-0.9,4-2.2,5.6-3.9
					c1.6-1.6,2.8-3.5,3.7-5.7c0.9-2.2,1.3-4.6,1.3-7.1s-0.4-4.9-1.3-7.1c-0.9-2.2-2.1-4.1-3.7-5.8c-1.6-1.6-3.4-2.9-5.6-3.9
					c-2.2-0.9-4.5-1.4-7-1.4s-4.9,0.5-7,1.4c-2.2,0.9-4,2.2-5.6,3.9c-1.6,1.6-2.8,3.6-3.7,5.8c-0.9,2.2-1.3,4.6-1.3,7.1
					C418.6,59.4,419,61.8,419.9,64z"/>
				<path class="st8" d="M498.3,30.5c0-1,0.5-1.5,1.4-1.5h24.2c2.1,0,4.1,0.4,6,1.2c1.9,0.8,3.5,1.9,4.8,3.3c1.4,1.4,2.4,3,3.2,4.9
					s1.2,3.9,1.2,6.1c0,2.1-0.4,4.1-1.1,5.9c-0.7,1.8-1.8,3.3-3.2,4.5c1.1,0.7,2,1.6,2.9,2.5c0.8,1,1.5,2.1,2.2,3.2
					c0.6,1.2,1.1,2.4,1.4,3.8c0.3,1.3,0.5,2.7,0.5,4.1c0,2.2-0.4,4.2-1.2,6.2s-1.9,3.7-3.3,5.2c-1.4,1.5-3,2.7-4.8,3.5
					c-1.9,0.9-3.8,1.3-6,1.3h-26.7c-1,0-1.4-0.5-1.4-1.5V30.5H498.3z M509.2,38.1v13.6H521c2.2,0,3.9-0.6,5.3-1.8c1.3-1.2,2-2.9,2-5
					c0-1-0.2-1.9-0.5-2.8c-0.3-0.8-0.8-1.5-1.4-2.1c-0.6-0.6-1.4-1-2.3-1.4c-0.9-0.3-1.9-0.5-2.9-0.5H509.2z M509.2,60.3v15.3h14.2
					c1.1,0,2.2-0.2,3.1-0.7c0.9-0.4,1.6-1,2.2-1.7c0.6-0.7,1-1.5,1.3-2.4s0.5-1.8,0.5-2.7c0-1.1-0.2-2.2-0.6-3.1
					c-0.4-1-0.9-1.8-1.6-2.5c-0.7-0.7-1.4-1.3-2.3-1.7c-0.9-0.4-1.8-0.6-2.7-0.6L509.2,60.3L509.2,60.3z"/>
				<path class="st8" d="M550.2,30.5c0-1,0.5-1.5,1.4-1.5h36.7c1,0,1.5,0.5,1.5,1.5v7.3c0,1-0.5,1.5-1.5,1.5h-27.2v11.4h20.7
					c0.5,0,0.9,0.1,1.2,0.4c0.3,0.2,0.4,0.6,0.4,1.2v7.1c0,1-0.6,1.5-1.7,1.5H561v13.8h27.9c1,0,1.6,0.5,1.6,1.5v7.2
					c0,1-0.5,1.5-1.6,1.5h-37.4c-1,0-1.4-0.5-1.4-1.5L550.2,30.5L550.2,30.5z"/>
			</g>
		</g>
	</g>
	<g class="st0">
		<path class="st9" d="M363.8,240.6c0-0.6,0.2-1.1,0.5-1.5s0.9-0.7,1.6-0.7h35c3.8,0,7.3,0.7,10.4,2.2c3.2,1.5,5.9,3.5,8.2,6
			c2.3,2.5,4.1,5.3,5.4,8.6c1.3,3.2,1.9,6.6,1.9,10.1c0,2.3-0.3,4.6-1,6.8c-0.7,2.2-1.6,4.3-2.9,6.3c-1.2,2-2.7,3.8-4.4,5.4
			c-1.7,1.6-3.6,3.1-5.7,4.3l15,29.8c0.3,0.5,0.3,1.1,0,1.6s-0.7,0.8-1.4,0.8h-14.2c-0.6,0-1.1-0.1-1.5-0.4s-0.7-0.8-1.1-1.5
			l-13.1-26.3h-16.7V318c0,1.5-0.7,2.2-2.2,2.2h-11.8c-1.4,0-2.1-0.7-2.1-2.2v-77.4H363.8z M379.9,252v25.8H397c1.9,0,3.7-0.3,5.3-1
			c1.6-0.7,3.1-1.6,4.2-2.8c1.2-1.2,2.1-2.5,2.8-4.1c0.7-1.6,1-3.2,1-5s-0.3-3.4-1-5s-1.6-2.9-2.8-4.1c-1.2-1.2-2.6-2.1-4.2-2.8
			s-3.4-1-5.3-1L379.9,252L379.9,252z"/>
		<path class="st9" d="M440.3,262.9c2.2-5.1,5.2-9.6,9-13.4c3.8-3.8,8.3-6.8,13.4-9s10.6-3.3,16.4-3.3s11.3,1.1,16.4,3.3
			s9.5,5.2,13.3,9c3.8,3.8,6.8,8.3,8.9,13.4c2.2,5.1,3.3,10.6,3.3,16.4s-1.1,11.3-3.3,16.4s-5.2,9.5-8.9,13.3
			c-3.8,3.8-8.2,6.8-13.3,9c-5.1,2.2-10.6,3.3-16.4,3.3s-11.3-1.1-16.4-3.3c-5.1-2.2-9.6-5.2-13.4-9s-6.8-8.2-9-13.3
			c-2.2-5.1-3.3-10.6-3.3-16.4S438.1,268,440.3,262.9z M455.1,289.6c1.3,3.2,3.1,6,5.5,8.4c2.3,2.4,5.1,4.3,8.2,5.7
			c3.2,1.4,6.6,2.1,10.3,2.1c3.7,0,7.1-0.7,10.3-2.1s5.9-3.3,8.2-5.7c2.3-2.4,4.1-5.2,5.4-8.4c1.3-3.2,2-6.7,2-10.4
			c0-3.7-0.7-7.2-2-10.4c-1.3-3.2-3.1-6.1-5.4-8.5s-5-4.3-8.2-5.7c-3.2-1.4-6.6-2.1-10.3-2.1c-3.7,0-7.1,0.7-10.3,2.1
			c-3.2,1.4-5.9,3.3-8.2,5.7c-2.3,2.4-4.2,5.2-5.5,8.5c-1.3,3.2-2,6.7-2,10.4S453.8,286.4,455.1,289.6z"/>
		<path class="st9" d="M553.4,265.9l-5.8,52.1c-0.1,0.7-0.3,1.3-0.6,1.6c-0.3,0.4-0.9,0.5-1.6,0.5h-11.2c-0.7,0-1.3-0.2-1.7-0.6
			s-0.5-0.9-0.5-1.7l8.3-77.4c0.1-0.7,0.3-1.2,0.6-1.6c0.3-0.4,0.9-0.6,1.7-0.6H557c0.6,0,1,0.2,1.3,0.5c0.2,0.3,0.5,0.8,0.7,1.5
			l19.7,54.5l19.4-54.4c0.3-0.7,0.5-1.2,0.8-1.5s0.7-0.5,1.3-0.5h14.6c1.4,0,2.1,0.7,2.2,2.2l8.3,77.4c0.2,1.5-0.5,2.2-2.1,2.2H612
			c-0.8,0-1.3-0.2-1.6-0.5s-0.5-0.9-0.6-1.6l-5.6-52.1l-18.8,50.5c-0.3,0.8-0.6,1.3-0.9,1.6c-0.3,0.3-0.7,0.4-1.3,0.4H574
			c-0.6,0-1.1-0.1-1.4-0.4c-0.3-0.3-0.6-0.8-0.9-1.6L553.4,265.9z"/>
		<path class="st9" d="M665.5,240.5c0.6-1.4,1.5-2.1,2.8-2.1h9.2c1.3,0,2.2,0.7,2.8,2.1l31,77.3c0.3,0.8,0.3,1.3,0,1.7
			c-0.3,0.4-0.8,0.6-1.5,0.6h-12c-1.3,0-2.2-0.7-2.7-2l-5.3-13.2h-33.7l-5.3,13.1c-0.3,0.8-0.6,1.3-1.1,1.6c-0.5,0.3-1,0.5-1.7,0.5
			h-12c-0.7,0-1.2-0.2-1.5-0.6s-0.3-1,0-1.7L665.5,240.5z M672.8,259.5L661,290.7h23.3L672.8,259.5z"/>
		<path class="st9" d="M737.5,262.2v55.7c0,1.5-0.8,2.2-2.4,2.2h-11c-1.4,0-2.1-0.7-2.1-2.2v-77.4c0-0.5,0.2-1,0.5-1.5
			s0.9-0.7,1.6-0.7H737c1.3,0,2.4,0.7,3.3,2.1l36.9,53.2v-53.1c0-0.6,0.2-1.1,0.5-1.5c0.4-0.4,0.9-0.6,1.7-0.6h11
			c0.5,0,1.1,0.2,1.6,0.6c0.5,0.4,0.8,0.9,0.8,1.6V318c0,1.5-0.8,2.2-2.4,2.2h-11.6c-0.6,0-1.2-0.2-1.7-0.5s-1.1-0.8-1.5-1.5
			L737.5,262.2z"/>
		<path class="st9" d="M810.7,240.7c0-1.5,0.7-2.3,2.2-2.3h11.6c1.5,0,2.2,0.8,2.2,2.3v77.2c0,1.5-0.7,2.2-2.2,2.2h-11.6
			c-1.5,0-2.2-0.7-2.2-2.2V240.7z"/>
		<path class="st9" d="M870.5,240.5c0.6-1.4,1.5-2.1,2.8-2.1h9.2c1.3,0,2.2,0.7,2.8,2.1l31,77.3c0.3,0.8,0.3,1.3,0,1.7
			c-0.3,0.4-0.8,0.6-1.5,0.6h-12c-1.3,0-2.2-0.7-2.7-2l-5.3-13.2h-33.7l-5.3,13.1c-0.3,0.8-0.6,1.3-1.1,1.6c-0.5,0.3-1,0.5-1.7,0.5
			h-12c-0.7,0-1.2-0.2-1.5-0.6s-0.3-1,0-1.7L870.5,240.5z M877.9,259.5l-11.8,31.2h23.3L877.9,259.5z"/>
	</g>
	<g>
		<g class="st10">
			<path class="st6" d="M333.6,230.6c0-0.6,0.2-1.1,0.5-1.4c0.3-0.3,0.8-0.5,1.3-0.5h27.6c3.2,0,6.1,0.6,8.8,1.9
				c2.7,1.3,5,2.9,6.9,5c1.9,2.1,3.5,4.5,4.5,7.2c1.1,2.7,1.6,5.6,1.6,8.5c0,2.9-0.5,5.7-1.6,8.3c-1.1,2.7-2.6,5-4.5,7.1
				c-1.9,2-4.2,3.7-6.9,4.9s-5.6,1.8-8.7,1.8h-15.9v23.7c0,1.3-0.6,1.9-1.9,1.9h-10.1c-1.2,0-1.8-0.6-1.8-1.9V230.6z M347.4,240.8
				v21h12.8c1.6,0,3-0.3,4.3-0.8c1.3-0.5,2.4-1.3,3.4-2.2s1.7-2,2.2-3.3c0.5-1.3,0.8-2.6,0.8-4.1c0-1.4-0.3-2.8-0.8-4.1
				c-0.5-1.3-1.2-2.4-2.2-3.4c-0.9-1-2.1-1.7-3.4-2.3c-1.3-0.6-2.7-0.8-4.3-0.8H347.4z"/>
			<path class="st6" d="M396.3,230.6c0-1.3,0.6-1.9,1.8-1.9h46.3c1.3,0,1.9,0.6,1.9,1.9v9.2c0,1.3-0.6,1.9-1.9,1.9h-34.3v14.4h26.2
				c0.7,0,1.2,0.2,1.6,0.5c0.4,0.3,0.6,0.8,0.6,1.5v9c0,1.3-0.7,1.9-2.1,1.9h-26.2v17.4h35.2c1.3,0,2,0.6,2,1.9v9.1
				c0,1.3-0.7,1.9-2,1.9h-47.2c-1.2,0-1.8-0.6-1.8-1.9V230.6z"/>
			<path class="st6" d="M454.1,230.6c0-1.3,0.6-1.9,1.9-1.9h50.7c1.2,0,1.8,0.6,1.8,1.9v8.9c0,1.3-0.6,1.9-1.8,1.9H488v55.8
				c0,1.3-0.6,1.9-1.9,1.9h-10.2c-1.3,0-1.9-0.6-1.9-1.9v-55.8h-18.1c-1.3,0-1.9-0.6-1.9-1.9V230.6z"/>
			<path class="st6" d="M519.7,230.6c0-0.5,0.1-0.9,0.4-1.3c0.3-0.4,0.7-0.6,1.4-0.6h30.1c3.3,0,6.3,0.6,9,1.9s5.1,3,7.1,5.1
				c2,2.1,3.5,4.6,4.6,7.4c1.1,2.8,1.7,5.7,1.7,8.7c0,2-0.3,3.9-0.9,5.8s-1.4,3.7-2.5,5.4c-1.1,1.7-2.3,3.3-3.8,4.7
				c-1.5,1.4-3.1,2.7-4.9,3.7l12.9,25.6c0.2,0.5,0.2,0.9,0,1.4c-0.2,0.4-0.6,0.7-1.2,0.7h-12.3c-0.5,0-0.9-0.1-1.3-0.3
				c-0.3-0.2-0.6-0.7-1-1.3l-11.3-22.7h-14.4v22.5c0,1.3-0.6,1.9-1.9,1.9h-10.1c-1.2,0-1.8-0.6-1.8-1.9V230.6z M533.5,240.5v22.2
				h14.8c1.6,0,3.2-0.3,4.6-0.9c1.4-0.6,2.6-1.4,3.7-2.4c1-1,1.8-2.2,2.4-3.5c0.6-1.3,0.9-2.8,0.9-4.3c0-1.5-0.3-2.9-0.9-4.3
				c-0.6-1.3-1.4-2.5-2.4-3.5c-1-1-2.2-1.8-3.7-2.4c-1.4-0.6-2.9-0.9-4.6-0.9H533.5z"/>
			<path class="st6" d="M585.5,249.8c1.9-4.4,4.5-8.2,7.8-11.5s7.1-5.9,11.5-7.8s9.1-2.8,14.1-2.8c5,0,9.7,0.9,14.1,2.8
				s8.2,4.5,11.5,7.8c3.3,3.3,5.8,7.1,7.7,11.5s2.8,9.1,2.8,14.1s-0.9,9.7-2.8,14.1s-4.4,8.2-7.7,11.5c-3.3,3.3-7.1,5.8-11.5,7.7
				c-4.4,1.9-9.1,2.8-14.1,2.8c-5,0-9.7-0.9-14.1-2.8c-4.4-1.9-8.2-4.5-11.5-7.7c-3.3-3.3-5.9-7.1-7.8-11.5s-2.8-9.1-2.8-14.1
				S583.6,254.2,585.5,249.8z M598.3,272.9c1.1,2.8,2.7,5.2,4.7,7.3c2,2.1,4.4,3.7,7.1,4.9s5.7,1.8,8.9,1.8c3.2,0,6.2-0.6,8.9-1.8
				s5.1-2.8,7.1-4.9c2-2.1,3.5-4.5,4.7-7.3c1.1-2.8,1.7-5.8,1.7-9c0-3.2-0.6-6.2-1.7-9c-1.1-2.8-2.7-5.2-4.7-7.3
				c-2-2.1-4.3-3.7-7.1-4.9s-5.7-1.8-8.9-1.8c-3.2,0-6.2,0.6-8.9,1.8s-5.1,2.8-7.1,4.9c-2,2.1-3.6,4.5-4.7,7.3
				c-1.1,2.8-1.7,5.8-1.7,9C596.6,267.1,597.1,270.1,598.3,272.9z"/>
			<path class="st6" d="M665,286.6c-0.2-0.6,0-1.2,0.7-1.9l6.4-6.2c0.4-0.4,0.8-0.5,1.3-0.5c0.3,0,0.7,0.1,1,0.3
				c0.3,0.2,0.6,0.4,1,0.7c1,1,2.1,1.9,3.2,2.9s2.4,1.8,3.8,2.6c1.3,0.8,2.8,1.4,4.4,1.9s3.3,0.7,5.1,0.7c1.9,0,3.6-0.3,5-0.8
				c1.5-0.5,2.7-1.2,3.8-2.1c1-0.9,1.8-1.9,2.3-3c0.5-1.1,0.8-2.2,0.8-3.4c0-1.5-0.5-2.8-1.4-3.9c-0.9-1.1-2-1.9-3.4-2.6
				c-1.4-0.7-2.8-1.3-4.3-1.8s-2.9-0.9-4.2-1.2c-3.9-1.2-7.2-2.4-10.2-3.8c-2.9-1.4-5.4-2.9-7.4-4.6c-2-1.7-3.5-3.6-4.5-5.8
				c-1-2.1-1.5-4.6-1.5-7.3c0-2.9,0.6-5.6,1.9-8c1.2-2.4,3-4.5,5.2-6.2c2.3-1.7,5-3.1,8.1-4c3.1-1,6.6-1.4,10.4-1.4
				c2.1,0,4.1,0.3,6.2,0.8c2,0.5,4,1.3,5.9,2.2c1.9,0.9,3.7,2,5.4,3.2c1.7,1.2,3.2,2.6,4.6,4c1.1,1.2,1.1,2.4,0,3.7l-5.2,5.3
				c-0.4,0.4-0.9,0.6-1.3,0.6c-0.4,0-0.8-0.1-1.2-0.3c-0.4-0.2-0.8-0.5-1.2-0.8c-0.8-0.6-1.6-1.3-2.6-2.1c-1-0.8-2.1-1.5-3.2-2.1
				c-1.2-0.7-2.4-1.2-3.7-1.7c-1.3-0.4-2.6-0.7-4-0.7c-1.2,0-2.5,0.1-3.8,0.3s-2.5,0.6-3.5,1.2s-1.9,1.4-2.6,2.4c-0.7,1-1,2.3-1,4
				c0,1.3,0.3,2.4,1,3.3c0.7,0.9,1.6,1.7,2.9,2.3c1.2,0.7,2.7,1.3,4.4,1.8c1.7,0.5,3.5,1,5.6,1.6c3.2,1,6.2,2,9,3.2
				c2.8,1.2,5.3,2.6,7.5,4.3c2.1,1.7,3.8,3.7,5.1,6.1c1.3,2.4,1.9,5.2,1.9,8.5c0,3.3-0.7,6.2-2.2,8.9c-1.4,2.7-3.4,4.9-5.8,6.8
				c-2.4,1.9-5.2,3.4-8.4,4.4c-3.2,1-6.5,1.5-9.9,1.5c-2.5,0-4.9-0.3-7.3-0.8c-2.4-0.6-4.7-1.4-7-2.4c-2.2-1-4.3-2.2-6.3-3.7
				c-2-1.4-3.8-3-5.3-4.8C665.6,287.8,665.2,287.2,665,286.6z M685.2,308.4c0-0.9,0.2-1.4,0.6-1.8c0.4-0.3,0.9-0.5,1.4-0.5h8.2
				c1.4,0,2.1,0.7,2.1,2.2v6.5c0,2-0.2,3.8-0.5,5.3s-0.8,2.7-1.3,3.8s-1.1,1.9-1.7,2.5c-0.6,0.7-1.2,1.2-1.7,1.5
				c-0.2,0.1-0.4,0.2-0.6,0.3c-0.2,0.1-0.4,0.1-0.7,0.1c-0.4,0-0.8-0.2-1.1-0.5l-1.9-1.6c-0.3-0.2-0.5-0.5-0.5-0.7
				c-0.1-0.2-0.1-0.5,0-0.7c0.1-0.2,0.2-0.4,0.3-0.6c0.1-0.2,0.2-0.3,0.3-0.4c0.8-0.8,1.4-1.6,1.9-2.5c0.4-0.9,0.6-1.7,0.6-2.2v-0.6
				c0-0.1-0.1-0.3-0.2-0.4c-0.1-0.1-0.3-0.2-0.6-0.2h-2.8c-0.6,0-1-0.2-1.4-0.5s-0.5-0.9-0.5-1.6V308.4z"/>
			<path class="st6" d="M752.6,230.5c0.5-1.2,1.3-1.8,2.4-1.8h7.9c1.1,0,1.9,0.6,2.4,1.8l26.7,66.6c0.3,0.7,0.3,1.2,0,1.5
				s-0.7,0.5-1.3,0.5h-10.4c-1.1,0-1.9-0.6-2.3-1.7l-4.6-11.4h-29l-4.5,11.3c-0.2,0.7-0.5,1.1-0.9,1.4s-0.9,0.4-1.4,0.4h-10.4
				c-0.6,0-1.1-0.2-1.3-0.5s-0.2-0.8,0-1.5L752.6,230.5z M758.9,246.9l-10.1,26.9h20.1L758.9,246.9z"/>
			<path class="st6" d="M814.7,249.2v48c0,1.3-0.7,1.9-2,1.9h-9.5c-1.2,0-1.8-0.6-1.8-1.9v-66.6c0-0.5,0.1-0.9,0.4-1.3
				c0.3-0.4,0.8-0.6,1.4-0.6h11.1c1.1,0,2,0.6,2.8,1.8l31.8,45.8v-45.7c0-0.5,0.2-1,0.5-1.3c0.3-0.4,0.8-0.5,1.5-0.5h9.4
				c0.5,0,0.9,0.2,1.4,0.5s0.7,0.8,0.7,1.4v66.6c0,1.3-0.7,1.9-2,1.9h-10c-0.5,0-1-0.1-1.5-0.4c-0.5-0.3-0.9-0.7-1.3-1.3
				L814.7,249.2z"/>
			<path class="st6" d="M877.6,230.7c0-1.3,0.6-2,1.9-2h10c1.3,0,1.9,0.7,1.9,2v66.5c0,1.3-0.6,1.9-1.9,1.9h-10
				c-1.3,0-1.9-0.6-1.9-1.9V230.7z"/>
		</g>
	</g>
</g>
<g id="Layer_4">
	<g class="st0">
		<g class="st1">
			<defs>
				<polygon id="SVGID_1_" points="149.3,108.8 100,159.2 123.8,183.1 143.3,163.6 180.4,200.7 136,245.1 150.1,259.1 195.2,214 
					237.1,255.8 249.7,243.1 207.3,200.7 247.1,160.9 271.3,185.1 273.8,153.2 234.8,114.1 215.2,133.8 231.4,150 192.3,189.1 
					153.4,151.3 172.7,129.9 				"/>
			</defs>
			<clipPath id="SVGID_2_">
				<use xlink:href="#SVGID_1_"  style="overflow:visible;"/>
			</clipPath>
			<path class="st11" d="M148.4,271.7l-16.6-16.6l48-48l-38.7-38.7l-21.1,21l-27.2-27.2l55.9-55.9l0,0l0,0l25.5,24.1l-21.1,21.1
				l41.2,41.2l39.3-39.6l-23.3-23.8l22.1-23.5l50.7,49.4l-3,37.2l-27-27L211.5,207l45.9,45.9L242.3,268l-45.2-45.2L148.4,271.7z
				 M134.6,255.1l13.8,13.8l48.8-48.8l45.2,45.2l12.3-12.3l-45.9-45.9l44.5-44.5l25.3,25.3l2.5-31.9l-47.8-46.8l-19.7,20.4
				l23.3,23.3l-42.6,42.7l-44.1-44.1l21-21l-22.6-21.4l-53.1,53.1l24.3,24.3l21.1-21.1l41.5,41.5L134.6,255.1z"/>
		</g>
	</g>
	<path class="st12" d="M139,103.2c-3.7-0.3-65.6,63.8-65.2,67.1c0.4,3.3,24.6,28.3,27.4,28.5c2.7,0.2,25.9-25.9,25.9-25.9l49.3,49.3
		c0,0-59.7,56-58.9,58.9c0.8,2.9,16.3,18.8,18.7,18.7c2.4-0.1,59.9-59.9,59.9-59.9s53.4,55.4,55.5,55.5s16.5-13.4,16.8-16.8
		S212,222.2,212,222.2l52.9-52.9c0,0,30.1,32.4,32.1,32.1c2-0.3,4.8-38.7,3.4-42.4c-1.5-3.7-48.1-51.7-51.8-51.8
		c-3.8-0.1-26,23.2-26.1,26.1c-0.1,2.8,21.6,21.6,21.6,21.6l-47.6,53.4l-51.7-53.9c0,0,21.4-23.1,21.3-26.2
		C165.9,125,142.7,103.5,139,103.2z"/>
	
		<linearGradient id="SVGID_3_" gradientUnits="userSpaceOnUse" x1="222.0424" y1="89.0059" x2="253.5432" y2="64.2553" gradientTransform="matrix(1 0 0 -1 0 344)">
		<stop  offset="0" style="stop-color:#000000"/>
		<stop  offset="1" style="stop-color:#000000;stop-opacity:0"/>
	</linearGradient>
	<path class="st13" d="M261.7,272.9L247,258.2c-3.2-0.9-6.8-1.5-10.5-1.5c-7.6,0-14.5,2.1-19.1,5.5l25.9,25.9
		C253.8,286.3,261.6,280.2,261.7,272.9z"/>
	
		<linearGradient id="SVGID_4_" gradientUnits="userSpaceOnUse" x1="195.9959" y1="87.1946" x2="230.6473" y2="59.9685" gradientTransform="matrix(-1 0 0 -1 361.1572 344)">
		<stop  offset="0" style="stop-color:#000000"/>
		<stop  offset="1" style="stop-color:#000000;stop-opacity:0"/>
	</linearGradient>
	<path class="st14" d="M121.4,276.5l16.2-16.1c3.5-1,7.4-1.6,11.6-1.6c8.4,0,15.9,2.3,21,6.1l-28.5,28.4
		C130.1,291.1,121.6,284.4,121.4,276.5z"/>
	<g>
		<path class="st15" d="M222.4,133.3c-0.1,2.3,14.2,15.1,19.6,19.8v-41.5C234.1,118.5,222.5,131.2,222.4,133.3z"/>
		<path class="st15" d="M242,250.8c-14.7-14.2-30-28.6-30-28.6l30-30v-35.1l-45.6,51.2L151,160.9v36l25.3,25.3
			c0,0-12.1,11.3-25.3,24v39.6c17.8-17.7,45-45.9,45-45.9s30.1,31.3,46,46.9V250.8z"/>
		<path class="st15" d="M151,147.4c6.3-7.1,15.1-17.3,15-19.3c-0.1-1.8-7.8-9.7-15-16.1V147.4z"/>
	</g>
	<g>
		<path class="st16" d="M237,245.9v35.8c7.8,7.8,13.8,13.6,14.5,13.6c2.1,0.1,16.5-13.4,16.8-16.8
			C268.5,276.7,252.1,260.5,237,245.9z"/>
		<path class="st16" d="M248.5,107.2c-1.6,0-6.4,4.1-11.5,9v32.4c3.9,3.5,7,6.2,7,6.2l-7,7.9v34.5l27.8-27.8
			c0,0,30.1,32.4,32.1,32.1c2-0.3,4.8-38.7,3.4-42.4C298.9,155.4,252.3,107.3,248.5,107.2z"/>
	</g>
</g>
<g id="Proud">
	<path class="st17" d="M109.1,178.8c-5.6,6-12.4,5.2-18.5-0.5c-6.3-5.9-7.1-12.6-1.3-18.8c2.2-2.4,4.6-3.8,7.2-4.1
		c2.5-0.2,4.9,0.6,7.3,2.4l-2.3,2.4c-0.8,0.9-1.8,1.1-2.9,0.7c-2-0.7-4,0-5.7,1.8c-3.5,3.7-2.4,7.8,1.5,11.5c3.8,3.6,8,4.6,11.4,0.9
		c2.3-2.5,2.3-5.2,0.6-7.7l3.6-3.9C114.2,168.3,113.8,173.8,109.1,178.8z"/>
	<path class="st18" d="M256,125.7c2,1.8,3.2,3.9,3.7,6.2c0.3,2.3-0.3,4.4-2,6.4l-2.1-2c-0.6-0.6-0.8-1.3-0.7-2.3
		c0.6-2,0.1-3.8-1.6-5.3c-2.9-2.7-6.1-2.3-9.6,1.4s-3.8,7.1-0.9,10.2c2.3,2.2,5.2,1.9,7.4,0.2l-2-1.9c-1-0.9-1-2.4-0.1-3.4l1-1.1
		l6.9,6.4l-8.5,9.1l-0.9-0.8c-0.8-0.8-1.1-2.1-0.5-2.9l0.6-1c-2.6,0.4-4.6,0.1-7.1-2.1c-4.8-4.5-4.3-11,0.4-15.9
		C244.6,122,251.2,120.9,256,125.7z"/>
	<g class="st0">
		<path class="st19" d="M108.7,157.6l1-1.1l3.9,3.7l4.1-4.3l-3.9-3.7l2.1-2.2l10.5,9.9l-2.1,2.2l-4.7-4.4l-4.1,4.3l4.7,4.4l-2.1,2.2
			l-9.4-8.9C108.2,159.1,108.1,158.2,108.7,157.6z"/>
		<path class="st19" d="M118,150c-0.7-0.7-0.8-1.4-0.1-2.2l6.2-6.5l1.8,1.7l-5.2,5.5l2.3,2.1l3.9-4.1l0.7,0.7c0.7,0.7,0.7,1.4,0,2.1
			l-2.8,3l2.7,2.6l5.2-5.5l1.9,1.8l-7.2,7.6L118,150L118,150z"/>
		<path class="st19" d="M140.2,145.5c-3.1,3.2-6.7,2.8-10-0.3c-3.4-3.2-3.8-6.8-0.7-10.2c1.2-1.3,2.5-2,3.9-2.2
			c1.4-0.1,2.7,0.3,3.9,1.3l-1.2,1.3c-0.4,0.5-1,0.6-1.6,0.4c-1.1-0.4-2.1,0-3.1,1c-1.9,2-1.3,4.2,0.8,6.2c2.1,1.9,4.3,2.5,6.2,0.5
			c1.3-1.4,1.3-2.8,0.3-4.2l2-2.1C142.9,139.9,142.7,142.9,140.2,145.5z"/>
		<path class="st19" d="M135.8,128.8l1-1.1l4.3,4.1l-0.5-8.2l2.6-2.7l0.3,8.2l10.6,1.3l-2.5,2.6l-6.2-0.8c-1.1-0.1-1.7,0.1-2,0.6
			c-0.2,0.5-0.2,1,0.2,1.3l3.7,3.5l-2,2.2l-9.4-8.9C135.3,130.4,135.2,129.4,135.8,128.8z"/>
	</g>
	<g class="st0">
		<path class="st20" d="M259.1,152.7c0.3,0.5,0.4,1,0.3,1.4c-0.1,0.5-0.5,1-1,1.6l-1.6,1.9c-0.2,0.3-0.3,0.6-0.3,0.9l-2.1-1.9
			c0.1-0.3,0.2-0.5,0.4-0.7c0.1-0.2,0.5-0.7,1.4-1.6c1-1.2,1.1-1.7,0-2.7l-2-1.9l-3.3,3.5l-1.9-1.7l7.6-8.1c0.5-0.5,1.3-0.6,1.9-0.1
			l3.5,3.2c1.9,1.8,2.3,3.5,0.5,5.4C261.4,153,260.2,153.3,259.1,152.7z M260.3,147.8l-2.3-2.2l-2.3,2.4l2.2,2.1
			c0.9,0.8,1.7,1,2.5,0.1C261.2,149.4,261.1,148.6,260.3,147.8z"/>
		<path class="st20" d="M265.1,151.2c0.6-0.6,1.2-0.7,1.9-0.1l5.7,5.3l-1.5,1.6l-4.8-4.5l-1.8,2l3.6,3.3l-0.6,0.6
			c-0.6,0.6-1.2,0.6-1.8,0l-2.6-2.4l-2.2,2.4l4.8,4.5l-1.6,1.7l-6.6-6.2L265.1,151.2z"/>
		<path class="st20" d="M272.7,158.3c0.6-0.6,1.2-0.7,1.9-0.1l5.7,5.3l-1.5,1.6l-4.8-4.5l-1.8,2l3.6,3.3l-0.6,0.6
			c-0.6,0.6-1.2,0.7-1.8,0l-2.6-2.4l-2.2,2.4l4.8,4.5l-1.6,1.7l-6.6-6.2L272.7,158.3z"/>
		<path class="st20" d="M282.1,165.3l1,0.9l-2.1,9.7l5.9-6.3l1.8,1.7l-8.5,9.1l-1.9-1.8l2.1-9.7l-5.9,6.3l-1.8-1.7l7.6-8.1
			C280.8,164.8,281.6,164.8,282.1,165.3z"/>
	</g>
</g>
</svg>
